<svg id="Layer_1" data-name="Layer 1" xmlns="http://www.w3.org/2000/svg" viewBox="0 0 157.59 165.67"><defs><style>.cls-1{fill:#0f0619;}</style></defs><path class="cls-1" d="M483.18,1019.83l-.18-.55h0a3.34,3.34,0,0,0,.08-2.08c-.09-.51-.19-1-.24-1.52-.18-1.79-.36-3.61-.52-5.43s-.26-3.55-.3-5.31l-.2-5.65c-.07-3.57.33-6.91.38-10.6a.75.75,0,0,1,0-.21,14.59,14.59,0,0,0,.21-3.56c0-.53,0-1.25.28-1.25s.33.82.45,1.28c.06.21.06.47.2.59s.2.06.22,0a1.14,1.14,0,0,0,.07-.56,9.65,9.65,0,0,0-.58-2.9,3.28,3.28,0,0,1-.15-2c.09-.45.37-.43.63-.43v0c.19.32.38.24.41,0a4.6,4.6,0,0,0-.36-3,2.58,2.58,0,0,1-.33-1.51,8,8,0,0,1,.31-2.65c.07-.14.24-.14.36-.2l0,0a4.94,4.94,0,0,0,.17,2c.07.22.21.41.33.33a.56.56,0,0,0,.2-.44c-.05-.81-.14-1.63-.22-2.44v.07a6.79,6.79,0,0,0,.49-3.92l0,.09a3.44,3.44,0,0,0,.06-1.54l0,.07a2.08,2.08,0,0,0,.72-1.91c0-.78.2-1.67-.39-2.37a.56.56,0,0,1-.08-.6c.18-.27.35,0,.51.2s.44.4.39-.08a2.1,2.1,0,0,1,.24-1.61,1.28,1.28,0,0,0,0-1.26c-.16-.37-.35-.62-.49,0s-.31.19-.44-.07a2,2,0,0,1-.1-1.32,1.33,1.33,0,0,0-.2-1.24l0,.05a1.34,1.34,0,0,0,.78-1.2c.06-.56,0-1.22.4-1.58.41.56.14,1.06.17,1.56,0,.24.12.45.3.42a.3.3,0,0,0,.23-.22,20.45,20.45,0,0,1,1.22-4.44,1.46,1.46,0,0,0-.07-1.1c-.14-.34-.32-.66-.48-1a1.78,1.78,0,0,0,.75-1.17h0a3.41,3.41,0,0,0,.38.79c1.12,1.34,1,2.84.63,4.42a7.37,7.37,0,0,0-.18,1.08c0,.06.18.27.23.24a1.24,1.24,0,0,0,.52-.4,12.31,12.31,0,0,0,.62-3.65c-.1-.44-.28-.86-.42-1.3l.12.09-.08-.07a2.41,2.41,0,0,1-.49-1.68,2,2,0,0,0-.39-1.25c-.5-.62-.88-.58-1.16.17a4.32,4.32,0,0,0-.45,2.77l-.56-.33v0c.11-.65.23-1.3.33-2a14.14,14.14,0,0,0,.17-4.51,2.37,2.37,0,0,0-.25-.62.18.18,0,0,0-.15-.08c-.05,0-.14,0-.14.08-.05.59-.11,1.19-.16,1.78,0,.26-.15.36-.35.25s-.49-.2-.4.29a.89.89,0,0,1-.41,1.05c-.47.28-.8,0-.82-.64v-1.83a.54.54,0,0,0-.2-.36c-.19-.09-.3.08-.37.3-.26.76-.09,1.66-.34,2.44a18.61,18.61,0,0,0-1,4.91,23.6,23.6,0,0,1-.53,3.73c-.56,2.55-.48,5.32-.79,7.92a5.25,5.25,0,0,0,.13,1.14v-.1a2,2,0,0,0-.48,1.41c0,.47-.22,1,.21,1.37s.45-.34.71-.43l-.05-.08a4.54,4.54,0,0,1,.06,3.43l0-.07A19.75,19.75,0,0,1,482,973a2.7,2.7,0,0,0-.06.41c-.24,2.6-.25,5.29-.68,7.78a11.1,11.1,0,0,0,0,1.3c0,1,0,2.08,0,3-.21,2.41-.32,4.84-.32,7.32s-.06,4.83.11,7.33c.09,1.45.19,3-.69,3.23a2.64,2.64,0,0,0,0-.4,3,3,0,0,0-.09-.38c0,.11,0,.22,0,.33s0,.29.07.44a7.23,7.23,0,0,1,.57.72c.31.55.34,1.25.06,1.4a.71.71,0,0,1-.41,0c-.25,0-.34.18-.37.61a11.34,11.34,0,0,0,.05,1.83l.3,3a4.9,4.9,0,0,1-.45,3.2,38.47,38.47,0,0,0-2.3,3.61,2.83,2.83,0,0,0-.24,2.17c.23,1.08,0,1.45-.32,1.55a2.62,2.62,0,0,0-1.3,1.27,4.88,4.88,0,0,1-3,2.29,5,5,0,0,1-3.86-.49,1.39,1.39,0,0,0-.59-.15,2.62,2.62,0,0,1-1.15-.5,37,37,0,0,1-5-3.45c-.39-.34-.79-.71-1.17-1-1.86-1.33-3.78-2.7-5.71-3.9a9.89,9.89,0,0,0-2.7-1.23c-2-.56-4-1.1-6.15-1.77s-2.4-1.33-2.81-3.42c-.35-1.75-.54-3.46-.78-5.21-.27-2-.45-3.89-.78-5.91a36,36,0,0,0-1.27-5.2c-.59-1.84-1.31-3.66-2.08-5.5a77.65,77.65,0,0,1-4.62-16.42c-.3-1.57-.4-3.14-.73-4.72a88,88,0,0,1-1.65-10.26c-.34-3.74-.47-7.41-.58-11.12a15.76,15.76,0,0,1,.16-3.24,9,9,0,0,0,0-2.38,17.87,17.87,0,0,1,.52-7.38,35.43,35.43,0,0,0,1.06-3.93,38.59,38.59,0,0,0,.7-4.08c.05-.44.13-.88.22-1.31s.1-.66.28-.8c1.12-.83,1-2.14.92-3.44,0-.83,0-1.67,0-2.5s.08-1.82,0-2.73c0-1.19.55-2.19.69-3.31.41-3.29,1.85-6.21,3.22-9.11a1.37,1.37,0,0,1,.66-.57c.47-.23,1-.37,1.46-.57a1.46,1.46,0,0,0,.92-.94c.32-1,.68-2,1-3.09q1.36-5,2.92-10.1a2.5,2.5,0,0,1,1.38-1.84,2.3,2.3,0,0,0,1.29-1.62c.18-.6.45-1.17.66-1.77a4.18,4.18,0,0,1,1.23-1.74c.73-.65,1.81-.42,1.89.48a8.25,8.25,0,0,0,.8,2.64,3,3,0,0,1,.07,2c-.1.37-.44.42-.78.42l.06,0-.42-1.8a.48.48,0,0,0-.56-.34c-.14,0-.35.12-.38.22-.6,1.7-1.15,3.39-1.68,5.09a1.77,1.77,0,0,0,0,.46c-.09.43-.2.87-.26,1.3,0,.09.19.26.31.28a.47.47,0,0,0,.38-.17,1.4,1.4,0,0,0,.12-1.08l2.25-2.93h-.07c.12.36.19.78.7.81.26,0,.53.1.54.35.06.9.48,1.83-.12,2.7-1.18,1.73-1.2,3.79-1.74,5.69a2.53,2.53,0,0,0,.34,1.78,1.07,1.07,0,0,0,.51.43.46.46,0,0,0,.56-.27,42.33,42.33,0,0,0,2.37-5.48,11.12,11.12,0,0,0,.55-2.26,4.84,4.84,0,0,0-.61-3.77,1.33,1.33,0,0,1,0-1.71c.17-.27.42-.49.6-.75.52-.73.58-1-.23-1.52a1.73,1.73,0,0,1,.58-3.08,2.25,2.25,0,0,0,1.35-.55c.22-.24.52-.5.8-.16a1.32,1.32,0,0,1,.27.84,2.32,2.32,0,0,1-.29.9,3.67,3.67,0,0,0-.53,3.11c.11.3-.13.75-.27,1.1a8.71,8.71,0,0,0-.68,2.48c0,.57.26.93.8.83a2.55,2.55,0,0,1,1.59.1c.31.14.61-.14.75-.44.28-.62.09-1.44.88-1.84l0,.06.15-.92c.09-.42-.12-.59-.51-.52s-.75.5-1.08.11a2.19,2.19,0,0,1-.42-1,3.42,3.42,0,0,1,.38-2c.32-.62.59-1.57,1.32-1.59s1,.88,1.13,1.54l.06.22a.77.77,0,0,0,.91.56c.57-.05,1.14,0,1.71-.05l0,0c-.05.62.34.83.9.78s.9.2,1,.75a2.19,2.19,0,0,0,.16.67c.24.58.74.58,1.2,0,.14-.18.23-.48.48-.4s.27.34.3.54c.09.84.11,1.69.23,2.53a.71.71,0,0,0,.8.68,2,2,0,0,1,2.29,1.17c.18.31.54.22.79,0s.26-.41.45-.53a.77.77,0,0,1,.63-.11.73.73,0,0,1,.29.57,7.25,7.25,0,0,1-.47,2.72,1.38,1.38,0,0,0-.09,1.12c.05.12.2.19.32.25a.21.21,0,0,0,.21-.05,2.88,2.88,0,0,0,.54-.73c.34-.94.65-1.91,1-2.86l0,0c.59.55.69,1.36,1.06,2a4.33,4.33,0,0,1,0,4.2v-.08a20.88,20.88,0,0,1-.35,3c-1.21,4.38-2,8.82-2.78,13.23a9.29,9.29,0,0,0-.07,4.1,1.45,1.45,0,0,0-.34.2c-.13.13-.09.26.07.3s.12-.06.14-.11a3.11,3.11,0,0,0,.07-.44,5.35,5.35,0,0,0,1.05-3.36,10.08,10.08,0,0,1,.68-3.8,5.33,5.33,0,0,0,.52-2c-.14-1.72,1.19-2.9,1.47-4.48,0,0,.13-.11.18-.1a.8.8,0,0,1,.37.18,1.2,1.2,0,0,1,.25,1.08A12.5,12.5,0,0,1,477,905l0-.06a4.27,4.27,0,0,0-.34,2.23c0,.81-.95,1.17-.75,2.05a.89.89,0,0,1,0,.23l0-.06a4.55,4.55,0,0,0-.13.89.56.56,0,0,0,.55.58.62.62,0,0,0,.48-.32,15.23,15.23,0,0,0,.95-2.51c.55-2.44,1.1-4.91,1.65-7.38a23.32,23.32,0,0,0,.35-4.8.51.51,0,0,0-.35-.54.38.38,0,0,0-.48.34c-.08.72-.2,1.36-1,1.59l.06.06c-.34-1.18-.85-2.36.12-3.51.2-.24.13-.74.15-1.12s0-.61,0-.92a.68.68,0,0,1,.56-.65.77.77,0,0,1,.58.25,2.89,2.89,0,0,1,.83,1.86,3.76,3.76,0,0,0,.84,2.79,3.33,3.33,0,0,1,1.07,2.44c.15,1.72.5,2.07,2.06,2.47a4.29,4.29,0,0,1,.64.17,1.33,1.33,0,0,1,.87,1.66,12.47,12.47,0,0,1-.29,1.35c-.54,1.9-1.34,3.71-1.22,5.79a1.68,1.68,0,0,1-.24.87c-.61,1.11-.37,2.29-.3,3.68a4.39,4.39,0,0,0,1-2.63,5.21,5.21,0,0,1,.45-2,16.16,16.16,0,0,0,1.51-6.63,4,4,0,0,1,.8-2.31.44.44,0,0,1,.36-.18.42.42,0,0,1,.3.26,5,5,0,0,0,1.74,3.35c1.62,1.62,1.49,3.9,2,6-.58,1.93.49,3.79.21,5.72a.61.61,0,0,0,.52.61c.32.08.35-.37.63-.48a10.08,10.08,0,0,0,.39,3.6,6.27,6.27,0,0,1,.06,3,22.67,22.67,0,0,0-.51,3.4,2.15,2.15,0,0,1-.19.89c-.8,1.42-.7,3.27-1.43,4.72-.26.52,0,1.47-.31,1.94s-1,.47-1.31,1.06a1.68,1.68,0,0,0-.29-.24c-.18-.11-.33,0-.37.22a.62.62,0,0,0,0,.41c.17.21.31,0,.42-.12a2.1,2.1,0,0,0,.22-.33c.1.75.21,1.5.28,2.25a1.58,1.58,0,0,1-.07.86c-.74,1.08-.79,2.8-1.83,3.56a4.93,4.93,0,0,0-.11-.67c0-.12-.17-.28-.23-.26s-.1.2,0,.35l.36.52.51.8,0,0,0,.53h.05c-.19,1.65-.19,1.65.93,1.47.4-.06.83.36.86.88,0,.3-.06.6-.05.9a14.35,14.35,0,0,0,.12,1.61c.05.3.25.58.49.5a.62.62,0,0,0,.28-.46,9.06,9.06,0,0,1,.22-2,19.42,19.42,0,0,0,.34-2.22c.05-.39-.29-.72-.55-.47s-.5.38-.67-.1a9.8,9.8,0,0,1-.41-3,.46.46,0,0,1,.3-.48c.22-.07.49-.13.53-.47.11-.9.66-1.52.67-2.54,0-2,.93-3.75,1-5.78a2.75,2.75,0,0,1,.45-1,12.67,12.67,0,0,0,1.34-4.93,18.4,18.4,0,0,1,2.26-7c0-.06.1-.09.16-.13v0a12.62,12.62,0,0,1-.44,2.46c-.87,2.18-.87,4.57-1.22,6.87a.5.5,0,0,0,.27.61c.45-1,.62-2.26,1-3.32,1.17-3,2.25-6,3.31-9,.12-.35.15-.77.45-1a.91.91,0,0,1,.56-.21c.28,0,.44.28.49.62a3.12,3.12,0,0,1-.37,1.76,43.73,43.73,0,0,0-2.09,6.45c-.17.65-.3,1.32-.43,2a1.39,1.39,0,0,1-1.06,1.14l.07-.17-.07.11.43.74c.16.29.34.4.59.16s.45-.84.86-.6.2.92.19,1.41,0,.89,0,1.34c-1,.27-1.35,1.27-1.58,2.31-.81,3.61-1.59,7.22-2.55,10.67-.5,1.78-.61,3.74-1.09,5.5-.65,2.35-1.08,4.79-1.61,7.16s-.88,4.49-1.25,6.75a6.38,6.38,0,0,0-.12,2c.32,0,.41-.29.47-.55.25-1.13.51-2.26.73-3.41.58-3,1.19-5.94,1.87-8.91l.27-1.33a65,65,0,0,1,1.7-7.38,38.15,38.15,0,0,0,1.24-5,51.53,51.53,0,0,1,1.46-5.17,5.51,5.51,0,0,0,.41-2.68c.84-.65.89-1.81,1.08-2.83a8.68,8.68,0,0,1,1.17-3.13.28.28,0,0,1,.32-.09.41.41,0,0,1,.16.35,14.81,14.81,0,0,0-.08,3.88,7.56,7.56,0,0,1-.34,3.38q-1.09,3-2,6.14a22.63,22.63,0,0,1-.64,2.61,16.74,16.74,0,0,0-1,4.31,14.29,14.29,0,0,1-.37,1.75c-1,3.82-1.86,7.53-2.68,11.4a4,4,0,0,0,.12,3c.09.17,0,.58-.16.48-.45-.33-.65,0-.79.53-.35,1.4-.76,2.77-1,4.22-.58,3.8-1.47,7.33-1.72,11.19l0-.06a2.52,2.52,0,0,0-.3.9c0,1.59-.51,2.9-.29,4.57a1.18,1.18,0,0,1-.08.61,2.45,2.45,0,0,0,0,2c.14.4.06.6-.17.78a1.81,1.81,0,0,0-.32,2.23,2.76,2.76,0,0,1,.27,1.85,23.91,23.91,0,0,0-.33,3.35c0,.22,0,.69-.23.39a1.6,1.6,0,0,1-.13-.62,3.39,3.39,0,0,1,0-.64l-.05-.62a1.18,1.18,0,0,0,0-.19c-.08,0-.11.07-.07.25s.11.38.17.58c-.56.45-.63.74-.3,1.7a6.93,6.93,0,0,1,.44,2.18c0,.36.08.93-.08,1-.34.1-.24-.65-.38-1a5.66,5.66,0,0,0-.22-.59c-.13-.2-.22,0-.25.15a2.15,2.15,0,0,0,.19,1.27h0a14,14,0,0,1-.18,1.4,12.85,12.85,0,0,0-.15,4.2,7.59,7.59,0,0,1-.05,1.86,18,18,0,0,0-.2,3.43c.11,2.33.33,4.71.35,6.92,0,.4.13.9.15,1.32a17,17,0,0,1,.22,3.41v0a9.91,9.91,0,0,0,0,2A13.67,13.67,0,0,0,491,1026a29.4,29.4,0,0,0,1.66,3.76c.37.72.69,1,1,.89a3.43,3.43,0,0,0,1.31-1.54c.63-1.11,1.27-2.43,2-3.52.26-.42.56-.63.82-1.12q1-2,2.24-4.23c.81-1.38,1.67-2.72,2.57-4.15l1.58-2.46.82-1.31.85-1.26a30.48,30.48,0,0,1,2.45-3.4,32,32,0,0,0,3.36-4.7c.24-.37.47-.8.76-.88s.44-1.15.81-1.15.82-.61,1.21-1.14a22.39,22.39,0,0,0,1.88-2.6,3.12,3.12,0,0,1,.85-.88c.68-.59,1.38-1.11,2.09-1.63a13.31,13.31,0,0,0,2.13-1.77,11.51,11.51,0,0,1,.95-.8,43.36,43.36,0,0,0,5.61-5.15,3.14,3.14,0,0,1,.77-.55,6,6,0,0,0,.79-.49c1-.78,2-1.65,3-2.36s1.81-1.29,2.75-1.88a10.66,10.66,0,0,0,2.4-1.37,12.22,12.22,0,0,1,3.28-2.11,5.93,5.93,0,0,0,2.76-2.85c1.81-.84,3.64-1.65,5.52-2.49a2,2,0,0,0,1.43-1.19c.1,0,.21,0,.3,0s.13-.2.19-.3-.18,0-.25,0a1.9,1.9,0,0,0-.22.37.66.66,0,0,0-.94-.22,37.73,37.73,0,0,0-5.29,2.93,1.9,1.9,0,0,0-.72,1,1.08,1.08,0,0,0-1.42.22c-1.23,1.29-2.51,1.49-3.75,2.28-.18.11-.37,0-.55,0V978l-.17-.61,0,0c1.25-1,2.54-2,3.83-2.92a10.57,10.57,0,0,0,2.13-1.61l0,.07c-.21-.34-.44-.63-.85-.26a1.48,1.48,0,0,1-1.29.45v.05c0-.47-.1-.46-.32-.11l0,0a23.79,23.79,0,0,1-5.55,4.3,8.86,8.86,0,0,0-2.21,1.63,5.18,5.18,0,0,1-1.76,1.18v.06l-.31-.08,0-.06c-.09.06-.2.07-.27.17a7,7,0,0,1-2.14,1.91,8.88,8.88,0,0,0-2.13,1.78.4.4,0,0,1-.38.12c-.33,0-.61.15-.83.72-.34.88-.83,1.27-1.29,1.19-.77-.12-1.32.55-1.77,1.77-.17.47-.39.64-.67.6a.83.83,0,0,0-.48.14,8.75,8.75,0,0,0-1.66,1.38c-.54.54-1.06,1.15-1.59,1.62-.27.71-.63.67-1,.89s-.83.17-1.06,1.26a2.06,2.06,0,0,1-.6.8l-2.1,2.27c-.23.27-.47.74-.7.77s-.24-1-.53-1.14l0-.06a18.21,18.21,0,0,1-.38,2.4h0a8.69,8.69,0,0,0-.05-.89c-.12-1-.33-1.14-.77-.61a1.58,1.58,0,0,0-.38,1.09,3,3,0,0,1-.23,1.27l0-.11v.05c-.12,1-.12,1-.52.78-.13-.07-.25-.31-.33.13a6.65,6.65,0,0,1-1.31,3c-.8,1.19-1.67,1.92-2.4,3.18a11,11,0,0,1-1.62,2.25,1.47,1.47,0,0,0-.28.85v0c-.34-.11-.63.24-.91.69a24.29,24.29,0,0,1-1.68,2.59,7.21,7.21,0,0,0-1.33,2c-.07.18-.19.21-.28.34-.85,1.24-1.66,2.5-2.4,3.79a10.36,10.36,0,0,1-1.89,2.75c-.25.23-.21.75.09,1.44a.74.74,0,0,1,.11.52c0,.22-.14.36-.25.17a4.29,4.29,0,0,1-.24-.74c-.09-.37-.19-.7-.35-.66s-.14.46,0,1.08c0,.14.08.27.11.42.09.47.08.77-.12.6s-.18,0-.23.23c-.36,1.73-.93,2.07-1.87.93v-1.14l.15.2.08.08c0-.14,0-.23-.1-.25h-.14c-.07-.14-.16-.39-.21-.4s-.06.24,0,.45l.25,1c.1.46.12.81-.05.75s-.28-.29-.41-.36-.24,0-.13.55c.05.23.11.45.15.66a.6.6,0,0,1,0,.3s-.11,0-.14,0a6.73,6.73,0,0,1-.89-3.4c0-1.41-.06-2.85-.25-4.42s0-2.28.4-2.7v.06a1.38,1.38,0,0,1-.3-.69,31.23,31.23,0,0,1-.28-4.75,5,5,0,0,0-.1-1.52,3.36,3.36,0,0,1,.06-1.58,4.65,4.65,0,0,0,.3,1.3c.54.46,1,.78,1.48.24.1-.12.29.07.44.12l-.7,1.19c-.05,0-.1-.06-.14-.06s0,.07,0,.11c-.26.09-.43.44-.51,1l0-.05c.42.44.71.36.79-.59a1.1,1.1,0,0,0,.28.18c.47.1.53-.13.42-1.39,0-.15-.06-.3-.09-.45l.44-.21.07.74,0,0,0-.62a1.21,1.21,0,0,1-.13-1.13,3.42,3.42,0,0,1,.83-1,1.31,1.31,0,0,0,.43-1.1c0-.74.17-.46.37-.26s.29-.12.41-.29c.55-.76,1.09-1.6,1.69-2.28.26-.31.21-1.31.66-1.25.27,0,.5-.81.79-1.07a8.23,8.23,0,0,0,.86-.9c.28-.36.58-.64.86-1,.64-.87,1.3-1.74,2-2.68a6.17,6.17,0,0,1,1.45-1.81c.65-1.41,1.61-1.88,2.33-3.25a7.4,7.4,0,0,1,1.48-1.69c.2-.23.39-.5.58-.75a3.28,3.28,0,0,0,.85-.75,11.46,11.46,0,0,1,1.39-1.82,1.94,1.94,0,0,0,.46-1.7c-.31-.11-.61.26-.77.55a17,17,0,0,1-1.47,2,2.58,2.58,0,0,0-.43,1.76c-.22-.62-.51-.88-.88-.5-1.16,1.17-2.38,2-3.31,3.8-.18.36-.4.78-.62.87-.66.24-1,1.71-1.69,1.7-.32.56-.59,1.19-.89,1.75-.56,1-.51,1.23-1.16,1.38-.4.09-.75.14-.86,1.12,0,.22-.07.52-.17.45-.48-.33-.69.59-1,.88v0a6.73,6.73,0,0,1-1.81,2.56,6.78,6.78,0,0,0-.95,1c-.33.37-.66.55-1.09-.07l0-.07a3.18,3.18,0,0,0-.79,1.66c-.1-.14-.18-.19-.21-.3-.44-1.38-.79-1.53-1-.43a4.91,4.91,0,0,0-.11,1.84,3.34,3.34,0,0,1-.38,2.61c-.09-.44-.19-.87-.29-1.32a7,7,0,0,0-.07-3.49,14.25,14.25,0,0,1-.16-3.94.45.45,0,0,1,.19-.38c.1,0,.2.19.25.43a5.34,5.34,0,0,0,.59,1.82c.17.24.36.42.48.15l.59-1.35.6-1.31a2.32,2.32,0,0,0,0-1.47,6.72,6.72,0,0,0-1.1-2.31,4.39,4.39,0,0,1-.71-3.05l.17-1.91c.12-1.27.35-2.49.36-3.82a26.48,26.48,0,0,1,.52-4.67,23.69,23.69,0,0,0,.4-3.67,18.73,18.73,0,0,1,.83-6,5.12,5.12,0,0,0,.2-1.28,10.35,10.35,0,0,1,.23-1.51,33.17,33.17,0,0,0,.88-6.37l0,0a15.43,15.43,0,0,0,1.16-3.3c.26-1.89.61-3.75.92-5.64a3.18,3.18,0,0,0-.15-.87l0,.08c.77-.1,1.16-.76,1.27-1.86l.19-2,0,.06c1.08-1,1.2-2.7,1.26-4.37a1.21,1.21,0,0,0-.86-1.22l0,.06a1.41,1.41,0,0,1,.4-1.18l0,0c.89.9,1.11.88,1.54-.17a3,3,0,0,0,.23-.61c.55-2.56,1.79-4.85,1.74-7.69a.87.87,0,0,1,.05-.22c.1-.46.48-.8.81-.69a.76.76,0,0,1,.47.85c-.08.93.07,1.87,0,2.77-.12,1.82-.06,3.73-.81,5.4a2.61,2.61,0,0,0-.19,1.77,1.32,1.32,0,0,1-.29,1.22,5.56,5.56,0,0,0-.34.78l.05,0v.57l-.05-.06a6.83,6.83,0,0,1-1,3,10.73,10.73,0,0,0-1.2,3.66c0,.29,0,.65.23.76a.36.36,0,0,0,.42-.09c.63-.8,1.21-1.75,2.08-2.1.11-.05.17-.37.26-.56l0,.05A9.41,9.41,0,0,0,505,951c1.57-1.85,3.18-3.62,4.87-5.43a1.5,1.5,0,0,0-.24-.3c-.33-.24-.61-.5-.08-.89.15-.12.32-.22.33-.47a1.72,1.72,0,0,1,.79-1.37,10.57,10.57,0,0,1,2.66-2.07,1.83,1.83,0,0,0,.79-.89,1.91,1.91,0,0,0,.32-.16c.13-.11.14-.24,0-.3s-.11.06-.13.11-.11.27-.16.41c-.29-.2-.62-.75-.89-.45-1,1.13-2.49.52-3.42,1.82,0,0-.21-.07-.26-.17a.64.64,0,0,1-.05-.43,1.29,1.29,0,0,1,.3-.53,5.31,5.31,0,0,1,.92-.59c.23-.12.46-.2.47-.57,0-.88.33-.86.76-.46.19.17.4.78.57,0a2.45,2.45,0,0,1,.44-1,9.1,9.1,0,0,1,2.22-1.92,4.87,4.87,0,0,0,1.35-1.15c.13-.17.23-.43,0-.57s-.31.1-.41.29h0c-.05-1,.18-1.74,1.1-2a4.24,4.24,0,0,0,1.71-1.24,10,10,0,0,1,3-2.2,3,3,0,0,0,1.61-1.52l-.05,0c.59-.67,1.5-.45,2.05-1.23a5.28,5.28,0,0,1,1.61-1.31c1-.66,2.08-1.36,3.13-2l3.14-1.89a.5.5,0,0,0,.21-.35.33.33,0,0,0-.37-.38,10.4,10.4,0,0,0-2.75.65,18.06,18.06,0,0,0-2.62,1.35c-.36.22-.67.52-1,.75s-.53.28-.66-.1a.83.83,0,0,1,.13-.61,7.72,7.72,0,0,1,4.22-3,3.6,3.6,0,0,0,.94-.32,49.72,49.72,0,0,1,8-2.85c2.28-.58,4.61-1.64,6.91-2a1.39,1.39,0,0,0,.38-.17,1.32,1.32,0,0,0,.66-.83c.45-1.5.46-1.49,1.6-1.59a4.63,4.63,0,0,0,2-.18c1.27-.68,2.72-.65,4-1.52a1.13,1.13,0,0,1,1-.08c.46.12.91.33,1.38.41a4.9,4.9,0,0,0,3.44-.32c.79-.44.91-.43,1.11.51a3.8,3.8,0,0,0,2.32,2.81,11,11,0,0,0,1.68.64,4.93,4.93,0,0,1,3.85,3.23,1.32,1.32,0,0,0,.52.6c1.37.87,2.26,2.31,3.43,3.38a3.12,3.12,0,0,1,1,2.88,2.22,2.22,0,0,0,.54,2,2.73,2.73,0,0,1,.38,3.25,7.49,7.49,0,0,0-.27,4.16c.17,1.33.95,1.52,1.93.57a10.15,10.15,0,0,0,.74-.86c.15-.17.28-.37.44-.52a.52.52,0,0,1,.37-.11c.21,0,.27.24.26.47a3.54,3.54,0,0,1-.08.45c-.38,1.72-.15,3.05,1.1,3.88a1.26,1.26,0,0,1,.59,1c0,1.36.7,2.17,1.07,3.24a1.88,1.88,0,0,0,2,1.46h1.11c1,0,2,.12,2.14,1.49.07.53.47.71.81.95a1.29,1.29,0,0,1,.66,1.3,5.29,5.29,0,0,1-1.07,3c-1.21,1.24-1.8,2.85-2.67,4.28-1.33,2.19-2,4.65-3.32,6.87-1.45,2.45-2.63,5.08-4.46,7.27-.57.68-1,1.52-1.54,2.28a65.92,65.92,0,0,1-6.22,8c-2,2.14-4.1,3.94-6.08,6-.54.55-1.09,1.11-1.66,1.59a57.53,57.53,0,0,0-5.79,5.42c-.37.41-.79.69-1.19,1.06l-1.46,1.4-3,3-3.51,3.47c-2.13,2.14-4.19,4.33-6.24,6.19a33.66,33.66,0,0,0-3.36,3.55c-.72.86-1.43,1.58-2.14,2.36a37.42,37.42,0,0,0-4,5.06,50.85,50.85,0,0,1-3.57,4.93c-1.3,1.58-2.53,3.24-3.74,4.79a7.8,7.8,0,0,1-1.12,1.16c-.3.26-.59.53-.88.81a4.88,4.88,0,0,1-1.9,1.36c-.52.11-.69-.63-.47-1.94a7.22,7.22,0,0,1,.71-2.33,7.21,7.21,0,0,0,.42-.92,2.11,2.11,0,0,0,.28-1c-.26-.05-.52.51-.77.79s-.52,1.15-.82,1.11a7.67,7.67,0,0,1,.55-2.29,13.82,13.82,0,0,1,.56-1.36l.68-1.54v.06c-.17.12-.35.17-.49.41a22.24,22.24,0,0,0-2.15,4.37,3,3,0,0,1-.57,1.18,7.74,7.74,0,0,0-1.24,1.57c-.2.29-.35.31-.41-.11a2.28,2.28,0,0,1,.18-1.25c.64-1.32,1.32-2.62,2-3.84,1.1-1.87,2.26-3.7,3.49-5.51a4.25,4.25,0,0,0,.77-1.64c0-.23.18-.53.26-.45.33.31.59-.52.89-.85.72-.78,1.39-2,2.13-2.74a4.22,4.22,0,0,0,1.14-2c.21-.78.46-.92.77-.7s.51-.37.71-.87l0,.05a1.14,1.14,0,0,0,.57-.7l0,0c.39-.18.65-.85,1-1.34s.69-.2,1-.86c.07-.13.14-.24.21-.36l0,0c.11-.1.27-.15.35-.31a10.86,10.86,0,0,1,2.61-3.29l0,0a2.72,2.72,0,0,1,.77-1.42c.56-.62,1.14-1.16,1.72-1.73l0,0a4.25,4.25,0,0,1,.53-.94c.9-.78,1.79-2,2.78-2.12.62-.06,1.13-.58,1.56-1.72.27-.71.28,0,.38.13s.31,0,.48-.27l.46-.45.16-.22-.09.1-.06.18-.46.44c0-1.42,0-1.37.78-2.19a2.44,2.44,0,0,1,1.63-.93l0,.06a1.62,1.62,0,0,0,.77-1.19,2.58,2.58,0,0,1,1-1.64c.38-.33.75-.71,1.12-1.08a.59.59,0,0,1,.81-.07v0a2.43,2.43,0,0,0-.26.29.34.34,0,0,0-.08.19c0,.1.06.27.09.26a4.92,4.92,0,0,0,1.77-2,1.54,1.54,0,0,0,0-.58v0a5.5,5.5,0,0,0,1.36-2.08c.36-.81.46-.81,1-.18l-.06-.13,0,.11c.09,0,.19.11.27.05a10.26,10.26,0,0,0,3.49-4,3,3,0,0,1,1.29-1.56,3.85,3.85,0,0,0,1.17-1.15c.8-1.15.78-2.15-.08-2.49-.27-.11-.55-.18-.83-.27a8.06,8.06,0,0,0-1.06-.42,1.31,1.31,0,0,0-.74.1.86.86,0,0,0-.38.43.7.7,0,0,0,.09.72.53.53,0,0,0,.71,0c.46-.27.92-.58,1.39-.88a49.29,49.29,0,0,1-3.87,5.36c-.89,1.12-1.86,2.08-2.77,3.13a51.54,51.54,0,0,1-4.36,4.38,10.91,10.91,0,0,0-1.08,1.23,42,42,0,0,1-3,3.32c-1.46,1.37-2.85,3-4.22,4.47a1,1,0,0,0-.13.16,24.35,24.35,0,0,1-3.26,3.72q-1.58,1.64-3.11,3.36A4,4,0,0,0,531,1003l0-.07a5.87,5.87,0,0,0-1.66,1.83,15.52,15.52,0,0,1-1.37,1.71c-1.11,1.26-2.19,2.59-3.22,4-.6.83-1.19,1.65-1.79,2.38a24.18,24.18,0,0,0-2.42,3.43c-1.16,2.05-2.41,3.16-3.41,5.49a.27.27,0,0,1-.09.13c-.73.51-1.23,2.26-1.85,3.19a3.28,3.28,0,0,0-.34,1.46l0-.08c-.18.18-.35.43-.51.33l0,.06.06-.07-.3,1.5,0,0c-.3-.45-.54-1.09-.9-1.17s-.71,1.08-1.06,1.64l-.07.14c-.09.15-.16.12-.18-.09a1.5,1.5,0,0,1,0-.42,8.09,8.09,0,0,1,.9-2.51,6.59,6.59,0,0,0,.62-1.13,20.3,20.3,0,0,1,2.21-4c.22-.35.42-.49.57-.12s.41.22.65-.3a4,4,0,0,0,.48-1.05,1.94,1.94,0,0,0-.07-.32.84.84,0,0,1-.05-.72c.09-.3.24-.47.36-.46s.32.18.49.2.31-.32.43-.68l0,0a1.56,1.56,0,0,0,.57-.92l0,.06c.16-.11.34-.13.49-.35a18.61,18.61,0,0,0,2-2.8c.64-1.31,1.46-1.69,2.14-2.94.07-.12.13-.25.2-.35a3.5,3.5,0,0,1,.42-.53,20.27,20.27,0,0,0,2.31-2.72,9.38,9.38,0,0,0,1.94-3.55c.16-.56.18,0,.25.1s.19.2.28.12a8.28,8.28,0,0,0,2.5-3.19l0,.05c.28-.24.58-.44.86-.71a5.36,5.36,0,0,0,1.55-2.57h0l.19.12c.12.05.26,0,.33-.22a1,1,0,0,0,0-.55c0-.14-.15-.21-.23-.31l0,0a2.26,2.26,0,0,1,1.09-1.19l0,0c.54-1,1.12-1.76,1.84-1.76v-.08l-.34,1.46-.05-.07,0,.05c.57-.15,1-.62,1.25-1.65l-.06,0c.37.09.74,0,1.14-.58s.8-1,1.2-1.58l-.05,0,.18-.54,0,.06a2.72,2.72,0,0,1,.62-1.26l0,0a14,14,0,0,1,1.46-2.08,17.83,17.83,0,0,1,2.12-1.69c.75-.66,1.25-2,2.1-2.54a1.12,1.12,0,0,0-.19.33c0,.14,0,.1.08-.12a1,1,0,0,1,.09-.18c.2-.11.43-.33.59-.31.52.05.86-.39,1.11-1.14.1-.28.14-.59.25-.87.26-.62.7-1.13,1.06-1,.81.25,1.38-.09,1.9-1.47.16-.43.61-.73.92-1.11a2.62,2.62,0,0,0,.76-1.79v.06a8.67,8.67,0,0,0,.38-.82c.32-.83.18-1.39-.35-1.28a3.38,3.38,0,0,0-1.68.46l.06,0a7.32,7.32,0,0,1-1.3,1.74,8.75,8.75,0,0,0-1.72,2.2,4.94,4.94,0,0,1-.62.9c-1.33,1.47-2.64,2.94-4,4.41a10.36,10.36,0,0,0-.94,1,8.5,8.5,0,0,1-1.75,1.86,14.89,14.89,0,0,0-1.48,1.49c-1.14,1.27-2.25,2.59-3.38,3.73s-2.06,2.95-3.26,3.53c-.17.08-.33.38-.5.57-1.47,1.72-2.85,3.68-4.31,5.08a3.51,3.51,0,0,0-.34.45,16,16,0,0,1-2.37,2.9,3.89,3.89,0,0,0-.56.64,52.65,52.65,0,0,1-3.63,5.31,50.56,50.56,0,0,0-4,6.36c-.62,1.1-1.25,2.09-1.85,3.12a24.28,24.28,0,0,0-1.66,3.5,31.13,31.13,0,0,0-2,4.25c-.15.36-.29.64-.43.39s-.36.12-.47-.3a6.2,6.2,0,0,1,.66-2.29,10.45,10.45,0,0,0,1.47-3.79,20,20,0,0,0,1-3.78,38.69,38.69,0,0,0,.74-4.54c0-.46.12-.92.19-1.38a1.49,1.49,0,0,1,.28-.76c.9-.86,1.42-2.7,2-4.42.2-.61.41-1.24.61-1.87s.65-.82.54-1.49-.57,0-.86,0a.56.56,0,0,0-.32.22,53.17,53.17,0,0,0-4.44,4.89c-.88,1.25-1.74,2.39-2.55,3.6l-2.37,3.53c-1.19,1.78-2.32,3.43-3.36,5.15l-2.9,5a7.35,7.35,0,0,1-.54.85c-.21.27-.41.55-.61.83s-.38.64-.56,1a22.17,22.17,0,0,0-1,2.13,5,5,0,0,1-.25.52l-1.58,2.76c-.24.45-.46,1-.74,1.13a1.89,1.89,0,0,0-.67,1,2,2,0,0,1-.35.64c-.31.37-.64.67-.94,1a3.38,3.38,0,0,0-.72,1.09,14.69,14.69,0,0,1-1.89,3.26c-.35.48-.78,1-1.18,1.41-.53.63-1.25.36-2.4-1.28-.25-.36-.5-.66-.76-1a19.52,19.52,0,0,1-1.88-3.16,6.86,6.86,0,0,0-1.29-2.16,1.07,1.07,0,0,1-.22-.74,8.66,8.66,0,0,1,.31-1,2.16,2.16,0,0,0,0-1.22c-.34-1.49-.25-2.63-.69-4.24a2.55,2.55,0,0,1-.1-1.3,8.73,8.73,0,0,0,0-3c-.08-1.13-.35-2.39-.47-3.56Zm12-18.24,0,.06Zm-16.24,9.25,0,0Zm82.46-41.7-.13.13.1-.07ZM554,970.36l0,.09,0-.05ZM449,893.2v-.12l0,0S449,893.2,449,893.2Zm93.79,77.6.59.19.39-.38-.14.41.14-.38-.32-.65.08-.1,0,.05-.1,1-.61-.2ZM466,928.61h.13Zm-8-36.33-.07.3c0-.05.06-.09.05-.14a.67.67,0,0,0-.05-.19l.42-.68.06,0Zm75.81,84.55,0-.07s0,0,0,0Zm-9.62,7.45,0,0a.2.2,0,0,0,0-.06Zm7.68-50.62-.07-.1s0,.11,0,.11l0-.09ZM488,907.13l0-.07A.36.36,0,0,0,488,907.13ZM554.5,948.7l0,.17-.07.09v-.05A.75.75,0,0,0,554.5,948.7Zm-27.71,5.45c-.22.19.05-.1,0,0Zm-12,39.37c-.16.1-.06.28-.07.42a.27.27,0,0,1-.1.06l.09-.09Zm-24.6-61.34a.49.49,0,0,0,0,.14s.09.06.13.09l0,.06Zm-4.92,6.37.08-.3a.44.44,0,0,0-.05.15c0,.06,0,.14,0,.21ZM473.6,932.1c-.17.36,0,.71.12,1.07a.64.64,0,0,0,0,.24.83.83,0,0,0,.11.41c.1.11.24,0,.23-.15s-.11-.24-.18-.35-.12,0-.18-.07l-.16-1.2Zm11.34,71.9a.4.4,0,0,0,0,.13s.07.06.1.09l0,.06Zm-19-66.93a.47.47,0,0,0-.07-.12.59.59,0,0,0-.14-.06l0-.06Zm-7.2,56.45.07,0a2.43,2.43,0,0,0-.09-.3.83.83,0,0,0,0,.15l.1.16Zm56.84,29c-.06,0-.11,0-.17,0a.26.26,0,0,0-.06.29s.05,0,.07,0l.15-.35.27-.52c.05,0,.11,0,.16,0a.33.33,0,0,0,0-.3s-.06,0-.08,0-.07.24-.11.36ZM485.92,935.3l-.42.71.07.42c.18-.18-.05-.29-.07-.44.46.06.6-.18.37-.75Zm66.5,35.26a1,1,0,0,0-.13.33c.09-.06.2-.09.26-.19a2.19,2.19,0,0,0,.15-.41c.09.11.14.32.33.2,0,0,0-.15,0-.16a1,1,0,0,0-.3,0A.9.9,0,0,0,552.42,970.56Zm-40.2,13.49a.36.36,0,0,0-.06.11,3.59,3.59,0,0,0,.08.35l0,.06C512.24,984.39,512.33,984.21,512.22,984.05Zm-18.33-51.22c.46-.08.66-.4.59-1l0-.38c-.18.15,0,.27,0,.4a1.7,1.7,0,0,0-.58,1v1.39c-.14,0-.32-.14-.4.15,0,0,.1.11.12.09a3.22,3.22,0,0,0,.28-.24Zm-18.72,73.35-.06,0a.5.5,0,0,0-.05.26c0,.15.06.25.13.23s0-.09,0-.14a2.84,2.84,0,0,0-.13-.38Zm66.44-74.86a3.22,3.22,0,0,0,.24-.36s-.07-.15-.08-.14c-.22.14-.14.37-.13.58ZM538,929.27s0,.15,0,.16a1.69,1.69,0,0,0,.31.13l-.08.13,0-.06C538.2,929.47,538.22,929.21,538,929.27ZM493.3,944.6c-.18.18,0,.29.05.44l-.55-.1.05-.06a1.55,1.55,0,0,0,0,.22c0,.27.06.65.32.61s.19-.42.17-.69Zm59.39-30.72s.1.1.14.1a.2.2,0,0,0,.15-.31,2.16,2.16,0,0,0-.43-.36l.25-.93c1.3,1,2.3-.1,3.35-.89a.56.56,0,0,0,.11-.41.35.35,0,0,0-.47-.29,6.62,6.62,0,0,0-3,1.61l-.21.85A5.89,5.89,0,0,0,552.69,913.88Zm-34,21.85a4.81,4.81,0,0,0-.57.54c-.05.06,0,.24,0,.37.1,0,.26,0,.3-.14.11-.27.18-.56.27-.84Zm-53.49,3.79c.15-.22-.1-.28-.14-.43.16,0,.35.12.49.07s.15-.33,0-.5-.26-.14-.29-.09a3.79,3.79,0,0,0-.21.54Zm54.75-2.28,0-.11a2.26,2.26,0,0,0,.42.29c.18.06.34-.08.34-.34a.42.42,0,0,0-.2-.3c-.27-.14-.41.11-.53.38Zm-57,62h0a1.89,1.89,0,0,0,.1-.44.74.74,0,0,0-.1-.37c0-.07-.18-.13-.2-.09a.54.54,0,0,0,0,.33c.06.2.16.39.24.59Zm82.4-29.47c0,.47-.2,1.07.33,1,0,0,.1-.09.12-.15.22-.77-.14-.79-.47-.85-.33-.22-.4-.88-.83-.92l0-.05C544.44,969.8,544.44,969.8,545.33,969.73ZM485.49,1014a.84.84,0,0,0,0-.19c-.07-.11-.1-.05-.07.14l.08.43c-.35,0-.35,0-.11.63.11.27.24.53.35.79-.53-.26-.53-.26-.46.57a15.92,15.92,0,0,1,.12,1.6,14.3,14.3,0,0,0,.29,2.66l.12.37c0-.16-.09-.26-.13-.39a9.61,9.61,0,0,0,.06-4.07,4,4,0,0,1,0-.77,3.51,3.51,0,0,0-.25-1.44ZM470.34,904.61a1.48,1.48,0,0,0,.25.31c.07-.11.18-.21.2-.33s.19-.61-.16-.75c-.14-.05-.36.14-.54.22l.05-.16,0,.08A3.12,3.12,0,0,0,470.34,904.61Zm59.14,75.1c-.05-.06-.13-.05-.2-.08a1,1,0,0,0,.14.2l.21.16a6.24,6.24,0,0,1,1.11-1.71l-.09.15.06-.09c-.6,0-.67.06-.89.76a8.24,8.24,0,0,0-.18.89A1.28,1.28,0,0,0,529.48,979.71Zm-32.9,19.59a.25.25,0,0,0,0,.3s.06-.06.07-.11,0-.27.05-.41c.29.26.49,0,.68-.33l0,.38v-.34c-.51-.47-.52-.47-.65.35C496.7,999.19,496.63,999.22,496.58,999.3Zm37.39,4.48a1.41,1.41,0,0,0-.08-.31c0-.06-.11-.07-.17-.1a1.45,1.45,0,0,0,.09.22c.05.07.11.12.16.19.16-.2.33-.37.49-.59.41-.58.41-.75,0-1.22l.26-.59c.08-.18.08-.28,0-.27a1.29,1.29,0,0,0-.06.2l-.18.62C534.33,1002.56,534.15,1003.17,534,1003.78Zm25.32-43.55a1.08,1.08,0,0,0,.13-.34s-.09-.1-.12-.08l-.59.47c-.27,0-.55,0-.77.34a.57.57,0,0,0,0,.38.21.21,0,0,0,.25.09c.31-.15.41-.53.54-.88A4,4,0,0,0,559.29,960.23Zm-30.53-24.46c0,.05-.1.17-.08.19s.17.08.23-.11a3.11,3.11,0,0,0,.08-.44l.21.33c.16.25.34.35.56,0a.55.55,0,0,0,.14-.58c-.16-.31-.39-.15-.59,0a2.37,2.37,0,0,0-.29.25C528.93,935.57,528.84,935.66,528.76,935.77Zm-10.39,2.54a.62.62,0,0,0-.38.38c0,.44.22.42.45.33a3.4,3.4,0,0,0,.48-.29c0,.13-.15.27-.13.38s.07.11.06-.13a.49.49,0,0,1,0-.2C518.77,938.52,518.63,938.24,518.37,938.31Zm-30.18,45.92c.09.14.22.37.3.35s.18-.37.16-.66a2.33,2.33,0,0,0-.52-1.31c.44.13.69-.22.79-.93q.22-1.57.45-3.18c.3-2.36.61-4.67,1-7,.24-1.4.49-2.81.84-4.16a6.1,6.1,0,0,0,0-2l-.07-.38c-.12.17,0,.26.07.4-.48.1-.76.56-.74,1.32a18.68,18.68,0,0,1-.54,4.27c-.23,1.24-.55,2.39-.68,3.69a12.12,12.12,0,0,1-.6,2.08l0-.06a6.23,6.23,0,0,1-.06,1.09,23.27,23.27,0,0,0-.49,4.88,2.63,2.63,0,0,1-.15,1.29l0-.06A1.9,1.9,0,0,0,488.19,984.23ZM551,968a3,3,0,0,0-.43-.06.64.64,0,0,0-.7.48.24.24,0,0,0,0,.19c.21.27.46,0,.7-.22s.27-.31.41-.46Zm-64.37-52c0,.25.1.5.35.41a.67.67,0,0,0,.37-.46,1.28,1.28,0,0,0-.68-1.29l-.06,0h.1Zm53.17,83.18c.12,0,.27-.15.32-.43a1.13,1.13,0,0,0-.24.08,6.3,6.3,0,0,0-.53.37,4.38,4.38,0,0,0-1.44,1.58,1.71,1.71,0,0,0-.26.21.51.51,0,0,0-.09.18c0,.15.1.14.19,0a4.11,4.11,0,0,0,.15-.42c.86-.12.9-.16,1.42-1.56A1.54,1.54,0,0,0,539.84,999.15Zm-72-82.35c0-.08-.09-.23-.14-.34-.07.08-.21.17-.22.26,0,.36,0,.72,0,1.07-.89.91-.59,1.92-.08,3-.25,0-.53.08-.65.37a6.62,6.62,0,0,0-.65,3c0,.31,0,.69.3.79.47.19.46-.3.52-.63a13.77,13.77,0,0,0,.44-3.53,5.22,5.22,0,0,0,.06-3A10.07,10.07,0,0,0,467.87,916.8Zm56.38,36.87a.33.33,0,0,0,0,.2c.4.6.91.45,1.43.16l-.09.41.09-.37A.92.92,0,0,0,524.25,953.67Zm.33-19.67a3.23,3.23,0,0,0,2.45-.61,13,13,0,0,1,1.36-.76l1.39-.61a2.59,2.59,0,0,0,1.32-1.24.3.3,0,0,0,0-.21.28.28,0,0,0-.12-.14.25.25,0,0,0-.17,0,26.26,26.26,0,0,0-5.94,3.31,1.57,1.57,0,0,0-.25.35,1.06,1.06,0,0,0-1.25.69l-.66.4c-.32.2-.68.34-.82.85s.61.19,1.14-.5a3.42,3.42,0,0,0,.31-.82C524.14,935.1,524.13,935.1,524.58,934Zm-43.43,36a.56.56,0,0,0,0-.2c-.11,0-.15.06-.09.25s.15.41.22.61c-.21.05-.47.06-.53.44a3.25,3.25,0,0,0,0,.87.5.5,0,0,0,.21.29c.07,0,.21,0,.21-.12,0-.49,0-1,.06-1.5Zm4.12,40.64v-.38c0-.06,0-.18,0-.18s-.09,0-.06.19l.11.41c0,.07-.1.1-.13.19a2,2,0,0,0,.32,1.91c.13.21.26.38.39.56a3.08,3.08,0,0,0,.27.25s.05-.09,0-.11a1.81,1.81,0,0,0-.12-.28.85.85,0,0,0-.19.19c-.11-.49-.23-1-.34-1.48l-.14-.53Zm-.13-21c0-.28,0-.62-.2-.73s-.25.22-.27.5a4.78,4.78,0,0,0,.29,2.18c-.26-.24-.49-.33-.58.15s-.08.79-.12,1.2v-.06c0,2.65-.23,5.13-.08,7.81,0,.22.06.51.19.56s.19-.1.23-.24a5.37,5.37,0,0,0,.17-1.73,25.75,25.75,0,0,1,.27-5.35,6.52,6.52,0,0,0-.12-2.38l.19-1.14,0,.1-.06,0Zm29.63-1.08,0,.09c-.34-.09-.67.19-1,.37a1.6,1.6,0,0,0-.55,1.31c-.34-.5-.72-.55-1.05.14a9.33,9.33,0,0,1-1.69,2.16,25,25,0,0,0-2.27,2.74,10.71,10.71,0,0,1-2.11,2.32,5.12,5.12,0,0,0-1,1.4c-.3.59-.57,1.23-.84,1.85a3.39,3.39,0,0,0-.09.65c-.5-.62-.89.11-1.27.63s-.56,1-.86,1.39c-1.32,1.89-2.62,3.38-3.81,5.19-.27.39-.53.77-.79,1.17s-.55.87-.93.79-.53.34-.72.81c-.26.64-.46,1.43-.83,1.71h0l0,0a5.84,5.84,0,0,1-2.31,3.11,1.09,1.09,0,0,0-.51.68,1.38,1.38,0,0,0,0,.78c.09.32.22.48.33.42a1.68,1.68,0,0,0,.48-.45,4.18,4.18,0,0,1,1.6-1.52.62.62,0,0,0,.33-.43,10.07,10.07,0,0,1,1.67-2.91c.63-1.07,1.38-1.83,2.05-2.94a15.17,15.17,0,0,1,1.38-2.14,2,2,0,0,1,.48-.52,1.6,1.6,0,0,0,.73-1.13,1.92,1.92,0,0,1,.43-.77l2.07-2.67a2.79,2.79,0,0,0,.44-1.21c.92-.22,1.68-1.34,2.46-2.46a48.87,48.87,0,0,1,3.27-4.12c.95-1.08,1.88-2.47,2.88-3.6a2.29,2.29,0,0,0,.45-1.08c.66,0,1.21-.33,1.55-1.69Zm33.4-22.67.05.09,0,0-.75,1.54c-.36.76-.33.82.38.78l0,0C548.63,967.14,548.64,967.14,548.17,965.88ZM521.67,957c-.69,1.48-.68,1.56-.08,2.91a1,1,0,0,1-.28.2c-.5.13-.58,0-.6-.55,0-1.14,0-1-.64-1.06-.91,0-1.65.76-2.45,1.22a36.58,36.58,0,0,0-4.75,3.54c-1.29,1-2.54,2.14-3.74,3.27-.91.85-1.77,1.83-2.68,2.54s-1.92,1.48-3,.55l0,0,1.25-1v.06A7.07,7.07,0,0,0,507,967c.79-.83,1.64-1.52,2.48-2.3a2.77,2.77,0,0,0,1.32-2.72,1.43,1.43,0,0,1,.33-.75c.22-.32.49-.56.71-.89s1-.37.73-1.12c-.16-.55-.72,0-1.1.11a17.12,17.12,0,0,1-2.32,1,2.28,2.28,0,0,0-1,.65,40.7,40.7,0,0,1-3.28,2.5,4.58,4.58,0,0,0-.73.73,16.23,16.23,0,0,1-1.69,1.72,27.2,27.2,0,0,0-3.22,3.45,23.68,23.68,0,0,1-2.2,2.42,6.82,6.82,0,0,0-1.7,4.53c-.07,1.32-.6,2.26-.76,3.5-.07.51-.21,1-.27,1.47a2,2,0,0,0,0,.87,1.59,1.59,0,0,1-.06,1.85,10.35,10.35,0,0,0-.62,3c0,.33.12.59.31.56a1.79,1.79,0,0,0,1-.81c.18-.25.34-.55.53-.78s.3-.14.45,0a1.24,1.24,0,0,1,.18.83,3.33,3.33,0,0,1-.3,1.62c-.4.56-.37,1.7-.79,2.26a6,6,0,0,0-.26,1.84c0,.31.16.68.29.59a3.36,3.36,0,0,0,.68-.54c.27-.33.54-.62.9-.6.17,0,.36-.16.49-.37a5.18,5.18,0,0,1,1-1.21,6.1,6.1,0,0,1,1.15-.68,2.89,2.89,0,0,0,.93-.71l2.75-3.17,1.44-1.6.74-.79.75-.73a4.66,4.66,0,0,0,1.19-1.63c.47-1.11,1.26-1.49,1.74-2.69.26-.64.72-.12,1.09-.09v0l-.09.73a.3.3,0,0,0-.46.06,1,1,0,0,0-.06.35s.07.07.09,0l.4-.52,2.28-1.68a2.93,2.93,0,0,0,.9-1l.33-.51a1.37,1.37,0,0,0,1-.56,15.08,15.08,0,0,1,2.36-2,3.5,3.5,0,0,0,1.37-1.65c.14-.4.39-.4.61-.53a19.45,19.45,0,0,0,4-3.17c1.38-1.38,2.86-2.4,4.35-3.63a12.59,12.59,0,0,0,2.43-2.37,3.54,3.54,0,0,1,1.93-1.63c.19,0,.39-.28.57-.47a1.54,1.54,0,0,0,.47-1.2c0-.57-.39-.6-.7-.45a2.8,2.8,0,0,1-2-.08,3.3,3.3,0,0,0-2.88.37,4,4,0,0,1-1.21.5c-.59.19-.59.18-.87-1l0,.07a1.93,1.93,0,0,1-1.78.58,1.78,1.78,0,0,0-.75.07c0-.35,0-.71-.07-1.05s-.28-.69-.64-.5Zm-9.29-13.35a.5.5,0,0,0-.26.1s0,.17,0,.18.18.12.25.08.16-.16.24-.25c.73-.6,1.47-1.19,2.19-1.84a3.69,3.69,0,0,0,.53-.9.39.39,0,0,0,0-.21c0-.07-.1-.16-.12-.14-1.06.75-2.24,1.31-2.54,3.16C512.56,943.78,512.48,943.68,512.38,943.66Zm14.74,68.06A4.15,4.15,0,0,0,526,1013a9.88,9.88,0,0,0-.86,1.11,4.45,4.45,0,0,0-.28.85,8.9,8.9,0,0,0-2.74,4v-.07a12.48,12.48,0,0,0,2.72-4C525.67,1014.68,526.3,1013.41,527.12,1011.72Zm7.68-6.76c.1-.14.15-.24.12-.34s-.08,0-.11.1a1,1,0,0,0-.08.21l-.12.44a.67.67,0,0,0-1-.18l0,0-1.88,2.78c.12.38.33.24.53,0q.66-.72,1.32-1.53a4.72,4.72,0,0,1,1-1.08A2.25,2.25,0,0,1,534.8,1005Zm15-38.3c.59.45,1.1-.44,1.65-.68l-.05,0,.12-.41c.83,0,1.71-.56,2.56-.7l-.06,0,.63-.52c.3-.25.82-.25.82-.76,0-.86-.59-.07-.9-.12a2.42,2.42,0,0,1-.39-.13,6.52,6.52,0,0,1,1.85-1.56,2.79,2.79,0,0,0,.61-.46.25.25,0,0,0,.06-.2.64.64,0,0,0-.16-.28s-.11,0-.16,0c-1.18.8-2.44,1.06-3.56,2.07l0,0c-.48.28-1,.53-1.43.83s-.43.45-.29,1.22c-.46.21-.76-.19-1.16-.2a.94.94,0,0,0-.8,1,2.2,2.2,0,0,0,.23,1.52l-.06,0C549.51,967.08,549.66,966.54,549.81,966.66Zm-75.92,21.7c-.1.17.08.27.12.41a11.71,11.71,0,0,0,.46,3.82,4.14,4.14,0,0,0,.84,1.44c.05.07.17.08.2,0a.59.59,0,0,0,0-.36,4.09,4.09,0,0,0-.2-.87c-.52-1.34-.93-2.71-1.34-4.08Zm4.18-48.74a4.48,4.48,0,0,0-.09.64.5.5,0,0,0,.22.32c.09,0,.22,0,.31-.06a.22.22,0,0,0,.11-.15,41,41,0,0,0,.83-5.94c0-.13-.1-.28-.16-.41s-.11-.13-.15-.13-.28,0-.3.11c-.32,1.66-.61,3.33-.87,5a2.87,2.87,0,0,0,.1.68Zm41.24,44.54c.35-.35.52-.7.41-1s-.37-.45-.63-.26a1.41,1.41,0,0,0-.43,1.44c-.46-.29-.9-.18-1.42.34a8.4,8.4,0,0,0-1.78,2.28,1.41,1.41,0,0,0,0,.63c0,.09.12.18.18.16a.94.94,0,0,0,.47-.23l1.73-1.66a4.41,4.41,0,0,0,.83-1.59C518.85,984.6,519.07,984.41,519.31,984.16ZM559,945.84c-.08.59.21.88.59.63a.83.83,0,0,0,.16-.12,3.51,3.51,0,0,1,2.25-1.12,1.5,1.5,0,0,0,1.11-.8,1.25,1.25,0,0,0,.22-.62c0-.25-.19-.32-.37-.32s-.47,0-.71.06a3.67,3.67,0,0,0-3,1.71l.07,0A2.2,2.2,0,0,0,559,945.84Zm-78.61-20.08a19.36,19.36,0,0,0-.95,6.64.49.49,0,0,0,.23.33.31.31,0,0,0,.29-.17,41.57,41.57,0,0,0,1.21-5.43,2.36,2.36,0,0,0-.32-1.52,1.92,1.92,0,0,0,.72-1.28c.56-2.52,1.18-4.94,1.82-7.43a2.52,2.52,0,0,0,0-.67.26.26,0,0,0-.13-.17c-.11,0-.31,0-.34,0a5,5,0,0,0-.39,1,33.52,33.52,0,0,1-1,4.15,32.54,32.54,0,0,0-.67,3.26,3.71,3.71,0,0,0,0,1.14C480.72,925.69,480.42,925.65,480.38,925.76Zm-2,84.33c.34-.39.66-.8,1-1.25a2.64,2.64,0,0,0,.28-2,1.23,1.23,0,0,0-.16-.39c-.07-.08-.18-.16-.21-.11a2,2,0,0,0-.43.78,6.39,6.39,0,0,1-1.25,2.76,1.12,1.12,0,0,0-.15.38,1.06,1.06,0,0,0,.16.77c.18.32.29.22.42.2v-.06l0,.07A1.69,1.69,0,0,1,478.35,1010.09Zm52.1-.53a11.29,11.29,0,0,0-1.71,2.13,2.4,2.4,0,0,1-.67.82.85.85,0,0,0-.23.2,2.14,2.14,0,0,0-.43.58c-.5,1.2-1.22,1.61-1.7,2.8-.08.23-.15.49-.07.59a.17.17,0,0,0,.28,0c.35-.48.71-1,1.06-1.51l2.37-3.56a8.29,8.29,0,0,0,1.09-2.08Zm10.6-87.87a12.93,12.93,0,0,0,5.58-2,4,4,0,0,0,1.45-1.22c.25-.39.1-1-.3-1.06a2.66,2.66,0,0,0-1.16,0c-1.63.58-3.3,1-4.5,2.74-.31.45-.7.39-1,.55a.71.71,0,0,0-.46.88ZM470.12,901l.64.87-.06-.06c.33.21.72.42.78-.2a5.74,5.74,0,0,0-.12-1.36c0-.32-.05-.59.4-.58s.16-.92.87-.74,1.08-.32.75-.68a5.94,5.94,0,0,1-1.12-3.61,15.56,15.56,0,0,0-1.13-4.41c.13,0,.29.1.39,0s.06-.11-.15,0c-.05,0-.13,0-.19,0a28.6,28.6,0,0,1-1.25,5.36,4.14,4.14,0,0,0-.17,2.23c.23,1,.29,2.14.42,3.2Zm7.35,104.63c.22.4.46.64.61.41s0-.81-.28-1.25l0,0a1.83,1.83,0,0,1-.07-1.35,2,2,0,0,1,.62-.68c.14-.08.28.38.42.56.41.51.64.36.57-.35,0-.21-.07-.43-.11-.65a2.26,2.26,0,0,1,.24-1.89c.23-.29.11-.67-.33-1.11-.07-.07-.15-.07-.23-.11v-.06c-.06.24,0,.59-.15.67a7,7,0,0,0-1.29,2.1,15.8,15.8,0,0,0-1.31,2,7.51,7.51,0,0,1-.62.9.69.69,0,0,0,.06.71c.09.15.26.29.34.26a5.66,5.66,0,0,0,.71-.41l.53-.34,0,0C477.28,1005.28,477.37,1005.48,477.47,1005.66ZM564,948.11a1,1,0,0,0,.22-.59.58.58,0,0,0-.28-.44c-.63-.28-1.38.09-2-.18-.32-.13-.62.87-1.11.62s-.87,0-1.32.44a2.58,2.58,0,0,1-1.33.89,1.73,1.73,0,0,0-.66.45,1.26,1.26,0,0,0-.5,1c0,.41.28.54.54.63h0l-.16,1.06,0-.08c.17,0,.36.15.49.06a14.55,14.55,0,0,1,3.21-1.37l-.09.11,0,0Zm-26.48-11.86.05,0c.1.07.2.21.3.19.67-.14,1.36-.24,2-.43a4,4,0,0,0,1.89-1.11c.14-.15.29-.38.44-.41,2.15-.43,4.16-2,6.36-2.48a2.67,2.67,0,0,0,.36-.14c.12,0,.24,0,.36-.05s.5-.17.47-.57a.24.24,0,0,0-.11-.16c-.29-.11-.46.1-.57.41a3.45,3.45,0,0,0-.12.43c-1-1.1-2.33-.91-3.64-.58s-2.43.71-3.64,1c-.66.17-1-.13-.84-1a3.6,3.6,0,0,0-1-3.16.29.29,0,0,0-.32,0,.64.64,0,0,0-.14.4,1.66,1.66,0,0,0,.59,1.26c.7.66.63,1-.27,1.59a5.27,5.27,0,0,1-1.68,1.09,2.33,2.33,0,0,0-1,.73,3.56,3.56,0,0,1-1.64,1.13.63.63,0,0,0-.13.38c0,.12.12.29.21.3.68.13,1.3-.36,1.95-.6.43-.17.67.16.53.75a2.19,2.19,0,0,1-.15.43l-.27.63Zm-51.85,46.46c.2-2.17.56-4.26.63-6.55,0-.37.1-.7.12-1.07.05-1.1.48-1.39,1.08-1.31l0,.18,0-.11a5,5,0,0,1-.4-3.23c.27-1.8.57-3.64.88-5.42s.61-3.59.86-5.44a15.12,15.12,0,0,1,.61-3.86.5.5,0,0,0-.22-.54c-.09-.05-.24,0-.28,0a2.67,2.67,0,0,0-.4.89A19.67,19.67,0,0,0,488,960a2.32,2.32,0,0,1-.3,1.2c-.21.39-.49.33-.79.1l.1,0-.05,0c-.16.83.33,1.68.16,2.48s.28,2-.18,2.83,0,2-.58,2.5c0,.83-.2,1.58-.22,2.37a35.87,35.87,0,0,0-.33,4.57,3,3,0,0,1-.19,1.22,14.68,14.68,0,0,0-.43,2.39l0-.07a25,25,0,0,0-.14,3.9,10.45,10.45,0,0,1-.25,2.44,3.68,3.68,0,0,0-.07,1c0,.21.05.51.19.57s.2-.11.29-.21a1.27,1.27,0,0,0,.15-.26l0,.06A41,41,0,0,1,485.71,982.71Zm24.63-34h.05a.72.72,0,0,1,.24.76.36.36,0,0,1-.55.26c-.33-.21-.63-.54-1-.74-.52-.3-1-.12-1.21.59a2.82,2.82,0,0,1-1.57,2.07.81.81,0,0,0-.43.28c-.89,1.43-2.17,2.13-3.12,3.39a5.75,5.75,0,0,1-1.55,1.39c-1.32.82-2,2.45-2.38,4.36a23.11,23.11,0,0,1-.94,3.47,6,6,0,0,0-.33,3.25l0-.06a3,3,0,0,0,1.1-1.94l0,0a6.11,6.11,0,0,0,2.43-2.19c1-1.2,2-2.23,3.08-3.4s2.06-2.38,3.15-3.49a22.65,22.65,0,0,1,1.93-1.87c1.54-1.26,3-2.86,4.61-4.14a1,1,0,0,0,.28-.27,5.73,5.73,0,0,1,1.88-1.91c.69-.43,1.43-.77,2.12-1.23a2.69,2.69,0,0,0,1.23-1.18,8.66,8.66,0,0,1,3.25-3.46,11.17,11.17,0,0,0,3.63-4.18.54.54,0,0,0,0-.62.31.31,0,0,0-.33,0c-.49.3-1,.63-1.46,1-.69.46-1.34,1.06-2.15.87-.35-.08-.67.22-1,.43a29.51,29.51,0,0,0-4.61,3.22c-1.24,1.22-2.73,2-3.8,3.5-.08.12-.31,0-.47,0l0,.06c0-.14,0-.29,0-.43,0-.41,0-1-.4-.93s-.43.57-.36,1h0c-.92.17-1.28,1-1.26,2.2Zm-44.23-31.1c.37-1.93.7-3.88,1-5.84a2.6,2.6,0,0,0-.12-.9.49.49,0,0,0-.71-.21c-.35.35-.33,1-1,1.23.11-2.9.66-5.74,1-8.54l-.06-.4c-.24.19,0,.29.08.43-1,.4-1.24,1.4-1.45,2.36-.26,1.26-.43,2.55-.67,3.81-.16.85-.45,1-1.55.85l0,0c.35-1.35,0-2.77.26-4.13,0-.09-.15-.32-.23-.31a.38.38,0,0,0-.31.24,6.82,6.82,0,0,0-.39,1.54,4,4,0,0,1-1.77,3.39c-.23.15-.46.33-.69.49v0a4.39,4.39,0,0,0,.44-2,10.92,10.92,0,0,1,.73-4c.47-1-.15-2.09-.08-3.14,0-.07-.36-.2-.57-.25a.44.44,0,0,0-.54.29,1.9,1.9,0,0,0-.08.67,2.17,2.17,0,0,1-.2,1.34,14.78,14.78,0,0,0-1.6,4.67,1.85,1.85,0,0,1-.26.61.8.8,0,0,1-.47.35c-.22,0-.37-.21-.41-.45a2.38,2.38,0,0,1,.29-2c.83-1.13.75-2.57,1-3.9,0-.1-.3-.27-.47-.41l0,0a5.49,5.49,0,0,1,.06-4.14c.22-.68.79-1.31.35-2.12l0,0c.57-1.59.54-2.81,0-2.65a2.34,2.34,0,0,0-1.44,2.15c-.31,2.18-1.66,3.92-2.05,6-.21,1.11-.54,2.2-.82,3.29-.05.22-.23.42-.46.34a1,1,0,0,1-.49-.42,1.5,1.5,0,0,1,0-1.31,10.88,10.88,0,0,0,.55-4,1.79,1.79,0,0,0-1.05-1.66c-.88-.47-1.49-.18-1.49.84s0,1.85,0,2.78a5.36,5.36,0,0,1-.63,2.79c-.42,0-.57-.29-.82-.42-.51-.28-.87-.1-.92.46a7.37,7.37,0,0,0,0,1.15l0,0a4.47,4.47,0,0,1-1-2,3,3,0,0,1,.1-2.2c.65-1.4,1.22-2.86,1.84-4.3.26-.6.2-.67-.72-.89l-.5.15c-.09.69-.18,1.37-.26,2.06-.82-.71-.82-.71-1.47-2.65-1,1.16-1.79,2.29-1.35,3.88a4.47,4.47,0,0,0-3.53,1.81c-.3.32-.48.87-1,.85-1.12,0-1.41.8-1.51,1.61-.23,1.71-.82,3.42-.65,5.22a1.93,1.93,0,0,1-.09.9,17,17,0,0,0-.73,8.05,4.67,4.67,0,0,1,0,1.35c-.3,1.51-.05,3.15-.58,4.59a1.32,1.32,0,0,0-.09.65c.34,2.34,0,4.63.52,7a2.32,2.32,0,0,0,.76,1.56c.45.38.3,1-.2,1.44s-.57.49-.17,1.26a2.59,2.59,0,0,1,.24,1.73,3.43,3.43,0,0,0,.33,2.41,1,1,0,0,1,.16.65c-.45,1.21.22,2.47.41,3.71l0-.07h.06a3.31,3.31,0,0,1-.37,1.57,3.14,3.14,0,0,0,.2,2.72,6,6,0,0,1,.8,3.43,1.07,1.07,0,0,0-.07-.38c-.09-.12-.11,0,0,.14a.38.38,0,0,1,.05.19,1.24,1.24,0,0,0-.16,1.6,14.82,14.82,0,0,1,.61,1.48,2.82,2.82,0,0,1,.19,2.28,2,2,0,0,0,.16,2,1.42,1.42,0,0,1-.23,2l0-.07a6.68,6.68,0,0,0,.88,3.61c.65,1.15.34,2.09.33,3.09,0,.09-.14.16-.24.18-.31.05-.44.29-.27.73a10.84,10.84,0,0,1,.62,4.42,14.91,14.91,0,0,0,.58,3.83,46.61,46.61,0,0,1,1,6.3,26.65,26.65,0,0,0,.72,4.71,14.68,14.68,0,0,1,.29,1.44c.13.69.31,1.4.38,2.06s.81.93.86,1.46a7.73,7.73,0,0,0,0,1.28,1,1,0,0,0,.07.21c1,1.25,1.07,2.59,1.62,3.89.16.38.32.72.64.8s.66.21.73-.16a3,3,0,0,0,0-1.08,2.46,2.46,0,0,1,.1-1.21l.24-.13c.5-.79.14-2.11,0-3.3-.31-2-.43-4-.55-6h0a6.21,6.21,0,0,1,1.13,3c.08,1.07.28,1.25,1.28,1.79l-.05,0a2.57,2.57,0,0,1,.23.38c.28.69.49,1.4.83,2.06s1,.75,1.39,1.49h-.05c.61-.1.78-.6.58-1.61-.29-1.47-.5-2.94-.7-4.37-.05-.33-.12-.74.24-.65.52.14.63-.2.54-.86,0-.31-.1-.7.19-.76a6.83,6.83,0,0,1,.59,2.87,11.86,11.86,0,0,0,.44,2.49.61.61,0,0,0,.26.29.15.15,0,0,0,.21-.1,1.83,1.83,0,0,0,0-.74,13.82,13.82,0,0,1-.26-5.14,8.86,8.86,0,0,0-.22-2.81,2.64,2.64,0,0,1-.1-.64c0-.17.08-.37.18-.39s.43.24.53.53a4,4,0,0,1,.3,1.28c-.1.9.52,2,.32,2.87q.49,3.07,1.07,6.1c.06.29.14.64.37.77s.26-.28.31-.53a.52.52,0,0,0,0-.18v.06c-.07-.68-.12-1.36-.22-2.05a24.48,24.48,0,0,1-.26-3.47,16.52,16.52,0,0,0-.42-4,2.63,2.63,0,0,1-.14-.65c.27-1.9-.57-4.31-.36-6.26a6.65,6.65,0,0,0-.14-1.27,47.42,47.42,0,0,1-.4-6.58,4.08,4.08,0,0,0,0-.85c-.28-1.63-.15-3.16-.33-4.76-.28-2.58-.06-5-.24-7.63a2.71,2.71,0,0,1,0-.64c0-.22.13-.4.32-.36a.51.51,0,0,1,.32.5c.07,1.25.15,2.52.22,3.75a14.72,14.72,0,0,1,.12,3.85,7.26,7.26,0,0,0,.15,2.18c.45,3.55.64,7,.75,10.31a38.46,38.46,0,0,0,.41,5.47,37.48,37.48,0,0,1,.39,4,16.22,16.22,0,0,0,.69,3.45c.4.07.24-.41.24-.67s-.11-.73-.1-1c0-1.81-.08-2,1.21-1.45.25.41,0,.64.12,1a.86.86,0,0,0,.61.72l-.05,0,1.2,2.22a1,1,0,0,1,.08.79c-.09.25-.29.13-.49-.1s-.56-.57-.83-.43a.5.5,0,0,0,0,.66.83.83,0,0,0,.13.18,7.52,7.52,0,0,1,2.08,3.86,6,6,0,0,0,.89,1.86c.17.23.38.45.54.33a.52.52,0,0,0,.16-.38c-.09-1.66-.18-3.32-.28-5-.13-2.37-.27-4.78-.34-7.19a5.85,5.85,0,0,1,.09-2,2,2,0,0,0,0-1c-.45-1.72-.21-3.31-.73-5,0-.13-.06-.35,0-.4.56-.69.22-1.83.06-2.88a1,1,0,0,1,0-.42c.75-1.41.36-3.45.3-5.28q-.19-7.35.2-14.78c0-.66,0-1.33,0-2a114,114,0,0,1,.2-11.42c.29-3.15.25-6.4.58-9.59.31-2.81.47-5.68.76-8.54a1.54,1.54,0,0,1,.22-.83c.66-.6.75-1.56,1.11-2.34l0,.09-.06,0A3.12,3.12,0,0,1,466.11,917.63Zm101.38,53.75a.77.77,0,0,0-.24-.85c-.24-.17-.47-.08-.74.29a39.88,39.88,0,0,1-3,3.84l-4.64,5.06c-.77.83-1.62,1.46-2.42,2.2-2.19,2.05-4.35,4-6.38,6.25-1,1.12-2.06,2-3.05,3.07-.65.68-1.28,1.35-1.89,2.12a34.84,34.84,0,0,1-3.41,3.37,7.28,7.28,0,0,0-.66.69.8.8,0,0,0-.09.39c0,.09.1.17.17.14a2.59,2.59,0,0,0,.55-.38,54.81,54.81,0,0,0,5.23-4.91,57.21,57.21,0,0,1,5.11-5c.68-.6,1.35-1.31,2-2,1.74-1.73,3.52-3.47,5.33-5.17a90.62,90.62,0,0,0,6.81-7,6.38,6.38,0,0,0,1.14-1.71C567.4,971.67,567.46,971.53,567.49,971.38ZM460.72,900.56A20.92,20.92,0,0,0,462,897.1a9.59,9.59,0,0,1,1.72-4.28,2.12,2.12,0,0,0,.63-1.44,10.64,10.64,0,0,1,.76-3.6,4.85,4.85,0,0,0,.24-1.35.93.93,0,0,0-.81-1c-.48-.06-1.07,0-1.2.54-.56,2.2-2.05,4-2.95,6.06a5,5,0,0,0-.43,1.32c-.23,2-.4,4-.55,6a1.69,1.69,0,0,0,.41,1.29.56.56,0,0,0,.65.15C460.5,900.74,460.68,900.68,460.72,900.56Zm4.93-3.49a9.11,9.11,0,0,0,.85-3.06.82.82,0,0,1,1.07-.86c.7.11.95-.32,1.12-.88.44-1.43.33-2-.57-2.68-.63-.47-1.28-.37-1.51.33-.64,2-1.28,3.92-2.07,5.81a2.87,2.87,0,0,0-.06,1.34c0,.17.27.33.37.43A.67.67,0,0,0,465.65,897.07Zm21.89,115.82c-.12-.15-.2,0-.21.15a8.42,8.42,0,0,0,0,1.59c.26,1.74.14,3.18.43,4.91a13.58,13.58,0,0,1,.07,1.41,2.45,2.45,0,0,0,.23.86c.15.35.38.47.37.16a21.8,21.8,0,0,0-.14-3.25,20.84,20.84,0,0,1-.31-3.25,11.68,11.68,0,0,0-.27-2.19C487.64,1013.14,487.59,1013,487.54,1012.89Zm61.8-51.69a33,33,0,0,0,4.86-2.56c.15-.12.3-.28.45-.4.31-.22.94.08.84-.76-.06-.54-.64-.16-1-.1-1.39.19-2.6,1.49-3.88,2.18-.37.2-.63.74-1,.92s-.68-.22-1,.21C548.59,961.32,549,961.39,549.34,961.2Zm-76.82-42.46q.15,3,.36,5.91a1,1,0,0,0,.3.58.73.73,0,0,0,.52.15c.08,0,.19-.19.2-.32.06-.59-.3-1.14-.16-1.79a7.17,7.17,0,0,0,.33-2.84,9.2,9.2,0,0,0-1.4-2.31A2.25,2.25,0,0,0,472.52,918.74Zm15.57,66.64c-.14-.09-.21.14-.23.36-.17,1.76-.34,3.5-.41,5.29a9,9,0,0,0-.08,2.34.58.58,0,0,0,.18.33.13.13,0,0,0,.19-.07,1.44,1.44,0,0,0,.11-.54,41.32,41.32,0,0,1,.5-5.45,5.25,5.25,0,0,0,0-1.85C488.27,985.68,488.19,985.44,488.09,985.38ZM572.64,943c-.46.29-.9.65-1.35,1a1.61,1.61,0,0,0-.49,1.21c-.06.45.14.69.47.6a7.14,7.14,0,0,0,2-1c.34-.22.78-.31.82-.89s-.34-.8-.77-1.06A1.64,1.64,0,0,0,572.64,943Zm-9.71,26.57c-.1-.35-.36-.38-.66-.22a.92.92,0,0,0-.44.91c0,.21,0,.41.06.61a3.2,3.2,0,0,1-.52,2.3,8.4,8.4,0,0,0-.61,1.24c-.1.21-.13.46,0,.52s.22,0,.31-.14a9.35,9.35,0,0,0,1.54-2.51A3.91,3.91,0,0,0,562.93,969.54Zm-92,38c-.11.06,0,.32.06.54a3.4,3.4,0,0,0,.32.57,1.37,1.37,0,0,0,1,.66c.53,0,.8-.57.57-1.16s-.91-1.09-1.31-1c-.09,0-.14.18-.22.27A1.16,1.16,0,0,0,470.91,1007.51Zm2-27.93c0-.06-.1-.14-.13-.13a.56.56,0,0,0-.22.13.44.44,0,0,0,0,.18c.12,1.18.24,2.35.38,3.53a.86.86,0,0,0,.23.33.08.08,0,0,0,.12,0,8.59,8.59,0,0,0-.29-3.92Zm49.21,6a2.61,2.61,0,0,0-1.32,1.53.79.79,0,0,0,0,.41c.08.11.23.26.29.18.41-.47.8-1,1.2-1.5a1.18,1.18,0,0,0,0-.21C522.34,985.77,522.26,985.56,522.13,985.61ZM477,1006.69c-.27.46-.5,1-.73,1.47a1,1,0,0,0,.07.37s.09.12.1.1a8.11,8.11,0,0,0,.93-.84,1.22,1.22,0,0,0-.07-.77C477.25,1006.77,477.11,1006.58,477,1006.69Zm15-66.2a.28.28,0,0,0,.29,0,2.32,2.32,0,0,0,.59-1.28c.07-.27.2-.58,0-.84s-.52-.15-.78-.1a.37.37,0,0,0-.31.42c0,.29.07.59,0,.38C492,939.91,492,940.2,492,940.49Zm30.6-7a2.86,2.86,0,0,0,1.61-1,.76.76,0,0,0,.07-.41s-.08-.13-.12-.12a3.27,3.27,0,0,0-1.78,1.1.43.43,0,0,0,0,.23,1.51,1.51,0,0,0,.09.18C522.54,933.46,522.6,933.52,522.64,933.5Zm33.68,16.63c0-.06-.18-.06-.27,0s-.42.29-.63.42-.55.58-.42.78.45.26.74.08a1.46,1.46,0,0,0,.58-.87A1.27,1.27,0,0,0,556.32,950.13Zm-75.54,24a.66.66,0,0,0-.14-.38c-.15-.13-.28,0-.3.18-.08.69-.12,1.4-.17,2.1C480.71,975.7,480.73,974.89,480.78,974.13Zm.19-7a1.87,1.87,0,0,0,.37,1.42.4.4,0,0,0,.26.14s.08-.06.09-.12a2.67,2.67,0,0,0-.33-1.68c0-.08-.16-.06-.25-.09A1.22,1.22,0,0,0,481,967.09Zm6.21,35.22a1.65,1.65,0,0,0,.17,1s.08.06.1,0a1.16,1.16,0,0,0,.13-1c-.07-.43-.17-.86-.25-1.29l-.17,0C487.17,1001.48,487.18,1001.9,487.18,1002.31Zm.32,8.91a2.05,2.05,0,0,0,0-1.38.65.65,0,0,0-.17-.25s-.07,0-.07.06a2.72,2.72,0,0,0,0,1.23,1.69,1.69,0,0,0,.17.36S487.49,1011.25,487.5,1011.22Zm71.25-54.91a.73.73,0,0,0,.19-.37c0-.09-.11-.24-.18-.23a3.54,3.54,0,0,0-.8.3.57.57,0,0,0-.18.37c0,.1.11.17.17.26A1,1,0,0,0,558.75,956.31Zm-66.7,67c-.08-.19-.17-.16-.18,0a2.23,2.23,0,0,0,.4,1.44s.07-.11.07-.21a5.56,5.56,0,0,0-.08-.56C492.21,1023.85,492.14,1023.54,492.05,1023.31Zm55.31-61.57c-.19-.23-.63,0-.81.43a.54.54,0,0,0,0,.38c.22.24.62,0,.81-.41C547.38,962,547.41,961.81,547.36,961.74Zm-19,48.45c0-.07-.06-.23-.1-.21a1.46,1.46,0,0,0-.64.85,1.31,1.31,0,0,0,0,.33A1.5,1.5,0,0,0,528.4,1010.19Zm-48.88-13.52c-.2-.1-.28.23-.16.68.07.25.18.41.3.39s.19-.28.15-.59A.68.68,0,0,0,479.52,996.67Zm-18-2c-.14-.31-.41-.48-.5-.31a.68.68,0,0,0,.11.58c.13.2.27.32.4.27A.54.54,0,0,0,461.52,994.66Zm66-56.82c.06-.48-.11-1-.3-.88s-.27.48-.3.77a1,1,0,0,0,0,.43c0,.1.16.14.25.2A.65.65,0,0,0,527.56,937.84Zm-11.35,2.85c.21.14.53-.21.56-.63,0-.25-.06-.47-.26-.49s-.4.23-.45.55S516,940.58,516.21,940.69Zm-40.4,69a.47.47,0,0,0-.06-.2c-.07-.06-.18-.15-.21-.11a1,1,0,0,0-.12.39,1.12,1.12,0,0,0,.12.37s.06,0,.1,0S475.82,1010,475.81,1009.68ZM467.24,909.3a3,3,0,0,0,.32-.78.23.23,0,0,0-.25-.29.23.23,0,0,0-.18.08.83.83,0,0,0-.17.82C467,909.32,467.17,909.42,467.24,909.3Zm9.64,104.64c.18.06.29-.06.3-.36a.57.57,0,0,0-.17-.23c-.17-.07-.34-.1-.33.26C476.76,1013.75,476.84,1013.93,476.88,1013.94Zm39.23-76.23a.21.21,0,0,0,.09.18c.18.1.34,0,.45-.19a3.25,3.25,0,0,0,.2-.6l-.14-.11A.81.81,0,0,0,516.11,937.71Zm0,54.56c0-.25-.09-.37-.21-.24a1,1,0,0,0-.21.74c0,.09.11.11.16.17A.78.78,0,0,0,516.1,992.27Zm-20.84-63.61a.59.59,0,0,0-.38.66.47.47,0,0,0,.36.45c.26.07.47-.34.41-.78C495.6,928.71,495.45,928.59,495.26,928.66Zm62.6-1.94a.44.44,0,0,0,0-.37.42.42,0,0,0-.65,0,.54.54,0,0,0-.16.37c0,.11.13.2.2.3A.59.59,0,0,0,557.86,926.72Zm-31.8,55.39c0,.25.08.4.22.38a.38.38,0,0,0,.22-.24c.08-.25,0-.4-.14-.46S526.09,981.81,526.06,982.11Zm-58.92-46.9a.93.93,0,0,0-.24-.33s-.12.06-.12.1c0,.37,0,.74,0,1.11,0,0,.1.08.15.12A1,1,0,0,0,467.14,935.21Zm72.19,37.4a1.65,1.65,0,0,0-.38.37s0,.3.06.31c.2,0,.37-.17.48-.48S539.45,972.54,539.33,972.61ZM532,977.24c-.12-.1-.26,0-.29.26,0,.1.06.25.13.27s.14-.12.22-.19S532.07,977.28,532,977.24Zm-37.3-37.87c-.07-.15-.2-.12-.26,0a1,1,0,0,0-.07.41c0,.17.13.22.25.15A.59.59,0,0,0,494.72,939.37Zm60.84,30.43c-.16.15-.12.46.05.44a.44.44,0,0,0,.28-.21.87.87,0,0,0,0-.34A.61.61,0,0,0,555.56,969.8Zm-68.11-57.88c0,.1.18.28.24.26.24,0,.28-.31.26-.53s-.15-.19-.23-.29A.53.53,0,0,0,487.45,911.92Zm10.28,16c-.23,0-.28.24-.28.46s.08.37.11.36c.21,0,.27-.23.3-.47S497.77,927.91,497.73,927.9ZM530,1008.31c0-.1,0-.24-.08-.24s-.21.2-.25.42,0,.16.08.23A.47.47,0,0,0,530,1008.31Zm-9.45-73.52c.16.1.31,0,.31-.25a.31.31,0,0,0-.19-.26c-.07,0-.16.12-.24.19S520.5,934.75,520.57,934.79Zm3.16,84.54a2.29,2.29,0,0,0-.16.23.48.48,0,0,0,0,.17c0,.1.09.06.15-.09Zm-4.81-29.82a1.28,1.28,0,0,0,0-.36c-.07.05-.16.06-.21.15a1.23,1.23,0,0,0,0,.36C518.78,989.61,518.87,989.6,518.92,989.51Zm9.41-36.44a1.88,1.88,0,0,0-.16-.23s-.1.09-.1.13a1.88,1.88,0,0,0,0,.33Zm7.2-33.7a.15.15,0,0,0,.15.07c.17,0,.23-.14.16-.3s-.1,0-.16-.08A.2.2,0,0,0,535.53,919.37Zm-48,87.36c0-.08-.09-.18-.13-.28a.59.59,0,0,0-.07.26,1.09,1.09,0,0,0,.14.29A.82.82,0,0,0,487.53,1006.73ZM549,975.58c.09.07.22,0,.24-.2a.42.42,0,0,0-.1-.32c-.05,0-.17.12-.27.18S548.89,975.53,549,975.58Zm-3.13-8.18c-.08,0-.17.16-.26.25.07.07.13.19.2.17s.17-.16.26-.24C546,967.51,545.89,967.39,545.82,967.4Zm13.79-45.93a.23.23,0,0,0,0,.2c.1.1.22.06.3-.11s0-.13,0-.2S559.68,921.3,559.61,921.47ZM492.43,948.3c0-.06.08-.14.06-.18s-.1-.29-.17-.32-.16.1-.12.29Zm28.88,34a.32.32,0,0,0,.06-.35.07.07,0,0,0-.11,0,.3.3,0,0,0,0,.35S521.29,982.28,521.31,982.25Zm43-38.72a.31.31,0,0,0,.16-.12c.1-.16.08-.29-.05-.35s-.22,0-.28.21S564.14,943.55,564.28,943.53ZM556.4,962.8c0,.07,0,.2.05.31.09-.08.21-.14.25-.24s0-.21,0-.32C556.57,962.63,556.45,962.69,556.4,962.8ZM448.83,894.63a.41.41,0,0,0-.05.18c0,.16.13.22.27.14s.05-.12.07-.18Zm98.62,74.89c-.11,0-.17.05-.16.2s.06.09.09.08.06-.09.1-.14S547.47,969.53,547.45,969.52Zm5.29-17.08s-.08-.11-.09-.1a2.62,2.62,0,0,0-.22.25l.1.11Zm-17,48.89a.68.68,0,0,0,0,.18c.07,0,.14-.08.21-.14a1.83,1.83,0,0,0,0-.19C535.85,1001.23,535.78,1001.27,535.71,1001.33Zm-18.16-10.5a.26.26,0,0,0,0-.32c-.08-.08-.15,0-.16.16a.28.28,0,0,0,0,.15S517.52,990.86,517.55,990.83Zm41.2-64.06a2.18,2.18,0,0,0,.28-.25s0-.12,0-.19l-.28.24ZM485.1,940.14s.11,0,.11-.08,0-.11-.07-.17l-.12.1S485.07,940.13,485.1,940.14Zm3.58-1.67a.34.34,0,0,0,.05-.2c0-.21-.08-.3-.21-.23s0,.13,0,.2S488.56,938.54,488.68,938.47Zm58.95,20.47a.25.25,0,0,0-.1.15c0,.15,0,.23.16.18s.07-.09.1-.14S547.76,958.89,547.63,958.94Zm-61.24-1.33a.18.18,0,0,0-.05-.3,1.34,1.34,0,0,0,0,.17S486.38,957.62,486.39,957.61ZM525,977.88l-.09,0,.06.12Zm-30.52,24.73-.06.08.07.09ZM473.46,930s.13-.07.13-.09c0-.21-.14-.24-.24-.08S473.41,929.93,473.46,930Zm-2.74,70.55,0-.16-.06.06ZM513.1,996l0-.15L513,996Zm-27.34-75.9-.12.09.15.09Zm.05,77.74v-.15l-.07,0Zm75-37.41.1,0v-.17ZM512,962.2l.09,0v-.16Zm31.76,29.23s-.06.09-.09.13,0,.08.07.07a.6.6,0,0,0,.08-.13S543.79,991.42,543.77,991.43Zm-56.87-8.34s-.06,0-.09-.05,0,.12,0,.15.06,0,.09.06A.85.85,0,0,0,486.9,983.09Zm67.18-31.63a.69.69,0,0,0-.05.17s.1,0,.11,0a1,1,0,0,0,.06-.18S554.1,951.43,554.08,951.46Zm-17.8,51.18a.75.75,0,0,0-.08.14c0,.15.07.13.13,0Zm-47.55-96.46,0-.15-.14,0ZM465,945.38l-.1-.1,0,.17Zm95.47-19.5-.11-.09,0,.18Zm-15.81,45.79-.11.05.05.12Zm-58.07,12.6v-.17l-.08,0ZM467.3,932.56l.11-.1-.14-.08Zm10.54,80.22,0-.13-.05,0Zm7.38-4.26-.05,0,.06.11Z" transform="translate(-431.18 -877.09)"></path><path class="cls-1" d="M484,953c-.28-.11-.56-.12-.68.28a9.06,9.06,0,0,0-.32,1.48c-.15,1.48-.26,3-.36,4.46,0,.22,0,.52.2.58a.33.33,0,0,0,.39-.15,4.1,4.1,0,0,0,.41-1.6,4.55,4.55,0,0,1,.13-1.32A8.39,8.39,0,0,0,484,953Z" transform="translate(-431.18 -877.09)"></path><path class="cls-1" d="M516.38,1024.55c-.23,0-.46.35-.68.72s-.55.88-.83,1.31l0-.08a3.15,3.15,0,0,1-.79,1.82l0,0a3.85,3.85,0,0,0-.25,1.3c0,.21,0,.42.12.31a2.06,2.06,0,0,0,.24-.43c.69-1.59,1.45-3.06,2.1-5Z" transform="translate(-431.18 -877.09)"></path><path class="cls-1" d="M483.22,961.23c-.68-.15-1.12.3-1.42,1.08v-.1l.44,2.35-.05-.08c.33.21.59.19.65-.36.12-1,.23-2,.35-2.94Z" transform="translate(-431.18 -877.09)"></path><path class="cls-1" d="M498.47,951c.07-1.13.15-2.25.23-3.38a.41.41,0,0,0-.18-.29.3.3,0,0,0-.26.18c-.29,1-.57,1.92-.82,2.9a.58.58,0,0,0,.32.68c.27.16.51,0,.75-.15Z" transform="translate(-431.18 -877.09)"></path><path class="cls-1" d="M484.64,949l-.36-1.9.05,0c-.62.61-.46,1.62-.51,2.5s.13,1.17.38,1.12.41-.41.48-.77a3.55,3.55,0,0,0,0-.46l.05,0-.09-.57Z" transform="translate(-431.18 -877.09)"></path><path class="cls-1" d="M519.06,1016.49a5.83,5.83,0,0,0,.43-1.48v0a1.33,1.33,0,0,0-.76.67,3.08,3.08,0,0,0-.28.76,1.16,1.16,0,0,0,.1.85l0,0a2.31,2.31,0,0,1,.57-.92Z" transform="translate(-431.18 -877.09)"></path><path class="cls-1" d="M484.86,966.44a7.26,7.26,0,0,0-.17-2.81l.05,0c-.07.08-.2.13-.21.23a9.78,9.78,0,0,0,.19,4.12l0,0,.19-.19,0,.09a3.29,3.29,0,0,1,.06-1.54Z" transform="translate(-431.18 -877.09)"></path><path class="cls-1" d="M491.1,997.75c-.06-.19-.09-.33-.14-.45a.12.12,0,0,0-.09-.07.11.11,0,0,0-.07.09,4.75,4.75,0,0,0,.07,1.49,1.75,1.75,0,0,0,.18.56c.08.17.19-.19.16-.58S491.13,998.06,491.1,997.75Z" transform="translate(-431.18 -877.09)"></path><path class="cls-1" d="M537.88,993c.28-.34.64-.52.82-1.11a.82.82,0,0,0,0-.4.13.13,0,0,0-.21-.05,6,6,0,0,0-1.46,1.82v-.08l.88-.21Z" transform="translate(-431.18 -877.09)"></path><path class="cls-1" d="M537.88,977.42c-.44.48-.89,1-1.32,1.44a.77.77,0,0,0-.06.4c0,.08.15.15.21.09a4.56,4.56,0,0,0,1.3-1.43V978l-.17-.61Z" transform="translate(-431.18 -877.09)"></path><path class="cls-1" d="M532.1,982.46c.5-.17.81-.26,1.13-.39a.61.61,0,0,0,.19-.33.59.59,0,0,0-.06-.36c-.3-.46-.49-.4-.85.27C532.41,981.83,532.32,982,532.1,982.46Z" transform="translate(-431.18 -877.09)"></path><path class="cls-1" d="M501.91,935.91a2.61,2.61,0,0,0-.15-.54c-.12-.2-.3-.18-.42,0a1.36,1.36,0,0,0-.11,1c0,.22.13.44.33.43s.27-.21.31-.44S501.89,936.13,501.91,935.91Z" transform="translate(-431.18 -877.09)"></path><path class="cls-1" d="M495.16,964.51c-.85-.36-.91-.33-1.2.64a.89.89,0,0,0,0,.43c0,.06.18.09.23,0,.33-.37.65-.76,1-1.14Z" transform="translate(-431.18 -877.09)"></path><path class="cls-1" d="M531.49,1000.33c.21-.47.43-.93.65-1.4a.74.74,0,0,0,0-.38s-.16,0-.23.07a5.19,5.19,0,0,0-.45.64c-.32.51-.32.62,0,1Z" transform="translate(-431.18 -877.09)"></path><path class="cls-1" d="M503.07,929c0,.44-.1.88-.12,1.31,0,.08.17.25.25.24a.41.41,0,0,0,.22-.29c0-.43,0-.86-.07-1.3Z" transform="translate(-431.18 -877.09)"></path><path class="cls-1" d="M535.54,979.8c0-.11,0-.31-.07-.32-.25-.08-.43.24-.57.58s-.06.47.09.45S535.42,980.18,535.54,979.8Z" transform="translate(-431.18 -877.09)"></path><path class="cls-1" d="M502.34,932.34a2,2,0,0,0-.46,1.6.38.38,0,0,0,.25.26c.08,0,.22-.08.27-.18.29-.61,0-1.16-.11-1.74Z" transform="translate(-431.18 -877.09)"></path><path class="cls-1" d="M481.54,1007.72c-.09-.21-.19-.32-.27-.24s-.07.29,0,.48.21.27.27.12A1.3,1.3,0,0,0,481.54,1007.72Z" transform="translate(-431.18 -877.09)"></path><path class="cls-1" d="M507.74,943a.49.49,0,0,0,.29-.48c0-.34-.23-.58-.44-.45a.53.53,0,0,0-.21.56C507.43,942.87,507.56,943,507.74,943Z" transform="translate(-431.18 -877.09)"></path><path class="cls-1" d="M527.89,1003.86s0-.11,0-.12c-.17,0-.54.52-.56.84,0,.06,0,.15,0,.15S527.86,1004.14,527.89,1003.86Z" transform="translate(-431.18 -877.09)"></path><path class="cls-1" d="M529.91,1001.43c0-.08,0-.24-.1-.24s-.25.17-.29.42,0,.27.09.26S529.84,1001.69,529.91,1001.43Z" transform="translate(-431.18 -877.09)"></path><path class="cls-1" d="M531,1003a4.45,4.45,0,0,0,.14,2l0,0c.25-.93.29-1.66-.14-2Z" transform="translate(-431.18 -877.09)"></path><path class="cls-1" d="M478.35,1019.78c-.13-.2-.22-.19-.29-.1a.55.55,0,0,0,0,.52c.13.26.22.19.28.1S478.44,1020,478.35,1019.78Z" transform="translate(-431.18 -877.09)"></path><path class="cls-1" d="M528.43,1008.22a3.06,3.06,0,0,0,.13-.43c.06-.26.2-.57.05-.72s-.07,0-.1.08a.9.9,0,0,0-.14.76,1.19,1.19,0,0,0,.11.26Z" transform="translate(-431.18 -877.09)"></path><path class="cls-1" d="M525.05,1007.25c.11,0,.22,0,.28-.3,0-.08,0-.27-.07-.26s-.15.12-.21.22S525,1007.19,525.05,1007.25Z" transform="translate(-431.18 -877.09)"></path><path class="cls-1" d="M483.57,979.67c0-.42,0-.84-.05-1.26,0-.1-.11-.21-.16-.32,0,.11-.1.23-.08.33.08.42.19.84.3,1.28Z" transform="translate(-431.18 -877.09)"></path><path class="cls-1" d="M484.38,971.74c-.15-.28-.3-.74-.53-.42s0,.65.11,1l0,0,.48-.58Z" transform="translate(-431.18 -877.09)"></path><path class="cls-1" d="M494.86,962.37l.19.22c0-.11.07-.21.1-.32s-.08-.12-.1-.1A.91.91,0,0,0,494.86,962.37Z" transform="translate(-431.18 -877.09)"></path><path class="cls-1" d="M510.2,937.63a3.73,3.73,0,0,0,.36-.43,1.11,1.11,0,0,0,0-.37c-.08.06-.21.09-.24.18a4.34,4.34,0,0,0-.09.63Z" transform="translate(-431.18 -877.09)"></path><path class="cls-1" d="M489.68,1006.3a1.92,1.92,0,0,0,.11.4.35.35,0,0,0,.17.15s0-.11,0-.13a1.07,1.07,0,0,0-.13-.3c-.05-.06-.12,0-.18-.06Z" transform="translate(-431.18 -877.09)"></path><path class="cls-1" d="M490.2,1004.92a1,1,0,0,0,0,.19c.07.11.12.09.13-.07a.48.48,0,0,0,0-.18C490.26,1004.74,490.21,1004.77,490.2,1004.92Z" transform="translate(-431.18 -877.09)"></path><path class="cls-1" d="M516.37,1024.49a1.64,1.64,0,0,0,.26-.31,3.44,3.44,0,0,0,.08-.36c-.05,0-.11,0-.15.12s-.12.4-.18.61Z" transform="translate(-431.18 -877.09)"></path><path class="cls-1" d="M497.05,954.78c0-.2,0-.47-.17-.53s-.18.14-.19.25a8.27,8.27,0,0,0-.05.86l0,0a1.22,1.22,0,0,1,.48-.68Z" transform="translate(-431.18 -877.09)"></path><path class="cls-1" d="M520.65,1013.58l.13-.27,0-.09a2.24,2.24,0,0,0-.13.27Z" transform="translate(-431.18 -877.09)"></path><path class="cls-1" d="M496,957.08l-.1.1c0,.09.08.19.13.29l.1-.09Z" transform="translate(-431.18 -877.09)"></path><path class="cls-1" d="M561.79,986.75c.14,0,.28,0,.41-.24s.12-.28,0-.35-.28,0-.39.21A1.24,1.24,0,0,0,561.79,986.75Z" transform="translate(-431.18 -877.09)"></path><path class="cls-1" d="M484.28,947.07a2.12,2.12,0,0,0,.57-.27.39.39,0,0,0,0-.54s-.2,0-.25.12-.21.49-.32.74Z" transform="translate(-431.18 -877.09)"></path><path class="cls-1" d="M508.76,941.73c.11.06.18,0,.2-.17a.52.52,0,0,0,0-.18c-.07-.14-.18-.15-.22,0A1,1,0,0,0,508.76,941.73Z" transform="translate(-431.18 -877.09)"></path><path class="cls-1" d="M504.81,944.4l.11.57c.07-.08.21-.18.2-.24,0-.27-.2-.26-.35-.28Z" transform="translate(-431.18 -877.09)"></path><path class="cls-1" d="M504.21,1010.63l-.23.14a.2.2,0,0,0-.06.13c0,.17,0,.22.1.11s.13-.26.2-.39Z" transform="translate(-431.18 -877.09)"></path><path class="cls-1" d="M464.6,880.63l-.24-1s-.13-.06-.17,0-.12.12-.1.15c.16.31.34.62.52.94Z" transform="translate(-431.18 -877.09)"></path><path class="cls-1" d="M497.09,952.5a1.67,1.67,0,0,0,.05-.18c0-.21-.09-.23-.17-.06a.34.34,0,0,0,0,.2S497.05,952.49,497.09,952.5Z" transform="translate(-431.18 -877.09)"></path><path class="cls-1" d="M502.29,932.28a1.65,1.65,0,0,0,.32-.18c.14-.12.14-.24,0-.29s-.11.06-.13.12-.09.27-.14.41Z" transform="translate(-431.18 -877.09)"></path><path class="cls-1" d="M491.73,975.74c0,.13.09.27.15.4s.08.12.11.1.07-.19,0-.29a1.28,1.28,0,0,0-.25-.15Z" transform="translate(-431.18 -877.09)"></path><path class="cls-1" d="M484.29,969.57c0-.17-.06-.3-.15-.26s-.07.19-.08.31a.31.31,0,0,0,.08.15C484.24,969.83,484.29,969.75,484.29,969.57Z" transform="translate(-431.18 -877.09)"></path><path class="cls-1" d="M481.12,1008.77a.47.47,0,0,0,0,.17s.07.12.09.12.07-.11,0-.25A.18.18,0,0,0,481.12,1008.77Z" transform="translate(-431.18 -877.09)"></path><path class="cls-1" d="M499.91,941a1,1,0,0,0,.26-.25.27.27,0,0,0-.09-.37c-.14-.07-.22,0-.22.21s.05.3.07.45Z" transform="translate(-431.18 -877.09)"></path><path class="cls-1" d="M499.29,944.21l.16-.87c0-.06,0-.17-.05-.19s-.2,0-.19.2.06.59.1.89Z" transform="translate(-431.18 -877.09)"></path><path class="cls-1" d="M502.52,948.09c.13,0,.32.08.35-.18,0-.07-.23-.19-.36-.29l.05,0v.57Z" transform="translate(-431.18 -877.09)"></path><path class="cls-1" d="M498.91,945.43c-.09.05-.21.06-.28.14a.17.17,0,0,0,0,.3s.11,0,.12-.09.06-.27.09-.41Z" transform="translate(-431.18 -877.09)"></path><path class="cls-1" d="M524,1008.83v-.15s-.06,0-.08.06a.74.74,0,0,0,0,.15Z" transform="translate(-431.18 -877.09)"></path><path class="cls-1" d="M483.83,952l.21,1-.05,0c.3-.42.22-.7-.2-.87Z" transform="translate(-431.18 -877.09)"></path><path class="cls-1" d="M531.26,983.13l.08-.17s-.06-.08-.08-.06,0,.1-.08.15Z" transform="translate(-431.18 -877.09)"></path><path class="cls-1" d="M516.2,933.94c-.13-.12-.25-.24-.38-.34s-.21,0-.22.12.09.06.14.08l.45.13Z" transform="translate(-431.18 -877.09)"></path><polygon class="cls-1" points="77.77 61.31 77.87 61.19 77.75 61.14 77.77 61.31"></polygon><path class="cls-1" d="M529,1007.55c.06-.12.13-.24.18-.37a1.18,1.18,0,0,0,.05-.36c-.05-.05-.11.09-.13.27s0,.28-.07.42Z" transform="translate(-431.18 -877.09)"></path><path class="cls-1" d="M485.27,960.17c0-.06.05-.12,0-.17s-.11-.21-.17-.08a.22.22,0,0,0,0,.17S485.23,960.14,485.27,960.17Z" transform="translate(-431.18 -877.09)"></path><polygon class="cls-1" points="21.07 7.95 21.31 6.87 21.38 6.92 21.14 7.95 21.07 7.95"></polygon><polygon class="cls-1" points="58.45 118.86 58.49 119.23 58.46 118.88 58.45 118.86"></polygon><polygon class="cls-1" points="46.45 20.34 46.76 20.57 46.8 20.15 46.87 20.2 46.42 20.4 46.45 20.34"></polygon><path class="cls-1" d="M487.08,948.42l.13.39-.13-.41Z" transform="translate(-431.18 -877.09)"></path><polygon class="cls-1" points="62.59 90.02 62.56 90.19 62.55 90.03 62.59 90.02"></polygon><path class="cls-1" d="M497.1,917.32l-.06-.18.06.21Z" transform="translate(-431.18 -877.09)"></path><path class="cls-1" d="M499.93,941v.41c.2-.15,0-.29,0-.44S499.93,941,499.93,941Z" transform="translate(-431.18 -877.09)"></path><path class="cls-1" d="M534.17,996.13a1.29,1.29,0,0,0-.27.92h0l.28-1Z" transform="translate(-431.18 -877.09)"></path><polygon class="cls-1" points="108.72 113.33 108.75 113.13 108.75 113.31 108.72 113.33"></polygon><path class="cls-1" d="M477,904.93l0,.07Z" transform="translate(-431.18 -877.09)"></path><path class="cls-1" d="M483.79,952.09l0-.06Z" transform="translate(-431.18 -877.09)"></path><path class="cls-1" d="M484.69,963.63l.05,0Z" transform="translate(-431.18 -877.09)"></path><path class="cls-1" d="M476,909.38l0,.06Z" transform="translate(-431.18 -877.09)"></path><polygon class="cls-1" points="65.46 78.28 65.35 78.2 65.42 78.29 65.46 78.28"></polygon><path class="cls-1" d="M490,1000.92l0,.06Z" transform="translate(-431.18 -877.09)"></path><polygon class="cls-1" points="62.55 90.03 62.65 90.05 62.59 90.03 62.55 90.03"></polygon><path class="cls-1" d="M484.32,968l.35.06.05,0-.43,0Z" transform="translate(-431.18 -877.09)"></path><path class="cls-1" d="M523.56,927l.06,0Z" transform="translate(-431.18 -877.09)"></path><path class="cls-1" d="M483.2,961.18l-.07-.08.08.13S483.2,961.18,483.2,961.18Z" transform="translate(-431.18 -877.09)"></path><path class="cls-1" d="M490,1001l0-.06Z" transform="translate(-431.18 -877.09)"></path><path class="cls-1" d="M484.29,968l0-.06Z" transform="translate(-431.18 -877.09)"></path><path class="cls-1" d="M489.93,1002.75l0,0Z" transform="translate(-431.18 -877.09)"></path><polygon class="cls-1" points="58.72 125.68 58.7 125.74 58.75 125.67 58.72 125.68"></polygon><path class="cls-1" d="M489.69,1006.36v0Z" transform="translate(-431.18 -877.09)"></path><path class="cls-1" d="M519.49,1015l0,.09,0-.05Z" transform="translate(-431.18 -877.09)"></path><path class="cls-1" d="M489.79,1018.45v0Z" transform="translate(-431.18 -877.09)"></path><polygon class="cls-1" points="100.42 102.99 100.71 103.07 100.71 103.13 100.39 103.05 100.42 102.99"></polygon><polygon class="cls-1" points="110.24 95.96 110.54 96.06 110.53 96.11 110.21 96 110.24 95.96"></polygon><path class="cls-1" d="M539.93,990.4l.29.41-.05,0,.18-.54,0,.06-.46.06Z" transform="translate(-431.18 -877.09)"></path><path class="cls-1" d="M553.21,975.18v0Z" transform="translate(-431.18 -877.09)"></path><path class="cls-1" d="M483,1019.29a.91.91,0,0,0,.16.51v0l-.18-.55Z" transform="translate(-431.18 -877.09)"></path><polygon class="cls-1" points="57.62 65.42 57.69 65.37 57.58 65.42 57.62 65.42"></polygon><path class="cls-1" d="M488.8,942l0,0Z" transform="translate(-431.18 -877.09)"></path><path class="cls-1" d="M500.76,938.72v0Z" transform="translate(-431.18 -877.09)"></path><path class="cls-1" d="M500.76,938.66l0,.16,0-.09Z" transform="translate(-431.18 -877.09)"></path><path class="cls-1" d="M503.22,952.83l0-.06Z" transform="translate(-431.18 -877.09)"></path><path class="cls-1" d="M504.21,1009.6v1h0v-1Z" transform="translate(-431.18 -877.09)"></path><path class="cls-1" d="M504.77,944.45l.05-.12s0,.07,0,.07Z" transform="translate(-431.18 -877.09)"></path><path class="cls-1" d="M495.83,958.44v0Z" transform="translate(-431.18 -877.09)"></path><path class="cls-1" d="M510.24,937.64l-.12-.1.07.09Z" transform="translate(-431.18 -877.09)"></path><polygon class="cls-1" points="53.53 72.41 53.45 71.88 53.49 71.86 53.57 72.43 53.53 72.41"></polygon><path class="cls-1" d="M477.6,897.49l0-.06Z" transform="translate(-431.18 -877.09)"></path><path class="cls-1" d="M475.53,887.71l.17.06-.13-.08Z" transform="translate(-431.18 -877.09)"></path><path class="cls-1" d="M495.83,958.37l0,.16,0-.09Z" transform="translate(-431.18 -877.09)"></path><path class="cls-1" d="M510.09,1001.77l0-.06Z" transform="translate(-431.18 -877.09)"></path><path class="cls-1" d="M510.12,1001.71l0,0Z" transform="translate(-431.18 -877.09)"></path><path class="cls-1" d="M511.35,998.4h0Z" transform="translate(-431.18 -877.09)"></path><path class="cls-1" d="M511.32,998.4l.06.08,0-.07Z" transform="translate(-431.18 -877.09)"></path><polygon class="cls-1" points="53.87 79.13 53.86 78.95 53.85 79.07 53.87 79.13"></polygon><path class="cls-1" d="M512.09,998.68l-.06-.09,0,.08Z" transform="translate(-431.18 -877.09)"></path><path class="cls-1" d="M459.36,982c.15-.4-.12-1.16.31-1.33.15-.06.11-.31,0-.52-.44-1-.22-2-.71-3a4.22,4.22,0,0,1-.1-1c-.05-.48-.41-.79-.71-.65a.67.67,0,0,0-.37.68c0,.83.1,1.68.18,2.52a13.44,13.44,0,0,1,.17,1.48,4.26,4.26,0,0,0,.67,2.08l-.05,0,.29,0v0l.31-.13Z" transform="translate(-431.18 -877.09)"></path><path class="cls-1" d="M451.51,964.48c-.08-.1-.13-.19-.17-.2s-.23-.06-.29,0a1.46,1.46,0,0,0-.27,1.08c.11,1.42.26,2.82.44,4.27,0,.3.19.61.44.67s.22-.19.23-.39a13.64,13.64,0,0,0,0-1.43c-.09-1.12-.18-2.27-.27-3.41C451.6,964.86,451.54,964.65,451.51,964.48Z" transform="translate(-431.18 -877.09)"></path><path class="cls-1" d="M452.67,981.2c0,1-.09,2.08-.07,3.14a6.86,6.86,0,0,0,.28,1.48,1.29,1.29,0,0,0,.51.69c.21.15.37-.12.3-.6l-.48-3.39c-.07-.41-.21-.84-.32-1.27Z" transform="translate(-431.18 -877.09)"></path><path class="cls-1" d="M458.72,973.71c0-.66.1-1.31.11-2a3.08,3.08,0,0,0-.36-1.86l.06,0c-.43,0-.76.06-.82.73a3.13,3.13,0,0,0,.59,2.78l-.06,0,.52.39Z" transform="translate(-431.18 -877.09)"></path><path class="cls-1" d="M452.7,961.58a6.07,6.07,0,0,0,.2,3.55.55.55,0,0,0,.26.28.2.2,0,0,0,.23-.16A6.5,6.5,0,0,0,452.7,961.58Z" transform="translate(-431.18 -877.09)"></path><path class="cls-1" d="M458.47,969.87a2.73,2.73,0,0,0,.3-.62,1.35,1.35,0,0,0-.66-1.6.43.43,0,0,0-.41,0c-.05,0-.05.25,0,.38a7.35,7.35,0,0,0,.85,1.84Z" transform="translate(-431.18 -877.09)"></path><path class="cls-1" d="M454.3,978.39c-.59.25-.7,1-.56,1.86a.72.72,0,0,0,.47.63c.24.06.38-.1.28-.43a5.21,5.21,0,0,1-.19-2.07Z" transform="translate(-431.18 -877.09)"></path><path class="cls-1" d="M454.92,944.66a1.82,1.82,0,0,0,.22-1.66.64.64,0,0,0-.23-.35c-.22-.11-.32.07-.32.3A2.43,2.43,0,0,0,454.92,944.66Z" transform="translate(-431.18 -877.09)"></path><path class="cls-1" d="M452.22,945c.26-.17.16-.54.06-.9s-.23-.44-.41-.35-.25.57-.14.93S452,945.06,452.22,945Z" transform="translate(-431.18 -877.09)"></path><path class="cls-1" d="M458.56,986l.25.15s.06-.06.06-.11a2,2,0,0,0-.29-1c-.09-.18-.19-.19-.21,0A1.64,1.64,0,0,0,458.56,986Z" transform="translate(-431.18 -877.09)"></path><path class="cls-1" d="M452.22,957.25c0,.3.09.62.38.74.09,0,.26,0,.28-.07a.91.91,0,0,0-.3-1c-.33-.26-.33.13-.38.38l.08,0Z" transform="translate(-431.18 -877.09)"></path><path class="cls-1" d="M452.07,949.84a6.78,6.78,0,0,0,.4-.81s-.09-.22-.16-.32a.14.14,0,0,0-.15,0c-.36.15-.44.5-.33,1C451.87,949.83,452,949.89,452.07,949.84Z" transform="translate(-431.18 -877.09)"></path><path class="cls-1" d="M450.15,993.16a5.1,5.1,0,0,0-.3-2.41,3.67,3.67,0,0,0,.35,2.44Z" transform="translate(-431.18 -877.09)"></path><path class="cls-1" d="M455.13,953.37c.26-.1.24-.39.15-.7s-.21-.46-.37-.32a.85.85,0,0,0-.11.56A.43.43,0,0,0,455.13,953.37Z" transform="translate(-431.18 -877.09)"></path><path class="cls-1" d="M452.19,940.13c.22-.15.19-.44.14-.72a.56.56,0,0,0-.22-.32c-.08,0-.21.1-.24.2a.7.7,0,0,0,.16.77C452.07,940.11,452.15,940.15,452.19,940.13Z" transform="translate(-431.18 -877.09)"></path><path class="cls-1" d="M458.3,973.41c-.17.23-.47.36-.26.9.13.35.39.19.65-.41a1,1,0,0,0,0-.19l0,.06-.52-.39Z" transform="translate(-431.18 -877.09)"></path><path class="cls-1" d="M457.86,950.65c0-.09.14-.21.11-.27a.51.51,0,0,0-.58-.37.17.17,0,0,0-.07.14A.65.65,0,0,0,457.86,950.65Z" transform="translate(-431.18 -877.09)"></path><path class="cls-1" d="M457.76,961.23a.23.23,0,0,0,0-.35.31.31,0,0,0-.28-.11c-.11,0-.11.22,0,.34S457.67,961.19,457.76,961.23Z" transform="translate(-431.18 -877.09)"></path><path class="cls-1" d="M457.62,955.2a2.35,2.35,0,0,0-.22.45c0,.18,0,.44.22.5s.21-.19.16-.39a4.63,4.63,0,0,0-.21-.59Z" transform="translate(-431.18 -877.09)"></path><path class="cls-1" d="M457.57,955.17c.38-.15.52-.52.44-1.08a.38.38,0,0,0-.09-.18c-.11-.1-.21-.07-.22.09l-.07,1.2Z" transform="translate(-431.18 -877.09)"></path><path class="cls-1" d="M462.6,910.45c0,.52,0,1,0,1.56,0,.1.19.19.29.29.05-.12.16-.26.13-.37-.14-.5-.31-1-.48-1.51C462.58,910.42,462.6,910.45,462.6,910.45Z" transform="translate(-431.18 -877.09)"></path><path class="cls-1" d="M457.53,948.15l.1-.28a1.22,1.22,0,0,0-.26-.06s-.07.13-.06.14S457.47,948.09,457.53,948.15Z" transform="translate(-431.18 -877.09)"></path><path class="cls-1" d="M453.8,975.73c-.05-.18-.14-.29-.2-.2s0,.23,0,.35.13.29.2.2S453.8,975.85,453.8,975.73Z" transform="translate(-431.18 -877.09)"></path><path class="cls-1" d="M448.47,974.27l0-.35c-.06.06-.16.09-.17.18s.09.2.14.31Z" transform="translate(-431.18 -877.09)"></path><path class="cls-1" d="M450.17,989.69l-.55-.94s-.1,0-.12,0a.25.25,0,0,0,0,.17,1.28,1.28,0,0,0,.64.75Z" transform="translate(-431.18 -877.09)"></path><path class="cls-1" d="M449,984.76c-.1-.14-.21-.19-.23-.07a.9.9,0,0,0,.14.34s.11.06.13,0S449.15,984.9,449,984.76Z" transform="translate(-431.18 -877.09)"></path><polygon class="cls-1" points="16.43 31.59 16.6 31.54 16.49 31.41 16.43 31.59"></polygon><path class="cls-1" d="M450.43,948.37c0-.06,0-.12-.07-.17s-.11,0-.11,0C450.27,948.43,450.33,948.47,450.43,948.37Z" transform="translate(-431.18 -877.09)"></path><polygon class="cls-1" points="18.87 65.24 18.91 65.13 18.81 65.12 18.87 65.24"></polygon><path class="cls-1" d="M448.19,997.87l.26-.14a2.3,2.3,0,0,0-.25-.34.52.52,0,0,0-.23-.1,1.06,1.06,0,0,0,0,.19Z" transform="translate(-431.18 -877.09)"></path><path class="cls-1" d="M443.81,985.08l-.14-.09c0,.06,0,.14,0,.18s.09.06.13.09Z" transform="translate(-431.18 -877.09)"></path><path class="cls-1" d="M449,978.54s-.1,0-.11,0,0,.1,0,.16.1,0,.11,0A.55.55,0,0,0,449,978.54Z" transform="translate(-431.18 -877.09)"></path><polygon class="cls-1" points="22.62 97.23 22.74 97.2 22.62 97.07 22.62 97.23"></polygon><path class="cls-1" d="M459.23,983.41c-.06.11-.2.15-.11.41,0,0,.08,0,.08-.06s0-.23,0-.36Z" transform="translate(-431.18 -877.09)"></path><polygon class="cls-1" points="30.71 113.07 30.66 112.93 30.62 113 30.71 113.07"></polygon><path class="cls-1" d="M449.47,982.71a1.25,1.25,0,0,0,.1.81l0,0-.09-.86Z" transform="translate(-431.18 -877.09)"></path><path class="cls-1" d="M449.46,982.68l-.19-.34c0,.19.13.24.2.36Z" transform="translate(-431.18 -877.09)"></path><path class="cls-1" d="M454.3,978.38l-.21-.33.21.34Z" transform="translate(-431.18 -877.09)"></path><path class="cls-1" d="M458.82,982.14l-.2.36,0,0c.21.32.42.64.64.95h0c-.16-.43-.31-.87-.46-1.3Z" transform="translate(-431.18 -877.09)"></path><path class="cls-1" d="M452.18,951.8l0,.33a.43.43,0,0,0,0-.16,1.76,1.76,0,0,0-.09-.2Z" transform="translate(-431.18 -877.09)"></path><path class="cls-1" d="M457.56,963.25l.19.2a.44.44,0,0,0-.08-.1.28.28,0,0,0-.12,0Z" transform="translate(-431.18 -877.09)"></path><path class="cls-1" d="M454.62,938l.05.3s0-.09,0-.14l-.08-.16Z" transform="translate(-431.18 -877.09)"></path><path class="cls-1" d="M457.94,934.71c-.12.22,0-.07-.05,0Z" transform="translate(-431.18 -877.09)"></path><polygon class="cls-1" points="28.27 34.6 28.41 34.91 28.29 34.58 28.27 34.6"></polygon><path class="cls-1" d="M457.7,897.32l0-.17-.06.12Z" transform="translate(-431.18 -877.09)"></path><path class="cls-1" d="M457.27,903.54l-.16,0,.1,0S457.27,903.54,457.27,903.54Z" transform="translate(-431.18 -877.09)"></path><path class="cls-1" d="M448.39,897.15l-.54.17Z" transform="translate(-431.18 -877.09)"></path><path class="cls-1" d="M457.89,934.67l.05,0Z" transform="translate(-431.18 -877.09)"></path><polygon class="cls-1" points="17 29.52 16.83 29.52 16.96 29.56 17 29.52"></polygon><path class="cls-1" d="M454.57,938l.16.06-.1-.06Z" transform="translate(-431.18 -877.09)"></path><path class="cls-1" d="M457.55,963.31v0Z" transform="translate(-431.18 -877.09)"></path><path class="cls-1" d="M452.13,951.77l.06,0Z" transform="translate(-431.18 -877.09)"></path><polygon class="cls-1" points="27.88 104.98 28.17 104.86 28.2 104.9 27.89 105.03 27.88 104.98"></polygon><path class="cls-1" d="M458.62,982.5l0-.16v.11Z" transform="translate(-431.18 -877.09)"></path><path class="cls-1" d="M460.3,989.08l.06,0Z" transform="translate(-431.18 -877.09)"></path><polygon class="cls-1" points="18.38 106.43 18.26 106.4 18.36 106.45 18.38 106.43"></polygon><path class="cls-1" d="M450.14,989.64l0,.16v-.11Z" transform="translate(-431.18 -877.09)"></path><path class="cls-1" d="M447.79,988.41l.09,0-.05,0Z" transform="translate(-431.18 -877.09)"></path><path class="cls-1" d="M503.48,969.65a1.5,1.5,0,0,1-.4,1.32l-1.81,1.9a1,1,0,0,0-.25.74.71.71,0,0,0,.05.22c.06.09.19.24.21.21.62-1,1.57-1.26,2.18-2.43.38-.73.41-.7,0-2Z" transform="translate(-431.18 -877.09)"></path><path class="cls-1" d="M513.1,976.29l.3-.48c.22-.48.43-1,.65-1.46a.74.74,0,0,0,0-.39c0-.1-.15-.19-.22-.16-.52.18-.86.82-1,1.66A.93.93,0,0,0,513.1,976.29Z" transform="translate(-431.18 -877.09)"></path><path class="cls-1" d="M512.93,965.73a1,1,0,0,0,0-.21c-.07,0-.16-.12-.24-.1s-.4.07-.44.47a.33.33,0,0,0,.17.27C512.64,966.19,512.8,966,512.93,965.73Z" transform="translate(-431.18 -877.09)"></path><path class="cls-1" d="M502.85,979.05a6.31,6.31,0,0,0-.39-.57c-.17-.21-.32,0-.45.19a.84.84,0,0,0,0,.8l.14.39h0a1.54,1.54,0,0,1,.74-.86Z" transform="translate(-431.18 -877.09)"></path><path class="cls-1" d="M501.18,979.73c0-.23-.06-.42-.2-.38s-.11.19-.11.31.07.42.21.38S501.15,979.84,501.18,979.73Z" transform="translate(-431.18 -877.09)"></path><path class="cls-1" d="M522.38,958.55c-.52.15-.7.74-.83,1.39A2.91,2.91,0,0,0,522.38,958.55Z" transform="translate(-431.18 -877.09)"></path><path class="cls-1" d="M502.84,979l.19-.84a.41.41,0,0,0,0-.2c-.08-.09-.17,0-.18.16s0,.6,0,.91Z" transform="translate(-431.18 -877.09)"></path><path class="cls-1" d="M513.89,965c.06-.1.16-.19.17-.3s-.06-.26-.17-.19a.34.34,0,0,0-.09.17C513.74,964.89,513.78,965,513.89,965Z" transform="translate(-431.18 -877.09)"></path><path class="cls-1" d="M516.11,963.43l.11-.06-.09-.3s-.07,0-.11,0Z" transform="translate(-431.18 -877.09)"></path><path class="cls-1" d="M517.28,969.7l.11-.07c0-.12,0-.23,0-.35l-.11.08A2,2,0,0,0,517.28,969.7Z" transform="translate(-431.18 -877.09)"></path><path class="cls-1" d="M510,978.31c0-.21,0-.44.05-.65s0-.3-.09-.2a.62.62,0,0,0,0,.21l.06.65Z" transform="translate(-431.18 -877.09)"></path><path class="cls-1" d="M518.77,967.62s.1,0,.12-.08,0-.27-.1-.24-.07.1-.07.16S518.75,967.56,518.77,967.62Z" transform="translate(-431.18 -877.09)"></path><path class="cls-1" d="M520,960.66l-.11-.1c0,.07-.07.17-.06.19S519.94,960.89,520,960.66Z" transform="translate(-431.18 -877.09)"></path><polygon class="cls-1" points="79.53 99.1 79.47 99.17 79.54 99.23 79.53 99.1"></polygon><path class="cls-1" d="M499.86,975v0Z" transform="translate(-431.18 -877.09)"></path><path class="cls-1" d="M499.85,975l0,.17,0-.11Z" transform="translate(-431.18 -877.09)"></path><polygon class="cls-1" points="70.94 102.77 70.86 102.69 70.92 102.78 70.94 102.77"></polygon><path class="cls-1" d="M504.73,968.66l0-.15,0,.09Z" transform="translate(-431.18 -877.09)"></path><path class="cls-1" d="M503.06,957.58a1.43,1.43,0,0,0-.16-.4c-.1-.1-.2,0-.23.17a3.13,3.13,0,0,0-.06.68c0,.1.12.19.19.26s.11,0,.12-.1S503,957.77,503.06,957.58Z" transform="translate(-431.18 -877.09)"></path><path class="cls-1" d="M501.06,959.46c-.19.42-.38.83-.56,1.26,0,.08,0,.24.05.36.08-.06.19-.08.24-.18a3.86,3.86,0,0,0,.25-1.46Z" transform="translate(-431.18 -877.09)"></path><path class="cls-1" d="M522,941.31l.07.19a.57.57,0,0,0,.11-.16c.06-.22,0-.31-.12-.24S522,941.24,522,941.31Z" transform="translate(-431.18 -877.09)"></path><path class="cls-1" d="M511.68,946.58c-.45.89-.44,1,.11,1.43v0a2.64,2.64,0,0,1-.13-1.43Z" transform="translate(-431.18 -877.09)"></path><polygon class="cls-1" points="72.45 80.91 72.53 80.8 72.44 80.76 72.45 80.91"></polygon><polygon class="cls-1" points="88.66 65.58 88.76 65.55 88.71 65.44 88.66 65.58"></polygon><polygon class="cls-1" points="81.49 71.38 81.6 71.24 81.48 71.19 81.49 71.38"></polygon><path class="cls-1" d="M501.8,959.29l-.73.18,0,0c.54.42.54.42.73-.2Z" transform="translate(-431.18 -877.09)"></path><path class="cls-1" d="M516.9,945.68s.09,0,.11,0a.29.29,0,0,0,0-.18c-.07-.13-.15-.1-.18.07S516.88,945.63,516.9,945.68Z" transform="translate(-431.18 -877.09)"></path><path class="cls-1" d="M507.68,952.75l.07.29a.49.49,0,0,0,0-.13l-.1-.11Z" transform="translate(-431.18 -877.09)"></path><path class="cls-1" d="M498.61,965.82l0,0,.08-.07Z" transform="translate(-431.18 -877.09)"></path><path class="cls-1" d="M501.77,959.24l0,.06Z" transform="translate(-431.18 -877.09)"></path><path class="cls-1" d="M507.64,952.8l0,0Z" transform="translate(-431.18 -877.09)"></path><path class="cls-1" d="M511.74,949v0Z" transform="translate(-431.18 -877.09)"></path><path class="cls-1" d="M511.79,948l-.05,1v0l.05-1Z" transform="translate(-431.18 -877.09)"></path><path class="cls-1" d="M512.42,946.91l0-.06Z" transform="translate(-431.18 -877.09)"></path><path class="cls-1" d="M548.24,986.4c.2-.28.41-.56.6-.86a1.32,1.32,0,0,0,.06-.38c-.09,0-.19,0-.28.1a1.3,1.3,0,0,0-.37,1.16Z" transform="translate(-431.18 -877.09)"></path><path class="cls-1" d="M549.77,984.57l.18-.39-.17.37Z" transform="translate(-431.18 -877.09)"></path><path class="cls-1" d="M544.6,990.41l.07-.11,0,.05S544.6,990.41,544.6,990.41Z" transform="translate(-431.18 -877.09)"></path><path class="cls-1" d="M492.9,1007.45s.06,0,.07,0a1,1,0,0,0,0-.17s-.06,0-.07,0A1,1,0,0,0,492.9,1007.45Z" transform="translate(-431.18 -877.09)"></path><path class="cls-1" d="M497.58,1001.07v.22l0-.19Z" transform="translate(-431.18 -877.09)"></path><path class="cls-1" d="M485.24,979.54l0,.07Z" transform="translate(-431.18 -877.09)"></path><path class="cls-1" d="M557.53,950.88l.09.09,0-.07Z" transform="translate(-431.18 -877.09)"></path><polygon class="cls-1" points="46.55 128.25 46.62 127.73 46.65 127.78 46.59 128.29 46.55 128.25"></polygon><path class="cls-1" d="M477.77,1005.38l0,0Z" transform="translate(-431.18 -877.09)"></path><path class="cls-1" d="M477.19,1005.09l0,0Z" transform="translate(-431.18 -877.09)"></path><path class="cls-1" d="M540.58,921.66l.47.09Z" transform="translate(-431.18 -877.09)"></path><path class="cls-1" d="M488.31,947.52l.12.07-.08-.07Z" transform="translate(-431.18 -877.09)"></path><path class="cls-1" d="M552.87,962.94a4.69,4.69,0,0,0-.12.61c0,.1.06.26.12.26s.12-.14.07-.29-.08-.35-.12-.53Z" transform="translate(-431.18 -877.09)"></path><path class="cls-1" d="M551.07,965l.36.12Z" transform="translate(-431.18 -877.09)"></path><path class="cls-1" d="M551.39,965.05l.16.63Z" transform="translate(-431.18 -877.09)"></path><path class="cls-1" d="M484.27,992.87v0Z" transform="translate(-431.18 -877.09)"></path><path class="cls-1" d="M449.45,887.64l.69.38Z" transform="translate(-431.18 -877.09)"></path><path class="cls-1" d="M478.07,939.62l0,.14a.41.41,0,0,1,0-.08Z" transform="translate(-431.18 -877.09)"></path><path class="cls-1" d="M533.68,1005.15l0,.05Z" transform="translate(-431.18 -877.09)"></path><path class="cls-1" d="M521.67,957l0,.06Z" transform="translate(-431.18 -877.09)"></path><polygon class="cls-1" points="61.3 134.23 61.09 134.28 61.38 134.77 61.3 134.23"></polygon><path class="cls-1" d="M485.56,1011.91l-.14-.56Z" transform="translate(-431.18 -877.09)"></path></svg>
