<svg id="Layer_1" data-name="Layer 1" xmlns="http://www.w3.org/2000/svg" viewBox="0 0 147.21 148.61"><defs><style>.cls-1{fill:#0f0619;}</style></defs><path class="cls-1" d="M1547.37,958.68l-.07.18,0-.12,0,0a.22.22,0,0,1,0-.08Z" transform="translate(-1428.33 -876.47)"></path><path class="cls-1" d="M1517,983.58c0-.05,0-.1,0-.16Z" transform="translate(-1428.33 -876.47)"></path><path class="cls-1" d="M1517.17,983.09c0,.08,0,.17-.07.25a2.33,2.33,0,0,0,.07-.25Z" transform="translate(-1428.33 -876.47)"></path><path class="cls-1" d="M1518.76,976.08c0,.06,0,.12,0,.18v0A.68.68,0,0,0,1518.76,976.08Z" transform="translate(-1428.33 -876.47)"></path><path class="cls-1" d="M1530.2,974.93a.2.2,0,0,1,0-.07l0,0,0,.07,0,0Z" transform="translate(-1428.33 -876.47)"></path><path class="cls-1" d="M1518.79,975.91v0Z" transform="translate(-1428.33 -876.47)"></path><path class="cls-1" d="M1497.58,973.39l0,.08v0h0v-.06Z" transform="translate(-1428.33 -876.47)"></path><path class="cls-1" d="M1575.21,999l.07-.09a.36.36,0,0,0,0-.09Z" transform="translate(-1428.33 -876.47)"></path><path class="cls-1" d="M1518.74,976.26l0,.14,0-.07A.2.2,0,0,1,1518.74,976.26Z" transform="translate(-1428.33 -876.47)"></path><path class="cls-1" d="M1462,964.57l0,0a.64.64,0,0,0,0-.07Z" transform="translate(-1428.33 -876.47)"></path><path class="cls-1" d="M1575.5,994.72c-.07-1.27-.3-2.82-.43-4.32s0-2.82-.16-4.41a18.88,18.88,0,0,0-.67-4.5c-.44-1.31-.93-2.59-1.43-3.83-.25-.61-.51-1.25-.77-1.81l-.82-1.58a17.54,17.54,0,0,1-.94-2.68,1.59,1.59,0,0,1,0-1.17c.15-.3.39-.46.65-.31a16,16,0,0,1,2.66,2.37,4.25,4.25,0,0,0-1.21-3.25l-2.09-2a19.74,19.74,0,0,0-2-1.77l-1.84-1.43c-.3-.23-.61-.51-.89-.7l-.8-.55a1.08,1.08,0,0,0-1.34.11l0-.11h0l-.15,0a.31.31,0,0,0-.39.09l-.14,0,0,.09a2.28,2.28,0,0,0-.6-.69,1.84,1.84,0,0,0-.66-.25c-.45-.1-.93-.09-1.36-.23a.79.79,0,0,1-.43-.59,1.62,1.62,0,0,1,.43-1.3c.94-1.08,1.76-.9,2.45,0V960l.65-.25h0l0-.08c.31.14.68.42,1,.63s.72.45,1.09.66c.75.42,1.5.7,2.43,1.17a.46.46,0,0,0,.53-.21,1.12,1.12,0,0,0,0-.78,10.05,10.05,0,0,0-1.31-1.9c-.45-.54-.91-1.06-1.33-1.64a2,2,0,0,0-1.44-.9,3.36,3.36,0,0,0-1.62.21,4.23,4.23,0,0,1-1.41.29,2.2,2.2,0,0,1-1.19-.2,3.05,3.05,0,0,0-3.08.62c-.71.48-1.3.86-1.94.52a1.19,1.19,0,0,0-1.1.19,6.7,6.7,0,0,0-1.22,1.09c-.71.77-1.26.82-1.62.07l-.33.46.3-.43c.26-.74.55-1.71.09-1.69a6.73,6.73,0,0,0-3.75.86c0,.76.27.81.54.92.06,0,.07.35,0,.52a1.3,1.3,0,0,1-.3.55c-1.52.64-3.07,2.1-4.23,1.25-.43-.32-.92-.15-1.47.24s-1.26.85-1.8.62-1,.49-1.57,1.19c-.24,1.27,0,2.09-.23,3.36l-1.21,1.87v-.09l-.37.56v.09l0-.1.28-.43-.25,1,0,0v.07h0l.05-.11a12.17,12.17,0,0,1,1.14-.65c.18-.09.19.56,0,1A12.49,12.49,0,0,1,1537,973c.13.13.27.28.14.85a2.05,2.05,0,0,1-.4.75c-.2.22-.42.42-.59.42a3.85,3.85,0,0,0-1,.16c-.36.08-.72.2-1.09.32a14.86,14.86,0,0,1-2.17.58,1.5,1.5,0,0,1-1.77-1.07c-.38.69-.77,1.23-1.17,1.16a6.27,6.27,0,0,1-1.23-.15c-.92-.39-2,.53-3.17,1.3a2.08,2.08,0,0,0-.44.86c-.11.41.06.53.22.59a3.64,3.64,0,0,1,1,.48c.47.41.74,1.14.39,2.64l0-.12,0,.11a2.43,2.43,0,0,0-.72-.36c-.22,0-.53.14-.65.77s.11.77.34.78a2.15,2.15,0,0,0,.7-.21l0,.13,0-.13c.62,0,1.1-1.31,1.65-1.85.25-.24.5,0,.43.51s-.19.73-.28,1.1c-.2.82,0,1.11.29,1.14s.56-.29.65-.83c.28-1.6.73-1.93,1.31-1.91.22,0,.47-.13.69-.14.73,0,1.6-1.7,2.26-1.31a2.38,2.38,0,0,0,.49.22,2.8,2.8,0,0,0,1.25.11,6.65,6.65,0,0,0,2.51-.38c.36-.19.64.17.93.37a1,1,0,0,1,.1.7c-.12.66-.37.78-.54.83a3.22,3.22,0,0,1-.76,0c-.21,0-.45-.14-.66.19-.74,1.2-1.14.89-1.67.72a1.54,1.54,0,0,0-.9,0,2.58,2.58,0,0,0-1.14.76,7,7,0,0,0-.81,1l-.3.32.32-.35c-.15-.39-.27-.81-.44-1.15-.43-.89-.75-1-1.34.34-1.14,2.51-2.12,2.67-3.08,2-.29-.2-.61-.35-.91-.53a.58.58,0,0,0-.89.12c-.8,1-1.34.55-2,.45a12.52,12.52,0,0,1-2.23-.62l-.46-.15c-.17-1.85-.34-3.72-.5-5.57a1.4,1.4,0,0,0,.7-.21c.21-.13.35,0,.53,0s.46-.13.83-.81a3.49,3.49,0,0,0-.14-1.14,1.45,1.45,0,0,0-.32-.57c-.58-.61-1.07-.86-1.55-.77l-.35.18-.12-1.3.12-.2a1.36,1.36,0,0,1,1-.11,4.26,4.26,0,0,0,1.24.07l.76-.1.39-.05h.43a3.14,3.14,0,0,1,1.78.44c.75.42,1.67-.22,2.61-1.68a1.75,1.75,0,0,0-1.27-.82,15.53,15.53,0,0,1-3.31-.6,3.58,3.58,0,0,0-2.34-.08c-.19.09-.35,0-.51.3a2.17,2.17,0,0,1-.4.43.44.44,0,0,1-.24.15c-.15.08-.26.29-.31.66a10.78,10.78,0,0,0,0,1.09v0a1,1,0,0,0,0-.2,1.52,1.52,0,0,0-.25.11,1.67,1.67,0,0,0-.37.24c-.61.51-.94,1-.77,1.43.37.85.73.41,1.07.24l.16-.09c0,.17,0,.34-.07.51l.06-.4v-.11h0s0,.07,0,.1v.09a.74.74,0,0,1,0,.12v0h0v0h0V976h0v0c0-.23,0-.31,0-.28l0-.16h0l.16-.09.08-.05,0,0,0,0-.07-.89c0,.36.06.74.1,1.11l-.11.06c-.11.14-.2.28-.28.39s0,.17,0,.24v0h0l0-.08h0v0l0-.15h0v0l0,.16,0,.08v.1h0v0c0,.09,0,.19,0,.3l0-.1v.15c0-.11,0-.21,0-.3,0,.15-.06.33-.1.55,0-.08,0-.15.05-.22l0,.09v0c0,.06,0,.12,0,.19V977c0,.12,0,.25-.08.38l0,.11v0h0v0l0,.21,0,.22,0,.08-.15.75a9.84,9.84,0,0,1-1.42.7c-.41.19-.82.3-1.24.52a3.1,3.1,0,0,0-1.28,1.18c-.44.67-1,.76-1.57,1.15a1.24,1.24,0,0,0-.14.64,1,1,0,0,0,.18.58,3.44,3.44,0,0,0,3,.25c.46-.21.91-.44,1.36-.68.16-.61.32-1.23.47-1.85-.05.18-.1.4-.16.65-.11.43-.21.83-.31,1.2l.87-.46a9.14,9.14,0,0,1-.32,1.76l-.18-.06a1,1,0,0,1-.48-.32.16.16,0,0,0-.08-.06h0l0,0,.09-.33c0,.13-.07.25-.11.37a.1.1,0,0,0,0,.07l0,.11v0c-.06.2-.11.4-.17.58s-.18.6-.29.93c-.74.11-1.48,1-2.24,1.42a7.69,7.69,0,0,1-3.68.92,4.93,4.93,0,0,0-1.6.24,11.56,11.56,0,0,1-2.87.19c-.67,0-1.35-.12-2-.17a4.15,4.15,0,0,0-2,.21c-.18.07-.41.24-.54.1-1.24-1.44-2.73-.15-4.06-.73a13.58,13.58,0,0,0-4.81-1,4.39,4.39,0,0,1-1.88-.89,5.66,5.66,0,0,0-3-1,4.12,4.12,0,0,0-2.11-1.3.77.77,0,0,1-.52-.18,14.44,14.44,0,0,0-1.83-1.56l-.94-.67a6.63,6.63,0,0,1-.63-.46,4.66,4.66,0,0,1-1.51-1.88c-.24-.54-.6-.64-.91-.93s-.53-.33-.78-.56a2.12,2.12,0,0,1-.68-1.14c-.13-.4-.45-.08-.65-.22-.69-.42-1.44-.23-2-1.83-.21-.6-.57-.65-1,.47,0,.15-.1.28-.15.42l.16-.46a3.44,3.44,0,0,0-1.79-2.07,3.82,3.82,0,0,1-1.37-1,6.44,6.44,0,0,0-2.13-1.84,4.44,4.44,0,0,1-1.23-1c-.48-.46-1-1-1.48-1a2.26,2.26,0,0,1-1.29-.66c-.35-.29-.71-.68-1.06-.65-.67.06-1.25-.64-1.82-2-.14.44-.29.82-.51.49a3.46,3.46,0,0,0-2.2-1.57c-1.46-.5-2.91-2.19-4.38-3.5a1.52,1.52,0,0,1-.3-1.17,1.2,1.2,0,0,1,.23-.74c.38-.17.76-1.06,1.19.34.09.29.33.22.49.16a.77.77,0,0,0,.28-.56,1.49,1.49,0,0,0-.18-.94,3.37,3.37,0,0,1-.34-.66,3.31,3.31,0,0,1,0-.75c0-.09.06-.25.09-.24.59.17,1.19.35,1.78.58.23.09.42.53.49,1.25.1.94,0,1.53-.3,1.71a.71.71,0,0,0-.16.46,1.14,1.14,0,0,0,.25.85c.33.23.67.6,1,.41a4.84,4.84,0,0,0,.07-.65,6.6,6.6,0,0,1-.36-2.49c.19-1.14.6-.23.91-.14s.41.44.59.8.39.32.6.39c.89.32,1.8.16,2.67,1.37-.08.45-.18.78-.36.75s-.48.16-.67.68a2.86,2.86,0,0,0,0,1.69,2.8,2.8,0,0,0,.43.84c.88.54,1.75,1,2.6,1.51.08,0,.23-.33.25-.61a3.89,3.89,0,0,0-.13-1,7.63,7.63,0,0,0-.29-.74,2.21,2.21,0,0,1-.17-.58,2.52,2.52,0,0,1,0-.72c0-.2.11-.42.17-.42a1.79,1.79,0,0,1,1.77,1l.22.34a1.46,1.46,0,0,1,.32,1c0,.92-.27.71-.46.71s-.49-.41-.61.58c-.08.68.17,1.57.53,1.73s.61.23.91.33.61.2.86.31c0-1.45-.37-1.32-.53-2.08a2.71,2.71,0,0,1,.08-1.39c.34-.63.68-.55,1-.36l0,.07c.37.21.72.56,1.11.54s1.07.43,1.6.68c1.18.57,2.39.84,3.44,2s2.21,1.38,3.15,2.65a10.47,10.47,0,0,0,1.63,1.68,8.2,8.2,0,0,1,1.52,1.82c.33.57.82.63,1.25.86l.09.05.27.17.41.25.86.51,1.74,1a34.62,34.62,0,0,0,3.54,1.69c1.22.52,2.55.42,3.73,1s2.34.91,3.52,1.31a10.7,10.7,0,0,0,3,.63c1,.11,2,.08,3.07.15a12.54,12.54,0,0,0,3-.19,45.25,45.25,0,0,0,6.5-1.93h-.06l.34-1.35c-.47,0-.94-.08-1.4-.16-1-.17-2,.51-3-.08-.39-.24-.85,0-1.27.22-1.82,1.16-3.61.34-5.36-.12.3-.73.65-.87,1-.87a13.5,13.5,0,0,0,1.91-.06c.38,0,.75-.26,1.06-.91a1.12,1.12,0,0,0,0-.35,1,1,0,0,0-.06-.31c0-.08-.09-.16-.13-.16-1.46.11-2.82-1-4.33-.21l-.06,0,.1-.09c-.34-.11-.69-.47-1-.29-1.23.68-2.34,0-3.47-.34-.33,2.64-.35,2.71-1.3,3a1.33,1.33,0,0,1-.82.11,22.49,22.49,0,0,1-2.16-.91c-.71-.34-1.43-.64-2.12-1a1.47,1.47,0,0,1-.47-1c.92-.37,1.69.12,2.54.17.21,0,.41.13.62.15s.35-.09.45-.52,0-.82-.15-.84c-1.22-.15-2.27-1.14-3.3-2-1.34-1-2.86-1.16-4.15-2.25-.48-.44-1.09-.91-1.37-1.16-1-.81-2.09-1.57-3.11-2.53-1.44-1.36-3.08-1.86-4.6-3.24a9.52,9.52,0,0,0-1.85-1.05c-.42-.26-.82-.62-1.23-.92a46.91,46.91,0,0,1-4.21-3.1,1.22,1.22,0,0,0-.69-.27,5.57,5.57,0,0,1-2.77-1.73,5,5,0,0,0-1.73-1.34c-1.06-.28-2-1.95-3.11-2.34v0c-2-.18-3.87-1.81-5.76-4.52-.08-.12-.18-.3-.25-.29-1.25.2-2.43-2-3.67-2.49a5.63,5.63,0,0,1-2.1-1.84,5.28,5.28,0,0,0-2.11-1.64l0-.06-.29-.62h0v.09c-.26-.21-.58-.2-.78-.68a7.61,7.61,0,0,0-2-2.67,25.42,25.42,0,0,1-4.2-5.63c-.39-.77-.84-1.19-1.24-1.94a19.53,19.53,0,0,1-2-4,6,6,0,0,0-1.18-2.11c-.77-.94-1.19-2.55-1.38-4.85a35.3,35.3,0,0,0,3.07,3.31c2.28,1.9,4.55,4.86,6.9,6.4A15.12,15.12,0,0,1,1447,929a3.28,3.28,0,0,0,.93.85,3,3,0,0,1,1.47,1.17c.44.63.89.76,1.31.18a2,2,0,0,0,0-1.34c-.38-1-.84-1.63-1.28-1.53-.94.19-1.5-2.21-2.25-3.29A3.26,3.26,0,0,1,1447,924c0-1.76-.42-2.39-.9-2.83s-1.26-1.1-1.89-1.72a2.09,2.09,0,0,1-.26-.89,1.43,1.43,0,0,1,.27-1.11c.26-.25.54-.07.81.27,1.94,2.47,4,2.76,6,5,1.24.11,2.43,2,3.68,2.25.78.18,1.56,1.12,2.33,1.7a55.85,55.85,0,0,0,11,6.14s.09.11.13.08c.74-.47,1.46.62,2.15,1.15.2.15.39.5.58.49,1.67-.07,3.16,1.49,4.72,2.05a32.14,32.14,0,0,1,4.9,2.69,6,6,0,0,0,2.52,1.08,1.38,1.38,0,0,1,1.43,1c.22.59.6.48.91.65a22.76,22.76,0,0,1,2.94,1.75.93.93,0,0,1,.46.55,2.22,2.22,0,0,0,2,1.92l.22.07a3.88,3.88,0,0,1,1.42.82c.47.39.89,1,1.55.65a.24.24,0,0,1,.34.12,3.07,3.07,0,0,0,1.46,1.3,9.14,9.14,0,0,1,1.6.85,4,4,0,0,0,2.05.71,21.58,21.58,0,0,0,5.23.59,3.2,3.2,0,0,0,1.77-.41c.23-.15.48-.34.69-.2,1.15.69,2.32,0,3.44-.6s2.27-1.26,3.44-1.8a5.73,5.73,0,0,0,2.14-1.62,1,1,0,0,1,.46-.31,28.25,28.25,0,0,1,9.41-.92c.24,0,.47,0,.7,0l.65.1c.42.08.86.19,1.27.29a18.34,18.34,0,0,0,2.35.54,8.13,8.13,0,0,1,.86.15l.78.17.76.18.7.12.53.08h.41l.8,0c.53,0,1-.08,1.57-.15a14.87,14.87,0,0,0,3.1-.69c.49-.16.88.15,1.51-.69.28-1,.06-.92,0-1-.41-.56-1-.25-1.67-.12s-1.11.42-1.47.06a12,12,0,0,1-1.37-1.22c-.31-.38-.55-.73-.9-1.19s-.9-1.15-1.49-1.92a6,6,0,0,0-.69-.82,8,8,0,0,0-.85-.71,7.58,7.58,0,0,0-2-1c-1.91-.62-4.13-1.43-6.66-.76a5.8,5.8,0,0,1-3-.07,32.36,32.36,0,0,0-3.69-.66l-1.87-.15-.47,0a.65.65,0,0,1-.21,0l-.08,0-.35-.17a6.87,6.87,0,0,1-2.62-2.56,5.62,5.62,0,0,0-3.1-2.95c-.81-.29-1.69.13-2.38-1.6-1.37-.78-2.5-2.76-3.79-3.16a3.11,3.11,0,0,1-1.36-1.07,16.92,16.92,0,0,1-1.17-1.7,17.88,17.88,0,0,1-1-1.74c-.15-.29-.3-.58-.46-.87s-.15-.28-.23-.42,0-.11-.16-.21l-.35-.31-.2-.18c-1.6-1.41-3.16-2.93-4.74-4.49a41.33,41.33,0,0,0-5-4.1c-4.81-3.28-10-5.3-15.26-8.08-1.64-.87-3.41-1.26-5.1-2-1.35-.68-2.47-1.72-3.72-2.36-3.67-1.93-7.11-4.94-10.58-7a97.92,97.92,0,0,1-8.93-6.76c-1.14-.9-2.26-2.11-3.4-2.83a6.4,6.4,0,0,1-1.25-1.21c-3-3.43-5.89-4.29-8.47-3.13a8.58,8.58,0,0,0-1.37.72,3.56,3.56,0,0,0-1.06,1.6,17.4,17.4,0,0,0-.69,2.84,39.16,39.16,0,0,0-.46,8.19,111.8,111.8,0,0,0,.88,11.92c.19,1.24.39,2.48.61,3.68.17,1,.44,1.81.56,2.81.51,4.37,1.47,8,2.27,11.91a20.42,20.42,0,0,0,1.08,3.87c1,2.08,1.56,5.3,2.46,7.64a12.86,12.86,0,0,1,.59,3.74,15.53,15.53,0,0,0,1.45,6.42,16.22,16.22,0,0,1,1,2.89,2.57,2.57,0,0,0,.31.86c.93.9,1.47,3.58,2.26,5.11.16.3.27.89.43,1.14,1.53,2.4,2.93,5.79,4.53,7.64a10.51,10.51,0,0,0,1,.91,4,4,0,0,1,1.49,2.77c0,.23.14.59.19.58.57-.09.93,1.11,1.32,2.32s.92.9,1.38,1.42a19,19,0,0,1,2.72,4.36c1.93,4,3.54,9,5.21,13.5a29.22,29.22,0,0,0,2.81,5.64c1.18,1.82,2.31,3.56,3.37,5.35a10.45,10.45,0,0,1,.88,2.15c.54,1.72,1.06,3.41,1.57,5l.36,1.21a5.93,5.93,0,0,1,.3,1.19c.11.79.2,1.56.27,2.33.29,3.06.43,5.89.42,8.62s-.11,4.56-.2,5.64c0,.17,0,.39-.07.71a11.75,11.75,0,0,0-.17,1.27v0c-.12.61.09-.47.43-1.69.16-.61.35-1.25.57-2a3.45,3.45,0,0,1,.18-.51c.08-.2.49-.22.79-.25a3.69,3.69,0,0,1,.94,0,3.31,3.31,0,0,1,1.72.88c.81.76,1.59.49,2.42-.13,1.34-1,2.65-2.08,4-3.09a7.17,7.17,0,0,1,5.43-1.43c1.76.21,3.51,1,5.34.23.57-.24,1.22.11,1.82.25a3.28,3.28,0,0,0,3-.46,3.86,3.86,0,0,1,2.85-1,7.14,7.14,0,0,1,2.73.87,3.88,3.88,0,0,0,2.45.42,2.31,2.31,0,0,0,2.06-1.54,1.92,1.92,0,0,1,1.83-1.34c.74,0,1.49-.25,2.23-.23a3.82,3.82,0,0,1,2.5.81c.75,1.85,1.79,3.28,3.35,3.57.7.13,1.39.3,2.1.37l.43.17a11.74,11.74,0,0,1,1.14.54,2.72,2.72,0,0,1,.53.8,1.44,1.44,0,0,0,1.44,1h.12a3.45,3.45,0,0,1,.23.28c.26.33.58.38.88.57l.1.06h0c0-.39-.07-.77-.11-1.16l.34-.13a3.37,3.37,0,0,0,.64-.84,15.31,15.31,0,0,0,1.23-2.68,7.3,7.3,0,0,1,1.56-2.77,13.67,13.67,0,0,1,1.16-1.34,6,6,0,0,0,1.6-2.71c.85-2.27,1.61-3.37,2.32-3.58a2.3,2.3,0,0,0,.79-.36,2.16,2.16,0,0,0,.42-1.16c0-.11,0-.21,0-.29a5,5,0,0,1,.25-1.62,6.65,6.65,0,0,1,.83-1.73,4.41,4.41,0,0,1,1.49-1.32l.78-.38.72-.4,1.46-.78a2.49,2.49,0,0,0,.52-1.33,1.57,1.57,0,0,0,0-.42l1-2.06c.58-1.13,1.11-1.9,1.5-1.9s.67-.54,1.16-1.54c.32-.65.64-1.21,1-1.82,1.22-2.37,2.28-3.33,3.17-3.54a24.9,24.9,0,0,1,3.43-.65.76.76,0,0,0,.41-.11,4.21,4.21,0,0,0,.82-.62c.35-.42.14-.5,0-.59-.58-.57-.59-.52-.69-1.76.65-1.08.71-.28,1.2-.69a2.56,2.56,0,0,1,1.33-.57,11.91,11.91,0,0,0,2.2-.61,11.55,11.55,0,0,0,2.63-1.3c.25-.16.58-.38.77-.32a16,16,0,0,0,2.86.35,8.51,8.51,0,0,1,3.1.56,4.52,4.52,0,0,1,2.25,2.51c.45,1,.93,2.16,1.64,2.28a2.59,2.59,0,0,1,1.65,1.28,7.51,7.51,0,0,1,.63,1.27,13.3,13.3,0,0,1,.46,1.5,2.61,2.61,0,0,0,.34.92,7.93,7.93,0,0,1,1.75,3.42,22.4,22.4,0,0,1,.76,4.44,3.63,3.63,0,0,0,.45,1.19A13.68,13.68,0,0,0,1575.5,994.72Zm-56.71-18.78Zm-17.83.31a.63.63,0,0,1,0,.27c0,.07-.07.09-.11.13a.6.6,0,0,1-.06-.22C1500.81,976.14,1500.88,976.07,1501,976.25Zm-2.85-.43,0,.31L1498,976Zm-8.56-3.06c-.78.9-1.35.7-1.65-.57C1488.58,971.81,1489.14,971.92,1489.55,972.76Zm-3.13-1.36a.45.45,0,0,1,.31-.29c.49,0,.92.09,1.09,1-.65,1-1.07.56-1.41-.15A1.18,1.18,0,0,1,1486.42,971.4Zm-2.13-1.69c.06,0,.09.06.12.13a1.13,1.13,0,0,1-.18.28c0,.06-.09,0-.13-.08S1484.25,969.72,1484.29,969.71Zm-.8-.53a.39.39,0,0,1,.15,0,1.91,1.91,0,0,1-.05.29l-.15,0Zm-1.13-1.58a.88.88,0,0,1,0,.77.76.76,0,0,1-.34.42c-.4.18-.38-.75-.35-1.74A5,5,0,0,1,1482.36,967.6ZM1464.93,961l.06.12-.06.14Zm-.83-.34-.13-.54.13.33A1.44,1.44,0,0,1,1464.1,960.69ZM1441,914.27a5.35,5.35,0,0,1,2.09,2.12,3.32,3.32,0,0,1,.15,1.06c0,.44-.15.56-.29.51-.74-.24-1.39-1.52-2-2.16a5.56,5.56,0,0,1-.16-.88C1440.81,914.64,1440.92,914.22,1441,914.27Zm-1.72-1,.1,0a1,1,0,0,1,0,.26s-.06,0-.09,0Zm-4.16,4.12h0l0,.59Zm18.33,41.36a1.82,1.82,0,0,1-.64-.4l-4.36-3.83a11,11,0,0,1-1-1.13,4.55,4.55,0,0,1,0-.5.74.74,0,0,1,0-.3c.07-.1.15-.23.23-.18,1.21.78,2.39,2.24,3.59,3,.63.42,1.27,1.21,1.91,1.62a1.2,1.2,0,0,1,.26.25,1.53,1.53,0,0,1,.33,1.11C1453.76,958.6,1453.57,958.75,1453.45,958.72Zm2.77,10.36-.07-.18.08-.06Zm.68.82-.06-.14.07-.1Zm.95.46s0-.16-.07-.24.07-.18.08-.15S1458,970.31,1457.85,970.36Zm3.29,3-.44-.47C1460.9,972,1461,972.1,1461.14,973.33Zm-1.16-1.58c.26-.07.47.27.64,1C1460.4,972.44,1460.19,972.1,1460,971.75Zm2.24,2.28c-.34.18-.67-.26-1-.64.26-1.09.65-.79,1-.46a1.46,1.46,0,0,1,.13.61A.86.86,0,0,1,1462.22,974Zm1.37.33c-.1.45-.25.41-.4.26a1.21,1.21,0,0,1-.13-.83c.18-.29.35-.18.52.22A2,2,0,0,1,1463.59,974.36Zm3.1,2.47c-.7,0-1.37-.56-2.07-1.58.15-.94.36-.89.53-.75a17.12,17.12,0,0,1,1.56,1.43,3,3,0,0,1,0,.65C1466.77,976.66,1466.72,976.83,1466.69,976.83Zm1.79,1.19c-.16.39-.34.35-.5-.11a.9.9,0,0,1,0-.65c.18-.26.36-.31.52.1A5.28,5.28,0,0,1,1468.48,978Zm8.24,6.78c-.25.75-.41.69-.56.6l-1.39-1c-.6-.41-1.18-1.14-1.82-1.54a30.16,30.16,0,0,1-2.57-2.39,4.05,4.05,0,0,1-.5-.75,1.61,1.61,0,0,1-.13-.42,3.11,3.11,0,0,1,0-.34,1,1,0,0,1,0-.31c.07-.09.15-.22.22-.18,1.68.91,3.33,1.38,4.78,2.92.22.24.37,1,.6.88.62-.37.88,1.23,1.42,1.19,0,0,.08.12.09.28A3.35,3.35,0,0,1,1476.72,984.8Zm3.86,5.07a1.09,1.09,0,0,1-.62,0,1.35,1.35,0,0,1-.3-.14.88.88,0,0,1-.17-.16l-.12-.24a1.42,1.42,0,0,0-.25-.42c-.46-.51-.95-1-1.42-1.51a2.6,2.6,0,0,1-.71-1.53,1.77,1.77,0,0,1,0-.83c0-.19.15-.4.19-.39.3,0,.68-.23.89.22a2.67,2.67,0,0,0,2,1.63h0l0,.66.14.08.25.13a2.94,2.94,0,0,1,.5.31,2.11,2.11,0,0,1,.77,1.17A2.43,2.43,0,0,1,1480.58,989.87Zm4,1.35c-.45,0-.92.1-1.38.1-.88,0-1.33-.8-1.28-2.43,1.18-.14,2.1.9,3.25.87.3,0,.3.59.18,1.14-.07.31-.15.62-.23.93C1485,991.42,1484.78,991.22,1484.53,991.22Zm17.72,5a6.72,6.72,0,0,1-4.61-.29,3.08,3.08,0,0,0-1.32-.36,8.68,8.68,0,0,1-3.68-.39,31.89,31.89,0,0,1-3.54-1.37c-1.36-.54-2.68-1.24-4-1.91.52-.79,1.08-1.75,1.62-1.34,1.32,1,2.83,1,4.22,1.58a41.12,41.12,0,0,0,4,1.4c1.37.35,2.73.72,4.11,1,1.07.22,2.15.33,3.22.46.1,0,.24.25.26.46C1502.65,995.93,1502.45,996.14,1502.25,996.22Zm16.48-19.9h0v0Zm-.44,2.26a.52.52,0,0,0,0,.11v-.07c0-.06,0-.13,0-.19Zm-.24,1.07v.05h0v-.06Zm1.41,2.48c.08,0,.21.14.27.32a1.41,1.41,0,0,1-.06,1c-.14.31-.29.58-.44.87v.08a5.14,5.14,0,0,0-.68,0l-.27,0c-.1-.59-.17-1.19-.22-1.81C1518.53,982.46,1519,982.26,1519.46,982.13Zm-.45-8.29Zm0,0h0Zm0,0h0v0h0Zm-.29,2.52h0v0Zm0,.32h0v0Zm0,.09h0v0Zm0,.13c0,.05,0,.09,0,.13v-.13Zm-.34,1.73,0,.12h0Zm-.24,1,0,.15,0-.12Zm-1.16,4.45v0Zm-3,7.52c.14-1.08.6-2.13.95-2a.56.56,0,0,1,.28.27c-.14.43-.28.86-.43,1.34s-.41,1.22-.68,2A3.91,3.91,0,0,1,1513.88,991.64Zm-3,1.23c.22-.37.44-.36.68-.09A1.6,1.6,0,0,1,1512,994a2.32,2.32,0,0,1-.66,1.75c-.38.37-.72.33-1-.49A6.72,6.72,0,0,1,1510.89,992.87Zm-1.77,1.79,0,.27-.08-.21Zm-2.2.43a.33.33,0,0,1,.06.49s-.12,0-.16-.08-.16-.35-.25-.52A1.42,1.42,0,0,1,1506.92,995.09Zm-.37-.11h0l-.22.57Zm-1.47,1c-.2.65-.76.71-.94.1a1.94,1.94,0,0,1,0-.35c.14-.43.87-.52,1-.1A.72.72,0,0,1,1505.08,996Zm24.61-11.25s.1,0,.15,0l-.15.62-.16,0C1529.59,985.12,1529.63,984.92,1529.69,984.72Zm4.51,14.22a2.1,2.1,0,0,1-.25.58,3.41,3.41,0,0,1-1.42,1.17,4.3,4.3,0,0,1-2,.42,11.8,11.8,0,0,0-2.11.14c-.39,0-.7-.27-.87-.87l0-.11.07,0a7,7,0,0,1,1.33-.41c.37-.13.63-.27.94-.37a8,8,0,0,0,1.78-.82.44.44,0,0,1,.35,0c.75.15,1.37.46,2.22-.07C1534.22,998.5,1534.24,998.79,1534.2,998.94Zm24-39.21c.13-.07.33,0,.35.1a.91.91,0,0,1-.4.83c-.12,0-.32,0-.34-.12A.8.8,0,0,1,1558.16,959.73Zm-10.75,5a1,1,0,0,1-.44.77c-.74.22-1.45.38-2.15.57-.26.07-.37-.25-.43-.68,1.09-1.4,1.88-.53,2.94-1.4C1547.38,964,1547.45,964.45,1547.41,964.74Zm-1.12,4.69a1.33,1.33,0,0,1-.24.7c0-.17.06-.35.11-.53A.48.48,0,0,1,1546.29,969.43Zm-2-4-.84,1.07C1544,965,1544,964.92,1544.31,965.4Zm-.68,5.05c0-.29.1-.49.2-.48a1.09,1.09,0,0,1,0,.32l-.16.61A3.34,3.34,0,0,1,1543.63,970.45Zm-1-4.92c.73-.6.74-.61.84.94h0l-.88.31c-.35.11-.59,0-.65-.74C1542.16,965.89,1542.39,965.73,1542.63,965.53Zm-2.05,6.38a2.26,2.26,0,0,1-.38,1.23c-.17,0-.17-.25-.13-.6.09-.65.18-1.31.28-2C1540.64,970.6,1540.59,971.3,1540.58,971.91Zm-1.83-4c-.15,0-.24-.29-.36-.49.92-1.7,1.75-2.22,2.49-1.8.31.17.63.31.94.47A5.28,5.28,0,0,1,1538.75,967.88Zm3.52,12.35c-.22.2-.36.14-.34-.32a1.77,1.77,0,0,1,.3-.92c.24-.29.35-.11.34.32A1.77,1.77,0,0,1,1542.27,980.23Zm1.09-.81-.11.07c0-.21,0-.33.14-.3S1543.37,979.34,1543.36,979.42Zm-1.64-6.33c-.1,0-.17-.37-.13-.64.07-.43.28-.63.41-.59.47.16,1-.11,1.64-.82v0a2.73,2.73,0,0,1,.4,0c.62,0,.63,0,.17,1.79C1543.17,973.72,1542.48,973.28,1541.72,973.09Zm3.29,13.85s-.13.16-.13.14a1.21,1.21,0,0,1,0-.33l.13-.16Zm-.77-14.19a15.5,15.5,0,0,1,1.77-2.45c.39.22.87-.24,1.4-.84a.14.14,0,0,1,.25.07,1.51,1.51,0,0,1-.34,1A5,5,0,0,1,1544.24,972.75Zm4.79-1.09-.08,0,.13-.08c-.32-.32-.86.28-1.25.28-.19,0-.4,0-.24-.7.75-.56,1.51-1.14,2.28-1.64.36-.23.72-.41,1.08-.61s.76,0,.77.78c0,.38,0,.74,0,1.09C1550.82,971.07,1549.92,971.35,1549,971.66Zm6.39-2.14a.67.67,0,0,1-.18.28,3.19,3.19,0,0,1-2.14,1c-.45,0-.88,0-1.32,0,.66-1.29,1.35-1.85,2-1.9a7.55,7.55,0,0,1,1.58.11C1555.46,969,1555.44,969.33,1555.42,969.52Zm2.12,2c-.08-.09-.24-.15-.24-.29a1.71,1.71,0,0,1,.49-1.2c.1-.09.32-.06.34,0A2,2,0,0,1,1557.54,971.52Zm1.87,1.33c-.08,0-.17.06-.23,0s0-.18,0-.25l.23-.06Zm.37-7.83a4.38,4.38,0,0,1-1.1-.09c-.46-.09-.92-.21-1.35-.25l-1.26-.09a14.15,14.15,0,0,0-2.44,0c-.89.1-1.78.17-2.64.35l-2.5.57c-.15,0-.25-.16-.34-.22a1.48,1.48,0,0,1,.36-1c1-.81,2.08-1.58,3-1.22a6.11,6.11,0,0,0,2.23.07l1.4,0,1.48.16c.5.06,1,.12,1.52.21s1.08.3,1.63.47a.83.83,0,0,1,.34.31.43.43,0,0,1,.07.28C1560,964.73,1559.87,965,1559.78,965Zm1.9.39c.08,0,.18,0,.21.07s0,.2-.05.3l-.22,0Zm2.14,7.4a.52.52,0,0,1-.5.19l-.52-.18-.48-.14a2.75,2.75,0,0,1-.82-.46,3.16,3.16,0,0,1-.67-.8,5.71,5.71,0,0,1-.48-1.18,2.36,2.36,0,0,1,2,.27,4.28,4.28,0,0,1,1.52,1.6A.94.94,0,0,1,1563.82,972.81Z" transform="translate(-1428.33 -876.47)"></path><path class="cls-1" d="M1517.1,983.34l0,.08v-.08Z" transform="translate(-1428.33 -876.47)"></path><path class="cls-1" d="M1483.05,950.09l0-.15,0,.08A.14.14,0,0,1,1483.05,950.09Z" transform="translate(-1428.33 -876.47)"></path><path class="cls-1" d="M1481.42,948.22a7.67,7.67,0,0,1-1.57-1.09,9.88,9.88,0,0,0-4.47-2.36,2.08,2.08,0,0,1-.79-.34c-1.35-1-2.74-2.26-4.23-2.65-.92-.25-1.82-1.12-2.72-1.1s-1.69-.85-2.54-1.27a9.52,9.52,0,0,1-2.92-1.87,1.1,1.1,0,0,0-.54-.37c-2.38-.31-4.67-2.73-7-4.37a21.4,21.4,0,0,0-2.16-1.36c-.21-.12-.44,0-.65.15a1.69,1.69,0,0,0-.09.6.91.91,0,0,0,.06.35c.17.25.33.58.5.67a3.06,3.06,0,0,1,1.69,1.89c.1.25.29.49.38.39.64-.78,1.23.54,1.83,1a47.06,47.06,0,0,0,5.62,3.31c1.87,1,3.75,1.73,5.58,3a31.93,31.93,0,0,0,4.11,2.17c1.24.61,2.39,1.54,3.63,1.7.66.1,1.19,1.11,1.9.77,1.63,1.42,3.42,1.63,5,3,.32.27.63.3,1-.36A2.79,2.79,0,0,0,1481.42,948.22Z" transform="translate(-1428.33 -876.47)"></path><path class="cls-1" d="M1477.79,970.69c-.4-.39-.89-.29-1.29-.86-.23-.34-.57.2-.87.86a5.44,5.44,0,0,0,.2,1.49c.82.63,1.48,1.9,2.35,2.05.23.06.37-.59.54-1.26A3.24,3.24,0,0,0,1477.79,970.69Z" transform="translate(-1428.33 -876.47)"></path><path class="cls-1" d="M1475.6,970.74l0,0s0-.07,0-.1Z" transform="translate(-1428.33 -876.47)"></path><path class="cls-1" d="M1478.72,973l0-.14,0,.12Z" transform="translate(-1428.33 -876.47)"></path><path class="cls-1" d="M1497.66,982.56c-.73.08-1.53.67-2.23.14-.21-.17-.45.44-.56,1s.08.73.25.7c1.05-.14,1.86,1,2.84,1.29.57.16,1.13.43,1.71-.44C1499.33,983.19,1498.71,982.45,1497.66,982.56Z" transform="translate(-1428.33 -876.47)"></path><path class="cls-1" d="M1486.48,953.57c.11.09.31-.09.39-.51a3.78,3.78,0,0,0,0-.95.19.19,0,0,0-.08-.17,10.37,10.37,0,0,1-2.88-2.33c-.23-.24-.52,0-.81.43a2.15,2.15,0,0,0,.42,1.27C1484.53,952,1485.5,952.8,1486.48,953.57Z" transform="translate(-1428.33 -876.47)"></path><path class="cls-1" d="M1483.09,950s0-.06,0-.1l0,.15Z" transform="translate(-1428.33 -876.47)"></path><path class="cls-1" d="M1490,982.7c.25,0,.51-.17.62-.8.07-.44-.06-.71-.22-.79-.54-.26-1.1-.42-1.63-.7-.26-.14-.47-.51-.73-.64s-.6.22-.87.78-.23,1.23,0,1.31c.5.19,1,.31,1.53.46l0,0C1489.14,982,1489.5,982.71,1490,982.7Z" transform="translate(-1428.33 -876.47)"></path><path class="cls-1" d="M1474.89,969.39c-.52.35-.94,0-1.38-.39,0,0-.15.13-.18.3a1.12,1.12,0,0,0,.07.82l1.27,1.72c.28.38.59-.21.92-1.17C1475.45,969.81,1475.22,969.17,1474.89,969.39Z" transform="translate(-1428.33 -876.47)"></path><path class="cls-1" d="M1475.59,970.67s0,.05,0,.07l0-.15Z" transform="translate(-1428.33 -876.47)"></path><path class="cls-1" d="M1541,953.1a2,2,0,0,0-.76,0l-.2,0c-.38.11-.79.22-1.45,1.24a1.09,1.09,0,0,0,1,.5,2.38,2.38,0,0,0,1-.36,11.79,11.79,0,0,0,1.24-.68,1.38,1.38,0,0,0,.25-.57c0-.14,0-.44-.1-.41A1.23,1.23,0,0,1,1541,953.1Z" transform="translate(-1428.33 -876.47)"></path><path class="cls-1" d="M1514.27,978.33a17.88,17.88,0,0,0,1.88-1.43,1.16,1.16,0,0,0,.2-.91c0-.48-.2-.76-.33-.7-.68.35-1.51.3-2.16,1.46-.07.14-.16.26-.24.39C1513.74,977.86,1513.86,978.6,1514.27,978.33Z" transform="translate(-1428.33 -876.47)"></path><path class="cls-1" d="M1513.6,977.16l0,0,0-.13,0,.14Z" transform="translate(-1428.33 -876.47)"></path><path class="cls-1" d="M1480.05,975l0-.06v-.09Z" transform="translate(-1428.33 -876.47)"></path><path class="cls-1" d="M1480.79,976.9a2.61,2.61,0,0,0,.32-.77,3.87,3.87,0,0,0,.1-1c-.16-1-.5-1.42-1.13-.16C1480.05,976.83,1480.27,977.52,1480.79,976.9Z" transform="translate(-1428.33 -876.47)"></path><path class="cls-1" d="M1551.44,951.74a2.24,2.24,0,0,0-1.94-.74,5,5,0,0,0-2.21,1.33,8.84,8.84,0,0,0,1.86.21A3.72,3.72,0,0,0,1551.44,951.74Z" transform="translate(-1428.33 -876.47)"></path><path class="cls-1" d="M1547.19,952.32l0,.14.14-.13Z" transform="translate(-1428.33 -876.47)"></path><path class="cls-1" d="M1479.47,972.81c-.25.15-.4-.46-.71.12.09.59.17,1.21.27,1.73.18,1,.5,1.1,1,.27C1480.12,973.45,1480,972.52,1479.47,972.81Z" transform="translate(-1428.33 -876.47)"></path><path class="cls-1" d="M1480.06,974.93a.41.41,0,0,1,0,.11l0-.15Z" transform="translate(-1428.33 -876.47)"></path><path class="cls-1" d="M1478.72,973l0-.06a.25.25,0,0,1,0-.08Z" transform="translate(-1428.33 -876.47)"></path><path class="cls-1" d="M1495.26,957.71c-.06,0-.17.27-.25.45a1.71,1.71,0,0,0,0,.36c0,.09,0,.26,0,.27.58.25,1.09.92,1.75.76.12,0,.31-.31.38-.59s0-.78-.1-.82A13.57,13.57,0,0,0,1495.26,957.71Z" transform="translate(-1428.33 -876.47)"></path><path class="cls-1" d="M1531,971.32c-1.06,1.88-1.13,2.07-.82,3.54.62-.61,1.12-.16,1.91-1.19C1531.73,972.75,1531.09,972.57,1531,971.32Z" transform="translate(-1428.33 -876.47)"></path><path class="cls-1" d="M1531,971.26l0,0s0,.06,0,.09Z" transform="translate(-1428.33 -876.47)"></path><path class="cls-1" d="M1490,955.83c.48.92,1,1.29,1.64,1.32.14,0,.31-.25.4-.67a1.32,1.32,0,0,0,0-.6C1491.61,955.25,1491,955.25,1490,955.83Z" transform="translate(-1428.33 -876.47)"></path><path class="cls-1" d="M1487.86,953.55a1.37,1.37,0,0,0-.26.53,1.33,1.33,0,0,0,0,.6c.26.46.65.45,1,.57a.82.82,0,0,1,.42.35,3.74,3.74,0,0,0,.32-.62,2.27,2.27,0,0,0,.07-.66,4.68,4.68,0,0,0-.39-.62A.7.7,0,0,0,1487.86,953.55Z" transform="translate(-1428.33 -876.47)"></path><path class="cls-1" d="M1471,967.5a10.77,10.77,0,0,0-.92-.75s-.12.21-.15.4a2.25,2.25,0,0,0,.07,1c.3.81.62.88,1,.45v0s0,0,.08,0,.24-.39.21-1-.16-.36-.27-.14v0Z" transform="translate(-1428.33 -876.47)"></path><path class="cls-1" d="M1462,964.44a.69.69,0,0,1,0,.13l0,0Z" transform="translate(-1428.33 -876.47)"></path><path class="cls-1" d="M1461.56,960.5c-.13,0-.27.78-.19,1.17.23.93.45,1.85.67,2.77.07-.54.16-1.05.19-1.62C1462.3,961.72,1462,960.6,1461.56,960.5Z" transform="translate(-1428.33 -876.47)"></path><path class="cls-1" d="M1535.9,973.32a1.35,1.35,0,0,0,.4-.87c.1-.62,0-.89-.21-.83s-.72.5-1.06,1.42C1535.18,973.73,1535.57,973.51,1535.9,973.32Z" transform="translate(-1428.33 -876.47)"></path><path class="cls-1" d="M1472,967.72c-.14,0-.26.39-.31.94a1.19,1.19,0,0,0,.12.82.78.78,0,0,0,.26.23c.08,0,.18.17.25-.24a2.6,2.6,0,0,0,0-1l-.09-.4C1472.18,968,1472.11,967.71,1472,967.72Z" transform="translate(-1428.33 -876.47)"></path><path class="cls-1" d="M1554.69,951.46c-.3-.94-.91-.78-1.58-.35a.5.5,0,0,0-.14.27c0,.19,0,.5.08.49C1553.58,951.75,1554.14,951.6,1554.69,951.46Z" transform="translate(-1428.33 -876.47)"></path><path class="cls-1" d="M1554.73,951.52l.08-.08h0l-.07,0,0,.07Z" transform="translate(-1428.33 -876.47)"></path><path class="cls-1" d="M1534.64,971.75c.25-.37.5-.81.8-1.32l.52-1a1.5,1.5,0,0,0-.32.19,4.08,4.08,0,0,0-1.19,1.64C1534.45,971.59,1534.48,972,1534.64,971.75Z" transform="translate(-1428.33 -876.47)"></path><path class="cls-1" d="M1534.45,971.23l0,.13a.43.43,0,0,0,0-.07Z" transform="translate(-1428.33 -876.47)"></path><path class="cls-1" d="M1533.81,967.16a1.71,1.71,0,0,0,.3-1.19c0-.12-.14-.12-.22,0a1.86,1.86,0,0,0-.42,1.2C1533.51,967.4,1533.64,967.42,1533.81,967.16Z" transform="translate(-1428.33 -876.47)"></path><path class="cls-1" d="M1503.94,984.7a1.16,1.16,0,0,0,.08,1c.29.32.54,0,.7-.63a1.33,1.33,0,0,0-.06-.64C1504.41,984,1504.16,984.17,1503.94,984.7Z" transform="translate(-1428.33 -876.47)"></path><path class="cls-1" d="M1537,955.25a.86.86,0,0,0,.26-.4c.14-.49,0-.46-.11-.44-.26,0-.56.36-.88.81A4.41,4.41,0,0,0,1537,955.25Z" transform="translate(-1428.33 -876.47)"></path><path class="cls-1" d="M1510.58,983.9a2.85,2.85,0,0,0,0,.66c.16.22.32.16.44-.11a.9.9,0,0,0,0-.9C1510.83,983.36,1510.67,983.56,1510.58,983.9Z" transform="translate(-1428.33 -876.47)"></path><path class="cls-1" d="M1533.79,955.28c.07-.46-.19-.58-.44-.22a3.33,3.33,0,0,0-.2.62c0,.43.32.36.54-.07A1.39,1.39,0,0,0,1533.79,955.28Z" transform="translate(-1428.33 -876.47)"></path><path class="cls-1" d="M1482.25,977.38l0,.12,0,0S1482.25,977.41,1482.25,977.38Z" transform="translate(-1428.33 -876.47)"></path><path class="cls-1" d="M1482.36,978.26v0a2.62,2.62,0,0,0,.21-.6,1,1,0,0,0,0-.25c0-.1,0-.18,0-.17s-.2.15-.31.26c0,.27,0,.57,0,.77S1482.29,978.34,1482.36,978.26Z" transform="translate(-1428.33 -876.47)"></path><path class="cls-1" d="M1530.93,953.87h0v0Z" transform="translate(-1428.33 -876.47)"></path><path class="cls-1" d="M1530.93,953.88c-.13.57-.27,1.15-.38,1.72,0,.06.16.1.26,0a2.07,2.07,0,0,0,.29-.54C1531.06,954.64,1531,954.27,1530.93,953.88Z" transform="translate(-1428.33 -876.47)"></path><path class="cls-1" d="M1506.2,984.93c0,.32.11.47.23.28a9.61,9.61,0,0,0,.46-1l-.6.36A.64.64,0,0,0,1506.2,984.93Z" transform="translate(-1428.33 -876.47)"></path><path class="cls-1" d="M1486.17,979.51l0,0h0l0,.24,0-.22h0Z" transform="translate(-1428.33 -876.47)"></path><path class="cls-1" d="M1484.6,980l.68.74h0l.08.06-.08-.15v0l.85-1.06C1485.65,979.41,1485.19,979.09,1484.6,980Z" transform="translate(-1428.33 -876.47)"></path><path class="cls-1" d="M1522.45,968.8c.06.08.15,0,.24-.3a.45.45,0,0,0,0-.21,2.09,2.09,0,0,0-.24.31C1522.45,968.66,1522.43,968.78,1522.45,968.8Z" transform="translate(-1428.33 -876.47)"></path><path class="cls-1" d="M1530.58,968.68c0,.05.08,0,.13,0a.86.86,0,0,0,.18-.59c0-.05-.09,0-.13,0A.72.72,0,0,0,1530.58,968.68Z" transform="translate(-1428.33 -876.47)"></path><path class="cls-1" d="M1508.67,974.22a.73.73,0,0,0,0,.62s.08-.05.13-.09a.73.73,0,0,0,0-.62S1508.7,974.15,1508.67,974.22Z" transform="translate(-1428.33 -876.47)"></path><path class="cls-1" d="M1509.65,959.29c0,.07,0,.15.07.22s.25-.06.26-.54a.38.38,0,0,0-.08-.22C1509.78,958.74,1509.67,958.83,1509.65,959.29Z" transform="translate(-1428.33 -876.47)"></path><path class="cls-1" d="M1500.32,960.4a.49.49,0,0,0,.11-.23.78.78,0,0,0,0-.31c-.16-.31-.38-.11-.58,0C1500,960.19,1500.09,960.55,1500.32,960.4Z" transform="translate(-1428.33 -876.47)"></path><path class="cls-1" d="M1499.8,959.76v.11l0,0Z" transform="translate(-1428.33 -876.47)"></path><path class="cls-1" d="M1460.25,960.67a.81.81,0,0,0,0,.62c.09.17.19.56.26.08a1.84,1.84,0,0,0-.09-.61C1460.4,960.64,1460.3,960.58,1460.25,960.67Z" transform="translate(-1428.33 -876.47)"></path><path class="cls-1" d="M1523.27,982.64a1.21,1.21,0,0,0,0-.29,2.57,2.57,0,0,0-.29-.35c0,.25,0,.51,0,.74C1523,982.8,1523.17,982.68,1523.27,982.64Z" transform="translate(-1428.33 -876.47)"></path><path class="cls-1" d="M1523,982l0,0a.66.66,0,0,0,0-.14Z" transform="translate(-1428.33 -876.47)"></path><path class="cls-1" d="M1507.34,985.31a.54.54,0,0,0,.06-.31,1.5,1.5,0,0,0-.2-.44,2.37,2.37,0,0,0-.25-.29c0,.19,0,.39.06.57C1507.06,985.18,1507.15,985.47,1507.34,985.31Z" transform="translate(-1428.33 -876.47)"></path><path class="cls-1" d="M1507,984.27s0-.09,0-.14a.61.61,0,0,0,0,.12l0,0v0Z" transform="translate(-1428.33 -876.47)"></path><path class="cls-1" d="M1501.43,960.06a.44.44,0,0,0,.07.21l.12-.11a2.28,2.28,0,0,0,0-.31C1501.52,959.67,1501.45,959.75,1501.43,960.06Z" transform="translate(-1428.33 -876.47)"></path><polygon class="cls-1" points="95.31 92.3 95.23 92.24 95.18 92.5 95.31 92.3"></polygon><polygon class="cls-1" points="102.6 77.39 102.6 77.39 102.6 77.39 102.6 77.39"></polygon><path class="cls-1" d="M1529.5,955.2l.08-.07,0-.06Z" transform="translate(-1428.33 -876.47)"></path><path class="cls-1" d="M1530.25,954.9c.23-.33.45-.69.68-1l-1.35,1.26C1529.7,955.48,1530,955.32,1530.25,954.9Z" transform="translate(-1428.33 -876.47)"></path><path class="cls-1" d="M1543.94,959.2a.52.52,0,0,0,0-.28c-.06-.12-.13-.2-.19-.3a4.9,4.9,0,0,0,0,.65C1543.74,959.52,1543.85,959.48,1543.94,959.2Z" transform="translate(-1428.33 -876.47)"></path><path class="cls-1" d="M1543.74,958.62v0h0l-.24.5.24-.49Z" transform="translate(-1428.33 -876.47)"></path><polygon class="cls-1" points="88.22 79.58 88.28 79.47 88.2 79.36 88.22 79.58"></polygon><path class="cls-1" d="M1499.24,959.7c-.17-.14-.33-.29-.49-.44C1498.87,959.63,1499,959.76,1499.24,959.7Z" transform="translate(-1428.33 -876.47)"></path><path class="cls-1" d="M1499.33,959.79v-.12a.19.19,0,0,1-.1,0Z" transform="translate(-1428.33 -876.47)"></path><path class="cls-1" d="M1498.7,959.22l-.17.56c0-.18.11-.37.17-.56l0,0,0-.08Z" transform="translate(-1428.33 -876.47)"></path><path class="cls-1" d="M1559.24,951.21c0-.05-.09,0-.13-.05l.18.45C1559.27,951.47,1559.26,951.34,1559.24,951.21Z" transform="translate(-1428.33 -876.47)"></path><path class="cls-1" d="M1559.36,951.8l.1-.19-.12.14,0-.14a1.1,1.1,0,0,0,0,.18Z" transform="translate(-1428.33 -876.47)"></path><path class="cls-1" d="M1555.31,951.35c.06-.26,0-.34-.19-.2a2.06,2.06,0,0,0-.31.29l.32,0C1555.19,951.39,1555.3,951.37,1555.31,951.35Z" transform="translate(-1428.33 -876.47)"></path><path class="cls-1" d="M1534.37,971.27a.63.63,0,0,1,0,.09l0-.13Z" transform="translate(-1428.33 -876.47)"></path><path class="cls-1" d="M1534.13,971.18c0,.06,0,.19,0,.18a.64.64,0,0,0,.21-.09C1534.33,971.12,1534.29,971,1534.13,971.18Z" transform="translate(-1428.33 -876.47)"></path><polygon class="cls-1" points="106.68 89.47 106.75 89.58 106.81 89.31 106.68 89.47"></polygon><path class="cls-1" d="M1528.43,973.36l-.11,0-.11.27C1528.29,973.74,1528.37,973.65,1528.43,973.36Z" transform="translate(-1428.33 -876.47)"></path><polygon class="cls-1" points="91.61 105.2 91.5 105.31 91.54 105.4 91.61 105.2"></polygon><path class="cls-1" d="M1527.6,954.21c0,.23,0,.19.17-.1a2.48,2.48,0,0,1,.23-.36l-.24.28C1527.71,954.1,1527.62,954.15,1527.6,954.21Z" transform="translate(-1428.33 -876.47)"></path><path class="cls-1" d="M1528.08,953.62l-.08.13.09-.11a1.15,1.15,0,0,0,0,.19,1.2,1.2,0,0,1,0-.19h0Z" transform="translate(-1428.33 -876.47)"></path><path class="cls-1" d="M1484.55,979.36l0,.6h0Z" transform="translate(-1428.33 -876.47)"></path><path class="cls-1" d="M1497.55,973.47l-.23.39C1497.46,974,1497.49,973.68,1497.55,973.47Z" transform="translate(-1428.33 -876.47)"></path><path class="cls-1" d="M1515.54,957.13v-.06l.1-.54c0,.18-.07.36-.1.54C1515.55,957.1,1515.48,957,1515.54,957.13Z" transform="translate(-1428.33 -876.47)"></path><path class="cls-1" d="M1528.1,953.83a1.84,1.84,0,0,0,.05.44C1528.13,954.13,1528.11,954,1528.1,953.83Z" transform="translate(-1428.33 -876.47)"></path><path class="cls-1" d="M1528.31,954.7a2.41,2.41,0,0,1-.16-.43A.94.94,0,0,0,1528.31,954.7Z" transform="translate(-1428.33 -876.47)"></path><polygon class="cls-1" points="41.49 87.25 41.52 87.18 41.45 87.28 41.49 87.25"></polygon><polygon class="cls-1" points="71.46 83.4 71.47 83.28 71.01 83.2 71 83.32 71.46 83.4"></polygon><path class="cls-1" d="M1488.6,982.37s0,0,0,0l-.15,0Z" transform="translate(-1428.33 -876.47)"></path><path class="cls-1" d="M1502.92,960.29v0Z" transform="translate(-1428.33 -876.47)"></path><path class="cls-1" d="M1499.7,985.39v-.19l0,0,0,.08v0A.31.31,0,0,0,1499.7,985.39Z" transform="translate(-1428.33 -876.47)"></path><path class="cls-1" d="M1528.39,955l0-.12h0v-.09s-.07-.07-.11-.11a1.14,1.14,0,0,1,.1.19Z" transform="translate(-1428.33 -876.47)"></path><polygon class="cls-1" points="101.15 78.62 101.17 78.73 101.22 78.6 101.15 78.62"></polygon><path class="cls-1" d="M1536.24,955.21v-.1l0,.22.08-.11h0Z" transform="translate(-1428.33 -876.47)"></path><path class="cls-1" d="M1527.4,972.86l0-.14h0v-.09a.1.1,0,0,1,0,0l0,0Z" transform="translate(-1428.33 -876.47)"></path><polygon class="cls-1" points="118.86 75.84 118.8 75.89 118.82 75.98 118.86 75.84"></polygon><path class="cls-1" d="M1536.36,970.71l0-.06h0S1536.35,970.72,1536.36,970.71Z" transform="translate(-1428.33 -876.47)"></path><path class="cls-1" d="M1536.39,970.65l.46-.33,0-.52Z" transform="translate(-1428.33 -876.47)"></path><path class="cls-1" d="M1537,972.74l0,.17v0h0V973l0,0,0,0Z" transform="translate(-1428.33 -876.47)"></path></svg>
