<svg id="Layer_1" data-name="Layer 1" xmlns="http://www.w3.org/2000/svg" viewBox="0 0 129.55 129.73"><defs><style>.cls-1{fill:#0f0619;}</style></defs><path class="cls-1" d="M968.55,1190.55c-.56-1-1.1-1.85-1.31-1.51s-.4.66-.81.53-.17.66.25,1.71c.34.84.44,1.38.24,1.45a7.89,7.89,0,0,1-1.09.27v-.08l-1.2-1.89.09.23c0-.22,0-.42,0-.66a2.46,2.46,0,0,0-.12-.44c-.16-.38-.29-.51-.35-.36a3.72,3.72,0,0,0-.1.42l.07,0c-.5-.62-.91-1-1.06-.58l-.66-.48.07,0-4.43-1.58a.16.16,0,0,0-.24.12,1.53,1.53,0,0,0,.08.69,3,3,0,0,0,.44.77c.53.25,1,.33,1.55.61.24.12.48-.09,1,1.48-1.32-.39-2.05.86-4.42-2.7-.34-.52-.33.1,0,1,.18.52.41,1.06.6,1.56,0,.09,0,.24,0,.21a33.87,33.87,0,0,0-8.91-4.06,12.27,12.27,0,0,1-4.12-2.33,1.25,1.25,0,0,0-.81-.28c-.21,0,0,.93.28,1.53,1,1.92,2,3.85,3,5.68.49.91.73.86.72.24v0c.62.91,1.34,2.44,1.8,2.32,1.25-.33,3.15,1.19,4.89,2.22s3.89,2.67,5.28,2.36c.22,0,.57.19.93.54a9,9,0,0,0,5.83,2.94c1.36.16,2.95.89,4.32,1,2.68.31,5.28.37,7.93.53s5.18.41,7.15-.88a.38.38,0,0,1,.3,0c1.77.55,2.62-1.1,4.49-.33.13.05.25.07.3,0,.67-1.33,2.23-.62,3.24-1.18a3.77,3.77,0,0,1,1.7-.74,3.4,3.4,0,0,0,3.17-1.67,1.7,1.7,0,0,1,1.14-1,4.43,4.43,0,0,0,2.18-1.48c1-.88,1.9-1.86,2.88-2.73a28.27,28.27,0,0,0,5.29-6.1,67.72,67.72,0,0,0,3.82-8.21c1.63-3.64,2.54-8.41,3.15-13.45a7.05,7.05,0,0,0-.36-2.93,5.88,5.88,0,0,0-.59-1.34,2,2,0,0,0-.74-.74,1.68,1.68,0,0,0-.85.22,3.62,3.62,0,0,1-4-.07,4.68,4.68,0,0,1-1.32-1.67l.07.17a1.28,1.28,0,0,1,1.81-1c1.25.36,2.36.32,3-.57.35-.49.41-.39,1.7,1.38s1.64,2.08,1.88,1.39.24-1.66.59-2.08c1-1.17,2.36-1.66,2.94-3.42a5.3,5.3,0,0,0,4.25-2.18c.42-.57,1.44-.13,3.15,1.59l-.08-.13c.46,1.52.44,1.56-1,.79a1.36,1.36,0,0,0-.67-.23c-.55.1-1.21,0-1.1,1,.22,2.12-1,2.41-.36,5.2,0,.18-.09.27-.22.18-1-.64-.64.82-.61,1.72,0,1.57.42,3.61-.53,3.86-.44.11.24,1.81,1.18,3a14.75,14.75,0,0,1,1.47,2l-.08-.17c-.25.41-.51.8-.09,2.11a3,3,0,0,1,.1,2.38,12.55,12.55,0,0,0-.89,2.47c-.71,2.66-1,6-2.13,8a.58.58,0,0,0,0,.27,10.44,10.44,0,0,1-1.22,5,9.51,9.51,0,0,0-.44,1.11,2.45,2.45,0,0,0,.26.83c.13.25.41.57.5.57s.47,0,.53-.28a4.41,4.41,0,0,1,1.23-2.27,1.6,1.6,0,0,0,.46-1.08c0-1.75.39-2.9,1.35-3.19.72-.22,1-1.52.81-3.23,0-.44.18-.52.61-.11a6.17,6.17,0,0,1,1.11,2.3c.18,1,.07,1.51-.76.68l.07,0a5.32,5.32,0,0,1,.22,2.07c-.37,2-.75,4.16-1.13,6.23a28.87,28.87,0,0,1-1.67,5.7,38.72,38.72,0,0,1-1.8,4.82,6.59,6.59,0,0,0-.16,1.91,31.77,31.77,0,0,1-2.12,3,2.92,2.92,0,0,0-.49,2.28l-.13-.26a.46.46,0,0,1,.05.1c.34,0,.76.19,1,0a16.28,16.28,0,0,0,1.66-2.11c.34-.49.41-1.4,0-3,.63.85,1,1.07,1.29.84a4.71,4.71,0,0,0,1.32-2.21,17.16,17.16,0,0,1,1.43-3.91,17.08,17.08,0,0,0,2.44-7.67,2.57,2.57,0,0,1,.71-1.67c.85-.91,1.61-2,1.25-4.84-.09-.66.11-.86.55-.6a3.41,3.41,0,0,1,.57.66,1.45,1.45,0,0,1,.19.48,9.74,9.74,0,0,1,0,1.59,114.86,114.86,0,0,1-2.52,15.33,2.38,2.38,0,0,0-.13,2.49c1.1,1.11.63-.68.89-1.12.13-.22.15-.62.27-.85,2-3.92,3.19-9.2,4.93-13.76a5.53,5.53,0,0,0,.42-2,27.1,27.1,0,0,1,1.22-7,28.18,28.18,0,0,0,1.08-5.47,14.16,14.16,0,0,1,.72-3.15c.16-.58.37-1.62,1.09-.85,1.24,1.39.46,2,.55,2.82.07.61.14,1.3.22,1.93.35,3.31,1.39,7.2,2,10.78a10.34,10.34,0,0,1,.23,2.92c-.29,2.27,0,2.92,2.29,6a12.45,12.45,0,0,0,1.56,1.78,5.29,5.29,0,0,1,1.71,3c.87,3.9,1.73,7.7,2.61,11.61a12.43,12.43,0,0,1,.32,3.86c-.36,4.6-1.27,8.32-1.39,13.08a3,3,0,0,1-.27,1c-.88,2.89-1.76,5.79-2.63,8.67a2.65,2.65,0,0,1-.56,1.14c-1.21,1.06-1.81,3.17-2.59,4.93-1.23,2.73-2.4,5.49-4.55,6.39a5,5,0,0,0-2.81,2.39,3.06,3.06,0,0,1-1.51,1.32,4.81,4.81,0,0,0-1.79,1.84c-.72,1.19-1.38,2.51-2.38,3.09a28,28,0,0,1-5.61,2.08,1.69,1.69,0,0,1-1.74-.14c-.29-.2-.6-.33-.73-.14-.75,1.13-2.14.78-3.3,1s-1.9,1.78-3.18,1.92c-2.07.22-3.88,1.09-6.21.61-.3-.06-.59-.06-.72.24-.62,1.41-1.93,1.18-3.3.7a3.4,3.4,0,0,0-2.74,0,6.63,6.63,0,0,1-4.43.72,6.53,6.53,0,0,0-2-.21,15.33,15.33,0,0,1-5.81-.92,32.6,32.6,0,0,1-8.34-3.24c-2.58-1.54-4.65-1.49-7.56-4.13a4.08,4.08,0,0,0-1.73-.92c-3.08-1-6.68-3.75-10.16-6.26-3.16-2.27-6.35-4.76-9.48-7.12-2.66-2-5.19-3.64-7.9-6-2.87-2.51-5.49-4.37-7.75-5a2.71,2.71,0,0,1-1.49-1.1c-.69-.91-1.21-1.24-1.62-1.15s-1.19-1-1.88-2.93a31.42,31.42,0,0,0-3-6.14,15.55,15.55,0,0,1-1.39-2.75L925.73,1211a12.7,12.7,0,0,1-.66-2.13c-.36-2.74-1.51-6.69-1.24-8.41a7.07,7.07,0,0,0-.09-1.42c-.93-6.77,0-9.9,0-14.86a1.63,1.63,0,0,1,.14-.63c1.11-3.38,2.79-5.36,5.31-5.41,1.13,0,2.33.1,3.45,0,2.06-.16,4.45.34,4.65-4.25a.44.44,0,0,1,.14-.33c.76-.72.87-2.79,1.35-4.08a6.45,6.45,0,0,0-.16-2.91c-.81-4.26-1-7.47-.24-9a17.29,17.29,0,0,0,.91-4.56c.31-2.21.63-4.37,1.67-5.11a20.26,20.26,0,0,0,2.44-2.53.66.66,0,0,1,.62-.23c.57.1.87-.37,1.18-.86a6.63,6.63,0,0,1,4.26-3.32c2.16-.41,4.89.57,7.83,2a33.08,33.08,0,0,1,4.43,3.32,12.5,12.5,0,0,1,3,4,37.81,37.81,0,0,0,3.88,5.76c1.32,1.76,2.48,3.16,3.4,3.51.53.2,1.24.92,2.13,2.47a4.78,4.78,0,0,1,.76,2.24c-.15.31-.29.67-.58.66a6.4,6.4,0,0,1-2.94-.64,11.19,11.19,0,0,0-6.41-1.21,11.55,11.55,0,0,1-4.64-.21c-1.07-.33-2-.34-2.19,1.32-.06.53-.37.42-.73.29a10.1,10.1,0,0,0-5.9-.62c-1.09.26-1.91,1.16-3.27.75a1.26,1.26,0,0,0-.8.15c-.32.1-.46.51.1,2.08.5,1.41.37,1.73,0,1.58a13.12,13.12,0,0,1-1.26-.68l.07,0a6.74,6.74,0,0,0,.08,1c.48,2.37.12,2.95-1,2a3.89,3.89,0,0,1-2.21-1,1,1,0,0,0-.65-.21c-.08,0-.11.22,0,.47a4.32,4.32,0,0,0,.64,1.46c1.7,2.56,2.68,2.55,2.4,0a7.08,7.08,0,0,0-.17-.88c1.54,3.4,2,4.1,2.29,3.1.22-.7.6-.29,1.4,1.26,1.06,2.08,1.75,2.68,2.41,2.89a19.32,19.32,0,0,1,3.29,1.43c.55.29,1.11.64,1.51.53.63-.16,1.52.42,2.57,1.46.66.65,1.34,1.36,1.64.93.11-.16.36-.09.63.16,2.36,2.2,3.86,1.92,5.88,3.12,1,.62,1.85.47,3.53,2.51-.16.83-.59.76-1,.62-.74-.24-1,.54-1,1.69Zm5.55,51a1,1,0,0,0-.37.12.8.8,0,0,0,.08.4c.16.41.34.63.35.39a9.48,9.48,0,0,0-.11-1.07l.65.35,0,.17ZM1029,1212l-.1-.22c-.2.17,0-.22-.08-.17Zm-.63,2.2.3.09c-.43-.68-.17,0-.22.11Zm-48.74,28.1c-.11,0-.15.43,0,.75.3.91.6,1.12.82,1.16s.27-.06.41-.11a2.61,2.61,0,0,0,.89.44c.13,0,.18-.42.07-.76-.35-1.06-.57-.9-.78-1a1.91,1.91,0,0,0-.64-.11C980.14,1242.56,979.84,1242.3,979.66,1242.33Zm3.5,2,.06.1a1.12,1.12,0,0,0,1.76,0,3,3,0,0,0,.79,0c.06,0,0-.42-.07-.65s-.34-.36-.38-.28a7.88,7.88,0,0,0-.31,1c-.78-1.4-1.24-1.57-1.65-1.56s-.27.74-.08,1.66Zm34.11-27.27c.07,0,0-.36,0-.56a3.31,3.31,0,0,0-.46-.58c-.65-.29-.72.46-.51,1.7-.56-.63-.92-.7-1.14-.45a3,3,0,0,0-1.07,2.25c.29.26.5.53.56.48a21.88,21.88,0,0,0,1.68-1.66c.07-.06,0-.45,0-.68C1016.35,1216.89,1016.9,1217.17,1017.27,1217.06Zm22.83-25.51c-.07,0,0,.42.09.67a2.72,2.72,0,0,0,.53.74c.14.08.27,0,.24-.24a11.07,11.07,0,0,0-.31-1.27c.52.18.78-.1.92-.59a12.76,12.76,0,0,0,.48-5.82c-1.6,2-1.81,3.16-1.33,6.55C1040.51,1191.57,1040.25,1191.46,1040.1,1191.55Zm-45.66,52.22a.46.46,0,0,0-.14-.51s0,.14,0,.25c0,.33.08.69.12,1-.39-.86-.85-2-1.18-2-1.81.06-3.58.23-5.35.37-.09,0-.09.24-.12.42a1.57,1.57,0,0,0,.08.4,4.39,4.39,0,0,0,.44.78c.31.14.66.34.85.2,1.14-.81,2.91,0,4.21-.49.27-.09.71.22,1.07.35A4.51,4.51,0,0,1,994.44,1243.77Zm21.08-34.44a3,3,0,0,0-.29-.87c-.15-.24-.4-.5-.47-.48-.81.19-1.21,1.15-1.35,2.6-.44-.45-.87-.82-.93-.37-.25,1.72-1.38,1.68-2.05,2.54-.3.39-.64.71-.94,1.11-.1.14-.06.59.26,1.1.22.34.55.64.65.56,1-.9,2.05-1.88,3.07-2.84.3-.27.14-1.19-.12-2.26C1014.83,1211.68,1015.48,1211.14,1015.52,1209.33Zm5.05-12.26a8.75,8.75,0,0,1-2.21,4.86c-1,1.09-1.6,3-2.7,4a1.39,1.39,0,0,0,.14.74c.26.57.55.88.72.88s.58,0,.71-.22a10.19,10.19,0,0,0,1.43-2.51c.26-1,.9-1.32,1.39-1.91.21-.26.62-.19.66-.7.18-2.18,1-3.29,1.3-5.23a5.11,5.11,0,0,0-.25-.71C1020.93,1195.67,1020.7,1196.31,1020.57,1197.07Zm6.74,19.11a2,2,0,0,0,.19.68c.19.33.55-.16.43-.6a2.62,2.62,0,0,0-.2-.43C1027.31,1215.4,1027.34,1215.85,1027.31,1216.18Zm-28.34,25a1.33,1.33,0,0,0,.12.42,3,3,0,0,0,.47.64c.27.21.46.18.38-.4a3.82,3.82,0,0,0-.19-.46C999.38,1241.06,999.05,1240.81,999,1241.23Zm-22.46.82c-.28-.52-.43-.5-.43-.17a2.89,2.89,0,0,0,.22.81c.29.53.39.41.44.18A5.7,5.7,0,0,0,976.51,1242.05Zm62.67-46.15c-.19.28-.31.67,0,1.56.26.69.61,0,.4-1a4.09,4.09,0,0,0-.2-.47C1039.32,1196,1039.21,1195.85,1039.18,1195.9Zm-16.25,27.7a.19.19,0,0,0-.27.07c-.09.1,0,.43.2.7s.35.16.36-.11A.86.86,0,0,0,1022.93,1223.6Zm-37.57-5.24a2.76,2.76,0,0,0,.28.84c.3.52.46.5.46.17a6.52,6.52,0,0,0-.26-.84C985.54,1218.1,985.36,1218,985.36,1218.36Zm44.28-7.84a2.61,2.61,0,0,0,.43.74c.13.1.25,0,.24-.15a5.4,5.4,0,0,0-.34-.83C1029.69,1210,1029.55,1210.08,1029.64,1210.52Zm-51.47,32.29c.09.26.17.51.27.77a.37.37,0,0,0,.18.17c.12,0,.08-.21-.1-.61Zm29.94-27.26a.92.92,0,0,0,0,.34c.12.39.32.72.41.63s-.06-.44-.1-.67C1008.27,1215.45,1008.14,1215.34,1008.11,1215.55Zm31.46-21.22a2.82,2.82,0,0,0,.2.32c.17,0,.13-.14-.11-.44Z" transform="translate(-923.32 -1140.92)"></path><path class="cls-1" d="M980.09,1155.07c-.11,2.38.14,3.28,1.46,6,1.57,3.17,2.6,4.46,3.33,3.93,2-1.43,4.47-1.72,6.67-2.69a2.08,2.08,0,0,0,1.61-2,4,4,0,0,0-.32-1.23,2,2,0,0,0-.74-1c-1.46-1.14-2.52-1.18-4.16-2.84-.33-.33-.45-.15-.52.13-.14.53-.36.9-.47,1.47-.21,1-.68,1.49-1.87.36-.08-.08-.18-.18-.21-.15-.84.61-2.29-.54-4.21-3-.4-.52-.66-.45-.62.17S980.09,1155.24,980.09,1155.07Z" transform="translate(-923.32 -1140.92)"></path><path class="cls-1" d="M1031.37,1162.38c.17.08.43.27.51.2,1.49-1.45,2.2-4.26,1.87-8.15a3.68,3.68,0,0,0-2-3,5.51,5.51,0,0,1-2-2.43,3.37,3.37,0,0,0-.77-1.14,1.39,1.39,0,0,0-.56-.33l-.18,0h.29l.17,0a1.43,1.43,0,0,1-.41,0l-.26,0a5.22,5.22,0,0,0-.61-.14l-.34-.11.12,0c.18.06.28.28.4.44a3.49,3.49,0,0,1,.38,1.34,30.38,30.38,0,0,1,0,3.21,3.81,3.81,0,0,0,.53,2.83l-.07-.12c.26,0,.68.19.74-.05.26-1,1.27-.83,2.47-.77.81.94.34,1.06.27,1.36a2.91,2.91,0,0,1-.57,1.33c-.74.81-.79,2.17-.09,4.5a4.78,4.78,0,0,1,.13,1.26Z" transform="translate(-923.32 -1140.92)"></path><path class="cls-1" d="M986.52,1189c-.53-.45-1-.69-1,0-.06,1.29-.66,1.52-1.34,1.41-1.58-.25-2.7.57-4.14.62l-6.21.23,0,.06a3.58,3.58,0,0,0-.06.51,2.38,2.38,0,0,0,.63,1.59,1.57,1.57,0,0,0,1.09.53,17.16,17.16,0,0,0,4.42-.67c1.18-.45,2.68-.16,3.65-1.08.25-.23.68-.15,1.17.27,1,.89,1.45.39,2,.14s.41-1.62-.32-3.83Z" transform="translate(-923.32 -1140.92)"></path><path class="cls-1" d="M987.62,1190.06c.52.6.94.92,1.22.83a6,6,0,0,0,2.38-.89,24.88,24.88,0,0,1,4.52-3.36c.64-.35.41-2.27,1.3-2.28-1.15-1.93-1.5-1.82-1.7-1.56a31.23,31.23,0,0,1-5.2,4.75,1.93,1.93,0,0,1-2,.53c-.5-.17-.74.19-1,.51l-.07-.15.63,1.74Z" transform="translate(-923.32 -1140.92)"></path><path class="cls-1" d="M1003.54,1173.26c-.52-.2-.81.11-.87.77a4.08,4.08,0,0,1-1.93,3.38c-1.13.83-1.9,2.36-2.91,3.44a2.42,2.42,0,0,0-.49.92,1.24,1.24,0,0,0,0,1.36c.73,1.45.74.57,1,.48,2-.79,2.77-3.81,4.61-4.83.31-1.71,1.33-2.26.57-5.68Z" transform="translate(-923.32 -1140.92)"></path><path class="cls-1" d="M1009.25,1159.93c-.35-.2-.83-.66-1-.58-1.17.48-1.55,2.24-1.38,5,.52.7.68.66.7.43a3.84,3.84,0,0,1,1.36-3c.36-.25.36-1.07.28-2Z" transform="translate(-923.32 -1140.92)"></path><path class="cls-1" d="M979.5,1158.59a9.63,9.63,0,0,0-.36-1.21c-1-2.3-2.22-4.06-3-4.16-.16,0-.08.42.13,1,1.11,2.85,2.36,4.69,3.12,4.59C979.44,1158.76,979.45,1158.68,979.5,1158.59Z" transform="translate(-923.32 -1140.92)"></path><path class="cls-1" d="M1043.4,1170.6c-.11-.44-.28-1.15-.53-1.94-.19-.59-.61-.84-.91-.76-1,.15-1.18.68-.67,2.06.29.76.4,1.87,1.36,2.34C1043.16,1172.58,1043.46,1171.76,1043.4,1170.6Z" transform="translate(-923.32 -1140.92)"></path><path class="cls-1" d="M968.55,1190.55c-.06.5-.11,1-.17,1.5a2.39,2.39,0,0,0,.3,1.24c.27.58.53.89.64.76.36-.48.89-.44,1.85.75l0,0a19,19,0,0,0-2.71-4.31Z" transform="translate(-923.32 -1140.92)"></path><path class="cls-1" d="M971.17,1194.8c-.22-1.27.16-1.32.52-1.42s1,0,1.09-1c-1.37-1.25-1.91-1.42-2.15-.79s.16,1.84.55,3.19Z" transform="translate(-923.32 -1140.92)"></path><path class="cls-1" d="M1031,1173.92c-.17-.13-.45-.42-.51-.36-.7.73-1.13,1.75-.45,4.62,1-.65.65-3,1-4.33Z" transform="translate(-923.32 -1140.92)"></path><path class="cls-1" d="M1029.78,1186.74c.16-2,.27-3.37.38-4.8-.78-1-1-.84-1.06-.46C1028.66,1183.08,1028.67,1183.08,1029.78,1186.74Z" transform="translate(-923.32 -1140.92)"></path><path class="cls-1" d="M1003.49,1173.1c.87.36,2,1.27,1.53-1.08-1-.09-1-.09-1.48,1.23Z" transform="translate(-923.32 -1140.92)"></path><path class="cls-1" d="M973.82,1191.26c-.63-1.07-.92-2.52-1.62-3.47-.13-.17-.28-.2-.3-.08a2.16,2.16,0,0,0,.17.76c.59,1,1.19,1.9,1.79,2.84Z" transform="translate(-923.32 -1140.92)"></path><path class="cls-1" d="M958.66,1176a2.91,2.91,0,0,0,.11.54,4.26,4.26,0,0,0,.43.81c.18.15.34.18.45.12s0-.36-.06-.58a2.29,2.29,0,0,0-.23-.35C959.11,1176.34,958.88,1176.17,958.66,1176Z" transform="translate(-923.32 -1140.92)"></path><path class="cls-1" d="M1029.36,1169.85c-.61-.86-1.29-.88-1.13-.07a1.83,1.83,0,0,0,.2.43c.51.77,1.26.79,1.1,0A2.2,2.2,0,0,0,1029.36,1169.85Z" transform="translate(-923.32 -1140.92)"></path><path class="cls-1" d="M1031.45,1162.54c-.48.35-.47.33.08,2.21-.07-1-.11-1.69-.16-2.36Z" transform="translate(-923.32 -1140.92)"></path><path class="cls-1" d="M1005.64,1167.8l.19.74c.1,0,.26.18.27.08a3.7,3.7,0,0,0,0-.81c0-.08-.1-.28-.14-.42s-.24-.14-.28-.07A1.67,1.67,0,0,0,1005.64,1167.8Z" transform="translate(-923.32 -1140.92)"></path><path class="cls-1" d="M953.49,1174.66a1.72,1.72,0,0,0,.34.74c.13.15.28.25.31.15a2.75,2.75,0,0,0-.24-.77C953.63,1174.31,953.48,1174.25,953.49,1174.66Z" transform="translate(-923.32 -1140.92)"></path><path class="cls-1" d="M1028,1165.25c-.09-.11-.21-.29-.26-.3s-.11.15.1.49a1.12,1.12,0,0,0,.25.29C1028.22,1165.77,1028.18,1165.58,1028,1165.25Z" transform="translate(-923.32 -1140.92)"></path><path class="cls-1" d="M964.1,1192c.88,1.16.75.2.53-.94l.09.24-.6-1,.07,0-.06,1.84Z" transform="translate(-923.32 -1140.92)"></path><path class="cls-1" d="M962.54,1189.21a7.82,7.82,0,0,0,.13,1.09c.34,1.34.6,1.38.84,1.31l.07.16-.52-1.63-.59-1Z" transform="translate(-923.32 -1140.92)"></path><path class="cls-1" d="M1042.72,1164a5.41,5.41,0,0,0-.12.72s.15.2.23.3c0-.24.1-.47.12-.73C1043,1164.24,1042.8,1164.1,1042.72,1164Z" transform="translate(-923.32 -1140.92)"></path><path class="cls-1" d="M1028.68,1162.45l-.13-.36c-.08-.06-.21-.18-.23-.15s.07.22.12.34Z" transform="translate(-923.32 -1140.92)"></path><path class="cls-1" d="M1049.65,1157.69a5,5,0,0,0-.66,1.14,6.35,6.35,0,0,0,0,1.47,4.53,4.53,0,0,0,.5-1,10.58,10.58,0,0,0,.08-1.69Z" transform="translate(-923.32 -1140.92)"></path><polygon class="cls-1" points="63.77 47.67 63.21 48.05 63.14 47.86 64.3 49.14 64.33 49.26 63.7 47.52 63.77 47.67"></polygon><polygon class="cls-1" points="50.12 12.42 50.17 12.3 50.01 12.07 50.12 12.42"></polygon><polygon class="cls-1" points="23.93 51.23 24.02 51.06 23.92 51.19 23.93 51.23"></polygon><path class="cls-1" d="M1031,1173.85l-.11-.24.1.3Z" transform="translate(-923.32 -1140.92)"></path><path class="cls-1" d="M1026.59,1172.35l.08.16Z" transform="translate(-923.32 -1140.92)"></path><path class="cls-1" d="M976.56,1187.55l.07.14Z" transform="translate(-923.32 -1140.92)"></path><path class="cls-1" d="M976.63,1187.69l-.15-.25.08.09Z" transform="translate(-923.32 -1140.92)"></path><polygon class="cls-1" points="42.51 52 42.44 52.08 42.51 52.08 42.51 52"></polygon><polygon class="cls-1" points="40.19 50.69 40.78 51.04 40.81 51.17 40.24 50.07 40.26 50.85 40.19 50.69"></polygon><path class="cls-1" d="M1049.52,1157.57l.12.12Z" transform="translate(-923.32 -1140.92)"></path><path class="cls-1" d="M980.32,1242.53l.57,1.77Z" transform="translate(-923.32 -1140.92)"></path><polygon class="cls-1" points="39.7 49.23 40.31 50.28 39.73 48.57 39.7 49.23"></polygon></svg>
