<svg id="Layer_1" data-name="Layer 1" xmlns="http://www.w3.org/2000/svg" viewBox="0 0 152.37 180.35"><defs><style>.cls-1{fill:#0f0619;}</style></defs><polygon class="cls-1" points="96.4 16.71 96.4 16.78 96.41 16.78 96.4 16.71"></polygon><path class="cls-1" d="M1239.22,894a.17.17,0,0,1,0-.07h-.12l.09.08Z" transform="translate(-1113.96 -873.64)"></path><path class="cls-1" d="M1195.13,942.62v-.06h-.05Z" transform="translate(-1113.96 -873.64)"></path><path class="cls-1" d="M1265.18,939a10.82,10.82,0,0,1-.64-3.42,4.26,4.26,0,0,0-.5-2.22,6,6,0,0,1-.91-3.49c0-1.8-.71-2.87-1.88-3.3a3.11,3.11,0,0,1-1.81-2.6c-.19-.83-.45-1.62-.66-2.44s-.52-1.58-1.26-1.83a1,1,0,0,1-.55-.55c-.76-2-2-3.44-2.79-5.45a75.12,75.12,0,0,0-3.74-8.08c-.66-1.31-1.49-2.49-2.25-3.73a.86.86,0,0,0-.8-.52,2.25,2.25,0,0,1-1.48-.4,3.24,3.24,0,0,1-1.09-1.19c-1-1.72-2.16-3.26-3.27-4.89-.61-.9-1.49-.79-2.33-.84,0,.2-.06.46-.16.53-.27.2-.41-.11-.53-.34a1.54,1.54,0,0,1-.11-.3v-.08l.68.11-.61-.54,0-.09-.07,0a3.63,3.63,0,0,0-1.74-2.93c-.36-.26-.71.06-1,.4-1.68-1.31-3.42-2.57-5.15-3.87a11.78,11.78,0,0,1-1.2-1.24c-.34-.37-.65-1-1-1.06-2.24-.38-3.59-2.52-5.52-3.58a53.62,53.62,0,0,1-4.63-3.06,2.25,2.25,0,0,0-1.55-.54,8.24,8.24,0,0,1-2.25-.39,1.69,1.69,0,0,1-1.24-.74,2.75,2.75,0,0,0-1.76-1.22l-7.1-1.5a3.26,3.26,0,0,0,1.44,2.12c.58.39.54.45.11,1.33a3.36,3.36,0,0,0-.16.48,2.49,2.49,0,0,0,.48.39c2,.91,3.53,2.52,5.31,3.71,1.08.74,1.24,2,1.68,3.15,0,.07-.13.3-.24.36a.39.39,0,0,1-.39,0c-1.61-1.13-3.52-1.78-4.85-3.52s-3.48-2.16-5.5-2.45c-.19,0-.4.12-.59.22a1,1,0,0,0-.24,1.27c0,.06.09.14.14.17,2.89,2,5.12,4.88,7.87,6.93a3.41,3.41,0,0,1,1.59,2.1,1.13,1.13,0,0,1,.61.73.86.86,0,0,1,0,.45.34.34,0,0,1-.5.2,6.37,6.37,0,0,1-.62-.44l0-.43a5,5,0,0,1-2.73-1.5,9.75,9.75,0,0,0-2.75-1.68c0,1.57,1.27,1.94,1.63,3-.19.4-.48.26-.71.16-1.76-.77-3.76-.91-5.16-2.66a.34.34,0,0,0-.17-.13c-1.51-.17-2.64-1.31-3.89-2.14s-2.56-.73-3.81-1.23c-.07,0-.25.16-.3.29a.64.64,0,0,0,0,.45,1.55,1.55,0,0,0,1,.71c.38.12.36.15,1,1.19a7.07,7.07,0,0,0,.89,1,4.24,4.24,0,0,1,.43.52.59.59,0,0,1,.07.44.36.36,0,0,1-.55.13,12.7,12.7,0,0,1-1.05-.76,1.69,1.69,0,0,0-1.5-.36,6.33,6.33,0,0,0,1.58,2.08.54.54,0,0,1,0,.43.4.4,0,0,1-.35.17,3.78,3.78,0,0,1-1.83-1c-.69.42-1-.31-1.33-.71s.26-1,.15-1.55c-1.39-.75-2.87-.26-4.35-.37-.08,0-.26.19-.25.27a.47.47,0,0,0,.21.35c.53.23,1.07.42,1.61.61a7.49,7.49,0,0,1,.81.23c.62.34,1.29.68,1.36,1.64,0,.56-.75.76-1.83.38a22,22,0,0,0-6.41-1.35,7,7,0,0,1-1.42-.44c-.39-.1-.8-.31-1.19.05a2.08,2.08,0,0,0,1.87,1.31,11.78,11.78,0,0,1,4.87,2.16,2.83,2.83,0,0,1,.47.53,2.18,2.18,0,0,1-2.43-.11c-2.24-1.11-4.65-1.1-7-1.25a.63.63,0,0,0-.4.1.59.59,0,0,0-.26.34.56.56,0,0,0,.13.41,2.49,2.49,0,0,0,.74.45,26.84,26.84,0,0,1,5.33,2.13c.34.22.81.13,1.23.19l0,.06c.86-.35,1.62.11,2.39.39a18.43,18.43,0,0,0,2.47,1.07c.13,0,.32.08.36.19.58,1.58,2,1.25,3,1.86l.18.11,0,0c.93.53.93.53,2.17-.4.46.28,0,.69.06,1a1.73,1.73,0,0,0,.55,1.23c.36.36.93.33,1.21,1a1.42,1.42,0,0,1-1.5.11l-4.81-1.78a2.15,2.15,0,0,1-1-.81,3.66,3.66,0,0,0-3.1-1.59,7.52,7.52,0,0,1-4.73-1.6,1,1,0,0,0-.58-.22.89.89,0,0,0-.59.17c-.2.16-.11.42,0,.63a1.6,1.6,0,0,1,.23.4c.17.63-.12,1.29-.64,1.27-1.72,0-3.38.74-5.14.25v-.07c-.27.1-.56.31-.8.26-1.73-.33-3.5-.25-5.2-.81a6.33,6.33,0,0,0-1.67-.27,31.14,31.14,0,0,1-3.81-.39,4.42,4.42,0,0,0-3.33.54.59.59,0,0,0-.19.4.69.69,0,0,0,.17.41.79.79,0,0,0,.37.24c2.1.39,4.23.73,6.29,1.13a6.07,6.07,0,0,0,1.45-.13.4.4,0,0,1,.34.2.57.57,0,0,1,0,.44c-.19.23-.56.39-.61.64-.45,2.18-2,2.24-3.4,2.58a8.4,8.4,0,0,1-1.88,0,2.35,2.35,0,0,0-1.62.44,4.11,4.11,0,0,0,2.8,1.17c1.55.17,2.83,1.21,4.26,1.73a.76.76,0,0,1,.25.6.77.77,0,0,1-.39.49,5.19,5.19,0,0,1-2.84.23c-1-.1-1.93-.21-2.89-.23a6.61,6.61,0,0,0-1.65.21c-.64.14-.79.54-.6,1.23.3,1.07.73,1.81,1.82,2a3.87,3.87,0,0,1,2.8,1.3c.71.91.76,1.08.34,2.36-.35,1.1-.26,1.45.47,2.06.17.14.33.33.51.37a10.92,10.92,0,0,0,2.92.7,21.35,21.35,0,0,1,3.75,0,8.17,8.17,0,0,0,3.48,0,3.26,3.26,0,0,1,1.76.18,12.7,12.7,0,0,0,3.68.59,10.85,10.85,0,0,1,3,.73c.39.11.62.52.84.91a3,3,0,0,1,1.51-.37.76.76,0,0,1,.72.68,1.32,1.32,0,0,1-.58,1.2,1.39,1.39,0,0,1-.57.09,25.7,25.7,0,0,1-2.91-.36,4.51,4.51,0,0,0-1.93-.2,2.12,2.12,0,0,1-1,0,9.58,9.58,0,0,0-4.48-.26,4.28,4.28,0,0,1-1.36-.18,16.85,16.85,0,0,0-3.55-.19c-2.18,0-4.33.53-6.51.3a3.73,3.73,0,0,0-1,.05c-.91.16-1.7.79-1.54,1.23.27.75.9.83,1.47,1a6.48,6.48,0,0,0,2.15.26c1.23-.11,2.48,0,3.73,0,1.89,0,3.79-.19,5.69-.12a21.67,21.67,0,0,1,6.31,1.14,7.51,7.51,0,0,0,3.44.55c.33,0,.65-.1.91.22a1.31,1.31,0,0,0,1.25.49c.93-.11,1.41,1,2.25,1.15a3.51,3.51,0,0,1,2.29.72l-.1.1a1.24,1.24,0,0,1,.16,0l0-.06a2.09,2.09,0,0,0,1.48,0,.94.94,0,0,1,1.07.29,1,1,0,0,1,.25.58.6.6,0,0,1-.48.65,3.44,3.44,0,0,1-3.11-1.07l.09-.07-.14,0v.07a22.57,22.57,0,0,1-3.89-1.1,10.8,10.8,0,0,0-3.59-.78,2.87,2.87,0,0,1-.77-.07,44.82,44.82,0,0,0-7.27-1.2,11.42,11.42,0,0,0-2.92,0,5.08,5.08,0,0,1-3.05-.22,3,3,0,0,0-1.92.12,7.59,7.59,0,0,1-2.64.58c.1.81.55.8.89.9a34,34,0,0,0,6,.93,13.93,13.93,0,0,0,1.94,0,1.13,1.13,0,0,1,.89.36.78.78,0,0,0,.89.25,8,8,0,0,1,5.29.25c1.26.5,2.64.52,3.91,1a15.57,15.57,0,0,0,4.59,1.2,8.79,8.79,0,0,1,3.95,1.39,21.86,21.86,0,0,0,4.07,1.69,3.37,3.37,0,0,1,1.66,1,.62.62,0,0,1,.07.43.48.48,0,0,1-.28.26,1.27,1.27,0,0,1-.55,0c-.31-.08-.59-.27-.9-.32-3.25-.59-6.57-1-9.87-1.53a1,1,0,0,0-.56,0,.84.84,0,0,0-.43.4.42.42,0,0,0,.27.54,3.59,3.59,0,0,0,1.28.37c1.42,0,2.66.76,3.92,1.36a29.39,29.39,0,0,0,3.89,1.5,4.29,4.29,0,0,1,1,.54c.22.14.18.64-.07.81s-.47.22-.7.35a.75.75,0,0,0-.39.77,8.32,8.32,0,0,1-.12,2.39,1.71,1.71,0,0,0,1.16-.55c.35-.4.63-.16,1,.17s.75.32,1-.32.51-1.33.79-2c.14-.32.39-.47.64-.36a.79.79,0,0,1,.36.45c.09.29.06.65.15.94s.27.51.34.47c.77-.39,1.53.45,2.34-.28a2.07,2.07,0,0,0,1-1.68,6.26,6.26,0,0,1,.93-2.95.32.32,0,0,1,.61,0,5,5,0,0,1-.19,4.16l.06-.06a9.63,9.63,0,0,0-.58,2.35c-.28.85-.57,1.51-1.34,1.46a2,2,0,0,0-.55,0,1,1,0,0,0-.79.94c-.14.72-.32,1.44-.4,2.17a16.52,16.52,0,0,1-2,5.35c-.29.61-.7.92-1.21.76a2.65,2.65,0,0,0,.31-1.4c0-.53-.47-.77-.81-.48a2.44,2.44,0,0,0-.7,1.15,17.6,17.6,0,0,1-2,4.2,1.33,1.33,0,0,0-.24.39,14.86,14.86,0,0,1-3.05,5.27,7.48,7.48,0,0,0-1.6,3,4.12,4.12,0,0,1-.86,1.6c-1,1.25-1.07,1.29-2.25.5l-.15-.1c-.9-.56-1.53-.29-1.77,1a6.75,6.75,0,0,1-1.39,3.14c-1.58,1.84-3,4.06-4.8,5.36a6.55,6.55,0,0,0-.93.66,12,12,0,0,1-4.13,2.69,2.64,2.64,0,0,0-1,.47,2.34,2.34,0,0,1-1.87.84c-.18,0-.38.18-.57.31a2.42,2.42,0,0,0,1.55.27c.44-.06.8-.31.87.81a1.1,1.1,0,0,0,1.2.93,10.43,10.43,0,0,0,1.12-.17c.28.27.14.56,0,.84a1.12,1.12,0,0,0,.24,1.42c1,.85,1.85.8,2.68-.4,1.16-1.69,2.22-3.57,3.51-5.13a.52.52,0,0,0,.11-.19c.34-2,1.5-2.54,2.57-3.25a4.84,4.84,0,0,1-.41,2.3,2,2,0,0,0-.24,1.16c0,.07,0,.18.07.2s.22.11.29.05a2,2,0,0,0,.35-.53c.24-.48.43-1,.69-1.46.4-.71,1-1,1.15-.69s.06.92,0,1.38a2.1,2.1,0,0,0-.06.24c-.1.67,0,1,.51.77s.61-.16.58.56a17,17,0,0,1-.95,4.52.68.68,0,0,0,0,.45c.13.22.29.1.39-.12a14.08,14.08,0,0,0,1.13-2.52,1.92,1.92,0,0,1,.17-.44c.16-.28.35-.44.59-.41a.56.56,0,0,1,.44.6,13.44,13.44,0,0,1-.22,5.08,20,20,0,0,0-.5,2.4c-.09.53.17.89.57.84s1-.4,1.17-1.21c.09-.3.2-.59.31-.88a.13.13,0,0,1,.14-.07c.1,0,.24.08.27.19a3.63,3.63,0,0,1,.08.69c0,.81.08,1.62.15,2.42,0,.43.23.83.54.68.79-.39,1.34,0,1.91.7a4,4,0,0,0,1.29.85c.59.32,1.12.2,1.66-.57s.53-.62,1,0c.8,1,1.72,1.53,2.83,1,.75-.36,1.54-.22,2.27-.81.35-.28.43-.58.1-.79-.69-.44-.66-1.55-1-2.33a2.06,2.06,0,0,1,.11-1.18,5.83,5.83,0,0,1,2.31-3.34c.65-.36,1.3-.7,2-1.1a.87.87,0,0,0,.42-1c-.12-1-.28-1.4-.68-1.38s-.79.13-1.18.15-.52-.22-.61-.64a1.25,1.25,0,0,1,.27-1.11c.23-.27.51-.43.75-.67.58-.58,1.17-1.16,1.74-1.78a2.39,2.39,0,0,0,.68-2,2.13,2.13,0,0,1,.6-1.92c.56-.66,1.09-1.36,1.66-2s1.1-.5,1.45.3c.45,1,.5,1,1.18.51a3,3,0,0,1,1.14-.65c.08.56-.42,1.1-.24,1.52a4,4,0,0,0,1,1.09c.43-.5.48-1.42,1.07-1.57a9.08,9.08,0,0,1,.08-1.17.94.94,0,0,1,.35-.55c.29-.19.41.13.49.43.23.8.46,1.6.66,2.43.3,1.26.56,2.55.83,3.83a4.79,4.79,0,0,1,.16.92c0,2.27.13,4.54,0,6.81a22.47,22.47,0,0,1-.36,3.66c-.16.74-.45,1.31,0,2a2,2,0,0,1,0,1.42,7,7,0,0,0-.11,2.91,13.73,13.73,0,0,1,0,3.39,36,36,0,0,0,0,5.09,12.75,12.75,0,0,0,1.06,4.35,2,2,0,0,0,2.86,1.26,15.77,15.77,0,0,0,5.15-2.89,32.75,32.75,0,0,0,7.91-9.79,20.52,20.52,0,0,0,2-5.22c.43-2,.93-4,1.25-6.06a33.49,33.49,0,0,1,1.45-4.95,3,3,0,0,1,1-1.44c.7-.55,1.4-1.12,2.12-1.6a55.14,55.14,0,0,0,4.68-3.12,15.71,15.71,0,0,1,3.38-2,2,2,0,0,1,3,.76c.79,1.23,1.12,1.13,2.31.1a10.82,10.82,0,0,1,1.13-.94,6.5,6.5,0,0,0,1.93-2.09c.69-1.14,1.35-2.32,2-3.52a4.78,4.78,0,0,0,.49-1.64,18.32,18.32,0,0,1,1-3.81c.9-2.9,1.74-5.82,2.4-8.81.23-1,.54-2.06.85-3.09A19.11,19.11,0,0,0,1265.18,939Zm-46.51-.39s.11.06.13.12a.44.44,0,0,1,0,.21l-.81.38C1218.17,939,1218.35,938.68,1218.67,938.6Zm-9.75-2.44a15.44,15.44,0,0,0,1.26-3.08,1.46,1.46,0,0,1,.35-.5c.15.08.34.12.35.21.22,1.41.81,1.3,1.63.65a1.14,1.14,0,0,1,.91-.07c.92.21,1.22,1.29.68,2.41-.18.38-.44.64-.79.52-.18-.06-.33-.19-.51-.26-.66-.27-.93-.21-1.29.46a20.23,20.23,0,0,0-.87,2,9.29,9.29,0,0,1-1.35,2.44c-.68.85-1.34.67-1.44-.48a4.08,4.08,0,0,0-.77-2.33.78.78,0,0,1,0-.89c.11-.15.37-.3.49-.24C1208.22,937.32,1208.54,936.89,1208.92,936.16Zm1.61,8.47a.53.53,0,0,1-.23.55c-.08-.06-.21-.11-.23-.2a.46.46,0,0,1,.22-.54C1210.36,944.41,1210.51,944.53,1210.53,944.63Zm-2.77-9.09s0,.11,0,.16-.11,0-.12-.08,0-.11.05-.17S1207.75,935.49,1207.76,935.54Zm-7.29-32.19a2.73,2.73,0,0,0,1.91,1,.45.45,0,0,1,.23.32,1,1,0,0,1-.25.61,1.4,1.4,0,0,1-1.85-.1l0,.08a4.7,4.7,0,0,1-1.5-2.06C1199.65,903,1200.15,902.94,1200.47,903.35Zm-2.84-.45c.1-.18.22-.19.31,0s0,.13,0,.21-.22.18-.3,0A.24.24,0,0,1,1197.63,902.9Zm-.61-12.58c.22,0,.27,0,.13.07s-.2-.07-.3-.13h0C1196.91,890.28,1197,890.33,1197,890.32Zm-.2,0c0,.2.1.4.13.61a.34.34,0,0,1-.12.17c-.1-.07-.28-.18-.27-.22A2.61,2.61,0,0,1,1196.82,890.31Zm-15.06,7.35a.4.4,0,0,1,.48.29.45.45,0,0,1-.41.61.43.43,0,0,1-.41-.4A.46.46,0,0,1,1181.76,897.66Zm-10.34,8.93-.12.11,0-.17Zm.64,9.6c-1.35-.57-2.77-.07-4.14-.2-.62-.06-1.26.62-1.86-.1.37-1.18,1.24-.59,1.88-.75a5.66,5.66,0,0,1,4.12.33c.52.28,1.06-.1,1.78.06C1173.22,916.12,1172.71,916.47,1172.06,916.19Zm1-14.66c-.07,0-.22-.17-.24-.29a.53.53,0,0,1,.1-.44,2.62,2.62,0,0,1,.74-.39,3.6,3.6,0,0,1,2.38.38Zm3.47,14.46a1.07,1.07,0,0,1-.06-.19,2.36,2.36,0,0,1,.28-.12s0,.11.06.18Zm10.26-10.48c-.41,0-.81,0-1.22,0s-.74-.31-1-.71l.05,0a3.36,3.36,0,0,0-2.67-1.34,8.22,8.22,0,0,1-2.35-.6c-.25-.08-.52-.33-.74-.27-1.4.34-2.09-.72-2.78-1.85a2.11,2.11,0,0,1,1.4-.08,18.18,18.18,0,0,0,5.06.8,1.89,1.89,0,0,1,1.17.36,5.39,5.39,0,0,0,2.53.86c.46.1,1,0,1.36.39a3.5,3.5,0,0,0,2.3.72,5.42,5.42,0,0,1,2.35.6.41.41,0,0,1,.17.35.54.54,0,0,1-.26.34,2.12,2.12,0,0,1-1,.27A21,21,0,0,0,1186.82,905.51Zm15.29,28.28c-.63-.32-1.25-.68-1.85-1.06l-3-1.91.09-1-.5,1h0a3.71,3.71,0,0,1-1.57-.74.86.86,0,0,1-.19-1.06,2.69,2.69,0,0,1,.48-.78c.45-.53.85-.53,1.2.24.26.57.8.47,1,1a1.05,1.05,0,0,1,1.55.29c.86,1.26,1.76,2.44,3.12,2.81.26.08.3.48.21.82S1202.37,933.93,1202.11,933.79Zm.32,5.53c0-.11-.15-.27-.12-.36a.62.62,0,0,1,.51-.48c-.07.26-.14.52-.23.78C1202.58,939.3,1202.44,939.34,1202.43,939.32ZM1201,927.21a26.44,26.44,0,0,0-4.34-1.63c-1.89-1.56-4.32-1.28-6.31-2.59-.21-.13-.51,0-.76-.07V923a6.48,6.48,0,0,1-.77-.07.5.5,0,0,1-.43-.65.59.59,0,0,1,.61-.48,1,1,0,0,1,.39,0c1.73.57,3.59.45,5.24,1.42.64.37,1.43.06,2.06.53a8.18,8.18,0,0,0,2.35.93,7.88,7.88,0,0,1,3.49,1.71,2.51,2.51,0,0,0,1.59.67c1.41.17,2.35,1.41,3.45,2.24.1.07.1.45.07.67a.45.45,0,0,1-.42.41c-.47.06-.83-.27-1.22-.52A33.23,33.23,0,0,0,1201,927.21Zm2.41,18.34c.13,0,.15.15,0,.24s-.09,0-.14,0,0-.12,0-.14S1203.35,945.54,1203.39,945.55Zm-.8,3.11a2.63,2.63,0,0,1,.24-.58,1.58,1.58,0,0,1,.26.56,1.35,1.35,0,0,1-.17.63c0,.07-.29.06-.3,0A2,2,0,0,1,1202.59,948.66Zm-1.56,5.2c.19-.25.36-.8.67-.38.07.09-.11.59-.23.84a3,3,0,0,1-.51.69c-.07.07-.21,0-.32,0s-.09-.32-.05-.42A3.77,3.77,0,0,1,1201,953.86Zm-.67,6.74-.08,3.72-.45-.94a.64.64,0,0,0-.7-.42c-.6,0-.69-.28-.48-.93C1199,961,1199.49,960.3,1200.36,960.6Zm-6.25,1.17a50.06,50.06,0,0,1,2.84-5.21,9.32,9.32,0,0,0,1.44-2.85,2.18,2.18,0,0,1,.25.28c.56.85.56.85,0,1.85a1.55,1.55,0,0,0-.29.61c-.17,2.35-1.45,3.78-2.47,5.41-.32.51-.69,1-1.2,1a.8.8,0,0,1-.64-.23C1193.81,962.39,1194,962,1194.11,961.77Zm2,3.58a3,3,0,0,1-.39.81c-.05.08-.2.06-.3.09s-.19-.26-.18-.36a3.71,3.71,0,0,1,.25-.88c.12-.29.32-.56.54-.29A.93.93,0,0,1,1196.06,965.35Zm-6.52,7.39c-.06.06-.23,0-.28-.13a.78.78,0,0,1-.07-.44,1,1,0,0,1,.15-.44c1.33-1.56,2.67-3.13,4-4.62a1.44,1.44,0,0,1,.64-.39c.24-.09.46.07.58.37a.74.74,0,0,1-.17.84l-1.68,1.76h0l0,0h0C1191.88,971.24,1190.59,971.73,1189.54,972.74Zm15.41-2a.16.16,0,0,1-.16,0,1.15,1.15,0,0,1,0-1.07,1.33,1.33,0,0,1,.18-.42c.07-.11.2-.24.28-.22s.14.19.18.33a3.48,3.48,0,0,1,0,.47A1.2,1.2,0,0,1,1205,970.7Zm1.26-.42,0-.19.09.12Zm6-1-.15,1.05a1.26,1.26,0,0,1-.32.21c-.15,0-.21-.08-.15-.26a.18.18,0,0,1,.15-.09,2.92,2.92,0,0,1,.31.14l.15-1.09a1.33,1.33,0,0,1,.11-1.7c.43-.59.85-.57,1.54,0A5,5,0,0,0,1212.21,969.29Zm.62-8.89c0-.35.16-.6.45-.56a.4.4,0,0,1,.18.54.83.83,0,0,1-.38.45C1212.88,960.9,1212.81,960.66,1212.83,960.4Zm.79,13.48a1.55,1.55,0,0,1,.76-1.49A4.87,4.87,0,0,1,1213.62,973.88Zm.7-8a.51.51,0,0,1-.23-.6,21.28,21.28,0,0,1,1.32-2c.12-.15.35,0,.36.3a2.58,2.58,0,0,1-1.34,2.3A.14.14,0,0,1,1214.32,965.87Zm1.89,4.37c-.61.64-1,1.68-1.77,2a3.48,3.48,0,0,1,.08-1.09c.38-.94.83-1.83,1.28-2.72.07-.14.3-.18.45-.18s.14.23.16.37A2,2,0,0,1,1216.21,970.24Zm3.61-21.52c-.11.72-.24,1.46-.33,2.16a2.39,2.39,0,0,1-.7,1.73c-.32.29.06.4.26.48a17.25,17.25,0,0,1,0,1.9c-.16,1.76-1,3.23-1.48,4.86a2.25,2.25,0,0,1-.83,1c-.44.34-.81,0-1.14-.29s-.2-.62-.1-1.07c.17-.79.25-1.61.35-2.41a1.23,1.23,0,0,0-.38-1.23c-.8-.62-1.62-1.22-2.66-.9v0a4.84,4.84,0,0,0-.65,2.06,2.63,2.63,0,0,1-.74,1.95,5.37,5.37,0,0,0-1.26,3,7.87,7.87,0,0,1-.78,2.8,10.59,10.59,0,0,1-2.41,3.11h0a1.45,1.45,0,0,1-.15-1.45q1-2.52,2.11-5.06a10.57,10.57,0,0,0,.56-1.58,1.84,1.84,0,0,0-.09-1.39c-.3-.42-.65-.06-1,.13a6.46,6.46,0,0,0-2.73,2.87,9.2,9.2,0,0,1-1.82,2.51c-1.25,1.18-2.49,2.41-3.72,3.63-.25.24-.53.56-.79.59-.71.08-1.19.72-1.69,1.31a26.73,26.73,0,0,1-4.86,4.12.86.86,0,0,1-.5.2.73.73,0,0,1-.42-.31.61.61,0,0,1,0-.66,7,7,0,0,0,1.2-2.41,2.46,2.46,0,0,0,1.63-1.27,1.78,1.78,0,0,1,.52-.66,14.6,14.6,0,0,0,3.28-3.44c.56-.71,1.11-.92,1.75-.65h0c-.38.66-.75,1.33-1.13,2a.55.55,0,0,0,0,.65c.16.15.33,0,.47-.15a1.52,1.52,0,0,0,.24-.38,18.77,18.77,0,0,1,1.41-2.67c.5-.86,1-1.69,1.47-2.61.83-1.82,1-3.42.66-6.19-.2.25-.39.46-.57.69s-.34.5-.52.74-.4.48-.64.3-.18-.55,0-.84c1.47-3.46,2.48-7.17,3.66-10.78.15-.45.27-1.11.67-1.09.57,0,.23.75.27,1.17a10.88,10.88,0,0,1-1,5,23.66,23.66,0,0,0-.77,2.29c-.13.41-.12.91.17,1.08.73.41.57,1,.22,1.75-.17.38-.52.93-.07,1.22.28.18.48-.4.68-.7a7.06,7.06,0,0,0,.43-.82,43.74,43.74,0,0,0,3.31-7.61.71.71,0,0,1,.41-.42c.21-.05.24.26.3.47.1.38-.26,1.05.31,1.14a13.48,13.48,0,0,0,1.31-5.18c0-.72,0-1.52.68-1.94l0,.06c.21-.18.41-.46.63-.51.61-.13.94.31.92,1a13.8,13.8,0,0,1-1.68,6.52,11.1,11.1,0,0,0-1.1,3.94.88.88,0,0,0,.16.62c.11.1.35,0,.49-.06s.52-.47.79-.69.41,0,.62.17c.43.32.8.05.91-.6.18-1.05,0-2.09.24-3.17.6-3,1.08-6.13,1.71-9.17.19-.89.1-2,.87-2.64.34-.27.63.33,1.14,2.34h0c-1,1.1-1.18,1.8-.52,2.25.92.62,1,1.6.91,2.79,0,.65-.06,1.3-.07,1.95s.22.86.64.94C1220,947.46,1220,947.48,1219.82,948.72Zm-13.68,3.6c-.06.27-.21.39-.39.37a.32.32,0,0,1-.17-.26c0-.25.19-.4.37-.38S1206.08,952.23,1206.14,952.32Zm20.22-1.93a1.79,1.79,0,0,1-.45.11c-1-.07-1.4-.88-1.91-1.64-1.38-2.05-2.57-4.37-4.23-6.12a1.05,1.05,0,0,1-.27-1.25,2.46,2.46,0,0,0,.1-2.08.57.57,0,0,1,.11-.41.31.31,0,0,1,.34,0,4.67,4.67,0,0,1,.93,1,6.61,6.61,0,0,0,1.68,2c.78.61.7,1.92,1.29,2.71s1,2,1.58,3a19.27,19.27,0,0,1,1.08,2.08A.5.5,0,0,1,1226.36,950.39Zm1.23-59.56c-.15.11-.24,0-.23-.16,0,0,.08-.14.12-.14s.09.06.14.1S1227.62,890.8,1227.59,890.83Zm24.63,27,0-.19A.4.4,0,0,1,1252.22,917.84Zm-.27.68-.14-.57.33.07Zm-.13-1.23c.18-.16.31,0,.41.18,0,0,0,0,0,0l-.44.39v0C1251.71,917.68,1251.64,917.45,1251.82,917.29Zm-4.13-13.19c-.19-.06-.19-.25-.19-.43l.21.23S1247.7,904,1247.69,904.1Zm-8.51-8.17s.13,0,.14.07,0,.27-.16.29-.13,0-.15-.07A.19.19,0,0,1,1239.18,895.93Zm-2.87-4.57c.36.35.43.94.13.94s-.5-.21-.59-.52a7.18,7.18,0,0,1-.14-.83A3.18,3.18,0,0,1,1236.31,891.36Zm-3.67,3.57a.41.41,0,0,1-.37-.42.37.37,0,0,1,.06-.21.35.35,0,0,1,.52-.09,7.44,7.44,0,0,1,.67.7A8.55,8.55,0,0,1,1232.64,894.93Zm21.76,44.15a.65.65,0,0,1,0-.66c.2-.2.34,0,.38.22s.12.71.17,1.06A1,1,0,0,1,1254.4,939.08Zm1.88-9.69c0,.29-.43.62-.58.44-1-1.15-2.43-1.74-2.88-3.61-.18-.76-1-.62-1.13-1.39l-.39-2.33a2.73,2.73,0,0,0-.26-.61l-1.16-2.36,0,.06c-.74-1.51-1.55-3-2.22-4.54a21.23,21.23,0,0,0-2-3.66,6,6,0,0,1-1.4-3.22,1.7,1.7,0,0,0-.3-.85c-.52-.77-1.08-1.48-1.62-2.23-1-1.38-2.35-2.32-3.45-3.59a44.07,44.07,0,0,0-4-4,12.45,12.45,0,0,1-.89-.89,2.12,2.12,0,0,1-.52-1.66c1.92,1.5,3.8,3,5.74,4.48,1.14.84,1.84,2.34,3.11,3,.41.93,1.54,1.1,1.73,2,.32,1.56,1.39,2.12,2.06,3.17a8.07,8.07,0,0,0,.85.9c.55.62.38,1.22-.47,1.73a2.66,2.66,0,0,0-.39.41,2.44,2.44,0,0,1,1.58,2.09,4.38,4.38,0,0,0,.56,1.2c.82,1.44,1.63,2.86,2.46,4.3a.74.74,0,0,0,1.11.36l0,0c.81.14,1.3.7,1.55,1.71a12,12,0,0,0,1,3c1,1.63,1,3.82,1.82,5.56A1.25,1.25,0,0,1,1256.28,929.39Z" transform="translate(-1113.96 -873.64)"></path><path class="cls-1" d="M1215.43,975l0,0v0Z" transform="translate(-1113.96 -873.64)"></path><path class="cls-1" d="M1189.86,1010.71c-.6,1.08-1.34,1.46-2.14,1.34s-1.5,1.19-2.31,1.47c0,0-.1.12-.1.17,0,1.47-.82,2.09-1.27,3.08s-.94,1.84-1.35,2.83a7.13,7.13,0,0,1-1.33,2.1c-.5.58-.94,1.31-1.41,2-.21.3-.44.41-.65.08a1.21,1.21,0,0,1,.13-1.27,1.31,1.31,0,0,1,.28-.2.5.5,0,0,0,.19-.56,6.6,6.6,0,0,1-.4-2c-.09-.7-.52-1-.93-.66-.14.1-.34.21-.38.39-.41,1.74-1.47,2.26-2.15,3.44-.46.78-1,.92-1.56,1.39a.33.33,0,0,1-.42,0c-.8-.88-1.58,0-2.36.26a.31.31,0,0,1,0-.08v0c-.84.42-.45,1.76-.76,2.81.53-.19.86-1,1.33-1,.2,0,.4.1.42.48a1,1,0,0,1-.18.61c-.84.87-1.71,1.56-2.67,1.14-.77-.35-1.48,0-2.11.82a2,2,0,0,1-1.55.94,1.64,1.64,0,0,0-.82.21,2.27,2.27,0,0,1-2.66-.15c-.07,0-.17.07-.26.12l0,.11,0-.17c-1.1.48-2.12-.27-3.18-.58a12.06,12.06,0,0,0-2.13-.7.83.83,0,0,1-.4-.11c-1.94-1.4-4-1.72-6-2.67a7.33,7.33,0,0,1-.78-.5c-.7-.45-1.37-.92-2.06-1.27-3.11-1.55-6.27-3.72-9.43-5.66-1.76-1.09-3.49-2.89-5.3-3.8a8.4,8.4,0,0,1-2.37-2,19,19,0,0,0-3.69-2.9c-.1-.07-.27.05-.35.18a.88.88,0,0,0,0,.67,9.78,9.78,0,0,0,1.36,2.55,79.78,79.78,0,0,0,6.28,7.91c1.6,1.67,3.15,3.71,4.82,4.79.13.09.25.25.38.3a10.45,10.45,0,0,1,2.76,1.8c.91.78,1.8,1.66,2.7,2.41.45.37.91.6,1.37.93,1.23.9,2.42,1.76,3.65,2.7l3.63,2.82a11.3,11.3,0,0,1,2,2.1c.82,1.07,1.69,2,2.75,1.35.52-.29,1,.2,1.35,1.06a8.55,8.55,0,0,1,.53,2,2.67,2.67,0,0,0,1.11,2.13,5.37,5.37,0,0,1,2.25,2.48,1.78,1.78,0,0,0,.87,1,2.6,2.6,0,0,1,1.22,1.2c.34.54.71.67,1.17.5s.73-.43.88-1.24c.24-1.27.74-1.54,1.35-1.39a8.18,8.18,0,0,0,1,.17c.13,0,.27-.16.28-.45a1.48,1.48,0,0,0-.06-.67c-.34-.49-.71-.88-1-1.32a.71.71,0,0,1-.13-.62.48.48,0,0,1,.19-.29c.17-.1.35-.12.51-.22.65-.34.68-.42.5-1.68-.14-.94,0-1.46.54-1.54a1.1,1.1,0,0,1,.54,0,5.56,5.56,0,0,1,3.13,2.72c.26.53.56,1,1,.83.63-.19,1.1.13,1.4,1.22.15.58.54.56.78-.08.41-1.08,1-1.38,1.58-1.28,1.06.16,2.11-.54,3.17-.6.34,0,.4-.44.43-1,.08-1.23.29-1.6,1-1.84a3.6,3.6,0,0,0,1.36-.83.84.84,0,0,0,0-1.15,1.78,1.78,0,0,0-.61-.44,2.58,2.58,0,0,1-1.34-1c-.4-.6-.89-.7-1.43-.11a3.11,3.11,0,0,1-.81.58c-.06,0-.18-.05-.23-.15a.7.7,0,0,1,0-.43,2.12,2.12,0,0,1,.26-.61,13.62,13.62,0,0,0,1.71-3.55,2.39,2.39,0,0,1,1.21-1.4c.4-.25.52-.7.45-1.38,0-.32-.14-.59-.18-.91a3.3,3.3,0,0,1,.65-2.62,2,2,0,0,1,.25-.31,8,8,0,0,0,2.42-4.17,2.29,2.29,0,0,1,.28-.59c.2-.31.72-.19.57-.9-.08-.37-.45-.13-.69-.16a1.15,1.15,0,0,1-.45-.07c-.51-.3-.83.06-1.15.81s-.73,1.45-1.11,2.16a.23.23,0,0,1-.27.08c-.16-.08-.19-.35-.11-.58a10,10,0,0,0,.84-2.7.9.9,0,0,1,.56-.8,4.07,4.07,0,0,1,.74-.26.85.85,0,0,0,.6-.71c.52-2.43,1.68-4.34,2.4-6.61.15-.46.36-.87.51-1.32s.34-.83.13-1.14S1190.06,1010.35,1189.86,1010.71ZM1177.68,1026a2.78,2.78,0,0,1-.93,1.54c-.53.39-1.07.72-1.6,1.12a2.2,2.2,0,0,1-1.39.45c-.08,0-.19,0-.26-.07a.83.83,0,0,1-.16-.34.39.39,0,0,1,0-.21c.14-.23.29-.44.44-.65,1.06-1.46,2.42-1.48,3.61-2.45.06,0,.19.07.23.18A.7.7,0,0,1,1177.68,1026Zm2.63,7.54c-.43.49-1,.54-1,.1,0-.62.31-.8.49-1.16a1.68,1.68,0,0,1,.89-.85c.17-.07.27.05.3.34A2.36,2.36,0,0,1,1180.31,1033.53Zm4-12.07c-.46,1.13-.9,2.27-1.38,3.36a10.67,10.67,0,0,1-1.65,2.62c-.19.22-.38.22-.5-.1a1,1,0,0,1,.09-.88.46.46,0,0,1,.11-.18,11.1,11.1,0,0,0,2-3.38c.35-.73.74-1.41,1.12-2.11,0,0,.09,0,.13,0a.69.69,0,0,1,.07.19A1.82,1.82,0,0,1,1184.32,1021.46Zm1.83-2.12-.08-.13.18-.29s.06.08.09.12S1186.22,1019.24,1186.15,1019.34Z" transform="translate(-1113.96 -873.64)"></path><path class="cls-1" d="M1140,984.59h0l.28-.05c-.13-.25-.19,0-.28,0h0v0Z" transform="translate(-1113.96 -873.64)"></path><path class="cls-1" d="M1125.51,969.61l0-.05h0v.07h0Z" transform="translate(-1113.96 -873.64)"></path><path class="cls-1" d="M1148,981.37l0,0a.09.09,0,0,1,0,0Z" transform="translate(-1113.96 -873.64)"></path><path class="cls-1" d="M1126.58,973.87a1.13,1.13,0,0,1,.8.88,1.67,1.67,0,0,0,1.06,1.42c.92.53,2,.79,2.65,2.22.09.2.41.27.62.29a6.42,6.42,0,0,1,2.58,1,4,4,0,0,0,2.43.58c.91-.09,1.7.58,2.52,1a.84.84,0,0,1,.14,1.17c-.16.2-.36.32-.51.53a.91.91,0,0,0,.17,1,7,7,0,0,0,.91.53c.51-1.33,1.33-1.54,2.28-1.08a8.27,8.27,0,0,1,1.19.73.65.65,0,0,1,.12.41c0,.12-.12.29-.2.3a4,4,0,0,1-.77,0h0c.34.6.82.79,1.15.38,1.06-1.32,2.21-.58,3.33-.22,2,.69,4,1.93,6.07,2.08a1.77,1.77,0,0,1,1.26.8l-.39.6,0,0,.38-.61,0,0a.75.75,0,0,1,.76-.17l2.45,1a2.28,2.28,0,0,0,1.61.06,5.12,5.12,0,0,0-2.34-1.64,40.37,40.37,0,0,0-7.44-3,5.23,5.23,0,0,1-1.7-1.33c-.6.12-1.14-.31-1.71-.47-.78-.22-1.55-.56-2.33-.86a.56.56,0,0,1-.3-.51c0-.24.28-.59.46-.52a1.16,1.16,0,0,1,.45.24,1.23,1.23,0,0,0,1.51.47c.17-.07.4.14.61.22l0-.07a2.68,2.68,0,0,0,1.62.43c0-.14,0-.28,0-.42-.72,0-1.26-1-2-1-.07,0-.22-.19-.23-.3-.07-1.42-.9-1.52-1.51-2a28.49,28.49,0,0,1-3.48-2.54.9.9,0,0,0-.31-.21,19.18,19.18,0,0,1-3.07-1.48,28.26,28.26,0,0,1-3-1.92,3.29,3.29,0,0,0-1-.41.67.67,0,0,0-.89.41,2,2,0,0,0,.41,1.76,2.72,2.72,0,0,0,.63.41,1.55,1.55,0,0,1,.86.8c.39,1,.76,1.77,1.48.71a2.58,2.58,0,0,1,2.59,1.38,1.68,1.68,0,0,1,.07.48l0,0,.06.61h0l0,0-.07,1.09c-.2.08-.41.25-.59.18a6.78,6.78,0,0,1-4.37-3.42c-.45-.89-.9-1.49-1.67-1.46a1.11,1.11,0,0,1-.63-.36,22.35,22.35,0,0,0-2.65-2c-.91-.57-1.83-1.06-2.77-1.57a.8.8,0,0,1-.4-.88,5.24,5.24,0,0,1-3.16-1.09l-3.53-2a.79.79,0,0,0-.52-.13.61.61,0,0,0-.42.32.9.9,0,0,0,.06.9c.78.8,1.36,1.91,2.32,2.46,1.56.88,3,2,4.55,3A12.46,12.46,0,0,0,1126.58,973.87Zm12.27,5.18a2.19,2.19,0,0,0,2.21-.87c.06-.09.3.09.45.15l0-.07c0,.14-.1.27-.13.42-.38,1.87-.37,1.83-1.65,1.2a6.43,6.43,0,0,1-1.17-.75A.7.7,0,0,1,1138.85,979.05Zm-6.35-3.63,0,0,0,0Z" transform="translate(-1113.96 -873.64)"></path><path class="cls-1" d="M1148,981.79h0v0Z" transform="translate(-1113.96 -873.64)"></path><path class="cls-1" d="M1183,1010.73v-.1l0,0Z" transform="translate(-1113.96 -873.64)"></path><path class="cls-1" d="M1173.66,1016c-.19-.31-.41-.53-.64-.17a7.35,7.35,0,0,1-1.41,1.48c.44.64.75,0,1.06,0,.09,0,.22.08.25.18a1.57,1.57,0,0,1,0,.67c-.84,1.51-1.49,3.41-2.81,3.81a2.26,2.26,0,0,0-.94.64c-.31.32-.85.53-.77,1.27s.58.7.93.89.72.06,1.06-.36a10.26,10.26,0,0,1,1.88-1.9,6,6,0,0,0,1.42-2.2c.71-1.52,1.45-3,2.21-4.49a3.51,3.51,0,0,1,.56-.84.33.33,0,0,1,.55,0,.93.93,0,0,1,.09.87,3.16,3.16,0,0,1-.16.43c-.29.74-.3.76.1,1.33l-.38.58,0,.06.39-.59,0-.05c.57-.15,1-.77,1.47-1.28a10.23,10.23,0,0,1,.88-1,4.66,4.66,0,0,0,1.67-3.88,2.53,2.53,0,0,1,.27-1.15,22.89,22.89,0,0,0,1.75-4.19,2.55,2.55,0,0,1,.59-.75,4.21,4.21,0,0,1-.17,2.5,7.8,7.8,0,0,0-.5,2.75,3.22,3.22,0,0,0,1-1.77c.34-1.24.8-2.42,1.06-3.69a5.47,5.47,0,0,1,1.15-2.66c.76-.86,1.15-2.24,1.89-3.19a5.8,5.8,0,0,0,.51-2.06.75.75,0,0,0-.23-.53c-.13-.14-.35-.05-.42.19a6.78,6.78,0,0,1-1.28,2.3c-.4.53-.79.45-1.06-.2a7,7,0,0,1-.27-.85,4.85,4.85,0,0,0-.25-.86c-.27-.45-.49-1.16-1-1s-.58,1-.6,1.61c-.12,2.9-1.28,5.1-2.22,7.44-.18.44-.38.4-.62-.2-.17-.43-.37-.52-.63-.31a4.49,4.49,0,0,0-1.32,2.15A13.59,13.59,0,0,1,1176,1012a5.64,5.64,0,0,0-1.09,2.1,16.2,16.2,0,0,1-.64,1.7C1174.13,1016.2,1173.88,1016.33,1173.66,1016Zm10.84-13.11s0,.1,0,.15-.14.08-.13-.1C1184.4,1002.89,1184.48,1002.84,1184.5,1002.86Zm-7.53,9.51a1.28,1.28,0,0,1,.25-.3,2.92,2.92,0,0,0,1.14-1.61.21.21,0,0,1,.27-.09c.07,0,.09.24.15.4a5.67,5.67,0,0,1-1.21,3.09.44.44,0,0,1-.79-.17A1.45,1.45,0,0,1,1177,1012.37Zm-1.19,1.66-.08.16,0-.17Z" transform="translate(-1113.96 -873.64)"></path><path class="cls-1" d="M1155.88,946.68c2.56,2,4.95,4.3,7.47,6.17a3.85,3.85,0,0,0,1.21.41c1.26.46,2.61.7,3.53,2.18h0a18.81,18.81,0,0,1,2.91,1.13c2.41,1.08,4.82,2.12,7.42,1.94a21.74,21.74,0,0,1,4.26-.27c.26,0,.57-.22.83-.41a1,1,0,0,0,.08-1.28c-.51-.58-1.09-1-1.78-.78-1.91.69-3.66,0-5.4-.85a38.46,38.46,0,0,0-4.41-2,14.31,14.31,0,0,1-1.82-1l-5.55-3c-.9-.48-1.77-1.06-2.67-1.56a14.25,14.25,0,0,0-1.72-.83c-.89-.34-1.8-.59-2.69-.92a2.39,2.39,0,0,0-1.46-.16.73.73,0,0,0-.43.38A.67.67,0,0,0,1155.88,946.68Z" transform="translate(-1113.96 -873.64)"></path><path class="cls-1" d="M1172.84,991.17a1.39,1.39,0,0,0-.78.09,5.31,5.31,0,0,1-4.25.21,23.35,23.35,0,0,0-6-1,2.6,2.6,0,0,1-.47-.09l0,.06-.62-.42v-.06h-.4l0,.06c-.19.14-.38.28-.58.4s-.6.15-.6.62c0,.76.45.43.72.5.66.15,1.33.29,2,.4.39.06.62.17.75.9s1.6.86,2.08.47.69-.7,1.13-.57c0,.16,0,.32,0,.47-.1.58,0,1,.39,1.07a5.38,5.38,0,0,0,2.35-.19c1.45-.54,2.8-1.58,4.25-2.2a.51.51,0,0,0,.15-.37C1173,991.38,1172.91,991.17,1172.84,991.17Zm-6.51,1.74-.36-.18.41-.05s.13,0,.13,0S1166.46,993,1166.33,992.91Z" transform="translate(-1113.96 -873.64)"></path><path class="cls-1" d="M1117,960.43c.76.39,1.43,1.16,2.16,1.54,1.91,1,3.64,2.55,5.54,3.4a17.53,17.53,0,0,1,2,1.26c.17.1.34,0,.45-.19a1.31,1.31,0,0,0,0-.28,3.75,3.75,0,0,0-.28-.57,7.57,7.57,0,0,0-2.57-2.37,2.19,2.19,0,0,1-1.25-2,2.13,2.13,0,0,0-.64-1.2,8.11,8.11,0,0,0-2.21-1.92c-1.14-.71-1.27-.66-2,.79-.27.58-.63.57-1.08.36-.23-.11-.52-.23-.61.18A.89.89,0,0,0,1117,960.43Z" transform="translate(-1113.96 -873.64)"></path><path class="cls-1" d="M1173.83,979.58c.93-.57,1.84-1.21,2.78-1.81a2.14,2.14,0,0,0,.9-1.08.81.81,0,0,0,0-.46c0-.12-.17-.16-.27-.21a.26.26,0,0,0-.17,0c-1.13.48-2.28.89-3.38,1.48a6.63,6.63,0,0,1-2.1.78,13.22,13.22,0,0,1-5.13-.1,4.27,4.27,0,0,0-2,0,.41.41,0,0,0-.23.29.69.69,0,0,0,.07.43,5.19,5.19,0,0,0,3.75,2.06,32.13,32.13,0,0,0,4.47-.77A6.66,6.66,0,0,0,1173.83,979.58Z" transform="translate(-1113.96 -873.64)"></path><path class="cls-1" d="M1128.27,970.88c.29.12.62.17.76-.24a.93.93,0,0,0-.38-1,33.75,33.75,0,0,0-5.24-3.9c-1.4-.85-2.81-1.68-4.22-2.58-.57-.36-.91-.07-1.25.36a.89.89,0,0,1,.33.18,48.73,48.73,0,0,0,6.81,5.47,2.87,2.87,0,0,1,.39.39,4.33,4.33,0,0,1,2.32,1A1.7,1.7,0,0,0,1128.27,970.88Z" transform="translate(-1113.96 -873.64)"></path><path class="cls-1" d="M1178.59,999.07c.23.29.35.19.5-.1a6,6,0,0,0,.81-3.19,5.22,5.22,0,0,0-.05-1.68c-.07-.18-.23-.36-.36-.37a.47.47,0,0,0-.39.31,10.59,10.59,0,0,1-.85,2.69c-.29.69-.67,1.17-1.2.75s-.69.07-1,.51c-.36.6-.48,1.5-1,1.84a1.08,1.08,0,0,0-.51,1.12c0,.44.85.92,1.18.74a1.53,1.53,0,0,0,.84-1.05,5.82,5.82,0,0,1,.6-1.47C1177.62,998.32,1178,998.28,1178.59,999.07Z" transform="translate(-1113.96 -873.64)"></path><path class="cls-1" d="M1167.24,1025.25a1.51,1.51,0,0,0,.19-.63.35.35,0,0,0-.28-.41,1.8,1.8,0,0,0-1.25.29,2.24,2.24,0,0,1-1.94.27,1.15,1.15,0,0,0-1.09.12,1.06,1.06,0,0,1-1.19.08c-.57-.31-1,.19-1.55,1.11a4.41,4.41,0,0,0,1.89.39c1.56-.38,3.22-.63,4.84-1A.59.59,0,0,0,1167.24,1025.25Z" transform="translate(-1113.96 -873.64)"></path><path class="cls-1" d="M1168.2,1018.29a.64.64,0,0,0,0,.07h0Z" transform="translate(-1113.96 -873.64)"></path><path class="cls-1" d="M1168.17,1020.22a1.28,1.28,0,0,0,.56-.89,1.32,1.32,0,0,1-.51-1c-.42,0-.71.41-.93,1s-.59,1-1,.85c-1.18-.35-2.08.9-3.06,1.62a.76.76,0,0,0-.09.4c0,.12.12.27.19.28a1.93,1.93,0,0,0,.83,0,13.42,13.42,0,0,0,3.45-1.43v.06A1.08,1.08,0,0,1,1168.17,1020.22Z" transform="translate(-1113.96 -873.64)"></path><path class="cls-1" d="M1170.88,933.84l.31-.13-.32.12h0Z" transform="translate(-1113.96 -873.64)"></path><path class="cls-1" d="M1173.41,930.59l0,0,.06,0h0l0,0,0,0h0Z" transform="translate(-1113.96 -873.64)"></path><path class="cls-1" d="M1169.08,930.59a1.15,1.15,0,0,0-.83,1.19c0,.54.06,1,.52,1.14.71.27,1.56,0,2.1.9.34-.36.79-.78,1.15-.46.67.58,1.24.3,1.88,0a1.83,1.83,0,0,1,.66-.11v.06l.07-.06c-.16.5-.18,1.19.26,1.18,1.11,0,2.22.53,3.32-.09,0,0,.08-.1.12-.16a4.74,4.74,0,0,0-3.74-1.44v-.05h0v.05c-1.55.22-3-.69-4.56-.64.07-.75.51-.76.81-.83a10,10,0,0,1,1.54-.12,1.15,1.15,0,0,0,1-.5A6.44,6.44,0,0,0,1169.08,930.59Z" transform="translate(-1113.96 -873.64)"></path><path class="cls-1" d="M1194.59,943.11l0-.06,0,0Z" transform="translate(-1113.96 -873.64)"></path><path class="cls-1" d="M1190.28,942.66a2.38,2.38,0,0,0,1,2c1.33.57,2.35-.08,3.21-1.52a9.35,9.35,0,0,0-3.69-.89A.48.48,0,0,0,1190.28,942.66Z" transform="translate(-1113.96 -873.64)"></path><path class="cls-1" d="M1192.31,1013.52s0-.06,0-.09l0,0Z" transform="translate(-1113.96 -873.64)"></path><path class="cls-1" d="M1194.54,1007.53a.87.87,0,0,0-.69.58,3.39,3.39,0,0,0-.3,2.11h0a6.35,6.35,0,0,0-1.22,3.21c.28-.2.58-.53.84-.49.85.14,1.15-.77,1.33-1.75s.19-2.09.42-3.13C1195,1007.7,1194.78,1007.52,1194.54,1007.53Zm-.74,3.07c-.18,0-.17-.17-.19-.34a1,1,0,0,1,.2.15S1193.81,1010.59,1193.8,1010.6Z" transform="translate(-1113.96 -873.64)"></path><path class="cls-1" d="M1156.86,1012a7.57,7.57,0,0,0-1.58-.38c-.47-.09-.94-.1-1.42-.19s-1-.23-1.55-.35l-.13.36c.16.19.31.48.48.55,1.27.5,3.8,1.43,5.75.67C1157.87,1012.08,1157.34,1012.19,1156.86,1012Z" transform="translate(-1113.96 -873.64)"></path><path class="cls-1" d="M1160.11,1020.36c-.49,0-.64.43-.48,1.29a5.79,5.79,0,0,0,.23.89c.14.38.38.65.59.4.62-.79,1.1-.33,1.56.41l.4-2.09C1161.07,1020.29,1161.07,1020.29,1160.11,1020.36Z" transform="translate(-1113.96 -873.64)"></path><path class="cls-1" d="M1181.22,997.47c.06.24.07.44.14.5s.22,0,.28-.07c.42-.65.84-1.3,1.24-2a5.09,5.09,0,0,0,.45-1,1.25,1.25,0,0,0-.34-1.21c-.27-.18-.55-.09-.72.28A14.29,14.29,0,0,0,1181.22,997.47Z" transform="translate(-1113.96 -873.64)"></path><path class="cls-1" d="M1187.62,936.32c-.37,0-.9-.05-1,.41-.19.68.39.63.7.79a4.33,4.33,0,0,1,1.2.59,2.78,2.78,0,0,0,2.48.64c.23,0,.57.07.54-.43,0-.18-.21-.37-.36-.49a1.71,1.71,0,0,0-1.26-.26,1.2,1.2,0,0,1-1.19-.52l0,.06C1188.38,936.82,1188.09,936.33,1187.62,936.32Z" transform="translate(-1113.96 -873.64)"></path><path class="cls-1" d="M1156,1021.12l0,0v0Z" transform="translate(-1113.96 -873.64)"></path><path class="cls-1" d="M1155.72,1020.1a12.36,12.36,0,0,0-2.18.2c-.27,0-.76-.44-.75.42,0,.59.5.72.79.77.58.09,1.16.11,1.74.24.21,0,.45-.35.67-.57C1156.1,1020.64,1156.09,1020.11,1155.72,1020.1Z" transform="translate(-1113.96 -873.64)"></path><path class="cls-1" d="M1188.14,1010.84a.33.33,0,0,0,.43,0,3.07,3.07,0,0,0,.75-2.44,7.16,7.16,0,0,0,.08-.89c0-.45-.32-.77-.69-.68a.66.66,0,0,0-.48.82,6.33,6.33,0,0,1-.28,2.64A.81.81,0,0,0,1188.14,1010.84Z" transform="translate(-1113.96 -873.64)"></path><path class="cls-1" d="M1175,895.26c1.24,0,2.43.61,3.65,0,.1,0,.17-.23.25-.35s-.1-.34-.18-.37a1.26,1.26,0,0,0-.61-.06,1.23,1.23,0,0,1-1.51-.88c-.22-.61-.65-.53-1.06-.29a1.37,1.37,0,0,0-.77,1.55C1174.8,895.05,1174.91,895.26,1175,895.26Z" transform="translate(-1113.96 -873.64)"></path><path class="cls-1" d="M1180.42,932.83a13.34,13.34,0,0,1,2.56.81c.62.32,1.35,0,2.24-.41a3.64,3.64,0,0,0-2.08-.81,31.09,31.09,0,0,1-3.72-.64h0A1.42,1.42,0,0,0,1180.42,932.83Z" transform="translate(-1113.96 -873.64)"></path><path class="cls-1" d="M1170.59,894.77c.32-.15.72-.26.63-.81s-.62-1.06-.89-.84c-1.28,1.08-2.71.62-4.09.68a1.27,1.27,0,0,0-.38.17l0,.36,4.35.52A.77.77,0,0,0,1170.59,894.77Z" transform="translate(-1113.96 -873.64)"></path><path class="cls-1" d="M1180.2,938.87a.32.32,0,0,0,.24.47c.72.14,1.46.15,1.9,1.12.09.19.44.21.67.2.56,0,1.11-.09,1.66-.15.19,0,.41-.13.36-.42,0-.13-.28-.21-.45-.26s-.24,0-.39,0a1.71,1.71,0,0,1-1.38-.3,16.15,16.15,0,0,0-2.29-.84A.32.32,0,0,0,1180.2,938.87Z" transform="translate(-1113.96 -873.64)"></path><path class="cls-1" d="M1150.07,1000.81c-.74-.59-1.37-1.11-2-1.58-.22-.17-.47-.36-.72-.19a.21.21,0,0,0-.11.13,1.09,1.09,0,0,0,0,.4,5.11,5.11,0,0,0,.92.84,2.77,2.77,0,0,1,1,.93C1149.5,1001.81,1149.71,1001.33,1150.07,1000.81Z" transform="translate(-1113.96 -873.64)"></path><path class="cls-1" d="M1179.64,973.49c.11.46.36.64.63.4a5,5,0,0,0,1.64-2.45,6.82,6.82,0,0,1-1.82.82C1179.59,972.32,1179.47,972.77,1179.64,973.49Z" transform="translate(-1113.96 -873.64)"></path><path class="cls-1" d="M1126.4,975.61c-.61-.12-1.21-.19-2.05-.31a4.27,4.27,0,0,0,1.23,1.64.9.9,0,0,0,.81.21c.29-.1.45-.38.43-.84A.68.68,0,0,0,1126.4,975.61Zm-.14.71-.12-.09.13-.08Z" transform="translate(-1113.96 -873.64)"></path><path class="cls-1" d="M1195.47,954.16a.77.77,0,0,1,0-.15l-.06.12,0,0,0,0h0Z" transform="translate(-1113.96 -873.64)"></path><path class="cls-1" d="M1197.29,949.47a.24.24,0,0,0-.31,0,7.38,7.38,0,0,0-1.49,4.51l1.87-4.12A.51.51,0,0,0,1197.29,949.47Z" transform="translate(-1113.96 -873.64)"></path><path class="cls-1" d="M1175.89,1019.41l.24.06-.26-.06c.12.34.24.69.52.67.53,0,.73-.64.46-1.45a1.55,1.55,0,0,0-.14-.32C1176,1018.37,1176,1018.39,1175.89,1019.41Z" transform="translate(-1113.96 -873.64)"></path><path class="cls-1" d="M1176.71,1018.31l0-.06a.14.14,0,0,0,0,.06Z" transform="translate(-1113.96 -873.64)"></path><path class="cls-1" d="M1177.32,1052.56c-.2.09-.36.66-.29,1s.23.53.41.39a11.21,11.21,0,0,0,.92-1C1177.92,1052.54,1177.63,1052.41,1177.32,1052.56Z" transform="translate(-1113.96 -873.64)"></path><path class="cls-1" d="M1167.64,1027.52a.49.49,0,0,0,.18-.32c0-.3-.14-.35-.28-.36-.52,0-1,.34-1.44.86A1.36,1.36,0,0,0,1167.64,1027.52Z" transform="translate(-1113.96 -873.64)"></path><path class="cls-1" d="M1170.76,1018.43l-1.66,0-.3.91a12.2,12.2,0,0,0,1.48-.18C1170.48,1019.08,1170.75,1019,1170.76,1018.43Z" transform="translate(-1113.96 -873.64)"></path><path class="cls-1" d="M1168.8,1019.3h-.06v0l0,0Z" transform="translate(-1113.96 -873.64)"></path><path class="cls-1" d="M1166.12,932.52c.29,0,.54,0,.55-.32a1.25,1.25,0,0,0-.27-.6.89.89,0,0,0-1.56.23.55.55,0,0,0,.11.39.57.57,0,0,0,.34.18C1165.6,932.46,1165.91,932.49,1166.12,932.52Z" transform="translate(-1113.96 -873.64)"></path><path class="cls-1" d="M1172.63,1050c.18,1.49.34,1.74.92,1.4a.62.62,0,0,0,.19-.32.54.54,0,0,0-.09-.34C1173.32,1050.51,1173,1050.27,1172.63,1050Z" transform="translate(-1113.96 -873.64)"></path><path class="cls-1" d="M1172.61,1050l-.61-.09a.61.61,0,0,0,.62.09h0Z" transform="translate(-1113.96 -873.64)"></path><path class="cls-1" d="M1116.62,965.25c-.31-.09-.56.23-.53.67s.35.76.64.69.35-.33.35-.68A.68.68,0,0,0,1116.62,965.25Z" transform="translate(-1113.96 -873.64)"></path><path class="cls-1" d="M1150.42,1024c0,.45.24.66.48.67a.51.51,0,0,0,.34-.59c0-.53-.27-.59-.49-.58S1150.36,1023.53,1150.42,1024Z" transform="translate(-1113.96 -873.64)"></path><path class="cls-1" d="M1191.33,1015.88a7.76,7.76,0,0,0-.46,1,.87.87,0,0,0,.07.4c0,.05.09,0,.14.05a1.27,1.27,0,0,0,.76-.75.86.86,0,0,0-.11-.84C1191.59,1015.58,1191.43,1015.68,1191.33,1015.88Z" transform="translate(-1113.96 -873.64)"></path><path class="cls-1" d="M1178,919.44c0-.42-.5-.36-.81-.32a.62.62,0,0,0-.6.58,3.75,3.75,0,0,0,.71.15C1177.62,919.84,1178.1,920.05,1178,919.44Z" transform="translate(-1113.96 -873.64)"></path><path class="cls-1" d="M1114.71,967.79a2.77,2.77,0,0,0,.79,1.51.25.25,0,0,0,.31,0,.58.58,0,0,0,0-.41A2,2,0,0,0,1114.71,967.79Z" transform="translate(-1113.96 -873.64)"></path><path class="cls-1" d="M1181.11,935.31a.41.41,0,0,0,.29-.49.52.52,0,0,0-.51-.51.41.41,0,0,0-.39.4A.55.55,0,0,0,1181.11,935.31Z" transform="translate(-1113.96 -873.64)"></path><path class="cls-1" d="M1120.62,956.49a.73.73,0,0,0,.27-.52c0-.35-.39-.71-.67-.65a.49.49,0,0,0-.24.54C1120,956.31,1120.35,956.64,1120.62,956.49Z" transform="translate(-1113.96 -873.64)"></path><path class="cls-1" d="M1187.15,1031.09c-.26.07-.42.38-.51.79,0,.07,0,.2,0,.22s.17.18.23.14a1.11,1.11,0,0,0,.44-.89C1187.27,1031.25,1187.2,1031.07,1187.15,1031.09Z" transform="translate(-1113.96 -873.64)"></path><path class="cls-1" d="M1153.44,1023.79c-.18.06-.27.33-.31.65a.74.74,0,0,0,.07.39c.06.06.17,0,.23-.07a1,1,0,0,0,.21-.76C1153.58,1023.92,1153.5,1023.77,1153.44,1023.79Z" transform="translate(-1113.96 -873.64)"></path><path class="cls-1" d="M1171.49,976.35c.38-.23.75-.49,1.21-.81-.73-.4-1.09.23-1.49.68C1171.3,976.27,1171.42,976.39,1171.49,976.35Z" transform="translate(-1113.96 -873.64)"></path><path class="cls-1" d="M1171.2,976.21l0,.07.06-.06Z" transform="translate(-1113.96 -873.64)"></path><path class="cls-1" d="M1151.94,1024.29c0,.13.06.35.12.37.21.1.28-.18.31-.5,0-.13-.07-.35-.13-.37C1152,1023.71,1151.94,1024,1151.94,1024.29Z" transform="translate(-1113.96 -873.64)"></path><path class="cls-1" d="M1182.92,983.93c.07-.23,0-.48-.16-.47s-.38.27-.43.59c0,.11.08.24.12.37C1182.69,984.45,1182.84,984.23,1182.92,983.93Z" transform="translate(-1113.96 -873.64)"></path><path class="cls-1" d="M1148.49,987.62a.52.52,0,0,0-.2-.32c-.37-.26-.69-.07-1,.22.34.14.68.28,1,.39C1148.37,987.93,1148.49,987.72,1148.49,987.62Z" transform="translate(-1113.96 -873.64)"></path><path class="cls-1" d="M1147.27,987.55l0,0h0l0-.14,0,.12h0Z" transform="translate(-1113.96 -873.64)"></path><path class="cls-1" d="M1156.89,990.05c-.08,0-.17.05-.26.08s0,.36.07.4c.26.18.52.32.78.47C1157.36,990.57,1157.2,990.18,1156.89,990.05Z" transform="translate(-1113.96 -873.64)"></path><path class="cls-1" d="M1157.54,991l0,0-.07,0,0,0,0,0Z" transform="translate(-1113.96 -873.64)"></path><path class="cls-1" d="M1186.53,1010c0,.07.1.26.16.27.21,0,.37-.14.47-.48-.06-.09-.1-.26-.16-.26C1186.79,1009.56,1186.6,1009.67,1186.53,1010Z" transform="translate(-1113.96 -873.64)"></path><path class="cls-1" d="M1189.84,1019.93c-.15,0-.29.13-.33.37a.32.32,0,0,0,.14.27c.14,0,.27-.12.34-.37C1189.94,1020.11,1189.9,1019.94,1189.84,1019.93Z" transform="translate(-1113.96 -873.64)"></path><path class="cls-1" d="M1153,989.55c.07.08.14.22.22.24s.34-.16.47-.37a2.64,2.64,0,0,0-.52-.13C1153.08,989.28,1153,989.46,1153,989.55Z" transform="translate(-1113.96 -873.64)"></path><path class="cls-1" d="M1179.36,1053c-.1-.09-.16,0-.16.17a.26.26,0,0,0,.06.17.51.51,0,0,0,.22.13.43.43,0,0,0,.24-.06,1.3,1.3,0,0,0-.15-.23A1.18,1.18,0,0,0,1179.36,1053Z" transform="translate(-1113.96 -873.64)"></path><path class="cls-1" d="M1180.54,919.79s0-.15-.07-.16c-.24,0-.5-.11-.7.16,0,0,0,.16.08.16a3.51,3.51,0,0,0,.56,0S1180.5,919.84,1180.54,919.79Z" transform="translate(-1113.96 -873.64)"></path><path class="cls-1" d="M1167.09,1009.56c0-.06-.18-.07-.24,0a.61.61,0,0,0-.13.37c0,.18.1.24.21.17A.46.46,0,0,0,1167.09,1009.56Z" transform="translate(-1113.96 -873.64)"></path><path class="cls-1" d="M1177.28,931.31a.32.32,0,0,0-.34,0,.38.38,0,0,0,0,.57,1.69,1.69,0,0,0,.49.28C1177.45,931.83,1177.55,931.51,1177.28,931.31Z" transform="translate(-1113.96 -873.64)"></path><path class="cls-1" d="M1177.4,932.14h0c.22.06.45.09.67.17.4.16.54-.07.53-.56h0l-1.24.4h0Z" transform="translate(-1113.96 -873.64)"></path><path class="cls-1" d="M1187.22,940.69c-.13-.06-.25,0-.25.19s.13.17.2.26.21-.14.18-.31A.29.29,0,0,0,1187.22,940.69Z" transform="translate(-1113.96 -873.64)"></path><path class="cls-1" d="M1158.44,1028.88l.22-.16-.22.14h0v0Z" transform="translate(-1113.96 -873.64)"></path><path class="cls-1" d="M1158.49,1027.62s-.09-.06-.12,0a.67.67,0,0,0,0,.61l.12.65c0-.21.11-.41.16-.62A.73.73,0,0,0,1158.49,1027.62Z" transform="translate(-1113.96 -873.64)"></path><path class="cls-1" d="M1168.48,1014.63l-.19-.2c-.11.05-.27.05-.23.36,0,.05.15.1.22.07S1168.41,1014.71,1168.48,1014.63Z" transform="translate(-1113.96 -873.64)"></path><path class="cls-1" d="M1191.6,1008.44c0-.14.08-.34,0-.41a2,2,0,0,0-.32-.39,3.92,3.92,0,0,0,.07.61C1191.41,1008.35,1191.52,1008.38,1191.6,1008.44Z" transform="translate(-1113.96 -873.64)"></path><path class="cls-1" d="M1161.37,1023.29a.47.47,0,0,0-.19.29c0,.18.07.26.18.19l.63-.41A.53.53,0,0,0,1161.37,1023.29Z" transform="translate(-1113.96 -873.64)"></path><path class="cls-1" d="M1162,1023.35h0l0,0,0,0h0Z" transform="translate(-1113.96 -873.64)"></path><path class="cls-1" d="M1151.5,988.75l.06-.15a1.62,1.62,0,0,0-.19-.18s0,.09-.07.14A1.19,1.19,0,0,0,1151.5,988.75Z" transform="translate(-1113.96 -873.64)"></path><path class="cls-1" d="M1154,989.54c.13,0,.31,0,.38-.09s0-.39-.11-.55l-.17-.27-.32.78C1153.8,989.47,1153.88,989.54,1154,989.54Z" transform="translate(-1113.96 -873.64)"></path><polygon class="cls-1" points="40.09 114.98 40.06 114.94 40.09 114.99 40.09 114.98"></polygon><path class="cls-1" d="M1153.7,989.4l0,0,0,0,.06,0h0v0l0,0Z" transform="translate(-1113.96 -873.64)"></path><path class="cls-1" d="M1154.51,991.23l-.28-.11s-.12,0-.13.07,0,.25.16.21A1,1,0,0,0,1154.51,991.23Z" transform="translate(-1113.96 -873.64)"></path><path class="cls-1" d="M1180.85,1053.39a.13.13,0,0,0,0,.24c.07,0,.16,0,.24,0a.92.92,0,0,0,0-.17C1181,1053.4,1180.92,1053.35,1180.85,1053.39Z" transform="translate(-1113.96 -873.64)"></path><path class="cls-1" d="M1148.84,1023.53a.42.42,0,0,0,0,.22s.07,0,.11,0a.86.86,0,0,0,0-.21C1149,1023.35,1148.91,1023.33,1148.84,1023.53Z" transform="translate(-1113.96 -873.64)"></path><path class="cls-1" d="M1169.25,975.62s-.08-.06-.11,0-.08.09-.08.13.08.22.18.1A.5.5,0,0,0,1169.25,975.62Z" transform="translate(-1113.96 -873.64)"></path><path class="cls-1" d="M1171.11,976.2a.2.2,0,0,1,0,.08l0-.06Z" transform="translate(-1113.96 -873.64)"></path><path class="cls-1" d="M1170.65,975.94a.18.18,0,0,0,.08.16,3.06,3.06,0,0,0,.38.1,1.66,1.66,0,0,0-.23-.44C1170.78,975.66,1170.67,975.76,1170.65,975.94Z" transform="translate(-1113.96 -873.64)"></path><path class="cls-1" d="M1215.62,975.56c.13,0,.14-.17,0-.29a1.3,1.3,0,0,0-.18-.15,2.46,2.46,0,0,0,.07.29C1215.55,975.48,1215.6,975.57,1215.62,975.56Z" transform="translate(-1113.96 -873.64)"></path><path class="cls-1" d="M1215.46,975.12l0-.12,0,.06Z" transform="translate(-1113.96 -873.64)"></path><path class="cls-1" d="M1168.27,1018.29l.79,0C1168.71,1017.62,1168.65,1017.62,1168.27,1018.29Z" transform="translate(-1113.96 -873.64)"></path><path class="cls-1" d="M1169.06,1018.31a.3.3,0,0,0,0,.08h0l0-.08Z" transform="translate(-1113.96 -873.64)"></path><path class="cls-1" d="M1168.22,1018.36l0-.07h-.07Z" transform="translate(-1113.96 -873.64)"></path><path class="cls-1" d="M1159.24,992.87a.16.16,0,0,0,.12.12s.08-.08.12-.13,0-.19-.06-.21S1159.21,992.66,1159.24,992.87Z" transform="translate(-1113.96 -873.64)"></path><path class="cls-1" d="M1170.28,1002.81s-.09.05-.11.1,0,.17,0,.17S1170.36,1003,1170.28,1002.81Z" transform="translate(-1113.96 -873.64)"></path><path class="cls-1" d="M1193.54,938.83l-.14.07,0,.18s.12,0,.14-.08S1193.55,938.89,1193.54,938.83Z" transform="translate(-1113.96 -873.64)"></path><path class="cls-1" d="M1166.09,1008.93c0-.07,0-.16,0-.19s-.18-.07-.17.15a.21.21,0,0,0,.11.13S1166.05,1009,1166.09,1008.93Z" transform="translate(-1113.96 -873.64)"></path><path class="cls-1" d="M1162.55,1028.35l.09-.32-.09-.07c0,.1-.07.21-.1.31Z" transform="translate(-1113.96 -873.64)"></path><path class="cls-1" d="M1212.84,978.22c0,.06-.09.12-.09.18a.22.22,0,0,0,.07.19c.15.06.21-.05.15-.26S1212.89,978.25,1212.84,978.22Z" transform="translate(-1113.96 -873.64)"></path><path class="cls-1" d="M1183.54,1036.79c.06-.06.13-.12.19-.19a.86.86,0,0,0,0-.17l-.19.18Z" transform="translate(-1113.96 -873.64)"></path><path class="cls-1" d="M1131,971.2c0-.07,0-.18,0-.18s-.22,0-.13.18S1131,971.2,1131,971.2Z" transform="translate(-1113.96 -873.64)"></path><polygon class="cls-1" points="1.47 90.98 1.36 90.91 1.38 91.06 1.47 90.98"></polygon><polygon class="cls-1" points="40.43 72.06 40.36 72.19 40.47 72.19 40.43 72.06"></polygon><path class="cls-1" d="M1188.93,941.63c0,.2.07.27.2.18a.24.24,0,0,0,0-.19s-.08-.08-.12-.12S1188.93,941.59,1188.93,941.63Z" transform="translate(-1113.96 -873.64)"></path><polygon class="cls-1" points="119.32 13.07 119.28 13.19 119.41 13.16 119.32 13.07"></polygon><polygon class="cls-1" points="55.29 152.07 55.21 151.96 55.2 152.13 55.29 152.07"></polygon><path class="cls-1" d="M1144.34,1021s0,.15,0,.15.06,0,.1,0,0-.15,0-.16S1144.38,1021,1144.34,1021Z" transform="translate(-1113.96 -873.64)"></path><polygon class="cls-1" points="67.47 145.31 67.42 145.2 67.38 145.33 67.47 145.31"></polygon><path class="cls-1" d="M1165.9,1011.73l-.76.26C1165.42,1012.13,1165.69,1012.2,1165.9,1011.73Z" transform="translate(-1113.96 -873.64)"></path><path class="cls-1" d="M1165.08,1012l.06,0,0,0,0-.13-.06.12h0Z" transform="translate(-1113.96 -873.64)"></path><path class="cls-1" d="M1166,1011.72l0-.05h-.08a.33.33,0,0,1,0,.06l.06,0Z" transform="translate(-1113.96 -873.64)"></path><path class="cls-1" d="M1166.34,1011.39l-.13.09-.2.19a.67.67,0,0,0,.2,0C1166.33,1011.66,1166.38,1011.55,1166.34,1011.39Z" transform="translate(-1113.96 -873.64)"></path><path class="cls-1" d="M1175.5,974.21l0,.18s.09.08.12.06,0-.11.06-.17Z" transform="translate(-1113.96 -873.64)"></path><path class="cls-1" d="M1145.71,986.33a.21.21,0,0,1-.11,0l.07,0Z" transform="translate(-1113.96 -873.64)"></path><path class="cls-1" d="M1145.59,986.34h0l-.11-.07S1145.56,986.33,1145.59,986.34Z" transform="translate(-1113.96 -873.64)"></path><polygon class="cls-1" points="19.81 107.23 19.77 107.36 19.83 107.24 19.93 107.3 19.85 107.21 19.84 107.21 19.84 107.21 19.81 107.23"></polygon><path class="cls-1" d="M1178.85,974.57h0l-.11-.12S1178.82,974.55,1178.85,974.57Z" transform="translate(-1113.96 -873.64)"></path><path class="cls-1" d="M1179,974.59l-.12,0,.07.08Z" transform="translate(-1113.96 -873.64)"></path><path class="cls-1" d="M1167.26,975.24l.06-.1-.09.08-.07,0,0,.05h0Z" transform="translate(-1113.96 -873.64)"></path><polygon class="cls-1" points="43.87 147.62 44 147.57 43.97 147.52 43.87 147.62"></polygon><polygon class="cls-1" points="88.14 68.84 88.03 68.91 88.13 68.98 88.14 68.84"></polygon><path class="cls-1" d="M1142.59,984.94h0l-.22.15A1.88,1.88,0,0,1,1142.59,984.94Z" transform="translate(-1113.96 -873.64)"></path><path class="cls-1" d="M1117.93,963.29v.22h0Z" transform="translate(-1113.96 -873.64)"></path><path class="cls-1" d="M1191.29,927.9a1.27,1.27,0,0,0-.59.32A1,1,0,0,0,1191.29,927.9Z" transform="translate(-1113.96 -873.64)"></path><path class="cls-1" d="M1183.16,970l-.05,0h0Z" transform="translate(-1113.96 -873.64)"></path><path class="cls-1" d="M1174.65,898.13v.07l.06-.16Z" transform="translate(-1113.96 -873.64)"></path><polygon class="cls-1" points="80.6 69.41 80.64 69.47 81.18 68.98 81.13 68.93 80.6 69.41"></polygon><path class="cls-1" d="M1184.14,895l0-.12a.36.36,0,0,1,0,.07S1184.14,895,1184.14,895Z" transform="translate(-1113.96 -873.64)"></path><polygon class="cls-1" points="58.85 18.41 58.45 18.39 58.39 18.44 58.9 18.47 58.85 18.41"></polygon><path class="cls-1" d="M1170.59,982.21l0,.11h0v.07l0,0,0,0Z" transform="translate(-1113.96 -873.64)"></path><path class="cls-1" d="M1192.43,889.58l-.09-.1h0Z" transform="translate(-1113.96 -873.64)"></path><path class="cls-1" d="M1148.05,982v-.18l0,0A.75.75,0,0,1,1148.05,982Z" transform="translate(-1113.96 -873.64)"></path><path class="cls-1" d="M1148.07,982.33v-.2a.62.62,0,0,1,0,.13Z" transform="translate(-1113.96 -873.64)"></path><path class="cls-1" d="M1148.05,982v.16A.86.86,0,0,0,1148.05,982Z" transform="translate(-1113.96 -873.64)"></path><path class="cls-1" d="M1210.9,889.91h0l-.05,0-.5.48,0,.07Z" transform="translate(-1113.96 -873.64)"></path><path class="cls-1" d="M1147.71,982.83l0,0h0l.31-.53,0-.07Z" transform="translate(-1113.96 -873.64)"></path><path class="cls-1" d="M1114,987.65l0-.12,0-.06Z" transform="translate(-1113.96 -873.64)"></path><path class="cls-1" d="M1194.52,939h-.06l.14,0Z" transform="translate(-1113.96 -873.64)"></path><polygon class="cls-1" points="64.17 126.71 64.11 126.67 64.13 126.76 64.17 126.71"></polygon><path class="cls-1" d="M1191.32,1007.54a.21.21,0,0,0,0-.06Z" transform="translate(-1113.96 -873.64)"></path><path class="cls-1" d="M1191.32,1007.54h0v0h0l0,.07,0,0v-.1Z" transform="translate(-1113.96 -873.64)"></path><path class="cls-1" d="M1167.63,1021.15v-.07l0,.17Z" transform="translate(-1113.96 -873.64)"></path><path class="cls-1" d="M1171.91,1049.73l0,.12h0l0,.07h.11l-.11-.06Z" transform="translate(-1113.96 -873.64)"></path><polygon class="cls-1" points="54.09 81.81 54.13 81.8 54.01 81.74 54.09 81.81"></polygon><path class="cls-1" d="M1179.42,931.78l-.77,0h0l.82,0Z" transform="translate(-1113.96 -873.64)"></path><path class="cls-1" d="M1185,920.4l.06.07h0l0,0,0,0h0Z" transform="translate(-1113.96 -873.64)"></path><path class="cls-1" d="M1175.06,918.73l0,0,.13.1Z" transform="translate(-1113.96 -873.64)"></path><path class="cls-1" d="M1218.27,948.32c-.24,0-.33.33-.35.66s0,.51.26.5.39-.36.43-.68A.38.38,0,0,0,1218.27,948.32Z" transform="translate(-1113.96 -873.64)"></path><polygon class="cls-1" points="95.56 82.18 95.66 82.21 95.63 82.08 95.56 82.18"></polygon><path class="cls-1" d="M1212.84,954.9v0l.08-.41C1212.9,954.64,1212.87,954.77,1212.84,954.9Z" transform="translate(-1113.96 -873.64)"></path><path class="cls-1" d="M1212.29,941.45s0,.06,0,.06S1212.29,941.45,1212.29,941.45Z" transform="translate(-1113.96 -873.64)"></path><path class="cls-1" d="M1184.66,904.86l-.05,0,.13.11Z" transform="translate(-1113.96 -873.64)"></path><polygon class="cls-1" points="107.67 69.31 107.81 69.34 107.77 69.17 107.67 69.31"></polygon></svg>
