<svg id="Layer_1" data-name="Layer 1" xmlns="http://www.w3.org/2000/svg" viewBox="0 0 153.59 172.98">
  <defs>
    <style>
      .cls-1{fill:#0f0619}
    </style>
  </defs>
  <path class="cls-1" d="M313.07 963.29v-.1h-.05Zm-67.16-.49v.43-.17l-.06-.2Zm11.09-.11c0-.08 0-.15-.05-.22a.31.31 0 0 1 0 .09Zm-2.71-.11a.44.44 0 0 0 0-.1v.09Z" transform="translate(-188.35 -879.46)"/>
  <path class="cls-1" d="M325.49 955.92c1.19.15 2.18-2.66 3.35-2.81.38-.05.52-1.61.56-3.87v-.12c1 1.15 2.41.76 3.2-.93v.17l1-1.5a24.44 24.44 0 0 1-.31-4.37c.08-2.21.1-5.06.54-5 .87 0 1.45-3.13 2.19-4.51a14.31 14.31 0 0 0 .78-3.84 24.1 24.1 0 0 0-.29-6.83c-.26-1.39-.57-2.43-.86-3.52a15.86 15.86 0 0 1-.36-5 13.73 13.73 0 0 0-.17-2.74c-.2-1.16-.41-1.32-.55-.71s-.28 1.92-.41 2.9v-.23a21.57 21.57 0 0 1-.07 3.45c-.16 1.06-.41.86-.66.42a19.12 19.12 0 0 1-1-4.24c-.48-2.76-.52-5.09-.1-6.1.57-1.34 1.15-2.47 1.7-4a12.63 12.63 0 0 0 0-4.12c-.6-5.73-.95-7.41-1.71-7.11a3.1 3.1 0 0 0-2.14 2c-.64 1.48-1.18.21-1.83-4 .29-1.27.59-2.46.87-3.82a10.34 10.34 0 0 0 0-1.72 8 8 0 0 0-.23-1.48c-.15-.36-.31-.57-.45-.52-2 .69-4.07-.45-6.16-2.08-.71-.54-1.35-.17-1.8 2.4-.34 1.93-.78.69-1.23-.44v-.22c-.09.37-.17.74-.26 1.11v.16c-.4-.07-.41 4.16-.85 2.65-.57-2-.77-.73-1 1.17s-.7.28-1.1-.81v-.06h-.48c-.2-.52-.48-1.6-.55-1.21-.6 3-1.64.38-2.22 3.14-.26 1.28-.48 1.76-.87.44-.13-.44-.33-1.08-.28.51 0 .52.14 1.15.2 1.76s.12 1.18.17 1.77c-.08.1-.16.46-.23.26-.3-.81-.6-2-.89-2.62-.09-.18-.17.76-.26 1.29-.68-.74-1.38-1.74-1.75 2 0 .41-.15.54-.24.57-2 .66-3.65 6.08-5.67 6.18-1.23.06-2.32 2.06-3.51 2.64a6.63 6.63 0 0 0-2.47 3.29c-1.07 2.41-2.31 2.34-3.47 3.33-.71.61-.73.32-.46 6 .14 2.76-.22 6.32-.68 5.8-.7-.8-1.38-1.27-2-.65a4.85 4.85 0 0 1-.22-1.26 10 10 0 0 1 .05-1.63 6.1 6.1 0 0 1 .41-1.67c.31-.38.64-.31 1-.57.13-.1.25-.64.18-1.82s-.24-1.72-.38-1.64c-.72.46-1.52 0-2.05 2.92-.05.26-.15.09-.24 0s0-.27 0-.4v.52c-.15.33-.36.32-.43 1.08a5.8 5.8 0 0 0 .27 2 6.84 6.84 0 0 1 .52 3.26 3.76 3.76 0 0 1-.4 1.51v-.33.19c-.06.26-.13.53-.19.79-.06-.54-.13-1.08-.19-1.62v-.39.25c-.21-1.72-.43-3.44-.65-5.17 0 1.32 0 3.23-.39 1.35-.5-2.69-1-2.86-1.4-2.72s-.64 1-.47 5.38c0 1.26.15 2.56.22 3.8-.28.27-.44-.92-.62-2.77-.51-5.25-.59-4.37-1-3.93s-1 .83-1.56-.06c-.41-.66-.75-.1-1.12.13a30.36 30.36 0 0 1-3.7 2.06c-.53.24-.84-1.7-1-5.61-.27-6.79-.38-7.76-1.28-9.87-.35-.83-.72-1.65-1-1.76a14.17 14.17 0 0 0-4.58-1c-.74 0-1.42 1.2-2.13 1.88s-1.6 1.6-2.4 2.39c-.36.36-.73.32-1.14-.3-1.81-2.68-3.51-2.57-5.22-2.76a20.13 20.13 0 0 1-2.69 0c-.61-.15-1.21.48-1.9-3-.16-.82-.41-1-.59-1.1-1.16-.42-2.36-2.3-3.46-1.29-1.49 1.36-3.13 0-4.75-1.6a4.41 4.41 0 0 0-4.16-1.15 23.45 23.45 0 0 0-6.84 1.91c-1.47.67-2.86 2.66-4.38 2.51-.38 0-.72.67-1 1.42-.88 2-1.83 2.31-2.93.22-.5-1-1-1.66-1.5-2.55-.15-.27-.32-.68-.38.19-.46 6.21-1.63 4.12-2.58 3.79s-2 .68-3.05-2.42c-.18-.51-.38-.14-.56 0-1.61.92-3.24 1.26-5-2.75-.15-.33-.33-.7-.44-.44-1 2.39-2.24.21-3.35.41-.94.16-1.91-.43-2.88-.83-.49-.2-1-.42-1.21 2.24-.06.66-.19 1.27-.32 1.18-1-.65-1.75 2-2.76.72-1.76-2.28-1.76-2.25-3 2.36.61 1.49 1.12 1 1.62 3.21a9.55 9.55 0 0 1 .27 2.49c0 .51-.09 1.19-.15 1.12-1.11-1.16-2 2-3.25-1.47-.06-.16-.18.36-.18.76a17.57 17.57 0 0 0 .16 1.85c.29 2.26.62 3.32 1 3.76a8 8 0 0 1 1.2 1.78c.51 1 1 2.08 1.28 6.46a6.3 6.3 0 0 0 .67 3c.45.68.9 1.34 1.35 1.93a8.68 8.68 0 0 1 1.19 1.4c2.2 3.87 4.41 8.64 6.59 11.52 1.43 1.89 2.92 5.94 4.29 5.4.19-.07.39.17.59.53 2.48 4.45 4.83 4.78 7.23 6.75a15 15 0 0 0 3.06 1.92c.5.25 1 2.7 1.49 2.71s.73-1.64 1.19-1.07c.3.35.6.86.9 1.3v.17c1.07-2 2.33-.2 3.53.5.24.14.54 1.1.74.84 1.24-1.53 2.64.11 4 .32a20.11 20.11 0 0 1 3.42.79c.23.08.5.82.75 1.51s.43.58.64-.21c.83-3.27 1.84-2.86 3 1.44a11.91 11.91 0 0 1-.06-1.29c.07-.77.19-.17.29.46.32-1.62.72-2.43 1.18-2.4 2.18.16 4.32-.37 6.56 1.2a9.46 9.46 0 0 1 .39 1.71c.1-.42.19-.87.29-1.26.3-1.12.72 1.66 1 1.28s.33-2.31.68-1.93a4.13 4.13 0 0 1 .68 1.9c.51-4.45 1.39-3.2 2.3-2 .29.39.61 5.49.82 2.08.17-2.79.6 1.05.71.14.33-2.65.69-.68 1.1 1.57.14.76.31.65.36-.24s.06-2.41.14-3.3c.26-2.62.77-2.24 1.21 1.38.28 2.32.5 3.23.78 2.63.43-.93 1.07.35 1.25-3.18.05-1 .2-.9.36-.19.4 1.78.71 2.61.67-1a4.85 4.85 0 0 1 .31-2.32c.25-.44.49-1.33.76-1.24 2.74.9 5.25-2.09 7.91-2.57.51-.09.93.61 1.43 3.52.42 2.41.67 2 .65-1.2 0-4.68.4-4.25.94-3.37v.08a13.58 13.58 0 0 0 .32 3.18c.21.43.24-.88.3-1.84a2.43 2.43 0 0 1-.22-.29h.07v-.1c.6-3.94 1.41-5 2.43-4.43 1.34.79 2.64.55 4 .76s0-.11 0-.09v-.05c.27-2 .59-3.5 1.1-3.52s1-.64 1.44-1.67.83-1.28 1.34-.8 1 1.68.71-3.47c.42-.91.83-3.25 1.26-2.37.6 1.2.89-.41 1.31-1v.32-.26a3.52 3.52 0 0 1 0-.46.84.84 0 0 1 .19-.32v.04-.11l-.06-.15a4.36 4.36 0 0 1 .2-.78v.24c.08-.37.17-.74.25-1.11v-.19c.43-1.82.85-3.64 1.27-5.4.39 2.2.36 5.09.73 6.8a26.49 26.49 0 0 1 .58 4.7 1.13 1.13 0 0 0 0-.14v.66a2.26 2.26 0 0 0 0-.26 10.89 10.89 0 0 0 .55 1.63c.25-3.87 1.09-.64 1.48-2.66l3.59 3.53v.09-.05l-.05-.07c.11-2.8.39-4.64.92-2.45.42 1.69.67 1.46 1 .71s.53-.73.73-1.6c.57-2.47 1.25-1.86 2 .93a16.84 16.84 0 0 1 .35-3.08 6.66 6.66 0 0 1 2.61-1c.13 0 .31.55.44 1.12a12.59 12.59 0 0 1 .14 1.77 3.37 3.37 0 0 1-.18 1c-.19.52-.47.33-.45 2.36 0 1.53.55 4.06.92 3.83a31.81 31.81 0 0 0 2.39-2.3 12.47 12.47 0 0 1 2.31-1.38c.08 0 .2.34.3.62a8 8 0 0 1 .35 2.29 12.52 12.52 0 0 1 0 1.71c-.39 2-.77 4.07-1.42 3.17-.82-1.13-1.51-.07-2.18 1.21-.32.62-.29 2.39 0 4.63-.21 1-.42 2.07-.62 3.11a1.16 1.16 0 0 0 0 .18 1.34 1.34 0 0 1 0-.2l.6-3c.19.63.39 1.69.56 1.74.6.2.6.08.92 4.13.57.46.56.36.26-3.34a17.4 17.4 0 0 1-.1-2.81c.08-.79.24-.48.39-.08a19.05 19.05 0 0 1 .83 5.31c.14 2 .42 2.57.64 1.84a10.67 10.67 0 0 0 0-4c-.11-.88-.27-1.64-.35-2.57-.15-1.58-.08-2.85.12-2.8 1.29.28 2.39-2.48 3.73-1.29a3 3 0 0 1 .44.73 3.11 3.11 0 0 1 .12.72 17 17 0 0 1 0 1.8c-.26 1.81-.64 2.48-1.1 2.06-.76-.7-1.31 1.55-2 1.9a6 6 0 0 0-.07 1.38 4.87 4.87 0 0 0 .24 1.28c1.46.14 3 2 4.19-2.56.63-2.46 1.44-3.4 2.39-2 .5.76.92-.23 1.34-1s.52-1.93 1.01-1.88Zm6.27-14.35c.06-.15.19.17.27.53a38.34 38.34 0 0 1 .52 6c-.25-1.45-.51-2.8-.75-4.27a6 6 0 0 1-.04-2.26Zm-1.59-24.69c.13-.39.35.06.53.24 0 1.53.07 3.09.08 4.57 0 1.16-.15 1.18-.3.6a14.62 14.62 0 0 1-.31-5.41Zm-.34 25.49c.09-.74.23.07.35.72v.55c0 .63 0 2-.2 1.15a9.16 9.16 0 0 1-.15-2.42Zm-3.51-3.12a4.72 4.72 0 0 1-.33-2.11c-.05-1.13 0-1.8.18-1.83.31 0 .55 1.2.77 3.1-.2.32-.4.8-.62.84Zm.47 3.4a3 3 0 0 1 0 .34v.37Zm1.39.49a4.84 4.84 0 0 1-.08 1.25c-.12.06-.25-.22-.38-.47 0-.66.06-1.44.13-1.84.15-.57.26-.08.33 1.06Zm-1.87-52.68a11.46 11.46 0 0 1 .1 1.72c-.14 2.65-.4 3.23-.87 1.92a13.08 13.08 0 0 1-.25-1.43c0-.32-.05-.73-.05-.95.08-1.9.76-2.72 1.07-1.26Zm-1.13 24.2Zm-77.46 23.19c-.07.1-.17.46-.2.26-.13-.76-.25-1.63-.37-2.48.16.46.33.91.49 1.41.03.1.05.53.08.81Zm-4.6-3.55a1.42 1.42 0 0 1 .53-.47c1.07-.75 2.24.52 3.39 1.56-.25 2.22-.67 2.74-1.13 2.47a1.85 1.85 0 0 0-2.35.16c-.08.07-.19 0-.29-.31a6.83 6.83 0 0 1-.25-1.35 4.71 4.71 0 0 1 .1-2.06Zm-1.74 0a5.34 5.34 0 0 1 .39 1.78c.1 1.19-.05 1.61-.2 1.61-.61 0-1.26-1.3-1.9-2.54.46-1.96 1.09-1.35 1.71-.81Zm-1.78.94c-.64 3.19-1.61 1.66-2.46 1.75-.33 0-.71 0-1.28-2.85 1.3-1.22 2.38-2.93 3.74 1.14Zm-5.56-2.9c.19.09.37-.19.53 1.5v.89c-.1 1.08-.3 1-.49.65a13.22 13.22 0 0 1-.61-3.65 2.81 2.81 0 0 0 .53.65Zm-.57-.62v.38-.38Zm-2.06 1.28c.32-1.76.72-.63 1.14 1.33a15.85 15.85 0 0 1-.94 1.45 3.59 3.59 0 0 1-.23-1.13 10.55 10.55 0 0 1 .03-1.65Zm-1.09-.31a3.55 3.55 0 0 1 .12.76 12.28 12.28 0 0 1-.06 1.35c-.66-1.14-1.23 1.66-2-2.54.62-1.09 1.22-1.72 1.94.38Zm-2.6-.75c.21 0 .43.21.64.35a17.69 17.69 0 0 1-.45 1.81c-.1.28-.27 0-.33-1.23a2 2 0 0 1 .14-.98Zm-1.34-.64a10.39 10.39 0 0 1 .23 1.55c.07.78 0 1.17-.12 1.08-.48-.35-1-.28-1.49-3.51.43-.42.86-1.02 1.38.83Zm-3.82-2.89c.49-.35 1 0 1.84 3.59a12.85 12.85 0 0 1-1.68-1 5 5 0 0 1-.25-1.34 5.11 5.11 0 0 1 .09-1.3Zm-11-12.73a25.29 25.29 0 0 1 2.08 2.68c2.29 3.41 4.58 6.87 6.77 7.13.23 0 .49.45.74 1 .17.36.43.65.38 2.81-1-.21-1.89 1.41-3-1.54-.14-.38-.29-.24-.43-.26-1.33-.16-2.7-1.73-4.1-3.84-.83-1.26-1.67-2.57-2.42-1.65-.08-.51-.15-1-.21-1.56-.43-3.7-.37-5.4.15-4.82Zm-4.41-6.35c.89 1.4 1.77 2.78 2.65 4.23a5.18 5.18 0 0 1 .45 1.24 9.27 9.27 0 0 1 .26 2.43c0 .42-.11.75-.18.74-.6-.12-1.23-1-1.75.21a12.35 12.35 0 0 0-.93-3.9 28.15 28.15 0 0 1-1.17-2.67c.03-2.16.25-2.94.63-2.33Zm-1.3-.78a12.25 12.25 0 0 1 .57 2.89c-.22-.56-.45-1.11-.67-1.71 0-.1-.06-.52-.09-.79s.09-.58.15-.44Zm44.7 41.79c-.91.55-1.79 2.17-2.75 1.08a2.82 2.82 0 0 0-2.29-1c-2-.18-4.17-2.58-6.17-1.9a4.4 4.4 0 0 1-2.68.19c-2.93-.82-5.86-1.88-8.79-2.8-.53-.17-1 .45-1.57-.25-1.74-2.27-3.41-2.51-5.13-4.1s-3.54-3.52-5.31-5.18a12.43 12.43 0 0 1-2.24-3.23c-.85-1.62-1.72-3.31-2.49-2.31-.4.53-.86-.32-1.32-1.52-.4-1-.8-2-1.21-3l.06.12c-.15-.3-.32-1-.44-.84-.94 1.22-1.93-.19-3-4.27a18.75 18.75 0 0 0-.74-2 6.26 6.26 0 0 1-.54-3.27c0-1.28.29-.73.48-.52.54.58 1.09 1.47 1.61 1.7.85.38 1.75 2.11 2.54 1.24.89 4.86 1.78 5.23 2.65 5.55.14.05.24-1.06.36-1.7a12.77 12.77 0 0 0 1.28 4.15 24.38 24.38 0 0 0 2.25 3.51q4.5 4.2 9 7.9c2.8 2.31 5.51 2.91 8.25 3.92.68.25 1.31-.63 2 0 1.82 1.72 3.53.77 5.37 2.85.63.72 1.23.08 1.84 0 .38 0 .74-.26 1.12-.14 2.3.71 4.6 1.5 6.9 2.26.23.07.47 0 .71.22a4.19 4.19 0 0 1 .36 2 5.62 5.62 0 0 1-.15 1.29Zm-1.72-14c.67-.93 1.25-1.68 2-1a7.84 7.84 0 0 1 .77 3c-.97.95-2.12.21-2.81-2.01Zm3.83 12.73c-.16.22-.34.18-.52-.92-.09-.58-.07-1.24 0-1.28s.35.06.5 1.45a6.91 6.91 0 0 1-.02.74Zm5.16 1c-.15.94-.37 1-.64.24a4.44 4.44 0 0 1-.1-1.63c.15-.88.36-1.25.63-.39a5.29 5.29 0 0 1 .07 1.77ZM268 933.9a5.6 5.6 0 0 1-.09-.82 5.12 5.12 0 0 1 0-.76c.33-1.33.77-.3 1.18.06-.15 2.8-.57 2.8-1.09 1.52Zm1.41 10.56a2.42 2.42 0 0 1 0-.69.74.74 0 0 1 .34-.27c-.05.57-.1 1.16-.17 1.61s-.13.14-.17-.65Zm2.17.77v-.39.71-.32Zm2-14.53a3.27 3.27 0 0 1-.1-.45v-.6l.1.44Zm5.42 23.6Zm4.15-27.3c-.14-.11-.28-.09-.42-.36s-.13-.83-.2-1.28c.07-.11.15-.5.21-.28.14.48.27 1.26.4 1.9l.12-1.2c-.04.35-.07.76-.11 1.22Zm1.67-2.21c-.16.44-.37.32-.56-.74a11.65 11.65 0 0 1-.1-1.74c.13-1.38.36-1.18.63.09a7.78 7.78 0 0 1 .1.91 9 9 0 0 1-.07 1.43Zm1.14-.8c.15-3.76.16-3.88.72-2.79Zm10.19 5.18c-.1.45-.22.89-.38 0a5.2 5.2 0 0 1 0-2.2c.12-.29.27-.39.4.64.04.24-.01.97-.02 1.51Zm2.06-12c-1.3 1-2.62 1.89-3.95 2.79v.06l.08-.16c-.17-3.15-.34-6.32.25-6.58a42.7 42.7 0 0 1 4.54-1.88c.45-.15.9-.84 1.42 1.3a4.94 4.94 0 0 1-.58 2.51 13.6 13.6 0 0 1-1.76 1.86Zm5.48-5.42c-.89 3-1.8 5.55-3.12.85.75-3.89 1.82-3.64 2.85-3.87.14 0 .3.41.36 1.58a6.89 6.89 0 0 1-.09 1.34Zm1.12-.52a2.57 2.57 0 0 1-.13-.56v-.79c.1-.36.18 0 .2.9.01.11-.03.38-.07.35Zm2.29-3.26c-.17 1.45-.47.88-.75.41a4.87 4.87 0 0 1-.25-.72 3.18 3.18 0 0 1 .19-.53c.46-.97.94-.42.81.74Zm1.51-.83c-.07 0-.16-.17-.24-.28s0-.51 0-.77a3.92 3.92 0 0 1 .25.32c0 .16.01.64-.01.59Zm2.11-16Zm-.4 40.54c-.11.62-.25.4-.38-.52a13.71 13.71 0 0 1-.13-2.77c.05-.88.2-.91.35-.16a13.3 13.3 0 0 1 .16 3.32Zm.39-26.69a10.13 10.13 0 0 1-.25-1c.36-1.63.66-2.28 1.08-.11a5 5 0 0 1 0 .85c-.16 1.27-.54.52-.83.13Zm.94 25.5a3 3 0 0 1-.22-.74c-.08-.63 0-1.11.06-1.07s.09.2.13.41a4.18 4.18 0 0 1 .03 1.27Zm.79-28.77s.05.07.08.15l-.13.25a2.69 2.69 0 0 1 .05-.53Zm.17 27.4c-.08 0-.19-.35-.26-.76a3.44 3.44 0 0 1 0-1.25c.16-.15.3.16.4 1.12a3 3 0 0 1-.14.77Zm6.71-47.23c0 .55-.08.8-.18.78Zm-5.67 43.75v-.07c0-.01.07.08.11.14Zm1-24.58c-.1.16-.22-.37-.22-1.06 0-.44.09-1 .15-.92a9.39 9.39 0 0 1 .37 1.25 4 4 0 0 1-.35.6Zm.87 12.19s.1 0 .14.21a5.28 5.28 0 0 1 .06 1.58c-.08-.15-.19-.13-.25-.49a2.33 2.33 0 0 1 0-1.43Zm.36 31.18a3.39 3.39 0 0 1-.22-.81 14.14 14.14 0 0 1 0-1.45 3.53 3.53 0 0 1 .22.84 13.58 13.58 0 0 1-.05 1.29Zm1.22-.65-.1-.78.11.16Zm1.5-.14Zm2.61-4v-.1h.06Zm2.56 2c-.23-.15-.44.58-.7-.82a12.31 12.31 0 0 1 .06-1.39.39.39 0 0 1 .56-.08 2.12 2.12 0 0 1 .27 1c.04 1.37-.11 1.3-.24 1.21Zm.84-46.59c-.11 1.3-.3 1.81-.54 1.81s-.69-.49-1-.14c-2 2.37-4.24 1.65-6.22 4.58-.55.82-1.15.67-1.81-1.05a4.93 4.93 0 0 1 1.13-2.79c2.42-2.67 4.82-5.56 7.33-6.79.26-.12.58.53.87 1a12.15 12.15 0 0 1 .19 3.33Z" transform="translate(-188.35 -879.46)"/>
  <path class="cls-1" d="M249.08 1002c.69.39 1.26-1.06 2-.33.06.06.15-.62.14-1.06a16.91 16.91 0 0 0-.19-1.79c-.27-1.69-.53-2.57-.86-2.53-.51.07-1-.34-1.58-.54-.26.46-.56-.12-.86-.94a9.38 9.38 0 0 1-.38-3.78c.06-2.27-.17-4.11-.47-4.32a4.74 4.74 0 0 0-1.58-.64c-.29-.08-.58.62-.85-.12-.58-1.58-1-.81-1.55-1.17s-.93.06-1.41 0a29.55 29.55 0 0 1-3.41-1c-.67-.22-1.39-1.24-2-.71-1.42 1.21-3-1.67-4.47-1.95-.24-.05-.5-.52-.73-.52-2.84 0-5.7-.69-8.7-4.77-1.39-1.88-2.69-.85-4.12-3.93-1.43 1.84-3.16-3.28-4.62-2.16-.18.14-.39.07-.58-.38-1.43-3.23-2.78-3.53-4.18-5.82s-2.9-4.58-4.35-6.77a11.39 11.39 0 0 0-1.49-1.83c-.58-.58-1.15-.38-1.76-3.62a1.82 1.82 0 0 0-.59-1.11c-1-1.5-2-2.86-3-4.52a9.88 9.88 0 0 1-1.5-3.85c-.54-2.57-1-4.29-1.6-3.78-.23.22-.5-1.1-.7-2.64a25 25 0 0 1-.23-3.87c0-1.45.25-1.3.46-.84.85 1.94 1.71 3.8 2.57 6a9.51 9.51 0 0 0 3.13 4.36c.45.44.49-1.36.48-3.6a22.9 22.9 0 0 0-1.63-2.18c-.9-1-1.8-3.57-2.71-6.28a13 13 0 0 1-.34-2.28c-.08-1.15.07-1.6.21-1.73.8-.81 1.64-.86 2.56.68a2.86 2.86 0 0 0 1.31 1.32 5.08 5.08 0 0 0 .19-1.78 18.91 18.91 0 0 0-.31-2.51 1.86 1.86 0 0 0-.29-.85c-1.28-1.3-2.56-2.61-3.84-3.77-.18-.17-.42 0-.5.7-.34 3.13-.94 2.15-1.53 1.6a12.85 12.85 0 0 0-2.06-1.71c-.57-.34-1.15-.88-1.68-3.22a7.42 7.42 0 0 0 .12 2.95 28 28 0 0 1 1.09 5.31c.68 4.67 1.37 9.06 1.81 14.86.3 4.11.78 6 1.42 6.33 1.42.66 2.91 5.63 4.36 8.15 1.05 1.83 2.11 4.45 3.16 5.67.63.73 1.39 1.69 2 6.59-1.3.65-2.67-1.5-4.09-5a11.23 11.23 0 0 0-2.4-3.68c-.6-.7-1.15-.37-1.54 1.91v-.49.25a9.08 9.08 0 0 1-.19 1.67c-.41.53-.75-2.34-1.09-3.92a25.83 25.83 0 0 1-.26-5.11h.05c0-.1 0-.2-.05-.31v.3c-.46-1.81-1-1.64-1.34-6-.08-1.1-.25-1.6-.39-1.41-.76 1.07-1.69-.25-2.35 2.55-.37 1.54-.91 1.63-1.37 2.38.05 2.95.5 2.35.69 4s.43 3.65.66 5.37c.32 2.37.72 4.53 1.11 5 1.4 1.74 2.8 6.55 4.2 9.58a.12.12 0 0 0 .11.09c-.12-.88-.23-1.76-.34-2.67.24-1.94.59-2.61 1.06-2 1 1.2 1.95 2.16 2.93 3.42.79 1 1.54 1.48 2.2.2a6.23 6.23 0 0 0 .67 2.91l1 1.25c-.08-.44-.16-.86-.24-1.28l.23 1.19c.29.3.58.09.85 1 .64 2.21 1.18 3.59 1.4-.8 0-.28.2-.25.23 0 .57 4.2 1 .89 1.56 2.88.09.72.17 1.43.26 2.15v-.15c-.07-.63-.15-1.26-.22-1.89l.4.85-.18 1v.15l.24-1.08v-.19c1.17 3.39 2.29 4.75 3.38 4.44.45-.12.88 0 1.45 2.4s1.17 2.25 1.71 1.69c.86-.88 1.78.15 2.73 1.45s1.9 2.86 2.78 2.3c.23-.14.48-.36.72.24 1.25 3.16 2.31 1.48 3.49 2.71.1.11.2.14.28 0 .9-1.8 2-.05 3 .9a4.87 4.87 0 0 0 2.17 1c2 .63 3.9.45 5.93 2.49a1 1 0 0 0 1.28.24c.79-.44 1.6-.33 2.46 1.25.44.79.79.48 1.09-.49.53-1.76 1.13-1.35 1.82.87.42 1.37.78 1.54 1.16 1.37a1.73 1.73 0 0 1 1.56.11c.95.47 2 3.25 2.72-.59.66 1 1.35-.26 2.11.18Zm-54.32-32.36v-.48.52Zm2-7.69a2.9 2.9 0 0 1-.1-.42l.16.36s-.09.11-.11.11Zm.26 1.27a8.65 8.65 0 0 1-.09-.88c0 .13 0 .26.06.36.09.56.1.88.01.52Zm2.51 5.14c-.06.2-.17.14-.24-.13a3.86 3.86 0 0 1-.06-1.46c0-.19.16 0 .24.09a4.39 4.39 0 0 1 .01 1.5Zm.92 1.28c-.06-.24-.1-1.1-.14-1.67.08 0 .19-.15.24.16.17 1 .31 2.11.46 3.19-.24-.53-.43-1-.61-1.68Zm3.06-4.16c.56-2 1.19-1.22 1.89 2.19-.59 2.52-1.19 2.46-1.94-2.19Zm5.66 11c-.9-2.14-1.79-4-2.66-4.35-.4-.18-.75-1.79-1-4.29.86-.81 1.8.49 2.74 2.69s1.8 3.71 2.68 4c.38.13.76 1 1.09 3.53-1.02-.18-1.89.79-2.9-1.59Zm3.37 2.73c.2-3.41.67-1.81 1.15-.07-.38.93-.76 1.08-1.2.06Zm2.32 2.25s-.08-.31-.12-.48a6.76 6.76 0 0 1 0-.68c0-.11.09-.12.11 0a2 2 0 0 1-.04 1.15Zm1.26 1.74a6 6 0 0 1-.24-1.27c-.05-1.25.1-1.42.25-1 .06.16.12 1 .18 1.6-.05.7-.12 1.03-.24.66Zm2.22 1.71c-.34.15-.68.6-1.24-1.13.35-1.95.66-2.48 1.07-1.54a5.5 5.5 0 0 1 .25 1.33 5.13 5.13 0 0 1-.13 1.33Zm8 4.56Zm2.14-.27s-.08-.26-.12-.42v-.58c0 .15.07.3.11.45a4.81 4.81 0 0 1-.02.54Zm3.17 2.77v-.63.87a2.14 2.14 0 0 1-.03-.21Zm2-3.27a.69.69 0 0 1 .07.13c0 .09 0 .4.06.61-.08-.26-.13-.51-.17-.75Zm3.21 3.1c0 .14-.07.08-.11.11 0-.25-.08-.54-.08-.72 0-.76.07-.81.17-.13a6.21 6.21 0 0 1-.02.73Zm1.75 1.27c-.18 0-.42.13-.55-1.21-.16-1.82.09-2 .26-2a1.61 1.61 0 0 1 .94.37c-.18 1.63-.37 2.77-.69 2.83Zm.78-1.32c0-.32-.07-.93-.1-1.47 0 .29 0 .64.07.85.08.79.08 1.11-.01.61Zm6 3.51c0 .09-.07.28-.11.25-.48-.31-.94-.62-1.4-.34-.89.55-1.9-.74-2.87-1.36a6.09 6.09 0 0 1-.22-1.37 5 5 0 0 1 .1-1.4 3.93 3.93 0 0 1 1.64-.71 3.45 3.45 0 0 1 2 .38 6.74 6.74 0 0 1 .73 2 15.54 15.54 0 0 1 .17 1.77 4.59 4.59 0 0 1-.05.77Zm1-1c-.23-.07-.39-1-.46-2.46a4 4 0 0 1 .1-1.25c.21-.1.39.78.45 2.35a12.26 12.26 0 0 1-.09 1.35Zm-46.3-57.02v.29Zm-4.94 35.34v.24c.18.35.35.7.52 1v-.3l-.51-1v.3Zm46.38 50.8v-.29.35a6.54 6.54 0 0 0-.72-2.63c-2.2-1.93-4.4-3.59-6.62-5.84-2.7-2.75-5.29-2.78-8-5-.93-.75-1.8-.14-2.71-.73-1.16-.75-2.27-.17-3.48-2.17a1.91 1.91 0 0 0-1.6-1.14 25.36 25.36 0 0 1-5.13-1c-.38-.1-.78-.87-1.17-1.34.37 3.23.8 5.34 1.34 5.69 1.41.91 2.89 4.19 4.31 5.06.63.38 1.28 1.19 1.9 1.38.24.07.49.26.72.06.49-.46 1 3.8 1.47 3.13s.79-.81 1.25-.39c1.08 1 2.15 1.68 3.22 2.52 1.76 1.37 3.55 3.71 5.29 4.39 2.12.84 4.26 2.28 6.39 3.18a8.2 8.2 0 0 0 3.27.38c.18 0 .32-.74.48-1.14v.26-.26c-.06-1.49-.14-2.98-.21-4.47Zm-29.44-19.85v-.1.14-.21Zm128.47 5.97c-.56.77-1.19.58-1.75 1.19-1.46 1.58-3.07.72-4.53 2.13-.84.81-1.57 3.06-2.49 2.78-.66-.2-1.25 1.31-2-1.49-.09-.33-.26-.61-.28-.35-.3 3.84-1.08 1.59-1.61 2.44a18 18 0 0 1-1.69 2.26c-.61.72-1.24 1.28-1.85 2a6.22 6.22 0 0 0-.07 1.47 8.15 8.15 0 0 0 .22 1.57c.58.48 1.18 1.09 1.74 1.12a4.51 4.51 0 0 0 3.08-.55c.65-.46 1.39 1.62 2 1s1.05-2.41 1.64-2.87c2-1.54 4-2.1 6.16-.35.93.75 1.66-.46 2.35-3.55a10.09 10.09 0 0 0 .28-4.45c-.24-3.07-.69-5.03-1.2-4.35Zm-70.22 9.63c-.65 1.35-1.42-.65-2.12-.74s-1.39.38-2.1.3c-.47-.06-1-.79-1.45-1-1.23-.45-2.46-.71-3.69-1.15-.76-.27-1.56-1.53-2.28-.73a5.06 5.06 0 0 0-1 2.72 9.1 9.1 0 0 1 2.9 3.69c.54 1.09 1.09 1.18 1.6 1.1s1.14.3 1.74 1.05 1.05 2.63 1.46 2.22a5.41 5.41 0 0 0 1.3-1.43c.87-1.62 1.94 1.32 2.85.69.08-.06.19.43.29.66.24.55.51 2.71.71 1.6a38.61 38.61 0 0 0 .42-3.93c.12-1.81-.35-5.63-.63-5.05Zm-10.77 9.57c-1 .53-2.17-2.17-3.19-1.78-.3.12-.91-2.55-.79 2.12 0 .25-.14.61-.22.42-1.62-3.91-3-2-4.46-2.2-.52-.08-1 0-1.6-1.31-.32-.74-.61-1-.84-.12-.46 1.74-1.34-1.84-1.62 2.23.71 2.79 1.06 3.86 1.68 4.22 1.35.78 2.74 2.61 4 1.37 1.06-1 2.23-.52 3.38-.17.5.15 1.09 2.27 1.41-.68.07-.65.36-.3.55 0 .9 1.41 1.54-.15 2.09-3.07-.12-.42-.28-1.09-.39-1.03Zm19.24-9.36c-.5-2.7-1-3.21-1.4-2.09-1 2.84-2.3 1.6-3.51 1.28-.43-.11-.88-.72-1.21.54a9.08 9.08 0 0 0 0 2.69 8.65 8.65 0 0 0 .24 1.23c.29.61.61 1.4.88 1.42a3.35 3.35 0 0 1 2.31 1.23c.28.31.6.42.82-.25.37-1.18.77-.9 1.24.34.33.88.56.1.8-.41a5.27 5.27 0 0 0 .25-2.52 29.81 29.81 0 0 0-.42-3.46Zm26.83-51.01a1.37 1.37 0 0 0-1.37.51c-.64.78-1.18 3.3-2 1.41s-1.28 1.94-2 .63v-.18c-.73-.08-1 3.61-1.5 5.7a3.53 3.53 0 0 1 .68.59c.88 1.13 1.7 2.17 2.45-.14.61-1.91 1.49-1.62 2.29-1.48s1.39-1.44 1.89-4.25c-.08-1.34-.22-2.77-.44-2.79Zm.43 3.01v-.29.29Zm-45.31 6.37c.24 0 .47-.24.71.07 1.42 1.82 2.6-.63 3.92-.45.13 0 .26-.42.34-1a8.83 8.83 0 0 0-.12-2.54c-.25-1.21-.53-1.82-.71-1-.44 2.15-1 1.59-1.63 0-.24-.61-.49-.48-.72-.58-1.69-.66-3.18 2-4.81 2.24-.26 0-.19 2-.2 3.41Z" transform="translate(-188.35 -879.46)"/>
  <path class="cls-1" d="m216.69 965.6.1.17h-.11l1.18 1.12c.39 1.37.76 2.63 1.15 2.06a6.79 6.79 0 0 1 1.59-1.45c0-1.42-.22-2.11-.34-2.11-1.23 0-2.55-3.26-3.82-4.68a16.56 16.56 0 0 1-1.64-2.38c-.46-.76-.83-.31-1.13 1.12.42 3.67 1 5.08 1.48 5.55a3.74 3.74 0 0 0 1.54.6Zm40.87 35.99h-.05c0 .12 0 .24.05.36Z" transform="translate(-188.35 -879.46)"/>
  <path class="cls-1" d="M251.82 999.55a12.38 12.38 0 0 0 .84 3.54v.28c.09-.37.17-.74.26-1.11v-.2c.77.41 1.56 1.13 2.11-1.75.06-.3.2-.54.25-.28.91 5.42 1.39-.22 2.16 1.48 0 .07.06.07.09.07-.62-4-1.26-5-1.95-5.33s-1.16 1.33-1.86-2.07c-.07-.35-.23-.5-.27-.21-.38 2.87-1 2.57-1.61 2.36a9.66 9.66 0 0 0-.02 3.22Zm44.65-26.3c-.1-.19-.2-.26-.29-.27-.29 0-.53.51-.67 1.95a1.12 1.12 0 0 0 .05.13h-1.3v-.25c-.09.36-.18.73-.26 1.1v.18l-1.92-.63c.45 4.43.9 7.14 1.56 7 .23 0 .52.52.69 0 .71-2.37 1.48-3.83 2.37-4 .2 0 .2-1.64.11-3.09a7.05 7.05 0 0 0-.34-2.12Zm-85.42-14.4v-.05a.52.52 0 0 0 0 .11Zm-.05-.05a21.22 21.22 0 0 0-.49-2.88c-1.39-2.51-2.78-4.81-4.18-7.07-.12-.21-.24.1-.36.23a14.11 14.11 0 0 0 .94 3.86c1.4 2.49 2.78 5.24 4.09 5.86Zm32.58 65.8c-.8-2.82-1.46-3-2.05-1.22.07 1.49.15 3 .23 4.47 1 1.54 2 1.92 3 1.63a1.93 1.93 0 0 0 .16-1 4 4 0 0 0-.31-1.94 6.25 6.25 0 0 1-1.03-1.94Zm34.17-50.33c.43.28.79-1.21.72-2.48-.12-2-1.06-5.79-1.35-5.22a16.44 16.44 0 0 0-.64 2.17 8.36 8.36 0 0 0-.22 1 10.42 10.42 0 0 0 0 1.51 6.86 6.86 0 0 0 .22 1.49 6.27 6.27 0 0 0 1.27 1.53Zm13.19 3.01-1.09-.46c-.24-.1-.44.09-.5 1.71v.54-.81c0 1.1-.13 2.11-.14 3.32 0 1.81.29 3.81.5 3.3a10.81 10.81 0 0 0 1.53-5.62c-.11-.64-.21-1.28-.32-1.92Zm.31 2.08V979a2.28 2.28 0 0 0 0 .26Zm43.96 20.64c.34-.91.71-1.63 1-2.69a11.87 11.87 0 0 0 .07-2.29 6.55 6.55 0 0 0-.36-1.9c-.65.39-1.36.19-1.65 4.23.56 3.65.56 3.58.94 2.65Zm-.92-2.82v.36-.23Zm-62.56-24.73a13.84 13.84 0 0 0 .49 2.87c.57 1.36 1.09 1.59 1.29-1.89 0-.76.07-1.57.15-3.24-.69-.24-1.25-1.17-1.7-.08a4 4 0 0 0-.23 2.34Zm14.27 45.89c-.39-.6-.77-1-1.07.13 1.19 4.59 2.24 5.71 3.15 2.25a6.91 6.91 0 0 0-.73-2.79c-.42 1.07-.86 1.2-1.35.41Zm25.29-11.49c-.49 0-.8 1.72-1.11 3.38.33 1.08.65 2.28 1 3.16s.62-.47.63-2.9c-.01-1.67-.29-3.65-.52-3.64Zm-115.63-33.28v.3a.37.37 0 0 1 0-.09Zm2.34 4.59c-.85-2.33-1.42-4.3-2-5.44-.1-.2-.2.61-.29 1.06a23 23 0 0 0 .29 2.4c.57 1.64 1.17 2.98 2 1.98Zm130 22.56a3 3 0 0 0-.05.76c0 .28.05.62.08.93s.21.77.3.79a5.27 5.27 0 0 0 1 0c.21 0 .58 1.14.45-1.53-.08-1.48-.35-1.6-.54-1.66-.49-.16-.93-.38-1.24.71Zm-78.47-9.88a9.93 9.93 0 0 0 0-1.66c-.19-2.29-.62-3.63-.89-2.77a8.93 8.93 0 0 0 0 2.48c.22 1.94.69 3.02.89 1.95Zm-46.29-47.29a13.39 13.39 0 0 1-1.44-2c-.37-.7-.74-1.82-1.12-2.78 1 6.88 1.11 7.03 2.56 4.78Zm-2.62-5.21a2.26 2.26 0 0 0 0 .26l.06.18Zm92.62 7.91a4.18 4.18 0 0 0 .24 1.22c.08.08.16-.29.21-.69a18.68 18.68 0 0 0-.08-4.38c-.26-1.89-.54-3.62-.81-5.4l-.21.87c.33 2.62.49 5.49.65 8.38Zm-92.75 37.07v.33c0-.07 0-.14.05-.21l-.05-.06Zm-1.49-4.6a2.73 2.73 0 0 0-.13 1.11 7.56 7.56 0 0 0 .19 1.52 2.55 2.55 0 0 0 .43.91c.33.41.65.72 1 1.06-.43-3.63-.94-4.5-1.49-4.6Zm63.82 23.54a5.34 5.34 0 0 0 0-.89c-.17-1.44-1-2.14-1.44-1.1 0 0 .08 1.08.13 1.71a.57.57 0 0 0 .24.13c.35.02.81 2.08 1.07.15Zm-18.13-25.57v-1.59a2.56 2.56 0 0 0-.13-.67 4.88 4.88 0 0 0-1-.83c-.07 0-.18.39-.17.81a5.35 5.35 0 0 0 .3 2.14c.38.57.72.97 1 .14Zm74.67 73.31a4.8 4.8 0 0 0 0 .81 4.88 4.88 0 0 0 .1.84c.45.82.84.52 1.34-.61-.67-1.81-1.09-2.28-1.44-1.04Zm-69.14-63.39a9.09 9.09 0 0 0 0 2.56c.23 1.83.68 2.24.75.7 0-.42-.05-1.24-.08-1.9-.22-1.37-.46-2.14-.67-1.36Zm85.69 49.26c-.34-.88-.5.39-.69 1.32a5 5 0 0 0 0 .77 4.39 4.39 0 0 0 .24 1.12c.22.05.44-.15.63-.23a16.51 16.51 0 0 0 .07-1.68 5.3 5.3 0 0 0-.25-1.3Zm-46.23-42.29c-.09-.21-.21-.27-.26 0a11.84 11.84 0 0 0 .06 2.69c.19 1.57.41 2.74.66 2.46a8.55 8.55 0 0 0 .06-2.42 9.56 9.56 0 0 0-.52-2.73ZM306 957.15c0 .34 0 1.18.06 1.79.3 2.22.74 2.44.81.35a10.89 10.89 0 0 0-.11-1.75c-.21-1.42-.61-1.63-.76-.39Zm-110.8-1.55c-.18-3.72-.22-4-.7-4.45a1 1 0 0 0-.64-.19 41.4 41.4 0 0 0 1.48 7.1c-.05-.82-.11-1.64-.14-2.46Zm46.72 20.96c0-.64 0-1.43-.09-1.73-.22-1.3-.48-2-.72-2-.07 0-.16.49-.16 1a14.59 14.59 0 0 0 .14 1.79c.31 1.81.57 1.25.83.94Zm17.86 24.14v.92a5 5 0 0 0 .26 1c.18 0 .36-.2.53-.39a3.08 3.08 0 0 0 .05-1.4 3.89 3.89 0 0 0-.12-.74c-.3-.86-.57-.95-.72.61ZM311 966.91c.25 1 .36-.09.5-.45.32-.77.31-1.25-.05-3.29-.17-.93-.35-1.74-.51-2.59.12 2.25-.11 3.89.06 6.33Zm-15.91-15.81a3.94 3.94 0 0 0 .19-.84c-.07-.45-.14-1.14-.2-1.33-.24-.65-.49-1.42-.68-.71v1.54c.25 1.24.48 1.64.69 1.34Zm45.72 43.77v-.17Zm1.11 2.6a4.39 4.39 0 0 0-.39-1.87 4.72 4.72 0 0 0-.7-.71c.2 1.21.4 2.53.61 3.55s.39 1.07.49-.08a6.73 6.73 0 0 0-.01-.89Zm-131.26 4.45c.25 2.65.55 4.77 1 4.86s.39-1.41.42-3.2c-.4 1.97-.95-1.26-1.42-1.66ZM250.82 974c-.26-.22-.45.16-.29 2.36.11 1.5.31 1.92.48 1.37a10 10 0 0 0-.08-3.72v-.09s-.06.13-.11.08Zm56.18-5.11c-.28.16-.36 1.7-.43 3.23.31.66.55.3.78-.36a5 5 0 0 0 .05-2.06c-.07-.6-.26-.87-.4-.81Zm-.42 3.49v-.26Zm-35.02 48.39a23.19 23.19 0 0 0 .49 4.27c.05.16.12-.46.19-.74a20.13 20.13 0 0 0-.51-4.15c-.11-.47-.21-.15-.17.62Zm-23.45-44.41v-.42.53Zm-.03.13a18.74 18.74 0 0 0-.56-2.06c-.16-.37-.45-1.37-.37.76a9.4 9.4 0 0 0 .37 2c.27.91.41-.03.56-.7Zm51.58-27.4a5.86 5.86 0 0 0 .07-.74 13.2 13.2 0 0 0-.18-1.52c-.14-.33-.29-.47-.42-.38a4 4 0 0 0-.1 1.19 5.38 5.38 0 0 0 .24 1.33c.14.23.27.1.39.12Zm33.68 46.08a6.37 6.37 0 0 0-.08 1.35 3 3 0 0 0 .25 1.1 1.86 1.86 0 0 0 .73-.41c-.18-1.21-.35-2.42-.53-3.63v-.11c-.11.53-.25 1.05-.37 1.7Z" transform="translate(-188.35 -879.46)"/>
  <path class="cls-1" d="M334.29 997.18h-.05l.05.33Zm-80.81-21.42c.39.09.85 1.34 1.19-.27-.61-2.67-.97-2.37-1.19.27Zm48.01-28.58c.22-.22.66 1.72.6-1.21a13 13 0 0 0-.65-2.13c-.16 1-.31 2-.47 3.06.18.15.36.43.52.28Zm-96.8 1.67v-1.66c-.14-.13-.28-.4-.4-.31a7.4 7.4 0 0 0 0 1.39c.11 1.44.27 1.33.4.58Zm103.98 20.33c-.16 0-.42-1.49-.46.24a11.83 11.83 0 0 0 .18 1.72c.22 1.13.4 1.11.5 0 0-.44 0-1.14.05-1.72v-.11a2.09 2.09 0 0 0-.27-.13Zm-74.78 4.12c-.06-.55-.11-1.37-.18-1.6-.16-.52-.29-.33-.26.89a4.85 4.85 0 0 0 .24 1.25c.07.16.13-.34.2-.54Zm20.46 17.36c.05.74.14 1.14.24 1s.39 0 .37-1.64a3.74 3.74 0 0 0-.25-1.1c-.2-.17-.32.48-.36 1.74Zm25.35-22.76a1.88 1.88 0 0 0-.14.89 8.19 8.19 0 0 0 .18 1.47c.24.84.42.48.6 0-.2-1.26-.4-2.34-.64-2.36Zm.64 2.32v.2-.31Zm50.32 27.52a11.5 11.5 0 0 0-.19 1.79l.27 2.26v-.19c.09 0 .18 0 .26-.07a3.71 3.71 0 0 0 .17-1.86c-.12-1.54-.33-2.2-.51-1.93Zm-47.34 22.06-1 4.7c.86.72.89-2.25 1-4.7Zm-9.73 23.49a8.33 8.33 0 0 0 .1 2.66c.11.52.26.81.33 0a9.34 9.34 0 0 0-.18-2.55c-.07-.34-.21-.4-.25-.11Zm-8.05-41.43a21.25 21.25 0 0 0 .1 2.59c.12.8.27.64.36 0a11.19 11.19 0 0 0-.13-2.54c-.14-.72-.3-1.18-.33-.05Zm26.46-6.75v.28Zm-.68-1.51a12.51 12.51 0 0 0 .09 1.72c.19 1.38.35 1.34.48.44 0-.14 0-.31.05-.47s-.07-.44-.11-.64c-.17-.92-.36-2.04-.51-1.05Zm18.84-25.03c0-.72-.07-1.35-.18-1.28a6.63 6.63 0 0 0-.14 1c.09.26.17.6.25.75s.07-.23.07-.47Zm-.87-15.89c-.12 0-.15.54-.07 1.27.11 1 .25 1.36.43.66a5.77 5.77 0 0 0-.08-1.33c-.08-.39-.19-.56-.28-.6Zm-63.18 9.46v.2-.37.17Zm.89 2.51c-.26-1.92-.56-1.08-.83-2.31 0 .24-.11.48-.16.72.47 1.94.49 1.94.99 1.59ZM221.68 968a4.25 4.25 0 0 0 0-1.51c-.08-.36-.2-.43-.28-.32a3.17 3.17 0 0 0 0 1.42c.07.32.18.24.28.41Zm33.11-2.27c.09 0 .15-.32.23-.48-.07-.47-.12-1.16-.19-1.36a10.73 10.73 0 0 0-.53-1.24c.11 1.46.18 3.25.49 3.08Zm-.49-3.08v-.07Zm4.21.92a.51.51 0 0 0 0 .13Z" transform="translate(-188.35 -879.46)"/>
  <path class="cls-1" d="M259 965.31a1 1 0 0 0 .08-.45c0-.54-.08-1.33-.14-1.56-.2-.74-.34-.25-.47.27.21.93.38 1.85.53 1.74Zm81.3 32.82a3.82 3.82 0 0 0 .11.69c.17.47.27 0 .31-.71 0-1 .06-2.1.08-3.22-.13.41-.27.84-.41 1.22a5.43 5.43 0 0 0-.09 2.02Zm.51-3.36v.1s-.01-.15 0-.1Zm-82.63 7.82a6.13 6.13 0 0 0-.23-1.13c-.12 0-.22.2-.33.38.13.51.25 1.06.37 1.37.07.16.13-.39.19-.62Zm-.56-.75-.06-.25v.35Zm12.75-28.73.24 1v-1.46a1.55 1.55 0 0 0-.12-.46c-.12-.19-.16.14-.12.92Zm-24.71 2.2v1.34c.09.2.2.6.27.55a4.39 4.39 0 0 0 .3-2c-.23.03-.4-.05-.57.11Zm38.79-7.46v-.52.73c0-.11.05-.18.08-.27Zm.72-.71c.17-.78-.23-.8-.63.67.23-.09.46.02.63-.67Zm2.76-12.65a3.35 3.35 0 0 0 0-.72c-.11-.93-.24-1.32-.38-1s0 .59 0 .74c.12.98.26 1.38.38.98Zm16.72.99c0-.17-.12-.22-.12-.15v1.54a9.42 9.42 0 0 0 .41 1v.09c-.08-.81-.18-1.67-.29-2.48Zm17.14 49.22a3 3 0 0 0 0 1.37c.06.32.16.21.24.29a4.26 4.26 0 0 0-.09-1.54c-.06-.15-.12-.19-.15-.12Zm3.31-10.38-.06.19a.86.86 0 0 0 .07.1Zm-.64.05c0 .75.1 1.47.2 1.31a6.18 6.18 0 0 0 .38-1.17 8.34 8.34 0 0 0-.5-.67s-.08.29-.08.53Zm-24.25 27.18a3.48 3.48 0 0 0 0 .73c.13 1 .27 1.29.4 1s0-.62 0-.77c-.13-1.07-.27-1.33-.4-.96ZM296.66 949c0 .18 0 .5.06.76.11.54.18.5.19-.17a6.15 6.15 0 0 0-.07-.75c-.1-.54-.17-.49-.18.16Zm-34.25 40.59s-.09.14-.09.34a3.55 3.55 0 0 0 .18 1.45 1.22 1.22 0 0 0 .08-.4 2.79 2.79 0 0 0-.17-1.39Zm-6.32 25.32v-.07.14c0-.14 0-.27-.05-.41.06.15.06.24.05.34Z" transform="translate(-188.35 -879.46)"/>
  <path class="cls-1" d="M255.78 1017.08c.07-.1.17 0 .2-.33 0-.53.08-1.2.11-1.84a5.26 5.26 0 0 0-.28.87c-.04.22-.02.86-.03 1.3Zm30.69-52.29c.16 1.51.34 2.82.56 3.92-.18-1.25-.36-2.5-.54-3.78v-.12.07Zm-.34-.54a4.91 4.91 0 0 0 0 .86c.18 1.11.22 0 .31-.32-.09-.66-.21-1.41-.31-.54Zm52.03 32.37c-.07-.35-.14-.66-.21-1v.61c.06.35.13.65.2 1-.01-.23.01-.59.01-.61ZM318.17 1051s.07.32.11.49c0-.42 0-.83.05-1.28 0 0-.07-.32-.11-.49-.02.4-.04.81-.05 1.28Zm-.73-.36c-.12-.23-.16.13-.15.9 0 .28.07.76.09.82.12.23.17-.12.14-.9a7 7 0 0 0-.08-.82Zm-49.16-74.36a2.53 2.53 0 0 0 .26.4v-.88a2.23 2.23 0 0 0-.26-.41c-.02.31-.01.87 0 .89Zm1.5-1.83a3.55 3.55 0 0 0-.1-.73c-.14-.42-.18-.11-.08.76a2.1 2.1 0 0 0 .13.51 3.39 3.39 0 0 0 .05-.54Zm22.67-24.31.06.07c0-.11-.05-.23-.07-.35s0-.06 0-.05Zm.55 1.03a1.82 1.82 0 0 0-.12-.52 3.19 3.19 0 0 0-.34-.44c.1.47.2.95.31 1.35s.15.28.15-.39Zm-19.52 35.58a7.81 7.81 0 0 0-.13 1c.08 0 .19.29.24.08.08-.4.15-1 .22-1.54a1 1 0 0 0-.33.46Zm.35-.59a1.11 1.11 0 0 0 0 .17v.62-.62Zm-17.4 31.16c.07.45.23 1 .26.79a3.43 3.43 0 0 0-.14-1.37c-.14-.47-.26-1.09-.39-1.71.08.79.17 1.61.27 2.29Zm46.3-59.02s-.07.21-.08.44a3.2 3.2 0 0 0 .15 1.44c0 .05.06-.27.08-.42a3.42 3.42 0 0 0-.15-1.46Z" transform="translate(-188.35 -879.46)"/>
  <path class="cls-1" d="m94.77 88.31.08-.03-.07-.47-.01.5zm-44.68 6.95.04.74.06-.43-.1-.31zm-1.04-10.94.07.46.01-.5-.08.04z"/>
  <path class="cls-1" d="M213.65 959.41v.15-.26a2.25 2.25 0 0 0 0 .22Zm-.04.14c-.26-.12-.55-1.47-.79-.94.31 2.01.56 1.88.79.94Z" transform="translate(-188.35 -879.46)"/>
  <path class="cls-1" d="m118.46 68.54.08.5v-.52l-.08.02zm.46 8.24.11.39-.05-.74-.06.35zM98.33 75l.13.16-.09-.75-.04.59z"/>
  <path class="cls-1" d="M249.8 965.05c0-.13-.08 0-.11 0 0 .27 0 .53.05.79l.11-.05c-.01-.25-.03-.64-.05-.74Zm2.2 10.61c0-.25.05-.55.08-.84l-.2.8s.12.16.12.04Zm.09-1.38v.54l.06-.29v.49-.51Zm-51.37 8.6a3.18 3.18 0 0 0-.14.54 1.86 1.86 0 0 0 .22.25s.12 0 .11-.08c-.01-.59-.09-.94-.19-.71Zm128.69 3.39c-.12-.39-.17-.14-.12.69 0 0 .08 0 .12.08 0-.27.01-.76 0-.77Z" transform="translate(-188.35 -879.46)"/>
  <path class="cls-1" d="m103.25 87.48.04.52.05-.32-.09-.2z"/>
  <path class="cls-1" d="M257.16 991a3.8 3.8 0 0 0 0-.54c0-.15-.08-.44-.11-.43a3.75 3.75 0 0 0 0 .53c.04.11.08.44.11.44Z" transform="translate(-188.35 -879.46)"/>
  <path class="cls-1" d="m78.41 94.04.05.68.06-.42-.11-.26z"/>
  <path class="cls-1" d="M289.05 911.8c-.09-.17-.11.23 0 1 0 .4.08.8.13 1.19v-1.38c-.09-.25-.11-.78-.13-.81Zm-17.13 89.48a2.06 2.06 0 0 0-.17-.39l.25 1.11a5.52 5.52 0 0 0-.08-.72ZM268 961.49a1.4 1.4 0 0 0 0 .23v-.25Zm.07.21c.07.5.14 1.06.21 1.36s.17.15.25.2a11.87 11.87 0 0 0-.2-1.27c-.08-.24-.17-.23-.26-.29Z" transform="translate(-188.35 -879.46)"/>
  <path class="cls-1" d="m82.17 81.61.07.57.01-.48-.08-.09z"/>
  <path class="cls-1" d="M326.2 991.79v.18l.08.15c-.03-.12-.06-.24-.08-.33Z" transform="translate(-188.35 -879.46)"/>
  <path class="cls-1" d="m326.56 992.57-.29-.49c.07.25.13.5.2.69s.06-.13.09-.2Zm-.74 11.03h.06c0-.11 0-.2-.06-.29Zm.37.74a4.83 4.83 0 0 0-.1-.7.21.21 0 0 0-.21 0c.12.5.2 1.17.31.7Zm9.16 21.73c0-.27 0-.74-.06-.78-.13-.28-.15 0-.06.82Zm-124.68-24.13-.12 1.23c.03-.42.07-.82.12-1.23Zm.38-43.14c.19-.72.38-1.48.57-2.24-.27.01-.46.69-.57 2.24ZM237 973.1v-.3c.1.2-.18.04 0 .3Zm14.49-8.1Zm.03.21c.06-.47 0-.28 0-.2v-.54.52Zm6.79-.91c.15.62.13-.2.17-.61Zm9.69-2.58-.21.45c.21.93.21.07.21-.45Zm6.83 6.83Zm-.03-.17v.2l.05.55v-.53a.12.12 0 0 1 0-.05Zm8.69 52.91-.15-1.55c.04.52.1 1.04.15 1.55Zm-4.11-64.98c.1.54.1.17 0-.69 0-.22-.06-.6-.08-1v-.2.14c-.01.66.01 1.44.08 1.75Zm7.8 13.13v-.22.2c-.05-.22-.1-.46-.15-.71 0 .32.09.63.13.94Zm-1.53-17.79c-.06-.39-.14-.73-.21-1.09l.25 1.79a6.64 6.64 0 0 0-.04-.7Zm13.05 24.67c0-.14 0-.26-.06-.38 0 .21 0 .42.07.64a1.16 1.16 0 0 1 0-.18h-.05Zm-.22-1.48c0 .37.11.73.16 1.1l-.15-1.63c0 .18-.02.44-.01.53Zm-.9-26.75h.06l-.13-.31a1.48 1.48 0 0 0 .07.31ZM305 958a.9.9 0 0 0 0-.13l.07.94c-.07-.22-.07-.47-.07-.81Zm8.05 5.52c0 .43-.09.87-.13 1.3.27.69.22-.18.13-1.3Zm0 0a2 2 0 0 1 0-.23l-.06-.13c.01.12.01.24.06.36ZM326.18 992c-.07.24-.13.48-.2.73.19.79.15-.31.2-.73Zm-10.04-106.38v.07c.07-.19.13-.38.19-.58Zm-3.25 79.08v-.22.54-.2a.41.41 0 0 0 0-.08Zm-3.95 4.75.11.06a1.29 1.29 0 0 0-.09-.16ZM306 941.34v.06h.07v-.12.05Zm.07 29.71v.29l.51 1v-.29Zm4.03 38.49v.72-.06Zm-9.2-62.96v.25-.25Zm.02.25v.29-.23h-.05Z" transform="translate(-188.35 -879.46)"/>
  <path class="cls-1" d="m111.9 91.25-.01.18.1-.13-.09-.05z"/>
  <path class="cls-1" d="M297.72 948.82v-.73h-.05l.05.13Zm-2.25 18.23v.52-.52Zm-6.38-44.75c-.13-.27-.26-.55-.38-.83.06.54.13 1.08.19 1.62.1-.26.1-.53.19-.79ZM288 916l-.05-.11v.32a1.48 1.48 0 0 0 0-.21Zm45.74 77.48v.1h.1Zm-43.23-41.2v.56-.32a1.54 1.54 0 0 0 0-.24Zm-1.26.23v.3-.61.31Zm5.31 46.49v.27-.68.41Zm-3.31-20Zm-.25-1.7.12.08a.62.62 0 0 1-.12-.08Zm-3.65 40.61h-.08v.07Zm-2.5.02v.59a.24.24 0 0 0 0-.08v-.15Zm-9.75-57.66-.06-.15a1.56 1.56 0 0 1 .06.15Zm-3 1.8Zm-.46 38.26c-.15-.72-.29-1.42-.44-2.12v.57-.37c.16.76.31 1.52.46 2.26l.1.22-.11-.53ZM260.79 990v.66-.48l.08-.09Zm-3.56-24.71a1.38 1.38 0 0 0 0-.14 1.09 1.09 0 0 0-.05-.17l.06.52Zm-.23-2.42v-.18l-.06-.13c-.01.11 0 .21.06.31Zm.17 2.13c-.07-.69-.15-1.4-.22-2.11l-.12 1c.17.34.23.71.34 1.11Zm4.28 36.93v.08h.07v-.01Zm-4.64-38.15v.31-.31Zm.7 14.07c-.15-.7-.3-1.38-.45-2.06v.49-.23c.16.73.31 1.46.47 2.16v-.33Zm2.49 51.8v-.14a2.07 2.07 0 0 0 0 .22.36.36 0 0 0 0 .11v-.19Zm-6.57-54.27v.6a2.11 2.11 0 0 0 0-.25Zm4.23 43.11v-.38.69-.23ZM251 973.94v.08l.13.08Zm-4.79 1.63v-.59a2.35 2.35 0 0 1 0 .26v.33Zm-.21 52.85v-.23l-.1-.16.11.33v.55s-.01-.47-.01-.49Zm87.62-81.32v-.28.24Zm.01.29v-.23.23Zm-101.04 25.82v.51-.51Z" transform="translate(-188.35 -879.46)"/>
  <path class="cls-1" d="m41.52 78.15.02-.17-.09.2.07-.03z"/>
  <path class="cls-1" d="M334.12 912.93v.26-.76Zm-121.33 45.46v.33-.32Zm-1.09-1.17v-.82.2h.06Zm-5.7-8.1a2 2 0 0 1 0-.24v.28Zm-5.38-10.52a2.26 2.26 0 0 1 0-.26c-.18-.36-.35-.73-.53-1.1v.3l.53 1.06Z" transform="translate(-188.35 -879.46)"/>
</svg>

