<svg id="Layer_1" data-name="Layer 1" xmlns="http://www.w3.org/2000/svg" viewBox="0 0 137.52 168.22"><defs><style>.cls-1{fill:#0f0619;}</style></defs><path class="cls-1" d="M281.28,1135.73c-.29,0-.51.25-.55.89,0,.38,0,.67.24.81.54.36.54.38.33,1.22l-.6,2.34a.2.2,0,0,1-.23.16c-.06,0-.12-.19-.17-.32a.71.71,0,0,1,0-.26c0-.31.13-.79-.13-.85s-.26.4-.3.75a14.45,14.45,0,0,0-.2,3.31c0,.24,0,.56-.2.57s-.15-.15-.22-.25-.19-.43-.3-.46-.21.28-.23.56a7.9,7.9,0,0,1-.32,2l0-.07a7.25,7.25,0,0,0-.43,1,1.74,1.74,0,0,0,.06,1.23c.15.29.33.2.51.12a3.16,3.16,0,0,0,1.35-2c1.12-3.25,2.14-6.66,3.39-9.68a3.4,3.4,0,0,0,.19-.7,70.52,70.52,0,0,0,1.53-11.47c.05-1.24.16-2.47.26-3.69.05-.5.19-.52.44-.16.1.15.22.39.32.37s.14-.38.15-.64v-1.61h0a6.42,6.42,0,0,1,.67,2.88,22.14,22.14,0,0,0,.21,3.69c.12,1.59.05,3.18.1,5.31a13.92,13.92,0,0,0,.48-6,9.54,9.54,0,0,1-.09-1.87c0-1.61,0-3.21-.08-4.83a8.12,8.12,0,0,1,.3-3.07c.08-.25.28-.46.43-.45s.25.42.19.79a3.93,3.93,0,0,0,.07,1.57,8.28,8.28,0,0,1,.11,2.38,88.47,88.47,0,0,0,.4,10.43,3.75,3.75,0,0,1,0,1.76c-.18.48,0,1.43-.49,1.61-.1,0-.14.6-.2.92-.24.5-.48,1-.71,1.51a3.13,3.13,0,0,0-.42,1.59c.09,1.42-.81,1.88-.65,3.29a2.63,2.63,0,0,1-1.2,1.47l0-.06.39,1.79c-.39-.09-.76.18-.89.85-.22,1.11-.79,1.33-1.12,2.13-.12.29-.31.43-.48.26-.47-.49-.71.12-1,.61a37,37,0,0,0-2.16,4.22,48,48,0,0,1-3.87,6.82c-.79,1.14-1.54,2.42-2.29,3.66a4.56,4.56,0,0,0-.28.9.83.83,0,0,0-1,.49c-.74,1.43-1.73,2.17-2.49,3.54a.86.86,0,0,0-.11.68c.1.37.29.55.45.34,1.13-1.51,2.51-2.42,3.13-5.12.45.59.87.8,1.35.07.84-1.28,1.73-2.44,2.58-3.72a2,2,0,0,0,.47-1.91c-.07-.28.12-.41.25-.39.67.11,1-.59,1.36-1.69.18-.66.42-1.29.88-1.44.81-.26,1.2-1.29,1.16-3a2.25,2.25,0,0,1,.1-.49l0-.05c.16.66.37,1,.71.48a36,36,0,0,0,2.27-3.76,25.49,25.49,0,0,0,1.05-3.56c.47-.55,1.07-.3,1.51-1.28a16.25,16.25,0,0,0,1-8.32c.23.4.43,1,.79.83s.47-.72.54-1.35l.08-.78a25.75,25.75,0,0,1,1.5-6.34,5.14,5.14,0,0,0,.56-1.91l0,0,.46,0-.06,0a5.54,5.54,0,0,1,.57,2.54,4.39,4.39,0,0,0,.17,1.58l.05.42-.06-.46,1.45-.5v0l-.15,1a22,22,0,0,1-1.42,4.6c-.15.38-.36.64-.69,0-.19-.36-.38-.53-.55-.52s-.21.21-.27.56c-.16,1-.3,2-.41,3.05a2.13,2.13,0,0,0,.45,1.55v0c-.08.41-.18.8-.24,1.22a1.42,1.42,0,0,0,.09,1c.19.23.33-.12.41-.4a79.62,79.62,0,0,0,3.07-8.1,63,63,0,0,0,1.83-15.3c0-1.34.06-2.68.13-4,0-.18.12-.43.19-.46s.19.11.23.29.09.65.13,1c.05.59,0,1.59.24,1.58s.18-1,.19-1.69a2.42,2.42,0,0,1,0-.27,1.71,1.71,0,0,1,.09-.38.55.55,0,0,1,.23.33,5.48,5.48,0,0,1,.15,1c.09,1.15.22,2.27.2,3.47,0,.43.07.63.13.55a5.06,5.06,0,0,0,.09-2.76,3.56,3.56,0,0,1-.11-1.1v0l0,.08c0-.35,0-.9.1-.75s.29.38.4.41,0,0-.06-.08,0-.07,0,0l.1,1.81c.06,1,.13,2.22.22,3.61.23,3.2.33,4.53.45,6.14.08.94.17,2,.27,3.15l.07.8,0,.49.06.94c.25,4,.63,7.82,1.12,11.5l.19,1.37.05.33,0,.23,0,.45.21,1.82c.14,1.21.31,2.4.51,3.59.28,1.57.6,3.36.94,5.3.25,1.37.54,2.68.86,3.92.43,1.54.61,2.51.71,2.85l-1-4.09c-.23-1-.45-2.1-.65-3.26l-.13-.88,0-.23-.06-.3-.12-.61-.45-2.45c-.22-1.32-.46-2.91-.65-4.69l0-.15,0,.27c-.09-.82-.08-.68.08.66.21,1.76.37,2.79.61,4.18.17,1,.34,1.89.54,2.87l.42,2.47.26,1.32c.18.73.31,1.32.42,1.79s.29,1.07.41,1.51l.34,1.47c-.21-.85.16.66.25.92l.21.72.21.67c0,.13.13.39.24.71l.17.46.21.58.21.7c0,.05,0,0,0,0l.36,1c.27.69.28.7.49,1.19l.1.21.19.4.2.41.1.28.09.2c-.09-.21-.05-.19-.68-1.51l0,0c-.14-.31-.12-.27,0,0l.24.52c.14.28-.14-.25-.59-1.36-.17-.41-.32-.8-.46-1.25s-.25-.85-.57-1.68c-.24-.66-.37-1.08-.53-1.61.11.4.22.79.33,1.15s.2.78.26,1.09l.15.68A22.71,22.71,0,0,1,306,1173c-.07.31-.05.85-.09,1.27a14.6,14.6,0,0,1-.29,2.27c-.53,1.79-1,4.23-2.07,5.54a1.22,1.22,0,0,0-.15.36,13.14,13.14,0,0,1-1.78,3.31c-1.31,2.25-2.89,4.2-4.38,6.39-.22.32-.45.71-.75.57a1,1,0,0,1-.31-.47.87.87,0,0,1,0-.48,11.75,11.75,0,0,1,.73-1.21c.33-.48.69-.88,1-1.37a1,1,0,0,0,0-.94.34.34,0,0,0-.36-.2c-.12,0-.23.26-.35.39a28.48,28.48,0,0,1-2.95,3.41c-.46.36-.86,1-1.32,1.37a4.77,4.77,0,0,0-.92,1.52.8.8,0,0,0,.15,1c.43.51.47.83.14,1.23s-.62.72-.94,1c-.06.06-.19,0-.25-.08a1.57,1.57,0,0,1-.07-.48.77.77,0,0,1,0-.25c.1-.43.46-.8.15-1.35-.19-.34-.44,0-.65.15a5.77,5.77,0,0,0-.51.39l-5,4.52a1.38,1.38,0,0,0-.35.4,9.45,9.45,0,0,1-3.19,3.08,27.58,27.58,0,0,0-4.09,4,.55.55,0,0,0-.12.14,1.38,1.38,0,0,0-.13,1.19c.1.3.26.52.36.83a1.67,1.67,0,0,1-.21,1.8,4.83,4.83,0,0,1-1.53,1.29c-.78.24-1.06,1.34-1.45,2.3a.93.93,0,0,0,.07.73c.27.54.62.78.89.45a2.56,2.56,0,0,1,.88-.78c.63-.29.63-.33,1.12.9.29.26.58.72.92.29a.7.7,0,0,0,.19-.35c0-.19-.05-.34-.17-.3-.32.12-.64.26-1,.41a4.45,4.45,0,0,1,1.2-2.8l2.37-2.34c.37-.36.76-.6,1.26-.18a9.72,9.72,0,0,1-1.67,2.43c-.37.37-.73.81-1.08,1.24a.92.92,0,0,0-.12.72c0,.27.16.45.31.45a1,1,0,0,0,.56-.11c.76-.5,1.56-.68,2.31-1.11a8.41,8.41,0,0,0,2.68-2.15,26.42,26.42,0,0,1,4-4.25,23.9,23.9,0,0,0,2.78-2.35c.48-.53,1-1,1.48-1.51l1.39-1.41c.94-.94,2-1.89,2.95-3,1.64-1.93,3.3-3.9,4.84-6a75.34,75.34,0,0,0,4.08-6.61,22.38,22.38,0,0,0,1.64-5.26c-.11-1.37.34-1.93.19-3.25a5.21,5.21,0,0,0,.1-.72,2.06,2.06,0,0,0-.17-1c-.13-.3-.2.12-.11.67l.21,1.06-.86-.17,0,.06c0-2.58.14-4.87.07-6.55a4.17,4.17,0,0,0,.35.94c.17.2.1-.22,0-.59a3.09,3.09,0,0,0-.14-.46c-.05-.1-.1-.12-.12-.09a1.26,1.26,0,0,0-.11.28,34.23,34.23,0,0,0-1-3.84l0,.08a1.31,1.31,0,0,0-.06-.64c-.1-.3-.21-.61-.29-.84.25.63.49,1.26.8,2.09l-.78-2-.29-.75.13.35c.27.71.63,1.5,1,2.19a14.33,14.33,0,0,0,.61,1.38c.09.18.13.27-.1-.19s-.16-.35,0,0l.33.66.09.16c-.05-.09.1.18.06.1l-.18-.31-.34-.68-.28-.62a8.14,8.14,0,0,0-.39-.89l-.27-.58-.16-.37-.07-.16-.13-.32-.12-.32c-.06-.13-.25-.64-.41-1.14l-.05-.15c0-.16-.12-.4,0,.08s.35,1,.53,1.47.3.72.46,1.08l.25.53.13.26.08.21.34.78c.19.42.4.81.6,1.18l.32.53a3.74,3.74,0,0,1,.27.46,12,12,0,0,0,.87,1.4c.14.19.28.38.44.57l.28.41c.19.25.4.5.62.74.42.42.52.57.77.81s.24.22.37.32l.1.08,0,0,.05,0a1.79,1.79,0,0,0,.31.22l-.21-.11h0l.1,0,.08,0,0,0-.08,0-.11-.08-.06,0,0,0,.13.1h0l-.09-.07,0,0-.06,0h0l-.06-.06-.23-.18-.23-.2c-.09-.09-.25-.25-.19-.2l-.12-.12-.06-.07h0l-.05-.06-.34-.34-.24-.27a7.08,7.08,0,0,1-.57-.75c0-.07-.18-.23-.37-.49l0,0,.29.37.18.25c.11.16.22.31.31.42l0,0-.19-.24-.16-.22-.16-.24,0,0-.18-.22a12.8,12.8,0,0,1-.8-1.15c-.18-.27-.29-.53-.52-.91l-.41-.69.41.79.42.86a32.14,32.14,0,0,1,1.32,3.25,10.5,10.5,0,0,1,.5,2.85,6.41,6.41,0,0,0,.13.67v-.07c0,.35.1.73.12,1.05a9.18,9.18,0,0,1-.07,1.67c0,.18-.15.19-.28,0a2.45,2.45,0,0,1-.23-.71c0-.45,0-.83-.06-1.28a2.37,2.37,0,0,0-.39-1.18c-.22-.28-.23.1-.26.37a10.69,10.69,0,0,0,.09,2,2.42,2.42,0,0,0,.6,1.68,2.07,2.07,0,0,1,.47,1.54,3.8,3.8,0,0,1-.14.51,9,9,0,0,0-.31,4.13,2.7,2.7,0,0,1-.14.85l0,0c-.25-.51-.56-.9-.76-.51a3.56,3.56,0,0,0-.23,2.93c.11.36.2.73,0,.9s-.38-.18-.57-.38-.19-.06-.29-.09a1.57,1.57,0,0,0-.09.43c.13,1.77-.2,3-1.21,3.52a1,1,0,0,0-.37.4,9.51,9.51,0,0,1-1.7,2,7.3,7.3,0,0,0-1.61,2.24c-.09.19-.27.25-.41.37l-3.22,3c-.19.18-.37.63-.64.21-.06-1.11,0-1.1.53-1.55a1.16,1.16,0,0,0,.38-.41,14.76,14.76,0,0,1,1.41-2.35,4.17,4.17,0,0,0,.75-2.17,1.1,1.1,0,0,0,.31,0c.24-.11.52-.17.45-.8a.32.32,0,0,0-.09-.21c-.33-.2-.44.22-.54.61a4.17,4.17,0,0,0-.08.51.93.93,0,0,0-.93.65,2.62,2.62,0,0,1-1.92,1.76,1.11,1.11,0,0,0-.54.34,32.3,32.3,0,0,0-3.6,3.61,7.6,7.6,0,0,1-1.93,1.92,9.2,9.2,0,0,0-2,1.7,11.86,11.86,0,0,1-1.24,1.14,52.78,52.78,0,0,0-4.33,4.28,5.47,5.47,0,0,0-1.05,3.17c0,.25,0,.54,0,.8-.05,1.24-.25,1.54-.9,1.36a2.41,2.41,0,0,1-.42-.16c-.78-.36-1.52-.4-2.08.9-.08.2-.21.44-.33.46-.89.2-1.51,1.37-2.34,2,.28.61.56,1.18.82,1.74l1-.71c.39-.3.68-1,1.12-1.09.2,0,.4,0,.49.41a.71.71,0,0,1-.15.64c-.43.54-.85,1.13-1.3,1.59s-.55.6-.34,1.25c.11.37.48.51.38,1s-.46.48-.74.39a.61.61,0,0,0-.69.24l0,0a1.9,1.9,0,0,0-1,1.43c-.09.39.09,1,.32,1a.54.54,0,0,0,.67-.22c.31-.41.6-.86.9-1.29l0,.06a1.09,1.09,0,0,1,1.38-.43c.5.21.94-.18,1.4-.33s.52-.72.57-1.38a2.84,2.84,0,0,0-.06-.78,1.57,1.57,0,0,1,.41-1.88c.3-.27.55-.69.85-.94.94-.82,1.88-1.58,2.82-2.37.79.31,1.37-.58,1.95-1.24,1.3-1.5,2.93-2.17,4.15-3.48a1.5,1.5,0,0,1,.68-.38c.12,0,.26.1.27.38a1.49,1.49,0,0,1-.11.69,2.91,2.91,0,0,1-.82.9,7.3,7.3,0,0,0-2.39,1.82,2.32,2.32,0,0,1-.92.61,3.38,3.38,0,0,0-1.55,1.68,11.3,11.3,0,0,1-1,1.46,1.53,1.53,0,0,0-.31,1.33,1.1,1.1,0,0,1-.19.92,2.85,2.85,0,0,0-.67,1.3c-.12.46-.56.8-.34,1.31.32.79.55-.18.83-.37a6.92,6.92,0,0,1,.92-.67,3.52,3.52,0,0,0,2.56-2.78c.1-.4.32,0,.48.19s.26,0,.35-.19v0c.6-.29,1.26-.37,1.69-1.24.66-1.38,1.24-1.56,2-1.46a2.4,2.4,0,0,0,2.22-.93,9.66,9.66,0,0,1,2.68-2,1.29,1.29,0,0,1,1.47.24,6.37,6.37,0,0,1-1.5,1.93,5.58,5.58,0,0,1-1.69,1c-.32.13-.47.34-.52.81a1.73,1.73,0,0,0,.07.74c.09.16.32.28.43.2l1.89-1.35c.69-.46,1.4-.93,2.07-1.43a12.26,12.26,0,0,1,3.22-2l-.05,0a2.38,2.38,0,0,1,.68-1.14c.7-.64,1.46-1.38,2.16-2.08a2.34,2.34,0,0,0,.75-1.4l.11.08-.06,0a4.76,4.76,0,0,0-1.79,1.16,12.8,12.8,0,0,1-1.67,1.39c-.69.4-1.37.9-2.08,1.31a4.58,4.58,0,0,1-2.08.78,7.06,7.06,0,0,1,.7-1.13c.87-.9,1.91-1.76,2.88-2.62s2-1.72,3-2.59c.5-.44,1-.87,1.47-1.33s1-.93,1.49-1.41c1.56-1.62,3.1-3.2,4.58-4.72a5.19,5.19,0,0,0,1.18-1.53,27,27,0,0,1,1.95-3.67,26.73,26.73,0,0,0,1.83-3.41,9.16,9.16,0,0,0,.81-5.11c-.25-1.57.15-2.49-.1-3.81a3.16,3.16,0,0,1,1.07,1.49,15.66,15.66,0,0,1,.94,4c.09,1.2-.25,2.32.42,3.89-.84.18-.69,1.13-1,1.81a17.59,17.59,0,0,0-1.29,3.56c1.06-.5,1.1-.55,1.35-1.27a2.42,2.42,0,0,0-.14-2.33c1.29-.27,1.3-.25.95-1.82a3.91,3.91,0,0,0,.6-1.21c.43-2.49-.43-5.43-1.2-7.82a4.31,4.31,0,0,0-.32-.65,28.46,28.46,0,0,0-5.71-7.3c-.53-.49-1.21-1-1.84-1.54s-1.41-1.1-2.16-1.64l-.57-.4-.07,0s0,0,0,0h0l.05,0,.06,0-.07,0-.09,0-.06,0h0l.37.2c.72.39,1.42.77,2.09,1.15,1.22.71,2.45,1.46,3.72,2.25,1.07.66,2.16,1.36,3,2,2.24,1.73,4.49,3.58,6.59,5.53a37.46,37.46,0,0,1,5.3,6.44,24.89,24.89,0,0,1,2.9,5.51,40.85,40.85,0,0,1,1.61,5.84,4.45,4.45,0,0,1-.06,1.26,28.2,28.2,0,0,1-.66,3.85,5.78,5.78,0,0,1-1.2,2.9,8,8,0,0,0-1.42,2.25,14.69,14.69,0,0,0-.72,2.4,14.54,14.54,0,0,1-1.5,4.62c-.61.91-1,1.77-1.53,2.67s-1,1.79-1.53,2.68-1.19,1.8-1.74,2.64a19.4,19.4,0,0,1-2,2.46,7.85,7.85,0,0,1-2.53,2.82,8.22,8.22,0,0,0-2.38,2.75,9.15,9.15,0,0,0-2.59,1.51,11.78,11.78,0,0,0-1.75,2,9.56,9.56,0,0,0-3.23,2.32,6.77,6.77,0,0,1-4.55,2.14,4.37,4.37,0,0,0-2.73,1.06,27.12,27.12,0,0,1-3.52,2.64c-.47.27-1,.64-1.37.91a1.67,1.67,0,0,1-1.29.36c-.43-.08-.74.49-1.1.81-.17.15-.37.31-.52.47l-.41.47-.83.91c-.27.3-.55.58-.84.85s-.39.52-.59.74A4.47,4.47,0,0,1,294,1258a22.25,22.25,0,0,0-5.75,4.36c-.51.59-1,.83-1.64.38a3.13,3.13,0,0,0-3.47,0c-.59.32-1,1.16-1.57,1.38a9.53,9.53,0,0,0-2.73,1.91c-1.34,1.19-2.83,1.53-4.24,2.29-1.62.87-3.29,1.37-4.92,2.2a8.51,8.51,0,0,1-4,1,7.17,7.17,0,0,0-3.3.36,19.7,19.7,0,0,1-5.5,1.51,2.31,2.31,0,0,0-1.3.69c-.48.49-1,.91-1.5,1.34a1,1,0,0,1-1.59-.09,15.18,15.18,0,0,1-2.53-3.68,4.27,4.27,0,0,1-.36-3.13,4,4,0,0,0,0-2.33,5.23,5.23,0,0,1,0-3.34,8,8,0,0,1,1.76-3.62,2.67,2.67,0,0,0,.49-.6.84.84,0,0,0-.07-.92c-.24-.34-.54-.49-.83-.17s-.38.59-.59.83a1.79,1.79,0,0,1-2.16.71.45.45,0,0,1-.31-.48,1.78,1.78,0,0,1,.17-.72,1.64,1.64,0,0,1,.93-.82c.39-.14.79-.21,1.19-.33s.77-.78.86-1.66c0-.35-.17-.86-.32-.72-.75.65-1.71.37-2.25,1.9a.67.67,0,0,1-.82.5c-.5-.09-.74-1-.53-1.77.33-1.23.81-2,1.59-2.22a7.8,7.8,0,0,0,1.73-.87.83.83,0,0,0,.22-.88c-.07-.36-.26-.68-.44-.56-.67.48-1.37.2-2,.51a1.13,1.13,0,0,1-1.57-.36c-.09-.13-.28-.09-.41,0s-.19.17-.23.31a1,1,0,0,0,0,.48,4.13,4.13,0,0,1,.75,1.24,1.25,1.25,0,0,1,0,.5.28.28,0,0,1-.26.18,1.51,1.51,0,0,1-1.32-1.4c-.25-1.4-.89-2.66-.46-4.33a4.12,4.12,0,0,1,.7-1.39c.58-.85.58-1,.2-2.23l-.16-.45a4.33,4.33,0,0,1,.07-2.8,5.73,5.73,0,0,1,.39-.83,6.47,6.47,0,0,0,.91-4.28,3.68,3.68,0,0,1,.11-1.06,5.27,5.27,0,0,0-.1-2.34,2.18,2.18,0,0,1,.19-1.74c.77-1.17,1.33-2.66,2-4,.29-.55.69-.69,1-1.13.41-.61.92.36,1.23-.42a6.84,6.84,0,0,1,.94-1.68,3.05,3.05,0,0,1,1.15-1.07,7.35,7.35,0,0,0,1.46-1.14.65.65,0,0,0,.12-.15,1.4,1.4,0,0,0,.31-1.11c-.1-.53-.37-.51-.6-.36a14.17,14.17,0,0,0-1.21.91c-.26.21-.51.65-.77.7-.88.14-1.53,1-2.12,2.12-.47.85-1,1.2-1.57.69s-.93-.24-1.39.11a4.79,4.79,0,0,1-1.36,1,13.89,13.89,0,0,0-5.21,2.53c-.62.46-1.29.75-1.92,1.3s-1.09,1-1.68.9a21.54,21.54,0,0,1-3.29-.86,9.46,9.46,0,0,0-2.14-.67,2.53,2.53,0,0,1-1.82-1.37c-.21-.34-.45-.64-.65-1a1.56,1.56,0,0,0-1.15-.92c-1.24-.19-2.49-.43-3.73-.71a13.23,13.23,0,0,1-3-.83,4.92,4.92,0,0,0-4.72-.21c-1.11.59-2.24.16-3.36.51a6.9,6.9,0,0,1-4.05-.15,5,5,0,0,1-2.44-1.31,7.52,7.52,0,0,1-2-3.72c-.44-1.91,0-4.14,1.07-5.14s2.09-2.24,3.32-2.2c.5,0,1-.45,1.55-.86a41,41,0,0,0,4.73-5.23c1.15-1.36,1.88-3.6,2.68-5.61a6.36,6.36,0,0,0,.31-1.54,16,16,0,0,1,.94-3.74,23.92,23.92,0,0,1,2.86-5.56,4.08,4.08,0,0,0,.83-1.51,1.15,1.15,0,0,0,0-.49c0-.12-.17-.25-.22-.2a2.21,2.21,0,0,0-.61.67,45.63,45.63,0,0,0-2.45,4.79,5.16,5.16,0,0,1-.86,1.51c-.24.27-.43.08-.43-.5l0-.81c0-.51-.06-.88-.38-.79a.91.91,0,0,1-.42.09c-.31-.07-.44-.72-.23-1.19s.41-.79.6-1.22a1.13,1.13,0,0,0,.1-1c-.11-.19-.25.06-.36.25-.36.64-.71,1.26-1.21,1.46s-.78.12-1-.72c-.16-.5-.17-1.24-.49-1.49-.7-.54-1.39-1-2.25-.46a18.4,18.4,0,0,0-4.84,4.44,9.08,9.08,0,0,1-1.94,2c-1.68,1.16-3.24.48-4.21-2.33a34.07,34.07,0,0,1-1.47-11.15,61.93,61.93,0,0,1,.87-10.48c.57-3.17,1.15-6.33,1.66-9.52a51.06,51.06,0,0,1,1.73-7.69,15.9,15.9,0,0,0,.58-2.26,59.61,59.61,0,0,1,2.37-8.94,21.79,21.79,0,0,1,3.25-6.86c.44-.55.83-1.13,1.33-1.06s.69-.28,1-.69c.72-1,1.46-1.88,2.14-3a91.78,91.78,0,0,1,6.51-9.36q1.2-1.49,2.43-2.76c.95-1,1-.93,1.66.58l.17.36,0-.06a4,4,0,0,1,1.08-.9,2.94,2.94,0,0,0,1-.77,7.11,7.11,0,0,1,1.79-1.54l0,0a10,10,0,0,1-.79,1.39,5.18,5.18,0,0,0-.92,1.87c-.18.6-.62,1.2-.45,1.81.21.78.65.21,1-.12,0,0,.07-.1.11-.15l0,0,.5-.22c.14-.07.28-.05.31.24a1.93,1.93,0,0,1-.08.73c-.42,1.07-.85,2.14-1.3,3.18a4.89,4.89,0,0,0-.32,2.28c0,.62.35,1.1.64.88a12.52,12.52,0,0,0,1.2-1.13c.27-.28.54-.68.84-.65a6.62,6.62,0,0,0,3-.69c.13,0,.26.06.28.38a.94.94,0,0,1-.1.45,15.68,15.68,0,0,1-1,1.2c-.63.66-1.28,1.23-1.9,1.91-1.16,1.29-.89,1.08-.49,2.94.17.76.38.77.7.64a6.5,6.5,0,0,0,2.45-1.9c.24-.26.46-.58.69-.83s.35-.3.44.1a.89.89,0,0,1-.14.69c-.22.33-.44.63-.65,1a1.23,1.23,0,0,0,0,1.15c.13.18.31.24.45.4a1.16,1.16,0,0,1,0,1.29,17.27,17.27,0,0,1-1.3,1.38,7.88,7.88,0,0,0-1.75,2.51,25.13,25.13,0,0,1-1.83,3.71,2.08,2.08,0,0,0-.33,1.42,3.52,3.52,0,0,1-.57,2.77c-.28.46-.51,1.06-.8,1.52a5,5,0,0,0-.68,3.33,3.46,3.46,0,0,1-.63,2.53,8.77,8.77,0,0,0-1.12,2.46,1.87,1.87,0,0,0-.11.75c.1.49.28.07.43,0a1.08,1.08,0,0,1,1-.19c.64.19,1.09,1.61.93,3-.09.68-.4,1.35-.1,2s.75.06,1.12-.17a5.49,5.49,0,0,0,.49-.48,12,12,0,0,1,1.87-1.69,14.82,14.82,0,0,0,3.55-3.46,11.33,11.33,0,0,1,2.79-2.82,1.33,1.33,0,0,0,.48-.47,8.4,8.4,0,0,1,2.05-2.07,55.86,55.86,0,0,0,4.56-3.88,2.16,2.16,0,0,1,.76-.47,7.08,7.08,0,0,0,2.52-1.69,5.76,5.76,0,0,1,1-.77l4.31-2.64a4.18,4.18,0,0,1,1.16-.54c2.13-.48,4.26-1,6.4-1.38a8.72,8.72,0,0,0,2.6-.69,2.44,2.44,0,0,1,1.84-.07,1.72,1.72,0,0,0,1.16-.07c1.34-.51,2.7-.75,4,.58.4.4.75.5,1.12.06s.76-.2,1.14.06c1.12.76,2.25,1.47,3.38,2.19a.35.35,0,0,0,.26,0c.25,0,.67-.75.66-1.17,0-.68-.33-.81-.58-.91a1.4,1.4,0,0,0-.79-.15.83.83,0,0,1-.64-.12,12.23,12.23,0,0,0-5.67-2.37.63.63,0,0,1-.38-.23.91.91,0,0,1-.13-.42.73.73,0,0,1,.12-.4,1.14,1.14,0,0,1,1-.15c1.3.37,2.61.72,3.92,1.06a5.27,5.27,0,0,1,3.31,1.74c.13.15.28,0,.32-.29a2.22,2.22,0,0,0,0-.77,1,1,0,0,0-.28-.52c-1.34-.93-2.62-2.21-4-2.67-.55-.19-1.25-.13-1.65-1.34l-.2.15.21-.15-.16.76,0-.06A3,3,0,0,1,269,1131c-.28-.43-.54-.29-.81.15s-.28-.15-.38-.43h-.25c.09.37.17,0,.27,0-.14,1.19-.47,1.79-1.12,1.71a14,14,0,0,0-4.14.53,5.11,5.11,0,0,1-2.33-.14h0c.09-.44.22-.82.45-.9.59-.23,1.13-.88,1.76-.82.14,0,.23-.29.18-.56a1.91,1.91,0,0,0-.25-.56.1.1,0,0,0-.13,0c-1.39.65-2.83.38-4.24,1-1.81.75-3.7.43-5.47,1.9-.11.09-.26,0-.38-.06-.31-.16-.38-.94-.14-1.44.06-.12.16-.16.22-.28a1,1,0,0,0,0-.92c-.33-.54-.69-1-1-1.52v.08c.52-.41,1-.84,1.57-1.2.37-.25.77-.66,1.12-.55.82.26,1.5-.66,2.25-.93.19-.07.29-.33.29-.75s.06-.89.36-.66a1.23,1.23,0,0,0,1.94-.28c.21-.27.4-.25.59,0,.33.54.61.26.95-.08s.77-.9,1.22-.65c.89.48,1.49-.3,1.93-1.83l0-.06c.14.35.27.71.41,1,.34.76.53.78.78-.14.17-.6.26-.9.53-.27.19.44.46.43.71.56,1.06.55,2.14,0,3.21.27.28.08.43-.34.55-.92.17-.88.45-1,.78-.48a3.11,3.11,0,0,1,.37,1.64c.08,1.82.09,1.81.93,2.36.24.16.47.42.72.57s.23-.18.26-.45a1.4,1.4,0,0,0-.22-1.15,5.8,5.8,0,0,0-.75-.46.92.92,0,0,1-.27-.82c0-.41.17-.51.38-.52,1.28-.07,2.18,1.59,3.1,3.1a7,7,0,0,0,.92,1.47,2.62,2.62,0,0,1,.64,2.13c0,.73.06.77.52.38.28-.24.41-.2.38.49a1.09,1.09,0,0,0,.23.88,3,3,0,0,1,.6,2.23v2.16c0,.29.06.56.2.63a.38.38,0,0,0,.38,0,1.57,1.57,0,0,0,.4-1c.11-.68.23-1.36.29-2.06.23-2.39,1.14-3.93,1.66-6,0-.05.09-.08.11,0a.75.75,0,0,1,.19.34,9.56,9.56,0,0,1,0,2.14c-.1,2-.22,3.92-.16,5.91Zm-1,25.55,0,.08Zm7.07-13.64c-.16.59-.31,1.2-.5,1.77a4.36,4.36,0,0,0-.24,1.69c-.21.11-.47.08-.62.33-.73,1.18-1.43,2.43-2.15,3.65l0,.49c.18-.14,0-.34,0-.52.23.24.49.46.74.16a7.36,7.36,0,0,0,2-4.16c.44-.69.86-1.37,1.31-2.09a2.6,2.6,0,0,0,.39-1.3c0-.3-.07-.55-.23-.47a6.42,6.42,0,0,0-.74.5l-.34-.42,0-.08Zm4.2,86a.76.76,0,0,0,.05-.64c-.11-.21-.23,0-.34.13l-.38.45c-.46-.22-.84,0-1.18.54-.14.22-.37.46-.3.8.14.66.38.18.58.08a1.56,1.56,0,0,0,.85-1.49l.44.15Zm-.73-42.17s0,0,0,0v.12Zm-19.77,43,.07.12h0Zm32.27-64.77,0-.13s0,0,0,0Zm-2.41-28.11,0-.31.06.47Zm12.28,73.4,0-.19-.05.12S313.19,1215,313.19,1215Zm-8.94-54.12h0l-.07-.33,0,.08Zm-31.38,52.9,0,.07Zm-40.25-41.32-.06-.12a5.79,5.79,0,0,0-.13,1.62c-.19-.2-.39-.5-.61-.27-.4.39-.92.38-1.14,1.34-.13.55.5.37,1.3-.46a6,6,0,0,0,.45-.61l.09-1.63Zm83.7,39.26.07-.31a.35.35,0,0,0,0,.17.8.8,0,0,0,0,.21Zm-17.6-56,0,.25c-.05,0,0,0,0,0ZM259,1160l0,.44-.08-.09,0,0,.19-.08,0,.06Zm30.26,30.1a.35.35,0,0,0-.07-.09.22.22,0,0,0-.11,0l0-.07ZM265,1172.73l0-.26-.55,0a11.4,11.4,0,0,0-2.93,2.22c-.36.43-.79.34-1.19,0s-.71-.06-1.05.26c-1.91,1.75-3.85,3.4-5.76,5.21s-4.05,4-6.1,6l-4.15,4-.64.6c-.38.36-.35,1.34-.63,1.73s-.73-.11-1,.6a2,2,0,0,0-.14.71c0,.2.2.54.26.5.79-.51,1.28.79,1.95,1a2.76,2.76,0,0,1-.65,1.69,6.94,6.94,0,0,0-.79,1.12,1.44,1.44,0,0,0-.1,1c.1.35.28.45.47.41.44-.07.81-.51,1.18-.91a5.21,5.21,0,0,1,2.22-1.63,2.8,2.8,0,0,0,1.43-1.08,3.33,3.33,0,0,1,1.87-1.05c.32-.1.68-.09.91-.62.76-1.76,1.88-2.29,2.85-3.28.13-.13.26-.21.38-.35a1.29,1.29,0,0,0,.22-.93.75.75,0,0,0-.37-.68,1.19,1.19,0,0,0-1.23.3c-1.22,1.09-2.56,1.64-3.76,2.93-.44.48-.87.64-1.32.17-.9-1-1.78.24-2.68.34-.21,0-.43.66-.64,1,0-.53,0-1.07,0-1.59a1.76,1.76,0,0,1,.28-.89c.88-.74,1.72-2,2.72-1.58.78.33,1.45,0,2.11-.74l0,.06a7.09,7.09,0,0,0,2.83-2.08,2.58,2.58,0,0,1,1-.86c.68-.26,1.13-1.07,1.52-2.09h.32c.78-1.21,1.77-1.55,2.62-2.46v0a6.63,6.63,0,0,0,.48,1.89c.22.38.59.29.69-.24.13-.9.28-1.82.42-2.75a1.65,1.65,0,0,1,.25,1c0,.26.07.6.23.53s.18-.35.27-.55a.49.49,0,0,0,.05-.24,8.34,8.34,0,0,1,.68-3.14c.21-.63.24-1.4.73-.59.1.17.36.1.52,0,1.09-.9,2.18-1.8,3.25-2.78a2.49,2.49,0,0,0,.41-2.07h.6Zm28.27,10.84c-.07.44-.15.85-.19,1.28,0,.08.14.33.18.31a1.09,1.09,0,0,0,.38-.31c.69-.74,1.41-1.47,2-2.24a5.07,5.07,0,0,0,1.33-3.14c.68-.06,1.16-.68,1.55-1.66.52-1.29,1.13-2.32,1.62-3.44a13.16,13.16,0,0,0,1.34-4.78h0c.09.21.2.39.27.15a40,40,0,0,0,1.08-5.06c0-.2,0-.55.05-.65a6.32,6.32,0,0,0,.15-2.73,6.19,6.19,0,0,1,0-1.58,14.49,14.49,0,0,0-.18-3.2c-.17-1.31-.32-2.56-.48-3.79l-.27-1.84c.07.4.15.8.22,1.2l.25,1.25.19,1.15,0-.1,0,.09-.15-1-.46-2.35-.24-1.39c0-.25-.08-.49-.11-.73l0-.1s0,0,0,.06l0,.18.05.35c.12.91.22,1.57.29,2.62,0,.88,0,1.65,0,2.42s0,1.49,0,2.3a18.34,18.34,0,0,1-.09,2.53,7.34,7.34,0,0,0-.15,1.37,18.13,18.13,0,0,1-.69,4.4c-.54,2.07-1.26,4.18-2,6.25-.24.61-.51,1.16-.77,1.72a4.68,4.68,0,0,0-.57,3,1.27,1.27,0,0,1-.39,1.21c0-.25-.05-.51-.09-.75s-.15-.45-.29-.36a1.11,1.11,0,0,0-.41.89c0,.08.12.27.18.27a4,4,0,0,0,.64-.12l-.52,2.25-.59,0a5.27,5.27,0,0,0-.13-.73c-.21-.61-.41-.62-.6,0a5.25,5.25,0,0,0-.11.74,6.15,6.15,0,0,1-2.38,4.05,5.84,5.84,0,0,0,0-1.72c.08,0,.17,0,.26.06s.17-.1.1-.25-.08,0-.12,0l-.24.2ZM320.5,1207l.42,0-.17-.65c0,.06-.07.12-.05.16a3,3,0,0,0,.24.47Zm-28.42,24.48H292l.13.44,0,.13v-.57Zm-22.17-103.61s-.11-.06-.12,0,0,.3.09.33a1.58,1.58,0,0,0,.38,0l0,.08C270.12,1128.16,270,1128,269.91,1127.87Zm4.82,49.08c.13.09.26.19.36,0a.77.77,0,0,0-.1-.38c-.17,0-.2.23-.22.48Zm-.45,42.41-.07-.47.74.16,0,.15v-.06c-.29-.78-.29-.8-.73-.23Zm-6.53-60.73a1.09,1.09,0,0,0-.36-.22c-.05,0-.11.16-.17.26s.14.26.18.23a1.54,1.54,0,0,0,.31-.35Zm7,7.72,0,.43a3.4,3.4,0,0,0,0-.45,3,3,0,0,0-.07-.52,5.43,5.43,0,0,0,.48.48c.1.08.19-.06.17-.26a.74.74,0,0,0-.15-.39c-.18-.18-.34,0-.5.18Zm33.54,24.75-.07-.07c-.49.06-.5.71-.38,1.5a1.71,1.71,0,0,0-.29-.16c-.08,0-.16.05-.24.09s.11.17.22.1a.82.82,0,0,1,.27-.06,2.42,2.42,0,0,0,.38-1.47Zm-41.8-3.82,0,0c-.17.11-.33.25-.5.37s-.29.17-.16.47c.05.12.25.08.36,0a1.39,1.39,0,0,0,.26-.87Zm-16.87,33a3.25,3.25,0,0,0-.68.18.88.88,0,0,0,0,.42c0,.11.15.21.23.2.27-.06.37-.48.47-.88Zm59.57-46.85,0,0-.1-.16s0,0,0,0l-.13-.23-.08-.16,0,.1.13.25h0Zm-20.28-27.76a1.58,1.58,0,0,0-.08.37s.08,0,.11,0a.4.4,0,0,0,.08-.16l.08-.47a.76.76,0,0,0,.48-.72,1,1,0,0,0-.09-.41s-.08,0-.11,0a2.64,2.64,0,0,0-.24,1.15C289.07,1145.56,289,1145.58,288.92,1145.68Zm-11,85.37-.07-.12a3.5,3.5,0,0,0-.14.46,1,1,0,0,0,.07.92.1.1,0,0,0,.14,0,1,1,0,0,0,0-.92c0-.16-.1-.31-.15-.46Zm19.52-113.41c0-.09-.09-.18-.13-.26a1.47,1.47,0,0,0-.07.38c.07.48.15,1,.22,1.42a2.57,2.57,0,0,0-.31,1.7c0,.71.11,1.4.17,2.09-.21.1-.32.5-.37,1l-.12,2.1a12.5,12.5,0,0,1-.5,3.28,5.78,5.78,0,0,0-.12,1.29.81.81,0,0,0,.12.42c.07,0,.2-.08.23-.2a12.19,12.19,0,0,0,.39-2.2c.12-1.9.24-3.82.37-5.74a28,28,0,0,0,.13-3.8Zm-29.22,38c-.08-.49-.29-.61-.52-.5-.08,0-.14.18-.2.3a.69.69,0,0,0,0,.24,2.56,2.56,0,0,0,.83,1.18l0,.06C268.27,1156.51,268.27,1156.06,268.2,1155.66Zm18.74,78.14.06.09c.15-.05.32,0,.41-.2a1.63,1.63,0,0,0,.12-1.4c0-.1-.19-.17-.26-.12a1.28,1.28,0,0,0-.34,1.25,3.89,3.89,0,0,0,.12.49Zm-59.33-43.31c-.14-.26-.3-.38-.45,0a1.13,1.13,0,0,0,0,.49c0,.36.18.6.38.46s.22-.3.33-.46c.42.27.74,0,.92-.81a1.25,1.25,0,0,0-.19-1.13c-.21-.22-.51,0-.58.44s-.09,1.06-.13,1.59C227.77,1190.86,227.7,1190.66,227.61,1190.49Zm70.31-62a2.64,2.64,0,0,0,.2,1.15c.05.09.16.14.18.08a8.18,8.18,0,0,0,.14-2.2c0-.57,0-1-.28-1.22l-.09-.08a3.22,3.22,0,0,0,.12-.37,4.2,4.2,0,0,0,.12-1.63c0-.06,0-.13,0-.11a3.5,3.5,0,0,0-.16,1.58l0,.51C298.15,1127.08,297.91,1127.71,297.92,1128.51Zm-18,107.68c-.12.51-.52,1-.14,1.57s.62.09.91-.2a2.31,2.31,0,0,0,.47-1.5c.92.24,1.22,0,1.54-1.14a1.69,1.69,0,0,0,0-1c-.14-.37-.35-.31-.52-.13a2.8,2.8,0,0,0-1,2.38c-.48-.82-.48-.82-1.23-.1l0-.07A1.8,1.8,0,0,0,280,1236.19Zm-12.68-65.72c.76.48,1.4,0,2-1a1.25,1.25,0,0,0,.17-1.12c-.13-.34-.31-.15-.48-.05a4.81,4.81,0,0,0-1.62,2.22Zm-18.5,59.45a.84.84,0,0,0-.11.7c.08.15.28.24.38.16a11.69,11.69,0,0,0,1.3-1.25c.24-.28.79-.33.55-1.17-.11-.42-.52.08-.8.15l0-.07C249.83,1229.42,249.15,1229.16,248.78,1229.92Zm54.61-72.51.13.56c.08.35.1.42.17.72.12.46.26,1,.43,1.6-.05-.2-.26-.88-.62-2.42v.06l-.09-.4c-.07-.3,0-.07,0,.12l.07.29C303.61,1158.34,303.54,1158.07,303.39,1157.41Zm-50-11.18a1.11,1.11,0,0,0,.26-.07.6.6,0,0,0,.22-.58,1.62,1.62,0,0,0-.18-.65.51.51,0,0,0-.37-.17,1.32,1.32,0,0,0-1.44.81.53.53,0,0,0,0,.25c.47.7,1,.87,1.55.35Zm25,74.43c.71-.64,1.4-1.37,2.15-2.11a1.47,1.47,0,0,0-2.07.69c-.39.57-.85.7-1.24,1.15a3.26,3.26,0,0,0-.09-.47c-.06-.21-.13-.22-.17,0a.38.38,0,0,0,.06.19l.24.25C277.54,1221.2,278,1221,278.35,1220.66Zm-17.86,12.23c-.09,0-.05.12.09.07s.08,0,.12.07a3.86,3.86,0,0,0,2.25-.56,1,1,0,0,0,.25-.58c0-.39-.12-.62-.33-.7a1.69,1.69,0,0,0-1.27,0c-.53.2-.83.78-.87,1.81C260.65,1233,260.56,1232.86,260.49,1232.89Zm-3.07-66.59a10.61,10.61,0,0,0,1.86-.48c.1,0,.2-.32.28-.52s0-.83-.14-.9a1.12,1.12,0,0,0-1.17.15c-.46.32-.92.74-1.43.59-.35.31-.78.18-1.07.79a.74.74,0,0,0,0,.44c0,.11.14.2.22.18.44-.1.63-.83.88-1.42C256.89,1165.78,257.05,1166.36,257.42,1166.3Zm46.12-.88a.84.84,0,0,0-.05.33,2.27,2.27,0,0,0,.09.48c.14.39.27.47.34.14a3.76,3.76,0,0,0,0-1.2,1.09,1.09,0,0,1,.08-.15,8.47,8.47,0,0,0-.13-3.64l-.27-1.55,0,0v.06a20.57,20.57,0,0,0,.1,3c.07.78.15,1.57.22,2.36C303.87,1165.63,303.69,1165.48,303.54,1165.42Zm-38.07-20.78c.2.27.39.61.72,1.12,0-1.34-.06-2.35-.09-3.36a4.45,4.45,0,0,1,1,2.72c0,.37.08.69.31.71s.59-.43.59-.82c0-.89,0-1.78,0-2.66s-.39-1.26-.76-.95-.77.44-1,1.08c-.6-.54-1.18.15-1.78.14-.25,0-.37.72-.26,1.25a2.1,2.1,0,0,0,.67,1.19l0,.06C264.9,1144.48,265.13,1144.2,265.47,1144.64Zm-5,96.95c.14,0,.33,0,.41-.14.36-.65.72-1.14,1.27-.94.14,0,.25-.24.25-.54s-.07-.58-.21-.63a1.86,1.86,0,0,0-2.43,1.06,1.9,1.9,0,0,0-.19,1.44c.19.51.53.39.91-.33Zm-4.58-89.7c.26.2.5.65.82.33s-.18-.46-.66-.4h-.13l-.12,0c-.59-.15-1.08.79-1.68.56-.1,0-.23.2-.35.32a2.7,2.7,0,0,0-.64,2.28c.24.48.76.4,1.22-.26a4.39,4.39,0,0,1,1.13-1.37c.39-.23.35-.93.3-1.56A.63.63,0,0,0,255.91,1151.89Zm-2.27,11.67a.11.11,0,0,0,.14,0,7.72,7.72,0,0,1,2.28-1.6.69.69,0,0,0,.14-.41.64.64,0,0,0-.19-.61.76.76,0,0,0-1,.12,3.67,3.67,0,0,1-2,1,1.39,1.39,0,0,0-.85.77,1.93,1.93,0,0,0-.08,1.68l0,.07C252.52,1163.87,253,1163.14,253.64,1163.56Zm29,36.33c.3-.74.63-1.22,1.13-1.28.26,0,.39-.43.4-.92s0-.89,0-1.33c.37.22.74.35,1.11,0l0-.07c.13.07.31.28.39.18.33-.39.57-1.22,1.06-.61,1-.18,1.59-1.7,1.42-3.47a.82.82,0,0,0-.31-.47c-.06,0-.2.07-.23.19-.12.63-.26,1.28-.38,1.93-.69-.81-.7-.84-1.22-.33s-.88,1-1.31,1.43a2,2,0,0,0-.46,1.25c-1.22,0-2.14,1.33-3.09,2.53a1,1,0,0,0-.19.89c.09.37.31.33.49.36h.28l0-.07C282,1200.55,282.4,1200.53,282.65,1199.89Zm-18.88,26.91c.68,0,1.38.35,2-.38.07-.09.18-.08.28-.09s.51.45.65,0a3.93,3.93,0,0,0,.13-2c-.11-.49-.23-1-.38-1.44a.66.66,0,0,0-.34-.4c-.15-.06-.28.16-.31.43a4.78,4.78,0,0,1-.69,1.86c-.32.58-.58.69-1,.72s-.49,0-.38,1.4Zm-13.6-70.38c.09.11.16,0,.17-.14a.2.2,0,0,0-.08-.13,3.19,3.19,0,0,0-.35-.14c-1.1.7-2.26.88-3.33,1.91-.34.33-.78.19-1.17.32s-.52.63-.49,1.37c0,.41.26.7.36.42.3-.88.62-1.2,1.11-.66a.38.38,0,0,0,.52,0c.84-.6,1.66-1.24,2.49-1.9a2,2,0,0,0,.49-1.49A4.92,4.92,0,0,0,250.17,1156.42Zm22.75,2.16a2.68,2.68,0,0,0,1.28-1.38c1-1.85,1.92-3.67,2.89-5.51a7.57,7.57,0,0,0,.32-.85c.19-.59.19-1.37,0-1.44s-.39.34-.53.65l-2.29,4.83a6.68,6.68,0,0,1-.69,1.25,5.94,5.94,0,0,0-1,2.51Zm-15.26-15.34a2.57,2.57,0,0,0-1.66,1.5,1.72,1.72,0,0,0-.1,1c.07.36.19.63.39.6.57-.09,1.14-.25,1.7-.29s.59-.59.62-1.4a1,1,0,0,1,.16-.38c.31.09.62.31.9.21.6-.2,1,.41,1.4,1.1v.09l0,0,.15-.44c.44-1.06.44-1.06.9-.17.12.22.36.69.37.42.05-1.35.59-.78.89-1.11a1.12,1.12,0,0,0,.17-.9c-.06-.36-.18-.76-.36-.65-.64.38-1.21.17-1.78-.44-.11-.12-.27-.2-.38-.12-.77.55-1.66.56-2.21,2.11C258.48,1143.69,258.16,1143.09,257.66,1143.24Zm-18.42,74.47c.3.72.68.89,1.14.6a1.25,1.25,0,0,0,.36-.44.93.93,0,0,0,.1-.72c0-.13-.16-.31-.21-.28-.48.27-.75-.31-1.12-.69-.76-.79-1.58-1.62-2.55-.52-.27.31-.65.26-1,.39s-.66.94-.49,1.85c.06.27.21.44.35.32a6.11,6.11,0,0,0,.89-.93c.46-.63.87-.65,1.32-.09a4.22,4.22,0,0,0,.77.65l0,.15v-.06C238.91,1217.46,239.09,1217.38,239.24,1217.71ZM296.85,1161a6.11,6.11,0,0,0,1-2.14c.15-.5.16-1.12,0-1.15s-.27.26-.38.49a8,8,0,0,1-1.41,2.62,14.4,14.4,0,0,1-1.16,2.36c-.44.73-1,1.44-1.39,2.28a8.74,8.74,0,0,1-1.09,1.63c-.39.49-.71.94-1.06,1.43-.75,1.06-1.26,2.65-2.11,3.5a4.05,4.05,0,0,0-.33,1.09l-.05,0v-.1c.62.52,1.08-.17,1.49-.81.57-.9,1.11-1.88,1.65-2.85a22.37,22.37,0,0,1,1.92-2.8,10.44,10.44,0,0,0,.8-1.23c.23-.44.44-.89.69-1.28a4.62,4.62,0,0,0,.61-3.32C296.33,1161.1,296.57,1161.34,296.85,1161Zm-24.41-17.32,1.66,1c.26.16.44,0,.48-.56s.05-.81-.28-1a11.43,11.43,0,0,1-2.1-1.29,1.46,1.46,0,0,0-1.81-.27c-.46.28-.92.55-1.42.27-.23-.13-.43.17-.51.64a1.6,1.6,0,0,0,.23,1.15c.27.48.57.92.93,1a16.06,16.06,0,0,0,2.39.2c.28,0,.44-.52.42-1.15Zm-34.11,63.47c-.62,0-.73.06-1,1.12a7.33,7.33,0,0,1-1.28,3.22,1.53,1.53,0,0,0,0,1.42c.54,1.13,1.31,1.51,2,.61s1.5-.33,2.2-1c.1-.09.34.24.47.45a1.1,1.1,0,0,0,1.75.35,2.38,2.38,0,0,0,.46-2.77c-.7-1.65-1.55-2.43-2.7-1.63l0,0C239.74,1207.94,239.15,1207.16,238.33,1207.15Zm32.24-31.43c-.52.72-1.16,1.06-1.63,2-.88-.31-1.32,1.3-2,1.83a26,26,0,0,0-2,1.84c-.25.23-.5.44-.75.64s-.57.28-.78-.15c-.45-.93-.78-.59-1.13.23a2.11,2.11,0,0,1-1.08,1.09,10.65,10.65,0,0,0-3.19,2.54c-.27.33-.56.65-.91.48-.19-.09-.36-.1-.47.28-.33,1.16-.95,1-1.46,1.22-.27.13-.56,0-.83.14a.74.74,0,0,0-.41.88.79.79,0,0,0,.51.76c.13,0,.31.06.4-.07a.81.81,0,0,1,1.06-.37.76.76,0,0,0,.67-.21c1.34-1,2.67-2,4-3a2.32,2.32,0,0,1,.52-.34,27.93,27.93,0,0,0,5-2.93,5.16,5.16,0,0,0,1.23-1.13,5.7,5.7,0,0,1,1.37-1.22,5.13,5.13,0,0,0,1.7-2.19,7.86,7.86,0,0,1,1.49-2.33c.5-.45.57-1.55,1-2.17-.63,0-1.34.49-2,1.47l0-.07A4.21,4.21,0,0,1,270.57,1175.72Zm-23.06-8.61c.08.09.17.27.23.24a3.39,3.39,0,0,0,1.58-1.44,1.45,1.45,0,0,0,.13-1c-.08-.36-.29-.58-.43-.38-.42.61-.8.65-1.25.26-.22-.19-.44.1-.6.45a2.09,2.09,0,0,1-1.34,1.25c-1.16.25-2.18,1.3-3.22,2.22s-2,2.12-3.12,2.92a9.88,9.88,0,0,0-2.52,3.8,12.72,12.72,0,0,1-2.3,3.57,31,31,0,0,0-2.55,3.91,6.82,6.82,0,0,0-.64,3.16c0,.08.12.19.2.25s.1,0,.12-.09a10.44,10.44,0,0,1,1.78-2.71,2.38,2.38,0,0,0,.62-1.11,6,6,0,0,1,2.15-3.72c1.72-1.65,3.37-3.5,5-5.33.28-.31.84-.27.81-.79-.11-2,.6-.92.95-1.19s1-.56,1.31-1.39a3.27,3.27,0,0,1,1.59-1.89c.36-.22.65-.91,1.06-.14.1.18.31-.52.46-.86Zm41.6-12.54a2.84,2.84,0,0,1-1.53,1.74c-.39.12-.28,1.2-.65,1.09s-.5.54-.65,1a2.29,2.29,0,0,1-.78,1.31,9.67,9.67,0,0,0-1.3,1.27l.06-.42,0,.16,0,.21c-.21.58-.6.75-.73,1.52a2.11,2.11,0,0,1-.64,1.31,3.87,3.87,0,0,0-.82,1.33,2.43,2.43,0,0,1-1.26,1.43.65.65,0,0,0-.38.25c-1.11,1.65-2.56,2.23-3.59,4.13-.34.61-1,.3-1.07,1.65.49.51.82-.53,1.27-.49a1.73,1.73,0,0,0,1.3-.73l0,.18,0-.1c.44-1.59,1.2-2,2-1.88.49.07.88,0,1.18-.79l0,.08a13.39,13.39,0,0,1,2.2-2.43,3,3,0,0,0,.91-1.08,14.27,14.27,0,0,1,2.07-3.29,50.3,50.3,0,0,0,3.15-5.21c.37-.63.75-1.22,1.1-1.89s.6-1.15.88-1.76.68-1.25,1-2a13,13,0,0,1,2-3.54,4.61,4.61,0,0,0,.63-1.41c.5-1.69,1.17-3.28,1.7-4.8a1.71,1.71,0,0,0,.09-.47,3.23,3.23,0,0,0,0-.77c-.09-.35-.18-.41-.4-.35s-.52.37-.66.89a19,19,0,0,1-2.42,5.7,14.31,14.31,0,0,0-1.53,2.85c-.07.19-.31.24-.4.35l-.05.09.07-.1a3.21,3.21,0,0,1-1.24,1.56v0C290,1152.36,289.57,1153.43,289.11,1154.57Zm15.88,9.07c0,.09.23.73.09.3l-.28-.93q-.17-.6-.33-1.23l-.18-.78-.1-.45-.17-.63c-.12-.46,0,.13.06.34l.16.81c.11.54.19,1,.26,1.55a20.92,20.92,0,0,1,.49,5.13c0,.56,0,1.17,0,1.8a12.15,12.15,0,0,1-.39,3.69c-.47,1.66-.9,3.48-1.56,5.27a12.55,12.55,0,0,1-1.38,2.92c-.9,1.23-1.62,2.89-2.56,4.27a3.82,3.82,0,0,0-.36.76,1.51,1.51,0,0,0-.07,1c.13.41.32.24.47,0a56.55,56.55,0,0,0,4.26-7.32c.73-1.52,1.13-3.42,1.67-4.89a16.24,16.24,0,0,0,.49-3.31c.09-1.18.14-2.34.15-3.24-.14-1.33-.28-2.57-.48-3.81a15.29,15.29,0,0,0-.41-1.89l-.28-1c0-.15,0,0,0,0l0,.14.08.28.29,1c.31,1,.57,1.72.78,2.28s.24.79.4,1.25c0,0,0,0,0,0l-.09-.25-.13-.4c-.09-.27-.12-.43-.24-.75s-.24-.68-.36-1-.31-.92-.53-1.69C304.68,1162.58,305,1163.54,305,1163.64Zm-50.35,68.73a4.54,4.54,0,0,0-1.48,1.06,36.29,36.29,0,0,0-5.27,5.31,2,2,0,0,0-.5.94,17.92,17.92,0,0,0-.11,2.33.46.46,0,0,0,.2.32c.24.16.47,0,.71-.11,1-.64,2.05-1.29,3.08-1.86a1.76,1.76,0,0,0,.83-1.36,15.17,15.17,0,0,1,1.52-3.6,1.39,1.39,0,0,1,.61-.7c1-.37,1.82-1.66,2.85-2,.68-.2.75-.63.76-2.16,0-.07,0-.13-.14-.32A6,6,0,0,1,254.64,1232.37Zm3.95-105a6.93,6.93,0,0,1-2.16.54,9.32,9.32,0,0,0-2.77,1.07,1.29,1.29,0,0,0-.46.49,1,1,0,0,0-.17.89c.05.2.2.39.3.38a1.7,1.7,0,0,0,1.15-.28c.44-.43.86-.77,1.35-.61.75-.94,1.58-.59,2.38-.77a4.35,4.35,0,0,0,1.66-.53A4.48,4.48,0,0,1,262,1128c.14,0,.26-.25.22-.54s-.15-.5-.24-.51a9.94,9.94,0,0,0-1.41,0C260.08,1126.46,259.35,1127.06,258.59,1127.39Zm-34.29,58.3a6.77,6.77,0,0,0,.86-1.47,15,15,0,0,1,1.94-3.23,24.32,24.32,0,0,0,1.31-2.14,2.86,2.86,0,0,1,.8-1.09,1,1,0,0,0,.44-1.12c-.18-.61-.49,0-.7.26a56.28,56.28,0,0,0-3.32,4.66,19.94,19.94,0,0,0-1.79,3.55.75.75,0,0,0,.13.74C224.05,1185.82,224.21,1185.83,224.3,1185.69Zm51.77,36.24c-.3-.25-.72-.55-1-.13-.88,1.57-2.08,1.92-3.09,3a.79.79,0,0,0-.14.4c0,.31.17.43.31.4a6.38,6.38,0,0,1,2.77-.3c.46.11.88-.55,1.23-1.15a1.77,1.77,0,0,0,.05-1.06C276.19,1222.74,276.33,1222.16,276.07,1221.93Zm-8.29,28.86a1.56,1.56,0,0,0-.53.42c-.79.77-1.07,1.36-.86,1.79.42.82.82.09,1.22-.07a12.75,12.75,0,0,0,4.09-2l.43-.44C270.54,1249.85,269.16,1250.34,267.78,1250.79Zm-2.2-76c-.28-.08-.53.18-.78.41a13.37,13.37,0,0,1-2.52,2.09,2.37,2.37,0,0,0-.73.72,4.18,4.18,0,0,1-1.46,1.47c-.16.08-.31.36-.45.58a.76.76,0,0,0-.09.68.16.16,0,0,0,.25.06,17.62,17.62,0,0,1,2.55-2c.7-.62,1.46-1,2.17-1.62a2.56,2.56,0,0,0,1.28-2.14C265.73,1174.93,265.66,1174.77,265.58,1174.75Zm6.59,67.73a1.93,1.93,0,0,0,.93-.7,1.12,1.12,0,0,1,1.23-.52c.61.2,1.12-.37,1.63-.83.2-.19.15-.6,0-.91-.23-.58-.54-.78-.89-.56a22,22,0,0,1-3.14,1.78c-.77.33-1.13,1.48-1.34,2.94A2.82,2.82,0,0,1,272.17,1242.48Zm-15.19-6c-.08-.49-.25-.72-.54-.63a.81.81,0,0,0-.61.58,7.49,7.49,0,0,0-.53,3c0,.71.24,1,.56.62s.4-.51.61-.74a3.09,3.09,0,0,0,.56-2.16C257,1237,257,1236.71,257,1236.45Zm47.93-73.09c-.06-.19-.17-.57-.26-.9l-.06-.21.08.29.14.5.4,1.29C305,1163.61,304.94,1163.46,304.91,1163.36Zm-.88,33.42a1.06,1.06,0,0,0,.19,1.28,3,3,0,0,0,.58.37c.28.16.54,0,.59-.47a16.94,16.94,0,0,1,.58-3A4.08,4.08,0,0,0,304,1196.78Zm-43.51-32.36a.74.74,0,0,0-.11.43.61.61,0,0,0,.16.38,1,1,0,0,0,1.05.14l2-1.12C262.37,1163,261.45,1163.83,260.52,1164.42Zm-12.24,69.25a1.15,1.15,0,0,0-.1,1c.11.33.32.58.48.4.69-.83,1.61-1.27,1.86-3.36A5.38,5.38,0,0,0,248.28,1233.67Zm-8.1-38.44c-.73.54-1.53.7-2.19,1.62a1,1,0,0,0-.1.47c0,.13.1.33.17.34.81.14,1.55-.32,2.2-1.36a1.08,1.08,0,0,0,.08-.78C240.3,1195.44,240.21,1195.2,240.18,1195.23ZM265,1230.1c-.64.06-1.13.59-1,1,.26.83.69.33,1,.31a3.31,3.31,0,0,0,1.11-.47.67.67,0,0,0,.14-.39c0-.13-.1-.35-.16-.37a3,3,0,0,0-.57-.13C265.27,1230.1,265.12,1230.08,265,1230.1Zm6.57-59.58a9.46,9.46,0,0,0,2.22-2.31.93.93,0,0,0,.08-.68c0-.06-.09-.13-.11-.11a6.58,6.58,0,0,0-2.34,2.4,1.8,1.8,0,0,0-.06.5.52.52,0,0,0,.08.19S271.51,1170.55,271.55,1170.52Zm-23.62,76.37a1.16,1.16,0,0,0,1.06.58c.23,0,.48-.9.37-1.28s-.39-.76-.7-.73a1.24,1.24,0,0,0-.81,1A1.36,1.36,0,0,0,247.93,1246.89Zm55.29-89.52a2.24,2.24,0,0,0,.14.48s.05-.06,0-.23c-.08-.81-.31-1.74-.46-2.69a.71.71,0,0,0-.05-.23C302.9,1155.05,303.08,1156.57,303.22,1157.37Zm-11.73,29.36a13.44,13.44,0,0,0-1.17,1.29c-.31.38-.47,1.12-.31,1.25s.43-.14.61-.36a6.3,6.3,0,0,0,1.52-2C291.9,1186.34,291.67,1186.56,291.49,1186.73Zm-27.92-56c.36.21.69.7,1.08.61.18,0,.34-.21.35-.61a.8.8,0,0,0-.29-.74c-.39-.28-.75.17-1.12.16a1.46,1.46,0,0,0-.1.39C263.52,1130.65,263.54,1130.75,263.57,1130.77Zm-33.36,56.84a1.93,1.93,0,0,0,.13-1.44c-.17-.37-.48-.06-.77.72a3.39,3.39,0,0,0-.22,1.25c0,.29.1.48.28.48S230.08,1188.1,230.21,1187.61Zm8.91-21.85a1.15,1.15,0,0,0,0-.49c0-.12-.16-.24-.21-.19a5.14,5.14,0,0,0-1.4,2,.42.42,0,0,0,0,.22c0,.07.06.09.12.16A3,3,0,0,0,239.12,1165.76Zm17.45,53.17c.22-.34.4-.76.71-.84s.7,0,.52-.81c-.11-.54-.51-.22-.77-.07a2.92,2.92,0,0,0-1,1.54,1.36,1.36,0,0,0,0,.49s.08,0,.15.1C256.33,1219.21,256.46,1219.09,256.57,1218.93Zm-.7-34.75c-.13-.13-.25,0-.34.2-.15.43-.33.82-.47,1.25a.86.86,0,0,0,.07.69c.06.1.16.19.24.16.37-.12.75-.86.81-1.54A1.06,1.06,0,0,0,255.87,1184.18Zm6.63,66.39c.27.24.56.36.83,0a.58.58,0,0,0,.08-.21,1.76,1.76,0,0,0-.71-1.5c-.19-.09-.46.4-.47.86A1.11,1.11,0,0,0,262.5,1250.57Zm-27.1-81.46c-.53,0-1,.52-1.27,1.37a1,1,0,0,0,0,.49c0,.12.16.22.22.18a3.45,3.45,0,0,0,1.11-1.58.76.76,0,0,0,0-.27C235.46,1169.24,235.43,1169.11,235.4,1169.11Zm31.64-41c.21.09.42.14.59-.22a1.1,1.1,0,0,0,0-.48c-.17-.62-.46-.73-.76-.6-.14.06-.18.32-.17.61S266.86,1128,267,1128.09Zm-9,22.6a.79.79,0,0,0-.4.84c.12.34.3.26.47.22a3.26,3.26,0,0,0,.76-.26c.2-.1.45.11.58-.41.07-.31-.23-.55-.64-.48A7,7,0,0,0,258,1150.69Zm2.2,76.74a.88.88,0,0,0,0-.71c-.09-.14-.26-.24-.37-.19a1.09,1.09,0,0,0-.51.84,1,1,0,0,0,0,.48c0,.12.15.14.23.21A.92.92,0,0,0,260.23,1227.43Zm48-55.63c.13.24.23.41.14.24s-.33-.58-.52-1l-.1-.22S308,1171.41,308.25,1171.8Zm-33.6-.39a.7.7,0,0,0,0-.25c0-.06-.06-.15-.09-.15-.52,0-.92.7-1,1.7a.67.67,0,0,0,0,.24c0,.06.07.08.18.19C273.91,1172.3,274.47,1172.29,274.65,1171.41Zm-31.19,30.22a.49.49,0,0,0,0-.24c0-.14-.08-.35-.14-.38-.38-.17-.83.33-.82.93a.43.43,0,0,0,.29.47C243.1,1202.42,243.3,1202.1,243.46,1201.63Zm25.46,16.66a.94.94,0,0,0,0-.47c0-.11-.16-.22-.23-.2-.34.1-.56.53-.76,1a.5.5,0,0,0,0,.24,1.26,1.26,0,0,0,.22.24C268.45,1219.07,268.74,1218.83,268.92,1218.29Zm-14.22-51a.76.76,0,0,0,.11-.43c0-.14-.07-.36-.13-.38a1,1,0,0,0-.52,0c-.17,0-.34.17-.44.5s.13.55.62.57A1.36,1.36,0,0,0,254.7,1167.33Zm17.15-20.77a.53.53,0,0,0-.17.31.83.83,0,0,0,.1.45c.24.36.5.34.75.09a.61.61,0,0,0,.13-.39.58.58,0,0,0-.16-.37,1.06,1.06,0,0,0-.36-.17C272,1146.51,271.93,1146.49,271.85,1146.56Zm-4.77,96.8a.78.78,0,0,0,.09-.88c-.18-.3-.36,0-.49.23a3,3,0,0,0-.36,1.53C266.67,1243.84,266.88,1243.62,267.08,1243.36Zm1.66-71.17a3.6,3.6,0,0,0-.57.64.81.81,0,0,0,0,.47c0,.12.15.22.22.21.28-.06.49-.38.61-.89a1.13,1.13,0,0,0,0-.26C268.89,1172.29,268.79,1172.14,268.74,1172.19Zm14.47,69a.84.84,0,0,0,.05-.45c0-.12-.16-.26-.22-.23a1.57,1.57,0,0,0-.47.43.82.82,0,0,0-.05.45c0,.12.15.16.27.29A4.26,4.26,0,0,0,283.21,1241.23ZM266,1127.35c0-.42-.21-.49-.39-.5a.26.26,0,0,0-.24.1.75.75,0,0,0-.13.39.84.84,0,0,0,.15.4c.06.09.15.1.24.15A.48.48,0,0,0,266,1127.35Zm-12.82,119.24a.9.9,0,0,0-.69.8.91.91,0,0,0,.05.47c.15.31.34.21.51,0a1.25,1.25,0,0,0,.35-1.05C253.34,1246.75,253.26,1246.57,253.19,1246.59Zm27.5-45c.09-.42-.17-1-.47-1s-.24.2-.24.48c0,.51.14.82.38.88S280.64,1201.88,280.69,1201.62Zm-30.13,44.66a1.44,1.44,0,0,0,.49-1.2.23.23,0,0,0-.1-.17c-.31-.16-.64.24-.78.94a.51.51,0,0,0,0,.25,2,2,0,0,0,.24.26C250.47,1246.33,250.52,1246.33,250.56,1246.28Zm46.9-16.37a1.24,1.24,0,0,0-.28.5.71.71,0,0,0,.06.67c.06.07.18,0,.25,0a1,1,0,0,0,.27-.8C297.7,1230,297.59,1229.8,297.46,1229.91Zm-34.3-70.12a.6.6,0,0,0,.26-.44c0-.53-.21-.7-.43-.75s-.23.16-.25.48C262.78,1159.55,262.91,1159.88,263.16,1159.79Zm-8.63,97c0-.31-.09-.53-.26-.53s-.39.24-.43.64.08.5.36.5S254.5,1257.19,254.53,1256.78Zm56.29-81.07-.13-.15-.16-.22.09.12ZM273.65,1148c.18.1.35-.2.32-.56s-.12-.46-.26-.48-.25.21-.26.45S273.52,1147.91,273.65,1148Zm-46.74-26.86c-.19,0-.33.25-.37.64s.05.51.2.52.31-.26.36-.64S227.05,1121.13,226.91,1121.13Zm23.7,42.57c-.2,0-.33.21-.38.61a.82.82,0,0,0,.14.67c.18.17.44-.26.47-.74C250.84,1163.92,250.76,1163.73,250.61,1163.7Zm24.53,66.35a1.18,1.18,0,0,0-.1.43s.07.12.11.11a1.2,1.2,0,0,0,.42-.08c.13-.06.28-.19.19-.53,0-.11-.16-.14-.26-.23A1.91,1.91,0,0,0,275.14,1230.05Zm15.14-88.4c-.21-.06-.29.25-.32.59a.76.76,0,0,0,.13.63c.14.11.24-.06.29-.32a3.93,3.93,0,0,0,0-.49C290.36,1141.92,290.33,1141.67,290.28,1141.65Zm-35.1,3.92c0-.31-.21-.49-.39-.3a.79.79,0,0,0-.14.64c0,.24.18.34.37.2A2.34,2.34,0,0,0,255.18,1145.57Zm18.6,85.62c.05.29.19.34.32.23a.56.56,0,0,0,.13-.38c0-.28-.11-.43-.27-.41A.59.59,0,0,0,273.78,1231.19Zm-21-4.63c.16.06.27-.11.26-.42s-.1-.49-.26-.47-.12.2-.18.3C252.61,1226.26,252.66,1226.5,252.81,1226.56Zm17.29-54.8a.83.83,0,0,0,.28-.45c.05-.31-.08-.47-.23-.39s-.22.25-.2.58C270,1171.58,270.08,1171.78,270.1,1171.76Zm-11.4,81.36c0-.37-.18-.62-.4-.6-.05,0-.14.25-.13.35.05.36.18.6.4.63C258.61,1253.37,258.71,1253.23,258.7,1253.12Zm17.87-43c0-.12-.11-.29-.18-.29s-.24.22-.23.5c0,.12.12.21.18.31C276.49,1210.62,276.59,1210.44,276.57,1210.16Zm-.68,37.93a.55.55,0,0,0-.21.56.2.2,0,0,0,.11.14c.25,0,.46-.15.61-.49a1,1,0,0,0,0-.25C276.23,1247.78,276.05,1247.94,275.89,1248.09Zm-26.91-101c0-.34-.16-.32-.29-.28a.43.43,0,0,0-.27.47c0,.34.15.35.45.23A.92.92,0,0,0,249,1147.06Zm26.37-2.65c-.06-.3-.18-.35-.29-.15a.88.88,0,0,0,0,.68c0,.1.14.09.22.13A1,1,0,0,0,275.35,1144.41Zm1.57,79.69c.07-.08.17-.13.18-.23a1.55,1.55,0,0,0-.09-.39l-.19.22Zm1.67,12a.75.75,0,0,0-.11.38c0,.27.14.41.28.32s.08-.25.11-.38S278.74,1236,278.59,1236.07Zm10.23-42.75a.53.53,0,0,0,.13.34c.14,0,.25-.1.27-.36a1,1,0,0,0-.12-.35C289,1192.93,288.85,1193.07,288.82,1193.32Zm-47.27-29.71a1.37,1.37,0,0,0,.13-.43c0-.2,0-.37-.12-.34s-.18.31-.18.58S241.46,1163.74,241.55,1163.61Zm4.87,34.52c-.06-.17-.16-.12-.22.07a.68.68,0,0,0,0,.25c0,.22.11.26.21.14A1.88,1.88,0,0,0,246.42,1198.13Zm5.3,69c0-.33-.13-.44-.29-.42s-.3.16-.26.48.2.35.34.3S251.71,1267.26,251.72,1267.14Zm.45-17.28c0,.27.17.39.31.25a.76.76,0,0,0,.14-.39c0-.28-.08-.45-.28-.39A.53.53,0,0,0,252.17,1249.86Zm2.61,19.28c.05-.31-.06-.49-.22-.48s-.2.13-.22.25c-.05.3.06.45.23.49S254.76,1269.25,254.78,1269.14Zm3.77-41a.29.29,0,0,0-.25-.17c-.11,0-.16.18-.1.37s.18.39.34.23A2.15,2.15,0,0,0,258.55,1228.14Zm6.65-48.58c0-.3-.11-.48-.26-.41a.46.46,0,0,0-.19.31c0,.35.12.4.27.39S265.2,1179.66,265.2,1179.56Zm4.28-24a.94.94,0,0,0,.12-.38s-.07-.14-.1-.13-.12.15-.19.23S269.38,1155.63,269.48,1155.56Zm40.68,22.92a1.32,1.32,0,0,0,0-.27,2.76,2.76,0,0,0-.17-.35v.28Zm-.68,8c-.07-.07-.13-.15-.19-.2a.27.27,0,0,0,0,.17,3.27,3.27,0,0,0,.14.33Zm-32.63,51a2.8,2.8,0,0,0-.15.3.38.38,0,0,0,.06.18c.06,0,.12-.09.19-.13Zm-3-110.42c.09.07.16-.08.12-.27a.58.58,0,0,0-.17-.34c-.09-.07-.14.06-.13.25S273.8,1127.07,273.87,1127.12Zm11.35,99.27c-.05-.09-.16-.06-.24-.09a1.75,1.75,0,0,0,.06.45c0,.09.16.06.24.08A1.66,1.66,0,0,0,285.22,1226.39Zm-17.17,10.18c0-.22,0-.32-.15-.27a.19.19,0,0,0-.1.15c0,.21,0,.31.15.28S268.05,1236.63,268.05,1236.57ZM303.56,1168a1.31,1.31,0,0,0,0-.37c0-.2-.09-.3-.13-.19a3,3,0,0,0-.05.37C303.46,1168,303.51,1168.13,303.56,1168Zm4.9,4.5.06.17.16.3-.11-.32Zm-26.29-13.92a.58.58,0,0,0-.05-.2s-.08,0-.09.1a.58.58,0,0,0,.05.2S282.16,1158.65,282.17,1158.6ZM263,1127.83s.08,0,.11-.06.08-.31,0-.37-.14.07-.2.11C262.84,1127.7,262.88,1127.81,263,1127.83Zm23,29.66a.9.9,0,0,0-.05-.19s-.08,0-.09.1a.9.9,0,0,0,.05.19S285.94,1157.54,286,1157.49Zm-8.2,6.18c0-.12-.08-.24-.12-.36,0,0-.08.12-.07.13l.11.37A.75.75,0,0,0,277.75,1163.67Zm-19.53,79.5c0-.18,0-.27-.12-.24a.36.36,0,0,0-.05.19,1,1,0,0,0,.07.15S258.21,1243.22,258.22,1243.17Zm51.41-67,.08.17a.27.27,0,0,0,0-.09l-.08-.17A.27.27,0,0,0,309.63,1176.15Zm-12.44-40.59c0-.2-.06-.28-.13-.21a.34.34,0,0,0-.05.17c0,.21.05.28.13.22A1.21,1.21,0,0,0,297.19,1135.56Zm.16-2.71a.68.68,0,0,0,0,.19s.06.08.08.06a.78.78,0,0,0,0-.19S297.37,1132.82,297.35,1132.85Zm7.07,28.74s0,.1,0,.05l-.09-.36,0,.08Zm-51.81,6.08s-.05,0-.08.08l0,.18.09-.09C252.64,1167.78,252.64,1167.69,252.61,1167.67ZM271.85,1233c-.08-.16-.17-.16-.23,0a.45.45,0,0,0,0,.23c.08.18.16.17.23,0A1,1,0,0,0,271.85,1233Zm27-115.57v-.28a.89.89,0,0,1,0,.13v.15Zm-26.71,11.81a1.58,1.58,0,0,0,0-.19,1.15,1.15,0,0,0-.17-.14v.21Zm28.27,8.4.06.55,0-.28-.05-.54ZM251.09,1156s.08,0,.09,0,0-.27-.05-.28,0,.09-.08.13A.69.69,0,0,0,251.09,1156Zm31.84,1.41,0,.19.11,0Zm27.14,28.45-.05-.22,0,.12Zm8.71,22.84s.09.17.11.17c.17,0,.17-.14,0-.28C318.85,1208.65,318.78,1208.67,318.78,1208.72Zm-44.16-77.24c0-.07,0-.17-.06-.19s-.06,0-.09.08l0,.21Zm33.24,39.58,0,.07-.06-.11ZM296,1132.92s-.08,0-.09.09,0,.27.11.23,0-.12.05-.18S296,1132.92,296,1132.92Zm-22.42,103a.75.75,0,0,0,0,.17c.08.15.12.11.12-.09Zm-20.2,6.56,0,.19.07-.17Zm44.81-120.71,0-.18-.06,0Zm10.41,50.57.07.12-.11-.18Zm-36.39,41.37-.09,0,.06.14Z" transform="translate(-200.64 -1107.56)"></path><path class="cls-1" d="M313.16,1194.74c-.27.16-.62.11-.76.55-.51,1.72-1.68,2.68-2.57,4-.44.65-.86,1.37-1.29,2.09a.51.51,0,0,0,.1.66c.45.35.38.73.07.94a10.47,10.47,0,0,0-1.76,1.71,5.8,5.8,0,0,0-1.11,1.52,1.7,1.7,0,0,1-.61.78,15.7,15.7,0,0,0-2.06,1.67,8.79,8.79,0,0,1-2,1.55c-.77.38-1.15,1.5-1.66,2.29a.94.94,0,0,0,0,.49c.06.12.18.23.26.22a4.63,4.63,0,0,0,2.07-1.36l2.43-2.21c.83-.75,1.6-1.47,2.5-2.15a8.21,8.21,0,0,0,2.45-3.35c.56-1.31,1.88-1.49,2.16-3.14-.12,0-.17.36-.34,0h.32c1.57.66,2.33-.62,2.72-2.12s1.09-3,1.4-4.5l.05.06a6.2,6.2,0,0,1-1.82-3.07,10.34,10.34,0,0,0-.56,3.33l.09.73c0,.07,0,.19,0,.19s-.2-.13-.18-.32S313.13,1194.94,313.16,1194.74Z" transform="translate(-200.64 -1107.56)"></path><path class="cls-1" d="M315.49,1194.43a4.23,4.23,0,0,1,.48-2.15c.78-1.67.71-4,.44-6a19.62,19.62,0,0,0-2.54-6.43,26.48,26.48,0,0,0-1.94-2.67,18.46,18.46,0,0,1,1.91,3.4,19.46,19.46,0,0,1,1.21,3.51,6.56,6.56,0,0,1,.16,2.19c0,.49-.25.53-.73-.22-.18-.27-.3-.26-.33-.08a11.78,11.78,0,0,0-.25,3.06,1.32,1.32,0,0,0,.13.48c.18.26.27.13.37,0,.29-.31.29-1,.37-1.51,0-.15.13-.29.24-.22a1.57,1.57,0,0,1,.47.92,4.8,4.8,0,0,1-.22,3,3,3,0,0,0,.27,2.75Z" transform="translate(-200.64 -1107.56)"></path><path class="cls-1" d="M306.74,1182.82a2.63,2.63,0,0,1-.24.72,4.41,4.41,0,0,0-1.11,2.12c-.07.31-.33.56-.51-.06-.11-.42-.14-1.07-.32-.23a2,2,0,0,0,0,.26c-.14,1-.14,1-.78.4l0-.06c0,.78-.44,1.44.08,2.4.21.39,0,1.08-.34,1s-.57-.54-.63.46c0,.59-.36.6-.61.76-1.37.83-2.4,2.56-3.08,5.07l0-.06a.78.78,0,0,0,.95-.23,22,22,0,0,0,2.22-2.6c.91-1.4,1.85-2.61,2.72-3.83a13,13,0,0,0,1.72-4.39,4.61,4.61,0,0,0-.07-1.76Z" transform="translate(-200.64 -1107.56)"></path><path class="cls-1" d="M259.41,1132.24c-2.46.44-4.85,1.73-7.28,2.64a2.5,2.5,0,0,0-1.32,1.09c.95.74,1.74,1.12,2.63.5.43-.3.56-1.51,1.08-1.37a1.56,1.56,0,0,0,1.16-.1,16.19,16.19,0,0,1,2.67-.91c.64-.22.95-.63,1.06-1.86Z" transform="translate(-200.64 -1107.56)"></path><path class="cls-1" d="M293.86,1119.07c.06.62.14,1.24.15,1.86s-.43.81-.76,1.07-.6.06-.81-.37-.45-.4-.53.06a8.45,8.45,0,0,1-.23,2.08l0,0,.46.62-.06,0a5,5,0,0,0,1.62-1.33c.22-.32.44,0,.65.18.36.5.48.46.61-.1.19-.8.33-1.63.55-2.4a4,4,0,0,0-.06-2.26l0,0v-.68l0,0c0-.79,0-1.59.05-2.39-.75.28-.93.48-1.07,1.52a5.52,5.52,0,0,1-.51,2.23Z" transform="translate(-200.64 -1107.56)"></path><path class="cls-1" d="M306.83,1169.45c-.36-1.2-.63-2.24-1.06-3.5v0l.29,1.16c.25,1,.46,2,.62,3a28.06,28.06,0,0,1,.22,3,17.23,17.23,0,0,1,0,2.5,7.9,7.9,0,0,0,.18,2.65l0,0a14.47,14.47,0,0,1,.18-2.21,11.55,11.55,0,0,0,0-3.4c-.08-.69-.17-1.29-.29-2a4.77,4.77,0,0,1-.14-1.42Z" transform="translate(-200.64 -1107.56)"></path><path class="cls-1" d="M312.39,1178.91a7.56,7.56,0,0,0,.52,1.52,3.69,3.69,0,0,0,.4.65c.1.1.2.06.16-.07a14.68,14.68,0,0,0-2.06-4.37c-.49-.76-1.51-2.19-1.08-1.58l0,0-.08-.12-.14-.16-.21-.28.53.8a21.33,21.33,0,0,1,2,3.65l0,.06Z" transform="translate(-200.64 -1107.56)"></path><path class="cls-1" d="M296.61,1198.17c-.37.51-.7,1.2-1.17,1.31-.76.17-1.24,1.21-1.82,1.91a.76.76,0,0,0-.1.67c.07.28.2.23.34.2.92-.25,1.66-1.31,2.43-2.46a2.87,2.87,0,0,0,.3-1.68Z" transform="translate(-200.64 -1107.56)"></path><path class="cls-1" d="M286.25,1218.93c.27.08.65-.28,1-.69a2,2,0,0,0,.72-1.15c.06-.32-.43-1-.87-1.21a.34.34,0,0,0-.52.22c-.27.7-.52,1.44-.74,2.2C285.78,1218.52,285.91,1218.79,286.25,1218.93Z" transform="translate(-200.64 -1107.56)"></path><path class="cls-1" d="M297.5,1215.76a5.54,5.54,0,0,0,1.19-2.39,2.28,2.28,0,0,0-1.78.7,1.15,1.15,0,0,0-.33,1c.06.54.3.6.54.61l.41,0Z" transform="translate(-200.64 -1107.56)"></path><path class="cls-1" d="M288.47,1207.09s.1.08.13.05c.62-.56,1.25-1.12,1.86-1.73a1.07,1.07,0,0,0,.19-1.1c-.15-.41-.3-.1-.47,0-.66.46-1.12,1.49-1.74,2.09-.05,0-.05.31-.06.47A.59.59,0,0,0,288.47,1207.09Z" transform="translate(-200.64 -1107.56)"></path><path class="cls-1" d="M307.73,1179.68a1.61,1.61,0,0,1-.44.49c-.39.2-.51.81-.39,1.9a1.08,1.08,0,0,1-.16.76l0-.08c.3.37.64.78.72-.11a9.6,9.6,0,0,1,.43-2.06,2.08,2.08,0,0,0-.16-1Z" transform="translate(-200.64 -1107.56)"></path><path class="cls-1" d="M295.56,1210c.92-.08,1.56-1.19,2.25-2.19a1.74,1.74,0,0,0,0-.48c0-.06-.1-.16-.12-.14-.8.66-1.78.82-2.07,2.87Z" transform="translate(-200.64 -1107.56)"></path><path class="cls-1" d="M296.59,1198.12c.26.35.46.85.83.33a15.37,15.37,0,0,1,1.32-1.35,2.21,2.21,0,0,0,.43-1.54l0,.06c-.35.86-1,.1-1.39.91a10.13,10.13,0,0,1-1.19,1.65Z" transform="translate(-200.64 -1107.56)"></path><path class="cls-1" d="M310.43,1175.2c-.1-.14-.11-.16-.08-.12l0,0c.27.4.44.58.49.65l-.06-.06-.18-.24-.15-.21Z" transform="translate(-200.64 -1107.56)"></path><path class="cls-1" d="M267.06,1135.54a5.31,5.31,0,0,0,.68.07c.06,0,.15-.2.15-.32a.62.62,0,0,0-.12-.39,1.66,1.66,0,0,0-.61-.39c-.4-.09-.76.22-1.12.52-.05,0-.05.29-.06.44a.3.3,0,0,0,.1.17C266.38,1135.83,266.68,1135.73,267.06,1135.54Z" transform="translate(-200.64 -1107.56)"></path><path class="cls-1" d="M294.49,1211c-.05-.11-.11-.3-.17-.32-.46-.14-1,.45-1.14,1.14a.61.61,0,0,0,0,.24c.31.45.82.19,1.23-.58A1.61,1.61,0,0,0,294.49,1211Z" transform="translate(-200.64 -1107.56)"></path><path class="cls-1" d="M280.51,1125.06a15.07,15.07,0,0,1-.12-1.51,1.22,1.22,0,0,0-.48-1.1c-.22-.24-.44,0-.45.54a2,2,0,0,0,.2,1.19A9.8,9.8,0,0,0,280.51,1125.06Z" transform="translate(-200.64 -1107.56)"></path><path class="cls-1" d="M282.47,1133.64a9.84,9.84,0,0,0,.08-2.82.41.41,0,0,0-.18-.31c-.07,0-.16.08-.21.18a2.35,2.35,0,0,0-.13,1.45c.13.55.31,1,.47,1.58Z" transform="translate(-200.64 -1107.56)"></path><path class="cls-1" d="M293,1202.69c-.71,0-1.15.53-1.59,1.08a.77.77,0,0,0,0,.46c0,.12.18.25.23.2A7,7,0,0,0,293,1202.69Z" transform="translate(-200.64 -1107.56)"></path><path class="cls-1" d="M294.17,1194.08c.34.14.68.48,1,0a1.24,1.24,0,0,0,.17-.91c-.1-.4-.31-.35-.45-.15s-.46.78-.69,1.18Z" transform="translate(-200.64 -1107.56)"></path><path class="cls-1" d="M289.8,1116.05a3.15,3.15,0,0,0-.08,2.34c0,.06.08.14.1.12a.56.56,0,0,0,.14-.3A7.47,7.47,0,0,0,289.8,1116.05Z" transform="translate(-200.64 -1107.56)"></path><path class="cls-1" d="M263.89,1135.88a1.84,1.84,0,0,0,.44-.2.61.61,0,0,0,.12-.39c0-.13-.11-.31-.17-.3a3.8,3.8,0,0,0-.87.16.62.62,0,0,0-.12.36.47.47,0,0,0,.18.3A1.27,1.27,0,0,0,263.89,1135.88Z" transform="translate(-200.64 -1107.56)"></path><path class="cls-1" d="M307.55,1170.38l-.06-.14-.07-.17-.11-.28-.11-.22,0,0,.07.15c0,.07.08.17.09.19Z" transform="translate(-200.64 -1107.56)"></path><path class="cls-1" d="M278.17,1117.06c.18.61.35,1.24.55,1.84.07.21.24.33.32.09a1.61,1.61,0,0,0,0-.72,1.55,1.55,0,0,0-.84-1.15Z" transform="translate(-200.64 -1107.56)"></path><path class="cls-1" d="M289.71,1215.68a1.68,1.68,0,0,0-.06-.24c-.1-.23-.24-.3-.37-.19a1.17,1.17,0,0,0-.41.91.28.28,0,0,0,.08.18c.28.09.54,0,.73-.41A1,1,0,0,0,289.71,1215.68Z" transform="translate(-200.64 -1107.56)"></path><path class="cls-1" d="M292.39,1213c-.61-.53-.74-.54-.92.06a1,1,0,0,0,.06.92c.08.1.27,0,.36-.08a6.44,6.44,0,0,0,.46-.91Z" transform="translate(-200.64 -1107.56)"></path><path class="cls-1" d="M281.28,1135.73c.66-.09,1.05-.81,1.18-2.1l0,.09c-.54-.14-.53-.13-.77.8-.12.45-.3.82-.45,1.23Z" transform="translate(-200.64 -1107.56)"></path><path class="cls-1" d="M305.77,1166a1.27,1.27,0,0,1,.11.3s0,0,0,0l.05.17.1.31c0,.09,0,.1,0,0l-.18-.56-.1-.34,0-.09,0,.11,0,.15Z" transform="translate(-200.64 -1107.56)"></path><path class="cls-1" d="M250.76,1132.23c-.24.18-.49.35-.73.56a.85.85,0,0,0-.07.43c0,.13.14.23.21.23.39,0,.51-.57.58-1.22Z" transform="translate(-200.64 -1107.56)"></path><path class="cls-1" d="M290.69,1215.33a.64.64,0,0,0,.23-.56c0-.38-.2-.67-.37-.51a.7.7,0,0,0-.17.64C290.42,1215.18,290.53,1215.33,290.69,1215.33Z" transform="translate(-200.64 -1107.56)"></path><path class="cls-1" d="M312.44,1177.33l0,0-.05,0v0Z" transform="translate(-200.64 -1107.56)"></path><path class="cls-1" d="M278.94,1210.3a1.8,1.8,0,0,0,.19.2,1.07,1.07,0,0,0,.06-.17,3.4,3.4,0,0,0-.12-.34Z" transform="translate(-200.64 -1107.56)"></path><path class="cls-1" d="M278.86,1125.38c.08.21.17.4.32.23a.41.41,0,0,0,0-.22.81.81,0,0,0-.2-.28C278.89,1125,278.84,1125.17,278.86,1125.38Z" transform="translate(-200.64 -1107.56)"></path><path class="cls-1" d="M285.15,1209.25c-.06-.07-.16-.22-.19-.19a.74.74,0,0,0-.11.38c0,.11.09.33.12.32S285.17,1209.52,285.15,1209.25Z" transform="translate(-200.64 -1107.56)"></path><path class="cls-1" d="M295.42,1216.72c.05.09.11.28.17.26s.19-.3.12-.54-.16-.17-.21-.13A2.28,2.28,0,0,0,295.42,1216.72Z" transform="translate(-200.64 -1107.56)"></path><path class="cls-1" d="M310.93,1175.85l.05.05-.08-.09-.09-.11.05.06Z" transform="translate(-200.64 -1107.56)"></path><path class="cls-1" d="M305.84,1166.15l-.09-.33a.39.39,0,0,0,0-.1,1.83,1.83,0,0,1,.08.25C305.84,1166.15,305.86,1166.21,305.84,1166.15Z" transform="translate(-200.64 -1107.56)"></path><path class="cls-1" d="M305.09,1163.94l-.11-.33-.05-.17.1.34Z" transform="translate(-200.64 -1107.56)"></path><path class="cls-1" d="M294.2,1194.15c-.14.17-.28.34-.42.53a.61.61,0,0,0,0,.24c.05.19.16.25.21.07s.13-.6.19-.91Z" transform="translate(-200.64 -1107.56)"></path><path class="cls-1" d="M295.59,1210.07a1.8,1.8,0,0,0-.24-.19c-.13-.06-.25,0-.26.32,0,.06,0,.2.06.2a.26.26,0,0,0,.21-.08c.06-.08.13-.21.2-.32Z" transform="translate(-200.64 -1107.56)"></path><polygon class="cls-1" points="110.89 68.92 110.87 68.89 110.86 68.88 110.89 68.92"></polygon><path class="cls-1" d="M284.19,1209.8s-.09,0-.1.1a.39.39,0,0,0,.05.18s.07,0,.11-.08Z" transform="translate(-200.64 -1107.56)"></path><path class="cls-1" d="M262.33,1135.57a.73.73,0,0,0-.07-.21c-.11-.11-.17,0-.15.2,0,.06.07.12.11.12S262.29,1135.61,262.33,1135.57Z" transform="translate(-200.64 -1107.56)"></path><polygon class="cls-1" points="84.9 7.03 84.8 7.02 84.84 7.21 84.9 7.03"></polygon><path class="cls-1" d="M258.72,1136.63s.08,0,.09-.09a.37.37,0,0,0,0-.21c-.09-.13-.14-.08-.15.14A.37.37,0,0,0,258.72,1136.63Z" transform="translate(-200.64 -1107.56)"></path><path class="cls-1" d="M291.81,1111.5l.05-.2c-.05,0-.13-.08-.15-.06S291.64,1111.49,291.81,1111.5Z" transform="translate(-200.64 -1107.56)"></path><path class="cls-1" d="M296,1194.28a1.11,1.11,0,0,0,0-.23s-.08-.11-.11-.09a.25.25,0,0,0,0,.37S296,1194.3,296,1194.28Z" transform="translate(-200.64 -1107.56)"></path><path class="cls-1" d="M257.1,1137.47a.38.38,0,0,0,0-.4s-.08-.08-.11-.06a.42.42,0,0,0-.07.2C256.94,1137.41,257,1137.5,257.1,1137.47Z" transform="translate(-200.64 -1107.56)"></path><polygon class="cls-1" points="40.76 39.64 40.86 39.65 40.82 39.48 40.76 39.64"></polygon><path class="cls-1" d="M280.3,1119.83l-.08-.18a.54.54,0,0,0-.05.21.4.4,0,0,0,.07.18Z" transform="translate(-200.64 -1107.56)"></path><path class="cls-1" d="M310.41,1191.68c-.07.11-.23.11-.15.44,0,0,.08,0,.09-.06s0-.29,0-.44Z" transform="translate(-200.64 -1107.56)"></path><path class="cls-1" d="M248.75,1131.29H249c.11,0,.15-.1.09-.23s-.07,0-.1,0l-.21.22Z" transform="translate(-200.64 -1107.56)"></path><path class="cls-1" d="M263.39,1121.75c.1-.06.24,0,.27-.31,0,0-.08,0-.09,0s-.1.26-.14.39Z" transform="translate(-200.64 -1107.56)"></path><polygon class="cls-1" points="81.94 18.89 82.02 19.05 82.04 18.85 81.94 18.89"></polygon><path class="cls-1" d="M312.24,1177.16l.05,0,0,0-.07,0Z" transform="translate(-200.64 -1107.56)"></path><polygon class="cls-1" points="85.11 95.54 85.18 95.41 85.09 95.36 85.11 95.54"></polygon><path class="cls-1" d="M311,1176l0,0-.05,0,0,0Z" transform="translate(-200.64 -1107.56)"></path><polygon class="cls-1" points="88.96 14.52 89.03 14.66 89.05 14.49 88.96 14.52"></polygon><path class="cls-1" d="M289.3,1123.48l.26.42a.68.68,0,0,0,0-.19,1.18,1.18,0,0,0-.22-.17Z" transform="translate(-200.64 -1107.56)"></path><path class="cls-1" d="M311,1177.59a1.5,1.5,0,0,0-.18-.5.15.15,0,0,0,0,.09l.2.47Z" transform="translate(-200.64 -1107.56)"></path><polygon class="cls-1" points="55.45 29.8 55.52 29.96 55.55 29.76 55.45 29.8"></polygon><path class="cls-1" d="M296.11,1107.65l.08.45c0,.23.09.28.14.11a.33.33,0,0,0,0-.21,2.83,2.83,0,0,0-.2-.28Z" transform="translate(-200.64 -1107.56)"></path><path class="cls-1" d="M278.36,1209.91a.43.43,0,0,0,.06-.18.29.29,0,0,0-.07-.14A.21.21,0,0,0,278.36,1209.91Z" transform="translate(-200.64 -1107.56)"></path><path class="cls-1" d="M277.78,1118.94l-.3-.28s0,.14.06.15l.24.06Z" transform="translate(-200.64 -1107.56)"></path><path class="cls-1" d="M250.75,1132.23a1.73,1.73,0,0,0,.21.25.65.65,0,0,0,.2,0l-.17-.16c-.08-.06-.15-.09-.23-.14Z" transform="translate(-200.64 -1107.56)"></path><path class="cls-1" d="M249.89,1130.81a.6.6,0,0,0,0,.18s.08,0,.08-.07C250,1130.71,250,1130.67,249.89,1130.81Z" transform="translate(-200.64 -1107.56)"></path><polygon class="cls-1" points="80.95 98.82 80.88 98.91 80.96 98.97 80.95 98.82"></polygon><path class="cls-1" d="M260.5,1136.07s.11,0,0,.06Z" transform="translate(-200.64 -1107.56)"></path><path class="cls-1" d="M291.76,1225.36a1.55,1.55,0,0,0,.07-.45c0-.18-.07-.11,0,.16a1.21,1.21,0,0,1,0,.25Z" transform="translate(-200.64 -1107.56)"></path><path class="cls-1" d="M291.19,1138.18l-.06-.45.06.48Z" transform="translate(-200.64 -1107.56)"></path><path class="cls-1" d="M294.23,1127.89l-.07-.44.06.46Z" transform="translate(-200.64 -1107.56)"></path><path class="cls-1" d="M306.46,1178.5l.07.35,0-.17-.05-.19Z" transform="translate(-200.64 -1107.56)"></path><path class="cls-1" d="M306.45,1178.49l.58-.14,0,0-.6.11Z" transform="translate(-200.64 -1107.56)"></path><path class="cls-1" d="M248.75,1131.31l0-.23,0,.21Z" transform="translate(-200.64 -1107.56)"></path><polygon class="cls-1" points="67.34 13.49 67.33 13.75 67.33 13.5 67.34 13.49"></polygon><path class="cls-1" d="M314.24,1184.2l-.09,0c.14,0-.1-.39.07,0Z" transform="translate(-200.64 -1107.56)"></path><path class="cls-1" d="M289.31,1123.54l0-.19-.05.13Z" transform="translate(-200.64 -1107.56)"></path><path class="cls-1" d="M310.57,1190.93l-.16.74,0-.05.15-.74Z" transform="translate(-200.64 -1107.56)"></path><path class="cls-1" d="M271.36,1132.53l0,.06Z" transform="translate(-200.64 -1107.56)"></path><path class="cls-1" d="M251.2,1128.69l0,.1,0-.17Z" transform="translate(-200.64 -1107.56)"></path><path class="cls-1" d="M311.54,1176.49l0,0,0,0Z" transform="translate(-200.64 -1107.56)"></path><path class="cls-1" d="M303.76,1186l0-.07Z" transform="translate(-200.64 -1107.56)"></path><polygon class="cls-1" points="97.83 103.77 97.82 103.86 97.8 103.75 97.83 103.77"></polygon><polygon class="cls-1" points="97.8 103.75 97.73 103.85 97.83 103.77 97.8 103.75"></polygon><path class="cls-1" d="M297.53,1215.69l0,.07Z" transform="translate(-200.64 -1107.56)"></path><path class="cls-1" d="M296.09,1107.72l.05-.16a.47.47,0,0,1,0,.09Z" transform="translate(-200.64 -1107.56)"></path><polygon class="cls-1" points="94.77 10.86 94.76 10.22 94.79 10.2 94.8 10.87 94.77 10.86"></polygon><path class="cls-1" d="M293.87,1119.14l0-.19-.05.11Z" transform="translate(-200.64 -1107.56)"></path><polygon class="cls-1" points="91.04 16.21 91.04 16.81 91 16.83 91 16.19 91.04 16.21"></polygon><path class="cls-1" d="M292.35,1213l.09.07,0,0Z" transform="translate(-200.64 -1107.56)"></path><polygon class="cls-1" points="58.77 24.67 59 25.29 58.99 25.28 58.78 24.68 58.77 24.67"></polygon><path class="cls-1" d="M260.21,1132.84h0Z" transform="translate(-200.64 -1107.56)"></path><path class="cls-1" d="M260.51,1136.13l0-.19,0,.13Z" transform="translate(-200.64 -1107.56)"></path><path class="cls-1" d="M314.61,1184.93l-.37-.72,0-.08.42.8Z" transform="translate(-200.64 -1107.56)"></path><polygon class="cls-1" points="85.53 11.35 85.48 11.41 85.56 11.36 85.53 11.35"></polygon><polygon class="cls-1" points="109.79 67.64 109.8 67.66 109.79 67.65 109.79 67.64"></polygon><polygon class="cls-1" points="29.46 7.44 29.57 7.41 29.5 7.41 29.46 7.44"></polygon><path class="cls-1" d="M268.54,1121.06h0Z" transform="translate(-200.64 -1107.56)"></path><path class="cls-1" d="M314.64,1184.93l-.09,0,.06,0Z" transform="translate(-200.64 -1107.56)"></path><path class="cls-1" d="M311.06,1177.65l0-.06Z" transform="translate(-200.64 -1107.56)"></path><path class="cls-1" d="M268,1121.06h0Z" transform="translate(-200.64 -1107.56)"></path><path class="cls-1" d="M279.6,1228.94l0,0Z" transform="translate(-200.64 -1107.56)"></path><path class="cls-1" d="M278.18,1117.12l0-.19,0,.12Z" transform="translate(-200.64 -1107.56)"></path><path class="cls-1" d="M277.78,1118.87l0,.17,0-.09Z" transform="translate(-200.64 -1107.56)"></path><path class="cls-1" d="M229,1119.85l0,0Z" transform="translate(-200.64 -1107.56)"></path><path class="cls-1" d="M307.13,1169.42l0-.05Z" transform="translate(-200.64 -1107.56)"></path><polygon class="cls-1" points="106.46 61.81 106.19 61.22 106.21 61.27 106.49 61.86 106.46 61.81"></polygon><path class="cls-1" d="M311.13,1180.33v0Z" transform="translate(-200.64 -1107.56)"></path><path class="cls-1" d="M256.41,1181.49c.24.37.48.78.81.45a.74.74,0,0,0,.13-.66c0-.12-.14-.26-.2-.23-.24.14-.48.33-.73.5Z" transform="translate(-200.64 -1107.56)"></path><path class="cls-1" d="M243,1195.38c.25-.26.5-.49.74-.78.09-.11.07-.39,0-.41a3.19,3.19,0,0,0-.69,0Z" transform="translate(-200.64 -1107.56)"></path><polygon class="cls-1" points="57.35 70.19 57.42 70.06 57.34 70.02 57.35 70.19"></polygon><path class="cls-1" d="M248.12,1189l0-.07Z" transform="translate(-200.64 -1107.56)"></path><path class="cls-1" d="M253.47,1184.05h0Z" transform="translate(-200.64 -1107.56)"></path><path class="cls-1" d="M243.05,1194.31v0Z" transform="translate(-200.64 -1107.56)"></path><path class="cls-1" d="M298.91,1175.32c.06-.17.21-.26.11-.57,0,0-.08,0-.08.07v.5Z" transform="translate(-200.64 -1107.56)"></path><path class="cls-1" d="M301.19,1169.29l.36.3h0c-.11-.07-.21-.14-.34-.21Z" transform="translate(-200.64 -1107.56)"></path><path class="cls-1" d="M301.19,1169.37v0Z" transform="translate(-200.64 -1107.56)"></path><path class="cls-1" d="M298.94,1175.32l-.09-.11.06.11Z" transform="translate(-200.64 -1107.56)"></path><polygon class="cls-1" points="46.87 59.55 46.82 59.64 46.9 59.56 46.87 59.55"></polygon><path class="cls-1" d="M245.93,1193.13s-.07-.08-.09-.06a.53.53,0,0,0,0,.18s.07.08.09.06A.6.6,0,0,0,245.93,1193.13Z" transform="translate(-200.64 -1107.56)"></path><path class="cls-1" d="M281.63,1150.36l0,.06Z" transform="translate(-200.64 -1107.56)"></path><polygon class="cls-1" points="39.64 101.39 39.54 101.32 39.6 101.4 39.64 101.39"></polygon><path class="cls-1" d="M272.44,1143.68l0-.19-.05.12Z" transform="translate(-200.64 -1107.56)"></path><path class="cls-1" d="M285.24,1196.33l0,.08Z" transform="translate(-200.64 -1107.56)"></path><path class="cls-1" d="M281.66,1200.14l.07,0,0,0Z" transform="translate(-200.64 -1107.56)"></path><path class="cls-1" d="M296.52,1179.52a.74.74,0,0,0-.9,0C295.93,1180.05,296.23,1180,296.52,1179.52Z" transform="translate(-200.64 -1107.56)"></path><path class="cls-1" d="M260.49,1241.59l0-.14s0,0,0,.06Z" transform="translate(-200.64 -1107.56)"></path><path class="cls-1" d="M253.35,1146.23l0-.07Z" transform="translate(-200.64 -1107.56)"></path><polygon class="cls-1" points="90.58 125.55 90.59 126.18 90.93 126.17 90.58 125.55"></polygon></svg>
