<svg id="Layer_1" data-name="Layer 1" xmlns="http://www.w3.org/2000/svg" viewBox="0 0 166.34 151.99"><defs><style>.cls-1{fill:#0f0619;}</style></defs><path class="cls-1" d="M498.91,1190a1.26,1.26,0,0,0,0-.28,2.74,2.74,0,0,0,0-.63c-.18-.27-.21.14-.3.31h.06c-.57,0-.94.59-1.07,1.89-.06.53-.18,1.1-.45,1-.89-.32-1.76.15-2.65-.59a2,2,0,0,1-.83-1.45c-.17-1.58-.73-1.88-1.09-2.82l.25-.36s-.06-.07-.07,0l-.15.4-.37.15c-.37.17-.46.73-.27,1.65v.93c-.22.19-.46.32-.67-.05-.46-.79-.88-.66-1.32-.16l0,0,.22-3,.28.66-.07,0,0,0,.54.2.16-.42c-.17-.14-.11.3-.17.45-.21-.7-.46-.9-.76-.75-.35-.22-.59.18-.79.8s-.49.92-.83.62c.07-.15.15-.28.21-.44a1.32,1.32,0,0,0,.22-1.07c0-.19-.25-.28-.36-.19-.31.28-.21.87-.09,1.42l.08.3a.63.63,0,0,1-.79,0c-.88-.61-1.74-1.27-2.58-2,.08,0,.18,0,.22-.15s0-.24-.08,0c0,.07-.07.09-.11.12-.17.29-.35.51-.5.24-.39-.68-.72-.15-1.08.54l0,0a18,18,0,0,1-2.47-2.25c-.31-.37-.58-.55-.94-.46s-1.08.72-1.52.11c-.68.79-.81.09-.77-1.51,0-1.19-.49-.56-.82-.43l0-.06c-.17-.15-.36-.12-.59.22l0-.06-.27-.63h0c-.34.43-.64.56-.84.06-.28-.78-.69-.87-1.25-.32s-.73.25-.85-.43-.46-.9-.84-.94-.5-.29-.74-.45l0,0a4.27,4.27,0,0,1,.91-1.93c.09-.16.19-.33.28-.46,1.14-1.57,1.12-1.62,1.58.13.11.42.2.91.52.56a3,3,0,0,0,.66-1.65c.13-1-.13-.89-.38-.81l0,0a3.49,3.49,0,0,0-.2-.47c-.83-1.21-1.08-1.53-2.49,2.66-.06-.58-.25-.76-.6,0-.76,1.6-1.33,1.78-1.83,1.33-.35-.33-.76-.5-1.06-1-.57-.89-1.61-.52-2.17-1.43-.07-.12-.25,0-.36,0a1.6,1.6,0,0,1-1-.43,2.7,2.7,0,0,0-1.16-.82,19.75,19.75,0,0,1-3.24-1.73,22.41,22.41,0,0,1-2.19-1.57,6.4,6.4,0,0,0-2.28-1.33c-.08,0-.09-.14-.13-.22s.26-.83.52-1.11.71-.66.89-.61c.39.11,1-.26,1.19.31,0,.15.28,0,.47-.4a2.18,2.18,0,0,0,.27-.81,3,3,0,0,0-.72-1c-.74-.67-1.39-1.44-2.79-1a2.69,2.69,0,0,1-3-.78,3,3,0,0,0-1.19-.74c-.29-.13-.81.31-1.45,1.1l0,0a5.75,5.75,0,0,0,.35-1.25c0-.41-.28-.54-.91-.13s-1,1.19-1.44,1.8l-.21.28h0c-1.1,1.14-1.12,1.15-1.24.64a8.12,8.12,0,0,1,.9-1.39.81.81,0,0,0,.12-.39c0-.13-.49.36-.61.63s-.28.77-.41,1.17a2.53,2.53,0,0,1-.73-.17c-.19-.1-.16-.39.24-1,.59-1,.54-.93-.29-.76l0,.06-.53-.2,0,0a26.46,26.46,0,0,0,2-2.3l0,.07,2-1.57c.37-.66-.08-.61.38-1.32a5.87,5.87,0,0,1,.95-1.27c.52-.5.82-.62,1-.6.52.07,1.27-.21,2.5-1.2a7.72,7.72,0,0,1,1.3-.83,10.32,10.32,0,0,0,2.59-1.92,8.63,8.63,0,0,1,2.7-1.94,3.52,3.52,0,0,1,1.07-.29c1,0,2.73-1.44,4.47-3.08l2.51-2.38c.82-.81,1.33-1.1,2-1.73,1.25-1.16,2.53-2.59,3.65-3.87a47.38,47.38,0,0,0,3.68-5.1,25.62,25.62,0,0,1,2.26-3.23,6.13,6.13,0,0,0,1-1.79c.27-.59.53-1.15.66-1.38.48-.85.95-1.81,1.3-2.57.43-1,.54-1,.77-1.56a14.9,14.9,0,0,0,.76-2.42l.12-.64,0-.27s0-.72,0,.22v0c0-.23-.08-.8.19,1.27l0,.1c.13.71.21,1,.53,2.4.13.53.18.63.42,1.68.13.59.2.73.25.78a8.78,8.78,0,0,1,.45,1.11,9.6,9.6,0,0,0,.44,1.2,6.86,6.86,0,0,1,.52,1.49,6.28,6.28,0,0,0,.89,2.25c.11.07.27.32.39.42a4.73,4.73,0,0,1,.73,1.66,11.74,11.74,0,0,0,1.36,3.08c.51.71,1,1.4,1.77,2.62a20.75,20.75,0,0,0,1.46,2.11,16.47,16.47,0,0,1,1.68,2.49,1.15,1.15,0,0,0,.43.45c.21.15.39.19.6.34a2,2,0,0,1,.5.91c.49,1.34.52,1.42.94,1.85a7,7,0,0,1,1.43,2.07,2.17,2.17,0,0,0,.71.91,15.4,15.4,0,0,0,2.19,1.43,9.43,9.43,0,0,1,1.8,1.68,1.73,1.73,0,0,1,.43,1c0,.16-.08.22-.1.36a2.65,2.65,0,0,0,1,2.15,4.63,4.63,0,0,0,.94.74,11.5,11.5,0,0,1,1.92,1.45c1.34,1.11,2.86,2.71,4.19,3.36a2.68,2.68,0,0,1,1,1.3c.57,1.13,1.06,1.58,1.53,1.54.22,0,.37-.18.58-.23s.47-.06.85.48a1.15,1.15,0,0,1,.22.94,2.8,2.8,0,0,0-.08.54,1.86,1.86,0,0,0,.71,1.21,2.06,2.06,0,0,0,1.21.38,1.15,1.15,0,0,1,.69.24c.48.41,1,.94,1.45,1.43s1,.44,1.33,1.28c0,.49-.25.51-.44.65-.42.33-.85.63-1.25,1-.15.13-.19.45.09.9a1.46,1.46,0,0,0,.57.53c.68.19,1.3.26,2,.38a.71.71,0,0,1,.55.51.64.64,0,0,1-.07.58,1.25,1.25,0,0,1-.66.37,2.87,2.87,0,0,0-1.91,1.5c-.27.44-.31,1.17-.62,1.5s-1,.33-1.42.56c-.27.14-.44.47-.66.72l.06,0c-1-.29-2-.72-2.66-.21a.84.84,0,0,1-.87.14,3.29,3.29,0,0,0-2.43,0l0,0c-1.34,0-2.63,0-3.94-.18-.26,0-.44.14-.55.48V1184c-.73-.36-1.38-.64-1.83,0a.68.68,0,0,1-.66.22,16.94,16.94,0,0,1-2-.12,6.7,6.7,0,0,1-2.07-.71c-.65-.36-1.24-.39-1.85-.67-.87-.42-1.65-.19-2.47-.8s-1.17-.1-1.57.86c-.57-1.47-.56-1.47-1-.79-.16-.7-.36-1.24-.65-1.36-.92-.41-1.83-1-2.68-.76a7.35,7.35,0,0,0-.57-.71c-.15-.14-.36-.26-.42.19a2.13,2.13,0,0,0,.32,1.38v-.11c0,.45,0,1,.17,1.2s.22-.11.29-.31a5.89,5.89,0,0,0,.21-1.76,4.36,4.36,0,0,0,.59,1.4c.63.84.64.88.49,2.86l0-.19,0,.08,1.12.73.08-.53-.09.54c-.14-1.33,0-2.22.46-2.4a5.91,5.91,0,0,0,.69-.38c.11.64.22,1.28.35,2.07.34-.08.46-.76.63-1.29,0,.34.06.68.11,1,.29,1.72.38,1.87,1.15,1.74h-.05c.58.88,1.11.42,1.7.9s.88.29.69-1.24c0-.37.17-.32.31,0,.2.46.39,1,.59,1.46v-.07c.39,1,.75.79,1.08.66v0l.3.23c1.06.78,2.07,1.12,2.33-1.14.06-.54.43.26.65.72l0-.12c0,.71.09,1.28.55,1.56l0,0c.81.79,1.44.29,2.18.52,1,.33,1.74.06,1.83-1.77,0-.59.36-.66.76-.25a2.39,2.39,0,0,1,.51,1.46l0-.12a13,13,0,0,1,1.34,1.86,6.49,6.49,0,0,0,.83,1.3c.29.37.62.76.92,1.17l0,0c-.42.12-.64,1.11-1.4-.2-.11-.18-.34-.12-.49-.09s-.52.13-.82-.39c-.67-1.15-.95-.57-1.27-.12l0,0c-.49.25-.84,1.14-1.62,0-.83,0-1.64,0-2.46-.12-.36,1.11-1.23.72-1.75,1.41h.07a1.31,1.31,0,0,1-.71-1c-.59-1.94-.67-2-1.34-1.32s-1.09.4-1.71-.73c-.13-.24-.28-.42-.43-.18.12.51.25,1,.37,1.58.41,1.78.41,1.75-.42,1.59-.3,0-.58.12-.89.11a.36.36,0,0,1-.28-.26.6.6,0,0,1,.14-.69,1,1,0,0,0,0-1.08c-.27-.47-.57-.85-.84-1.27Zm.45-33.26,0,0Zm3.74,21.08,0,.16a.39.39,0,0,0,0,.09Zm17.42-2.08a.45.45,0,0,0,0,.16,2.53,2.53,0,0,0,.13.22l0,0Zm-29.62,4.54.15-.47a1.4,1.4,0,0,0,.11-1c0-.13-.14-.22-.2-.19s-.32.44-.2,1.15a2.78,2.78,0,0,0,.17.51,3.81,3.81,0,0,0-.59,1.45s0,0,0,0Zm-2.57-19.86c.06.63.15,1.07.32.92.23.73.48.9.72.83l.1-.37c-.11-.22-.07.26-.1.4-.3-2-.32-2-.73-.71,0-.83-.13-1.19-.31-1l-.28-.16-.31.43v-.12c.1-.12.2-.27.31-.41Zm-21.74,13-.09.16c0-.22,0,0,0-.06Zm19.72-47v0Zm-24.79,39c0-.14.1-.47-.16-.22,0,.07-.06.19,0,.19a.76.76,0,0,0,.25-.06l.18.36c0,.11,0,0-.06.09Zm29.77-2,0,.09c-.2-.59-.36-.63-.52-.34-.28-1.17-.36-1.31-.56-.91a1.8,1.8,0,0,0,0,.51,1.32,1.32,0,0,0,.14.46c.18.27.34.18.46-.19.18.47.36.62.51.34Zm-4.68-35.48v.18c0-.14,0-.32.06-.49l0,.22v-.09c-.08-.49-.08-.25-.06.47Zm-19.94,40.7c-.15.8,0,1.16.19,1.38.47.47.92,1,1.4,1.52a1.71,1.71,0,0,1,.31.62,2.71,2.71,0,0,1-.14.61.66.66,0,0,1-.15.23c-.15.1-.28.16-.42.26a.92.92,0,0,0-.38.68c0,.16,0,.33.1.28a4.44,4.44,0,0,0,1.16-.87c.9-1,1.26-.58,1.6.07.49,1,.51,1,1.66-1a4.46,4.46,0,0,0-.05,1.84,9.38,9.38,0,0,1,.24,2.25l-.08,0h0a7.2,7.2,0,0,0,1.11-2.49c.14-1.2-.37-1-.76-.83s-.5,0-.54-.63c-.67-.67-1.34-1.26-2-1.92a3.61,3.61,0,0,0-1.88-1.29c-.55-.08-.67-1.14-1.46-.64-.31.22-.39-.08-.52-.28-.11-.61-.29-1-1-.26.07-.49.09-.91-.15-.88s-.3.22-.47.58-.22.61-.14.69.51-.23.82-.49c.11.57.28,1.1,1,.23C465.88,1169.65,465.91,1169.68,466.67,1168.59Zm14.79,12c-.42-.46-.78-1.14-1.3-.9a7.44,7.44,0,0,1-1.64-1.91,1.41,1.41,0,0,0-.9-.7c-.29-.11-.61-1-.95.46a1.72,1.72,0,0,0,.47,1.78c.43.56,1,.59,1.41,1.34a2.32,2.32,0,0,0,.5.53c.51.51.76.44,1.13-1.64,0,.4.05.86.11,1.2.39,2.11.48,2.16,1.53.52.31.7.64,1.4,1,2.09.09.18.2.48.31.43.79-.36,1.45.52,2.21.68.06,0,.17-.2.21-.38a1.57,1.57,0,0,0-.07-1,2,2,0,0,0-.54-.64,24.83,24.83,0,0,1-2.17-1.57c-.32-.27-.63,0-1,.47l-.38-.8Zm11.91-31.46-.05-.46a8.21,8.21,0,0,0,.42,1.51c.24.17.74,1.56.83.9a6.53,6.53,0,0,1,.16-.75,1.15,1.15,0,0,0-.1-.51,2.59,2.59,0,0,0-.21-.38c0-.06-.07-.09-.08-.07-.2.38-.63-.19-1-.69Zm-30.16,22.3c0,.21.2-.16.29-.25a1.28,1.28,0,0,0,.19,1,7.41,7.41,0,0,0,1.16,1.15c.26.19.59.29,1.29-.72-.76-.88-1.46-1.64-2.66-1.39Zm52.1,2.84c-.09,0-.15,0-.22,0,.09.1.2.26.27.29s.16,0,.24,0c.87,1.17,1.66,1.82,2.21,1.37l0,0a4,4,0,0,0,.73.42c.25.09.24-.36,0-.72-1-1.57-1.72-2.13-2.35-1.86a.78.78,0,0,0-.52.85A3,3,0,0,0,515.31,1174.24Zm-12-12.07c.2.17,0-.28,0-.42.62,1.49,1.21,2.51,1.81,2.57.14,0,.38.3.57.43.55.37.65.1.37-1-.17-.66-.54-1.3-.81-1.39s-.43,0-.66-.1c-.42-.13-.85-.31-1.27-.47ZM519,1179a.76.76,0,0,0-.19-.21.43.43,0,0,0-.18-.09c-.93,0-1.82-.08-2.68-.06a8.58,8.58,0,0,0-2.47.3.48.48,0,0,0-.28.34,1.73,1.73,0,0,0,.1.55.58.58,0,0,0,.15.24,1.59,1.59,0,0,0,.5.28,33.19,33.19,0,0,0,3.47.41,2.21,2.21,0,0,0,1.67-.81c.07-.07.07-.24.1-.37S519.09,1179.21,519,1179Zm-10.49-4.92c1,.6,2,1,2.68.58a.45.45,0,0,0,.14-.46c-.14-.55-.37-.62-.58-.71a4.06,4.06,0,0,0-2.5-.17s0,.14,0,.23.07.21.11.33S508.47,1174.07,508.52,1174.09ZM492.9,1165c.26-.13.52-.15.84.3,0,0,.07-.17.09-.3a1.11,1.11,0,0,0-.07-.31,3.56,3.56,0,0,0-.28-.76c-.56-.47-1.08-.88-1.56-.83-.05,0-.07.23-.09.39a4.38,4.38,0,0,0,.05.5C492.2,1164.4,492.59,1165.17,492.9,1165Zm-31.8,5.33a1.52,1.52,0,0,0-.15.55c.08.85.74.57,1.34.35a1.47,1.47,0,0,0,.35-.48,2.12,2.12,0,0,0,.17-.58c0-1.07-.63-.8-1.26-.57C461.33,1170,461.18,1170.15,461.1,1170.33Zm1.53-3.54a1.22,1.22,0,0,0,1.21.87c.06,0,.22-.2.33-.33a1.24,1.24,0,0,0,.17-.27,2.44,2.44,0,0,0,.18-.53,8.34,8.34,0,0,0-1.32-.62c-.08,0-.3.19-.51.65A1.31,1.31,0,0,0,462.63,1166.79Zm32.77,23.82c.29,0,.45-.85.41-2.09a2,2,0,0,0-.13-.64c-.15-.31-.25-.1-.32.17-.1.43-.09,1.12-.35,1.21s-.45-.43-.66-.69a.13.13,0,0,0-.23.06,5.14,5.14,0,0,0,0,.76C494.46,1190.33,494.93,1190.55,495.4,1190.61Zm-5.95-19.33a1,1,0,0,0-.1.46,1.29,1.29,0,0,0,.11.51c.29.34.6.63,1,.07C490,1171.51,489.75,1171,489.45,1171.28Zm8.47-2.33a1.25,1.25,0,0,0-.56-.27c-.09,0-.15.16-.19.35s.23.75.41.76a1.27,1.27,0,0,0,.5-.1s0-.14,0-.22A3.62,3.62,0,0,0,497.92,1169Zm-6.07,3.92a.59.59,0,0,0,0-.5c-.06-.11-.15-.14-.2-.07s-.05.31,0,.52C491.72,1172.84,491.79,1172.94,491.85,1172.87Zm-5.37-45.51c0,.09,0,0,0,0v-.3l0-.23A5.25,5.25,0,0,0,486.48,1127.36Zm8,37.66c.07,0,.06-.19,0-.42,0-.08-.07-.18-.09-.17s-.05.18,0,.43C494.48,1164.91,494.52,1165,494.53,1165Zm6.32,6.07c0-.2-.08-.37-.17-.38s-.07,0-.08.07a.67.67,0,0,0,.12.5C500.76,1171.22,500.84,1171.21,500.85,1171.09Zm-39.83-2c0-.14.08-.3.1-.43s-.08,0-.14.1a.85.85,0,0,0-.23.51Zm54.09-.14a.75.75,0,0,0-.31-.62c-.07-.06-.14.05-.13.16a3.29,3.29,0,0,0,.21.46C515,1169,515.09,1169.05,515.11,1169Zm-28.25,16.7a.37.37,0,0,0,.09-.24c0-.29-.07-.32-.16-.06a2,2,0,0,0-.05.31S486.83,1185.71,486.86,1185.67Zm-6.16-10.57a1.39,1.39,0,0,0,0-.23c-.06-.08-.1,0-.12.25C480.64,1175.12,480.67,1175.14,480.7,1175.1Zm-5,4.44s0-.14-.05-.13a1,1,0,0,0-.09.22l0,.14Zm18.9-5.11v.23h.09Zm-.62-16.8s.05,0,.06,0,0-.17,0-.26H494Z" transform="translate(-420.73 -1121.66)"></path><path class="cls-1" d="M498.76,1217.75s.06,0,.07,0a1.19,1.19,0,0,1,.24,1.26c-.26.67-.6,1.24-.89,1.9a1.08,1.08,0,0,0,0,.64.32.32,0,0,0,.37.18c.49-.28.69-1.07.92-1.8.46-1.37,1.16-1.9,2-1.61a3.1,3.1,0,0,0,2.22.06c.43-.17.82.25,1.21.6a1.61,1.61,0,0,1,.57,1.15c0,.73-.17,1.14-.59,1.1s-.78.3-.52,1.32c.2.77,0,1.22-.36,1.4a14.33,14.33,0,0,0-1.64.65c-.34.21-.87.16-.92,1.12a1.08,1.08,0,0,0,1,.69,23.39,23.39,0,0,0,4,.41c2.1-.14,4.24-.14,6.4-.19s4.36-.1,6.53-.4a4.89,4.89,0,0,1,3.38.61c-2,2.35-2,2.35-4.16,2-.63-.08-1.28-.17-1.92-.23a14.62,14.62,0,0,0-3.91.35,7.85,7.85,0,0,1-3.92-.27c-.14-.06-.3,0-.44.1a5.5,5.5,0,0,1-2.7.25,15.13,15.13,0,0,0-3.15-.06,20.15,20.15,0,0,1-6.62.07,1.63,1.63,0,0,0-1.51.38,1.54,1.54,0,0,0-.42.79c-.06.44.2.61.42.61,1.65.08,3.26.9,4.91,1.27a7.5,7.5,0,0,0,4.35.08,4.2,4.2,0,0,1,3.2-.31,6.05,6.05,0,0,0,4,.11,14.32,14.32,0,0,1,4.49-.22,5.29,5.29,0,0,0,3.74-.65.72.72,0,0,1,.68-.08c1.77.84,3.38.13,5-.13.56-.1,1.11-.48,1.67-.33,1.47.39,2.95.71,4-.61,2.15.53,3.73-1.18,5.86-1.18,2.45-.07,4.8-1.11,7.12-2a2.57,2.57,0,0,0,1.53-1.46A2.53,2.53,0,0,1,547,1224a2.44,2.44,0,0,0-.12.55,2.76,2.76,0,0,0,.16.55c.05,0,.13-.07.15-.13a.7.7,0,0,0-.05-.31l-.22-.62c.59-.69,1.69.4,2.29-.33.06-.07.45.13.52.27.65,1.48,1.81,1,2.55,1.73,1.48,1.38,3.05,1.63,4.59,2.18.87.31,1.87.08,2.64.62,1.08.75.33,2.26.94,3.54,1-.47,2-.91,2.88-1.42a2.83,2.83,0,0,1,2.37-.12.9.9,0,0,1,.66.75.86.86,0,0,1-.23.57c-1,1.12-2.62,1-3.66,2a7.82,7.82,0,0,1-5.49,1.77,20.21,20.21,0,0,0-3.35.36c-1.09.19-2.16.44-3.22.71s-2.1.55-3.15.8a25,25,0,0,1-3.2.49c-1.24.1-2.32,1.16-3.72.69-1.7,1.39-3.83,1.09-5.8,1.2a4.36,4.36,0,0,0-1,.26,24.11,24.11,0,0,1-5,1.19c-1.68.21-3.38.29-5,.42v.11l-.18-1.26v.17a17.54,17.54,0,0,0,2-1.5c.62-.62,1.17-.78,1.88.18a.58.58,0,0,0,1,.11,7.34,7.34,0,0,1,5.48-1.59,6,6,0,0,0,4.27-1.94.78.78,0,0,0,.07-.61c-.07-.18-.33-.42-.44-.4-1.78.34-3.57.54-5.33.73a35.94,35.94,0,0,0-5.24.76,15.11,15.11,0,0,1-4.09.18c-1.73-.07-3.28.67-4.93.9-.46.07-.73.45-.83,1.1a2,2,0,0,0,.66,1.91v-.16c-.51,1.29-1,2.84-2.41,1.92v.14c.27-1.37.51-2.76.77-4.37a26.31,26.31,0,0,0-7.52,0c-.08,0-.14.12-.21.18l.08,0a10.37,10.37,0,0,0-1.72-.26c-1,0-1.93.12-2.89.18a14.94,14.94,0,0,1-2.91-.13,5.79,5.79,0,0,0-4,.73,12.9,12.9,0,0,0-1.35-.27.44.44,0,0,0-.34.32c0,.47.22.52.45.53a1.32,1.32,0,0,0,1.25-.7c1,1.09-.81,2.89.43,4,.13.12-.37.71-.69.81-3.5,1.18-7,0-10.41-.08-1.52-1.06-3.2-.87-4.82-.83a50.85,50.85,0,0,1-6.31-.58c-2.27-.29-4.42-1-6.74-.91a6.19,6.19,0,0,0-3.47-.89,6.88,6.88,0,0,1-3.48-.85c-.19-.13-.48,0-.72-.08-2.83-.59-5.65-1.22-8.43-2a13.36,13.36,0,0,0-5.08-.66,4.61,4.61,0,0,1-2.84-.58,10.68,10.68,0,0,0-4.92-1.36,4.43,4.43,0,0,1-1.73-.24c-1.79-.9-3.88-.76-6.1-.43a1.73,1.73,0,0,1-1.24-.19c-.47-.28-.43-1.2.16-1.67,2.89-2.3,5.65-4.72,8.49-4.56a5.54,5.54,0,0,0,3.81-1.46c1.41-1.11,2.87-2.29,4.25-2.25l.42-.39-.44.4c-.22-1.84-1-2.44-2.5-2.06-.47.14-1.06.24-1.31-.08a2.09,2.09,0,0,0-2.14-.79c-.18,0-.33-.29-.37-.54a1.85,1.85,0,0,1,.54-1.26,5.63,5.63,0,0,1,2-1.39l-.06.1c.39-1.71.09-2.61-.95-2.78a7.72,7.72,0,0,1-2.2-.61c-2.2-1.07-4-2.8-6.43-3.5a1,1,0,0,1-.61-.54c-.78-1.6-2.17-2.29-3.38-3.27A3.76,3.76,0,0,1,428,1205l0,.07a2.84,2.84,0,0,1,2-.35c.43.06.88-.45,1.13-1a6.92,6.92,0,0,0,.34-1.24l1.11-.36c-.14.32-.31.64-.42.94-.79,2.29-.79,2.32.81,2.8a4.23,4.23,0,0,0,3,1.15,6.5,6.5,0,0,0,.71.68c.05,0,.29-.23.44-.35,0-.16,0-.41-.07-.47-.28-.19-.7,0-1.15.23-.26-1.64-1-1.93-3-1.2-.13-1.27.07-2.78-.35-3.79l-1,.35c-2.37.94-2.68.73-2.37-1.83a5.11,5.11,0,0,0,0-1.3,2.31,2.31,0,0,1,.81-2,1.16,1.16,0,0,0,.37-1.1,3.38,3.38,0,0,1,0-1.2,2.65,2.65,0,0,1,2.18-2.35c.69,0,1.17.39,2.05,0l-.07.09a1.12,1.12,0,0,0-.79-.92c-.5-.18-1-.34-.83-1.31a13.39,13.39,0,0,1,1.29-3.73c1.66-1.49,1.26-2.1,1-2.81a1.61,1.61,0,0,1,0-.87,2.16,2.16,0,0,1,.46-.81,2.46,2.46,0,0,1,.76-.52.77.77,0,0,1,1,.23,3.35,3.35,0,0,0,2.1,1c.61.09,1.16.28,1.22,1.11s.63.83,1.15,1a9.14,9.14,0,0,1,1.93.66c.83.48,1.82.74,2.38,1.59a3.23,3.23,0,0,0,2.56,1.55.43.43,0,0,1,.34.32,1.71,1.71,0,0,0,1.34,1.29c.4.07.11.83-.07,1.47l0-.07c-.35.36-.7.68-1,.62a1.88,1.88,0,0,0-1.27.38,1.81,1.81,0,0,0,0-.46c0-.15-.17,0-.27.19,0,.06,0,.17,0,.18a1.77,1.77,0,0,0,.32,0c-.63,1.24-.77,2.12-.28,2.57a5.21,5.21,0,0,0,2.84,1.56c.46,0,.95,0,1.22.43.39.64,1.09.45,1.87,0l0-.07,0,.63-.08.09,0-.13.87-.48-.06,0c-.46,2.2-.45,2.22-1.68,3.14v0c.27-.52.32-.87.05-1s-.71.11-1.14.79l.05-.09c-.35,0-.36-.46-.34-1,0-.27,0-.69-.12-.67-.9.11-1.36-.73-2.24-.69a23.25,23.25,0,0,1-3.44,0,7,7,0,0,1-3-1c-.07,0-.31.17-.46.26h0c-.36-.58-1.06-.46-1.83-.19a3,3,0,0,1-2,0c-1.18-.37-2.64-.1-4.47,1a1.38,1.38,0,0,0-.43.52c-.07.17-.08.45,0,.46a4.18,4.18,0,0,1,2.27.87,7.24,7.24,0,0,0,2.57,1.76c1.1.32,1.39,1.86,2.69,1.81.24,0,.23.32.06.67-.78,1.53-.3,2,.28,2.28s1,.31,1.44.51c.17.07.24.34,0,.74a1.18,1.18,0,0,1-.48.37c-.76.32-1.14-.25-1.7-.41a2.36,2.36,0,0,0-2-.16,1.17,1.17,0,0,0-.42.48c-.08.18-.11.5,0,.54a16.07,16.07,0,0,0,2.25,1.18c.49.21,1,.26,1.52.46q2.52,1.1,5.11,2a1.57,1.57,0,0,0,1.5-.21l0,.13h-.11a1.55,1.55,0,0,0-1.39-1.67c-.65-.13-.89-.72-.58-1.91l0,0a2.27,2.27,0,0,1,.59.07c2.25,1,4.57,1.74,6.89,2.52a1.38,1.38,0,0,1,.61.47c0,.06,0,.38-.09.59a.7.7,0,0,1-.19.27.94.94,0,0,1-1.05.34c-.93-.27-1.81-.66-2.72-1-.19-.07-.45,0-.6.49a.74.74,0,0,0,0,.54,3.44,3.44,0,0,0,1.63,1.09,20.85,20.85,0,0,1,4.88,1.93c.82.51,1.83.28,2.9-.81V1215c-.22,1.32.2,1.82.82,2,2.66.5,5.14,1.62,7.78,2.29,1.83.52,3.68.87,5.52,1.42s3.7,1,5.56,1.6c.85.27,1.73.44,2.6.65,2.82.64,5.7.9,8.57,2a3.12,3.12,0,0,0,1.25.15,14.53,14.53,0,0,1,4,.37,23.79,23.79,0,0,0,3.65.53c.35,0,.81-.07.75-.91a1.08,1.08,0,0,0-.82-1c-.14,0-.3-.13-.42-.06-1.31.7-2.65-.09-4-.17-1.12-.06-1.22-.21-2.19-1.3.4-.48.8-.14,1.2-.08,1.19.15,1.8-1.18,1.49-3.26-.11-.72-.33-1.4-.49-2.1v.07l1.13-1.38c.1,1,.18,1.94.93,1.8a7.88,7.88,0,0,1,2.3.22Zm-56.23-26.7c-.36.81-.43,1.42,0,1.61a1.92,1.92,0,0,0,1.11.34c.92-.11,1.74-.22,1.91,1,0,.22.4.16.82-.42,0-1.69-.45-2.61-1.62-2.69-.39-.81-.47-.77-1.37.64l-.85-.41-1.41.52a1.29,1.29,0,0,1,0-.25l-.05.27Zm35.58,48.1c.12.15.14,0,0-.21a.9.9,0,0,1,0-.3.76.76,0,0,0-.44-.09,2.14,2.14,0,0,1,2.1-.55c.83.26,1.67.51,2.51.73l-.42.35.39-.31c.66-1.07,1.48-.38,2.17-.91l.45.52a1.93,1.93,0,0,0-.65,1.72c0,.17.2.35.31.35s.32-.24.32-.36c0-.58,0-1.15-.07-1.73,1.19.78,2.43.42,3.64-.26-1.53-1.43-2.05-1.5-4-.12-.21-.34-.37-.84-.62-1a8.7,8.7,0,0,0-5.69-.93.68.68,0,0,0-.23.11,1.35,1.35,0,0,0-.7,1c0,.28.22.56.34.84l.26.56-.38.36c.12,0,.25.12.35.06a1.77,1.77,0,0,0,.37-.43C478.06,1238.76,478,1239,478.11,1239.15ZM436.84,1189a1.4,1.4,0,0,0-.37.47c0,.15,0,.3.11.31.47.08,1-.36,1.63-1l.09,0h-.05A1.66,1.66,0,0,0,436.84,1189Zm56.75,49.37c-.52-.81-1.32-.92-1.87-.32a1,1,0,0,0,0,.6c.5.7,1.17.5,1.77.69l-.1,0C493.56,1239,493.76,1238.61,493.59,1238.34Zm46.8-2.78c.41.1.18-.36.24-.57a1.52,1.52,0,0,0,1.57.54c.46-.17.81-1,.54-1.28s-.7-.14-1,0-.74.5-1.12.75Zm-66.86-9.88c.23-.47-.63-.55-1.44.06a1.66,1.66,0,0,0-.55,1.45c.27.64.6.2.88-.39l0,.11A4.81,4.81,0,0,0,473.53,1225.68Zm12,1.46c-.5.26-.93.7-1.32-.22-.11-.28-.51-.33-.77-.25a3.37,3.37,0,0,1-3.62-.77c-.23-.22-.6-.28-.77.23a4.53,4.53,0,0,0,0,1.39,1.52,1.52,0,0,0,.55,1.35c.9.58,1.8,1.4,2.87,1.22a9.66,9.66,0,0,1,3.46.35,27.51,27.51,0,0,0,4.63.07,1.58,1.58,0,0,0,.66-.17c.44-.21,1.15.9,1.3-.43.08-.72-.68-.66-1-1a2.65,2.65,0,0,0-2.69-1c-.79.22-1.4-.26-2-.87l.13,0h-.06A2.89,2.89,0,0,0,485.57,1227.14Zm-26.46,6.58c1.93.42,3.72,1.48,5.84,1.15.69-.11,1.32.38,2,.56a14.36,14.36,0,0,0,2.23.59c1,.12,1.79-.27,1.65-.68-.3-.86-.95-.44-1.44-.59a15.51,15.51,0,0,1-2.43-.64,8.09,8.09,0,0,0-4.22-.86,5,5,0,0,1-2.41-.61,1,1,0,0,0-1.14.11,2.62,2.62,0,0,0-.36.55C458.92,1233.45,459,1233.69,459.11,1233.72Zm18.11-7.08a.86.86,0,0,0-1.44-.53,1.6,1.6,0,0,0-.26,1.58c.27.93.72,1.26,1.15.84A2.45,2.45,0,0,0,477.22,1226.64Zm-24.7-7.77c-.32-.66-.87-.67-1.54-.28a1.46,1.46,0,0,0-.6,1.19c0,.28.12.6.28.64a1.64,1.64,0,0,0,1.59-.64,2.31,2.31,0,0,0,.29-.61A1,1,0,0,0,452.52,1218.87Zm-16.76-15.61c.26.08.57,0,.91-.44.05-.07,0-.36-.08-.4s-.53-.06-.9.42C435.71,1203,435.68,1203.23,435.76,1203.26Zm37.81,33.18c.25.6.78.63,1.13,0a.69.69,0,0,0,0-.88c-.33-.27-.7-.1-1.07.2C473.6,1236,473.51,1236.31,473.57,1236.44Zm29.56-15.52c-.2-.27-.39-.12-.49.2a1.08,1.08,0,0,0,.05.6c.2.26.38.12.51-.18A2,2,0,0,0,503.13,1220.92Zm-69.7-23.63c.17-.45-.14-.32-.35-.26s-.49,0-.64.45c0,.11.3.12.44.17A2.82,2.82,0,0,0,433.43,1197.29Zm31.58,26s-.11,0-.17,0,0,.24,0,.28.11,0,.17,0S465,1223.35,465,1223.31Zm-25.63-28.37a.67.67,0,0,0-.18.08c0,.07-.06.19,0,.19s.12,0,.18-.08S439.4,1195,439.38,1194.94Zm2.27-5.18.1.07.1-.21Zm-2.77.51a.26.26,0,0,0-.26.31s.13-.06.2-.09S438.9,1190.27,438.88,1190.27Zm24.56,33.1.16-.06-.05-.22Zm-14.34,7.4c.06,0,.12.08.17,0s.11-.16.17-.24l-.18-.07Z" transform="translate(-420.73 -1121.66)"></path><path class="cls-1" d="M504.81,1263.91h1.76l1,0v.11l-1,0c.18-.59.4-1.25.9-1.36a28.6,28.6,0,0,1,3.42-.54c.31,0,.45.41.44.81s0,1,.26.79c1.46-1,3.35-.1,4.69-1.7.46-.55.88.11,1,.8a10.22,10.22,0,0,1,0,1.11l-.08-.27,0,.22c1.19-.22,2.39-.38,3.59-.51s2.4-.26,3.62-.34a26.64,26.64,0,0,0,5.72-1,36.8,36.8,0,0,1,4.55-.84,15.32,15.32,0,0,0,4.46-1.36,2.07,2.07,0,0,1,.61-.12c1.65-.26,3.29-.58,4.92-1s3.28-.77,4.91-1.24c6.53-1.94,13-4.63,19.59-7a4.39,4.39,0,0,0,2.18-1.56,7.39,7.39,0,0,1,5.46-3,4.45,4.45,0,0,0,2.74-1.18l-.06-.1a3.47,3.47,0,0,1-1.71,2.6c-2.82,1.66-5,4.63-8.32,5.22-.19,0-.34.3-.51.45a21.59,21.59,0,0,1-3.47,2.45c-1.22.69-2.49,1.28-3.73,1.92-2,1-4.1,1.63-6.06,2.78a11.56,11.56,0,0,1-3.38,1.35,56.2,56.2,0,0,0-6.24,2,31.61,31.61,0,0,1-8.44,2.26,5.17,5.17,0,0,0-1.24.37,79.68,79.68,0,0,1-19,4.31c-1.87.22-3.75.39-5.62.57s-3.73.33-5.6.33c-2.74,0-5.45.2-8.17.31l-4.07.22L490,1272c-1.93.06-3.86.21-5.81.39a57.4,57.4,0,0,1-5.85.36c-7.26.1-14.67,1.2-22.1.87-1.56-.09-3.15,0-4.72-.16-.45,0-.71-.42-.8-.91a1.57,1.57,0,0,1,.44-1.35c.94-1,2-1.88,3.16-1.41s2.45-.22,3.65-.36c.12,0,.26-.36.34-.57a.36.36,0,0,0-.1-.31,9.47,9.47,0,0,0-3.07-1.79,4.09,4.09,0,0,1-1.72-1.15,5.89,5.89,0,0,0,.54-.32.83.83,0,0,0,.42-.84c-.09-.37-.41-.34-.69-.28s-.38.12-.57.18l0-.11.35,1.42c-1.13.33-2.23.45-2.91-.74a3.47,3.47,0,0,0-3.44-1.73,18.34,18.34,0,0,0-3.54.12,4.29,4.29,0,0,1-2.9-.31,2.27,2.27,0,0,0,.58,0,2.72,2.72,0,0,0,.5-.31,1.62,1.62,0,0,0-.44.07c-.19.08-.38.19-.57.29a10.5,10.5,0,0,0-5.44-2.81c-2.18-.45-4.64-.29-6.45-1.83a1.76,1.76,0,0,0-1.18-.14,2.8,2.8,0,0,1-3.08-1.92,2.89,2.89,0,0,0-1.94-1.68,8.81,8.81,0,0,1-1.6-.7,1,1,0,0,1-.34-.81.62.62,0,0,1,.7-.58c3,.4,6.37-.68,8.94,1a1.53,1.53,0,0,0,.56.13l5.12,1.28c1.7.41,3.43.73,5.13,1.1a10.38,10.38,0,0,0,3.65.51,2.54,2.54,0,0,1,1.35.31c2.73,1.33,5.83,1.47,8.8,1.8a30.79,30.79,0,0,1,5.54.9,4.26,4.26,0,0,0,1.64.34c2.94-.52,5.65.23,8.43.59,1.62.23,3.26.38,4.89.49a30.35,30.35,0,0,1,4.9.66,24.61,24.61,0,0,0,7.62.54,31.14,31.14,0,0,1,6.26.26,4,4,0,0,1,3.37,2.32l.14,0-.19-.09c.36-.69.38-1.82,1.27-1.85s1.74-.47,2.3.82a1.43,1.43,0,0,0,1.77.87,18.38,18.38,0,0,0,2-.66Zm-22.85.26h0Zm-.58,4.69.22-.06-.14-.2Z" transform="translate(-420.73 -1121.66)"></path><path class="cls-1" d="M439,1240.67a2.44,2.44,0,0,0,1.31,1.66,18,18,0,0,0,4,1.17,13.29,13.29,0,0,1,4,1.41.64.64,0,0,0,.51,0c1.53-.38,2.73.32,4,.75a10.31,10.31,0,0,0,2.48.65c1.65.09,3.16.83,4.78.8,1.79,0,3.33.73,5,.95a10.26,10.26,0,0,1,2.3.22,2.93,2.93,0,0,1,1.85,1.42c.41.79,1.44-.89,2.22-.6a3.38,3.38,0,0,1,.69.39,3.07,3.07,0,0,0,3,.45,3.39,3.39,0,0,1,2.77.3c1.75.8,3.76.41,5.54,1.31.21.11.53-.06.78-.19a3.58,3.58,0,0,1,3.83.35l-.13,0,0,0,.55-.93,0,.09c.38.25.75.65,1.17.7a38,38,0,0,0,5,.39c2.47,0,4.95,0,7.45.12.8,0,1.32.2,1.52,1.54.13.87.92,1.07,1.3.36a3.51,3.51,0,0,1,3.84-2.09c3.19.35,6.24-1.2,9.49-.73,1.87.22,3.75-1,5.69.56.36.29.69-.16,1-.42,1-.85,1.94-1.21,3.15-.16.53.46,1.1-.06,1.59-.4l-.06-.07c.91-.4,1.61-1.71,2.85-.47a.84.84,0,0,0,1.31-.31,1.9,1.9,0,0,1,2.3-.93,2.17,2.17,0,0,0,1.7-.32,1.86,1.86,0,0,1,2.5.07c.46.35.73,0,.95-.44a.76.76,0,0,1,1.27-.3c.71.47,1.13.14,1.44-.61.18-.44.56-.83.91-.24.73,1.28,1.65.83,2.5.84,1.25,0,1.28,0,1.55-1.86.11-.75.25-1.12,1-.57a1,1,0,0,0,.85.09c.49-.13,1,.08.71.65-.44,1-.09,2.21-.61,2.84-1.11.25-2.09,1-3.17,1.15a7.94,7.94,0,0,0-3.37,1.22c-1.17.84-2.66.93-3.83,1.83-1.24-1.12-1.74.24-2.5.85a1.88,1.88,0,0,1-1.09.5,29.41,29.41,0,0,0-5.85.7,31.78,31.78,0,0,0-3.72.74,4.27,4.27,0,0,1-2.6.33c-2.23-.67-4.08,1.15-6.22.91-2.45,1.76-5.27,1.19-7.89,1.4-1.42.13-2.84.25-4.26.29s-2.85,0-4.26-.17a54.37,54.37,0,0,0-5.7-.19c-.95,0-1.9.07-2.85.12l-2.86.13a19.74,19.74,0,0,1-3.35-.07,13.6,13.6,0,0,1-3.24-.8,7.24,7.24,0,0,0-4.59-.14,15.57,15.57,0,0,1-4,.6,11,11,0,0,1-3.9-.75,9.37,9.37,0,0,0-1.08-.2,21.07,21.07,0,0,0-4.63-.53,27.08,27.08,0,0,1-4.68-.32,23.31,23.31,0,0,1-5.05-1.24,6.11,6.11,0,0,0-3.22-.65,17.33,17.33,0,0,1-3,0c-1-.1-1.93-.24-2.9-.35l-3.22-.34c-1.06-.15-2.14-.29-3.2-.47s-2.13-.38-3.17-.65a25.34,25.34,0,0,1-3-1,4.61,4.61,0,0,0-1.65-.36,15.68,15.68,0,0,1-4.18-.85c-1.35-.42-2.69-.85-4.09-1.16-.86-.19-1.19-1-1-2a11.33,11.33,0,0,1,2.29-5.36,14.07,14.07,0,0,0,2-3c.88-1.8,3.07-2.9,4.37-2.45a9.52,9.52,0,0,0,4.8.72c.52-.09.74.32.62,1-.05.24-.11.47-.17.71-.27,1.07.11,1.44.86,1.4a5.16,5.16,0,0,1,.79,0ZM532.6,1252l0,.23.07,0Z" transform="translate(-420.73 -1121.66)"></path><path class="cls-1" d="M561.73,1237.92c.2.33.44.48.75.41l-.05.07a1.62,1.62,0,0,0,2,.54,35.55,35.55,0,0,1,8.65-2.53c2.2-.28,4.37-1.17,6.62-1.19,2.5,0,4.53-1.45,7-1.77.09,0,.21.06.38.11a3.29,3.29,0,0,1-2,3.07,14.9,14.9,0,0,0-5.63,4.82,1.24,1.24,0,0,1-.5.44c-.19.09-.48.19-.63.09-2.53-1.75-4.41-.19-6.5.66-1.39.59-2.78,1.16-4.17,1.69s-2.82,1-4.24,1.37c-1.18.32-2.41.93-3.73.18v.08c.2-.79.35-1.61.6-2.36.61-1.82.49-4,1.4-5.59Zm3.61,3.88a.28.28,0,0,0,0,.08l.4-1.51h0Zm-1.57.82c-.09-.47-.3-.91-.79-.89-.11,0-.27.32-.24.47.1.47.33.87.81.93C563.63,1243,563.8,1242.78,563.77,1242.62Z" transform="translate(-420.73 -1121.66)"></path><path class="cls-1" d="M481.12,1209.5a3.94,3.94,0,0,1,2.57.87,1.19,1.19,0,0,0,1.56.28c.93-.62,1.74.86,2.66.26.53,1.42,1.25.83,2,.67.45-.1.93.59,1.4.64,1.22.09,2.45.93,3.71.59a.55.55,0,0,1,.56.17c1.36,1.57,2.87,1.07,4.33,1.28a21.57,21.57,0,0,1,3.52.44,11.26,11.26,0,0,0,3,0c.42,0,.69-.5.93-1v.14c-.12-.13-.23-.26-.35-.38l.05-.05-.41-.67,0,.09a26.81,26.81,0,0,1-2.84-.81,4.89,4.89,0,0,0-2.76-.25c-1.07-.69-2.12-.46-3.17-.8a1.84,1.84,0,0,0-.92-.19,10.15,10.15,0,0,1-5.62-.59,14.31,14.31,0,0,1-1.93-.68,13.82,13.82,0,0,0-2.3-.87,7.25,7.25,0,0,1-2.23-1.23,4.24,4.24,0,0,0-1.78-.8,5.65,5.65,0,0,1-1.81-.78c-.13-.09-.33.15-.51.23v-.08l-.21,1.19,0-.15a5,5,0,0,0,.38.48c.49.4.55,1.12.23,2.14Z" transform="translate(-420.73 -1121.66)"></path><path class="cls-1" d="M524,1187.5c-.44-.52-.88-1-1.3-1.56a1.22,1.22,0,0,0-1.16-.56c-.19,0-.21.28-.09.62.78,2.08,1.89,3.51,3.06,3.68a6.56,6.56,0,0,0,3.4.06,6.89,6.89,0,0,1,3.9,0c.85.17,1.72.3,2.19-.43a7.49,7.49,0,0,0-4.15-2.55c-.47-.76-.29-.93-.15-1.11a13.54,13.54,0,0,0,1-1.24c.2-.33,1.13,0,.53-1-.43-.75-1.06-.65-1.59-.94a3.43,3.43,0,0,0-2-.38l-1.14.06c-.35,0-.72.08-1.09.11l0,0c.34.83.26,1.33-.13,1.48a10.19,10.19,0,0,1-1.22.39c-.88.25-1,.74-.26,2.76a5.39,5.39,0,0,1,.22.68.82.82,0,0,0,0,.27c0,.35,0,.36-.1,0C523.84,1187.7,524,1187.61,524,1187.5Z" transform="translate(-420.73 -1121.66)"></path><path class="cls-1" d="M520.34,1219.15l-3.13,1c.14,2.64-.25,3-1.78,1.16a2.35,2.35,0,0,0,1.85-1.17c-1-1.4-2-.56-2.94-.74a1.47,1.47,0,0,0-1.79,1,1.66,1.66,0,0,0,0,.33l0,0,.47.66v-.09c.28-.09.55-.19.83-.25a.2.2,0,0,1,.2.11,1.57,1.57,0,0,1,.09.65,2.39,2.39,0,0,1-.69.66c-.52.31-1.08.51-1.59.83a1,1,0,0,0-.36.72c0,.43.3.66.5.61,2.51-.65,5.29.37,7.89-.2l2.25-.47c.74-.18,1.48-.36,2.24-.51a8.32,8.32,0,0,1,2.12,0c.49,0,.85.75.68,1.31-.23.8-.5,1.57-.77,2.36l0-.12a3,3,0,0,1,.39.14h-.07a4.68,4.68,0,0,0,2.55-.07,22.69,22.69,0,0,0,2.33-1,.91.91,0,0,0,.51-.95,1.7,1.7,0,0,0-.87-1.4c-.17-.11-.33-.19-.5-.29l.06,0a2.49,2.49,0,0,1-1.09.26c-.45-.08-.48-.58-.35-1-.22-.36-.43-.72-.63-1.07l.1-.06-.16.1.63,1,1.2-.35-.09,0c-.24-.57-.47-1.15-.73-1.7s-.65-1.07-1.08-.95c-1.09.29-2.34,0-3.18,1-.28.37-.66.44-1.06-.15s-.81-1.23-1.3-1-1.36.24-1.58,1.32c-.24,1.24-.91,1.52-1.7,1.52a.78.78,0,0,1-.65-.37.63.63,0,0,1,.18-.82,1.94,1.94,0,0,0,1.08-2.08Z" transform="translate(-420.73 -1121.66)"></path><path class="cls-1" d="M500.7,1239.17a3.18,3.18,0,0,1-.24,2.12c-.36.67-1,.77-1.25,1.71.66.75,1.39-.61,1.87,0,.69.8,1.45.47,2.13.85,1.55.87,3,.1,4.53-.06.83-.1,1.82-2.31,1.71-3.58a.7.7,0,0,0-.37-.44,3.25,3.25,0,0,0-.74-.2h.07c-.65.07-1.29.13-1.93.22-1,.15-2.07.2-2.75,1.75-.3.67-.87.48-1.35.13l-.11,0,.11.12a1.41,1.41,0,0,0-.34-1.6c-.44-.35-.9-.63-1.35-.94Z" transform="translate(-420.73 -1121.66)"></path><path class="cls-1" d="M473.74,1202.89c-.18,1-.38,1.95-.53,2.92a1.43,1.43,0,0,0,.32,1.33c.22.22.42-.06.65-.44,1.33-2.11,1.57-2.2,2.58-.62.37.59.71,1.24,1.32.93.26-.12.43.11.52.6.3,1.81,1.12,1.82,2,1.66v.12a8.66,8.66,0,0,1-.1-2.41l0,.15-.17-.71,0,0c-.25.15-.44.11-.51-.46,0-.3-.19-.75-.26-.7-.74.55-1.08-.69-1.62-.94a5.58,5.58,0,0,1-1.64-1.07c-.76-.72-1.7-.36-2.6-.28Z" transform="translate(-420.73 -1121.66)"></path><path class="cls-1" d="M518.7,1186c-1-.51-1.42.3-2,.78.19.75.43.78.66.84a1.8,1.8,0,0,1,.89.49,3.3,3.3,0,0,1,.64,1.61,1.86,1.86,0,0,0,.54.73c.57.31,1.06.36,1-.7a4,4,0,0,1-.35-.56,1.53,1.53,0,0,1-.08-.49,2.91,2.91,0,0,1,.28.47,4,4,0,0,1,.09.59c.4.18.8.28.76-.44a2.81,2.81,0,0,0-1.28-2.31c-.41-.17-.8.08-1.15-1Z" transform="translate(-420.73 -1121.66)"></path><path class="cls-1" d="M494.76,1196.77c.4-.29.81-.13,1.23.22a4.25,4.25,0,0,0,1.51.82,5.66,5.66,0,0,0,1.52.19,16.82,16.82,0,0,1,1.8.29c.14,0,.27-.23.35-.45a1,1,0,0,0-.48-.91c-1.26-.32-2.47-.64-3.67-1-.42-.13-.84-.21-1.25-.31s-.74.43-1,1.18Z" transform="translate(-420.73 -1121.66)"></path><path class="cls-1" d="M480.22,1215.39c.15.92.32,1.72,1,1.32s1.52-.64,2.26-1l0,.12c-.23-1.19-.66-1.84-1.3-2.07-.41-.14-.82-.33-1.23-.46-.79-.26-1.08,0-1.58,1.49-.2.59-.66,1.41-.33,2,.5.83.73-.58,1.06-1.06l.17-.24Z" transform="translate(-420.73 -1121.66)"></path><path class="cls-1" d="M483.52,1215.7c.82.18.92,1.28.77,2.66.38.17.65-.29.9-.7.4-.67.74-.91,1.2-.31s.88.31,1.3,0a1.61,1.61,0,0,0,.37-.81c.08-.36,0-.88-.18-.89-.55-.06-.8-1.1-1.24-1.28s-.87.21-1.3.37a3.09,3.09,0,0,0-1.84,1.12Z" transform="translate(-420.73 -1121.66)"></path><path class="cls-1" d="M473.71,1203c-.19-.3-.33-.84-.57-.88a2.38,2.38,0,0,1-1.79-1.31c-.29-.5-.71-.09-1.13.36a1.31,1.31,0,0,0-.38.86.82.82,0,0,0,.12.49c.5.57,1.25.46,1.56,1.63.11.41.39.15.64-.05l1.58-1.23Z" transform="translate(-420.73 -1121.66)"></path><path class="cls-1" d="M515.34,1242.42a3.38,3.38,0,0,0-.11-.34c-.32-.74-.26-2-.92-2.17a1.57,1.57,0,0,0-2,.68c-.49.89-1,1-1.74.59v0a3.18,3.18,0,0,0,.09,1.76,1.17,1.17,0,0,0,1.15.63,6.27,6.27,0,0,0,3.57-1.28Z" transform="translate(-420.73 -1121.66)"></path><path class="cls-1" d="M474.54,1211.15c-.65.57-.79,1.32-.61,1.58a2.4,2.4,0,0,0,2.38,1c.2,0,.36-.37.42-.78.09-.62.21-1.25-.11-1.61A1.41,1.41,0,0,0,474.54,1211.15Z" transform="translate(-420.73 -1121.66)"></path><path class="cls-1" d="M454.45,1197.36c.7-.45,1.37-.85,1.78-.34.11.14.35.09.52-.27a2.78,2.78,0,0,0,.22-1,8.16,8.16,0,0,0,0-1.4c0-.22-.15-.45-.3-.38a5.27,5.27,0,0,0-1.78,1.17,5.88,5.88,0,0,0-1.17,2.17l0-.07c.75-.72.74-.7.81.11Z" transform="translate(-420.73 -1121.66)"></path><path class="cls-1" d="M457.34,1189.14a15.31,15.31,0,0,0,.2,1.63c0,.2.12.49.24.41.88-.61,1.41-.18,2.12-.31a.88.88,0,0,0,.36-.38c.22-.4.18-.59,0-.68A3.4,3.4,0,0,0,457.34,1189.14Z" transform="translate(-420.73 -1121.66)"></path><path class="cls-1" d="M447.81,1185.64a1,1,0,0,1,.94.08c.13.09.34,0,.55-.38a4.34,4.34,0,0,0,.41-.93c.22-.78,0-1-.37-1.08-.61-.14-1.34-.11-1.66-.74l0-.08-.74,1,.08-.11c-.18,1.27.42,1.64.78,2.29Z" transform="translate(-420.73 -1121.66)"></path><path class="cls-1" d="M509.24,1220.84c-.09.45-.28,1.18-.4,2a1.9,1.9,0,0,0,.29,1.36c.27.37.56.37.82.14a1,1,0,0,0,.17-1.19c-.49-1.12-.32-1.57.35-1.68a1.1,1.1,0,0,0,.74-.4,1.62,1.62,0,0,0,.14-.93.73.73,0,0,0-.5-.69C510.17,1219.29,509.64,1219.57,509.24,1220.84Z" transform="translate(-420.73 -1121.66)"></path><path class="cls-1" d="M460.29,1197.09a4.9,4.9,0,0,0,.41,2.21.56.56,0,0,0,.84.42,1.42,1.42,0,0,0,.73-.84c.25-.61.4-1.41.22-1.56-.61-.5-1-1.63-2.26-.11Z" transform="translate(-420.73 -1121.66)"></path><path class="cls-1" d="M451.47,1188a7.66,7.66,0,0,0,1-2.52c.05-.47.06-.81-.26-.77-.5,0-.95,0-1.45.07-.24,0-.56.28-.78.79-.11.25-.15.63-.06.7a6.93,6.93,0,0,0,1.15.59c.31.16.56.38.43,1.13Z" transform="translate(-420.73 -1121.66)"></path><path class="cls-1" d="M490.57,1195.64c.73-.78,1.47-.1,2.23.1.3.07.61.35.89,0a1.3,1.3,0,0,0,.14-.52.68.68,0,0,0-.06-.29c-.78-.9-1.55-1.3-2.34-1.1-.43.11-.59,1.13-.86,1.8Z" transform="translate(-420.73 -1121.66)"></path><path class="cls-1" d="M481.63,1220.45c-.15-.22-.26-.59-.44-.65-1.39-.53-2.76-.93-4.13-1.47-.09,0-.27.16-.36.34a.73.73,0,0,0,.09.89,5,5,0,0,0,4.86.76Z" transform="translate(-420.73 -1121.66)"></path><path class="cls-1" d="M507.29,1213.66c.15.48.4,1,.65.85.76-.6,1.52-.19,2.37.4s1.57.7,1.9-.72v.13c-1.4-1.33-2.7-1.09-4-1.49-.4-.13-.64.53-.9,1Z" transform="translate(-420.73 -1121.66)"></path><path class="cls-1" d="M466.74,1198.9c-.14.47-.31.93-.42,1.4-.16.71,0,1.34.24,1.19a1.73,1.73,0,0,1,2.09,0,1.12,1.12,0,0,0,.14-.28,1,1,0,0,0,.07-.35,1.15,1.15,0,0,0-.09-.52c-.64-.63-1.2-1.42-2-1.41C466.71,1199,466.74,1198.9,466.74,1198.9Z" transform="translate(-420.73 -1121.66)"></path><path class="cls-1" d="M519.65,1240.82c.89,1.57,1,1.73,1.81,1s1.38,0,2-.17v.11l-.18-1.26v.17c-.27-.65-.38-1.41-1.12-1.5-1.18-.13-1.94.56-2.55,1.77Z" transform="translate(-420.73 -1121.66)"></path><path class="cls-1" d="M484.43,1221.52c1.1.27,2.22.6,3.35.8.09,0,.26-.25.28-.4a.9.9,0,0,0-.16-.57,3.93,3.93,0,0,0-.94-.42c-.64-.22-.82-.38-1.46-1.55l-1.08,2.25Z" transform="translate(-420.73 -1121.66)"></path><path class="cls-1" d="M460.23,1197.21c-.25-.93-.65-1.44-1.55-.77a1.52,1.52,0,0,0-.35.52,1.07,1.07,0,0,0-.06.59c.42.9.88.8,2-.45Z" transform="translate(-420.73 -1121.66)"></path><path class="cls-1" d="M470.07,1209.78c-.22-.88-1.21-.23-1.08-1.79-.06,0-.14,0-.17.09a8,8,0,0,0-.56,1.22,1.72,1.72,0,0,0,0,.93,1.14,1.14,0,0,0,1.68.23A3.12,3.12,0,0,0,470.07,1209.78Z" transform="translate(-420.73 -1121.66)"></path><path class="cls-1" d="M454.2,1204.4c-.43-.53-.76-.89-1.06-1.29s-.46,0-.75.39a1.16,1.16,0,0,0-.17,1.38C452.65,1205.53,453.3,1205.19,454.2,1204.4Z" transform="translate(-420.73 -1121.66)"></path><path class="cls-1" d="M451.48,1188a1,1,0,0,1,1-.2,11.66,11.66,0,0,0,1.78.34c.11,0,.39-.4.59-.61l0,0c-.17-.08-.38-.09-.49-.26-.57-.9-1.53-.61-3,.77Z" transform="translate(-420.73 -1121.66)"></path><path class="cls-1" d="M451.65,1193.74a1.42,1.42,0,0,0,.55-.9c.1-.55.07-1-.3-.84a4.39,4.39,0,0,0-1.48,1.44.82.82,0,0,0-.13.3c0,.14,0,.36.11.34A12.51,12.51,0,0,0,451.65,1193.74Z" transform="translate(-420.73 -1121.66)"></path><path class="cls-1" d="M478.1,1212.59a2.9,2.9,0,0,0-.7,2,.45.45,0,0,0,.11.24c.3.21.79-.25,1.12-1.17a3.27,3.27,0,0,0,.1-1C478.7,1212.33,478.35,1212.29,478.1,1212.59Z" transform="translate(-420.73 -1121.66)"></path><path class="cls-1" d="M470.22,1217.45a2.16,2.16,0,0,0,2.92.89c-.91-1.62-.95-1.63-3-.76Z" transform="translate(-420.73 -1121.66)"></path><path class="cls-1" d="M519.9,1194.93c.79.11.56-1.22.64-2.06,0,0-.27-.44-.35-.45-.46-.05-.64.48-.81.95s.38,1.07.55,1.62Z" transform="translate(-420.73 -1121.66)"></path><path class="cls-1" d="M464.08,1201.41c.89-1.25,1.8-1.27,2.66-2.49,0,0,0,0,0,0a9.36,9.36,0,0,0-1.29,0c-.66.08-.89.48-1.34,2.41Z" transform="translate(-420.73 -1121.66)"></path><path class="cls-1" d="M455.89,1199.53c0,.68.26,1.06.64,1.16.06,0,.3-.27.34-.4.25-.94-.05-1.55-.62-1.26C456.15,1199.08,456,1199.36,455.89,1199.53Z" transform="translate(-420.73 -1121.66)"></path><path class="cls-1" d="M537.84,1258.64a1.7,1.7,0,0,0,1.92-.44c.11-.1.09-.42.09-.65a.4.4,0,0,0-.22-.24,1.9,1.9,0,0,0-1.94.41c-.1.09-.08.42-.07.65S537.76,1258.54,537.84,1258.64Z" transform="translate(-420.73 -1121.66)"></path><path class="cls-1" d="M530.57,1192.7a8.71,8.71,0,0,0,1.34.44c.35.06.36-.35.14-.87s-.42-.59-.62-.51-.66.31-1,.47Z" transform="translate(-420.73 -1121.66)"></path><path class="cls-1" d="M446.32,1208.49c-.74.33-1.16-.12-1.68-.32-.28-.11-.57-.2-1.24.31.79.86,1.57,1.32,3,0Z" transform="translate(-420.73 -1121.66)"></path><path class="cls-1" d="M454.57,1192.63a5.77,5.77,0,0,1-1.45,1.58l.06-.11a6.1,6.1,0,0,0,.15.92c.12.38.43.29.82-.21a2.08,2.08,0,0,0,.5-1.5,6.23,6.23,0,0,0-.13-.65Z" transform="translate(-420.73 -1121.66)"></path><path class="cls-1" d="M472.38,1195.22a11.74,11.74,0,0,0-1.24-.38c-.06,0-.22.26-.27.44-.13.4-.06.72.1.66.48-.21,1-.52,1.44-.79Z" transform="translate(-420.73 -1121.66)"></path><path class="cls-1" d="M510.83,1193.17c-.07.44-.13.89-.2,1.33a1.44,1.44,0,0,0,.18,1.18.48.48,0,0,0,.35.2c.25,0,.37-.22.32-.73a4.78,4.78,0,0,0-.68-1.94Z" transform="translate(-420.73 -1121.66)"></path><path class="cls-1" d="M456.89,1205.78c-.27-.87-.69-.71-1.08-.59a1,1,0,0,0-.39.43c-.17.45,0,.56.2.52S456.29,1206,456.89,1205.78Z" transform="translate(-420.73 -1121.66)"></path><path class="cls-1" d="M469,1194.28c-.12-.35-.22-.73-.36-1s-.45-.42-.84.14c.24.73.34,1.92,1.19.83Z" transform="translate(-420.73 -1121.66)"></path><path class="cls-1" d="M498.3,1185.43l.26-.57a1.06,1.06,0,0,0,0-.81.62.62,0,0,0-.26-.29.67.67,0,0,0-.27-.11c-.15,0-.27.13-.24.5a3.49,3.49,0,0,0,.26.89,2,2,0,0,0,.26.4Z" transform="translate(-420.73 -1121.66)"></path><path class="cls-1" d="M516.26,1192.89l.15-.05c.31-.2.71-.32.46-1.31a2,2,0,0,0-1.31-1.61l0,0c.13.46.37,1,.55,1.57a2.7,2.7,0,0,1,.16,1.54Z" transform="translate(-420.73 -1121.66)"></path><path class="cls-1" d="M526.33,1227.17c-.88-1.24-1.18-1.39-1.83-.75a.84.84,0,0,0-.1.59.83.83,0,0,0,.36.47c.63.31,1-.26,1.55-.44Z" transform="translate(-420.73 -1121.66)"></path><path class="cls-1" d="M505.05,1193.06a2.34,2.34,0,0,0-.14.49c-.05.4-.47.64-.06,1.27.25.38.53.06.61-.46a1.39,1.39,0,0,0-.48-1.31Z" transform="translate(-420.73 -1121.66)"></path><path class="cls-1" d="M441,1239.56a1.88,1.88,0,0,0,.28.46c.43.39.83.91,1.57.46.53-.33-.32-.78-1.38-.82-.17,0-.33,0-.51-.05Z" transform="translate(-420.73 -1121.66)"></path><path class="cls-1" d="M515.57,1195c-.41.61-1.16.2-1.78.45,1.2,1.1,1.23,1.09,1.75-.49Z" transform="translate(-420.73 -1121.66)"></path><path class="cls-1" d="M554.57,1247.06a2.2,2.2,0,0,1,.85-.23c1.49.24,1.83-.92,2-2.29l0,.11-.68,0,.08,0c-.64.95-1.8.76-2.57,1.43l-.06-.08.38,1.19Z" transform="translate(-420.73 -1121.66)"></path><path class="cls-1" d="M512.21,1214.19c.21.59.46,1.14.86,1a.66.66,0,0,0,.35-.58c0-.4-.26-.63-.47-.58a4.12,4.12,0,0,0-.72.31Z" transform="translate(-420.73 -1121.66)"></path><path class="cls-1" d="M475.22,1218.83a1.53,1.53,0,0,0,.17-.28c0-.18,0-.46-.11-.48a1,1,0,0,0-.54.06.35.35,0,0,0-.14.22c0,.18,0,.45.1.48A1.3,1.3,0,0,0,475.22,1218.83Z" transform="translate(-420.73 -1121.66)"></path><path class="cls-1" d="M492.16,1218.61c.86-.2,1.83.1,2.38-1.59v.06c-.83.34-1.76.1-2.37,1.63Z" transform="translate(-420.73 -1121.66)"></path><path class="cls-1" d="M519.93,1195a1.51,1.51,0,0,1-.18.36c-.19.18-.72-.3-.52.6a1,1,0,0,0,.38.43c.59.32.53-.34.38-1.07l-.08-.36Z" transform="translate(-420.73 -1121.66)"></path><path class="cls-1" d="M528.84,1210.59c-.77-.16-1.53-.31-2.3-.51V1210c.86,1,1.69,1.59,2.23.49Z" transform="translate(-420.73 -1121.66)"></path><path class="cls-1" d="M462.4,1207.15a1.34,1.34,0,0,0-.2,1c.09.24.28.3.49,0a1,1,0,0,0,.16-.91C462.76,1207,462.64,1206.86,462.4,1207.15Z" transform="translate(-420.73 -1121.66)"></path><path class="cls-1" d="M522.92,1193.11c-.29-.35-.57-.75-.82-.61s-.28.26-.09.68.42.46.56.33a2.23,2.23,0,0,0,.3-.53Z" transform="translate(-420.73 -1121.66)"></path><path class="cls-1" d="M517.75,1240.36c.83,1.51.84,1.51,1.9.46v.14c-.64-.18-1.24-1.27-1.9-.44Z" transform="translate(-420.73 -1121.66)"></path><path class="cls-1" d="M463.13,1201a1.71,1.71,0,0,0-1.12.62,2.22,2.22,0,0,0-.23.55c.09,0,.18.15.29.11.42-.16.75-.86,1.1-1.4Z" transform="translate(-420.73 -1121.66)"></path><path class="cls-1" d="M491.08,1218.31c.38-.17.76-.5,1.08.28v.12a2.08,2.08,0,0,0-.8-1.87,4,4,0,0,1-.66-.77l0,0,.38,2.23Z" transform="translate(-420.73 -1121.66)"></path><path class="cls-1" d="M445,1182.7c0,.11,0,.32,0,.32s.41-.2.56-.54c.07-.14.05-.33,0-.34S445.23,1182.36,445,1182.7Z" transform="translate(-420.73 -1121.66)"></path><path class="cls-1" d="M492,1190.15c.08.45.17,1,.41.75a1.46,1.46,0,0,0,.21-.75c0-.56-.15-.83-.36-.9a1.24,1.24,0,0,0-.27,0v.93Z" transform="translate(-420.73 -1121.66)"></path><path class="cls-1" d="M439,1240.67l2-1.1,0,0c-.28-.11-.59-.19-.87-.32s-.55-.48-.9-.1-.18.83-.15,1.24c0,.1,0,.2,0,.3Z" transform="translate(-420.73 -1121.66)"></path><path class="cls-1" d="M447.68,1182.59c-.13,0-.22-.16-.38-.15a1.08,1.08,0,0,0-.77.7c-.25.54.1.38.34.32l.19-.09-.08.11.74-1Z" transform="translate(-420.73 -1121.66)"></path><path class="cls-1" d="M456.71,1188c-.13,0-.23.2-.29.45a.4.4,0,0,0,0,.22c.07.11.21,0,.29-.23A.94.94,0,0,0,456.71,1188Z" transform="translate(-420.73 -1121.66)"></path><path class="cls-1" d="M462.16,1191.91a2.1,2.1,0,0,0,.21-.54c0-.14-.07-.3-.15-.26a.79.79,0,0,0-.29.73C461.94,1192,462.08,1191.89,462.16,1191.91Z" transform="translate(-420.73 -1121.66)"></path><path class="cls-1" d="M450.52,1203.4c.09.08.16.26.25.2a2.28,2.28,0,0,0,.31-.52c-.08-.08-.14-.25-.23-.2A2.63,2.63,0,0,0,450.52,1203.4Z" transform="translate(-420.73 -1121.66)"></path><path class="cls-1" d="M466.51,1193.34l-.28.49c0,.1.08.29.15.28s.33-.31.34-.67C466.73,1193.34,466.58,1193.37,466.51,1193.34Z" transform="translate(-420.73 -1121.66)"></path><path class="cls-1" d="M457.83,1207.54l.19-.7c.11-.39.12-.71-.13-.65a1,1,0,0,0-.38.41c-.18.37-.16.64,0,.75l.3.19Z" transform="translate(-420.73 -1121.66)"></path><path class="cls-1" d="M459.88,1207.15c.14.07.23.19.32.14a1,1,0,0,0,.44-.79c0-.11-.17-.22-.24-.15A8,8,0,0,0,459.88,1207.15Z" transform="translate(-420.73 -1121.66)"></path><path class="cls-1" d="M472.41,1195.15c-.12.47-.24.94-.34,1.41s-.12.8.11.63a1.79,1.79,0,0,0,.34-.85,6.34,6.34,0,0,0-.15-1.1Z" transform="translate(-420.73 -1121.66)"></path><path class="cls-1" d="M467.06,1209.39c0-.39-.16-.52-.37-.36a1.2,1.2,0,0,0-.25.57c0,.41.15.54.36.38A2.6,2.6,0,0,0,467.06,1209.39Z" transform="translate(-420.73 -1121.66)"></path><path class="cls-1" d="M480,1199l-.05.35c-.05.45-.17,1,.17.93.17,0,.29-.38.29-.77,0-.64-.21-.57-.43-.4Z" transform="translate(-420.73 -1121.66)"></path><path class="cls-1" d="M512.72,1195.51l-.05-.59c-.11,0-.24-.15-.3-.08a.71.71,0,0,0,.1.77C512.53,1195.69,512.64,1195.55,512.72,1195.51Z" transform="translate(-420.73 -1121.66)"></path><path class="cls-1" d="M507.07,1222.87a1.66,1.66,0,0,0,.21,1.31c.18.22.4.52.55.17a1,1,0,0,0-.2-.94,4.45,4.45,0,0,0-.6-.49Z" transform="translate(-420.73 -1121.66)"></path><path class="cls-1" d="M517.64,1211.74c.29-.21.88.35.88-.59a.56.56,0,0,0-.13-.28c-.58-.38-.59.37-.73.88Z" transform="translate(-420.73 -1121.66)"></path><path class="cls-1" d="M515.1,1187.47c-.24-.18-.49-.37-.62-.11a.48.48,0,0,0,.08.51.27.27,0,0,0,.17.12c.24,0,.29-.3.37-.58Z" transform="translate(-420.73 -1121.66)"></path><path class="cls-1" d="M490.57,1195.65c-.08-.63,0-1.42-.3-1.83a.11.11,0,0,0-.14,0,.44.44,0,0,0-.06.23c.1.65.47.81.5,1.6Z" transform="translate(-420.73 -1121.66)"></path><path class="cls-1" d="M461.69,1215a1.1,1.1,0,0,0,.09-.3c0-.24-.14-.26-.3-.07a.84.84,0,0,0-.1.29C461.41,1215.14,461.53,1215.16,461.69,1215Z" transform="translate(-420.73 -1121.66)"></path><path class="cls-1" d="M475.89,1208.11a2.86,2.86,0,0,0,.1-.66c0-.29-.17-.28-.25,0a2.48,2.48,0,0,0,0,.67S475.83,1208.12,475.89,1208.11Z" transform="translate(-420.73 -1121.66)"></path><path class="cls-1" d="M515.1,1187.41a9.94,9.94,0,0,1,.5,2.47l0,0a4.68,4.68,0,0,0,.21-.6c.19-.91.16-1-.66-1.83Z" transform="translate(-420.73 -1121.66)"></path><path class="cls-1" d="M449.47,1270.15a.39.39,0,0,0-.32.52c0,.08.14.15.22.14a.38.38,0,0,0,.33-.51C449.68,1270.23,449.55,1270.2,449.47,1270.15Z" transform="translate(-420.73 -1121.66)"></path><path class="cls-1" d="M514.75,1192.56a3.78,3.78,0,0,0-.11-1.8.5.5,0,0,0-.16-.22.09.09,0,0,0-.13.06,5.88,5.88,0,0,0,.42,2Z" transform="translate(-420.73 -1121.66)"></path><path class="cls-1" d="M501.58,1186.46a3.46,3.46,0,0,0,.39-.56,2.06,2.06,0,0,0-.07-.58c-.09,0-.23-.08-.24,0-.05.36-.05.77-.07,1.18Z" transform="translate(-420.73 -1121.66)"></path><path class="cls-1" d="M481.65,1220.32a3.33,3.33,0,0,0,.64.51c.13.06.23-.2.2-.47,0-.09-.09-.21-.13-.19a7.28,7.28,0,0,0-.73.28Z" transform="translate(-420.73 -1121.66)"></path><path class="cls-1" d="M472.29,1211.35l.08-.6c-.11,0-.24,0-.32.09a1.85,1.85,0,0,0-.08.56Z" transform="translate(-420.73 -1121.66)"></path><path class="cls-1" d="M508.22,1194.72l0,.58c.09,0,.23.19.28.12a2,2,0,0,0,0-.55Z" transform="translate(-420.73 -1121.66)"></path><path class="cls-1" d="M482,1201.28a2.73,2.73,0,0,0,.11-.65c-.1-.4-.27-.17-.37.14a3.24,3.24,0,0,0,0,.65Z" transform="translate(-420.73 -1121.66)"></path><path class="cls-1" d="M446.44,1165.12a5.62,5.62,0,0,0-.7.72c-.23.44.2.14.48,0s.49-.37.74-.56l0,.06c-.31.09-.51,0-.53-.2Z" transform="translate(-420.73 -1121.66)"></path><path class="cls-1" d="M530.19,1260a6.87,6.87,0,0,0-1-.65c-.21-.09-.35.17-.3.46,0,.1.13.26.19.26.38,0,.76-.11,1.14-.18Z" transform="translate(-420.73 -1121.66)"></path><path class="cls-1" d="M557.38,1244.54a3.59,3.59,0,0,0,.4.54c.25.24.53.35.71,0a.36.36,0,0,0,0-.31,1.08,1.08,0,0,0-.5-.23,2.69,2.69,0,0,0-.54.14Z" transform="translate(-420.73 -1121.66)"></path><path class="cls-1" d="M487,1192.75l.06-.26s-.07-.14-.1-.12a1.15,1.15,0,0,0-.06.24Z" transform="translate(-420.73 -1121.66)"></path><path class="cls-1" d="M463.83,1206.64c.15.06.3.1.45.17s.26,0,.27-.23-.09-.36-.17-.32a2.78,2.78,0,0,0-.53.43Z" transform="translate(-420.73 -1121.66)"></path><path class="cls-1" d="M483.1,1217.44l-.13.6.14.09.14-.6Z" transform="translate(-420.73 -1121.66)"></path><path class="cls-1" d="M449.42,1202.88c0,.07,0,.21,0,.2s.14-.08.19-.16c.17-.29.16-.41,0-.3C449.54,1202.64,449.48,1202.79,449.42,1202.88Z" transform="translate(-420.73 -1121.66)"></path><path class="cls-1" d="M463.94,1215.11a2.13,2.13,0,0,0-.4-.48c-.07,0-.21.11-.32.17.06.12.1.34.18.34a1.93,1.93,0,0,0,.59-.16Z" transform="translate(-420.73 -1121.66)"></path><path class="cls-1" d="M523.34,1211.59a.81.81,0,0,0,0-.8c-.06-.09-.22,0-.33,0l.38.84Z" transform="translate(-420.73 -1121.66)"></path><path class="cls-1" d="M503.73,1198a3.18,3.18,0,0,0,.31.49c.15.17.22.06.16-.23a.28.28,0,0,0-.15-.18,1.15,1.15,0,0,0-.32,0Z" transform="translate(-420.73 -1121.66)"></path><path class="cls-1" d="M458.51,1212.93c-.06,0-.12-.06-.17,0s-.24.37-.09.47.14-.06.19-.14A1.38,1.38,0,0,0,458.51,1212.93Z" transform="translate(-420.73 -1121.66)"></path><path class="cls-1" d="M522.87,1193l.36.15c.06,0,.15,0,.14,0,0-.21-.11-.3-.23-.21a1.61,1.61,0,0,0-.22.23Z" transform="translate(-420.73 -1121.66)"></path><path class="cls-1" d="M522.3,1189.91l.18-.21a1.24,1.24,0,0,0-.15-.22.85.85,0,0,0-.19.19Z" transform="translate(-420.73 -1121.66)"></path><path class="cls-1" d="M500.69,1239.23l-.94.91a.48.48,0,0,0,0,.29.19.19,0,0,0,.21.06c.4-.21.56-.75.73-1.3C500.7,1239.17,500.69,1239.23,500.69,1239.23Z" transform="translate(-420.73 -1121.66)"></path><path class="cls-1" d="M517.69,1190.67a.6.6,0,0,0,.22-.16.51.51,0,0,0,0-.29c-.12-.25-.25-.33-.28-.12A2.86,2.86,0,0,0,517.69,1190.67Z" transform="translate(-420.73 -1121.66)"></path><path class="cls-1" d="M441.14,1217.7h.19c0-.09.09-.23.07-.27s-.12,0-.18,0Z" transform="translate(-420.73 -1121.66)"></path><path class="cls-1" d="M457.83,1207.54a3.73,3.73,0,0,1,.57-.4c.2-.09.26-.17.18-.32s-.12.06-.18.12l-.57.6Z" transform="translate(-420.73 -1121.66)"></path><path class="cls-1" d="M485,1247.24c.07.19.12.39.2.58s.11.21.15.19.17-.22,0-.39-.24-.25-.35-.38Z" transform="translate(-420.73 -1121.66)"></path><path class="cls-1" d="M528.49,1193.24c.07-.09.18-.14.22-.28a1.85,1.85,0,0,0-.07-.48c-.06.08-.15.12-.17.25a3.25,3.25,0,0,0,.07.58Z" transform="translate(-420.73 -1121.66)"></path><path class="cls-1" d="M463.17,1200.86c0,1.09.5.65.91.55h0l-1-.41Z" transform="translate(-420.73 -1121.66)"></path><path class="cls-1" d="M446.17,1205.12l-.54.28c.05,0,.09,0,.14,0l.41-.38Z" transform="translate(-420.73 -1121.66)"></path><polygon class="cls-1" points="42.74 71.59 42.85 71.43 42.77 71.43 42.74 71.59"></polygon><path class="cls-1" d="M443.34,1205c0,.06,0,.16,0,.17s.11-.1.17-.15,0-.16,0-.17S443.4,1204.9,443.34,1205Z" transform="translate(-420.73 -1121.66)"></path><polygon class="cls-1" points="109.66 97.43 109.48 97.44 109.63 97.69 109.66 97.43"></polygon><path class="cls-1" d="M442.1,1197.18a3.52,3.52,0,0,0-.42.09,2.65,2.65,0,0,0-.4.22l.36-.13.44-.16Z" transform="translate(-420.73 -1121.66)"></path><polygon class="cls-1" points="34.85 66.42 34.93 66.53 35.01 66.28 34.85 66.42"></polygon><path class="cls-1" d="M490.32,1221.38l.33.66a.83.83,0,0,0-.06-.25,4.27,4.27,0,0,0-.29-.41Z" transform="translate(-420.73 -1121.66)"></path><polygon class="cls-1" points="20.66 56.27 20.52 56.41 20.61 56.43 20.66 56.27"></polygon><path class="cls-1" d="M503.73,1198.12l-.25.17c-.19.16-.1-.37-.11.09,0,.18.12.25.2.08a3,3,0,0,0,.16-.43Z" transform="translate(-420.73 -1121.66)"></path><path class="cls-1" d="M484.42,1221.63c-.08-.18-.15-.37-.23-.53s-.12-.18-.16-.16-.17.24,0,.34a3.61,3.61,0,0,1,.36.23Z" transform="translate(-420.73 -1121.66)"></path><polygon class="cls-1" points="106.52 125.09 106.53 125.29 106.66 125.2 106.52 125.09"></polygon><path class="cls-1" d="M474.1,1214.84a4.49,4.49,0,0,0,.16.48c0,.06.1.12.14.09a.26.26,0,0,0,0-.41,2.8,2.8,0,0,0-.3-.15Z" transform="translate(-420.73 -1121.66)"></path><path class="cls-1" d="M531.2,1259.71a2.86,2.86,0,0,0,.55.33c.27.08.39-.08.29-.36,0-.07-.19-.13-.27-.1a3.82,3.82,0,0,0-.55.24Z" transform="translate(-420.73 -1121.66)"></path><polygon class="cls-1" points="101.65 86.01 101.79 86.15 101.77 85.95 101.65 86.01"></polygon><path class="cls-1" d="M500.09,1249.09c0,.11,0,.27.09.29s.21-.06.21-.1C500.39,1248.92,500.28,1248.86,500.09,1249.09Z" transform="translate(-420.73 -1121.66)"></path><polygon class="cls-1" points="65.38 70.62 65.4 70.4 65.33 70.47 65.38 70.62"></polygon><path class="cls-1" d="M465.69,1215.54c-.17.17-.43.13-.46.65,0,0,.14.08.15.06.1-.21.18-.44.26-.66Z" transform="translate(-420.73 -1121.66)"></path><path class="cls-1" d="M464,1215a3.75,3.75,0,0,0,.21.4.11.11,0,0,0,.16,0c.13-.21.12-.38,0-.39a1.51,1.51,0,0,0-.38.12Z" transform="translate(-420.73 -1121.66)"></path><path class="cls-1" d="M510,1249.26a1.54,1.54,0,0,0-1.38-.11V1249a1.19,1.19,0,0,0,1.41.12Z" transform="translate(-420.73 -1121.66)"></path><path class="cls-1" d="M465.73,1213.15c0,.07,0,.21,0,.2s.11-.09.16-.14,0-.2,0-.2S465.79,1213.1,465.73,1213.15Z" transform="translate(-420.73 -1121.66)"></path><path class="cls-1" d="M485.93,1189.15c0-.05-.06-.14-.08-.12s0,.13-.07.2.06.13.09.12A.81.81,0,0,0,485.93,1189.15Z" transform="translate(-420.73 -1121.66)"></path><path class="cls-1" d="M526.54,1210.08l-.15.45-.14.35c.09-.08.2-.13.24-.26a3.14,3.14,0,0,0,.06-.58S526.54,1210.08,526.54,1210.08Z" transform="translate(-420.73 -1121.66)"></path><path class="cls-1" d="M459.2,1215c0-.2,0-.41.08-.61.09-.48.22,0,.09-.31-.06-.12-.16.06-.17.36v.62S459.2,1215,459.2,1215Z" transform="translate(-420.73 -1121.66)"></path><polygon class="cls-1" points="44.41 87.12 44.55 87.02 44.47 86.87 44.41 87.12"></polygon><path class="cls-1" d="M559.6,1239.09c0-.06.14-.14.13-.18-.11-.26-.22-.27-.28,0C559.44,1238.92,559.55,1239,559.6,1239.09Z" transform="translate(-420.73 -1121.66)"></path><path class="cls-1" d="M461.14,1207.51c0,.07,0,.22,0,.21s.23-.16.16-.34C461.3,1207.36,461.2,1207.46,461.14,1207.51Z" transform="translate(-420.73 -1121.66)"></path><path class="cls-1" d="M505.6,1223.74v.3c.18.08.25,0,.19-.34Z" transform="translate(-420.73 -1121.66)"></path><path class="cls-1" d="M449,1166.54l.41-.31-.43.32Z" transform="translate(-420.73 -1121.66)"></path><path class="cls-1" d="M453,1193.58c-.4.75-.29.85.14.53l-.06.1-.12-.6Z" transform="translate(-420.73 -1121.66)"></path><polygon class="cls-1" points="31.85 80.28 32.06 80.11 31.86 80.29 31.85 80.28"></polygon><polygon class="cls-1" points="58.23 78.01 58.1 78.24 58.19 77.98 58.23 78.01"></polygon><path class="cls-1" d="M470.18,1217.58l-.19-.71.06,0c-.46.86-.05.58.17.54Z" transform="translate(-420.73 -1121.66)"></path><path class="cls-1" d="M474.08,1214.85l-.26.44.28-.45Z" transform="translate(-420.73 -1121.66)"></path><path class="cls-1" d="M498.68,1189.38a2.4,2.4,0,0,0-.06.47c.12.37.2.11.29,0v.12l-.29-.6Z" transform="translate(-420.73 -1121.66)"></path><path class="cls-1" d="M502.65,1187.14c.07-.09.2-.12.2-.27s-.05-.26-.09.06a.38.38,0,0,1-.09.19Z" transform="translate(-420.73 -1121.66)"></path><path class="cls-1" d="M490.7,1216.07l-.18.5.2-.51Z" transform="translate(-420.73 -1121.66)"></path><polygon class="cls-1" points="82.64 70.67 82.7 70.44 82.69 70.68 82.64 70.67"></polygon><path class="cls-1" d="M491.1,1218.28c-.12.07-.29.08-.34.23s0,.26.13-.06c0-.08.11-.1.17-.14S491.1,1218.28,491.1,1218.28Z" transform="translate(-420.73 -1121.66)"></path><polygon class="cls-1" points="85.47 65.66 85.4 65.14 85.2 65.29 85.18 65.17 85.52 65.7 85.47 65.66"></polygon><path class="cls-1" d="M434.47,1262l.43-.36c-.07,0-.18,0-.22.08a1.13,1.13,0,0,0-.13.32Z" transform="translate(-420.73 -1121.66)"></path><polygon class="cls-1" points="12.23 142.55 13.13 141.43 13.2 141.49 11.96 141.86 12 141.79 12.29 142.49 12.23 142.55"></polygon><polygon class="cls-1" points="85.19 77.2 85.02 77.12 85.15 77.14 85.19 77.2"></polygon><path class="cls-1" d="M511.14,1191.74l-.37,0,0,0a3.11,3.11,0,0,1,0,1.42l0,0,.31-1.51Z" transform="translate(-420.73 -1121.66)"></path><polygon class="cls-1" points="64.26 125.58 63.96 126 64.28 125.58 64.26 125.58"></polygon><path class="cls-1" d="M516.62,1196l-1-1,0-.06c.33.52.69.93,1.05,1Z" transform="translate(-420.73 -1121.66)"></path><path class="cls-1" d="M518.7,1186v0Z" transform="translate(-420.73 -1121.66)"></path><path class="cls-1" d="M517.66,1211.75l-.31-.46.29.44Z" transform="translate(-420.73 -1121.66)"></path><polygon class="cls-1" points="103.37 86.46 103.47 86.27 103.42 86.5 103.37 86.46"></polygon><path class="cls-1" d="M510.52,1241.18l.21-.17-.2.14Z" transform="translate(-420.73 -1121.66)"></path><path class="cls-1" d="M507.67,1249.1c-.38-.06.14-.06,0-.11Z" transform="translate(-420.73 -1121.66)"></path><path class="cls-1" d="M527,1228.44l0,.48a.39.39,0,0,0,0-.18,1.47,1.47,0,0,0-.08-.28Z" transform="translate(-420.73 -1121.66)"></path><path class="cls-1" d="M555,1244.1c.2,0,0,.09,0,.12Z" transform="translate(-420.73 -1121.66)"></path><path class="cls-1" d="M559.73,1246l-.24.51c.38,0,.16-.37.23-.57C559.72,1245.88,559.73,1246,559.73,1246Z" transform="translate(-420.73 -1121.66)"></path><path class="cls-1" d="M448.41,1162.89l.2-.22-.15.15Z" transform="translate(-420.73 -1121.66)"></path><polygon class="cls-1" points="30.43 44.19 30.34 44.15 30.38 44.22 30.43 44.19"></polygon><path class="cls-1" d="M447.84,1185.66l-.07-.05h0S447.84,1185.66,447.84,1185.66Z" transform="translate(-420.73 -1121.66)"></path><polygon class="cls-1" points="34.15 65.81 34.26 65.85 34.2 65.79 34.15 65.81"></polygon><path class="cls-1" d="M450.23,1191.93l-.14.27.11-.19A.41.41,0,0,0,450.23,1191.93Z" transform="translate(-420.73 -1121.66)"></path><path class="cls-1" d="M454.52,1192.66l-.1.17.14-.2Z" transform="translate(-420.73 -1121.66)"></path><path class="cls-1" d="M453,1193.61l.13,0-.09-.06Z" transform="translate(-420.73 -1121.66)"></path><path class="cls-1" d="M428,1205.1l.17-.26-.15.18Z" transform="translate(-420.73 -1121.66)"></path><path class="cls-1" d="M456,1192.43l.06,0Z" transform="translate(-420.73 -1121.66)"></path><polygon class="cls-1" points="35.33 70.72 35.2 70.77 35.27 70.77 35.33 70.72"></polygon><polygon class="cls-1" points="51.3 58.47 51.21 58.49 51.26 58.51 51.3 58.47"></polygon><path class="cls-1" d="M451.72,1200.29l-.05.08Z" transform="translate(-420.73 -1121.66)"></path><path class="cls-1" d="M452.59,1202l.18-1.44v0l-.18,1.4Z" transform="translate(-420.73 -1121.66)"></path><path class="cls-1" d="M446.18,1205l-.09.24.07-.15A.37.37,0,0,0,446.18,1205Z" transform="translate(-420.73 -1121.66)"></path><path class="cls-1" d="M458.87,1200.72l0-.1Z" transform="translate(-420.73 -1121.66)"></path><polygon class="cls-1" points="56.02 61.22 55.92 61.25 55.99 61.27 56.02 61.22"></polygon><path class="cls-1" d="M458.89,1200.62l-.06.19a.41.41,0,0,1,0-.08A.61.61,0,0,0,458.89,1200.62Z" transform="translate(-420.73 -1121.66)"></path><polygon class="cls-1" points="56.59 61.06 56.5 61.12 56.55 61.11 56.59 61.06"></polygon><path class="cls-1" d="M469,1194.21l0,.25,0-.17Z" transform="translate(-420.73 -1121.66)"></path><path class="cls-1" d="M463.85,1206.69l0-.27-.07.21Z" transform="translate(-420.73 -1121.66)"></path><path class="cls-1" d="M483.81,1187.32l-.08.08,0,0Z" transform="translate(-420.73 -1121.66)"></path><polygon class="cls-1" points="55.83 76.34 55.76 76.39 55.81 76.29 55.83 76.34"></polygon><path class="cls-1" d="M476.54,1198v.26l0-.21S476.54,1198,476.54,1198Z" transform="translate(-420.73 -1121.66)"></path><path class="cls-1" d="M478.92,1199.64l.05,0Z" transform="translate(-420.73 -1121.66)"></path><polygon class="cls-1" points="141.7 116.74 141 116.35 141 116.26 141.74 116.67 141.7 116.74"></polygon><path class="cls-1" d="M556.73,1244.67l.12-.11s0,.07,0,.07Z" transform="translate(-420.73 -1121.66)"></path><polygon class="cls-1" points="133.23 125.1 133.83 125.4 133.83 125.5 133.15 125.08 133.23 125.1"></polygon><polygon class="cls-1" points="133.51 124.39 133.23 125.1 133.15 125.08 133.45 124.32 133.51 124.39"></polygon><path class="cls-1" d="M555,1244.22l0-.13Z" transform="translate(-420.73 -1121.66)"></path><polygon class="cls-1" points="110.49 138.16 109.45 138.31 109.44 138.2 110.47 138.05 110.49 138.16"></polygon><path class="cls-1" d="M529.66,1250.74h-.13l.19.08Z" transform="translate(-420.73 -1121.66)"></path><polygon class="cls-1" points="109.91 101.82 109.59 100.62 109.67 100.65 109.98 101.77 109.91 101.82"></polygon><path class="cls-1" d="M504.81,1263.91h0Z" transform="translate(-420.73 -1121.66)"></path><path class="cls-1" d="M526.93,1228.46l-.3-1.27h.07l.3,1.25Z" transform="translate(-420.73 -1121.66)"></path><path class="cls-1" d="M528.78,1210.51l.11.16,0-.06A.44.44,0,0,0,528.78,1210.51Z" transform="translate(-420.73 -1121.66)"></path><path class="cls-1" d="M510,1249.15l0,.1Z" transform="translate(-420.73 -1121.66)"></path><path class="cls-1" d="M508.61,1249.15l-.93-.05V1249l.92,0Z" transform="translate(-420.73 -1121.66)"></path><path class="cls-1" d="M528.54,1193.31l-.16-.25.1.16Z" transform="translate(-420.73 -1121.66)"></path><path class="cls-1" d="M523.39,1211.64l.12,0-.17,0Z" transform="translate(-420.73 -1121.66)"></path><path class="cls-1" d="M520.3,1219.09l.1.3,0-.23Z" transform="translate(-420.73 -1121.66)"></path><path class="cls-1" d="M524.15,1208.16l-.13-.26.08.22Z" transform="translate(-420.73 -1121.66)"></path><path class="cls-1" d="M508.46,1238.2l0,1.33h-.07l0-1.29Z" transform="translate(-420.73 -1121.66)"></path><path class="cls-1" d="M525.42,1182.26l-.14-.18.08.13Z" transform="translate(-420.73 -1121.66)"></path><polygon class="cls-1" points="91.78 99.11 92.21 99.73 92.19 99.81 91.73 99.16 91.78 99.11"></polygon><path class="cls-1" d="M520,1183.84l-.05,0Z" transform="translate(-420.73 -1121.66)"></path><path class="cls-1" d="M488.52,1250.94l.19-.08h-.16Z" transform="translate(-420.73 -1121.66)"></path><path class="cls-1" d="M517.18,1195.84l0,.11Z" transform="translate(-420.73 -1121.66)"></path><polygon class="cls-1" points="95.86 74.26 96.45 74.18 96.48 74.29 95.89 74.36 95.86 74.26"></polygon><path class="cls-1" d="M507,1222.92l.12-.07-.07,0Z" transform="translate(-420.73 -1121.66)"></path><path class="cls-1" d="M516.3,1193l0-.12Z" transform="translate(-420.73 -1121.66)"></path><polygon class="cls-1" points="86.22 91.76 85.84 91.13 85.85 91.04 86.27 91.71 86.22 91.76"></polygon><polygon class="cls-1" points="93.32 62.11 93.37 62.23 93.28 62.09 93.32 62.11"></polygon><path class="cls-1" d="M511.84,1192.66l0,0Z" transform="translate(-420.73 -1121.66)"></path><path class="cls-1" d="M511.82,1192.63l-.67-.87,0-.06.73,1Z" transform="translate(-420.73 -1121.66)"></path><path class="cls-1" d="M505.88,1198.8l.1.25-.05-.18Z" transform="translate(-420.73 -1121.66)"></path><polygon class="cls-1" points="88.82 62.34 88.76 62.46 88.82 62.41 88.82 62.34"></polygon><path class="cls-1" d="M433,1264.15h-.24l.17,0Z" transform="translate(-420.73 -1121.66)"></path><path class="cls-1" d="M432.7,1263.52l-.08-.13.12.06Z" transform="translate(-420.73 -1121.66)"></path><polygon class="cls-1" points="13.81 140.37 13.2 141.48 13.13 141.43 13.73 140.33 13.81 140.37"></polygon><path class="cls-1" d="M489.57,1222.37v0Z" transform="translate(-420.73 -1121.66)"></path><polygon class="cls-1" points="85.69 66.78 85.47 65.66 85.52 65.7 85.72 66.73 85.69 66.78"></polygon><path class="cls-1" d="M489.57,1222.4l.74-1h0l-.72,1Z" transform="translate(-420.73 -1121.66)"></path><path class="cls-1" d="M503.61,1193.53h0Z" transform="translate(-420.73 -1121.66)"></path><path class="cls-1" d="M503.56,1193.52l-.18-1.19h.05l.18,1.19Z" transform="translate(-420.73 -1121.66)"></path><path class="cls-1" d="M494.79,1196.81l-.05-.26v.21Z" transform="translate(-420.73 -1121.66)"></path><polygon class="cls-1" points="59.84 87.61 60.39 87.84 60.35 87.94 59.84 87.73 59.84 87.61"></polygon><polygon class="cls-1" points="59.97 84.36 59.61 84.81 59.58 84.76 59.97 84.28 59.97 84.36"></polygon><path class="cls-1" d="M470,1216.87l.06,0Z" transform="translate(-420.73 -1121.66)"></path><path class="cls-1" d="M490,1190l0-.27v.23Z" transform="translate(-420.73 -1121.66)"></path><path class="cls-1" d="M465.64,1215.59h.16l-.11,0Z" transform="translate(-420.73 -1121.66)"></path><path class="cls-1" d="M480,1199.13l0-.11Z" transform="translate(-420.73 -1121.66)"></path><path class="cls-1" d="M475.64,1176l0,0Z" transform="translate(-420.73 -1121.66)"></path><path class="cls-1" d="M517.79,1175.91l.06-.07,0,0S517.79,1175.91,517.79,1175.91Z" transform="translate(-420.73 -1121.66)"></path><path class="cls-1" d="M481.46,1180.56h0Z" transform="translate(-420.73 -1121.66)"></path><path class="cls-1" d="M492.11,1180.67v0Z" transform="translate(-420.73 -1121.66)"></path><path class="cls-1" d="M444.78,1190.72l-1.44.68C443.64,1191.81,444.14,1191.53,444.78,1190.72Z" transform="translate(-420.73 -1121.66)"></path><path class="cls-1" d="M472.39,1226.91l0-.12Z" transform="translate(-420.73 -1121.66)"></path></svg>
