<svg id="Layer_1" data-name="Layer 1" xmlns="http://www.w3.org/2000/svg" viewBox="0 0 151.11 147.78"><defs><style>.cls-1{fill:#0f0619;}</style></defs><path class="cls-1" d="M794.92,1187.75l-.95-1.12,0-.05v.11a5.57,5.57,0,0,1-1.54-1.74,5.27,5.27,0,0,0-1-1.3,16.9,16.9,0,0,1-2.25-2.35c-.41-.5-.85-1-1.45-.7,1.39,1.93,2.68,3.65,4,5.28a7.36,7.36,0,0,1,2,2.82,1.19,1.19,0,0,0,.62.63,11.65,11.65,0,0,0,1.34.53l0-.08a9.1,9.1,0,0,0,.68,1.25c1.51,2,3.1,3.93,4.73,6a34.45,34.45,0,0,0,4.17,4,3.11,3.11,0,0,0-.8-2.1,18.08,18.08,0,0,0-2.09-2.49,14.46,14.46,0,0,1-2.68-3.28,8.46,8.46,0,0,0-1.16-1.38,9.06,9.06,0,0,1-1.52-2.24v.11c.3-.16.58-.13,1,.36a27.09,27.09,0,0,0,2,2.33,77.21,77.21,0,0,1,5.47,6c.36.42.72.85,1.09,1.23a5.06,5.06,0,0,1,1.29,1.38c.43.85-.12,1.21-.11,1.86,0,.29.06.6.06.89,0,1.11-.12,1.37-.86,1.14-.55-.16-1.11-.53-1.58-.21l.07.05c-.51-1-1.14-1.56-1.83-1.57a2.71,2.71,0,0,1-2.28-.94c-.06-.06-.24,0-.28.18a1.12,1.12,0,0,0,0,.55,1.77,1.77,0,0,0,.91,1.33,7.07,7.07,0,0,1,2,1.89,1.38,1.38,0,0,1,.45,1.05c0,.47-.33.52-.6.4a33.1,33.1,0,0,1-4-1.92l-6.31-4a3.39,3.39,0,0,1-1.65-1.83c.71-.08,1.32.28,1.88.1s.69-.73.49-1.72l.05,0a.7.7,0,0,1-1-.22,3.23,3.23,0,0,0-1.7-1.18,24.57,24.57,0,0,1-3.89-2,5.88,5.88,0,0,0-1.94-1.49,39.66,39.66,0,0,1-3.83-2.42,13.22,13.22,0,0,0-2.67-1.27c-.62-.29-1.23-.68-1.85-1a.83.83,0,0,0-.6,0c-.07,0-.12.27-.16.44a.59.59,0,0,0,.06.28,1.37,1.37,0,0,0,.25.4,10.49,10.49,0,0,0,4,2.54,6,6,0,0,1,1.91,1,28.55,28.55,0,0,0,2.94,1.76,1.3,1.3,0,0,0,1.88-.37,2.24,2.24,0,0,0,.61,1.79c.81.68,1.62,1.44,2.46,2.12v-.09a1.56,1.56,0,0,1-2-.15,5.39,5.39,0,0,0-1.84-.87h0c-1.34-1.45-2.77-1.56-4.1-2.43a.14.14,0,0,0-.16,0c-.09.08-.21.14-.26.28a.89.89,0,0,0,.16.8,13,13,0,0,0,3.23,2.59c1.47.82,3,1.53,4.51,2.29l-.07-.06a53.52,53.52,0,0,0,7.59,5.22c2.26,1.22,4.58,2.49,7,3.74a19,19,0,0,1,3.75,2.48s.14.23.12.26-.13.39-.21.37a7.8,7.8,0,0,1-1.31-.38,2.3,2.3,0,0,0-1.86.11c-.26.12-.32.64-.08,1a10.32,10.32,0,0,0,.73.88,1.27,1.27,0,0,1,.31,1.36c-.82,1.77-.4,3.78.38,5.77a5.16,5.16,0,0,1,.59,2.07c-.07.93.52,1.48.78,2.23-.85.23-1.6-.4-2.35-.68a3.06,3.06,0,0,0-1.83-.27,1.43,1.43,0,0,0-1,1.32,1.82,1.82,0,0,0,.68,1.58c.56.65,1.14,1.29,1.69,2a4.2,4.2,0,0,1,.79,1.25c.74,2.4,2.31,3.73,4,5,.52.42,1.07.78,1.58,1.22a1.21,1.21,0,0,1,.21,1.62c-.31.67-.76,1.07-1.45.84a15.88,15.88,0,0,1-2.25-.88,2.12,2.12,0,0,0-2.17,0v-.17s0,.07,0,.08l2.1,2.47c.3.38.79.88.77,1.25-.07,1.55.82,2.24,1.7,3a1.37,1.37,0,0,1-.41,2.21,3.19,3.19,0,0,1-1.3-.07c-.25,0-.67-.19-.64.13.16,1.83-.9.9-1.28.59-1.57-1.25-3.28-2.06-4.69-3.57-1.69-1.78-3.64-3.16-5.36-4.79a.59.59,0,0,0-.23-.13,7.29,7.29,0,0,1-3-2.65,14.31,14.31,0,0,0-1.67-1.79c-2.74-2.7-5.36-5.36-7.79-8.2a13.15,13.15,0,0,1-.9-1.38l0,.07a2.06,2.06,0,0,1,2.45,1.25,1.39,1.39,0,0,0,1.56.81c1.13-.16,2.1.52,2.93,1.71a9.46,9.46,0,0,0,2.22,2.28,8,8,0,0,1,1.82,2c.54.78,1,1.72,1.87,1.89.34.06.56.42.7.82a2.69,2.69,0,0,0,1.62,1.82c.42.15.57.75.86,1.12a11.36,11.36,0,0,0,1.92,2.09,8.07,8.07,0,0,1,2.26,2.12,2.1,2.1,0,0,0,1.88.88c.77,0,1.2-.88.85-1.73a6.58,6.58,0,0,0-3.25-3.53,24.13,24.13,0,0,1-2.73-1.58,16.77,16.77,0,0,1-4.09-4.1,11.3,11.3,0,0,0-1.42-1.74,11,11,0,0,1-2.48-3.81c-.31-.77-.63-1.52-1.31-1.6l.06,0a25.35,25.35,0,0,0-3.73-4.48,25.46,25.46,0,0,1-3.76-4.57,5.87,5.87,0,0,0-.62-.82c-1.27-1.42-2.51-2.79-3.71-4.22-.89-1-1.71-2.25-2.79-2.59a1.44,1.44,0,0,1-.61-.67,3.18,3.18,0,0,0-.74-.92c-.68-.61-1.42-.79-2-1.9-.44-.84-1.26-1-1.85-1.78a4.65,4.65,0,0,0-.94-.8c-.21-.16-.48-.19-.64-.46-1.27-2.2-3-2.75-4.32-4.69a.93.93,0,0,0-.29-.3c-1.79-.87-3.12-3.25-4.7-4.51-2.84-2.36-5.47-5-8.3-6.63-.57-.33-1.26-.25-1.77-.74-1.78-1.82-4-1.7-5.79-3.15a3.41,3.41,0,0,0-1.29-.55c-1.18-.34-2.34-.75-3.51-1.12a20.77,20.77,0,0,0-3.53-.9,41.31,41.31,0,0,0-9.38-.87c-1.08.09-2.06-.22-3.27.33-.28.13-.51-.08-.77-.14l0,.09a4.27,4.27,0,0,1,.39-.8,4.74,4.74,0,0,1,2.45-1.6c.81-.08,1.73-1,2.49-.92a2.53,2.53,0,0,1,2.68-.85,7.58,7.58,0,0,1,3.07.39c1.09.51,2.28.07,3.52-.74l0,.06c-.05-1-.3-1.52-.77-1.74s-.8.12-1.22.37a2.72,2.72,0,0,1-3.36-.44c-.3-.24-.19-.88.22-1.37.26-.31.54-.57.8-.85l0,.07.48-.39a2.93,2.93,0,0,0,0,.49c0,.2.09.18.18,0a.3.3,0,0,0,0-.21,1,1,0,0,0-.19-.17c.64-1.35,1.26-2.53,2-2.09.22.13.51-.38.76-.65s.44-.26.38.28,0,.7.29.44a29.44,29.44,0,0,0,2.47-2.61c.49-.61.86-1,1.23-.54.11.14.38.09.55-.12a5.39,5.39,0,0,1,2.93-1.79c1.33-.53,2.7-2,3.91-1.43.18.09.46-.28.69-.41.8-.47,1.6-.76,2.24-.35a1.3,1.3,0,0,0,1.41-.09,14.2,14.2,0,0,1,1.41-.73c-.29-1-.69-1.17-1.1-1.2l-3.68-.3c-.26,0-.53-.13-.79.11-1.19,1.07-2.3,1-3.49,1.8a19.84,19.84,0,0,1-4.74,2.3,2.14,2.14,0,0,0-1.2.84c-1.69,2.27-3.35,2.55-5.1,3.86-.75.57-1.49,1.56-2.25,1.79a5.14,5.14,0,0,0-2.15,1.89c-1.28,1.67-2.59,1.68-3.9,3.55a.36.36,0,0,1-.34.15c-.6-.19-1.2.45-1.83,1.43-.15.25-.38.3-.39,0a2,2,0,0,1,.23-.83,5.77,5.77,0,0,1,1.69-2c.42-.29.82-.52,1.23-.78a.78.78,0,0,0,.39-.63c0-.22-.16-.29-.23-.45a3.59,3.59,0,0,1-.09-.47,6.3,6.3,0,0,0,1.31-.63,15.55,15.55,0,0,0,1.52-1.44c1.09-1.09,2.18-2.67,3.25-2.91.17,0,.43-.52.48-1s0-.69-.22-.71-.4.15-.6.24-.36.28-.26-.2a1.38,1.38,0,0,1,.28-.48c.21-.23.49-.61.62-.58,1,.22,2.21-1,3.29-1.39.92-.31,1.91-1.27,2.78-1.3a2.81,2.81,0,0,1,2-1.1,4.58,4.58,0,0,0,1.58-.94,1.39,1.39,0,0,1,1.1-.47,1.38,1.38,0,0,0,1.36-.52,1.33,1.33,0,0,0,.19-.51c0-.15,0-.39-.07-.4a2.36,2.36,0,0,0-2.13.53c-.49.36-1,.76-1.38.58s-.71-.17-1.2.63c-.29.47-.55.29-.79.16-.47-.25-1-.12-1.62.45s-1.11.91-1.6.83c-1.27-.22-2.61.77-4.17,3.09a3.65,3.65,0,0,1-.8.93,29.82,29.82,0,0,0-4.78,4c-.87,0-1.91,1.29-2.87,1.71s-2.12,1.79-3.14,2c-.15,0-.34.48-.38.78-.07.53,0,.88.38.66a16.56,16.56,0,0,0,1.44-1.28c.18-.16.35-.15.36.13a1.25,1.25,0,0,1-.12.54c-1.15,1.74-2.3,3.52-3.63,3.46l0,0c.14-1.66.06-1.77-.86-1.08-1.23.92-2.47,1.81-3.74,2.7a2.51,2.51,0,0,1-1.48.63l0,0c.47-1.59.47-1.58-.23-1.7-.15,0-.35-.09-.34-.27,0-.47.36-.61.6-.83,1.05-1,2.06-1.9,3.08-2.89l.17-.5c-.22.19-.11.35-.18.53a1.57,1.57,0,0,1-.43-.09c-.75-.34-1.6.15-2.64,1.53a11.33,11.33,0,0,1-1.14,1.24.21.21,0,0,1-.3,0,.67.67,0,0,1,0-.46,4.66,4.66,0,0,1,1.18-1.69c.66-.69,1.29-.88,1.94-1.69a12.38,12.38,0,0,1,2.61-2.36,11.93,11.93,0,0,0,2.74-2.59,9.57,9.57,0,0,1,1.77-1.74c1.31-1.14,2.65-2.14,3.91-3.2l.11.66-.21.88-.58.08c-.45.34-.89.66-1.33,1s-.81.51-.85,1.14.51,0,.82-.19a3.6,3.6,0,0,0,1.33-2l.62-.11.15-.79-.11-.67a16.87,16.87,0,0,1,2.49-2.22l0,0c-.15.25-.29.53-.45.76-.3.43-.7.64-.86,1.39-.1.46.25.55.81.16a11.57,11.57,0,0,0,1.3-1c1.51-1.41,3-2.73,4.43-4a13.32,13.32,0,0,0,1.36-1.69,1.46,1.46,0,0,0,.2-.53c0-.14,0-.32-.09-.3a7.69,7.69,0,0,0-1.95.91,14,14,0,0,1-2.66,1.61,11.66,11.66,0,0,1-2.54.85,2.5,2.5,0,0,0-1.54,1l-1.19,1.38v-.06a1.41,1.41,0,0,1,.08.56,1,1,0,0,1-.43.65,23.87,23.87,0,0,0-3.62,3.07c-1.38,1.28-2.78,2.56-4.21,3.79-.51.44-1,.83-1.37.64a.44.44,0,0,1-.21-.42,2,2,0,0,1,.48-1.06,2.38,2.38,0,0,1,.55-.58,19.11,19.11,0,0,0,3.48-3.13,11.77,11.77,0,0,0,3-4.19c.06.06.1.2.18.14s.14-.19,0-.09-.09,0-.13,0-.38.19-.22-.22c.38-1,.41-1.22,0-1a4.41,4.41,0,0,0-.83.57c-1.26,1.22-2.35,1.41-3.61,2.39-.17.13-.3,0-.2-.27a1.9,1.9,0,0,1,.3-.51,5.67,5.67,0,0,1,1.58-1.18,5.8,5.8,0,0,0,2.1-1.85,20.79,20.79,0,0,1,3.08-3.43,12.53,12.53,0,0,1,2.89-2.45,8.43,8.43,0,0,0,2.79-1.92c.39-.38.69-.19,1.15-1.07,0-.09,0-.2,0-.21a.39.39,0,0,0-.32,0,31.08,31.08,0,0,0-6.62,4.86c-.71.64-1.44,1.24-2.2,2-2,2.07-4,4.18-6.19,6.13-1.27,1.14-2.51,2.09-3.8,3.07-.3.21-.49-.09-.39-.48a4.52,4.52,0,0,1,1.49-2.33c1-.84,1.89-1.59,2.8-2.27,1.32-1,2.71-2.24,4-3.19a8.84,8.84,0,0,0,1.06-1.11,23.45,23.45,0,0,1,3.88-3.58,26.18,26.18,0,0,0,2-1.78c1.16-1.08,2.38-2.67,3.17-2.38.14,0,.48-.38.71-.5,1.73-1,3.73-3.11,5.21-3.37.07,0,.18-.16.27-.27a1,1,0,0,0,.1-.25.64.64,0,0,0,0-.22c-.07-.11-.11-.31-.22-.25-.78.42-1.34.08-2.29,1-.41.39-.67.37-.91.25s0-.34.11-.66l.52-1.15c0,1.4,1,.12,1.72-.79a1,1,0,0,0,.12-.25c0-.13,0-.34,0-.34-.52,0-1.19.82-1.84,1.45-.25,0-.46-.09-.76.13-1,.68-1.88,1.26-2.86,1.93a29.59,29.59,0,0,0-3.08,2.36,25,25,0,0,1-3.09,2.55,35.79,35.79,0,0,0-3.88,2.69c-.19.15-.47.37-.2-.28.27-.25.56-.55.83-.76.73-.6,1.39-1.13,2.12-1.75,1.16-1,2.31-2.09,3.37-3.06a19.66,19.66,0,0,1,3-2.38,1.23,1.23,0,0,0,.29-.28,6.19,6.19,0,0,1,1.7-1.5,20.57,20.57,0,0,0,2-1.8c.29-.27.57-.57.77-.55.51.07,1.21-.51,1.89-1.09a4.08,4.08,0,0,1,1.26-.9c.8-.17,1.77-1,2.49-.87.24.06.59-.22.94-.63.57-.65,1.1-1.28,1.32-.52,0,.16.26,0,.42-.11.5-.38.87-.38,1.17-.06a.44.44,0,0,0,.58,0c.7-.47,1.23-.45,1.63.13a.36.36,0,0,0,.38.1,5.46,5.46,0,0,1,2.18.18c.36,0,.69.25,1.16-.28s.64,0,.69.92v-.07c1.13.19,2.34-.13,3.26,1.18a.5.5,0,0,0,.47.24c.37,0,.63.33,1,.52.55.34,1.08.89,1.83.22a1.34,1.34,0,0,1,1.6-.25c-.37.67-.56.48-.76.6a1.88,1.88,0,0,0-.65,1c-.37,1-.68,1-1,.79-.64-.43-1.23-1.08-2-1a3.53,3.53,0,0,1-2.52-.72c-.21-.16-.42.2-.43.78a7.58,7.58,0,0,1-.25,2.06.85.85,0,0,0,0,.45c.07.16.23.15.32-.12.57-1.88,1-1.64,1.49-1.36a23.3,23.3,0,0,0,2.3,1.13c.12.06.29,0,.24.85-.76-.19-1.42-.82-2.27-.18v-.11h0a2.26,2.26,0,0,0,2,1.54,2.68,2.68,0,0,1,1.62,1c.21.24.45.56.7.45.62-.27,1.08.2,1.56.72s1.09.77,1.57,1.52c.17.27.42.39.64.29.47-.22.76.2,1.08.86s.82.72,1.21,1.23a4.57,4.57,0,0,0,1.88,1.7.44.44,0,0,1,.32.23c.86,1.85,2,2.31,3,3.34a17.18,17.18,0,0,1,1.3,1.37,20.57,20.57,0,0,0,1.54,1.77c.54.51,1,2,1.65,1.44,0,0,.08,0,.11.12.67,1.71,1.6,2.3,2.39,3.55.33.52.56,1.36,1,1.67a6.6,6.6,0,0,1,1.57,1.79c.3.5.65.73,1,.52.07,0,.11-.25.14-.41a.73.73,0,0,0,0-.29,3.18,3.18,0,0,0-.32-.64c-1-1.32-2-2.83-3-4a26.81,26.81,0,0,1-1.75-2.45c-1.25-1.75-2.45-3.26-3.66-4.75a11.55,11.55,0,0,1-1.53-2c-.4-.75-.8-1.14-1.29-.92l0,0a24.94,24.94,0,0,0-3.48-5.13,10.43,10.43,0,0,0-2.46-2.22c-.9-.7-1.69-1.88-2.61-2.3-.12-.07-.21-.36-.32-.55l0,.09c.41-.46.81-1.23,1.15-.45.13.29.33.25.52.06s.49,0,.63.54c.26,1,.63,1.56,1.14,1.48.1,0,.21.09.29.23a4.07,4.07,0,0,0,1.76,1.67c.41.19.65,1,1,1.59s.8,0,1.12.79c.6,1.46,1.46,1.62,2.16,2.82.35.61.72.39,1.05-.34v-.06l.27-.16v.08c.26.35.58,0,.83.6-.09,1.07-.46.32-.64.78a1.14,1.14,0,0,0,0,.79,1.4,1.4,0,0,0,.28.49c1.51,1.72,3,3.76,4.57,5.74,1,1.25,2,3.08,3.17,3.8l0-.06a5.32,5.32,0,0,0,.84,1.62c1,1,1.91,2.47,2.89,3.76.67.9,1.35,1.86,2,2.82s1.4,1.89,2.14,2.76c1.76,2.06,3.49,4.5,5.42,6.8,1.06,1.28,2.16,2.64,3.3,4a3.85,3.85,0,0,1,1,2.61Zm-48.78-33.88a.63.63,0,0,0,0,.09Zm44.69,32.81,0,.11Zm7.79,24.39.26.09s-.09-.07-.13-.06-.1.05-.15.08Zm-40.53-25.35-.25.24c-.09-.3-.15-.64-.26-.91s-.18-.07-.23.15a.39.39,0,0,0,0,.25,5.8,5.8,0,0,0,.47.51ZM775.26,1175c0,.26.11.32.19.19a2.16,2.16,0,0,0-.08-.24l-.19-.45c-.33-.31-.65-.72-1-.49-.11-.6-.29-1-.57-1.16s-.28-.11-.32.26a.79.79,0,0,0,.15.43,6.84,6.84,0,0,0,.76.39c.29,1,.65.88,1,.47C775.22,1174.61,775.23,1174.82,775.26,1175ZM802,1211.87c-.07,0-.23.11-.24.23s.12.35.27.32a5,5,0,0,0,.54-.2c0,.38,0,.77.06,1.16,0,.12.17.26.28.36s.12,0,.16-.11c.33-.48.16-.9-.51-1.31A3.16,3.16,0,0,0,802,1211.87Zm-62.07-57.59c.17,0,.3.37.55-.32a1,1,0,0,0,0-.48c-.1-.36-.31-.16-.54.27-.08.15-.15.35-.22.52l0-.08C739.74,1154.22,739.81,1154.28,739.88,1154.28ZM799.74,1201c-.73-.74-.73-.76-1,0a1.52,1.52,0,0,0,0,.79c.13.35.3.16.42,0l.59-.85Zm-82-30.2a3.43,3.43,0,0,0-.28.47c0,.06.09.21.17.19a4.36,4.36,0,0,0,1.41-1.24l.08-.45-.09.47C718.72,1170.1,718.3,1170.22,717.78,1170.81Zm29.43-24.5a1.29,1.29,0,0,0,.16-.49c0-.16,0-.37-.06-.39-.33-.14-.69.39-1.07,1-.1-1.41-.18-1.53-.88-1.08a1.12,1.12,0,0,0-.22.44.51.51,0,0,0,.05.37c.1,0,.23,0,.34,0a6.91,6.91,0,0,1,.73.24C746.54,1146.6,746.77,1147,747.21,1146.31ZM768,1167.06l.3-.27a2.53,2.53,0,0,0,1,2.46c.12.11.27.12.33-.25a.89.89,0,0,0-.12-.49c-.22-.32-.46-.55-.68-.86s-.35-.57-.52-.86Zm-5.7-5.07s.11.06.11,0c0-.22,0-.34-.11-.31a1,1,0,0,0-.24.14c-.68-1.86-.76-1.92-1.66-.9l1.68.85Zm17.2,18.32a.58.58,0,0,0-.18.35,1,1,0,0,0,.15.44.8.8,0,0,0,.84.25c.66.88,1.32,1.79,2.09,1.9.08,0,.19-.12.22-.26.06-.33-.05-.63-.21-.67-.71-.21-1.39-1.58-2.12-.86C779.9,1180,779.89,1180,779.45,1180.31Zm-40.69-36.41c.32.09.71-.05,1.4-1.07a2.32,2.32,0,0,0-2.06.48,4.93,4.93,0,0,0-.53.78l-.13-.17c-.11.39.1,0,.12.11A1.17,1.17,0,0,1,738.76,1143.9Zm47.12,43.76c-.36-1.14-.8-1.9-1.44-1.8a2.91,2.91,0,0,1-1.37-.35c-.5-.17-1-.43-1.49-.08-.29-1.28-.87-1.92-1.38-2a7.22,7.22,0,0,1-2.19-.94.64.64,0,0,0-.43,0c-.15,0-.28.22-.25.57a.93.93,0,0,0,.18.47,12.37,12.37,0,0,0,1.31,1c.68.42,1.38.78,2.09,1.15.26.14.5,0,.69-.29.79,1.43,1.76,1.38,2.67,1.92.51-.66,1.1.39,1.64.3Zm-30.73-38.14c0,1.58.48,1.82.91,2.15a2.34,2.34,0,0,0,1.47.49c.87-.05,1.74-.35,2.43.91a8.59,8.59,0,0,1,2.6,1.91c.84.81,1.69,1.7,2.58,2.45.51.42.94,1.38,1.51,1.59.06,0,.17-.14.2-.29a1.4,1.4,0,0,0,0-.55,5.12,5.12,0,0,0-1.3-1.9c-.7-.65-1.38-1.32-2-2a1.06,1.06,0,0,0-.9-.38c-.21,0-.41-.1-.49-.59-.17-1.12-.55-1.31-1-1.55a24.56,24.56,0,0,1-2.63-1.93c-.17-.13-.31-.46-.5-.44-.79.05-1.43-.7-2.09-1.25l0,.07c-.39-.07-.38-.07-.8,1.41-.54-2.44-1.64-2.35-2.74-2.34-.09,0-.26.25-.33.48a.72.72,0,0,0,.05.67c.42.86,1.08.77,1.6,1.24l0-.08C754.18,1149.48,754.6,1150,755.15,1149.52Zm9.27,18.44a15.69,15.69,0,0,0-7.55-1.75c-2.34.18-4.68.3-7.07.55a17.11,17.11,0,0,0-3.28,1.14,32.45,32.45,0,0,0-6.58,3.2c-.05,0-.1.05-.15.09a2.4,2.4,0,0,0-1,1.7c.15.64.56.41.9.28a9.23,9.23,0,0,0,2-.89,4.32,4.32,0,0,1,2.68-.92.44.44,0,0,0,.3-.08c2.46-2,4.69-2.17,7-2.74a7.4,7.4,0,0,1,4.49,0,.58.58,0,0,0,.41,0c1.79-.65,3.39.22,5.08.55,1.23.21,2.48.28,3.9.38C765.09,1168.34,764.76,1168.12,764.42,1168Zm-21.3-28.84a1.67,1.67,0,0,0-.21.46.37.37,0,0,0,0,.21,1.32,1.32,0,0,0,.66.21,2.63,2.63,0,0,1,1.62.24c.71.4,1.64-.11,2.41.14.49.16,1,.06,1.5.41.07,0,.27-.15.33-.35.18-.55,0-.7-.08-.74-.67-.2-1.32-.39-2-.56a5.74,5.74,0,0,0-.82-.1c-1,0-2.08-.06-3.11-.13A1.32,1.32,0,0,0,743.12,1139.12ZM782.74,1174a4.22,4.22,0,0,0,.52,1.19,25.33,25.33,0,0,1,2.77,3.72,3.53,3.53,0,0,0,.86.8c.11.07.27-.1.33-.29a1.09,1.09,0,0,0-.14-.82,7.14,7.14,0,0,0-.54-.76,30.05,30.05,0,0,1-3.22-4c-.16-.27-.35-.43-.52-.27A1.53,1.53,0,0,0,782.74,1174ZM755,1156.7a1.47,1.47,0,0,0-.07.52,3.17,3.17,0,0,0,.48.62,1.12,1.12,0,0,0,1.06.33c.39-.07.48,1.13.9,1.08.17,0,.33,0,.5,0s.09-.12.1-.19a2,2,0,0,0,0-.55,3,3,0,0,0-1-1.6c-.51-.34-1-.85-1.65-.62A2.93,2.93,0,0,0,755,1156.7Zm-3.72-9.16a1.54,1.54,0,0,0,.18-.51.81.81,0,0,0-.07-.43.25.25,0,0,0-.18-.18,2.81,2.81,0,0,1-1.54-.7c-.1-.08-.24,0-.33.32a3.43,3.43,0,0,0-.12.87c0,.89.26,1.28.62,1.3a2.22,2.22,0,0,0,.66-.21C750.77,1148.07,751,1148,751.26,1147.54Zm28.12,21.93a1.9,1.9,0,0,0,.06.55,23.29,23.29,0,0,1,1.62,2.57c.11.23.34.14.51.13s.15-.18.17-.33a1.59,1.59,0,0,0-.07-.56,6.54,6.54,0,0,0-2.16-2.6C779.43,1169.37,779.38,1169.41,779.38,1169.47Zm18,29.61a7.88,7.88,0,0,0-.88-.62c-.62-.38-.85-.19-1,.8a1.55,1.55,0,0,0,.3,1.36c.3.29.44,0,.53-.36.2-.79.76-.06,1.09-.32a1.35,1.35,0,0,0,.18-.38C797.52,1199.39,797.46,1199.15,797.37,1199.08Zm-60.51-33.55c.29-.14.57-.24.87-.42a1.41,1.41,0,0,0,.19-.5c0-.16,0-.41-.07-.4a2.34,2.34,0,0,0-2.15.91C735.9,1166,736.37,1165.78,736.86,1165.53Zm39.66,11.64c.27,1,1.22,2,1.61,1.71a.93.93,0,0,0,.08-.46c-.36-1.23-1-1.87-1.58-1.67A1.53,1.53,0,0,0,776.52,1177.17Zm-25.7-22.48a.58.58,0,0,0-.09.26c0,.17,0,.44,0,.47a6.67,6.67,0,0,0,1,.5c.12,0,.27-.09.36-.41a1.15,1.15,0,0,0,0-1c-.24-.37-.52-.56-1-.26C751.07,1154.35,750.94,1154.5,750.82,1154.69Zm-9.89,21.69a1.64,1.64,0,0,0,.22-.46.43.43,0,0,0,0-.22c-.22-.24-.52-.18-.69-.61-.31-.79-.51-.71-1,.16-.21.38-.26.91-.07,1,.41.12.83.2,1.18.29C740.73,1176.45,740.84,1176.47,740.93,1176.38Zm35.12-6.71c.43.53.88.5.81,0-.11-.77-.42-.81-.65-1.06s-.66-.57-1.21-1A4,4,0,0,0,776.05,1169.67ZM763.48,1163a1.06,1.06,0,0,0,0,.27.93.93,0,0,0,.19.32c.42.27.76,1.19,1.27.78.33-.27-.46-1.46-1.19-1.72-.07,0-.16.06-.24.09A2,2,0,0,0,763.48,1163Zm-30.85-12.26a1.19,1.19,0,0,0,.09-.49c-.08-.43-.45-.16-1,.68a2,2,0,0,0-.21.51,1.26,1.26,0,0,0,.09.42C732,1151.71,732.3,1151.5,732.63,1150.72Zm37.78,11.8a.28.28,0,0,0-.22.21c-.09.38,0,.51.15.62.34.3.69.62,1,.9,0,0,.07-.09.09-.17a3.13,3.13,0,0,0,0-.41C771.17,1163.06,770.84,1162.52,770.41,1162.52Zm-32-21.39a.57.57,0,0,0,.11-.22,1.26,1.26,0,0,0,.06-.45c-.17-.2-.43-.1-.75.23a1.71,1.71,0,0,0-.24.45.41.41,0,0,0,0,.31c.09,0,.2,0,.34,0S738.23,1141.28,738.4,1141.13Zm-4.34,7c-.17.05-.37.3-.48.74s-.09.83.13.78.36-.39.5-.81S734.28,1148.06,734.06,1148.12Zm15.25-5.1c-.18-.92-.19-.88-1.07-.77A1.15,1.15,0,0,0,749.31,1143Zm-1.41,3.37c-.12.49,0,.83.27.66a1,1,0,0,0,.3-.68c0-.45-.07-.61-.24-.57A.88.88,0,0,0,747.9,1146.39Zm-15.12,6.51a1,1,0,0,0-.12.25.66.66,0,0,0,0,.23c.34.06.71,0,1.19-.61a.93.93,0,0,0,.08-.28c0-.08,0-.18,0-.19s-.14,0-.26-.07Zm12.51-10.36s.13-.24.19-.38a.39.39,0,0,0,0-.19c-.25-.12-.48-.29-1,.32C744.74,1142.63,745,1142.51,745.29,1142.54Zm29.82,39.19a.86.86,0,0,0,.14.46,1.31,1.31,0,0,0,.54.14s.1-.11.09-.16a1.19,1.19,0,0,0-.09-.49,2.84,2.84,0,0,0-.48-.41C775.21,1181.48,775.11,1181.59,775.11,1181.73Zm-33.63-42.09a1.75,1.75,0,0,0-.2.47c0,.42.15.29.31.15a1.11,1.11,0,0,0,.35-.65C741.9,1139.22,741.69,1139.4,741.48,1139.64Zm3.22,13.56c.08-.38,0-.52-.14-.47a.59.59,0,0,0-.25.32c-.08.37,0,.5.15.47A.93.93,0,0,0,744.7,1153.2Zm-29.51,23.23c0-.08-.17-.1-.27,0a1.22,1.22,0,0,0-.3.44c-.08.22,0,.29.16.23A.77.77,0,0,0,715.19,1176.43Zm26.47-33.68a.36.36,0,0,0-.09-.28c-.07-.07-.17.07-.19.27a.66.66,0,0,0,.08.3C741.54,1143.09,741.63,1143,741.66,1142.75Zm-1.91-2.43-.23.29s0,.14,0,.22l.23-.28Zm43,36.34a.36.36,0,0,0-.1-.18c-.11-.08-.17,0-.13.25a1.28,1.28,0,0,0,.18.35A2.84,2.84,0,0,0,782.72,1176.66Zm4.8,6a.54.54,0,0,0,.25.31c.12.07.19-.1.13-.32s-.17-.23-.25-.35S787.46,1182.43,787.52,1182.66Zm-34.16-19.12c0-.22,0-.31-.11-.24a1,1,0,0,0-.09.18l.1.28A1,1,0,0,0,753.36,1163.54Zm27,10.77a1.19,1.19,0,0,0,0,.27s.1.06.12,0a1.29,1.29,0,0,0,0-.28S780.41,1174.27,780.39,1174.31Zm-6.15,6.62c-.11,0-.13.21,0,.38a.07.07,0,0,0,.12,0s0-.16,0-.25S774.26,1180.92,774.24,1180.93Zm-31.4-27.43-.11.11.06.11Zm29.33,18.59.05-.15h-.09Zm9.06,4a.58.58,0,0,0,.06-.17c0-.05,0-.11-.08-.17l-.06.16Zm2.23,2a.36.36,0,0,0,0,.21c.06.22.12.23.16,0a1.24,1.24,0,0,0,0-.23S783.49,1178,783.46,1178Zm-40.28-32.13a.32.32,0,0,0,.1-.13,1.07,1.07,0,0,0,0-.18l-.09.13Zm.9.49.1-.12,0-.11Zm-4.77,7.2s0-.07-.07,0c-.1.18-.1.27,0,.25Zm-9.8-.71,0,.05.05-.16Zm7.17-5.74-.06-.08,0,.22Z" transform="translate(-661.49 -1114.63)"></path><path class="cls-1" d="M706.8,1198.68c.28.47.65.27,1.1-.27s.53-.77.09-1.13c-.25-.2-.32-.48,0-.87.67-.91,1.36-1.75,2.15-1.54a3.19,3.19,0,0,0,2-.58,5.64,5.64,0,0,1,2-.57,5.63,5.63,0,0,0,2.12-.44,8.75,8.75,0,0,1,3.21-.72,9.82,9.82,0,0,0,1.48-.27,15.56,15.56,0,0,1,8.49-.15l.07-.06-.11.11c.42-.43.83-.69,1.2-.43a1.41,1.41,0,0,0,1.3.17,1.24,1.24,0,0,1,1.13.23,4.37,4.37,0,0,0,1.86.68,8.62,8.62,0,0,1,3.23,1.33,3.75,3.75,0,0,0,2.07.6,3.41,3.41,0,0,1,2.7,1.34c.56.66,1.24,1.48,2.1,1s1.49.34,2.23.56c.06,0,.12.34.09.51a.84.84,0,0,1-.23.46c-.4.3-.79.47-1.17.16a2.33,2.33,0,0,0-.92-.48c-.12,0-.32.24-.45.44a.93.93,0,0,0,0,.51c.29.53.57,1.21,1.1.93.79-.42,1.34.09,1.94.54a5.9,5.9,0,0,0,1.09.61c.08,0,.25-.14.3-.28a1,1,0,0,0,0-.55c-.31-.36-.65-.63-1-1a.94.94,0,0,1,0-.54.83.83,0,0,1,.25-.43c.17-.06.37-.11.49,0a2.8,2.8,0,0,0,2,1.06c.19,0,.22.41.12.73a2,2,0,0,1-.34.73c-.27.28-.43.56-.16.89a5.51,5.51,0,0,0,2.26,1.74c.52.19.75-.18.68-1.2,0-.44.23-.82.49-.79a2,2,0,0,1,1,.37c.56.39,1.09.94,1.67,1.29,1.79,1.07,3.69,1.78,5.21,4.07a2.19,2.19,0,0,0,.76.73c1.11.6,2,2.13,3.16,2.6.32.13.58.69.87,1s.47.79.74.86c1.13.26,1.65,1.6,2.1,3.15a2.58,2.58,0,0,0-.51-.28c-.11,0-.23.06-.33.14a.46.46,0,0,0,0,.27c.07.31.24.51.42.39s.26-.39.39-.59c1-.77,1.75,0,2.41,1.29-.4.65-.77-.16-1.11.16a.74.74,0,0,0-.27.38.79.79,0,0,0,.12.52,1.7,1.7,0,0,0,2,.47c.95-.36,1.75.29,2.4,1.48a.73.73,0,0,1-.12,1c-.23.17-.51.29-.38.86a1.05,1.05,0,0,0,.6.75,1,1,0,0,0,1-.11c.32-.16.7-.27.95.14.72,1.22,2.3,1.11,2.28,3.58,0,.27.36.63.59.85a21.74,21.74,0,0,0,1.66,1.41c1.07.81,2.21,1.46,3.27,2.39l5.15,4.65,4,3.55c1.12,1,1.94,2.59,3.28,3.36.95.55,1,.77.52,2.19a1.11,1.11,0,0,0,.47,1.5,6.76,6.76,0,0,0,.71.36l-.09,0c.38.45.8.84,1.31.57,1.16-.62,2,.14,2.92,1a9.5,9.5,0,0,1,.85,1.17l-.8.13c-.17,0-.4-.08-.48,0-.22.3,0,.53.22.72l.48-.16.49-.75c1.5.66,2.69,2.09,4.26,2.81,1.22.55,2.25,1.85,3.37,2.85a1.64,1.64,0,0,1,.45,2,1.34,1.34,0,0,1-1.56,1l-.83-.19c-.38-.07-.81-.14-.89.41a1.25,1.25,0,0,0,.27.84c.46.54,1,1,1.49,1.51A1,1,0,0,1,810,1262a1.77,1.77,0,0,1-1.34.38,13.17,13.17,0,0,1-6-1.77c-2-1.18-4-2.45-5.86-3.75-.94-.65-1.86-1.32-2.77-2s-1.75-1.44-2.59-2.2c-2.79-2.48-5.61-4.51-8.33-6.58-3.54-2.74-7-5.3-10.24-8a35.29,35.29,0,0,0-3.22-2.46,107.64,107.64,0,0,0-12.73-7.24c-2.81-1.28-5.6-1-8.49-.83-3.66,1.49-7.42,2.51-11.24,4.61a62.37,62.37,0,0,0-7,4.61c-2.33,1.76-4.65,3.69-7,5.78-1.69,1.51-3.4,3-5.2,4.34a36.26,36.26,0,0,1-5.61,3.59,73.54,73.54,0,0,0-8,4.51,17.76,17.76,0,0,1-11.31,3,12.31,12.31,0,0,1-4.51-1.11c-2.24-1.08-5-1-7.15-2.44a.56.56,0,0,0-.29-.06,9,9,0,0,1-5.65-2.23c-1.68-1.27-3.38-1.11-5.25-.58-.81.21-1.57.65-2.37.93a1.93,1.93,0,0,1-2.11-.38c-.69-.69-1.38-1.34-2-2.08a10.69,10.69,0,0,1-1.7-2.46c-1-2-.63-2.88,1.37-3.78a17,17,0,0,0,3.41-1.72c2-1.53,3.83-3.3,5.89-4.76a2.58,2.58,0,0,0,.95-1.59,1.42,1.42,0,0,1,1.08-1,6.92,6.92,0,0,0,3.61-2.16,9.31,9.31,0,0,1,2.08-1.26,30.69,30.69,0,0,0,3.35-2,46,46,0,0,1,8.74-5.24,40.57,40.57,0,0,0,3.79-2.56c1.27-.73,2.61-.68,3.85-1.68a13.35,13.35,0,0,1,4.42-2.15,28.37,28.37,0,0,0,2.94-1.31c2.11-1,4.21-2.12,6.17-2.25s4-1.21,5.84-.85c.34.06.82-.3,1.23-.57,1.23-.83,2.25-.23,3.38-.43.21,1.35.86.52,1.43.07a2,2,0,0,1,1.57-.3,21.79,21.79,0,0,1,3.43.61,11.48,11.48,0,0,0,3.46.42c1.61.82,3.44.65,5.1,1.18,1.17.39,2.44.33,3.53,1.17.6.47,1.29,1.55,2.21.15.06-.1.27-.09.35,0,.52.6,1.41-.07,1.77,1.1a.76.76,0,0,0,.81.57c1.67-.13,3.15.94,4.81,1a2.52,2.52,0,0,1,1.27.46c2.51,1.61,5.07,3.24,7.72,4.76,2.36,1.35,4.66,3.05,7.09,4.57,1.87,1.18,3.72,2.52,5.6,3.91l5.72,4.38c2.45,1.92,5,3.85,7.64,5.74l.41-.09c-.22-.37-.29.05-.44.13a2.74,2.74,0,0,0-.76-1.56l-1.72-1.65c-1.25-1.17-2.53-2.17-3.8-3.15s-2.52-1.92-3.75-2.9c-2-1.57-4-2.72-5.82-4.27-1.24-1.08-2.44-2.17-3.7-3.11-2.2-1.68-4.44-3-6.54-4.64a23.31,23.31,0,0,0-3.2-2c-1.08-.61-2.16-1.17-3.21-1.82-1.68-1-3.52-1.54-5.17-2.67a2.57,2.57,0,0,0-.52-.21c-1.66-.84-3.44-1.1-5.07-1.92-1.78-.85-3.7-.8-5.48-1.51a29.54,29.54,0,0,0-3.26-.54,23.59,23.59,0,0,0-4-.64c-1.36-.09-2.75-.11-4.14-.15-2.46,0-5.16,1.21-7.6.58a.94.94,0,0,0-.61.14c-1.73.85-3.4.34-5.22,1.58a.5.5,0,0,1-.41,0c-1.27-.38-2.68.6-4.07.93a5.24,5.24,0,0,0-2.77,2l.05,0c-.16-.4-.4-.74-.81-.54a14.37,14.37,0,0,0-3.87,2c-.36.31-.69.68-1.11.71-2.27.19-4.59,2-7,2.52a6.37,6.37,0,0,0-2.37,1.56,5.32,5.32,0,0,1-1.94,1.23c-.27.07-.53,0-.58-.31a.76.76,0,0,1,.36-.77c2.09-1.11,4.13-2.22,6.11-3.43a24,24,0,0,0,2.37-1.43c2.2-1.64,4.42-2.9,6.54-4.39a13.77,13.77,0,0,1,2.45-1.24,17.26,17.26,0,0,0,3.69-2.13c1.15-.9,2.46-.5,3.43-2.42.12-.24.52-.26.8-.37.69-.28,1,.39,1.58.55l-.07.07a3,3,0,0,1,.92-1c.65-.37,1.29.09,1.93-.92-.1-1.22-1.06-.7-1.48-1.28v0a3.52,3.52,0,0,1,3.41-2,16.21,16.21,0,0,1,3.06.37,2.37,2.37,0,0,0,2.41-1l-.06.06a9.48,9.48,0,0,1,1.07,0,12.68,12.68,0,0,0,2.94.45,13,13,0,0,1,6.32,1.06,3.84,3.84,0,0,0,1.82.53c.09,0,.14.23.21.35-.09.14-.18.37-.27.39-1.6.4-3-.28-4.56-.31h0c-.36-.79-.84-1.17-1.57-.8v.08l-.45.06,0-.09-.19.1a1.17,1.17,0,0,0-.68,1.09c0,.45.07.79.34.79.69,0,1.22.51,1.82.78s1.09.68,1.69.6a20.85,20.85,0,0,1,4.82.44,18.22,18.22,0,0,1,6.68,2,14.3,14.3,0,0,0,3.2,1.39,8.68,8.68,0,0,1,4.24,2.57,2,2,0,0,0,1.35.68,4.86,4.86,0,0,1,2.87,1.55c.69.62,1.39,1.18,2.1,1.73a.86.86,0,0,0,.55.09s.11-.11.13-.19,0-.25,0-.28a5.6,5.6,0,0,0-.56-.69,7,7,0,0,1-2.34-2.64c-.38-.92-.69-1.42-1.36-1.5a1.93,1.93,0,0,1-1.31-.77,1.63,1.63,0,0,0-1.8-.79c-.4.1-.77-.3-1.09-.76-.59-.85-1.24-1.56-1.84-2.35a2.43,2.43,0,0,0-.87-.8c-1.32-.59-2.6-1.27-3.87-2-.78-.44-1.49-1.16-2.45-.89a.76.76,0,0,1-.77-.4c-.53-.82-1.08-1.44-1.94-1.2-.21.06-.43-.16-.61-.33a1.62,1.62,0,0,0-1.66-.37,2.76,2.76,0,0,1-1.7-.24,3.47,3.47,0,0,0-1.16-.32,30.17,30.17,0,0,1-3.56-.66c-1.48-.18-2.87-.83-4.57-.06-.23.11-.59.15-.66-.07-.32-.9-1-.52-1.57-.61-1.69-.25-3.58.6-5.37.61a30.58,30.58,0,0,0-5.23.82,3.75,3.75,0,0,0-1.63.64c-1.62,1.17-2.87,1.07-3.78-.3-.48-.71-.77-.5-1.51.76-.56,1-.82,1.15-1.25.88-.27-.17-.49-.44-.75-.63a1.7,1.7,0,0,0-1.78-.1c-1.48.65-3,1.29-4.52,1.86h0a4.5,4.5,0,0,1,2.55-3,13.28,13.28,0,0,0,1.77-.79,1.8,1.8,0,0,1,2-.23,6.27,6.27,0,0,0,.89.33Zm60.26,15.67c0-.06-.09-.14-.14-.16s-.07,0-.11.07h.3ZM718.52,1195c-.17.15-.21.26-.08.31s.11-.08.15-.14.16-.32.24-.48c.09.07.18.23.27.18s.13-.17-.09-.09c0,0-.1,0-.15-.06A3,3,0,0,0,718.52,1195Zm-3.42.93c.08,0,.19-.24.29-.37-.07-.06-.15-.23-.22-.18a11,11,0,0,0-.93.68c-.25.21-.5.4-.74.64a1.4,1.4,0,0,0-.27.42c.1.23.32.1.47-.13a9.57,9.57,0,0,0,.52-1A5.26,5.26,0,0,0,715.1,1195.91Zm40.27,9c.09.4.22,0,.33,0a6.59,6.59,0,0,0,3,3.58c.78.58,1.68.65,2.31,1.87.18.35.66.25,1,.29.06,0,.16-.25.22-.41a.41.41,0,0,0,0-.27c-.41-.39-.81-.79-1.22-1.14-1.76-1.47-3.37-3.31-5.3-3.88ZM709,1220.11a39.14,39.14,0,0,1,4.34-1.55,37.74,37.74,0,0,1,4.2-1,5.35,5.35,0,0,0,1.06-.32,12.31,12.31,0,0,1,4.76-1,3.53,3.53,0,0,0,2-.38.92.92,0,0,0,.32-.44c.12-.4,0-.5-.26-.49-2,.2-3.83-.74-5.92,0-1.76.59-3.56,1-5.38,1.68a19.38,19.38,0,0,0-5.57,3,2.92,2.92,0,0,0-.31.45C708.44,1220.36,708.75,1220.24,709,1220.11Zm23.2-25.48a.39.39,0,0,0-.14.21,1.42,1.42,0,0,0-.05.56c.15.52.51.53.84.59a9.35,9.35,0,0,1,4,1.36c.46.32,1.11.09,1.68.07s1,.45,1.43-.68c-.15-.82-.6-.88-1-1-2.13-.4-4.25-.86-6.25-1.31C732.47,1194.55,732.36,1194.57,732.24,1194.63Zm49.34,36.74c-1.68-1.46-3.3-2.94-4.9-4.38a3,3,0,0,0-.95-.51c-.2-.09-.43,0-.51.32a1,1,0,0,0,.26,1.06c1.57.81,2.88,2.47,4.41,3.6.52.37,1,.84,1.6.8.11,0,.2-.24.3-.37C781.72,1231.71,781.68,1231.46,781.58,1231.37Zm7.18,6.14a2.45,2.45,0,0,0-.6-.92,19.14,19.14,0,0,1-3.09-2.58,2.27,2.27,0,0,0-1.66-.66c-.1,0-.21.22-.29.37a.6.6,0,0,0,.08.28.47.47,0,0,0,.16.22,27.22,27.22,0,0,1,4.47,3.61c.24.24.54.43.84.21C788.71,1237.86,788.81,1237.62,788.76,1237.51Zm-68-34.56a1,1,0,0,0-.34.39c-.11.21-.06.43.09.42,1.18-.09,2.3.46,3.62-1.14C723.08,1202.63,722,1202.34,720.81,1203Zm10.31,12.78c.34,0,.69.36,1.06-.28a.65.65,0,0,0,.05-.27c-.15-.75-.61-.29-1-.27l-1.06.1C730.5,1215.7,730.83,1215.68,731.12,1215.73ZM729.25,1195a.59.59,0,0,0-.11.27c0,.08,0,.2,0,.22.4.29,1.13,0,1.53-.73a.56.56,0,0,0,0-.29.77.77,0,0,0-.1-.23A2,2,0,0,0,729.25,1195Zm34.88,16.92c-.15-.65-.69-.91-1.07-.52a.45.45,0,0,0,0,.54c.3.51.63.67,1,.49C764,1212.23,764.16,1212,764.13,1211.89Zm-48.37-14.35c.13.06.29-.11.3-.31a.37.37,0,0,0-.18-.33,1,1,0,0,0-1.08.23C715,1197.78,715.46,1197.4,715.76,1197.54Zm14.29,5.62a1.16,1.16,0,0,0,.06-.49,1,1,0,0,0-.36-.41c-.15-.09-.36-.09-.48.24a.52.52,0,0,0,.15.64,2.34,2.34,0,0,0,.43.2C729.94,1203.26,730,1203.22,730.05,1203.16Zm36.86,16.11c-.07,0-.08.29-.11.45s.22.14.3.08.08-.3.11-.45S767,1219.21,766.91,1219.27Zm-24.58-21.5c0-.34-.12-.45-.28-.42a.45.45,0,0,0-.27.27c0,.35.11.42.27.42S742.32,1197.85,742.33,1197.77Zm-20.1-3.27s-.07.12-.1.19a.84.84,0,0,0,.26.07s.07-.12.11-.19A.9.9,0,0,0,722.23,1194.5ZM765,1213.2s.09,0,.14,0a.59.59,0,0,0,0-.25s-.09,0-.14,0A.6.6,0,0,0,765,1213.2ZM701.31,1221l-.13.21.19,0Zm90.77,19.69c0-.06-.1-.22-.12-.21-.2.1-.2.24,0,.4C792,1240.86,792.08,1240.8,792.08,1240.73Z" transform="translate(-661.49 -1114.63)"></path><path class="cls-1" d="M719.94,1182c0,.15.19,0,.28-.18a.47.47,0,0,0,0-.25c-.15-.14-.3-.26-.45-.38,1-1,1.91-1.73,2.47-.63l.06-.09c-.24.21-.48.4-.72.64a1.78,1.78,0,0,0-.52,1c-.06.46.16.59.39.51a12.66,12.66,0,0,1,3.69-.41,16.5,16.5,0,0,1,4.07.43,23.38,23.38,0,0,0,5,.5,2.23,2.23,0,0,1,1.07.15,5.48,5.48,0,0,0,2.87.58.83.83,0,0,1,.6.13c1.2,1,2.74.91,3.88,2.22a1.41,1.41,0,0,0,.88.36c1.85.34,3.45,1.66,5.19,2.6a15.9,15.9,0,0,1,3.24,2.23c.67.62,1.27,1.42,2.11,1.4.08,0,.21.19.22.35.07,1.37.64,1.69,1.23,1.79.76.14,1,1.34,1.36,2.19l0,.09c.27-.71.6-1.06,1-.82a8.43,8.43,0,0,1,1,.71c1,.9,2,1.77,3,2.73s2,2,3.05,3.06c1.48,1.61,3.1,2.95,4.64,4.64,1.25,1.37,2.52,2.74,3.84,4.09.45.47.45.58,0,1.7a4.93,4.93,0,0,0-.64-.51c-.06,0-.16.18-.25.29.08.12.16.36.24.35a2.68,2.68,0,0,0,.69-.2,2.33,2.33,0,0,0,.28,1.85c.27.38.52.81.78,1.22l0-.11c-.63.72-1.26.83-1.86-.19a3.65,3.65,0,0,0-.75-.94,60,60,0,0,1-6.22-5.73,2.42,2.42,0,0,0-.79-.67c-1.54-.58-2.71-2.31-4-3.57a5.69,5.69,0,0,0-.73-.74c-2.18-1.41-4.07-3.64-6.26-4.66-1.71-.77-3.11-2.57-4.8-3.26-.23-.1-.37-.61-.55-.92l0,.08a5.71,5.71,0,0,1-1.71-.72c-1.48-1.17-3.25-1.14-4.69-2.31-.17-.14-.44,0-.65-.07-2.4-.67-5.07-.26-7.27-1.8a1.91,1.91,0,0,0-.95-.23c-1-.06-2-.21-3-.34a21.73,21.73,0,0,0-3.05-.3c-.85,0-1.7,0-2.57.06a15.54,15.54,0,0,1-2.44.13c-1.41-.2-3,.3-4.49.51-1.18.16-2.43.85-3.65,1.15a52.81,52.81,0,0,1-5.61.89c-1,.12-2.09.72-3,.53l0,.07a3.17,3.17,0,0,1,1.2-1.1,19.9,19.9,0,0,1,5.6-2c2.05-.49,4-.82,6-1.31a3.53,3.53,0,0,0,.76-.44v-.06h.43l0,.07a10.7,10.7,0,0,0,5.91-1.35c-.32-.57-.78-.65-1.36-.26a2.92,2.92,0,0,1-2.09.39,6.21,6.21,0,0,0-2.76.14,11.29,11.29,0,0,1-2.73.51,11.42,11.42,0,0,0-5.73,1.75h0a4.25,4.25,0,0,1,2.77-2.58l-.06.07c.8-1,1.58-1.79,2.34-1.47a.51.51,0,0,0,.34,0,1.07,1.07,0,0,0,.64-.78c.08-.25.12-.7,0-.73-.57-.19-.31-.87,0-1.71a4,4,0,0,0,0-1.24v.07c1-2.09,1.62-2.62,2.64-2.34v-.06l-.15.25c-.4.78-1,1.66-.8,2.35s.84-.18,1.28-.31A6.13,6.13,0,0,0,719.94,1182Zm12.13,5.77c-.12-.64-.46-.81-.83-.84-1.06-.09-2.13-.14-3.21-.18a2.7,2.7,0,0,0-.72.25c.1.79.49.82.85.83,1.32,0,2.62,0,3.93-.06l.47-.3,0,.08Zm37.6,22.06-.28.23a3.18,3.18,0,0,0-1.55-3c-.07,0-.24.08-.29.22a.94.94,0,0,0,0,.55,6.91,6.91,0,0,0,1.86,2.19Zm-50-25.51a.81.81,0,0,0-.33.37c-.13.39,0,.46.21.42a2.16,2.16,0,0,0,1.27-.62C720.56,1183.81,720.09,1184.13,719.68,1184.29Zm39.74,14.88c-.06-.05-.23,0-.26.17a.9.9,0,0,0,0,.5,1.56,1.56,0,0,0,.56.42c.12,0,.17-.17.12-.54A6.11,6.11,0,0,0,759.42,1199.17Zm-1.14-.58c0-.12-.16-.15-.25-.18s-.1.19-.1.2a3.35,3.35,0,0,0,.18.38A.32.32,0,0,0,758.28,1198.59Zm3.51,3.4c.14,0,.18-.27.09-.46a.59.59,0,0,0-.25-.3c-.12,0-.2.13-.19.35S761.62,1202.06,761.79,1202Zm-13.25-11.51-.21.33a1.28,1.28,0,0,1,.07.16l.21-.33C748.59,1190.58,748.55,1190.47,748.54,1190.48Z" transform="translate(-661.49 -1114.63)"></path><path class="cls-1" d="M758.14,1127.35c-.8,1.28-1.44.85-2.09.71s-1.27-.77-1.93-1a11.33,11.33,0,0,0-2.37-.42c-.1,0-.28.28-.42.53a1.6,1.6,0,0,0-.16.8c0,.38.18.47.32.51,1,.22,2,.5,3,.7.09,0,.2,0,.28,0,1.62,1.5,3.58,1.53,5.27,3.35.55.58,1.2.7,1.79,1.2a14.23,14.23,0,0,1,2.58,2.84,2.8,2.8,0,0,0,.62.62s.14-.14.17-.28a1.63,1.63,0,0,0,0-.54,3.88,3.88,0,0,0-.89-1.44,2.85,2.85,0,0,1-.06-2,3.25,3.25,0,0,1,.52-1.09v0l.27-.41c.27-.43.35-1.13.15-1.27s-.32-1.13-.49-1.64a8.29,8.29,0,0,0-.22,1.8c-.11,1-.32,1.51-.59,1.52,0,0-.06,0-.09,0a13.23,13.23,0,0,1-1.12-.89c-.36-.34-.82.31-1.17-.32-.23-.41-.57-.34-.87-.44-.15,0-.32,0-.39-.43a1.88,1.88,0,0,1,.18-1.27v.07l.26-.84,0,.11c.1-.7.31-1.46-.08-1.48s-.59-1.22-1.07-1-.75-.49-1.12-.74a6.63,6.63,0,0,0-1.68-.6,1.75,1.75,0,0,1-.62-.42.85.85,0,0,0-1.08-.22,1.32,1.32,0,0,1-1.64-.47c-.37-.4-.82-.14-1.35.46a1.55,1.55,0,0,0-.31.56c-.13.56,0,.58.11.66a.7.7,0,0,0,.47.23c1.18-.16,2.16.71,3.34.7.22,0,.38.13.51.53.08.25.24.34.39.32.59-.08,1,.58,1.55,1,1.26.12,1.26.12,1.45,1.37-.35,0-.68,0-1,0S758.09,1128.36,758.14,1127.35Z" transform="translate(-661.49 -1114.63)"></path><path class="cls-1" d="M802.53,1177a4.78,4.78,0,0,0,1.31,2.57c.34.35.71.56,1,1a19.24,19.24,0,0,0,5.92,4.71.79.79,0,0,1,.42.71c-.83,0-1.8-.5-2.55-.25a2.8,2.8,0,0,0-.56-.3c-.07,0-.1.17-.15.26.11.09.26.27.33.25s.25-.19.37-.3a3.51,3.51,0,0,0,1.23,1.46,6.7,6.7,0,0,1,1.51,1.47,1.51,1.51,0,0,1,.44,1,.62.62,0,0,1-.32.41c-.46.3-1.35-.78-1.61.12l1.19,2.82c.08.2.16.39.25.57a3.51,3.51,0,0,1,.48,2.74,2,2,0,0,0,.53,1.62v-.07c-.7.36-1.55-.13-2.34-.44s-1.14-.29-1.44.45c-.19.47-.58.43-1,.12s-1-.65-1.57-1.05a1.56,1.56,0,0,1-.39-.72c.21-1.21-.59-2.37-.82-3.54-.31-1.51,0-2.54.78-2.52.45,0,.86.59,1.27,1.08l-.16,0,.12,0a3,3,0,0,0,0-1.85,12.92,12.92,0,0,1-1.23-4,1.84,1.84,0,0,0-.42-.75,4.87,4.87,0,0,1-1.26-2.26,4.57,4.57,0,0,0-1.33-2.19,3,3,0,0,1-1-2,2.62,2.62,0,0,0-.23-.57c-.46-.89-.55-1.5-.26-1.93a.88.88,0,0,0-.2-1,5.11,5.11,0,0,1-1.31-2.09,1.49,1.49,0,0,0-.59-.81c-.35-.22-.69-.41-1-.61h0c.22-.29.42-.6.65-.86s.48-.13.82.33a13.69,13.69,0,0,1,2.62,4.88c.13.49.3,1,.45,1.49Zm4.32,9.87s-.11,0-.12,0a.93.93,0,0,0,.06.24l.13,0Z" transform="translate(-661.49 -1114.63)"></path><path class="cls-1" d="M801.13,1169.44a6.26,6.26,0,0,0,1.81,3.74,1.87,1.87,0,0,1,.7,1.63v-.09a5.12,5.12,0,0,0,1.36,1.54c.27-.19,0-.75-.15-1.2-.48-1.69-1.52-3.17-2.1-4.85a4.78,4.78,0,0,0-.8-1.17c-.61-.8-1.22-1.54-1.81-2.36-.74-1-.89-1.69-.52-2.09.08-.09.18-.12.25-.23a1.37,1.37,0,0,0-.3-1,13.25,13.25,0,0,0-1-1.07,55.94,55.94,0,0,1-4.46-5.23,6.47,6.47,0,0,1-.7-1.11,26.94,26.94,0,0,0-2.35-3.62c-.66-.87-1.35-2.14-2-3.1-1.68-2.47-3.15-5.32-4.57-7.79l-1-1.79c-.34-.58-.67-1.16-1-1.73-.65-1.14-1.22-2.22-1.86-3.36l-2.6-4.86a2.46,2.46,0,0,0-.37-.56s-.06.13-.06.28a2.86,2.86,0,0,0,.09.55,2.38,2.38,0,0,0,.15.41,22.35,22.35,0,0,0,1.38,2.85,36.18,36.18,0,0,1,2.41,4.61,2.6,2.6,0,0,0,.26.55,40.27,40.27,0,0,1,2.24,3.75c.42.69.89,1.58,1.38,2.49a25.15,25.15,0,0,0,1.7,2.83,19.42,19.42,0,0,1,1.54,2.58,4.36,4.36,0,0,0,.7,1.14,8,8,0,0,1,1.3,2.37h0c.37.29.84,1.19,1.27,1.58s.78,1.81,1.22,2.2a16.24,16.24,0,0,0,2.64,4.22,62.33,62.33,0,0,1,5.2,8Z" transform="translate(-661.49 -1114.63)"></path><path class="cls-1" d="M731.05,1137.92c.33-.32.65-.63,1-1a11,11,0,0,1,.84-.94,43.53,43.53,0,0,0,3.54-3.53,21.39,21.39,0,0,1,3.22-2.54c.78-.48,1.55-1.08,2.33-1.65a11.61,11.61,0,0,1,2.23-1.36c.82-.33,1.6-.77,2.39-1a14,14,0,0,0,3-1.64,6.52,6.52,0,0,0,.8-1,1,1,0,0,0-1.28-.35,1.34,1.34,0,0,1-.93.09c-.39-.17-.93.2-1.48.66-.31.26-.64.58-.83.4-.34-.35-.91.15-1.51.89a3.13,3.13,0,0,1-.62.53c-.38.27-.51,0-.41-.85.18-1.72.2-1.69-.91-.33.12,0,.21,0,.29.06s.13.3-.06.88a2.79,2.79,0,0,1-.61,1.1,1.31,1.31,0,0,1-.5.39,3.36,3.36,0,0,0-1.31,1.15c-.17.21-.36.46-.46.47-.85.12-2.34,2-3.54,3.14-.64.6-1.53,1.72-2.28,2.61a9.81,9.81,0,0,1-1.4,1.41c-.56.42-.64.58-1.51,2.4Z" transform="translate(-661.49 -1114.63)"></path><path class="cls-1" d="M784.74,1160.15a22.41,22.41,0,0,1-1.44-3c-.22-.65-.51-.83-.77-.84h0l.06,0A2.72,2.72,0,0,0,782,1155c-.42-.44-.77-.28-1.15-.41-.2-.06-.53-.15-.55-1.3,0-.52-.2-.69-.34-.73a1.46,1.46,0,0,0-.51,0c-.13,0-.28.21-.38,0-.44-.82-.72-.51-1.05-.08-.11.14-.28,0-.42-.08l0-.1-.12.89,0-.07a3.94,3.94,0,0,0,.74,1.58c.35.43.68,1,1,1.51h0c.89,1.2,1.85,2.42,2.78,3.57.53.66,1.08,1.32,1.64,2,.36.4.63.37.74-.42.07-.48.18-.87.27-1.29Z" transform="translate(-661.49 -1114.63)"></path><path class="cls-1" d="M778.69,1156.87c-.11.57-.27,1.16-.59.69-.48-.7-1-.62-1.44-2-.31-1-.77-1.31-1.22-.78a2.24,2.24,0,0,1-.83.49l0-.08a2.09,2.09,0,0,0,.34,1.24,16.12,16.12,0,0,1,3.46,4.68c.1.19.24.37.34.38.87,0,1.53,1.39,2.22,3,.38.91.68,1,1.11.32.11-.17,0-.52-.14-.74,0,0-.08,0-.1,0s-.13.09-.07,0,.13,0,.2,0a4.18,4.18,0,0,1-.45-1.31c-.15-.94-.72-1.17-.71-2.35-.32-.47-.58.09-.89-.23s-.83-.56-1.24-.08c-.1-1.3.16-2.14,0-3.23Z" transform="translate(-661.49 -1114.63)"></path><path class="cls-1" d="M790.62,1175.49a31.09,31.09,0,0,1-3.41-4.14c-1-1.48-1.86-2.71-2.77-4.14-.36-.58-.73-1.13-1.12-1.26-.07,0-.16,0-.2.17a1.12,1.12,0,0,0,.07.8,6.11,6.11,0,0,0,.81,1.47c.77.69,1.48,2.46,2.31,2.79a2,2,0,0,1,.61,1,4.28,4.28,0,0,0,1.4,2.08c.47.4.95.88,1.42,1.33s.65.27.88-.11Z" transform="translate(-661.49 -1114.63)"></path><path class="cls-1" d="M787.91,1165.35c0,1.8,0,2-.69,1.06-.76-1.08-1.49-2.27-2.18-3.46a2.47,2.47,0,0,1-.2-.84c-.05-.7-.06-1.38-.09-2.06v.1c.57-.15,1.14,1,1.74,1.86a4.74,4.74,0,0,1,.85,2.51c.09.88.15.91.62.85Zm-2-2.08c.07.21.15.26.2.13a.79.79,0,0,0,0-.26c0-.24-.11-.36-.19-.33S785.82,1163.05,785.89,1163.27Z" transform="translate(-661.49 -1114.63)"></path><path class="cls-1" d="M774.64,1216.23a2.25,2.25,0,0,0,.5,2.15c1.17.92,2.13,2.38,3.27,3.47.66.62,1.32,1,2.06.67l0,.11a4.81,4.81,0,0,0-.64-1.18,20.55,20.55,0,0,1-2.85-3.32c-.71-.94-1.44-1.74-2.37-1.79Z" transform="translate(-661.49 -1114.63)"></path><path class="cls-1" d="M713.77,1183.69a3.66,3.66,0,0,1,1.35-2.17,3.64,3.64,0,0,0,.57-.44,2.05,2.05,0,0,0,.75-1.48c0-.61-.34-.77-.84-.41a3.89,3.89,0,0,0-1.85,2.24,6.61,6.61,0,0,1-.81,1.25c-.39.64-.35,1,.12,1.11a2.56,2.56,0,0,0,.71-.09Z" transform="translate(-661.49 -1114.63)"></path><path class="cls-1" d="M772.84,1151c.07.58,0,1.41.29,1.62a4.26,4.26,0,0,1,1.09,2.23c.06.24.27.21.42.32l0,.08c.1-.38.22-.73.31-1.15a1.8,1.8,0,0,0-.16-1.31c-.64-.93-1.24-1.76-1.94-1.68Z" transform="translate(-661.49 -1114.63)"></path><path class="cls-1" d="M749.47,1133.74c.41-1,.77-1.15,1.11-1.25a4.76,4.76,0,0,0,.84-.31,2.24,2.24,0,0,0,.19-.49.54.54,0,0,0,0-.25c-.43-.34-.81-.85-1.34-.71s-.73,1.07-.81,2.25c0,.27,0,.5,0,.75Z" transform="translate(-661.49 -1114.63)"></path><path class="cls-1" d="M779.43,1149.55a13.15,13.15,0,0,0-1.81-3.89c-.09-.15-.18,0-.2.3a2.13,2.13,0,0,0,.05.57l.6,2,0-.07c.46.14,1,1.22,1.41,1Z" transform="translate(-661.49 -1114.63)"></path><path class="cls-1" d="M717.77,1202.79c-.27-.57-.64-.9-1.22-.73s-1.41,0-2.19.57a1.2,1.2,0,0,0-.53,1c0,.42.24.58.52.48a6.53,6.53,0,0,0,1-.57,4.5,4.5,0,0,1,2.4-.78Z" transform="translate(-661.49 -1114.63)"></path><path class="cls-1" d="M772.23,1140.15a3.83,3.83,0,0,0,0-.56,3.67,3.67,0,0,0-.8-2.07c-.15-.14-.28.3-.34.8,0,.3,0,.78.08.75.34-.14.59.5.85,1.12C772.09,1140.28,772.17,1140.17,772.23,1140.15Z" transform="translate(-661.49 -1114.63)"></path><path class="cls-1" d="M762.16,1128.56a2.73,2.73,0,0,1,1,1.47c.05.18.18.1.25-.23a2.93,2.93,0,0,0,0-.59c0-.74-.17-1.17-.39-1.24S762.48,1128,762.16,1128.56Z" transform="translate(-661.49 -1114.63)"></path><path class="cls-1" d="M725.36,1150.36c0,.2-.1.56,0,.57.43,0,1-.31,1.72-1.36a1.86,1.86,0,0,0,.24-.54c.08-.3,0-.38-.18-.22-.37.36-.74.79-1.12,1.21s-.54.56-.64.35Z" transform="translate(-661.49 -1114.63)"></path><path class="cls-1" d="M777.62,1152.41c0-.29,0-.57,0-.86s-.09-.82-.17-.68c-.46.91-1-.68-1.5-.42v-.08a5.37,5.37,0,0,0,1.54,2.76l0,.07.12-.89Z" transform="translate(-661.49 -1114.63)"></path><path class="cls-1" d="M788.42,1156.92a5.22,5.22,0,0,0-1.11-1.52c-.07-.06-.16-.06-.17,0a1.32,1.32,0,0,0,.21.77c.35.52.68,1,1,1.41,0,.07.13,0,.13-.14A4.46,4.46,0,0,0,788.42,1156.92Z" transform="translate(-661.49 -1114.63)"></path><path class="cls-1" d="M780.47,1222.52c.45,2.13,1.66,2.79,2.83,3.55l0,.07,0-2.06.07.07a14.41,14.41,0,0,1-1.51-1,1.75,1.75,0,0,0-1.34-.54Z" transform="translate(-661.49 -1114.63)"></path><path class="cls-1" d="M772.82,1151.1c0-.4,0-.79,0-1.19,0-.56-.13-1-.34-.84a4.47,4.47,0,0,0-.66.65v-.1c.38,1.76.39,1.76,1,1.37Z" transform="translate(-661.49 -1114.63)"></path><path class="cls-1" d="M774.61,1158.39a2.16,2.16,0,0,0,0-.3,2.55,2.55,0,0,0-.8-1.26s-.14.15-.17.3a1.74,1.74,0,0,0,0,.56c.24.84.56,1.1.92.93C774.57,1158.61,774.59,1158.47,774.61,1158.39Z" transform="translate(-661.49 -1114.63)"></path><path class="cls-1" d="M768.25,1139.64a4.31,4.31,0,0,0-.11.83c.15.91.37,1.61.73,1.69,0,0,.13-.13.16-.27a1.42,1.42,0,0,0,0-.51l-.79-1.66Z" transform="translate(-661.49 -1114.63)"></path><path class="cls-1" d="M682,1225.76a2.94,2.94,0,0,0-2.91,1.53s0,.23.11.24c1.3.17,2.07-.77,2.77-1.86Z" transform="translate(-661.49 -1114.63)"></path><path class="cls-1" d="M711.59,1172.16a3.05,3.05,0,0,1,1.4-.66c.07,0,.21-.27.31-.43a.3.3,0,0,0,0-.21c-.36-.44-.89-.23-1.61.64a1.89,1.89,0,0,0-.18.51C711.5,1172.07,711.56,1172.11,711.59,1172.16Z" transform="translate(-661.49 -1114.63)"></path><path class="cls-1" d="M773.92,1145.13c-.08-.65-.23-.64-.39-.56s-.27.47-.22,1,.24.64.4.59S774,1145.73,773.92,1145.13Z" transform="translate(-661.49 -1114.63)"></path><path class="cls-1" d="M720.46,1161.68a3.7,3.7,0,0,0-1.5,1.15,1.36,1.36,0,0,0-.23.52c-.05.28.06.4.24.23A7.06,7.06,0,0,0,720.46,1161.68Z" transform="translate(-661.49 -1114.63)"></path><path class="cls-1" d="M769.89,1139.67a1.12,1.12,0,0,0-.06.23,2.79,2.79,0,0,0,0,.55c.17.54.38.7.6.44a1,1,0,0,0,.12-.42,1.48,1.48,0,0,0-.08-.47C770.28,1139.61,770.07,1139.52,769.89,1139.67Z" transform="translate(-661.49 -1114.63)"></path><path class="cls-1" d="M751.38,1123.41c0-.37,0-.52-.19-.38a1.82,1.82,0,0,0-.35,1c-.07.46,0,.62.17.42A1.84,1.84,0,0,0,751.38,1123.41Z" transform="translate(-661.49 -1114.63)"></path><path class="cls-1" d="M776.47,1144.58c-.11-.6-.36-1-.51-.69a1.36,1.36,0,0,0,0,.79c.11.45.22,1,.42.86S776.53,1145.08,776.47,1144.58Z" transform="translate(-661.49 -1114.63)"></path><path class="cls-1" d="M767.25,1139.26c-.07-.77-.26-1-.5-1s-.2.14-.2.48a1.26,1.26,0,0,0,.14.63,1.16,1.16,0,0,0,.57-.09Z" transform="translate(-661.49 -1114.63)"></path><path class="cls-1" d="M769.09,1135.62a1,1,0,0,0-.13.7c0,.47.16.55.29.42a1,1,0,0,0,.12-.68C769.33,1135.62,769.21,1135.56,769.09,1135.62Z" transform="translate(-661.49 -1114.63)"></path><path class="cls-1" d="M802.53,1177c.72.54,1.46,1.08,2.22,1.61v.1c-.84-1.38-1.61-2.3-2.24-1.65Z" transform="translate(-661.49 -1114.63)"></path><path class="cls-1" d="M805.44,1204.64c-.25,0-.61,0-.5.53a10.07,10.07,0,0,0,.67,1.69s.13,0,.18,0a.25.25,0,0,0,.11-.19,8.93,8.93,0,0,0-.54-2.09Z" transform="translate(-661.49 -1114.63)"></path><path class="cls-1" d="M746.58,1121.31a1,1,0,0,0-.41-.12c-.13,0-.46.62-.42.71s.11.13.19.1.39-.3.64-.76Z" transform="translate(-661.49 -1114.63)"></path><path class="cls-1" d="M790.62,1175.44a3.62,3.62,0,0,0,.8,2c.12.1.25,0,.37,0s0-.14,0-.23c0-.35-.16-.62-.31-.63-.33,0-.64-.19-.89-1Z" transform="translate(-661.49 -1114.63)"></path><path class="cls-1" d="M757.3,1142.36a4.33,4.33,0,0,0-.1-.71c-.09-.29-.18-.7-.41-.29a1.49,1.49,0,0,0-.11.52c0,.54.11.8.31.75s.22-.2.33-.32Z" transform="translate(-661.49 -1114.63)"></path><path class="cls-1" d="M767.67,1128.7s.08-.11.07-.14a2.69,2.69,0,0,0,0-.52.4.4,0,0,0-.15-.25c-.08-.06-.19,0-.22.34s.08.45.16.51Z" transform="translate(-661.49 -1114.63)"></path><path class="cls-1" d="M797.05,1189.66c-.88-1.58-1.06-1.55-1.28.2l0-.08,1.33-.23Z" transform="translate(-661.49 -1114.63)"></path><path class="cls-1" d="M804,1194.43a.69.69,0,0,0,.1.74c.15.26.35.41.5.3a.58.58,0,0,0,.05-.7C804.39,1194.34,804.16,1194.27,804,1194.43Z" transform="translate(-661.49 -1114.63)"></path><path class="cls-1" d="M684.19,1225.19c.64-1.06,1.84-1.29,2.48-2.33l.06,0a3.24,3.24,0,0,0-2.48,2.31Z" transform="translate(-661.49 -1114.63)"></path><path class="cls-1" d="M773.49,1141.26a4.71,4.71,0,0,0-.13-.48c-.1-.3-.23-.45-.3-.06a1.66,1.66,0,0,0,.14,1,2.48,2.48,0,0,0,.17.29v.09l.13-.89Z" transform="translate(-661.49 -1114.63)"></path><path class="cls-1" d="M772.72,1145.33c0-.24-.07-.4-.13-.32a1.23,1.23,0,0,0-.24.46,2.15,2.15,0,0,0,0,.51s.07.08.09.06S772.69,1145.78,772.72,1145.33Z" transform="translate(-661.49 -1114.63)"></path><path class="cls-1" d="M793.19,1171.41c-.09-.16-.18-.22-.21,0a1.62,1.62,0,0,0,0,.53c0,.13.2.31.24.28S793.33,1171.77,793.19,1171.41Z" transform="translate(-661.49 -1114.63)"></path><path class="cls-1" d="M705.11,1207.94c-.11-.15-.16-.35-.25-.33a.77.77,0,0,0-.47.62c-.06.23,0,.39.19.28A3.71,3.71,0,0,0,705.11,1207.94Z" transform="translate(-661.49 -1114.63)"></path><path class="cls-1" d="M752.56,1201.23c-.09.09-.24.16-.26.29-.08.33,0,.57.2.52s.18-.27.2-.42S752.61,1201.36,752.56,1201.23Z" transform="translate(-661.49 -1114.63)"></path><path class="cls-1" d="M775.75,1160.41a1.41,1.41,0,0,0,.08-.39c0-.16-.11-.32-.18-.34s-.15.15-.15.24C775.51,1160.27,775.62,1160.39,775.75,1160.41Z" transform="translate(-661.49 -1114.63)"></path><path class="cls-1" d="M772.8,1156.53l.15-.31c-.05-.12-.1-.32-.16-.36s-.23,0-.18.42C772.62,1156.39,772.73,1156.45,772.8,1156.53Z" transform="translate(-661.49 -1114.63)"></path><path class="cls-1" d="M728.36,1160.93l.78-.78c.13-.14.35-.3.28-.57,0-.11-.25,0-.39.15a3.17,3.17,0,0,0-.65,1.23Z" transform="translate(-661.49 -1114.63)"></path><path class="cls-1" d="M773.37,1142l.54.57h0c0-1.17,0-1.17-.41-1.28v-.09l-.13.89Z" transform="translate(-661.49 -1114.63)"></path><path class="cls-1" d="M725.36,1150.37c-.29.18-.57.33-.87.55a1.69,1.69,0,0,0-.32.43c-.16.26,0,.35.19.1s.67-.72,1-1.09Z" transform="translate(-661.49 -1114.63)"></path><path class="cls-1" d="M742.25,1133.51l.31-1.1a1.39,1.39,0,0,0,.05-.23.32.32,0,0,0-.18.15c-.21.53-.43,1.06-.65,1.6h0l.51-.49Z" transform="translate(-661.49 -1114.63)"></path><path class="cls-1" d="M748.08,1127.52c0-.25-.11-.2-.23,0a.87.87,0,0,0-.16.49c0,.25.09.26.22,0A4.09,4.09,0,0,0,748.08,1127.52Z" transform="translate(-661.49 -1114.63)"></path><path class="cls-1" d="M754.36,1115.05c-.08.07-.16,0-.23.4a.14.14,0,0,0,.15.16,1.93,1.93,0,0,0,.16-.38Z" transform="translate(-661.49 -1114.63)"></path><path class="cls-1" d="M761.27,1128.12c.07.31.15.84.32.11.11-.45,0-.68-.11-.79l0-.08-.27.86Z" transform="translate(-661.49 -1114.63)"></path><path class="cls-1" d="M798.57,1246.52a3.93,3.93,0,0,0,.59-.47.69.69,0,0,0,.13-.51c0-.11-.24-.28-.32-.25a.5.5,0,0,0-.29.38,5.39,5.39,0,0,0,0,.9Z" transform="translate(-661.49 -1114.63)"></path><path class="cls-1" d="M752.86,1115.27c-.07,0-.14.17-.14.29s.07.1.12,0a1.06,1.06,0,0,0,.14-.3Z" transform="translate(-661.49 -1114.63)"></path><path class="cls-1" d="M760.68,1128.45l.59-.33,0,.1.27-.86,0,.08c-.22-.66-.52.32-.79.45l0-.11,0,.73Z" transform="translate(-661.49 -1114.63)"></path><path class="cls-1" d="M757.54,1115.6l.44-.6a1.3,1.3,0,0,0,0-.26c0-.06,0-.12,0-.11s-.29.49-.42,1Z" transform="translate(-661.49 -1114.63)"></path><path class="cls-1" d="M758,1143.09c-.09-.93-.33-1.15-.72-.73l0,0c.23.27.41.81.73.69Z" transform="translate(-661.49 -1114.63)"></path><path class="cls-1" d="M775.19,1134.47l-.14-.13v.27a1,1,0,0,0,.15.14Z" transform="translate(-661.49 -1114.63)"></path><path class="cls-1" d="M778.4,1136.62c0,.24.08.38.13.37a.29.29,0,0,0,0-.19c0-.24-.07-.38-.13-.36S778.41,1136.56,778.4,1136.62Z" transform="translate(-661.49 -1114.63)"></path><path class="cls-1" d="M774.84,1148.59c-.08.06-.1.22-.06.45,0,.07.07.12.1.1s.1-.22,0-.45C774.92,1148.63,774.87,1148.62,774.84,1148.59Z" transform="translate(-661.49 -1114.63)"></path><path class="cls-1" d="M778.82,1164.87a3.1,3.1,0,0,0-.31-1.39s-.08-.07-.11,0a.56.56,0,0,0,0,.22c.15.41.3.81.46,1.2Z" transform="translate(-661.49 -1114.63)"></path><path class="cls-1" d="M780.5,1166.48l-.11.32a1.14,1.14,0,0,0,.2.23s0-.09.06-.17S780.6,1166.5,780.5,1166.48Z" transform="translate(-661.49 -1114.63)"></path><path class="cls-1" d="M789.65,1166.9l-.17.08c.06.15.11.3.17.43s.08,0,.09-.05A.51.51,0,0,0,789.65,1166.9Z" transform="translate(-661.49 -1114.63)"></path><path class="cls-1" d="M796,1167.92a3.17,3.17,0,0,0-.21-.27,1.09,1.09,0,0,0,0,.17,3.2,3.2,0,0,0,.22.27A.63.63,0,0,0,796,1167.92Z" transform="translate(-661.49 -1114.63)"></path><path class="cls-1" d="M802.33,1173.55c-.14-.13-.21-.12-.2.08a1.81,1.81,0,0,0,.1.25,1.29,1.29,0,0,0,.21-.06Z" transform="translate(-661.49 -1114.63)"></path><path class="cls-1" d="M682,1225.67c.75,0,1.47-.69,2.23-.49l.07,0a1.86,1.86,0,0,0-2.27.55Z" transform="translate(-661.49 -1114.63)"></path><path class="cls-1" d="M664.43,1238.14l-.1-.21a1.43,1.43,0,0,0-.47.26c-.17.21-.08.39.16.32S664.3,1238.27,664.43,1238.14Z" transform="translate(-661.49 -1114.63)"></path><path class="cls-1" d="M739.67,1134.81c0-.06,0-.19,0-.18a.9.9,0,0,0-.2.14c0,.06,0,.18,0,.18A1.86,1.86,0,0,0,739.67,1134.81Z" transform="translate(-661.49 -1114.63)"></path><path class="cls-1" d="M732.52,1138.31s.06,0,.09-.06.1-.23,0-.17a1.56,1.56,0,0,0-.11.12Z" transform="translate(-661.49 -1114.63)"></path><path class="cls-1" d="M751.51,1133.83a.72.72,0,0,0-.11.19c0,.26,0,.33.1.17s0-.18.08-.27Z" transform="translate(-661.49 -1114.63)"></path><path class="cls-1" d="M750.36,1134.62c0-.07,0-.21,0-.22a.45.45,0,0,0-.16,0,1.19,1.19,0,0,0,0,.22A.32.32,0,0,0,750.36,1134.62Z" transform="translate(-661.49 -1114.63)"></path><path class="cls-1" d="M765.49,1135.1a3.25,3.25,0,0,0,.27.26s.08,0,.09,0c0-.21,0-.33-.09-.29a3.09,3.09,0,0,0-.29.17Z" transform="translate(-661.49 -1114.63)"></path><path class="cls-1" d="M774.11,1133s-.05-.07-.07-.07-.08.13,0,.27,0,0,.07,0S774.1,1133.06,774.11,1133Z" transform="translate(-661.49 -1114.63)"></path><path class="cls-1" d="M718,1156.46c.08,0,.19-.07.3-.3,0-.07.06-.18,0-.19s-.19.07-.3.29A.51.51,0,0,0,718,1156.46Z" transform="translate(-661.49 -1114.63)"></path><polygon class="cls-1" points="103.52 31.74 103.52 31.98 103.59 31.84 103.52 31.74"></polygon><path class="cls-1" d="M770,1148.29a1.44,1.44,0,0,0,0-.24c-.06-.13-.11-.07-.14.15a.85.85,0,0,0,0,.23C769.86,1148.56,769.91,1148.5,770,1148.29Z" transform="translate(-661.49 -1114.63)"></path><path class="cls-1" d="M771.85,1149.72c-.05-.16-.08-.33-.13-.48s-.07-.14-.08-.11a.3.3,0,0,0,0,.36.72.72,0,0,0,.19.13Z" transform="translate(-661.49 -1114.63)"></path><path class="cls-1" d="M776.63,1148.82l0-.53s-.08,0-.08,0l0,.52Z" transform="translate(-661.49 -1114.63)"></path><path class="cls-1" d="M726.7,1170.36s.11,0,.15-.08c.16-.21.18-.35,0-.36s-.12.11-.16.18A1,1,0,0,0,726.7,1170.36Z" transform="translate(-661.49 -1114.63)"></path><polygon class="cls-1" points="122.92 36.72 122.92 36.92 122.99 36.94 122.92 36.72"></polygon><path class="cls-1" d="M721.18,1178.48a2.51,2.51,0,0,0,.5-.28,2.21,2.21,0,0,0,.22-.46c-.1,0-.2,0-.28.1s-.31.47-.46.71Z" transform="translate(-661.49 -1114.63)"></path><path class="cls-1" d="M779.61,1164.45a8,8,0,0,0,0,.85c0,.25.1.33.16.2a.59.59,0,0,0,0-.26c-.07-.27-.13-.53-.2-.79Z" transform="translate(-661.49 -1114.63)"></path><path class="cls-1" d="M755.36,1114.91l-.11-.06a1.54,1.54,0,0,0,0,.26.18.18,0,0,0,.1.06Z" transform="translate(-661.49 -1114.63)"></path><polygon class="cls-1" points="131.55 64.58 131.68 64.71 131.63 64.47 131.55 64.58"></polygon><path class="cls-1" d="M747.28,1121a1.51,1.51,0,0,0-.2.31c-.12.29-.15.51-.06.51a1.64,1.64,0,0,0,.17-.4,3.86,3.86,0,0,0,.09-.49Z" transform="translate(-661.49 -1114.63)"></path><path class="cls-1" d="M802.63,1184.89a.89.89,0,0,0-.07-.26c0-.07-.12-.14-.15-.13s-.09.23.08.39S802.58,1184.89,802.63,1184.89Z" transform="translate(-661.49 -1114.63)"></path><path class="cls-1" d="M765.47,1135.19c0-.26,0-.54-.07-.77s-.1-.24-.13-.19a.45.45,0,0,0,0,.39,4.34,4.34,0,0,1,.2.48Z" transform="translate(-661.49 -1114.63)"></path><path class="cls-1" d="M777,1137.31s-.06-.1-.07-.08,0,.11,0,.17,0,.11.07.09S777,1137.37,777,1137.31Z" transform="translate(-661.49 -1114.63)"></path><path class="cls-1" d="M770.06,1142.89l-.06-.22a.55.55,0,0,0-.06.18.68.68,0,0,0,0,.22Z" transform="translate(-661.49 -1114.63)"></path><path class="cls-1" d="M777.2,1138.32a1.09,1.09,0,0,0,0,.22s0,0,.06-.06a1.44,1.44,0,0,0,0-.23S777.22,1138.29,777.2,1138.32Z" transform="translate(-661.49 -1114.63)"></path><path class="cls-1" d="M727.19,1161.06c.27.36.76,0,1.17-.14l0,0c-.28-.31-.77.07-1.17.12Z" transform="translate(-661.49 -1114.63)"></path><path class="cls-1" d="M775.83,1148.11l0-.21s-.06-.12-.08-.11a.78.78,0,0,0,0,.21Z" transform="translate(-661.49 -1114.63)"></path><polygon class="cls-1" points="85.72 16.48 85.71 16.65 85.79 16.51 85.72 16.48"></polygon><path class="cls-1" d="M777.84,1149.08l-.23-.37a1.07,1.07,0,0,0,.06.17l.18.15Z" transform="translate(-661.49 -1114.63)"></path><path class="cls-1" d="M776,1150.45l-.07-.53c0-.24-.13-.33-.13-.18,0,.4,0-.12.06.21l.15.41Z" transform="translate(-661.49 -1114.63)"></path><path class="cls-1" d="M770.69,1153.41l-.1-.05a2,2,0,0,0,0,.25c0,.06.06,0,.09.06Z" transform="translate(-661.49 -1114.63)"></path><path class="cls-1" d="M780.93,1152.37l0-.21s-.08-.12-.09-.09S780.84,1152.33,780.93,1152.37Z" transform="translate(-661.49 -1114.63)"></path><path class="cls-1" d="M712,1180a2.29,2.29,0,0,0-.28-.08c-.14,0-.3.18-.27.27s-.09,0,.17-.07l.36-.16Z" transform="translate(-661.49 -1114.63)"></path><path class="cls-1" d="M787.91,1165.35a1.19,1.19,0,0,0,.18-.15.37.37,0,0,0,0-.39s0,.09-.05.16l-.07.41Z" transform="translate(-661.49 -1114.63)"></path><path class="cls-1" d="M792.91,1163.61c.06.17.12.34.19.5s.15.24.14.06a.79.79,0,0,0-.1-.21,3.7,3.7,0,0,0-.24-.29Z" transform="translate(-661.49 -1114.63)"></path><polygon class="cls-1" points="129.64 54.66 129.71 54.89 129.74 54.72 129.64 54.66"></polygon><path class="cls-1" d="M798,1171.22a5,5,0,0,0-.14-.52,4,4,0,0,0-.17-.44l.13.43.18.52Z" transform="translate(-661.49 -1114.63)"></path><path class="cls-1" d="M744.14,1124.35l-.1.14a1.12,1.12,0,0,0,0,.19s.06-.07.09-.12Z" transform="translate(-661.49 -1114.63)"></path><polygon class="cls-1" points="89.13 12.66 89.2 12.64 89.22 12.44 89.13 12.66"></polygon><path class="cls-1" d="M734.13,1202.76a1.35,1.35,0,0,0-.32-.11,1.29,1.29,0,0,0-.31.08l.28,0,.34,0Z" transform="translate(-661.49 -1114.63)"></path><path class="cls-1" d="M743.52,1133.67l0-.33c-.17.5,0,.17.06.26Z" transform="translate(-661.49 -1114.63)"></path><path class="cls-1" d="M752.47,1134.92c0-.14,0-.3,0-.44s-.05,0-.07,0l.1.46Z" transform="translate(-661.49 -1114.63)"></path><path class="cls-1" d="M752.48,1134.93l.21-.13.17-.1c-.06,0-.11,0-.17,0a2.08,2.08,0,0,0-.22.21Z" transform="translate(-661.49 -1114.63)"></path><path class="cls-1" d="M709.86,1204.78s-.06-.11-.1-.11-.14.12-.14.13C709.66,1205,709.74,1205,709.86,1204.78Z" transform="translate(-661.49 -1114.63)"></path><path class="cls-1" d="M804.75,1178.6l.39.31c0-.06-.08-.16-.11-.17a2.51,2.51,0,0,0-.27,0Z" transform="translate(-661.49 -1114.63)"></path><path class="cls-1" d="M768,1139.17c-.23-.48-.46-.3-.7.08h0l.71-.15Z" transform="translate(-661.49 -1114.63)"></path><polygon class="cls-1" points="87.99 19.1 87.91 19.04 87.98 19.11 87.99 19.1"></polygon><path class="cls-1" d="M812.37,1197.79l.18.53c.18-.24-.15-.28-.18-.44Z" transform="translate(-661.49 -1114.63)"></path><path class="cls-1" d="M706.82,1214.38l.37,0c0-.38-.26,0-.41,0Z" transform="translate(-661.49 -1114.63)"></path><path class="cls-1" d="M794.92,1187.75l.27-.12c-.23-.37-.2.07-.28.16S794.92,1187.75,794.92,1187.75Z" transform="translate(-661.49 -1114.63)"></path><path class="cls-1" d="M699.59,1202.46c-.1-.08-.18-.26-.3-.24s-.11.13.12.12c.06,0,.1.08.16.12Z" transform="translate(-661.49 -1114.63)"></path><path class="cls-1" d="M710.83,1189.58l-.28-.08.26.08Z" transform="translate(-661.49 -1114.63)"></path><path class="cls-1" d="M779.59,1164.45c-.24.15-.5.27-.76.41h0c.26-.13.52-.26.77-.41Z" transform="translate(-661.49 -1114.63)"></path><path class="cls-1" d="M779.32,1156.22l-.62.65s0,0,0,0l.64-.66Z" transform="translate(-661.49 -1114.63)"></path><polygon class="cls-1" points="112.42 27.92 112.49 27.77 112.42 27.91 112.42 27.92"></polygon><path class="cls-1" d="M686.67,1222.86l.1.09,0,0Z" transform="translate(-661.49 -1114.63)"></path><path class="cls-1" d="M790.81,1198.51v.1A.33.33,0,0,0,790.81,1198.51Z" transform="translate(-661.49 -1114.63)"></path><path class="cls-1" d="M787,1197.49l-.09,0,0,0Z" transform="translate(-661.49 -1114.63)"></path><path class="cls-1" d="M803.64,1174.81v0Z" transform="translate(-661.49 -1114.63)"></path><path class="cls-1" d="M732.15,1202c.11.16.25.15.41,0v.08l-.45.06Z" transform="translate(-661.49 -1114.63)"></path><path class="cls-1" d="M726.59,1200.26l.06-.07Z" transform="translate(-661.49 -1114.63)"></path><path class="cls-1" d="M706.8,1198.68l0,.08Z" transform="translate(-661.49 -1114.63)"></path><path class="cls-1" d="M705.63,1193.2l0-.08Z" transform="translate(-661.49 -1114.63)"></path><path class="cls-1" d="M785.44,1173.42v0Z" transform="translate(-661.49 -1114.63)"></path><path class="cls-1" d="M785.45,1173.51v0Z" transform="translate(-661.49 -1114.63)"></path><path class="cls-1" d="M792.53,1163.45l.38.16v.06l-.36-.14Z" transform="translate(-661.49 -1114.63)"></path><path class="cls-1" d="M792.54,1163.53v0Z" transform="translate(-661.49 -1114.63)"></path><polygon class="cls-1" points="58.09 73.77 57.68 73.76 57.69 73.7 58.12 73.7 58.09 73.77"></polygon><polygon class="cls-1" points="52.87 68.87 52.28 69.06 52.28 69.07 52.86 68.79 52.87 68.87"></polygon><path class="cls-1" d="M714.35,1183.42l0,.08Z" transform="translate(-661.49 -1114.63)"></path><path class="cls-1" d="M716.9,1181.19v0Z" transform="translate(-661.49 -1114.63)"></path><path class="cls-1" d="M790.82,1153.57l-.06,0,0,0Z" transform="translate(-661.49 -1114.63)"></path><polygon class="cls-1" points="61.18 65.89 60.77 65.9 60.84 65.81 61.16 65.81 61.18 65.89"></polygon><path class="cls-1" d="M721.16,1178.55l0,.11,0-.17Z" transform="translate(-661.49 -1114.63)"></path><path class="cls-1" d="M777.22,1163.48l0,.06Z" transform="translate(-661.49 -1114.63)"></path><path class="cls-1" d="M719.53,1178.79v0Z" transform="translate(-661.49 -1114.63)"></path><path class="cls-1" d="M718.07,1177.68l-.07-.08,0,.05Z" transform="translate(-661.49 -1114.63)"></path><path class="cls-1" d="M732.88,1172.1l.11-.22-.08.14A.41.41,0,0,0,732.88,1172.1Z" transform="translate(-661.49 -1114.63)"></path><path class="cls-1" d="M779.44,1149.45v0Z" transform="translate(-661.49 -1114.63)"></path><path class="cls-1" d="M778.16,1149.45v0Z" transform="translate(-661.49 -1114.63)"></path><path class="cls-1" d="M777.85,1149c.12-.09.22,0,.31.41v.1c0-.34-.08-.7-.13-1l0,.06c-.07.17-.15.34-.23.52Z" transform="translate(-661.49 -1114.63)"></path><polygon class="cls-1" points="105.43 38.57 105.06 38.91 105.06 38.84 105.39 38.53 105.43 38.57"></polygon><path class="cls-1" d="M766.55,1153.53l0-.24,0,.17Z" transform="translate(-661.49 -1114.63)"></path><polygon class="cls-1" points="107.59 36.71 107.33 36.86 107.32 36.79 107.59 36.63 107.59 36.71"></polygon><path class="cls-1" d="M766.62,1148.31v0Z" transform="translate(-661.49 -1114.63)"></path><path class="cls-1" d="M766.62,1148.4v0Z" transform="translate(-661.49 -1114.63)"></path><path class="cls-1" d="M775.87,1135.06h0Z" transform="translate(-661.49 -1114.63)"></path><polygon class="cls-1" points="114.36 20.45 114.34 20.54 114.38 20.44 114.36 20.45"></polygon><path class="cls-1" d="M769.35,1138.83l0,0Z" transform="translate(-661.49 -1114.63)"></path><polygon class="cls-1" points="106.74 25.09 106.46 24.54 106.47 24.47 106.76 25.01 106.74 25.09"></polygon><path class="cls-1" d="M769.32,1138.79l0,0h0Z" transform="translate(-661.49 -1114.63)"></path><path class="cls-1" d="M764.8,1133.22v0Z" transform="translate(-661.49 -1114.63)"></path><path class="cls-1" d="M764.81,1133.18v-1.3c0,.44,0,.88,0,1.34Z" transform="translate(-661.49 -1114.63)"></path><polygon class="cls-1" points="98.98 13.92 99.19 13.82 99.2 13.88 98.97 13.99 98.98 13.92"></polygon><path class="cls-1" d="M765.54,1125.46l0,0Z" transform="translate(-661.49 -1114.63)"></path><path class="cls-1" d="M765.52,1125.51l0,.07,0-.11Z" transform="translate(-661.49 -1114.63)"></path><path class="cls-1" d="M731.06,1138v0S731.06,1138,731.06,1138Z" transform="translate(-661.49 -1114.63)"></path><path class="cls-1" d="M743.54,1133.6l-.07.23,0-.15Z" transform="translate(-661.49 -1114.63)"></path><polygon class="cls-1" points="80.29 19.3 80.25 19.25 80.26 19.3 80.29 19.3"></polygon><path class="cls-1" d="M742.26,1133.44l-.08.22.07-.14Z" transform="translate(-661.49 -1114.63)"></path><path class="cls-1" d="M746.58,1121.24v0Z" transform="translate(-661.49 -1114.63)"></path><path class="cls-1" d="M747.28,1121v0Z" transform="translate(-661.49 -1114.63)"></path><path class="cls-1" d="M756.81,1116v0Z" transform="translate(-661.49 -1114.63)"></path><path class="cls-1" d="M757.56,1115.6l0-.08,0,.08Z" transform="translate(-661.49 -1114.63)"></path><path class="cls-1" d="M756.8,1115.9v0Z" transform="translate(-661.49 -1114.63)"></path><path class="cls-1" d="M783.63,1224a3.89,3.89,0,0,0,.48.56.45.45,0,0,0,.72-.12.38.38,0,0,0,0-.28c-.18-.47-.45-.36-.7-.3a4.49,4.49,0,0,0-.56.24Z" transform="translate(-661.49 -1114.63)"></path><path class="cls-1" d="M776,1215.18c.1.18.15.53.36.32a.49.49,0,0,0-.05-.2,1.23,1.23,0,0,0-.33,0Z" transform="translate(-661.49 -1114.63)"></path><path class="cls-1" d="M780.56,1219.6c0,.24,0,.56.2.67a.94.94,0,0,0,0-.23c-.07-.15-.16-.28-.24-.43Z" transform="translate(-661.49 -1114.63)"></path><path class="cls-1" d="M783.59,1224.1c0-.28.07-.58-.16-.76l-.13.81-.07-.07.4-.09Z" transform="translate(-661.49 -1114.63)"></path><polygon class="cls-1" points="120.36 106.84 120.48 107.05 120.36 106.93 120.36 106.84"></polygon><path class="cls-1" d="M780.53,1219.61l-.27.29.29-.29Z" transform="translate(-661.49 -1114.63)"></path><path class="cls-1" d="M791,1226.91l-.06-.05Z" transform="translate(-661.49 -1114.63)"></path><path class="cls-1" d="M781.85,1221.56v-.1A.38.38,0,0,0,781.85,1221.56Z" transform="translate(-661.49 -1114.63)"></path><path class="cls-1" d="M776,1215.27l0-.1Z" transform="translate(-661.49 -1114.63)"></path><path class="cls-1" d="M755.92,1148.18l0-.07Z" transform="translate(-661.49 -1114.63)"></path><polygon class="cls-1" points="141.66 135.39 141.4 134.7 141.1 135.63 141.66 135.39"></polygon></svg>
