<svg id="Layer_1" data-name="Layer 1" xmlns="http://www.w3.org/2000/svg" viewBox="0 0 147.57 163.8"><defs><style>.cls-1{fill:#0f0619;}</style></defs><path class="cls-1" d="M692.94,935.25h0s0,0,0-.08Z" transform="translate(-657.56 -891.53)"></path><path class="cls-1" d="M804.21,957.87a16.36,16.36,0,0,1-1.06-2.93c-.14-.51-.29-1.14-.12-1.32.58-.59.08-2.29.37-3.26-1.08,0-1.57.8-1.71,2.43s-1.1,1.86-2.19,1a1.54,1.54,0,0,1-.44-1.26,5.72,5.72,0,0,1,1.44-2.06,4.18,4.18,0,0,0,.78-.84c.29-.43.18-1.25-.51-2.12a2.44,2.44,0,0,1-.78-2.18,6.58,6.58,0,0,0-.86-4,1.9,1.9,0,0,1-.17-.56,36.83,36.83,0,0,1-.64-4.91,9.34,9.34,0,0,0-.05-1.37,4.08,4.08,0,0,0-1.06-2.55,5.17,5.17,0,0,1-1-2,5.42,5.42,0,0,0-1.47-2.61,7.6,7.6,0,0,0-1.62-1.22,3.26,3.26,0,0,1-1.24-1.29c-.58-1-1-1.38-1.41-1.33a.44.44,0,0,1-.35-.16,2,2,0,0,1-.47-1,3.14,3.14,0,0,1,0-.67,1.45,1.45,0,0,0-.09-.88c-.25-.57-.47-.62-.62-.64a2,2,0,0,0-1.55.3c-.49.44-1.25,0-2.17-1.59a4.41,4.41,0,0,0-1.62-1.89c-.29-.11-.63-.49-1-1.22-.51-1.09-.85-1.33-1.24-1.32-.72,0-1.6-.8-2.47-2-.47-.66-.82-.94-1.21-1a4.06,4.06,0,0,1-2.13-1.16c-.61-.6-1.21-.91-1.41.6,0,.33-.17.57-.32.62-.73.22-1.25,1.2-1.93,1.69a8.37,8.37,0,0,0-2.44,2.37c-.28.42-.61.57-1,.3a.79.79,0,0,1-.19-.4,1.11,1.11,0,0,1,0-.5c.6-.68,1.08-1.59,1.78-1.69a.56.56,0,0,0,.54-.37,3.43,3.43,0,0,1,1.33-1.46,1.13,1.13,0,0,0,.46-.89l0,.08,0-.06c.09-.14.17-.35.28-.41.35-.16.72-.21.65-1.54,0-.34.16-.25.31-.11a9.25,9.25,0,0,0-.34-3.07c-.33-1.29-.66-1.69-.84-1a6.68,6.68,0,0,1-.22.86c-.58,1.18-1.4,1.44-2.14,2.39-.72-.39-1.11.65-1.63,1.2a12.64,12.64,0,0,1-.93,1,.83.83,0,0,1-.49.19c-.14,0-.3-.14-.44-.52a3.63,3.63,0,0,1-.12-1.44c0-.29,0-.55.16-.49s.29.05.32-.35c.05-.8.28-.9.56-1a3,3,0,0,0,2.07-1.76,2.67,2.67,0,0,0,0-1.47c-.1.1-.2.25-.32.26s-.21-.1-.3-.29a2.52,2.52,0,0,1-.1-.83c-.06-.65-.24-1.09-.37-.92-.5.64-1.19.42-1.66,1.24a2.27,2.27,0,0,1-1.59,1.12,1.28,1.28,0,0,0-1,.87,1.69,1.69,0,0,1-1.19.95,9.5,9.5,0,0,0-2.65,1.35c-.64.48-1.19,1.43-2,1.13-.24-.1-.48.21-.7.45a4.67,4.67,0,0,1-1.68,1c-.83.37-1.65.79-2.49,1.19l-2.58,1.19a1,1,0,0,0-.71.77c-.23.75-.51,1.18-.93.64-.63.74-1.4.24-2.06,1-.5.58-1.12,1-1.77.37-.38-.35-.73-.17-1.06.28a2.22,2.22,0,0,1-1.78.92c-.93.07-1.76.93-2.63,1.61-.11.09-.26.39-.33.29-.69-.85-1.33.15-2,.12a3.16,3.16,0,0,0-2.28.92,4.13,4.13,0,0,1-3.94.9,7,7,0,0,1,.12.82c.07.93-.06,1.27-.4.93a1.21,1.21,0,0,0-1.92,0,.68.68,0,0,1-.64.2c-.6-.18-1.15.14-1.67.87-.23.33-.5.71-.76.44-.41-.43-.77-.17-1.15.28a1.58,1.58,0,0,1-1.18.6,10.81,10.81,0,0,1-1.49.12c-.6,0-1,1.08-1.51,1.5a3.82,3.82,0,0,1-2.45.8c-.56,0-1.08.22-1.5,1.23-.77-1.13-1.59-.93-2.34.32-1.32,2.23-2.79,1.72-4.22,2.23-.6-.55-1.19,0-1.79.38h0l-.26,0,.28,0h0c-.42,1.53-.43,1.55-1,1.21a2.61,2.61,0,0,1-.33-.27l-.06.78a1,1,0,0,1-.07.25c0-.09-.14-.16-.15-.29s0-.49,0-.74c-.3.5-.53,1.43-.94,1.31-.69-.21-1.33,1.14-2,.79s-1.37.06-2,.77a.29.29,0,0,1-.41-.07c-.32-.35-.74-.23-1-.9s-.58-.21-.89,0l.09.79a1.22,1.22,0,0,1-.29,1.18l0-.08c-.81.46-.84.49-1.07-.73-.12-.64-.25-1-.61-.82s-.76.42-1.15.62h0c-1.22,1.82-2.45,2-3.69,1.12-.48,1.08-1,1.59-1.68,1.26-.18-.09-.39,0-.58,0l0-.07,0-.09v.1c-.19,0-.44.22-.54,0-.91-1.53-2-1.33-3.18-1.08-.55.11-.61.21-.66,1.62,0,.68-.1,1-.44.9a7.14,7.14,0,0,0-2.87-.57c-1,.16-1.89.13-2.84.21a.93.93,0,0,0-.59.25,1.39,1.39,0,0,1-1.92.14,1.1,1.1,0,0,0-1.18-.09,3.61,3.61,0,0,1-3.58.09c-.82-.45-1.6.24-2.41.64a3.19,3.19,0,0,0-.18.8,4.91,4.91,0,0,1,1.16,1,1.54,1.54,0,0,0,1.7.73l1.53-.23a6.09,6.09,0,0,1,1.52-.13,36.49,36.49,0,0,0,8.86-.2.87.87,0,0,1,.57.17c.06,0,.07.32.09.51a.48.48,0,0,1-.09.25c-.14.14-.29.34-.43.37a23,23,0,0,1-5.29,1c-2.4-.09-4.86.54-7.28.12a1.26,1.26,0,0,0-.76.17.89.89,0,0,0-.47.81c0,.5.16.72.35.76a3.2,3.2,0,0,0,1.07,0,4.84,4.84,0,0,1,1.37,0,23.94,23.94,0,0,0,6.92.21c.63-.06,1.33-.49,1.89.17.23.28-.61,1.21-1.88,1.67a8.54,8.54,0,0,1-2.43.41c-2,.13-3.92,0-5.93,1-.42.22-.83.22-1.08-.53s-.6-.88-1.05-.62a1.5,1.5,0,0,1-1.66.17,1,1,0,0,0-1.21.19c-.84.71-1.39.22-1.9-.83s-1-1-1.71-.66a1.25,1.25,0,0,0-.27,1.45c.13.29.32.45.45.72a.69.69,0,0,1-.16.91.87.87,0,0,0-.19.78,1.71,1.71,0,0,1-.42,1.54,2.85,2.85,0,0,1-2.13,1.27c.52.95,1.21,1.41,1.44,2.77v0c0,.59,0,1,.34,1.09a24.44,24.44,0,0,1,2.42.41c1.19.33,2.45.12,3.61.69.37.17.82-.07,1.23-.17.07,0,.19-.28.2-.41a.81.81,0,0,0-.13-.48c-.31-.28-.63-.52-.95-.76-.16-.12-.22-.35-.09-.68.06-.16.18-.34.26-.33.86,0,1.72.09,2.58.14.46,0,.75.32.74,1.39,0,.88.3,1.2.68,1.23a2.76,2.76,0,0,0,1.07-.08c.32-.1.62-.47.65-1.26,0-1,.32-1.28.73-1.31l.46,0c1-.08,1.89.39,2.84.37s1.94-.78,2.9-1c1.52-.4,3-.69,4.55-.94,1.76-.31,3.52-.49,5.27-.77a1.65,1.65,0,0,0,.75-.3c1.29-1,2.59-.83,3.88-1.18a15.27,15.27,0,0,0,2.83-.57c.92-.44,1.88-.18,2.75-1.42.12-.16.29-.12.44-.14,2-.25,4-1.63,6-2.11a21.47,21.47,0,0,0,3.76-1.68c2.4-1.12,4.78-2.09,7.15-2.95,1.37-.51,2.7-1.48,4.08-1.65s2.84-1.62,4.29-1.69a.19.19,0,0,0,.14-.1c.5-.71,1.07-.64,1.62-.81s1.29-.27,1.92-.52c1.51-.58,3-1.27,4.45-1.93a22.73,22.73,0,0,1,3.17-1.44,14.34,14.34,0,0,0,2.89-1.14c1.24-.66,2.49-1.18,3.7-1.9,1.57-.94,3.2-1.3,4.67-2.68a.77.77,0,0,1,.24-.12,27.86,27.86,0,0,0,3.14-1.57c1.71-1.16,3.47-1.65,5.15-2.6.47-.28,1-.34,1.47-.64a.91.91,0,0,1,1.2.08,1.59,1.59,0,0,1,.28.65.69.69,0,0,1-.12.68,4.55,4.55,0,0,0-.78.48c-.21.21-.18.78-.05,1.32s.29.69.43.46c.28-.42.56-.65.91,0,.18.35.31.86.48,1.27s.53.08.63,1c-.09.61-.35.63-.58.73-1.45.62-2.75,2.09-4.26,2.71-.42.18-.78,1-1.26-.28,0,0-.15.11-.18.25-.2.83-.56.59-.9.54s-.72-.48-1,0a2.7,2.7,0,0,1-2.41,1.34,7.29,7.29,0,0,0-3.19,1.18c-.39.27-.73.38-.8,1.57,0,.6-.34.55-.56.29-.51-.62-1-.48-1.37.25-.23.42-.45.47-.73.42a4.14,4.14,0,0,0-1.49,0,17.21,17.21,0,0,0-4.65,1.88c-.79.45-1.65.39-2.37,1.41l0-.08a29.32,29.32,0,0,0-6,2.28,12.25,12.25,0,0,1-3,1.28c-1.08.2-2.09,1.17-3.19,1.34a12.84,12.84,0,0,0-3.23,1.26,5.16,5.16,0,0,0-2.41,2.15,1.25,1.25,0,0,0-1.27-.28c-1.2.47-2.41.55-3.62.9-2.08.6-4.18,1.54-6.29,2.38a40.92,40.92,0,0,1-4.58,1.84c-2.09.5-4.18,1.26-6.28,1.94A69.72,69.72,0,0,1,686,959.47a19.73,19.73,0,0,0-3.21.78,1.21,1.21,0,0,1-1,0c-.77-.51-1.59-.15-2.41,0s-1.53.34-2.3.47-1.53.18-2.3.32-1.55-.36-2.36-.35c-2.49.06-5,.09-7.39-1.05a5,5,0,0,0-1.67-.26c-.3,0-.51.5-.42,1.05a5.06,5.06,0,0,0,.24.72.8.8,0,0,1-.2.93c-.8.83-.83,1-.66,2.28a12.25,12.25,0,0,0,.61,2.32,14.64,14.64,0,0,1,.87,3.71,14.66,14.66,0,0,0,.86,4.36,4.18,4.18,0,0,1-.17,3.15,13.14,13.14,0,0,1-.55,1.24,7.15,7.15,0,0,0-.77,2.8,14.59,14.59,0,0,1-1.32,5.5,3.38,3.38,0,0,0-.42,1.38c-.08,1.86-.47,3.72-.37,5.57,0,.7.19,1.11.5,1.28A9.83,9.83,0,0,0,664,997a51.57,51.57,0,0,0,5.28.73,15.32,15.32,0,0,0,5.58-.55,4.13,4.13,0,0,1,1.71-.13,13.08,13.08,0,0,0,2.63-.18c.58-1,1.09-.62,1.59-.1s.75.59,1.05-.53c.08-.3.23-.47.4-.43a7,7,0,0,0,5.14-.77c.28-.15.58,0,.88,0-.15-1.59-.6-2.35-1.48-2-.47.16-.95.22-1.42.38a4.1,4.1,0,0,1-2.17,0,1.4,1.4,0,0,1-1-.75,1,1,0,0,1-.08-.52c0-.15.17-.37.24-.36,1.36.12,2.71-.59,4.07-1a10.93,10.93,0,0,1,3.73-.19.6.6,0,0,1,.53.44c.54,1.27,1.18,1.44,2.06.72,1.14-.94,2.42-.34,3.51-1.95a.13.13,0,0,1,.15,0c.72.25,1.47-.24,2.18-.09s1.61.8,2.36-.76c.06-.12.2-.1.31-.12l5.62-1.58c1.14-.33,2.28-.7,3.41-1.1,2-.69,4-.89,5.86-2.28a1.16,1.16,0,0,1,.77-.19c.43,0,.79-.32,1.19-.59a14.65,14.65,0,0,1,3.78-1.88c.29-.08.6-.22.85.21l.29-1.48c.12.15.23.38.36.41a4.25,4.25,0,0,0,4.08-.78,5.75,5.75,0,0,1,1.33-.83c.8-.38,1.6-.69,2.4-1a10.46,10.46,0,0,0,1.93-1c.68-.49,1.43-.08,2.06-1s1.29.16,1.92-.2a4.33,4.33,0,0,1,.9-.38c.55-.16,1.14-.62,1.64-.34.69.39,1.18-.23,1.73-.63a10.1,10.1,0,0,1,1.27-.89,13,13,0,0,1,2.92-1.15c.93-.23,1.84-.76,2.77-1.06,1.66-.58,3.33-1.12,5-1.86.71-.33,1.47-.38,2.1-1.16l0,.09a2.47,2.47,0,0,0,1.74-1.21c.47-.73,1.13-1.2,1.8-.56.51.48.86.62,1-.55,0-.29.24-.3.38-.06.29.52.54.38.83.16.79-.61,1.6-1.12,2.39-1.71a.72.72,0,0,1,1,0c.7.59,1.23.13,1.78-.5a3.71,3.71,0,0,1,3.53-1.53,4.51,4.51,0,0,0,2.67-.68,35.1,35.1,0,0,1,4.67-2.19,19.06,19.06,0,0,0,4.08-1.89,5.11,5.11,0,0,1,3-1l.22,2.65c-.89-.31-1.56.31-2.26.78-.37.26-.63.88-.53,2a13.38,13.38,0,0,1,0,1.42,3.61,3.61,0,0,0,3.67,1,4.17,4.17,0,0,1,1.17-.15c.19,0,.48.67.39.9-.39.91-.42,2.36-1,3-.38.41-.24,1.3-.14,2.13,0,.33.19.7.35.68,1-.12,2,.68,3,.33,1.14-.39,2.07-1.33,3.17-1.76.29-.11.52-.41.87-.28a1.09,1.09,0,0,1,.59.74.88.88,0,0,1-.07.75,4.52,4.52,0,0,1-1.63,1.87c-.94.66-1.89,1.34-2.87,1.92a10.18,10.18,0,0,1-3.1,1.18c-1.46.28-2.67,1.44-4.13,1.65-.05,0-.09.08-.13.14a1.15,1.15,0,0,0-.15,1c.11.43.29.81.52.89a2.16,2.16,0,0,0,.8,0c.3,0,.65-.77.84-.16.28.94-.35.85-.62,1.12a5.59,5.59,0,0,1-.85.55c-.62.41-.91,1-.68,1.46.43.73.87.51,1.29.53.1,0,.2-.1.28-.21.75-1.12,1.93-.73,2.7-1.75,0,0,.11,0,.16,0,.29,0,.57.21.77.75a1.43,1.43,0,0,1,0,1.1,4.86,4.86,0,0,1-2,2.65,25.71,25.71,0,0,0-5.62,3.31,1.48,1.48,0,0,1-1.08.45c-1-.19-1.8.62-2.68.94-.52.19-1,.55-1.54.74-2.64,1-5.29,1.81-7.95,2.7a2.58,2.58,0,0,0-.76.45.7.7,0,0,0-.11.47.73.73,0,0,0,.2.46.93.93,0,0,0,.66.16c1.07-.34,2.15-.7,3.2-1.14a11.62,11.62,0,0,1,2.28-1.15c1.82-.31,3.51-1.21,5.28-1.69,1.34-.38,2.72-.57,4.08-.84.16,0,.34,0,.51.43-1.09.78-2.07,2-3.39,2.06a1.33,1.33,0,0,0-.75.45,1.11,1.11,0,0,0-.22.69c0,.39.24.52.41.5a3.43,3.43,0,0,0,1.49-.26,12.61,12.61,0,0,1,3.28-1.28,16.1,16.1,0,0,0,3.3-1.25c.24-.13.57,0,.86.13a.63.63,0,0,1,.28.39.69.69,0,0,1-.05.47,2.7,2.7,0,0,1-1.06.68c-1,.14-1.88,1-2.88,1.29a1.49,1.49,0,0,0-.84.74,1.65,1.65,0,0,0,.17,2,17.11,17.11,0,0,0,1.34,1.24c-1.79,1.35-3.62,2.64-5.43,4.07-.67.52-1.51.33-2.09,1a7.11,7.11,0,0,1-3.5,2c-1.82.62-3.71,1-5.27,2.81a.38.38,0,0,1-.32.15c-.83-.08-1.57.53-2.36.6a4.2,4.2,0,0,0-3.43,2.18c-.25.4-.54.28-.74-.26s-.5-.78-.89-.49a2.18,2.18,0,0,1-1.15.45c-2,.1-3.79,1-5.7,1.39.43,1.25.45,1.28,1.18.94l0,.06c1.75-.82,1.75-.81,3.08.33,0,.24,0,.48.05.71a2.19,2.19,0,0,1-2.6.72c-.28-.06-.66-.43-.81.06-.35,1.14-.75.89-1.28.34s-.66-.6-.79.81c-.05.51-.24.66-.47.75-2,.73-4,1-5.88,2.07a2.39,2.39,0,0,1-1,.18,14.88,14.88,0,0,0-5.38,1.77,10.91,10.91,0,0,1-1.82.83,4.77,4.77,0,0,1-3.22-.22.93.93,0,0,1-.31-.65,1.16,1.16,0,0,1,.25-.72,5,5,0,0,1,4.41-1.26s0,.09.06.18c.22-.06.49,0,.64-.19a2.77,2.77,0,0,1,2.14-1.41c.12,0,.23-.42.34-.65l0,.09c0-.06,0-.09,0-.15l-.06.06c-.42-1.16-1-1.6-1.71-1.12-.1.06-.22.11-.32.18-1.64,1.17-3.44,1-5.1,2.09a1.46,1.46,0,0,1-.68.14,2.23,2.23,0,0,0-1.64.6,1,1,0,0,1-1,.24,1.9,1.9,0,0,0-1.32.41,6.12,6.12,0,0,1-1.3.66,54.51,54.51,0,0,1-8.49,2.47,1.79,1.79,0,0,0-.81.39,11.3,11.3,0,0,1-4.26,1.8c-1.93.58-3.86,1.46-5.77,2.18.16,1.58.16,1.63-.56,2.58l-.89-1c.39-.6.71-1.08,1-1.55l-1.94.15c-.27,0-.39.29-.38.76-.53.25-1.07.71-1.58.68s-1,.11-1.17,1.51a1.66,1.66,0,0,1-.38,1c-.81.42-1.25,1.61-1.75,2.73-.09.18-.28.19-.44.26s-.41.44-.62.48a8.57,8.57,0,0,0-3.33,1,.51.51,0,0,1-.5.07c-.83-.41-1.64.1-2.46.51a7.44,7.44,0,0,1-1.83.57c-3.44.79-6.86,1.56-10.25,2.26a20.85,20.85,0,0,1-4.24.61c-2,0-4.1.69-6.08.39-.89-.13-1.81,0-2.68-.14-.71-.08-1.39-.47-2.14.49-.23.3-.61,0-.92,0s-.71.4-1,1.11l.11-.07-.06.07c-.49.2-.66.82-.55,1.64a7.25,7.25,0,0,0,1.15,3.31,11.79,11.79,0,0,0,3,3.31,29.22,29.22,0,0,0,6.27,3.5,3.66,3.66,0,0,0,1.27.19c1.4,0,2.82,0,4.24.08,1.86,0,3.72.42,5.64.07a5.91,5.91,0,0,1,3,.26c1,.35,2.08.59,3.12.86a33.77,33.77,0,0,0,8.7.66,31.17,31.17,0,0,0,8.37-1.6c1.68-.49,3.37-1.25,5.06-1.63a34.53,34.53,0,0,1,5.14-.71,21.82,21.82,0,0,0,6-1.41,17.16,17.16,0,0,1,2.82-1c4.21-.74,8.28-2.86,12.41-4.52,2.26-.92,4.44-2,6.7-3.05,2.51-1.15,5.16-1.71,7.4-4.18a2,2,0,0,1,.7-.35q2.18-1,4.38-2.11a.68.68,0,0,0-.12-1.26,1.74,1.74,0,0,0-1.09.24c-1.36,1-2.84,1-4.27,1.53a3.22,3.22,0,0,1-2.91-.15.89.89,0,0,1-.35-1c0-.25.23-.57.36-.57,1.38,0,2.61-.84,3.88-1.41a15.33,15.33,0,0,0,5.09-3,3,3,0,0,1,1.37-.68,57.17,57.17,0,0,1,6.68-1.78,23.76,23.76,0,0,0,2.31-.59,2.7,2.7,0,0,0-.15-.4,1.5,1.5,0,0,1-.62-1.16,1.1,1.1,0,0,1,.56-1c.39-.25.81-.4,1.2-.64a2.52,2.52,0,0,0,1.32-1.41,2.87,2.87,0,0,1,2.06-2,5.45,5.45,0,0,0,1.39-.64c.73-.52,1.33-1.08,1-3a2.84,2.84,0,0,1,1-3.09c.43-.28.86-.59,1.29-.85a1.09,1.09,0,0,0,.47-1.08c0-2.55.75-4,2.05-4.79a33.76,33.76,0,0,1,4.2-2.48c.28-.11.72-.17.64-1a.89.89,0,0,0-.16-.24c-1.21-.75-1.25-.92-.75-2.44a2.65,2.65,0,0,1,1.2-1.76,4.18,4.18,0,0,0,2.17-2.32,1.86,1.86,0,0,1,.92-1.06c1.2-.37,2-1.69,3.13-2.28.47-.26.39-.73-.2-1.46-.38-.49-.49-.94-.24-1.14a5.87,5.87,0,0,0,1.74-3.28,2,2,0,0,1,.55-.89,3.75,3.75,0,0,0,1.19-2.57,1.22,1.22,0,0,1,.49-.92c.73-.41.94-1.53,1.07-2.69a4.13,4.13,0,0,1,1.39-3.06c1-.76,1.69-2.15,1.54-4.48a1.47,1.47,0,0,1,.08-.77c.74-.92.94-2.75,2-3.1.39-.14.17-.62-.22-1a1.07,1.07,0,0,1-.36-1.2c.29-.69.64-1.26.88-2a2.93,2.93,0,0,0,.14-2.42,2.55,2.55,0,0,1,0-2.17A7.13,7.13,0,0,1,804.21,957.87Zm-140.48-3.18a.77.77,0,0,1-.37,0,3,3,0,0,1,.22-.66c.14-.2.29-.11.31.23A.7.7,0,0,1,663.73,954.69Zm1.64.92a2.53,2.53,0,0,1-.18-.27c0-.06.08-.18.09-.17a1.67,1.67,0,0,1,.17.26Zm2.54,0c-.45.17-.91.37-1.32-.34.51-.7.95-.79,1.38-.53.08,0,.15.28.14.43A.67.67,0,0,1,667.91,955.58ZM685.45,946c-.15,0-.29,0-.44,0h0l-.3,0c-.19,0-.39,0-.51-.4s.23-.64.61-.67a6.12,6.12,0,0,1,.74,0c.2,0,.39,0,.49.43A.64.64,0,0,1,685.45,946Zm98.79,14.92s-.13-.14-.13-.16c0-.25.09-.25.2,0C784.28,960.78,784.27,960.89,784.24,960.89Zm-80,69,.24-.21-.16.43c0,.06-.09.13-.12.11S704.15,1030,704.29,1029.89Zm0,2.91a.33.33,0,0,1-.07-.43c0-.06.1-.14.12-.11a1.92,1.92,0,0,1,.18.32Zm.31-3.14h0l.27,0C704.71,1030,704.64,1029.7,704.55,1029.66Zm6.12,1.46c-.24,0-.38-.49-.25-.83s.26-.38.42-.29.24.33.21.67S710.85,1031.13,710.67,1031.12Zm6.56-3.82a12.43,12.43,0,0,1-1.62.56c-.08,0-.2-.17-.24-.33a1,1,0,0,1,0-.55c.49-.87,1.45-1,2-.41,0,0,0,.17.06.26S717.3,1027.28,717.23,1027.3Zm2.62-1.26a2.67,2.67,0,0,1-1.4,2.09s-.1,0-.15-.07a.88.88,0,0,1-.1-.22,1.74,1.74,0,0,1,0-.59c.42-.66.84-1.31,1.28-1.92.05-.08.23,0,.29.13A1.38,1.38,0,0,1,719.85,1026Zm3-.19a1.45,1.45,0,0,1-.42.14.72.72,0,0,1-.8-.58,1.18,1.18,0,0,1-.06-.56.51.51,0,0,1,.23-.37c.41-.16.77.12,1.1.49a.75.75,0,0,1,.17.47A.66.66,0,0,1,722.81,1025.85Zm2-2.06-.09-.16.12-.09Zm7.38-1.74a1.13,1.13,0,0,1-.46.84c-.49.34-.81-.83-1.26-.52s-.38,1.36-.91,1.13l-.33-.09v-.09c-.45.41-.9.86-1.37,1.22s-.74,0-1-.69a2,2,0,0,1-.08-1.18c.11-.42.31-.62.54-.6a11.57,11.57,0,0,0,1.17.11c.22,0,.61-.24.61-.39,0-1.5.64-1.06,1.07-1.2a1.84,1.84,0,0,1,1.81.4A1.24,1.24,0,0,1,732.22,1022.05ZM748,1036.16l-3.2.67a2.85,2.85,0,0,1-.34-.15s-.07-.15-.08-.23a.78.78,0,0,1,0-.28.35.35,0,0,1,.13-.19c.93-.31,1.87-.64,2.81-.92a.67.67,0,0,1,.53.07.8.8,0,0,1,.41.47A.42.42,0,0,1,748,1036.16Zm10.55-23c-.28.18-.55,0-.82-.19-.14,1.11-.6.78-1,.65a1.82,1.82,0,0,1,.66-1.22c.3-.45.64-.75,1.06-.52a1.05,1.05,0,0,1,.34.59A.68.68,0,0,1,758.54,1013.14Zm5.72-1.07c-.76.31-1.53.59-2.3.84-.08,0-.2-.18-.28-.32a.52.52,0,0,1,0-.28c.37-1.44,1.83-2,2.7-1a1.11,1.11,0,0,1,.09.26C764.38,1011.77,764.34,1012,764.26,1012.07Zm1.76-.54c-.23.05-.45-.11-.61-.46a1.51,1.51,0,0,1-.12-.55c0-.36.22-.36.39-.25a1,1,0,0,1,.6,1C766.19,1011.33,766.12,1011.5,766,1011.53Zm17.24-13.15L783,997c-.15-.11-.35-.12-.38-.52,0,0,.1,0,.13,0s.17.32.26.48l.24,1.37ZM797,940.21c0-.27.05-.42.23-.28a2,2,0,0,1,.48,1c.18.73.23,1.36,0,1.6-.43.45-.76,1.14-1.34,1.27a1.07,1.07,0,0,1-1.07-.17c-.8-.6-1.41-.46-1.85.15s-1,.81-1.34,1.73a.55.55,0,0,1-.78.4.84.84,0,0,1-.71-.64c-.27-.85.09-.83.29-1,.75-.49,1.64-.67,2.22-1.51a2.32,2.32,0,0,1,3-.86C796.8,942.16,797.26,941.78,797,940.21Zm.14,6.68a.86.86,0,0,1-.27,0,.45.45,0,0,1-.15-.18,2.36,2.36,0,0,1-.09-.52.33.33,0,0,1,.15-.27c.14-.09.29-.2.53.16A.62.62,0,0,1,797.17,946.89Zm-1.17,2.6a1.25,1.25,0,0,1-.1-.51.82.82,0,0,1,.2-.43s.18,0,.27.15a.88.88,0,0,1,.16.72,1.3,1.3,0,0,1-.23.37C796.18,949.68,796.06,949.62,796,949.49Zm.27,4.23a.42.42,0,0,1-.34.2c-.15,0-.33-.18-.39-.55a.5.5,0,0,1,.1-.37c.15-.12.33-.14.56.21C796.23,953.39,796.31,953.67,796.27,953.72Zm-2-1.74c-.13.63-.48.69-.87.61-.19,0-.39-.05-.6-.49a1,1,0,0,1,.22-1,3.39,3.39,0,0,1,.42-.2,1.69,1.69,0,0,1,.5.11,1,1,0,0,1,.28.41A1.25,1.25,0,0,1,794.28,952Zm.55,12.36c.07,0,.22.24.26.38a.84.84,0,0,1,0,.48,3.94,3.94,0,0,1-.44.47,1.69,1.69,0,0,1-.48-.25,1,1,0,0,1-.14-.49C794.14,964.34,794.47,964.29,794.83,964.34ZM791.38,950a1.37,1.37,0,0,1-.07.45c-.47.7-.92,1.51-1.7,1.38,0-.23,0-.46,0-.71,0-1.8.62-2,1.42-1.82.06,0,.18.26.25.41A.93.93,0,0,1,791.38,950Zm-.79-14.16a1.88,1.88,0,0,1,.34.15c.25,0,.44,0,.64,0a.57.57,0,0,1,.12.24.52.52,0,0,1,0,.26c-.21.45-.52.58-1,0a2.09,2.09,0,0,1-.13-.26C790.49,935.92,790.49,935.76,790.59,935.79Zm3,2.61s0-.08,0-.12.15,0,.2.22a.15.15,0,0,1,0,.12C793.75,938.69,793.68,938.61,793.64,938.4Zm.81-8.66c.19,0,.43,0,.84.83-.55.42-1,1-1.59,1.43a6.53,6.53,0,0,1-1.82,1.12s-.19-.09-.26-.22a1,1,0,0,1-.12-.72A3.48,3.48,0,0,1,794.45,929.74Zm-15.53-10.53s0,0-.08,0a.73.73,0,0,1-.05-.2C778.84,918.9,778.89,919,778.92,919.21Zm-2.63,4.35c.09.05.15.26.16.49s-.07.27-.12.25-.23-.34-.21-.62A.13.13,0,0,1,776.29,923.56Zm-8.23,1.07.06.21s0,.11-.06.09a.73.73,0,0,1-.07-.21Zm-.56-8a.58.58,0,0,1,0,.23,2.5,2.5,0,0,1-.29.05c0-.2.08-.42.13-.59A1.44,1.44,0,0,1,767.5,916.58Zm-.33.28-.19,0C767,916.55,767.1,916.81,767.17,916.86ZM764,906.07a.64.64,0,0,1,0,.2s0,.1-.06.07a1,1,0,0,1,0-.19S764,906.05,764,906.07Zm-.6,3.75c.3-.4.65-.53,1-.31s.7.1.93-.53c.06-.18.2-.15.28.19a2.81,2.81,0,0,1,.05.85c-.13.76-.25,1.61-.73,1.2-.18-.15-.37-.11-.56-.15l0,.11a3.22,3.22,0,0,1-.76.08c-.15,0-.32-.25-.36-.76A1.41,1.41,0,0,1,763.41,909.82Zm2.88,7.64c-.45,1.35-1,1.41-1.51,1.2a.87.87,0,0,1-.19-.41,1.58,1.58,0,0,1,.11-.65C765.12,917.26,765.63,917.5,766.29,917.46Zm-2.61-3.84s-.15-.19-.16-.3c0-.33,0-.49.14-.48s.12.2.18.31C763.86,913.49,763.79,913.64,763.68,913.62Zm-.88,0a1.33,1.33,0,0,1,0,.56,2.81,2.81,0,0,1-.43.59,2.16,2.16,0,0,1-1.71.76c-.12,0-.26-.11-.29-.46a3.5,3.5,0,0,1,.06-.72c.66-.84,1.52-.42,2.17-1.08C762.64,913.22,762.76,913.45,762.8,913.6Zm-.94-2.91c.13-.07.31.15.38.65s0,.51-.16.54c-.72.23-1.51.4-2.28.59C760.3,910.93,761.18,911.11,761.86,910.69Zm-2.12,1.85a6.42,6.42,0,0,1,.67,1.71c-.61.06-1.21-.69-1.8-1.27C758.9,912.15,759.24,911.81,759.74,912.54Zm-28.92,13.21c.13,0,.27.16.25.55a1.09,1.09,0,0,1-.15.48c-.49.57-.93.6-1.22-.65h0A1.09,1.09,0,0,1,730.82,925.75Zm-.88-3.88a.8.8,0,0,1,.19.18l0,.22a1,1,0,0,1-.19-.17C729.91,922,729.94,921.86,729.94,921.87Zm-9.28,7.74c1-.24,2-.84,3-1a10.11,10.11,0,0,0,2.56-1.09l2.93-1.41.16,0h-.17c-.26,1.29-.75,1.78-1.31,2-2,.75-4,1.52-6,2.23a1.48,1.48,0,0,1-1.47,0C720.4,929.82,720.53,929.64,720.66,929.61Zm-2.61,1.54a.64.64,0,0,1,.34-.39c.13-.07.26,0,.29.37s-.25.51-.43.5S718,931.53,718.05,931.15Zm-1.19-3.78h0Zm-.4,4.54s.11,0,.12,0,0,.35-.11.37-.07-.09-.1-.14Zm-1,.12,0,.19-.18.29a.76.76,0,0,1,0-.19A2.82,2.82,0,0,1,715.5,932Zm-1.93.47c.23-.1.63-.61.65.24,0,.57-.41.72-.68.85s-.59,0-.86-.32A1.55,1.55,0,0,1,713.57,932.5Zm-2.1,1.31s0,.17,0,.26c-.11.48-.3.47-.48.43a.38.38,0,0,1-.18-.29C710.86,933.91,711.33,933.61,711.47,933.81Zm-.13,4.09a2.15,2.15,0,0,1-1.67,1.55,1.58,1.58,0,0,1-1.37-.12C709.27,937.91,710.28,937.41,711.34,937.9Zm-3.51-2.61s-.09.06-.1,0-.07-.18-.11-.28Zm-.31-.37h0l0,0Zm-11.9,4s.08.05.09.11a.74.74,0,0,1-.05.22s-.09-.06-.1-.11A1.23,1.23,0,0,1,695.62,938.92Zm-2,.35v.2l-.11-.08Zm-1.5.17s.1,0,.12,0a.4.4,0,0,1-.06.46s-.11,0-.13,0A.39.39,0,0,1,692.13,939.44Zm-3.21,5.09h0v0ZM687.34,937a1,1,0,0,1,.86-.47s.06.15.06.24a.67.67,0,0,1-.08.25c-.24.19-.48.35-.72.52s-.2,0-.2-.28A.66.66,0,0,1,687.34,937Zm0,8.88c-.15,0-.29-.07-.3-.42a.94.94,0,0,1,.27-.72c.52-.45,1-.24,1.49-.11C688.38,945.12,687.92,945.72,687.39,945.86Zm8.6,1c-.39.49-.79,1.09-1.23.64a.42.42,0,0,1,0-.26,1.44,1.44,0,0,1,1.14-1.24c.07,0,.15.19.22.3A2.16,2.16,0,0,1,696,946.87Zm-2.45-2.38c-.2,0-.44.32-.58.18-.56-.59-1.15-.15-1.74.1-1,.41-1.6.15-1.4-.45.37-1.09.91-.87,1.38-.92a67.46,67.46,0,0,0,9.76-2,30.24,30.24,0,0,0,3.49-1.52c.82-.35,1.64-.68,2.46-1a1.1,1.1,0,0,1,1.34.44c-.18.73-.45,1.25-.82,1.12-.63-.23-1.24.15-1.87.48a5.37,5.37,0,0,1-1.31.41,23.27,23.27,0,0,0-3.93,1.42,10.44,10.44,0,0,1-3.39,1A27.76,27.76,0,0,0,693.54,944.49Zm66.87-23.32a1.64,1.64,0,0,1-.7,0c-.36-.08-.66.24-1,.4-1.12.53-2.13,1.83-3.33,2.06a9.14,9.14,0,0,0-2.32,1.32h0a1.36,1.36,0,0,1-1.26.85,4.77,4.77,0,0,0-2.81,1.11,4.61,4.61,0,0,1-2.22,1c-2.18.48-4.27,1.89-6.48,2.84-2,.9-4.09,1.71-6.18,2.55l-2.14.89c-.78.34-.78.35-1-1.79h0c-.17-.36-.36-.71-.6-.6a4.27,4.27,0,0,0-2.6,1.81l2.08,0c.19,0,.36.2.39.67s-.14.79-.33.74c-.52-.13-1,.23-1.48.54a27.54,27.54,0,0,1-4.09,1.93c-1.33.56-2.68,1.09-4,1.61-3.84,1.43-7.75,2.92-11.72,4.35l-6.14,2.23c-1.22.43-2.45.36-3.69,1.15-.41.27-.88,0-1.31,0-.06,0-.14-.3-.12-.39a.84.84,0,0,1,.22-.4,1.81,1.81,0,0,1,.59-.26l4.28-1.07a1.12,1.12,0,0,0,.58-.3,4.66,4.66,0,0,1,3.47-1.36c.39,0,.8.05,1.14-.49a1.39,1.39,0,0,1,1.4-.78c1.36.08,2.67-.91,4-1.59.52-.27,1-.73,1.54-.68.34,0,.49-.6.56-1.27-.23,0-.47.2-.68.1a1.6,1.6,0,0,0-2.08.22c-.42.4-.68-.19-1-.67a1.93,1.93,0,0,1,1.61-1.31,25,25,0,0,0,5.52-2,10,10,0,0,0,1.09-.7c.23-.15.46-.42.68-.42a10.3,10.3,0,0,0,5-1.83,4.35,4.35,0,0,1,1-.3,2.87,2.87,0,0,0,1.1-.37c1.2-1,2.44-.8,3.63-1.43.54-.27,1.09-.37,1.36,1.23.06.38.44.14.56-.31a4.23,4.23,0,0,1,1.11-2.15,12.39,12.39,0,0,1,3.77-1.87,20.66,20.66,0,0,0,2.54-1.26,35.46,35.46,0,0,1,3.41-1.56c.78-.38,1.56-.87,2.34-1.2,1.27-.57,2.53-1,3.77-1.62a15,15,0,0,0,2.57-1.5,2.82,2.82,0,0,1,1.9-.54l.27,0,2-2.07,0-.07c.55.52.56.52.87-.64-.35-.4-.67-.61-1-.46a9.49,9.49,0,0,0-3.27,1.64.69.69,0,0,1-.34.22,6,6,0,0,0-2.56,1.15,27.31,27.31,0,0,1-2.57,1.61c-1.39.68-2.86,1.08-4.31,1.63a16.13,16.13,0,0,0-2.26.87,17.38,17.38,0,0,1-3.69,1.46,31.68,31.68,0,0,0-4.15,1.88c-.22.1-.44.23-.65,0a.95.95,0,0,1,0-1,11.46,11.46,0,0,1,1.67-.91,62.42,62.42,0,0,0,8.51-3.74,9.31,9.31,0,0,1,1-.4c.12-.05.25,0,.37-.1,1.6-1,3.27-1.08,4.78-2.34a2.55,2.55,0,0,1,.83-.37,34.59,34.59,0,0,0,4-1.93c1.31-.72,2.57-1.53,3.83-2.29a1,1,0,0,1,1.12.08c.18.6.3,1.14-.06,1.28-.12.05-.21.21-.18.57a.89.89,0,0,0,.27.67c.31.22.61-.06.93.47a1.52,1.52,0,0,1,.13.53c0,.18,0,.47-.07.49a6.89,6.89,0,0,1-1.45.38.89.89,0,0,0-.76.46,3.35,3.35,0,0,1-1.28,1.13c-.11.06-.26,0-.34.16-.75,1.47-1.8,1.53-2.72,2.38a1.45,1.45,0,0,0-.17.39c.12.72.35.43.53.5a1.2,1.2,0,0,0,1.43-.42,2.76,2.76,0,0,1,1.94-1,1.35,1.35,0,0,0,.79-.41,4.8,4.8,0,0,1,3-1.59,4.29,4.29,0,0,1,.24,1.43C760.78,921,760.61,921.13,760.41,921.17Zm2.32-1.09c-.34.63-.84.55-1.34-.13-.27-.35-.54-.65-.81-1,.43,0,.79-.5,1.25-.25.1,0,.26,0,.3-.21.28-1.35.79-.82,1.32-.3a1,1,0,0,0,.44.21c.09.43.15.91,0,.92A1.23,1.23,0,0,0,762.73,920.08Zm-42.08,29.85s-.08,0-.13,0l-.39-.07c.12-.06.24-.14.37-.19S720.67,949.72,720.65,949.93Zm-1.1.43.08.15-.12.07ZM671,968.53l-.07.73.07-.76Zm-.13,1.29c0,.27-.08.52-.23.52s-.14-.29-.12-.36C670.64,969.67,670.78,969.77,670.9,969.82Zm-4.3-1.26.1-.18v.23Zm14,25.56c-1.87,0-3.76,1-5.61.5-1-.25-2.06.19-3.07,0s-1.9-.58-2.91-.08c-.19.09-.41,0-.59-.13a8.76,8.76,0,0,1-.81-.59l.1-.37,8-.11c.37,0,.74.13,1.09-.07,1.31-.77,2.58-.2,3.88-.51.15,0,.3.16.31.5C681,993.82,680.84,994.12,680.63,994.12Zm-5.15-21.64a3.83,3.83,0,0,1-1.76-.61,5.08,5.08,0,0,0-1.16-.48c-.31-.13-.87.34-.8-.73,0-.7.54-.38.82-.61a.69.69,0,0,0,.23-.38,1,1,0,0,0-.06-.52c-.22-.35-.46-.65-.86-1.19a6,6,0,0,0,2.05-1.83V966c.47.69,1,.78,1.59.23a1,1,0,0,1,1.49-.21c.69.52,1.39.31,2.09-.4a4.13,4.13,0,0,1,3.48-1.08c.2,0,.48,0,.56.23.32,1,.71.66,1.14.11,1.09-1.36,2.22-1.21,3.31-1.19a13.94,13.94,0,0,0,4.57-1c.71-.24,1.42-.47,2.13-.68,2-.6,4.05-1.32,6.06-1.76a25.34,25.34,0,0,0,5.83-2.09c1.93-1,3.87-1.2,5.77-2.3,1-.58,2.06-.65,3.08-1.14l5.5-2.6c3-1.4,5.91-2.61,8.82-3.91a1.58,1.58,0,0,1,1.13-.18,3.09,3.09,0,0,0,2.39-.45,12.54,12.54,0,0,1,2.36-1,26.62,26.62,0,0,0,3.28-1.58c2.31-1,4.61-2,6.85-3a12.53,12.53,0,0,0,3.43-2.18,1,1,0,0,1,.52-.25,7.4,7.4,0,0,0,3.32-1.64,3.57,3.57,0,0,1,2.4-1.07c.33,0,.65-.4,1-.61a13.88,13.88,0,0,1,4.89-2.34,5,5,0,0,0,1.2-.52c.24-.1.48-.26.75,0a.45.45,0,0,1,.11.19,1.45,1.45,0,0,1,0,.5,9.41,9.41,0,0,0-.78.66c-.27.3-.63.4-.49,1.63a1.1,1.1,0,0,1-.49,1.08c-.63.62-1.31,1.08-2,1.63s-1.57,1.33-2.36,2a1.12,1.12,0,0,0,0,.54c0,.12.2.27.22.21a1.62,1.62,0,0,1,1.84-1,7.49,7.49,0,0,0,1.82-.33,1.06,1.06,0,0,1,.92,0,1.54,1.54,0,0,1,.27,1.26,1.39,1.39,0,0,1-.56,1c-.65.43-1.32.84-2,1.25-2.59,1.57-5.25,3.11-8,4.54-1.77.9-3.51,2.16-5.38,2.61-1.47,1.62-3.16,1.81-4.73,2.91a.55.55,0,0,0-.24.29,1.79,1.79,0,0,0-.06.54.33.33,0,0,0,.11.19c.44.29.85,0,1.27-.18a21,21,0,0,1,3.14-1.76,3.42,3.42,0,0,1,1.55-.31,2.88,2.88,0,0,0,1.54-.28c1.86-.81,3.71-1.73,5.54-2.42a25.12,25.12,0,0,0,3.67-1.91,2.9,2.9,0,0,1,.79-.35c.18,0,.4.09.44.62a1.27,1.27,0,0,1-.18.69,4.37,4.37,0,0,1-.89.58c-1.78,1-3.61,1.81-5.43,2.76l-5,2.48-5.14,2.41c-2,.91-4,1.9-6.1,2.77a32.62,32.62,0,0,1-3.32,1.25c-1.85.52-3.68,1.38-5.54,2-1.32.44-2.65,1-4,1.51-.64.23-1.29.39-1.93.63a15,15,0,0,0-3.11,1.41,10.5,10.5,0,0,1-2.68,1.22c-3.87,1.21-7.77,2.72-11.7,3.57-2.34.49-4.69,1.49-7.05,2.14a28.05,28.05,0,0,1-3.7.71,4.83,4.83,0,0,1-1.37-.06,1.84,1.84,0,0,1-.56-.28c.16-.71.44-.78.67-.84,1.54-.4,3.07-.85,4.6-1.12a33.55,33.55,0,0,0,5.36-1.82,11.53,11.53,0,0,1,2.43-.7,6.55,6.55,0,0,0,2.12-.82,9.87,9.87,0,0,1,3-1,9,9,0,0,0,3.14-1.08,43.41,43.41,0,0,1,6.55-2.88c1.62-.63,3.27-.94,4.84-2.08a1.58,1.58,0,0,1,.88-.22,3.82,3.82,0,0,0,2-.75c1-.69,2-.6,2.92-.89.65-.19.66-.16.85-2a1.54,1.54,0,0,1-1.55.66,3.32,3.32,0,0,0-1.74.6c-1.43.78-2.87,1.67-4.36,1.26-.1,0-.21-.06-.29,0-1.11,1.16-2.35.88-3.48,1.86a4.5,4.5,0,0,1-2.06,1,18,18,0,0,0-4.93,1.57,3,3,0,0,1-1.2.4,11.56,11.56,0,0,0-3.47,1.1,4.79,4.79,0,0,1-1.36.53c-2.43.1-4.85,1.43-7.3,2.1a54,54,0,0,1-7.35,1.38c-1.53.19-3.07.57-4.6.81C683.16,972,679.29,973,675.48,972.48ZM723,980l0-.08,0,0Zm46.68-25.65c-1.81.94-3.43,2.82-5.36,3.6-2.34,1-4.76,1.75-7.07,3.44a17.89,17.89,0,0,1-4.07,1.69c-1.32.51-2.66.95-4,1.56a7.86,7.86,0,0,1-2.46.68,5.16,5.16,0,0,0-2.61.8c-.32.23-.67.4-1,0-.48-.55-.85-.35-1.12.64-.11.41-.34.48-.52.26-.45-.53-.87-.21-1.31,0a20,20,0,0,0-4.2,2.13c-.18.14-.41.29-.58.19-.84-.47-1.58,0-2.3.87-.13.15-.31.26-.44.18-.8-.46-1.57.28-2.36.19-.17.19-.34.53-.52.54-1.21.1-2.36,1.14-3.59,1.09-.92,0-1.79.72-2.67,1.28a10.13,10.13,0,0,1-2.84,1.16c-1.67.44-3.32,1.31-5,1.85-2,.66-4,1.83-6.12,1.71a1.18,1.18,0,0,0-.75.32,5.25,5.25,0,0,1-4.85,1.19,4.4,4.4,0,0,0-3.62.77,2.27,2.27,0,0,1-.91.3,14.27,14.27,0,0,0-3.1.88,3.9,3.9,0,0,1-2.91,0c-.19-.06-.4-.46-.56-.09-.68,1.54-1.46.92-2.21,1a1.62,1.62,0,0,1-.31,0l0-.08a1.59,1.59,0,0,1-1.38.69,45.91,45.91,0,0,0-5.24.14.74.74,0,0,1-.45-.11.69.69,0,0,1-.15-.44,1,1,0,0,1,.16-.51,1.54,1.54,0,0,1,.77-.34c.25,0,.48.22.73.29s.52.24.75.09c1.5-1,3-.8,4.48-1.09a34.79,34.79,0,0,0,3.41-1.12c2.12-.65,4.23-1.3,6.34-1.88,1.23-.34,2.45-1.22,3.69-1.26a9.24,9.24,0,0,0,1.69-.35,1.9,1.9,0,0,0,.77-.19c1.91-1.27,3.86-1.67,5.78-2.53,2.12-.94,4.24-1.8,6.34-2.75a2.5,2.5,0,0,1,1.35-.35.7.7,0,0,0,.45,0c1.87-1.17,3.82-1.15,5.66-2.47a4.37,4.37,0,0,1,1.77-.67,8.19,8.19,0,0,0,3.23-1.34c1-.68,2-.46,2.89-1.47,1.52.51,2.91-1,4.35-1.4,2.19-.66,4.3-1.93,6.43-2.69,1.42-.51,2.82-1.23,4.25-1.61a10.73,10.73,0,0,0,3.56-1.9,13.31,13.31,0,0,1,4-1.8,31.66,31.66,0,0,0,3.65-1.58c1.19-.59,2.37-1.24,3.52-1.94a20.34,20.34,0,0,1,2.4-1.55c.91-.4,1.73-1.18,2.73-1,.19,0,.33-.87.52,0,.12.51-.22.68-.4.87-.87.91-1.71,2-2.84,1.94a.5.5,0,0,0-.38.21,1.45,1.45,0,0,0-.37,1.34c.07.55.39,1,.73.9a8.21,8.21,0,0,0,2.7-.83,1.46,1.46,0,0,1,1.35-.29c.07,0,.19.25.21.38S769.73,954.32,769.67,954.35Zm1.5,1.66.06-.16.11.14C771.32,956.2,771.25,956.21,771.17,956Zm2.47-1.1c-.07.07-.17,0-.21-.23a1.32,1.32,0,0,1,0-.53c0-.08.17-.07.22,0A.74.74,0,0,1,773.64,954.91Zm1.09-.44v-.21l.09.17Zm-1.6-17a1.54,1.54,0,0,0-1.73.21,1.91,1.91,0,0,1-1.87.18c0-.86.28-.85.44-.89a5.87,5.87,0,0,0,2-1.36c1.06-.83,2.26-.77,3.3-1.55a3.66,3.66,0,0,1,2-.73,6.33,6.33,0,0,0,2.53-1c1.49-.94,3-1.9,4.32-2.93a.66.66,0,0,1,.2-.11c.61-.21,1.37-.09,1.82-.69s.69-1.52,1.1-2.1c.27-.38.53-.76.92-.79a2.37,2.37,0,0,0,1.41-.48c.33-.27.79-.1,1.45.93a2.08,2.08,0,0,1,.42,1.48c-.18.63-.51,1-1,.86a1.09,1.09,0,0,0-1,.35,1.82,1.82,0,0,1-1,.51,6.49,6.49,0,0,0-2.14.66,3.82,3.82,0,0,0-.84.64c-.38.27-.71.73-1.19.68-.08,0-.18,0-.22.05-.54,1.31-1.64,1-2.48,1.48-.13.07-.2.36-.31.55v-.09c-.07.15-.11.4-.21.41a3.43,3.43,0,0,0-1.53.9,5.09,5.09,0,0,1-1.41.59v-.09c-.11.22-.25.37-.44.17-.44-.46-.74-.28-1.06,0C775.53,936.15,774.18,936.17,773.13,937.47ZM790.39,942l0-.08,0,.07Zm-1.07-5.15c0-.14-.05-.28-.06-.4s0-.26.13-.06a.6.6,0,0,1,0,.23C789.38,936.7,789.35,936.76,789.32,936.84Zm0,.11c0,.21,0,.53-.09.55a2.56,2.56,0,0,1-1.74.21l-.22,0,.23,0c0-.66.18-.91.43-1A1.25,1.25,0,0,1,789.29,937ZM780,944c-1,0-1.86,1-3,.31-.07,0-.15-.24-.23-.36a1.66,1.66,0,0,1,.09-.44,2.67,2.67,0,0,1,2.59-.54.93.93,0,0,1,.41.31,2.24,2.24,0,0,1,.2.5C780.06,943.85,780,944,780,944Zm2-1.92a6.78,6.78,0,0,1-1.18.51c-.17.06-.4-.11-.49-.6s.06-.66.21-.74a2.74,2.74,0,0,1,.48-.17,5,5,0,0,1,.77,0,.51.51,0,0,1,.38.28C782.31,941.94,782.11,942,782,942.1Zm1.65-.72c-.25.14-.67-.35-.73-.8-.08-.66.18-.59.34-.72l.22-.08a2.21,2.21,0,0,1,.53.15.86.86,0,0,1,.23.42.87.87,0,0,1,0,.48A2.21,2.21,0,0,1,783.63,941.38Zm1.13,6c-.17.07-.38,0-.53-.48a2.26,2.26,0,0,1-.11-.85c.37-1.65.77-3,1.94-2.69s2-.42,3-.9a3.09,3.09,0,0,1,1.37-.4c0,.81.08,1.78-.47,1.73a.26.26,0,0,0-.3.25c-.07,1.46-.74,1.18-1.36,1.18a2.21,2.21,0,0,0-2.18,1.14A2.3,2.3,0,0,1,784.76,947.4Zm3.89,7.79c-.39.94-.9,1.33-1.76.32-.18-.21-.39-.17-.59-.22s-.62.12-.78-.74.22-.81.42-1c.4-.43.79-.82,1.42-.36.43.32.75.09,1-.18s.78-.74,1.17-1.11a2.64,2.64,0,0,1-.06,1.73C789.26,954.16,788.91,954.59,788.65,955.19Zm1,8.56c-.06,0-.22-.23-.26-.38a1,1,0,0,1,0-.51c.25-.44.52-.83.78-1.23l0,0,1,.77A1.63,1.63,0,0,1,789.67,963.75Zm2.92-6c-.2.29-.43.48-.64.42s-.28,0-.38,0-.42-.5-.42-.89c0-1.2.27-2,.83-2.11a8.27,8.27,0,0,1,1.66-.17c.06,0,.22.19.28.34a.85.85,0,0,1,0,.47C793.5,956.5,793,957.11,792.59,957.76Zm3.27,17.81c-.25.5-.51,1-1.11,1.09a5.3,5.3,0,0,0-2.13,0c-.07,0-.24-.26-.27-.41s0-.47,0-.52c.92-.6,1.83-1.18,2.77-1.71.29-.15.7-.66,1.06.27C796.48,975,796,975.21,795.86,975.57Zm1.91-15.49c-.63.5-1.27,1-1.92,1.46-.28.19-.35.56-.22,1.2a1.17,1.17,0,0,1-.61-.22,2.21,2.21,0,0,1-.57-1.79,3.38,3.38,0,0,1,.27-.78,6.71,6.71,0,0,1,2.48-2.62.27.27,0,0,1,.29,0,1.52,1.52,0,0,1,.47.4,2,2,0,0,1,.3,1.12A1.4,1.4,0,0,1,797.77,960.08Zm.91,13.22s-.11,0-.15-.1a.4.4,0,0,1-.08-.44l.28.16A2.18,2.18,0,0,1,798.68,973.3Zm-.2-6.55c-.09,0-.2-.25-.29-.4a.49.49,0,0,1,0-.24c.21-.51.48-.87.9-.88.08,0,.21.18.31.28a1.12,1.12,0,0,1,.08.28C799.32,966.52,799,967,798.48,966.75Z" transform="translate(-657.56 -891.53)"></path><path class="cls-1" d="M670.3,939.48v-.05l0,0Z" transform="translate(-657.56 -891.53)"></path><path class="cls-1" d="M699.57,933.13l0,.07,0,0Z" transform="translate(-657.56 -891.53)"></path><path class="cls-1" d="M752.35,1012.3Z" transform="translate(-657.56 -891.53)"></path><path class="cls-1" d="M688.33,995.13h-.05s0,.06,0,.1Z" transform="translate(-657.56 -891.53)"></path><path class="cls-1" d="M722.81,981.48h0l.07-.11-.1.07h0Z" transform="translate(-657.56 -891.53)"></path><path class="cls-1" d="M730.7,958.08v0h0Z" transform="translate(-657.56 -891.53)"></path><path class="cls-1" d="M708.57,1027v0Z" transform="translate(-657.56 -891.53)"></path><path class="cls-1" d="M707.14,931.25v-.11l0,.08Z" transform="translate(-657.56 -891.53)"></path><path class="cls-1" d="M769.52,902.94s0,0,0,0h0Z" transform="translate(-657.56 -891.53)"></path><path class="cls-1" d="M773.6,908.39h0l0,0,0,0h0v0Z" transform="translate(-657.56 -891.53)"></path><path class="cls-1" d="M730.24,970.57h0l0,.06.07-.06h0l0,0Z" transform="translate(-657.56 -891.53)"></path><path class="cls-1" d="M700.52,1034h0l0,0h0l0,0,0,0,0,0h0Z" transform="translate(-657.56 -891.53)"></path><path class="cls-1" d="M757.32,916v0l0,0Z" transform="translate(-657.56 -891.53)"></path><path class="cls-1" d="M737.83,1019.19l-.09,1h0l.08-.13-.08.08.08-.87v0s0,0,0-.07Z" transform="translate(-657.56 -891.53)"></path><path class="cls-1" d="M689.94,918.09c2.25,1.49,4.54,2.44,7,2.2a7,7,0,0,1,1-.08,26.07,26.07,0,0,0,8.67-1.38,17.71,17.71,0,0,1,3.35-.75,51.74,51.74,0,0,0,6.89-1.71,15,15,0,0,0,2.84-1.12,7,7,0,0,1,2.4-.76,8.52,8.52,0,0,0,4.35-1.28,56.13,56.13,0,0,1,5.72-3.12c.54-.3,1.13-.16,1.64-.58a6.83,6.83,0,0,1,3.07-1.33,7.66,7.66,0,0,0,3.46-1.84c1.81-1.61,3.56-2.68,5.47-2.2l0-.07c.23.27.49.44.62-.19.22-1,.57-1.13,1-1.31.81-.4,1.63-.94,2.4-1.41a36.61,36.61,0,0,1,3.77-2.22c.48-.21,1,.11,1.46-.3.69-.65,1.51-.59,2.06-1.79.21-.45.56-.42.83-.66a7.68,7.68,0,0,0,.8-.81,2,2,0,0,0,.23-1.09,2.82,2.82,0,0,0-.27-1.4c-.39-.63-.76-.65-1.11-.53s-.47.64-.55,1.57c-.13,1.4-.25,1.44-.73.87-.14-.16-.27-.44-.41-.59s-.51-.22-.67.32c-.1.35-.17.78-.27,1.12-.19.56-.44.92-.75.43-.69-1.09-1.26-.78-1.89-.49a4.77,4.77,0,0,0-1.55.9c-.53.54-1.16-.25-1.72,0a6.49,6.49,0,0,0-1,.43,6.3,6.3,0,0,1-3.46.9,4.1,4.1,0,0,0-2.74.85A8.64,8.64,0,0,1,739,899.9c-1.48.52-3,0-4.56.79a4.33,4.33,0,0,1-2.09.48,9.15,9.15,0,0,0-3.11.73,7.51,7.51,0,0,1-1.27.35,63.58,63.58,0,0,0-6.54,1.31c-2,.48-4.11.72-6.21,1.05a8.19,8.19,0,0,0-2.55.5c-2.16,1.06-4.34,1.41-6.56,2.58a37.21,37.21,0,0,1-4.32,1.65,29.14,29.14,0,0,1-8.26,2c-.49,0-1-.05-1.44,0-.86.07-1.64.78-2.34,2.1S688.8,917.33,689.94,918.09Z" transform="translate(-657.56 -891.53)"></path><path class="cls-1" d="M733,917.79a47.85,47.85,0,0,0,4.81-2.16c1.91-1,3.89-1.59,5.75-2.47s3.83-2.2,5.74-2.74c1.49-.43,2.76-2,4.25-2a9.18,9.18,0,0,1,3.13-1.77,8.54,8.54,0,0,0,3-1.78.94.94,0,0,1,.3-.15,23.83,23.83,0,0,0,2.27-1.4,10.29,10.29,0,0,1,2.22-1.12.79.79,0,0,0,.36-.23,3.6,3.6,0,0,1,2.84-1.43c.29,0,.55-.12.7-.67a1.35,1.35,0,0,0,0-1c-.06-.19-.22-.34-.29-.3-.54.36-1.16,0-1.83-.79-.33-.39-.72-.64-1-.4-.88.7-1.83.72-2.78,1.37a28.37,28.37,0,0,1-3,1.82c-1.06.54-2.1,1.09-3.19,1.69-3.23,1.79-6.7,3.62-10.35,5.34-1.11.53-2.25,1.1-3.4,1.62-1.61.72-3.31,1.29-5,2-4.65,2-9.5,4.09-14.51,6.38-2.83,1.3-5.74,2.52-8.68,3.71-2,.82-4.08,1.5-6.15,2.39a26.24,26.24,0,0,1-4.11,1.6c-1.52.39-3.06.55-4.6,1.09a24.08,24.08,0,0,1-5.68,1.49.91.91,0,0,0-.59.21c-1.3,1.21-2.64.33-3.95,1.31-.88-.46-1.8.11-2.65.84a4.33,4.33,0,0,1-3.41,1,2.57,2.57,0,0,0-1.95.3c-.86.63-1.5.45-1.81-1.31a.61.61,0,0,0-.21-.36c-.19-.15-.48-.2-.52.31-.11,1.57-.59,1.59-1.13,1.58s-.88-.43-1.4.27a4.07,4.07,0,0,0,2.18,1.16c2.61.74,5.33-.41,7.91,0,.24,0,.5-.16.75-.22a39.8,39.8,0,0,1,4.61-1.15,30.43,30.43,0,0,0,5.58-1.1c2.38-.79,4.76-1.12,7.11-1.7.38-.09.76-.32,1.14-.42.86-.25,1.7-1.14,2.55-.91a2.42,2.42,0,0,0,2-.47,12.53,12.53,0,0,1,2.38-.92c.36-.14.74-.32,1.06.18a2.27,2.27,0,0,1,1.18-1.09l6-2.53c1.62-.69,3.23-1.71,4.85-1.88,1.36-1.25,2.83-1.06,4.19-2a1.07,1.07,0,0,1,1.65.4A3.74,3.74,0,0,1,733,917.79Z" transform="translate(-657.56 -891.53)"></path><path class="cls-1" d="M731.39,919.52l0,.05h0s0-.05,0-.07Z" transform="translate(-657.56 -891.53)"></path><path class="cls-1" d="M713.51,926.63h0l.07-.11-.09.09h0Z" transform="translate(-657.56 -891.53)"></path><path class="cls-1" d="M723.05,1002.14h0a.29.29,0,0,0,0,.09Z" transform="translate(-657.56 -891.53)"></path><path class="cls-1" d="M711.94,1009.51h0l.07-.07-.1.05h0Z" transform="translate(-657.56 -891.53)"></path><path class="cls-1" d="M697.51,1010.68c1.55-.19,3.1-.74,4.65-.44h0l.65-1c.13.62.15,1.5.57,1.6a1.24,1.24,0,0,0,1.39-.65c.35-.52.65-1.16,1-1.72s.54-.77.89-.75l2.18.15c0,.62,0,1.17.36,1.39a1.17,1.17,0,0,0,1.42,0c.5-.4.92-.17,1.34.21a3.76,3.76,0,0,1,3.07-1.81c.89-.09,1.8.2,2.52-1.37a.42.42,0,0,1,.3-.19c.89-.3,1.73-1.06,2.64-1.13a5.48,5.48,0,0,0,1.43-.48.78.78,0,0,0,.44-.79,1,1,0,0,0-.41-.82l-1.09-.89c.76-.55,1.48,0,2.23.14.25-1.3.84-1.56,1.42-1.51a1.69,1.69,0,0,0,1.54-.71,1,1,0,0,1,.77-.38,5.31,5.31,0,0,0,2.87-.81c.12-.07.33.09.42.29a.74.74,0,0,1-.14.75,1.63,1.63,0,0,0-.47,1.7c.19.66.58.3.89.25s.54-.08.81-.15a7.31,7.31,0,0,0,2.88-1c1-.79,2.07-1.22,3.08-1.91.36-.24.7-.55,1-.83.06,0,1.44-.64,1.52-.66a1.34,1.34,0,0,1,1.42.49c.13.13.35.25.45.14.73-.81,1.65-.82,2.3-1.91v0a5,5,0,0,0,1.93-.44,14.57,14.57,0,0,1,5.47-1.91,2.74,2.74,0,0,0,1.11-.33,26.57,26.57,0,0,1,4.16-1.89,6.82,6.82,0,0,0,2.55-1.45,4.68,4.68,0,0,1,4.4-1.73,2.21,2.21,0,0,0,1.43-.17,17.77,17.77,0,0,0,3.89-2.63l0,0c.42-.34.85-.65,1.25-1a1.45,1.45,0,0,0-.06-1.35c-.14-.21-.29-.51-.43-.54-1-.2-2-.8-2.87-.35-1.58.8-3.28.82-4.86,1.75-.87.51-1.88.39-2.79.71-2.2.76-4.4,1.67-6.61,2.41-.77.27-1.56.41-2.34.67a22.65,22.65,0,0,1-5.79,1.49,6.84,6.84,0,0,0-3.88,1.13,3.86,3.86,0,0,1-1.4.55c-2,.5-4,1-6,1.4a1.29,1.29,0,0,0-1,.86,1.12,1.12,0,0,0,0,1.08c.15.23.43.19.39.86a2.18,2.18,0,0,1-.4.35,21.58,21.58,0,0,1-4,1.92,22.78,22.78,0,0,0-3.15,1.19,14.53,14.53,0,0,0-2.37.77c-1.18-.61-2.2.63-3.26,1.37a3.94,3.94,0,0,1-1.25.68c-1.87.42-3.73.85-5.61,1.3a1.18,1.18,0,0,0-.6.45,1.91,1.91,0,0,1-1.87.88,1.19,1.19,0,0,0-1.11.24c-1.78,1.76-3.71,1.55-5.55,2.53-.84-.27-1.3.61-1.59,2a10.63,10.63,0,0,1-1.23-.33,5.64,5.64,0,0,0-2.87.2c-.42.06-.48.9-.54,1.45C696.89,1010.93,697.25,1010.72,697.51,1010.68Zm66.55-25.25c.05,0,.13.23.19.36l-.19.32-.19-.39C763.93,985.62,764,985.44,764.06,985.43Zm-10.84,4.33.11.1,0,.21s-.09-.06-.11-.11A.81.81,0,0,1,753.22,989.76Zm-2.29.5c.17,0,.31.14.32.49,0,.1-.12.31-.18.29a.61.61,0,0,1-.23-.34C750.77,990.49,750.81,990.32,750.93,990.26Zm-.64,1.35s.1.09.13.16.06.37-.07.45c-.08-.09-.2-.16-.23-.28S750.17,991.58,750.29,991.61Zm-1.29.07c.07,0,.14.17.22.27s-.05.34-.17.29a.29.29,0,0,1-.11-.16C748.86,991.87,748.88,991.68,749,991.68Zm-5.31,3.74c0,.12.07.26.11.39a1.57,1.57,0,0,1-.21-.17.36.36,0,0,1-.09-.22C743.53,995.19,743.61,995.19,743.69,995.42Zm-1.83-.09,0,.19-.08-.18Zm-8.44,2.57s0,.17,0,.26a1.38,1.38,0,0,1-.26.06,1.83,1.83,0,0,1,0-.25A.72.72,0,0,1,733.42,997.9Zm-1.3.43,0,.25-.23.12a1.43,1.43,0,0,1,0-.24A1.86,1.86,0,0,1,732.12,998.33Zm-12.66,3.79,0,0s-.06,0-.06,0Zm-10,5c.08,0,.18.21.2.36a.91.91,0,0,1-.11.49c-.24.24-.47.08-.69-.08C709,1007.48,709.14,1007,709.44,1007.09Zm-5.51,1.85-.06-.08h0Zm-.12-.05c-.32.52-.66.63-1,.36Z" transform="translate(-657.56 -891.53)"></path><path class="cls-1" d="M684.91,1020.81c.08.08.17.25.26.25,1,0,1.94-.07,2.92-.15a20.27,20.27,0,0,1,2.9-.25c1,.07,1.93-1.27,2.85-.32.11.1.34-.05.47-.22a2.39,2.39,0,0,1,1.9-1c1.19-.2,2.39-.49,3.58-.8,2.79-.74,5.57-1.5,8.37-2.29l3.59-1,0,.08h.1a.16.16,0,0,0,.22,0h.09V1015a1.39,1.39,0,0,1,1.92.1c.24.2.52.52.77.07.43-.8.92-.58,1.41-.56a4.3,4.3,0,0,0,2.44-.4v.06c.36-.27.84-.35,1.06-.85a2.91,2.91,0,0,1,2.07-1.71c.2.53.41.42.59-.11.28-.83.66-1.32,1.12-.86s.92.21,1.41-.16a6.43,6.43,0,0,1,1.6-.79c1.67-.63,3.43.09,5.07-1.12a.18.18,0,0,1,.16,0c1.17.58,2.29-.3,3.43-.59.61-.15,1.55.43,1.7-1.64a.24.24,0,0,1,.12-.18c.94,0,1.68-1.32,2.69-1.16s2.13.33,3-1.19a.48.48,0,0,1,.47-.2c.62,0,1.18-.46,1.77-.64.94-.28,1.73-1.32,2.64-1.56,1.29-.34,2.49-1.36,3.84-1.34a4,4,0,0,0,1.46-.43,63.15,63.15,0,0,1,8.49-3.15,6.61,6.61,0,0,0,2.33-1.16.81.81,0,0,0,.11-.51.93.93,0,0,0-.21-.49c-.57-.45-1.09-.15-1.61.09a5.48,5.48,0,0,1-1.74.7,6.73,6.73,0,0,0-1.92.54c-2.79,1.11-5.54,2.7-8.47,2.8a.65.65,0,0,0-.46.24,3.51,3.51,0,0,1-1.87,1c-2.09.73-4.21,1.28-6.28,2.15-3.15,1.35-6.39,1.69-9.52,3.3-.05,0-.12.08-.16.05-.93-.79-1.64.55-2.44,1a5.4,5.4,0,0,1-1.11.62,57.64,57.64,0,0,0-5.85,2,25.84,25.84,0,0,1-3.58.93,8.33,8.33,0,0,0-2.28.66c-1.34.62-2.67,1.32-4,1.83-1.84.7-3.69,1.09-5.53,1.87a44.35,44.35,0,0,1-5.88,1.93c-1.46.4-2.94.56-4.4,1.1-2.22.83-4.44.73-6.65,2-.15.09-.32,0-.48.09l-4.06,1C685.1,1020.32,684.92,1020.34,684.91,1020.81Zm33.77-7.09a3.12,3.12,0,0,1,0,.43l-.13-.39a.72.72,0,0,1,0-.25C718.59,1013.39,718.66,1013.47,718.68,1013.72Z" transform="translate(-657.56 -891.53)"></path><path class="cls-1" d="M660.49,1009.29a4.47,4.47,0,0,1,.76.8c.38.52.78.75,1.27.4a2,2,0,0,1,.61-.27c.42-.11.48.06.46,1.35,0,.63.21.62.4.5,1.14-.73,2.15-.63,2.92,1,.45-.89.92-.87,1.43-.61a2.32,2.32,0,0,0,3-.51c-.37-.38-.72-1-1.18-.85-.9.27-1.48-1-2.3-1.08-.42,0-.31-1.32-.57-1.48s-.52,1-.91,1a.88.88,0,0,1-.45-.08,9.42,9.42,0,0,1-1-.63.58.58,0,0,1-.17-.68.64.64,0,0,1,.24-.35c.21-.07.41,0,.62-.12s.46.23.65-.41a1.46,1.46,0,0,0-1.44-.66c-.26.06-.47-.12-.66-.4l0,.07,0-.06,0,0h0l0,0a10.88,10.88,0,0,1-2-2,1.31,1.31,0,0,1-.16-1c.05-.2.26-.26.39-.38s.22-.13.27-.27a.78.78,0,0,0-.09-.73c-.28-.51-.62-.82-1-.79-.6,0-1.19.06-1.78.09-.52,1.61-1.15,2.54-2,1.92,0,0-.1.07-.14.14a.94.94,0,0,0-.06.29.61.61,0,0,0,0,.28c.2.54.54.29.82.34s.67.45.65,1.29C659,1007.55,659.64,1008.59,660.49,1009.29Z" transform="translate(-657.56 -891.53)"></path><path class="cls-1" d="M666.93,1013.1h0l.07-.1-.08.09h0l0,0Z" transform="translate(-657.56 -891.53)"></path><path class="cls-1" d="M671.36,1011.94h0l0,.06Z" transform="translate(-657.56 -891.53)"></path><path class="cls-1" d="M732.07,988.55c.8.32,1.55-.21,2.31-.54a6.47,6.47,0,0,0,1.46-1.08,1.47,1.47,0,0,0,.23-.74c0-.34-.14-.69-.28-.62-1,.53-1.4-.75-1.77-2.19-.09-.35-.2-.68-.3-1a2.17,2.17,0,0,0,2.2-.86c1,.59,1.86-1,2.83-1,.44,0,.56-1.33.24-2-.11-.23-.23-.5-.37-.56-.7-.29-1.44-.77-2.12-.28-1.2.86-2.43.68-3.66.64-.46,0-.82-.08-1.16,1-.25.82-1,.81-1.35,1.78-.11.28-.58-.06-.89-.06s-.42.61-.37,1.18.25,1,.53.94a1.76,1.76,0,0,1,1.81.57,1,1,0,0,1,.17.49c0,.4-.13.55-.31.55-.46,0-.93-.33-1.38.17a1,1,0,0,0-.16.49c0,.15.09.44.15.45.52.09,1,.12,1.56.19.16,0,.32.2.32.57a.75.75,0,0,1-.18.45,2.7,2.7,0,0,0-1.13,2.26C731,988.66,731.49,988.32,732.07,988.55Zm.88-2c-.23,0-.46-.61-.43-1.08.05-.7.41-1.21.77-1.1s.51.66.47,1.06C733.7,986,733.29,986.6,733,986.55Zm1.89-7c.13,0,.34,0,.28.4,0,.17-.23.3-.37.35-.31.09-.57-.18-.79-.62C734.25,979.68,734.54,979.61,734.84,979.59Zm-2.49,1.15,1.59-1a12,12,0,0,1-.25,2.56c-.32-.71-.66-.85-1,0-.11.27-.12.94-.4.5a3.7,3.7,0,0,1-.23-1.09A.86.86,0,0,1,732.35,980.74Z" transform="translate(-657.56 -891.53)"></path><path class="cls-1" d="M730.45,989.28l0,0,0,.06S730.45,989.31,730.45,989.28Z" transform="translate(-657.56 -891.53)"></path><path class="cls-1" d="M706,994h0l.08-.13L706,994h0v0Z" transform="translate(-657.56 -891.53)"></path><path class="cls-1" d="M708.42,990.56c-1.13.06-2.25,1.31-3.38.62-.08,0-.28.3-.35.54a1.32,1.32,0,0,0,.09,1.09c.38.44.78.8,1.17,1.2a5.17,5.17,0,0,1,0-1.47c.82.33.81.29,1.61-.16,1-.54,1.93-1.24,2.86-.16.24.27.51.07.74-.23s.36-.49.55-.68c.84-.83,1-.71,1.5,1.08a1.26,1.26,0,0,0,.66-1.14c0-.5-.16-1.11.11-1.45s.5-.21.75-.36.7-.45,1.06-.15.69.19,1.05-.21a4.12,4.12,0,0,1,1.65-1,9.17,9.17,0,0,0,1.52-.84,2,2,0,0,0,.22-2.06c-.19-.42-.43-.6-.69-.43a2.07,2.07,0,0,0-.69.74,2.1,2.1,0,0,1-2.19,1.35c-.31,0-.61-.1-.92-.12a6.91,6.91,0,0,0-1.7,0c-.52.09-.5,1.65-1,1.82l0,.09c-.18-.33-.39-1-.54-.93-.78.38-1.63.16-2.31,1.39l0-.06C709.8,990.4,709.07,990.53,708.42,990.56Z" transform="translate(-657.56 -891.53)"></path><path class="cls-1" d="M688.91,1009.74c-.17.09-.32.55-.2.69a4.29,4.29,0,0,1,.72,2.45c0,.53.31.77.61.65s.42-.6.36-1.18a1.49,1.49,0,0,1,.46-1.48c.42-.25.61,0,.82,1.09.06.33.11.49.27.52.38.09.71,0,1-.7s.44-.81,1-.17a3.24,3.24,0,0,1,1.38-.86,2.62,2.62,0,0,0,.71-.76,1.23,1.23,0,0,0,.1-.58c0-.17-.1-.44-.16-.44a2.85,2.85,0,0,0-1.56,0c-.93.47-1.65,0-2.34-.92v0c-.46-.53-1-.79-1.42.1C690.12,1009.43,689.51,1009.41,688.91,1009.74Z" transform="translate(-657.56 -891.53)"></path><path class="cls-1" d="M694,1011.64h0l.09-.12-.11.1h0v0Z" transform="translate(-657.56 -891.53)"></path><path class="cls-1" d="M718.6,992.16c-.29,0-.4.3-.25,1,.09.39.23.8,0,1a1.34,1.34,0,0,1-1.56.35c-.44-.24-.56-1.1-.69-1.89-.32.1-.62.23-.63,1.07s-.2,1.22-.54,1.35c-.84.34-1.68,1.05-2.54.5l-.06,1.2c1.18.36,2.36.76,3.59,0a7.62,7.62,0,0,1,3.62-1.26c.47,0,.83-.45,1.54-1.45C720.25,993.22,719.51,992.3,718.6,992.16Z" transform="translate(-657.56 -891.53)"></path><polygon class="cls-1" points="58.52 101.06 58.52 101.07 58.53 101.07 58.52 101.06"></polygon><path class="cls-1" d="M667.82,1022.49c-.62-.61-1.32-.77-2.42.16a7.52,7.52,0,0,0,5.42,1.39c2.56-.2,5.13-.63,7.74-1,.08,0,.21-.22.23-.37a.87.87,0,0,0-.09-.5c-.27-.34-.59-.26-.92-.2a16.05,16.05,0,0,1-3,.52,29.21,29.21,0,0,0-4.72.56A2.31,2.31,0,0,1,667.82,1022.49Z" transform="translate(-657.56 -891.53)"></path><path class="cls-1" d="M664.42,1022.16a.59.59,0,0,0-.14-.41,6.58,6.58,0,0,0-.72-.32c-.22-.09-.38-.32-.3-.82.19-1.12-.11-1.36-.52-1.69-1-.79-1.84-2-3.06-2.31.09,3,.35,4,1.25,4.68a16.15,16.15,0,0,0,2.53,1.34,1.18,1.18,0,0,0,.76,0C664.29,1022.56,664.4,1022.31,664.42,1022.16Z" transform="translate(-657.56 -891.53)"></path><path class="cls-1" d="M728.76,985.23v0l0,0Z" transform="translate(-657.56 -891.53)"></path><path class="cls-1" d="M726.26,985.51c.7.48,1.22,1.7,2,2.09l.52-2.34a1.05,1.05,0,0,1-.31-1.13,1.74,1.74,0,0,0-.18-1.37c-.55-.8-1.12-1.5-1.85-.88h0l-.26,1.77c-.57-.07-1.12-.16-1.67-.2s-.64,0-.77,1.54a1,1,0,0,1,.4.15C724.83,985.71,725.59,985,726.26,985.51Z" transform="translate(-657.56 -891.53)"></path><path class="cls-1" d="M776.66,980.05v.05l0-.06,0,0h0l0,.06Z" transform="translate(-657.56 -891.53)"></path><path class="cls-1" d="M773.18,982.65a1.11,1.11,0,0,1-.64-.21,1.67,1.67,0,0,0-1.28-.15c-.21,0-.24.6-.09,1,.28.77.64.89,1,.89,1.27,0,2.34-.88,3.44-1.61.44-.3.63-.77.51-1.79-.06-.61.2-.72.47-.73-.42-1-.69-1.24-1-.59-.49,1.13-1.11,1.34-1.92.9a.46.46,0,0,0-.7.29.82.82,0,0,0,.11.23c.25.23.6.29.6,1S773.46,982.64,773.18,982.65Z" transform="translate(-657.56 -891.53)"></path><path class="cls-1" d="M721.76,990.49c-.09.66,0,1,.3,1.08.15,0,.3.16.46.21.31.09.72.21.87-.39.23-.88-.27-.89-.5-1.19a2.89,2.89,0,0,1-.39-.5,1.13,1.13,0,0,1,0-1.07c.16-.26.44-.32.54-.63.29-.9.9-1.6.63-2.92-.2,0-.4,0-.59.09a5.3,5.3,0,0,0-1.24.28,1.09,1.09,0,0,0-.53,1,8.89,8.89,0,0,1-.08,2.63C721.24,989.55,721.86,989.71,721.76,990.49Z" transform="translate(-657.56 -891.53)"></path><path class="cls-1" d="M723.75,985.07V985h0a.31.31,0,0,0,0,.1Z" transform="translate(-657.56 -891.53)"></path><path class="cls-1" d="M668.85,944.09c.53,0,1,.11,1.44.11.06,0,.18-.28.2-.44a1.1,1.1,0,0,0-.09-.52.65.65,0,0,0-.24-.29,22.52,22.52,0,0,1-2.3-1.16c-.66-.41-1.32.09-2,.27-.07,0-.18.28-.21.45-.07.34,0,.66.15.72C666.83,943.71,667.81,944.42,668.85,944.09Z" transform="translate(-657.56 -891.53)"></path><path class="cls-1" d="M702.22,999.93a.64.64,0,0,0,0,.07l0,0h0a.22.22,0,0,0,0-.08l0,0Z" transform="translate(-657.56 -891.53)"></path><path class="cls-1" d="M697.7,998.8c-.18-.1-.35.48-.4.89s.14.48.3.48c.45,0,1-.54,1.32.31.64,1.56,1.57,1.07,2.44.81.36-.11.67-.56.84-1.29-.33-.19-.7-.29-.55-1.3-.36-.3-.73-.62-1.16-.45C699.56,998.61,698.64,999.29,697.7,998.8Z" transform="translate(-657.56 -891.53)"></path><path class="cls-1" d="M730.42,989.31h0l0,0Z" transform="translate(-657.56 -891.53)"></path><path class="cls-1" d="M728.22,987.67v0l0,0,0,0v.07Z" transform="translate(-657.56 -891.53)"></path><path class="cls-1" d="M726.48,988.7c-.66,0-1.22.61-1.84.82a.78.78,0,0,0-.16.46c0,.14.15.39.2.36,1.18-.7,2.39.09,3.58-.56.7-.39,1.46.18,2.15-.46-.46-.82-.93-1.52-1.61-1.35-.19,0-.39-.19-.58-.3A2.19,2.19,0,0,1,726.48,988.7Z" transform="translate(-657.56 -891.53)"></path><path class="cls-1" d="M690.86,996.06a.72.72,0,0,0,0,.29c.12.31.21.8.37.86a1.29,1.29,0,0,0,1.95-.64c.44-.8.84-.85,1.31-.51a1.78,1.78,0,0,0,.75.29c.07,0,.21-.19.23-.33s0-.49-.09-.49c-.93-.06-1.53-1.37-2.43-2.25.11,2.5-.49,3.61-1.43,3a5.73,5.73,0,0,1-.54-.46S690.88,996,690.86,996.06Z" transform="translate(-657.56 -891.53)"></path><path class="cls-1" d="M753.77,973.92s-.06-.21-.1-.22c-.59-.17-1.19.19-1.78-.37-.06-.06-.18.1-.25.22-.3.5-.59,1-.88,1.53a3,3,0,0,0-.14,1.43,7.34,7.34,0,0,1,3-2.13C753.71,974.36,753.74,974.09,753.77,973.92Z" transform="translate(-657.56 -891.53)"></path><path class="cls-1" d="M784.22,969.31c.06-.1.22-.2.25-.43a1.18,1.18,0,0,0-.4-1,10,10,0,0,0-.92-.92c-.28-.23-.52-.19-.63.28a2.45,2.45,0,0,0,.42,1.64A1,1,0,0,0,784.22,969.31Z" transform="translate(-657.56 -891.53)"></path><path class="cls-1" d="M705.41,1002.05a.78.78,0,0,0-.61.84c.08,1.16.46,0,.71.07.83.25,1.65-.75,2.51-.64.28,0,.32-.7.35-1.23C707.35,1000.69,706.4,1001.89,705.41,1002.05Z" transform="translate(-657.56 -891.53)"></path><path class="cls-1" d="M708.37,1001.06v0h0Z" transform="translate(-657.56 -891.53)"></path><path class="cls-1" d="M723.65,1003.83c.53-.22,1.07-.38,1.6-.6a.76.76,0,0,0,.52-.94c-.07-.59-.41-.6-.67-.55-.69.13-1.37.32-2.05.48,0,.18,0,.37,0,.55C723.11,1003.41,723.18,1004,723.65,1003.83Z" transform="translate(-657.56 -891.53)"></path><path class="cls-1" d="M723.05,1002.14l0,.09h0Z" transform="translate(-657.56 -891.53)"></path><path class="cls-1" d="M712.28,996.73l0,.07v-.08h0Z" transform="translate(-657.56 -891.53)"></path><path class="cls-1" d="M712.36,995.47v0h0v-.1h0l0,.05v0Z" transform="translate(-657.56 -891.53)"></path><path class="cls-1" d="M712.34,995.47a4.93,4.93,0,0,0-.13-.49c-.42-1-.66-1-1,.2a5.83,5.83,0,0,0-.17.87,7.56,7.56,0,0,0-.54,1c-.11.26-.05.7.11.7.6,0,1.23.19,1.7-1C711.92,996.05,711.92,995.94,712.34,995.47Z" transform="translate(-657.56 -891.53)"></path><path class="cls-1" d="M708.37,1001.09h0v0Z" transform="translate(-657.56 -891.53)"></path><path class="cls-1" d="M711.39,1000.29c-.08-.71-.39-.34-.62-.41-.5-.16-.91.38-1.36.69s-.65.74-1,.53c.41.8.83,1.36,1.44.36.24-.4.49-.07.68.26l0-.07c.1,0,.21.15.3.11A1.41,1.41,0,0,0,711.39,1000.29Z" transform="translate(-657.56 -891.53)"></path><path class="cls-1" d="M704.65,997.76h0v.08h0Z" transform="translate(-657.56 -891.53)"></path><path class="cls-1" d="M702.24,1000c.12.13.25.25.37.39.69.84.7.84,1.36-.45l.65-2a1.59,1.59,0,0,0-.59.36c-.6.76-1.14,1.21-1.68,0-.19-.43-.45.08-.64.46A1.86,1.86,0,0,1,702.24,1000Z" transform="translate(-657.56 -891.53)"></path><path class="cls-1" d="M701.71,998.67l-.05,0a.2.2,0,0,1,0,.07l0,0Z" transform="translate(-657.56 -891.53)"></path><path class="cls-1" d="M704,999.88h0v0Z" transform="translate(-657.56 -891.53)"></path><path class="cls-1" d="M707.88,999.84a3.18,3.18,0,0,0,1.49-1.12,1.07,1.07,0,0,0,.09-.54.44.44,0,0,0-.2-.34,1.42,1.42,0,0,0-.46,0c-.53,0-1,.88-1.51.74C707.26,999.4,707.43,999.92,707.88,999.84Z" transform="translate(-657.56 -891.53)"></path><path class="cls-1" d="M707.29,998.57v-.06l0,.06Z" transform="translate(-657.56 -891.53)"></path><path class="cls-1" d="M749.41,984.06l3.07-1.31C750.86,982.42,750.4,982.65,749.41,984.06Z" transform="translate(-657.56 -891.53)"></path><path class="cls-1" d="M778.28,979.69a3.55,3.55,0,0,1,.2-.39,1,1,0,0,0,0-.83c-.18-.39-.41-.45-.57-.22-.41.57-.8,1.19-1.19,1.79C777.38,980.88,777.94,980.92,778.28,979.69Z" transform="translate(-657.56 -891.53)"></path><path class="cls-1" d="M704.87,1000.24c.79-.63,1.67-.6,2.38-1.66a3.32,3.32,0,0,0-3.24,1.29C704.3,1000,704.64,1000.43,704.87,1000.24Z" transform="translate(-657.56 -891.53)"></path><path class="cls-1" d="M704,999.86l0,.06,0,0Z" transform="translate(-657.56 -891.53)"></path><path class="cls-1" d="M707.29,998.51s0,0,0,.07h0Z" transform="translate(-657.56 -891.53)"></path><path class="cls-1" d="M753,979.43a1.11,1.11,0,0,0-.29,1c.1.52.35.33.53.18.37-.3.72-.66,1.08-1a.49.49,0,0,0,.08-.5c-.09-.1-.18-.27-.27-.3C753.66,978.64,753.32,979.05,753,979.43Z" transform="translate(-657.56 -891.53)"></path><path class="cls-1" d="M660.85,1014.37c.07.23.17.49.3.54.49.21,1,.7,1.53-.23-.43-.37-.82-.89-1.33-.88C661.1,1013.81,660.78,1014.14,660.85,1014.37Z" transform="translate(-657.56 -891.53)"></path><path class="cls-1" d="M662.68,1014.68l0,0v0Z" transform="translate(-657.56 -891.53)"></path><path class="cls-1" d="M765.34,1028.5c-.43.3-.84.66-1.5,1.17a1.53,1.53,0,0,0,1.71.2c.3-.11.55-.4.55-1A.45.45,0,0,0,765.34,1028.5Z" transform="translate(-657.56 -891.53)"></path><path class="cls-1" d="M703.31,1003.2c-.4-.15-.69.34-1,.85a.52.52,0,0,0-.05.27,4.78,4.78,0,0,0,.23.47c.26-.16.56-.33.85-.54a.7.7,0,0,0,.16-.74A.46.46,0,0,0,703.31,1003.2Z" transform="translate(-657.56 -891.53)"></path><path class="cls-1" d="M740.11,978.07a2.67,2.67,0,0,0,0,.89c.09.43.29.6.51.57a1.34,1.34,0,0,0,1.13-.71l-.58-.59v0h0l0,.1c-.24-.17-.48-.36-.73-.51S740.15,977.72,740.11,978.07Z" transform="translate(-657.56 -891.53)"></path><path class="cls-1" d="M741.82,978.8l0,0,.07.07Z" transform="translate(-657.56 -891.53)"></path><path class="cls-1" d="M688.92,995.86h0l0,0v-.06c.36-.28.71-.54,1.06-.85a1,1,0,0,0,.3-1c-.09-.43-.34-.33-.55-.24a2.53,2.53,0,0,0-1.07,1.44l0-.09h0l0,.09h0Z" transform="translate(-657.56 -891.53)"></path><path class="cls-1" d="M772.28,902.32c.24.34.4.27.51,0a1.17,1.17,0,0,0,0-.89,1.19,1.19,0,0,0-.26-.39c-.2,0-.33.19-.41.56a1,1,0,0,0,0,.24A3.09,3.09,0,0,0,772.28,902.32Z" transform="translate(-657.56 -891.53)"></path><path class="cls-1" d="M722,997.93c.31.05.53-.57.46-1.31a2.42,2.42,0,0,0-.24-.7c-.25,1.23-.88,1.11-1.41,1.47A2.64,2.64,0,0,0,722,997.93Z" transform="translate(-657.56 -891.53)"></path><path class="cls-1" d="M722.25,995.89v0s0-.07,0-.12Z" transform="translate(-657.56 -891.53)"></path><path class="cls-1" d="M741.87,978.89v-.08h0Z" transform="translate(-657.56 -891.53)"></path><path class="cls-1" d="M743,979c.2,0,.41-.45.35-.76s-.21-.46-.36-.42c-.39.1-.77.25-1.16.39v.57C742.25,978.89,742.63,979,743,979Z" transform="translate(-657.56 -891.53)"></path><path class="cls-1" d="M726.69,995.94a.51.51,0,0,0,.21-.65c0-.14-.18-.27-.27-.24a1.67,1.67,0,0,0-.61.33,1.52,1.52,0,0,0-.19.44l.24.33A5.67,5.67,0,0,0,726.69,995.94Z" transform="translate(-657.56 -891.53)"></path><path class="cls-1" d="M716.73,1017.8a1,1,0,0,0-.35.52.4.4,0,0,0,.61.44.69.69,0,0,0,.26-.66C717.21,1017.76,717,1017.61,716.73,1017.8Z" transform="translate(-657.56 -891.53)"></path><path class="cls-1" d="M749.37,975.53a.43.43,0,0,0-.35.32c-.06.35.12.47.27.5l1.32.16h0C750.23,975.94,749.84,975.46,749.37,975.53Z" transform="translate(-657.56 -891.53)"></path><path class="cls-1" d="M727.37,1001.23a1,1,0,0,0,.15,1c.14.2.3.23.44,0a1.3,1.3,0,0,0-.16-1.09C727.67,1000.93,727.48,1001,727.37,1001.23Z" transform="translate(-657.56 -891.53)"></path><path class="cls-1" d="M769.59,901.2c.09,0,.13-.2.07-.56s-.26-.37-.36-.27a.67.67,0,0,0,0,.63C769.39,901.18,769.51,901.21,769.59,901.2Z" transform="translate(-657.56 -891.53)"></path><path class="cls-1" d="M715.2,991.52a1.34,1.34,0,0,0,.16-.41c0-.33-.17-.43-.32-.39s-.18.18-.21.32C714.75,991.38,715,991.7,715.2,991.52Z" transform="translate(-657.56 -891.53)"></path><path class="cls-1" d="M692.94,935.25l0-.08h-.06S692.93,935.22,692.94,935.25Z" transform="translate(-657.56 -891.53)"></path><path class="cls-1" d="M692.23,934.28a.7.7,0,0,0-.22.38.68.68,0,0,0,.11.4,5.47,5.47,0,0,0,.8.1C692.82,934.49,692.65,934,692.23,934.28Z" transform="translate(-657.56 -891.53)"></path><path class="cls-1" d="M761.53,1030.54a.47.47,0,0,0,.25.3c.17,0,.35,0,.33-.4,0-.1-.16-.21-.25-.31S761.52,1030.17,761.53,1030.54Z" transform="translate(-657.56 -891.53)"></path><path class="cls-1" d="M735.86,988.13a2,2,0,0,0,.16.46c.07.11.18.13.28.19s.23-.15.23-.26c0-.35-.11-.55-.26-.56S736,988.07,735.86,988.13Z" transform="translate(-657.56 -891.53)"></path><path class="cls-1" d="M745.51,985.48a2.7,2.7,0,0,0,.38-.21.93.93,0,0,0,.05-.31c-.17-.42-.34-.21-.49,0a1.43,1.43,0,0,0-.07.44S745.47,985.5,745.51,985.48Z" transform="translate(-657.56 -891.53)"></path><path class="cls-1" d="M770.47,902.89c-.45-.59-.62.09-.92.09C770,903.48,770.32,903.82,770.47,902.89Z" transform="translate(-657.56 -891.53)"></path><path class="cls-1" d="M769.53,903s0,0,0,0h0Z" transform="translate(-657.56 -891.53)"></path><path class="cls-1" d="M701.85,994.62h0Z" transform="translate(-657.56 -891.53)"></path><path class="cls-1" d="M701.71,993.7l0-.06h0Z" transform="translate(-657.56 -891.53)"></path><path class="cls-1" d="M702.38,994.23a1.21,1.21,0,0,0-.15-1c-.19-.17-.33.21-.49.43l.11,1C702.05,994.61,702.27,994.69,702.38,994.23Z" transform="translate(-657.56 -891.53)"></path><path class="cls-1" d="M745.72,974.71a.48.48,0,0,0-.35.33c-.06.4.14.4.26.4s.28-.07.3-.44C745.86,974.9,745.78,974.68,745.72,974.71Z" transform="translate(-657.56 -891.53)"></path><path class="cls-1" d="M726,991.68c0-.14-.13-.32-.19-.32s-.25.24-.23.58c.07.11.13.32.2.31S726,992,726,991.68Z" transform="translate(-657.56 -891.53)"></path><path class="cls-1" d="M805,960.86a.47.47,0,0,0-.16-.1c-.15.06-.22.22-.16.54a.51.51,0,0,0,.13.19,1.76,1.76,0,0,0,.29-.37A.79.79,0,0,0,805,960.86Z" transform="translate(-657.56 -891.53)"></path><path class="cls-1" d="M756.1,979c0-.23,0-.37-.15-.41s-.11.07-.12.15,0,.38.15.4S756.09,979.05,756.1,979Z" transform="translate(-657.56 -891.53)"></path><polygon class="cls-1" points="58.53 101.07 58.52 101.06 58.53 101.07 58.53 101.07"></polygon><path class="cls-1" d="M717.13,993.28c0-.16-.07-.45-.13-.47a5.83,5.83,0,0,0-.92-.21c.27.3.52.62.79.89C716.93,993.54,717,993.36,717.13,993.28Z" transform="translate(-657.56 -891.53)"></path><path class="cls-1" d="M686.58,997.38c.21.19.41.46.67.27a1.47,1.47,0,0,0,.21-.4c-.07-.12-.12-.3-.21-.35C687,996.74,686.79,997.09,686.58,997.38Z" transform="translate(-657.56 -891.53)"></path><path class="cls-1" d="M686.54,997.44h0v0l0,0,0,0Z" transform="translate(-657.56 -891.53)"></path><path class="cls-1" d="M687.57,1011.26a.27.27,0,0,0,.13-.16c.07-.23,0-.39-.09-.46s-.22.06-.23.31S687.44,1011.31,687.57,1011.26Z" transform="translate(-657.56 -891.53)"></path><path class="cls-1" d="M741,1016.88l1.47-1.36C741.89,1015.58,741.22,1015.42,741,1016.88Z" transform="translate(-657.56 -891.53)"></path><path class="cls-1" d="M707,1009.3s.06.12.09.18.3-.08.36-.42c0,0-.05-.17-.09-.18S707.05,1009,707,1009.3Z" transform="translate(-657.56 -891.53)"></path><path class="cls-1" d="M746.73,1004.22a1.38,1.38,0,0,0,.14-.42l-.26-.19c-.06.12-.18.24-.18.35C746.44,1004.35,746.59,1004.38,746.73,1004.22Z" transform="translate(-657.56 -891.53)"></path><path class="cls-1" d="M747.39,984.25a1.79,1.79,0,0,0,.2.26.37.37,0,0,0,.06-.19c0-.22-.08-.31-.19-.26Z" transform="translate(-657.56 -891.53)"></path><path class="cls-1" d="M700.46,995.07l0,0,0,.06S700.46,995.1,700.46,995.07Z" transform="translate(-657.56 -891.53)"></path><path class="cls-1" d="M701.84,994.62h0a3.9,3.9,0,0,0-.72-.39c-.32-.09-.57.16-.67.84A1.87,1.87,0,0,1,701.84,994.62Z" transform="translate(-657.56 -891.53)"></path><path class="cls-1" d="M718,989.93c0-.07-.08-.15-.1-.13a2.59,2.59,0,0,0-.19.33l.19.22A.34.34,0,0,0,718,989.93Z" transform="translate(-657.56 -891.53)"></path><path class="cls-1" d="M754.76,981.51a.29.29,0,0,0-.09-.19c-.11-.06-.18,0-.17.28a.52.52,0,0,0,.08.19C754.7,981.84,754.77,981.75,754.76,981.51Z" transform="translate(-657.56 -891.53)"></path><path class="cls-1" d="M750.77,980.14a2.19,2.19,0,0,0-.2.22l.06.22.2-.21Z" transform="translate(-657.56 -891.53)"></path><path class="cls-1" d="M662.7,1014.68v0h0Z" transform="translate(-657.56 -891.53)"></path><path class="cls-1" d="M663.47,1014.79c0-.13-.12-.32-.19-.31a2.17,2.17,0,0,0-.56.22,2.33,2.33,0,0,0,.45.55C663.31,1015.35,663.47,1015.16,663.47,1014.79Z" transform="translate(-657.56 -891.53)"></path><polygon class="cls-1" points="80.05 93.63 79.94 93.71 80.03 93.87 80.05 93.63"></polygon><path class="cls-1" d="M693.61,1006.05c-.1.17-.09.32,0,.38s.08-.08.12-.13,0-.2,0-.24S693.63,1006,693.61,1006.05Z" transform="translate(-657.56 -891.53)"></path><path class="cls-1" d="M698.13,1002.46s0-.17,0-.25l0-.24a.56.56,0,0,0-.09.19C698,1002.41,698,1002.53,698.13,1002.46Z" transform="translate(-657.56 -891.53)"></path><path class="cls-1" d="M696,1001.7a.76.76,0,0,0,0-.25.08.08,0,0,0-.13,0c-.12.19-.1.35,0,.4S696,1001.75,696,1001.7Z" transform="translate(-657.56 -891.53)"></path><path class="cls-1" d="M661.29,998.63a1.7,1.7,0,0,0,0-.28c0-.24-.11-.31-.21-.19a.57.57,0,0,0,0,.27C661.1,998.67,661.18,998.73,661.29,998.63Z" transform="translate(-657.56 -891.53)"></path><path class="cls-1" d="M745,977.56l-.05-.25-.13.09a.91.91,0,0,0,.06.25S744.94,977.6,745,977.56Z" transform="translate(-657.56 -891.53)"></path><path class="cls-1" d="M700.42,995.1c-.18-.34-.36-.67-.55-1C699.88,995.22,699.9,995.24,700.42,995.1Z" transform="translate(-657.56 -891.53)"></path><path class="cls-1" d="M700.43,995.09h0l0,0Z" transform="translate(-657.56 -891.53)"></path><polygon class="cls-1" points="45.74 100.84 45.77 101.06 45.86 100.88 45.74 100.84"></polygon><path class="cls-1" d="M722.3,983.93a.32.32,0,0,0,0-.22c0-.06-.06-.07-.1-.11s-.08.12-.08.17C722.14,984,722.21,984.08,722.3,983.93Z" transform="translate(-657.56 -891.53)"></path><polygon class="cls-1" points="33.56 102.66 33.63 102.86 33.69 102.66 33.56 102.66"></polygon><polygon class="cls-1" points="71.4 103.42 71.39 103.18 71.3 103.31 71.4 103.42"></polygon><path class="cls-1" d="M688.34,995.13l-.05.09h.06A.28.28,0,0,1,688.34,995.13Z" transform="translate(-657.56 -891.53)"></path><path class="cls-1" d="M688.92,995.86l-.26-.64h-.31C688.42,995.77,688.57,996.1,688.92,995.86Z" transform="translate(-657.56 -891.53)"></path><polygon class="cls-1" points="76.69 97.98 76.57 97.94 76.61 98.16 76.69 97.98"></polygon><polygon class="cls-1" points="90.09 85.3 90 85.27 90.04 85.43 90.09 85.3"></polygon><polygon class="cls-1" points="95.72 80.2 95.83 80.34 95.84 80.12 95.72 80.2"></polygon><path class="cls-1" d="M694.47,933.8s-.07,0-.11.06l0,.23.11-.07A1,1,0,0,0,694.47,933.8Z" transform="translate(-657.56 -891.53)"></path><polygon class="cls-1" points="121.6 88.92 121.62 89.12 121.7 89.06 121.6 88.92"></polygon><polygon class="cls-1" points="7.99 113.19 8.09 113.2 8.05 113.01 7.99 113.19"></polygon><polygon class="cls-1" points="66.92 104.79 66.78 104.81 66.85 105.02 66.92 104.79"></polygon><path class="cls-1" d="M659.73,1000.22a1.66,1.66,0,0,0,0,.27l.07.46c0-.16,0-.31,0-.46S659.83,1000.11,659.73,1000.22Z" transform="translate(-657.56 -891.53)"></path><path class="cls-1" d="M659.82,1001s0,.09,0,.14h0l0-.07Z" transform="translate(-657.56 -891.53)"></path><polygon class="cls-1" points="61.5 126.19 61.4 126.23 61.47 126.37 61.5 126.19"></polygon><polygon class="cls-1" points="86.78 124.04 86.67 124.01 86.72 124.2 86.78 124.04"></polygon><polygon class="cls-1" points="88.48 123.5 88.46 123.27 88.36 123.4 88.48 123.5"></polygon><path class="cls-1" d="M671.36,1011.94l0,.07,0,0Z" transform="translate(-657.56 -891.53)"></path><path class="cls-1" d="M671.81,1011.58s-.1,0-.14.07a2.55,2.55,0,0,0-.24.31.65.65,0,0,0,.24,0C671.8,1011.94,671.86,1011.78,671.81,1011.58Z" transform="translate(-657.56 -891.53)"></path><polygon class="cls-1" points="27.94 120.19 28.03 120.31 28.06 120.14 27.94 120.19"></polygon><path class="cls-1" d="M751.74,1012.36c0,.21.07.3.2.23a3.6,3.6,0,0,0,.4-.28h-.47S751.74,1012.34,751.74,1012.36Z" transform="translate(-657.56 -891.53)"></path><path class="cls-1" d="M745.61,982.84c0-.05-.07-.13-.1-.13s-.06.08-.09.13.07.14.1.14S745.58,982.89,745.61,982.84Z" transform="translate(-657.56 -891.53)"></path><path class="cls-1" d="M690.57,935.67a.74.74,0,0,0,0,.28c0,.14.07.28.1.42a3.73,3.73,0,0,0,0-.47C690.73,935.62,690.67,935.53,690.57,935.67Z" transform="translate(-657.56 -891.53)"></path><path class="cls-1" d="M760.81,891.59s-.07-.08-.07-.05,0,.22.07.21A.79.79,0,0,0,760.81,891.59Z" transform="translate(-657.56 -891.53)"></path><polygon class="cls-1" points="102.39 0.79 102.31 0.67 102.33 0.89 102.39 0.79"></polygon><path class="cls-1" d="M771.08,902.17s-.05,0-.07,0l.11.12Z" transform="translate(-657.56 -891.53)"></path><path class="cls-1" d="M771.18,902.33l-.06-.06.06.16Z" transform="translate(-657.56 -891.53)"></path><polygon class="cls-1" points="83.69 86.04 83.69 86.04 83.69 86.05 83.69 86.04 83.71 86.07 83.72 85.96 83.69 86.04"></polygon><path class="cls-1" d="M741.85,978.18v.06h0v-.08h-.08l.07.08Z" transform="translate(-657.56 -891.53)"></path><polygon class="cls-1" points="83.71 86.07 83.67 86.66 84.21 86.64 83.71 86.07"></polygon><path class="cls-1" d="M713.14,992.36l0,0,0,0v-.06l0,0Z" transform="translate(-657.56 -891.53)"></path><path class="cls-1" d="M701.4,992.86c.1.28.2.56.31.83l0-.06c-.1-.27-.21-.55-.31-.83Z" transform="translate(-657.56 -891.53)"></path><path class="cls-1" d="M699.77,994.08l.07,0,0,.06V994h0Z" transform="translate(-657.56 -891.53)"></path><path class="cls-1" d="M702.16,1010.23l.06-.07-.11.07Z" transform="translate(-657.56 -891.53)"></path><path class="cls-1" d="M734.71,1011.89l0-.07Z" transform="translate(-657.56 -891.53)"></path><path class="cls-1" d="M742.63,1015.51l-.09,0h0l0,0h.14Z" transform="translate(-657.56 -891.53)"></path><path class="cls-1" d="M687.47,1013.54l-.11.11h0Z" transform="translate(-657.56 -891.53)"></path><path class="cls-1" d="M708.55,1027v-.07l-.36,0h0l-.05.08h.06Z" transform="translate(-657.56 -891.53)"></path><polygon class="cls-1" points="49.6 39.61 49.56 39.61 49.55 39.7 49.6 39.61"></polygon><path class="cls-1" d="M707.16,930.59v0l0,0Z" transform="translate(-657.56 -891.53)"></path><path class="cls-1" d="M707.16,930.64l-.2-.17-.09.65.25,0Z" transform="translate(-657.56 -891.53)"></path><path class="cls-1" d="M706.87,931.12h0v.13l0,0Z" transform="translate(-657.56 -891.53)"></path><path class="cls-1" d="M707,930.41h0l-.07.08s0,0,0,0h0l0,0v-.06Z" transform="translate(-657.56 -891.53)"></path><path class="cls-1" d="M745.75,976.67l0,.08S745.75,976.67,745.75,976.67Z" transform="translate(-657.56 -891.53)"></path><path class="cls-1" d="M696.54,934.21l.09-.08h0Z" transform="translate(-657.56 -891.53)"></path><path class="cls-1" d="M726.36,982l.09-.09h0Z" transform="translate(-657.56 -891.53)"></path><path class="cls-1" d="M741.05,986.48l-.11.07h0Z" transform="translate(-657.56 -891.53)"></path><path class="cls-1" d="M710.22,989s0,.06-.05.06Z" transform="translate(-657.56 -891.53)"></path><path class="cls-1" d="M688,968.2c.34-.09.53-.6.66-1.2a1,1,0,0,0-1.3-.07,1.13,1.13,0,0,1-1.06.17,3.78,3.78,0,0,0-2.29.18,1,1,0,0,1-.9,0c-.65-.37-1.28-.08-1.91.46.13,1,.51,1.26,1,1.26s1-.42,1.45-.16a2.08,2.08,0,0,1,.42-.42c.53-.27,1,.35,1.61-.44s1,.43,1.58.3C687.52,968.24,687.77,968.28,688,968.2Z" transform="translate(-657.56 -891.53)"></path><path class="cls-1" d="M683.68,968.87h0l.07-.09-.1.08h0Z" transform="translate(-657.56 -891.53)"></path><path class="cls-1" d="M688.7,967l0,0,0,0Z" transform="translate(-657.56 -891.53)"></path><path class="cls-1" d="M718.41,958a21.44,21.44,0,0,0-5.89,2.24,1.83,1.83,0,0,0-.78,1.33,52.58,52.58,0,0,0,7.13-2.79C718.8,958,718.59,958,718.41,958Z" transform="translate(-657.56 -891.53)"></path><path class="cls-1" d="M711.74,961.56h0v0Z" transform="translate(-657.56 -891.53)"></path><path class="cls-1" d="M688.7,967V967l0,0Z" transform="translate(-657.56 -891.53)"></path><path class="cls-1" d="M692,967.88a7.61,7.61,0,0,1,2.68-.7c.43,0,.74-.56.83-1.5a7.49,7.49,0,0,1-5.49.73,1.11,1.11,0,0,0-1.28.58A2.82,2.82,0,0,0,692,967.88Z" transform="translate(-657.56 -891.53)"></path><path class="cls-1" d="M695.51,965.59s0,.06,0,.09l0,0Z" transform="translate(-657.56 -891.53)"></path><path class="cls-1" d="M731.75,959a20.24,20.24,0,0,0,2.11-1.1c.08,0,.13-.27.21-.45-.67-.68-1.31-.33-2,.1-.45.31-.89.83-1.39.56C731,958.7,731.34,959.18,731.75,959Z" transform="translate(-657.56 -891.53)"></path><path class="cls-1" d="M730.71,958.09s0,0,0,0h0Z" transform="translate(-657.56 -891.53)"></path><path class="cls-1" d="M695.51,965.6l0,.06h0Z" transform="translate(-657.56 -891.53)"></path><path class="cls-1" d="M697.28,965.32c-.64.25-1.15-.58-1.74.33a6.88,6.88,0,0,0,.62,1C696.54,967.08,696.71,966.87,697.28,965.32Z" transform="translate(-657.56 -891.53)"></path><path class="cls-1" d="M706.89,962.81c-.54-.24-1.07-.77-1.63.23a.84.84,0,0,0,0,.27C705.81,963.65,706.36,963.48,706.89,962.81Z" transform="translate(-657.56 -891.53)"></path><path class="cls-1" d="M710.56,962c.38-.12.75-.29,1.13-.43-.25-.23-.5-.46-.75-.66a.47.47,0,0,0-.27-.1c-.2,0-.39,0-.52.44a.89.89,0,0,0,0,.28C710.18,962,710.37,962.07,710.56,962Z" transform="translate(-657.56 -891.53)"></path><path class="cls-1" d="M711.71,961.57h0l0,0Z" transform="translate(-657.56 -891.53)"></path><path class="cls-1" d="M676.6,967.89c-.26-.11-.5.05-.67.57a.59.59,0,0,0,0,.29c.12.57.39.44.63.34s.29-.28.33-.62S676.76,968,676.6,967.89Z" transform="translate(-657.56 -891.53)"></path><path class="cls-1" d="M674.21,968.89c0,.11.07.37.12.38.22,0,.38-.19.48-.62,0-.14-.07-.38-.13-.39S674.29,968.44,674.21,968.89Z" transform="translate(-657.56 -891.53)"></path><path class="cls-1" d="M737.81,956.66Z" transform="translate(-657.56 -891.53)"></path><path class="cls-1" d="M738.36,955.33c-.06-.11-.18-.18-.25-.13-.35.22-.28.89-.3,1.46a8.53,8.53,0,0,0,.55-.83A1.06,1.06,0,0,0,738.36,955.33Z" transform="translate(-657.56 -891.53)"></path><path class="cls-1" d="M698.52,965.94c.27.12.46-.17.57-.72a1.71,1.71,0,0,0-.55-.05c-.06,0-.18.26-.18.39A.52.52,0,0,0,698.52,965.94Z" transform="translate(-657.56 -891.53)"></path><polygon class="cls-1" points="80.25 65.14 80.25 65.13 80.25 65.14 80.25 65.14"></polygon><path class="cls-1" d="M737,956.55a6.1,6.1,0,0,0,.83.11c-.24-.29-.49-.61-.74-.86s-.36.22-.29.41S736.9,956.53,737,956.55Z" transform="translate(-657.56 -891.53)"></path><path class="cls-1" d="M745.35,947.64a.45.45,0,0,0,0-.25c-.11-.11-.17,0-.16.24,0,.06.07.11.11.16S745.34,947.71,745.35,947.64Z" transform="translate(-657.56 -891.53)"></path><path class="cls-1" d="M679.77,968c-.13,0-.16.14-.07.32a.09.09,0,0,0,.12,0s0-.15.06-.22S679.81,968,679.77,968Z" transform="translate(-657.56 -891.53)"></path><path class="cls-1" d="M752.7,943.83a1.71,1.71,0,0,0,0-.23.07.07,0,0,0-.11,0c-.1.17-.08.3.05.33S752.66,943.88,752.7,943.83Z" transform="translate(-657.56 -891.53)"></path><path class="cls-1" d="M702.12,964.22c-.07-.07-.15-.16-.22-.22a1.32,1.32,0,0,0-.07.23,1.61,1.61,0,0,0,.22.23S702.1,964.31,702.12,964.22Z" transform="translate(-657.56 -891.53)"></path><path class="cls-1" d="M699.7,965.33c-.06-.06-.11-.17-.18-.18a3.06,3.06,0,0,0-.4.07,1.17,1.17,0,0,0,.36.25C699.54,965.5,699.63,965.38,699.7,965.33Z" transform="translate(-657.56 -891.53)"></path><path class="cls-1" d="M699.12,965.22h0v0Z" transform="translate(-657.56 -891.53)"></path><path class="cls-1" d="M680.74,967.62v.08h0l0,.1,0-.11.42.1h0l0,0h0Z" transform="translate(-657.56 -891.53)"></path><path class="cls-1" d="M743.65,926.53a6.38,6.38,0,0,0-2.42.82c-1.79,1.41-3.69,1.65-5.56,2.65a9.66,9.66,0,0,1-1.33.41c-.17.07-.37.28-.35.78s.25.69.41.56c1-.79,2.13-.74,3.16-1.37a8.65,8.65,0,0,1,4-1.59,1.21,1.21,0,0,0,1-.61,2.38,2.38,0,0,1,1.08-.89c.07,0,.12-.26.17-.39S743.7,926.51,743.65,926.53Z" transform="translate(-657.56 -891.53)"></path><path class="cls-1" d="M724.9,933.68a19.87,19.87,0,0,0-2.48,1,9.41,9.41,0,0,1-2.35,1.14,3.43,3.43,0,0,0-1.1.67.85.85,0,0,0-.18.75,1.74,1.74,0,0,0,.27.6c0,.06.09,0,.13,0s.2,0,.29,0l2.61-1.42c.37-.19.75-.5,1.11-.42.7.15,1.26-.77,1.88-1.14.14-.08.2-.46.15-.79S725.05,933.62,724.9,933.68Z" transform="translate(-657.56 -891.53)"></path><path class="cls-1" d="M750.08,923.06a.28.28,0,0,0-.25,0,29.73,29.73,0,0,0-4.58,2.66,1,1,0,0,0-.2.33.86.86,0,0,0,0,.29.56.56,0,0,0,.08.23c.12.08.25.13.42.22.25-.11.58-.08.83-.39.71-.94,1.52-.93,2.28-1.33.4-.21.82-.31,1.21-.54a1.5,1.5,0,0,0,.4-.61,1.36,1.36,0,0,0,0-.55A.53.53,0,0,0,750.08,923.06Z" transform="translate(-657.56 -891.53)"></path><path class="cls-1" d="M716.05,938.83c.56.42,1.12.18,1.68-.19A.58.58,0,0,0,718,938c0-.22-.2-.45-.31-.45a4,4,0,0,0-1.13.17c-.47.14-.94.34-1.41.52h0C715.43,938.44,715.74,938.61,716.05,938.83Z" transform="translate(-657.56 -891.53)"></path><path class="cls-1" d="M751.74,922.43a.91.91,0,0,0-.08.45c.06.36.2.39.31.28a1.66,1.66,0,0,0,.09-.44C752,922.38,751.85,922.3,751.74,922.43Z" transform="translate(-657.56 -891.53)"></path><path class="cls-1" d="M726.71,933.34h0s0,.06,0,.08h0Z" transform="translate(-657.56 -891.53)"></path><path class="cls-1" d="M726.13,934.28a.33.33,0,0,0,.07.23c.36.1.4-.56.5-1.08C726.45,933.51,726.17,933.45,726.13,934.28Z" transform="translate(-657.56 -891.53)"></path><path class="cls-1" d="M757.54,915.17l0,.06C757.61,915,757.54,915.22,757.54,915.17Z" transform="translate(-657.56 -891.53)"></path><path class="cls-1" d="M731.2,932.54l-.22-.12h0Z" transform="translate(-657.56 -891.53)"></path><polygon class="cls-1" points="99.98 23.64 99.77 24.42 99.8 24.49 100.01 23.7 99.98 23.64"></polygon><path class="cls-1" d="M753,925.1l.08-.12h0Z" transform="translate(-657.56 -891.53)"></path><path class="cls-1" d="M781.29,933.19v0Z" transform="translate(-657.56 -891.53)"></path><path class="cls-1" d="M729.3,1023.21l0,.11v.08Z" transform="translate(-657.56 -891.53)"></path></svg>
