<svg id="Layer_1" data-name="Layer 1" xmlns="http://www.w3.org/2000/svg" viewBox="0 0 142.08 163.3"><defs><style>.cls-1{fill:#0f0619;}</style></defs><path class="cls-1" d="M1001.19,1027.41h0s0,.07,0,.1Z" transform="translate(-892.65 -886.68)"></path><path class="cls-1" d="M1034.72,945.23a13.09,13.09,0,0,0-1.43.37c-1,.3-4.1,3.31-5.27,5.13a15.32,15.32,0,0,1-3.62,3.88,2.17,2.17,0,0,0-1,1c-.15.28-.32.7-.22.92s.27-.12.43-.21c.14,2,.09,2.05-.84,3.08s-1.78,2.66-2.65,3.33a15,15,0,0,0-3.14,3.48,15.55,15.55,0,0,1-1.92,2.11c-.25.27-.52.45-.71.17-.32-.46-.67-.21-1,.22s-.58.48-.83.2a.79.79,0,0,1,0-.6,2.39,2.39,0,0,1,.32-.71c1.32-1.21,2.67-3.51,4.12-4.39a3.31,3.31,0,0,0,.67-.71,6.09,6.09,0,0,0,1.34-4.05,3,3,0,0,1,.59-1.84,38.47,38.47,0,0,1,2.92-3.17c.67-.51,1.35-1.07,2-1.64l2.19-1.67c.94-.7,1.29-1.5,1.5-3.4a28.49,28.49,0,0,1,.64-4.2,3.94,3.94,0,0,0,1.34-2.56,2.45,2.45,0,0,1,.63-1.59c1.09-.86,1.57-2.65,2.36-4.07-.9-.1-1.69.55-2.44,1.74-.93,1.48-1.92,2.35-3,2.29-.11,0-.21-.19-.26-.36s0-.52.19-.57c1.58-.43,2.52-2.72,3.53-4.87a2.08,2.08,0,0,0,0-1.93c-.3-.57-1-.53-1.38.15a29.72,29.72,0,0,0-2.44,4.41,5.12,5.12,0,0,1-2.43,3,10.2,10.2,0,0,0-3.25,2.42c-1,1.06-2,2.41-2.94,3.27-1.85,1.63-3.55,3.13-5.22,4.7-.3.28-.59.21-.87.33-.76.29-1.53.46-2,2.7-.25,1.11-.73,1.82-1.24,1.79a3.51,3.51,0,0,0-2.83,1.57c-.29.35-.53.2-.72-.42a4,4,0,0,1,.05-2.36c.7-1.73,1.49-3.33,2.46-3.82.67-.35,1.3-1.18,2-1.6a2.65,2.65,0,0,0,.85-2.06,4.47,4.47,0,0,1,1.16-3c.2-.19.4-.4.6-.6a1.68,1.68,0,0,0,.44-1.09,6.71,6.71,0,0,1,2.14-4.72c.69-.77,1.39-1.48,2.08-2.4s1.23-1.57,1.85-2.38a25.42,25.42,0,0,0,1.92-2.6c.29-.44.61-.71.92-.68a6.82,6.82,0,0,1,1.84.36c.44.16.58,1,.42,2a5.11,5.11,0,0,1-.69,2,6.66,6.66,0,0,0-.79,1.27,4.18,4.18,0,0,0-.23,1.39c0,.56.25.62.49.66.69.12,1.43-.43,2.08-1.27a42.75,42.75,0,0,0,3.8-5.15,2.65,2.65,0,0,0,.61-1.53c-.35-.57-.94-.08-1.35-.35a2.62,2.62,0,0,0-1.36-.39c-.41,0-1,.71-1.19-.42a4.57,4.57,0,0,1,1.3-1.73,4.89,4.89,0,0,0,1-2.1c.24-1,0-1.84-.61-1.62a14.34,14.34,0,0,0-2.16,1.13c-1.72,1.09-1.92.75-1.42-2.34a1.15,1.15,0,0,0-.08-.32c-.47-.43-1.06.15-1.59,0a.89.89,0,0,1-.77-.83c-.26-1.59-.88-1.41-1.57-.83s-1.53,1-2.3.7c-.31-.14-.47-.92-.24-1.43.36-.79.77-1.51,1.12-2.31a1.19,1.19,0,0,0-.05-1.24c-.21-.19-.56-.14-.52-.77a1.71,1.71,0,0,1,.56-1.1,1.34,1.34,0,0,0,.39-1.19c-.1-.51-.4-.65-.67-.47a1.48,1.48,0,0,1-1.9,0,9.51,9.51,0,0,1-1.46-1.69,3.25,3.25,0,0,1-.53-2.82c.16-.75-.15-1.11-.52-1.13a2.28,2.28,0,0,0-.79.19c-.75.26-1.53.53-2.25.81s-1.42.56-2.13.77a4.55,4.55,0,0,1-3.31-.29c-.74-.34-1.21-1.09-1.37-2.46a7.55,7.55,0,0,0-1.88-4.67,4.33,4.33,0,0,1-.57-.94c-1.12-2.2-2.44-2.73-3.87-2.37a10.55,10.55,0,0,1-1.25.11,5.44,5.44,0,0,1-1.9-.25,5.18,5.18,0,0,0-1.81-.25c-1.5.16-3,0-4.5.21a3.79,3.79,0,0,0-1.48.42,4.24,4.24,0,0,1-2,.48c-1.19.07-2.35-.15-3.44.48a21.52,21.52,0,0,1-2,.95c-.9.42-1.82.21-2.68.54-3,1.12-5.89,2-8.76,3a15.89,15.89,0,0,1-7.12.48,34.82,34.82,0,0,1-9.39-2.08c-3.43-1.36-6.77-1.78-10.25-3.7a2.94,2.94,0,0,0-.61-.21c-2.3-.7-4.55-.79-6.92-2.25-.15-.09-.3,0-.45-.09-2.23-.48-4.42-.84-6.65-1.46a19,19,0,0,0-6.16-.32c-.28,0-.58.21-.86-.09a2.26,2.26,0,0,0-2.39-.69,7.85,7.85,0,0,1-3.72-.86,19.43,19.43,0,0,0-4.93-1.34c-2.15-.3-4.23-.47-6.37-.87a3,3,0,0,0-1.8,0,5.82,5.82,0,0,1-2.14.45c-1.65.1-3,1.27-4.17,3-1.51,2.29-2,6.14-.83,12.15a21.65,21.65,0,0,1,.41,5.42c-.19,2.59-.2,5.43-.16,8.29,0,3.43.23,7,.56,10.67A53.86,53.86,0,0,0,896.7,940a45.42,45.42,0,0,1,1.76,6.77,12.2,12.2,0,0,0,1.68,4.75,14.5,14.5,0,0,1,1.38,2.79,4.62,4.62,0,0,1,.39,2.62c-.15.7-.39,1.24-.57,1.9a4.61,4.61,0,0,0,.57,3.61,13,13,0,0,1,1.36,3.46,27.37,27.37,0,0,0,2.28,6.1c.32.7.73,1,.94.61a8.12,8.12,0,0,0,.27-.79c.45-1,.84-.81,1.64.74.19.35.34.84.51,1.26l0,0,.24.89,0,0c.63,3.06.73,3.27,1.72,3.56a1.06,1.06,0,0,0,.53,0c1.12-.26,2.28,1.4,3.46,3.69a12.46,12.46,0,0,1,1.57,5.31c.44.48.88.91,1.33,1.49.79,1,1.58,2.24,2.35,2.42.24.06.49.55.68,1.18a17.25,17.25,0,0,0,2.16,4.51l2.18,3.51a16.47,16.47,0,0,0,3.81,4.59c1.94,1.27,3.89,2.74,5.82,4.24,2.6,2,5.15,3.84,7.68,5.73.88.66,1.74,1.17,2.61,1.84s.77.76.89,2.53c0,.57.08,1.15.17,1.74s.32,1.34.55,1.44c1,.45,1.94,2.08,2.89,3.11a25.68,25.68,0,0,0,4.29,3.6,8.45,8.45,0,0,1,2.64,2.35c.76,1.1,1.52,2,2.26,3a13.7,13.7,0,0,0,3.75,3.61,32.52,32.52,0,0,0,4,2.23,10.53,10.53,0,0,1,2.38,1.29,8.48,8.48,0,0,0,2.16,1.46,3,3,0,0,1,1.48.8,10.75,10.75,0,0,0,4,2.81c.91.4,1.81.71,2.7,1a17.06,17.06,0,0,0,3.86,1.37c.71.11,1.35-.45,2.13.22a1.81,1.81,0,0,0,1.46.4c.88,0,1.78,0,2.67,0s1.84.46,2.69-.11a.38.38,0,0,1,.42,0c.67.37,1.24-.14,1.85-.4.21-.09.4-.37.62-.45a7.62,7.62,0,0,0,1.42-.47c.47-.29,1.07.44,1.42-.75.05-.15.14,0,.21.06.32.22.61.08.9-.14l.86-.67q.39-.32.78-.69c.51-.51,1.07-1.36,1.5-1.58a4.27,4.27,0,0,0,1-1.53,4.07,4.07,0,0,0,.92-2.17c0-.22.1-.34.14-.3s.4-.18.56-.59a7.63,7.63,0,0,1,.45-1.16,12,12,0,0,0,.77-2.87,6.64,6.64,0,0,0,.09-.91,1.7,1.7,0,0,0,0-.41c-.05-.3-.13-.23-.23.06s-.19.65-.26.51a1.46,1.46,0,0,1,0-.38c0-.19,0-.51.05-.69.09-.68.19-1,.28-1a1.86,1.86,0,0,0,.38-.48c.09-.21.19-.48.29-.8s.19-.2.09,1.08c0,.59-.07,1.16,0,.93a6.78,6.78,0,0,0,.45-1.93c.31-2.17.58-3.65.83-4.63l.23-1.09c0-.32-.21.14-.36.61a4.05,4.05,0,0,0-.17.76,4.66,4.66,0,0,1-.41,1.35c-.3.65-.57,1.48-.86,2.2a5.51,5.51,0,0,0-.53,1c-.2.6-.38,1.15-.56,1.64l-.26.7-.32.66c-.43.83-.84,1.51-1.24,2.14l-1.56,2.21c-.42.6-1,1.28-1.43,1.89a15.74,15.74,0,0,1-1.49,1.76c-.78.8-1.55,1-2.41,1.78s-1.61.49-2.42,1.58c-.21.29-.48.19-.73.21-.51,0-1,0-1.52.06a6,6,0,0,1-1.59.08,33,33,0,0,0-6.8-.41,9.19,9.19,0,0,1-1.63-.32c-.28-.07-.57-.28-.87-1-.53-1.33-.91-1.53-1.21-.38s-.75,1-1.35-.07a2.43,2.43,0,0,0-.91-1.12c-.92-.43-1.89-1.53-2.78-1.38-.44.08-1-.41-1.47-.69a1.35,1.35,0,0,1-.2-.51c-.09-.43,0-.67.09-.69a2.72,2.72,0,0,1,.75,0c.26,0,.55.3.78.18,1.06-.57,2.26,0,3.49,1.09a2,2,0,0,0,2.39.47,6.62,6.62,0,0,1,3-.68,13.58,13.58,0,0,0,3-.14,7.41,7.41,0,0,1,2.93.1c.18.06.34-.17.52-.25a10.51,10.51,0,0,1,2.07-.89,3.87,3.87,0,0,0,1.27-.42,16.34,16.34,0,0,0,2.57-1.46c1.2-1,2.25-1.46,3.34-3.06.42-.64.87-.53,1.25-1.82,0-.18.14-.08.2-.16.93-1.08,1.65-2,2.5-3.16.64-.89,1.17-2.41,1.81-2.8a.56.56,0,0,0,.18-.31,20.06,20.06,0,0,1,1.57-4.07c.33-.72.55-1.41.82-2a6.83,6.83,0,0,1,.79-1.46,5.77,5.77,0,0,0,.56-1.49c.25-.73.49-1.46.75-2.23a26.2,26.2,0,0,0,.83-2.65,3.42,3.42,0,0,1,.42-1.12,3.17,3.17,0,0,0,.2-.53c0-.16.15-.62.21-.95,0-.11,0-.35,0-.31a4.15,4.15,0,0,0-.39.89c-.15.49-.3,1-.44,1.41l-.5,1.4c-.26.78-.41,1.3-.42.37,0-.29-.1,0-.19.42s-.22,1-.31,1.36c-.23.94-.59,2-.75,1.46s-.36-.76-.67.6c-.06.28-.09-.34,0-.86a9.1,9.1,0,0,1,.18-1.29,9.55,9.55,0,0,1,.75-2,18.09,18.09,0,0,0,1.33-3,22.74,22.74,0,0,1,1.16-3c.45-.86.69-1.6,1.1-2.49s.84-1.83,1.21-2.74.75-1.79,1.16-2.58a16,16,0,0,0,.64-1.62,7.38,7.38,0,0,0,.37-1.3c0-.29.06-.63,0-.54a9.75,9.75,0,0,0-1.09,2.19c-.19.47-.4,1.12-.53,1.32-.61.86-1.4,3-1.89,3.74a7.69,7.69,0,0,0-.36.85,19.78,19.78,0,0,1-1.52,3.23,20.56,20.56,0,0,0-1.83,3.5,15.18,15.18,0,0,1-1.16,2.32,11.12,11.12,0,0,0-1.54,2.93c-.09.26-.19.29-.28.47-.76,1.36-1.41,1.75-2.16,3.47-.14.33-.34.54-.44,0-.24-1.19-.43-.44-.63.28-.37,1.38-.77,1.88-1.27,1.91v0c-.3,0-.59,0-.85.59-.1.22-.24-1.33-.3-.24-.12,1.94-.41,2.48-.78,2.86-.19.19-.41.16-.55.58s-.42-1.49-.55-.11c-.08.86-.26,1-.44,1.18l-.16.14c-.24.21-.49.29-.7.65a2.27,2.27,0,0,1-1.74,1.21,1.49,1.49,0,0,0-.75.38c-.71.58-1.45,1.28-2.17,1.85a2.82,2.82,0,0,1-1,.43c-.12,0-.28-.1-.35-.72a1,1,0,0,1,.11-.72s.07,0,.09-.1a2,2,0,0,0,.14-.62c0-.43-.15-.51-.24-.48l-3.38.93c-.35.1-.56.67-.61,1.87,0,.44,0,1-.15,1s-.22-.68-.3-1.1-.24-.74-.39-.83-.43.14-.59.52c-.11,1.55-.16,1.74-.45.93s-.61-1.06-.94-1.13a4.92,4.92,0,0,0-3.26.12c-.37.18-.77,0-1.2-.44a1.66,1.66,0,0,1-.18-.56,1.84,1.84,0,0,1,0-.62c.13-.61.38-.62.63-.61a2.64,2.64,0,0,0,1.51-.4,4.6,4.6,0,0,1,1.57-.68c.5-.09.88-1.18,1.45-.59s.75-1.82,1.34-1.57c0,0,0,0,.05,0v.2a4.45,4.45,0,0,0-.07.89c.07.64.25.78.37.73a4.65,4.65,0,0,0,2.22-1.24c.08-.09.25-.16.11-.88-1,.37-1,.36-1.73-1.07h0c.1-.4.24-.64.41-.54.53.3,1-.17,1.43-.45a8.07,8.07,0,0,0,1.56-1.46,4.1,4.1,0,0,1,1.54-1.23c.65-.22,1.3-.84,1.91-1.09a4.24,4.24,0,0,0,1.4-1c.2-.19.4-.51.61-.52.69,0,1.19-.81,1.72-2.05a2.18,2.18,0,0,1,.57-.72,9.21,9.21,0,0,0,2.12-2.66,3.06,3.06,0,0,1,.49-.63,17.29,17.29,0,0,0,1.39-1.79,21.09,21.09,0,0,1,2.18-3.17c.37-.4.73-1.2,1.1-1.69a5.77,5.77,0,0,0,.55-3c.07-.26.16-.66.2-.61.46.65.94-.47,1.35-.13.12.1.24.24.38-.21a11.78,11.78,0,0,1,2-3.9,4.69,4.69,0,0,0,.73-1.87c.54-2.56,1.26-3.75,1.9-4.4a4,4,0,0,0,1.07-1.37,9.57,9.57,0,0,1,1.78-2.5c.36-.45.68-.52,1.12-1.32s.74-.72,1-.69a1.61,1.61,0,0,1,0,.47,2.34,2.34,0,0,1-.09.33c-.1.26-.21.52-.31.76-1,2.24-1.86,3.08-2.7,5.06-1,1.24-2.11,4-3,5.71-.78,1.38-1.5,2.89-2.17,3.25a2.46,2.46,0,0,0-.47,1c-.48,1.5-.91,2.58-1.35,1.68-.1-.19-.2.33-.24.86-.08,1,0,1.88.21,1.51a14.64,14.64,0,0,1,1.71-2.47,3.73,3.73,0,0,0,.37-.75,16.34,16.34,0,0,1,2.58-4.44c.1-.11.2-.08.3-.37.62-1.9,1.19-1.92,1.66-2.66.33-.49.79-1.72,1-1.6.46.19,1-1.33,1.54-1.75a9.78,9.78,0,0,0,1.52-3.64c.33-1.15.68-2.05,1-3,.42-1.1.49-2.07.82-3.13l.24-.68a7.73,7.73,0,0,0,.65-2.21c0-.44-.44.51-.65.71s-.22.23-.31.23-.07-.16-.05-.33a3,3,0,0,1,.18-.65c.48-1.12.94-1.78,1.27-1.6.15.1.26.3.41.36s.22,0,.37-.13a4.9,4.9,0,0,0,1-2c.15-.84-.15-.55-.34-.51s-.44.22-.34-.56a5.87,5.87,0,0,1,.8-2.16c.09-.15.18-.22.28-.37a4.75,4.75,0,0,0,.92-2.68c.31-2.15.53-2.94,1.51-4.25a10.85,10.85,0,0,1,1-1.11,6.81,6.81,0,0,0,1.5-2.8c.53-1.69.59-1.7.1-2.54-.15-.26-.37-.42-.09-1.21.44-1.21.19-1.43-.2-1.49-.2,0-.39-.13-.3-.7a2.09,2.09,0,0,1,.59-1.12c.49-.58,1-1.13,1.46-1.72a2.54,2.54,0,0,0,.51-.76,13.56,13.56,0,0,1,4.1-6.18,3.28,3.28,0,0,0,.56-.81A1.1,1.1,0,0,0,1034.72,945.23ZM926.4,994.46c-.57-.31-1.08,0-2-1.25.69-.31,1.31.25,1.88.56a.62.62,0,0,1,.12.26C926.44,994.2,926.43,994.48,926.4,994.46Zm2.4-16.61a.74.74,0,0,1-.08-.22c0-.06,0-.1,0-.14a.85.85,0,0,1,.08.22A.26.26,0,0,1,928.8,977.85ZM990.52,1037a1.13,1.13,0,0,1,.12-.37,3.56,3.56,0,0,0,1.45-1.59c.75.75,1.3-.74,2-.72s1.46-.86,2.23-.76c.14,0,.28-.12.4-.32,1-1.79,2.27-2.67,3.28-3.91a1.12,1.12,0,0,0,.26-.61c.11-.76.26-1,.45-.74s.35-.08.5-.54a4.05,4.05,0,0,1,.08-.44,5.14,5.14,0,0,1,1.8-2.77c.24.74.44,0,.62-.71s.4-1.1.54.21c0,.4.16.07.23-.3a4.06,4.06,0,0,1,.41-1.4,1.24,1.24,0,0,1,.11-.23s0,.1,0,.15a2.7,2.7,0,0,0,.2-.52,2,2,0,0,0,0-1.31c.05-.73.15-.5.22-.51.27,0,.46-.13.69-.77.35-1,.7-1,1.08-2.23.06-.19.13-.14.19-.13s.13.33.1.85c0,.33-.06.83-.1,1-.25,1.07-.49,2.1-.73,3.1a2.07,2.07,0,0,1-.23.71c-.53.17-1,2.12-1.59,3-.31.45-.61,1-.9,1.47-.14.26-.29.5-.43.75s-.32.48-.48.69a10.78,10.78,0,0,0-2,2.83,2,2,0,0,1-1.05,1.18,5.08,5.08,0,0,0-1.7,1.25,20.67,20.67,0,0,1-1.51,1.57c-.53.5-1.07,1-1.6,1.42-.31.26-.66,0-1,.17-1,.44-2,.94-3,1.4a.54.54,0,0,1-.46,0,2.18,2.18,0,0,1-.14-.54A1,1,0,0,1,990.52,1037Zm-1.79-4.51a9.93,9.93,0,0,1,.9-1s.13.2.16.37a2.91,2.91,0,0,1,0,.65c-.13.74-.38.72-.67.91-.06,0-.19-.05-.31-.1a.37.37,0,0,1-.09-.21A4.37,4.37,0,0,1,988.73,1032.46Zm-1.7.17a2.49,2.49,0,0,1,.08-.32,5.11,5.11,0,0,1,0,.53c0,.32,0,.35-.11.11A1.15,1.15,0,0,1,987,1032.63Zm-3,1.19c.1.06.11.18.05.33L984,1034A.9.9,0,0,1,984.05,1033.82Zm-1.23-.11c.07.25.06.35,0,.3a1.38,1.38,0,0,1,0-.26S982.82,1033.69,982.82,1033.71Zm36-81.45c.35-1.19.7-2.38,1.06-3.58-.06.7-.09,1.41-.18,2.12C1019.54,951.88,1019.42,952.07,1018.79,952.26Zm-9.43,3.18a1.17,1.17,0,0,1,.17-.54,1.27,1.27,0,0,1,.68-.22c.69,0,1.37-.29,2-1.42.21-.35.47-.78.68-.77.86,0,1.62-1.28,2.42-2.27a29.29,29.29,0,0,1,2.06-2.32,15.87,15.87,0,0,1,2.22-1.81,4.61,4.61,0,0,0,.79-.91c1.48-1.94,3.16-2.64,4.87-3.74a.31.31,0,0,1,.35-.05c.47.39.72,1.33,1.54.54s.94.84,1.6.59a2.64,2.64,0,0,0-.25.47,8.09,8.09,0,0,1-3.82,4.83,9.63,9.63,0,0,0-3.3,2.66c-.14.18-.34.28-.45.21s-.19-.38-.23-.66a1.73,1.73,0,0,1,.1-.66,10.6,10.6,0,0,1,.91-1.27,3.74,3.74,0,0,0,.64-2.07c-.33.61-.74,1.39-1,1.13-.64-.6-1.06.51-1.51,1.51h0a12.72,12.72,0,0,0-2.37,3.18c-.44.78-.86,1.14-1.19.19-.2-.57-.53-.23-.8.3-.16.33-.28.81-.43,1.2-.29.76-.42.24-.56-.17l0,.08a20.62,20.62,0,0,1-1.7,1.42,3.88,3.88,0,0,0-1.35,1.27c-.78,1.27-1.4.62-2-.1A1.37,1.37,0,0,1,1009.36,955.44Zm9.35-3.11c-.2.38-.4.79-.61,1.13-.05.08-.14-.07-.21-.11a3.59,3.59,0,0,1,.18-.6C1018.28,952.36,1018.5,952.31,1018.71,952.33Zm-2.1,2.35a1.62,1.62,0,0,1-.65,1,1.31,1.31,0,0,1-.1-.4c.08-.63.45-1.22.7-1.09A1.16,1.16,0,0,1,1016.61,954.68Zm-8.83-7.89c-.08.11-.18.13-.27.2s-.11-.06-.12-.12a2.44,2.44,0,0,1,0-.61,1.09,1.09,0,0,1,.22-.43c.14-.18.31-.3.37.1A1.21,1.21,0,0,1,1007.78,946.79Zm1.32-2.25c0,.16-.14.26-.22.39a1.7,1.7,0,0,1-.16-.48,1,1,0,0,1,.18-.51C1009.08,943.83,1009.16,944.12,1009.1,944.54Zm-2.49-8.21a1.63,1.63,0,0,1-.13-1.26,7.35,7.35,0,0,1,1.9-3.93,11.25,11.25,0,0,0,2.23-4c.68-2,1.6-3,2.7-3.41.69-.26.71-.27.71,1.93a17.9,17.9,0,0,1,1.49-1.42c.29-.23.69-.62.88-.41.83.92,1.54.21,2.33-.85a1,1,0,0,1,.74-.31c.8-.12,1.4.52,1.42,1.5a4.86,4.86,0,0,1-1.21,3.6,7.15,7.15,0,0,0-1.32,1.59c-.2.32-.41.82-.62.9-1.29.51-2.23,2.76-3.37,3.67a3.1,3.1,0,0,0-.87,1.24c-.55,1.33-1.15,2.07-1.89,2a.71.71,0,0,0-.61.44c-.93,1.78-2,2.08-3,3.45-.6.87-1.32,1.13-1.85,2.34-.17.37-.51-.19-.55-.78a3.39,3.39,0,0,1,.55-2.42c.54-.64,1.12-1.16,1.81-1.86A5.52,5.52,0,0,0,1006.61,936.33Zm-1.07-8.82a.59.59,0,0,1,.37-.44c.16,0,.32.23.23.63a1.21,1.21,0,0,1-.31.48C1005.6,928.11,1005.46,927.89,1005.54,927.51Zm.06,30.08a1.59,1.59,0,0,1,.38,0c.55.31,1,.15,1.44-1.29a.51.51,0,0,1,.37-.34c.2-.05.35.25.38.74a5.13,5.13,0,0,1-.08,1,1,1,0,0,1-.2.5c-.8.65-1.54,2-2.38,1.63-.23-.11-.4-.32-.45-1S1005.27,957.63,1005.6,957.59Zm-.8,11a6,6,0,0,1,.31-1.13,3,3,0,0,1,.56-.82c.77-.84,1.57-1.65,2.38-2.44.22-.22.42-.11.53.47a4.17,4.17,0,0,1-.14,2c-.34,1.09-.8,2-1.2,2-.64,0-1.17,1-1.74,1.36-.12.06-.23.23-.37.37a1.78,1.78,0,0,1-.27-.5A3.2,3.2,0,0,1,1004.8,968.58Zm-.92,19.44c0,.08,0,.18,0,.24s0,.09-.07.13a1.06,1.06,0,0,1,0-.24A.27.27,0,0,1,1003.88,988Zm-2.18-49.92,0,.19h-.08Zm-.44-29.86c.09,0,.24.08.29.23a1.12,1.12,0,0,1-.45,1.19c-.09-.08-.23-.1-.29-.25A1.1,1.1,0,0,1,1001.26,908.24Zm.38,38.79a4.07,4.07,0,0,1-.53,2.36,8.42,8.42,0,0,0-1.31,3.22,23.4,23.4,0,0,1,.16-4.13,2.85,2.85,0,0,1,.23-.85,15.48,15.48,0,0,1,1.09-1.44C1001.43,946,1001.64,946.56,1001.64,947Zm-2-16a.8.8,0,0,1,.31-.52c.24-.14.49-.13.63.54a1.6,1.6,0,0,1,0,.63c-.25.56-.53.38-.79,0A1.33,1.33,0,0,1,999.68,931.07ZM998,917.6a5.59,5.59,0,0,1,.56-1.2c.29-.44.61-.36.86.24a2.54,2.54,0,0,1,.16.94,1.25,1.25,0,0,1-.54,1.1,1.89,1.89,0,0,1-.46.12,1.49,1.49,0,0,1-.45-.3A1.11,1.11,0,0,1,998,917.6Zm-2.45,51.71c-.06.07-.15,0-.31,0,0-.8.15-1.09.29-1.25.8-.92,1.63-1.83,2.47-2.63.27-.25.57-.2.85.14a.61.61,0,0,1,.08.25,2.26,2.26,0,0,1-.07.61C997.73,966.88,996.66,968.19,995.59,969.31Zm3.29,2-.08.14c0-.09,0-.24,0-.27C998.82,971,998.86,971,998.88,971.34Zm0-45.48a.89.89,0,0,1-.15-.49c.06-.36.22-.44.36-.3a1.87,1.87,0,0,1,.15.5C999.21,925.91,999.07,926,998.93,925.86Zm-.77,14.57a2.51,2.51,0,0,1,.08.56c0,.14-.12.2-.19.29a2.51,2.51,0,0,1-.08-.56C998,940.58,998.09,940.52,998.16,940.43ZM997,931.6c.19-.36.42-.53.67-.42.07,0,.14.27.21.42s-.1.41-.17.47-.28.09-.21.07a1.88,1.88,0,0,1-.49.22s-.11-.14-.1-.17A2.15,2.15,0,0,1,997,931.6Zm.11,6.42a1.23,1.23,0,0,1,.12.58,6.8,6.8,0,0,1-.12.92,1.29,1.29,0,0,1-.32-1C996.82,938.11,997,937.9,997.12,938ZM996,905.22a1.81,1.81,0,0,1,.41-.61c.15-.14.35-.13.45.24a1,1,0,0,1-.15.91,3.48,3.48,0,0,1-.43.43c-.13-.12-.27-.16-.32-.33A1.38,1.38,0,0,1,996,905.22Zm-2.77,33.71c.3-.65.67-.76,1.06-.51a1,1,0,0,1,.17.54,1.76,1.76,0,0,1-.09.62.93.93,0,0,1-.68.68.84.84,0,0,1-.35-.17,1.1,1.1,0,0,1-.18-.54A1.68,1.68,0,0,1,993.2,938.93Zm-.46-30.61,0,0Zm-1.53-7.23c0-.05.11-.09.14,0a.39.39,0,0,1,0,.47c-.13.12-.2,0-.21-.22A.37.37,0,0,1,991.21,901.09Zm-1.36.6.11.13-.12.1ZM985.32,904a3.26,3.26,0,0,1,1.2-.73c.48-.09,1-1,1.46.37-.22,1.12-.79.81-1.19,1.2a2.45,2.45,0,0,1-.91.5c-.61.15-.87.65-1.22.12C984.46,905.17,984.75,904.48,985.32,904Zm-5.63,44.09c.17,0,.35.2.45.69a2.7,2.7,0,0,1-.06.54c-.17.14-.34,0-.47-.48S979.54,948.16,979.69,948.12ZM971,940.78a.64.64,0,0,1,.07.24c0,.07,0,.1-.07.15a1.53,1.53,0,0,1-.07-.24C971,940.86,971,940.83,971,940.78Zm-1.62.24a1.27,1.27,0,0,1,.26.22l-.17.35c-.12,0-.19-.11-.18-.4C969.33,941.1,969.39,941,969.42,941Zm-2.31,1.31,0,.12Zm-.82.42-.09.06v-.25Zm-1.35.45,0-.07Zm-11,15.9c.05-.13.14-.2.23-.16,1,.37,1.81-.11,2.7-.28.08,0,.16-.12.25-.08a3.35,3.35,0,0,0,4-.61c1,.34,1.78-.71,2.84-.05.53.33,1.06.05,1.54-.2a7.13,7.13,0,0,1,3.18-.64,2.77,2.77,0,0,0,3.07-2c.28-.71.72-.84,1.19-.71a1.85,1.85,0,0,0,2.34-.89c.16-.27.39-.32.59-.44a6.29,6.29,0,0,0,2.61-2.66c.49,1.24,1,.92,1.39.67a17,17,0,0,0,2.59-1.83,61.51,61.51,0,0,0,7.14-7.37,11.37,11.37,0,0,1,1.93-1.61c.21-.16.5-.52.59.37a1,1,0,0,1-.43,1.12,25.25,25.25,0,0,0-4.3,4.48,6.47,6.47,0,0,0-.47.57c-.42.65-.38,1.07.13,2.29a6.6,6.6,0,0,1,.15.66c.06.28.19.94.24.46.14-1.47.77-.82,1-1.63s.75-1.06,1.12-1.63a12,12,0,0,1,3.83-3.73,2.2,2.2,0,0,0,.79-.57,5.29,5.29,0,0,1,2.36-2c.24-.09.4-.43.5-1a5.7,5.7,0,0,1,0,4,15.62,15.62,0,0,1-1.4,2.1c-1.13,1.36-2.25,2.73-3.38,3.9-1.28,1.36-2.56,2.5-4,2.73-.39.06-.74.48-1.11.73l0,.09c-.15-.31-.31-.62-.47-.93-.57-1.08-1.12-1.41-1.64-.55-.26.42-.54.53-.81-.36a7.27,7.27,0,0,0-.58.95c-.19.42-.4.43-.65.19l.19-1,0-.07-.2,1h0l0,.07a4.93,4.93,0,0,0-1.88,1c-1.34.93-2.64,2.06-4.13,1.82-.28-.05-.51.13-.73.4a11.19,11.19,0,0,1-2.94,2.27,26.24,26.24,0,0,1-7.54,3,42.37,42.37,0,0,1-7.44,1,17.35,17.35,0,0,1-3.86-.51.86.86,0,0,1-.42-.33,2,2,0,0,1-.39-1.2A2.59,2.59,0,0,1,953.92,959.1Zm37.82-.75,0,.1,0-.1Zm0-.14c.08-2.78.56-3.9,1.4-3.29a1,1,0,0,1,.25.79,1.3,1.3,0,0,1-.11.57Zm-.49,3c-.09.48-.26.47-.43.24a3,3,0,0,1-.09-.6,1.21,1.21,0,0,1,.36-.1C991.21,960.79,991.26,961,991.26,961.26Zm-2.33,1.48,0,.52-.11-.09c0-.17,0-.35.06-.51S988.9,962.71,988.93,962.74Zm-.55,1.1a1.14,1.14,0,0,1,0,.25s-.07,0-.09-.07a.89.89,0,0,1,0-.27C988.28,963.54,988.34,963.58,988.38,963.84Zm-2.55-5.37c-.08-.06-.2-.06-.24-.21a1.11,1.11,0,0,1,0-.88c.06-.07.19,0,.24.19A1.24,1.24,0,0,1,985.83,958.47Zm-2.37.68c-.07-.28-.14-.57-.21-.84l-.06.93h0c-.23.7-.41,1.58-.79,1.79a.25.25,0,0,1-.37-.11,2.78,2.78,0,0,1-.15-1.34,1.19,1.19,0,0,1,0-.31c.76-1.25,1.12-4.23,2.4-3.41C984.28,959.06,984.28,959.06,983.46,959.15Zm-2.2,2.59h0l-.06-.1Zm-.67-1.91-.79,2.62c0,.11-.16.06-.23,0a1.53,1.53,0,0,1-.16-.58c.08-1,.15-2,.28-2.86.08-.58.61-.4.82.2a2.55,2.55,0,0,1,.07.32A1.35,1.35,0,0,1,980.59,959.83Zm-6,2.86V963l-.1-.08a2,2,0,0,1,0-.25S974.56,962.66,974.59,962.69Zm-17.54,4.88c-.13.52-.35.63-.64.41a1.29,1.29,0,0,1-.27-.35.57.57,0,0,1-.11-.28,1.6,1.6,0,0,1,0-.54c.05-.12.15-.09.27-.15s.44-.12.72.59A1.19,1.19,0,0,1,957.05,967.57Zm-3.78-1.17.07.2-.11,0Zm-2.65-7.34a1.94,1.94,0,0,1,2.29.74,1.75,1.75,0,0,1,.23.51c.09.28,0,.47-.18.52-.66.16-1.31.47-2.11-.33a1.57,1.57,0,0,1-.34-.71C950.47,959.53,950.54,959.09,950.62,959.06Zm.53,15.29-.1-.13.06-.15Zm-2.9-8.94a2.25,2.25,0,0,1,.11.22c.06.25,0,.4-.05.39s-.07-.13-.11-.2ZM934.45,998c-.47-.17-1-.5-1.51-1.57.48.23.95.44,1.43.71a1.41,1.41,0,0,1,.2.52C934.58,997.86,934.51,998.06,934.45,998Zm2.74.81c-.16,0-.31,0-.49-.48a1.05,1.05,0,0,1,0-.3c.07-.35.25-.23.43,0a3.23,3.23,0,0,1,.14.56A.41.41,0,0,1,937.19,998.85Zm2.31.77a.86.86,0,0,1-.17-.6c0-.23.1-.22.21,0a1.69,1.69,0,0,1,.09.34C939.67,999.67,939.62,999.75,939.5,999.62Zm1.65,1.09c-.17-.07-.37-.19-.49-.78-.08-.4,0-.56.13-.66s.46-.1.75.16C941.49,1000,941.53,1000.86,941.15,1000.71Zm1.05.22c-.33-.1-.47-.79-.62-1.46a6,6,0,0,1,.64.61,1.51,1.51,0,0,1,.15.6C942.36,1000.84,942.28,1001,942.2,1000.93Zm1.18.51a1.08,1.08,0,0,1,0-.25s.06,0,.09,0a1.32,1.32,0,0,1,.05.25C943.45,1001.45,943.41,1001.43,943.38,1001.44Zm1.22.56a1.26,1.26,0,0,1-.29-.83c0-.18.06-.4.12-.37.51.17,1,.51,1.48.24.24-.15.47.75.66,1.41A2,2,0,0,1,944.6,1002Zm4.3,1.32c-.09.1-.19.26-.31.21a3.93,3.93,0,0,1-2-1c.52-1.21,1.38-.41,2.21.23a1.42,1.42,0,0,1,.08.34A.49.49,0,0,1,948.9,1003.32Zm-.61-10.88c-.31-.49.3-.63,1.29.08C949.2,992.78,948.85,993.31,948.29,992.44Zm1.91,11.32c-.14,0-.31,0-.46-.49s0-.81.08-.95.32,0,.47.51S950.35,1003.63,950.2,1003.76Zm6.09,1.44a.32.32,0,0,1-.18.23c-1.46.31-3.05-.46-4.69-1.32a1,1,0,0,1-.32-.78.38.38,0,0,1,.14-.34,5.83,5.83,0,0,1,.7-.15v-.08a7.07,7.07,0,0,0,1.66-.23c.36-.13.8,1.15,1.15.75s.65,0,1,.16c.12,0,.27.34.4.58a2.3,2.3,0,0,1,.2.61A1.68,1.68,0,0,1,956.29,1005.2Zm.81-.11a1.49,1.49,0,0,1-.21-.86c0-.31.09-.45.24-.2a1.83,1.83,0,0,1,.14.59C957.3,1005,957.25,1005.19,957.1,1005.09Zm4.13,1c-.94-.19-1.85.39-3-.73a1.47,1.47,0,0,1-.4-1.07c0-.48.07-.77.22-.85a.22.22,0,0,1,.25,0c.47.47.84.26,1.18,0s.89.14,1.33.14c.07,0,.17.15.26.29a2.68,2.68,0,0,1,.49,1.43A.73.73,0,0,1,961.23,1006.13Zm.92-1.76c-.08,0-.21-.19-.29-.57s-.06-.7.06-.75.26.18.34.57S962.32,1004.29,962.15,1004.37Zm-3.45-17.75a59.44,59.44,0,0,1-7.38-.81,39.79,39.79,0,0,1-8.08-2.26c-1.22-.47-2.41-.7-3.62-1a3.26,3.26,0,0,1-.69-.32c-.28-.16-.6-.53-.84-.49-1.26.22-2.74-1.09-4.07-1.22a8.85,8.85,0,0,1-4-1.88,1.41,1.41,0,0,1-.47-1.05c0-.53.08-.72.27-.7a2.19,2.19,0,0,1,.68.17c2.09.92,4.09,1.1,6.25,2.67a3.17,3.17,0,0,0,1.77.56,20.79,20.79,0,0,1,4.31,1.27c2.12.71,4.19,1.12,6.27,1.69a35.4,35.4,0,0,0,7.25,1.1,24.41,24.41,0,0,0,8.29-.51,24.36,24.36,0,0,1,2.55-.33,26.62,26.62,0,0,0,8.36-3.44,64.26,64.26,0,0,0,8.45-5.63,47.52,47.52,0,0,0,5.48-4.73c1.76-1.89,3.66-3.12,5.43-5.47a1.1,1.1,0,0,1,.6-.39s.16.22.2.4a1.27,1.27,0,0,1-.09.9c-.58.62-1.12,1.21-1.69,1.81a6.12,6.12,0,0,0-.66.8c-1,1.64-2,3.3-3.11,3.85-.23.12-.44.43-.46,1.26,0,.59.33.79.75.41a2.13,2.13,0,0,0,.29-.5h0a3.6,3.6,0,0,1-.16,2.13,2.8,2.8,0,0,1-.32.4A7.62,7.62,0,0,0,988,977c0,.07-.16-.1-.24-.19a.43.43,0,0,1-.09-.24,3.06,3.06,0,0,1,0-.66,1.22,1.22,0,0,1,.72-.91,1.5,1.5,0,0,0,.43-.41,1.52,1.52,0,0,0,.07-.58c0-.17-.12-.45-.18-.46-.37-.07-.71.22-1,.67a5.26,5.26,0,0,1-1.86,1.69,21.36,21.36,0,0,0-3.45,2.56,14.37,14.37,0,0,1-3.27,2c-.79.41-1.5,1.3-2.38,1.23-.27,0-.53.31-.75.64a1.26,1.26,0,0,1-1,.63,2.92,2.92,0,0,0-1.95.89c-.49.54-1.11.2-1.64.41a36.84,36.84,0,0,1-5.25,1.77A30.5,30.5,0,0,1,958.7,986.62Zm35.23-15.79a1.12,1.12,0,0,1-.12.53,3.92,3.92,0,0,1-.64.69s-.16-.19-.19-.36a2.11,2.11,0,0,1,0-.62c.15-.56.36-.83.63-.72C993.74,970.41,993.89,970.34,993.93,970.83Zm-2,2.54c-.41.67-.82.13-1.24-.64.38-.13.76-.28,1.14-.37,0,0,.15.27.17.45A1.29,1.29,0,0,1,992,973.37Zm-5,4a.69.69,0,0,1,0,.25c-.1.13-.2.23-.29.34a1.8,1.8,0,0,1-.35-.08s-.07-.15-.09-.24a.94.94,0,0,1,0-.3c.15-.48.4-.36.62-.43C986.83,976.89,986.9,977.19,986.94,977.37ZM985,984.51a3,3,0,0,1,0,.58c-.07.18-.17.34-.28.36a.32.32,0,0,1-.31-.27.72.72,0,0,1,.1-.72.48.48,0,0,1,.15-.11c.1,0,.13-.09.17-.06A1.52,1.52,0,0,1,985,984.51Zm-1.42.91c-.13.86-.31,1.5-.68,1.56a10.25,10.25,0,0,0-1.24.37c.68-1.44,1.25-2,1.92-1.93Zm-3.77,3.34a1.11,1.11,0,0,1-.15-.46.87.87,0,0,1,.08-.47s.13.2.2.31C980,988.56,980,988.8,979.84,988.76Zm-1,.06a2.05,2.05,0,0,1-.06.46c0,.05-.12-.12-.18-.19a1.67,1.67,0,0,1,0-.46S978.78,988.75,978.85,988.82Zm-3.74,2a1.78,1.78,0,0,1-.1.46c-.12.17-.24.34-.43,0a2.51,2.51,0,0,1,0-.32c.07-.54.26-.54.47-.39A.82.82,0,0,1,975.11,990.87Zm-3.8,1.42,0,.07Zm-5.14,1.47,0,.12,0-.21Zm-1.64.55s-.06,0-.1-.07a1,1,0,0,1,0-.25s.06,0,.09.06A.8.8,0,0,1,964.53,994.31Zm-1.21,11.92c-.18-.14-.35-.42-.33-1.05s0-1.34,0-1.92c0-.2.2-.18.31-.14s.17.28.25.43c.19.84,0,1.39.21,2.38C963.88,1006.43,963.53,1006.4,963.32,1006.23ZM971.1,1041c-.14,0-.31-.39-.26-.61s.11-.2.18-.15a2.15,2.15,0,0,1,.21.45C971.18,1040.76,971.16,1040.94,971.1,1041Zm1.29-9.72a1.07,1.07,0,0,1-.07-.25.33.33,0,0,1,0-.15c0,.09.06.19.07.25S972.4,1031.19,972.39,1031.24Zm6,.21a6.55,6.55,0,0,1-.75.59c-.21.26-.72-.15-1.18-.11-.71,0-1.5-.5-2.15,0-.18.14-.44-.07-.68-.63a1.91,1.91,0,0,1-.08-.59c0-.17.09-.29.15-.29,1.36,0,2.62-1,4-.33a2.69,2.69,0,0,1,.45.16c.11.07.24.29.27.72A1.08,1.08,0,0,1,978.39,1031.45Zm-1.06-17.78c0-.07,0-.18,0-.18s.06.1.09.16l0,.2Zm3.63-.74a.89.89,0,0,1-.64.16c-.05,0-.13-.28-.19-.47a1,1,0,0,1,0-.3c.4-.61.74-1.6,1.25-1.61.28,0,.47-.27.68-.49s.41.43.53,1.2C982.05,1011.94,981.51,1012.47,981,1012.93Zm2.26-2a5.75,5.75,0,0,1-.63.5c.1-.58.19-1.18.43-1.3.05,0,.16.09.19.23A1.57,1.57,0,0,1,983.22,1010.91Zm.9-1.07,0-.23.09,0Zm5.23-3-3.16,2.72c-.19.17-.37.44-.61.1a1.43,1.43,0,0,1-.17-.53,2.1,2.1,0,0,1,0-.62,1.22,1.22,0,0,1,.23-.51c1.31-1.1,2.66-2.23,4-3.23.21-.15.45-.51.76.48A3.82,3.82,0,0,1,989.35,1006.8Zm2-2.76-.06-.18.07-.06Zm2.53-12.91a14,14,0,0,1-1.73,2.22c-1.09.92-2.22,1.84-3.3,2.91-.31.32-.63.88-1.05-.21,0-.11-.19.15-.26.33-.15.39-.28.92-.55.64-.16-.78.31-1.54-.14-2.18-.31-.44-.3.66-.33,1.28-.06,1.83-.42,2.58-1,2.86-.38.21-.76.46-1.13.71s-.58-.13-.85-1c-.33-.29-.51.53-.85.21s-.57.14-.62,1.18c0,.48-.19.75-.33.3-.37-1.2-.58-1.59-.73-.14s-.76.7-1.14,1.1c-.13.14-.28-.34-.41-.74-.11,0-.21,0-.32,0-.39,0-.6.92-1.12.38-.34-.35-.71.15-1.08.2a5.47,5.47,0,0,0-3.31,2v-.11l0,.06h0c-.11.18-.21.47-.32.38-.91-.77-1.66-.3-2.41.11l-.25.12c-1,.09-2.16-.35-3,.74-.09.11-.23.08-.35,0a2.13,2.13,0,0,0-2.44.17.32.32,0,0,1-.35,0,1.25,1.25,0,0,1-.33-.8,1.7,1.7,0,0,1,0-.61c.19-.55.48-.68.8-.7a21,21,0,0,0,2.11-.24c1.12-.22,2.23-.45,3.32-.73a7.33,7.33,0,0,1,2.42-.37c.46,0,.86-.41,1.3-.57a32.17,32.17,0,0,0,6.06-3c1.75-1.08,3.47-2.57,5.2-3.82.73-.53,1.49-1,2.21-1.57s1.28-1.21,1.93-1.83c1.27-1.22,2.51-2.37,3.81-3.54.33-.3.49.15.47,1.37a5,5,0,0,0,.12,2A1.2,1.2,0,0,1,993.87,991.13Zm-2.42-11c-1.18,1-2.31,2.35-3.55,2.89a7.36,7.36,0,0,0-1.06.84c-.05,0-.18-.19-.2-.35a1.43,1.43,0,0,1,0-.58,38.26,38.26,0,0,1,2.83-2.86,15.3,15.3,0,0,0,2.13-2,12.25,12.25,0,0,1,1.84-1.72c.2-.17.39.16.54.69l.5-.18a3.89,3.89,0,0,1,.17-1.59,11.78,11.78,0,0,1,3.26-3.33s.09.13.09.18a2.86,2.86,0,0,1,0,.63c-.12.29-.25.66-.39.71-1.14.45-2.1,2.2-3.1,3.42l-.47.15A30.66,30.66,0,0,1,991.45,980.12Zm4.25,34c-.08.07-.14-.07-.13-.35a1.76,1.76,0,0,1,.08-.54c.06-.13.13.06.12.35A4,4,0,0,1,995.7,1014.07Zm.62-25.75c0-.41.14,0,.21,0h-.21Zm1.52,22.06,0,.3C997.85,1010.58,997.84,1010.48,997.84,1010.38Zm.43,1.37c0,.41-.14.45-.22.14s-.1-.65-.15-1a.08.08,0,0,0,0,0l.14-.76v0C998.33,1010.27,998.31,1011,998.27,1011.75Zm-.41-1.66c0-.13.09-.14.13-.05Zm1-1.12-.07-.11c0-.09,0-.23,0-.26s.05.06.07.09Zm-.15-25.82a7.45,7.45,0,0,0-1.58,2,3.22,3.22,0,0,0-.25,1.49,4.37,4.37,0,0,1-.35,1.64c-.2-1.84-.21-1.85-.64-1.6a5.05,5.05,0,0,0-.51.43l0,1.66s0,.12-.07.1a.42.42,0,0,1-.08-.21,5.39,5.39,0,0,1,.1-1.55c-.27.24-.55.48-.82.74s-.29.21-.37-.41a2.47,2.47,0,0,1,.1-1.27,3.43,3.43,0,0,1,.44-.86,13.13,13.13,0,0,1,2.14-2.52c1.08-.73,2-2.38,3-3.63a2.39,2.39,0,0,1,1.31-1c.1,0,.26.1.29.33a1.47,1.47,0,0,1-.18,1.1,13.91,13.91,0,0,0-1.2,1.86A3.2,3.2,0,0,1,998.71,983.15Zm6.49,20.07c.13-.62.25-.82.33,0Zm1.06-5c-.58,1.09-1,2.94-1.64,3.56a8.56,8.56,0,0,0-.79,1.58,2.21,2.21,0,0,0-.23,1.07,4,4,0,0,1-.63,2.7c-.11.18-.23.26-.33.43-.26.41-.46.38-.52-1,0-.37-.1-.63-.19-.55a1.48,1.48,0,0,0-.14.82v.74c0,.9-.15,1.27-.25.76-.3-1.43-.66-1.6-1-.67-.08.2-.19,0-.22-.4a2.43,2.43,0,0,1,0-.68,3.22,3.22,0,0,1,.35-1.07,9.16,9.16,0,0,0,1.33-2.26,26.83,26.83,0,0,1,3.18-4.6c.33-.41.65-.85,1-1.23,0-.06.12.06.14.21A2.33,2.33,0,0,1,1006.26,998.24Zm.41-7.42c0,.57-.14.89-.27.95a2,2,0,0,1-.61.08c-.18-.08-.56.93-.59-.25,0-.87.41-1,.64-1.4a1.6,1.6,0,0,1,.58-.52C1006.58,989.58,1006.71,990.2,1006.67,990.82Zm-.86-4.87,0-.29,0,.21Zm3.1-2.62-2.2,2.23c-.05,0-.13-.18-.15-.36a2.1,2.1,0,0,1,.07-.63c.72-1.11,1.41-2.94,2.19-2.35.09.06.16.28.24.43A3.61,3.61,0,0,1,1008.91,983.33Zm1.38,2.88v0Zm.68-15.63c-.07-.1-.17-.21-.26-.36a.8.8,0,0,1,0-.31c.14-.43.3-.42.43-.26a1.84,1.84,0,0,1,.08.53,1.09,1.09,0,0,1-.09.25A1.05,1.05,0,0,1,1011,970.58Zm.18,15.1s0-.06-.06-.1l.06-.29.06.11A1.2,1.2,0,0,1,1011.15,985.68Zm-.63-17.39a2,2,0,0,0-.57.94c-.51,2.88-1.48,2.59-2.14,4.21-.12.3-.35.24-.43.58-.51,2.06-1,1.91-1.65,1.32-.1-.1-.22-.07-.33-.09l0-.48c.2-.31.41-.64.62-.93s.32-.25.44-.55c.37-1,.76-2,1.14-3,.5.28.93-.7,1.39-1.2a1.79,1.79,0,0,0,.46-.67c1-2.48,2.19-3.24,3.36-4.52s2.16-2.45,3.3-3.65c.59-.62,1.2-1.25,1.82-1.83.22-.21.55-.75.53.2a2.62,2.62,0,0,1-.52,1.48,22.41,22.41,0,0,1-2.32,2.57A38.12,38.12,0,0,0,1010.52,968.29Zm4,17.63a1.52,1.52,0,0,1-.17.5c-.1.15-.19.19-.16-.33a1,1,0,0,1,.24-.66C1014.49,985.37,1014.57,985.47,1014.49,985.92Zm6.91-20.62c.17-.09.2.37.07.62s-.18.17-.27.25l-.05-.47A1.87,1.87,0,0,1,1021.4,965.3Zm-5.28,18.78c-.27.43-.54.84-.8,1.2,0,.06-.07-.17-.09-.31s0-.22,0-.33.11-.48.17-.63c.28-.68.56-1.11.82-1.22s.32-.12.3.07A2,2,0,0,1,1016.12,984.08Zm-.13-4.63c0-.25.1-.39.15-.26a4.51,4.51,0,0,1,.12.52,1,1,0,0,1-.23-.11A.19.19,0,0,1,1016,979.45Zm.28.25c.18-.79.39-1.14.6-1.21Zm1.55,1.54-.05,0,.08-.19Zm-2.37-6.15s-.07,0-.1,0-.07-.1-.06-.17a3.52,3.52,0,0,1,.09-.6c.58-.76,1.18-1.66,1.81-2.49a9.41,9.41,0,0,1,1.87-2,13.2,13.2,0,0,0,1.32-1.56c.14-.15.25,0,.25.32a2.14,2.14,0,0,1-.24,1,7.5,7.5,0,0,1-.53.83A27.88,27.88,0,0,1,1015.45,975.09Zm6.37-3.24a3.73,3.73,0,0,1-.25.57l-1.87,1.81c-.05,0-.11-.16-.1-.32a2.41,2.41,0,0,1,.13-.68c.75-1.69,1.48-2.47,2.09-2.16C1021.92,971.13,1021.91,971.43,1021.82,971.85Zm3-7.87c0,.11-.07.25-.11.34-.65,1.27-1.43,1.74-1.69.95a1.83,1.83,0,0,1-.06-.8c.1-.63.34-.84.52-.85.34,0,.69-.67,1-1.08S1025,963.34,1024.8,964Z" transform="translate(-892.65 -886.68)"></path><path class="cls-1" d="M1022.4,945.88a.77.77,0,0,1,0,.15l0-.09Z" transform="translate(-892.65 -886.68)"></path><path class="cls-1" d="M1008.05,1026.06v0l0-.15,0,.22v0h0Z" transform="translate(-892.65 -886.68)"></path><path class="cls-1" d="M979.48,1000.51l0,.08h0Z" transform="translate(-892.65 -886.68)"></path><path class="cls-1" d="M984.34,951.27l0,.08v0Z" transform="translate(-892.65 -886.68)"></path><path class="cls-1" d="M983.55,998.61l0,.07h0Z" transform="translate(-892.65 -886.68)"></path><path class="cls-1" d="M1001.75,1014.84a3.12,3.12,0,0,0,0-.33,1.15,1.15,0,0,0,0-.25c-.08,0-.16,0-.24,0-.58.73-1.17,1.46-1.75,2.2l-1.75,2.23a3.37,3.37,0,0,0-.48,1.73h0c.26.11.55.3.76-.27.3-.79.65-.74.94-1.13.74-.94,1.5-2.13,2.25-3.26A5.77,5.77,0,0,0,1001.75,1014.84Z" transform="translate(-892.65 -886.68)"></path><path class="cls-1" d="M1017.65,936.42c-1.21,1.46-2.38,2.92-3.49,4.44a2.76,2.76,0,0,0-.73,1.52c-.07.49.42.71.93.35a6.61,6.61,0,0,0,.74-.81,21.72,21.72,0,0,1,2.63-2.88,8,8,0,0,0,1.24-2v0C1018.36,935.55,1018.37,935.56,1017.65,936.42Z" transform="translate(-892.65 -886.68)"></path><path class="cls-1" d="M993.19,1024.42c.27-.44.69.17.81-1.24-.37-1.53-.57,0-.87-.09s-.44,0-.55.69c0,.55.15.5.24.54S993.1,1024.58,993.19,1024.42Z" transform="translate(-892.65 -886.68)"></path><path class="cls-1" d="M1022,955.83c-.39.2-.7.9-1,1.57a1.79,1.79,0,0,0-.09.35c0,.28,0,.44.14.36s.4-.35.64-.55a1.86,1.86,0,0,0,.49.14.7.7,0,0,0,.27-.4,4.12,4.12,0,0,0,.11-1C1022.52,955.76,1022.28,955.69,1022,955.83Z" transform="translate(-892.65 -886.68)"></path><path class="cls-1" d="M996.58,1020.25c-.2.26-.2.26-.31,1.5l.86-1.09h0C996.94,1019.64,996.76,1020,996.58,1020.25Z" transform="translate(-892.65 -886.68)"></path><path class="cls-1" d="M1020.82,936.15a.09.09,0,0,0,.15,0,5.18,5.18,0,0,0,.62-.85,2.25,2.25,0,0,0,.24-.92c-.09-.5-.38-.16-.6-.1l0,0c-.16.41-.33.81-.46,1.24A1.84,1.84,0,0,0,1020.82,936.15Z" transform="translate(-892.65 -886.68)"></path><path class="cls-1" d="M1008.28,1008.82a4.35,4.35,0,0,0-.07.58s0,.16,0,.13l.47-1.06v-.3s0-.12,0-.12S1008.41,1008.45,1008.28,1008.82Z" transform="translate(-892.65 -886.68)"></path><path class="cls-1" d="M995.22,1026.54a.93.93,0,0,0,.13.39c.09.06.15-.06.15-.47,0-.13-.08-.35-.13-.38S995.21,1026.14,995.22,1026.54Z" transform="translate(-892.65 -886.68)"></path><path class="cls-1" d="M1005.8,1007.64a3.28,3.28,0,0,0,0,.63c0,.15.07.18.11.26a1.69,1.69,0,0,0,.27-.87.66.66,0,0,0,0-.26C1006,1007.28,1005.9,1007.22,1005.8,1007.64Z" transform="translate(-892.65 -886.68)"></path><path class="cls-1" d="M1011.87,1008.43a2.72,2.72,0,0,0-.1.56,1.83,1.83,0,0,0,.26-.75,4.33,4.33,0,0,0,.11-.56C1012.1,1007.62,1012,1008,1011.87,1008.43Z" transform="translate(-892.65 -886.68)"></path><path class="cls-1" d="M998.43,1023.7a1.21,1.21,0,0,0,0,.3c.06.23.19-.29.19-.78a2.16,2.16,0,0,0,0-.3C998.56,1022.69,998.43,1023.2,998.43,1023.7Z" transform="translate(-892.65 -886.68)"></path><path class="cls-1" d="M997,1024.72a1.14,1.14,0,0,0-.09.46c0,.26.07.4.12.28a3.09,3.09,0,0,0,.1-.45C997.14,1024.72,997.09,1024.59,997,1024.72Z" transform="translate(-892.65 -886.68)"></path><path class="cls-1" d="M1009.24,1007c0,.19,0,.42-.08.63,0-.06.09-.06.12-.19a3.25,3.25,0,0,0,.07-.59C1009.34,1006.67,1009.28,1006.75,1009.24,1007Z" transform="translate(-892.65 -886.68)"></path><path class="cls-1" d="M1023.75,915.91c.22,0,.41-.13.5-.57-.06-.16-.12-.43-.21-.45s-.43.2-.49.6C1023.53,915.62,1023.66,915.9,1023.75,915.91Z" transform="translate(-892.65 -886.68)"></path><path class="cls-1" d="M989.7,1026.29c0,.07,0,.1.08.15s.1-.14.05-.4a.21.21,0,0,0-.08-.15C989.68,1025.87,989.66,1026,989.7,1026.29Z" transform="translate(-892.65 -886.68)"></path><path class="cls-1" d="M996.26,1025.39a1.4,1.4,0,0,0-.07.44c0,.24.07.3.12.17a3.25,3.25,0,0,0,.07-.45C996.37,1025.32,996.3,1025.23,996.26,1025.39Z" transform="translate(-892.65 -886.68)"></path><path class="cls-1" d="M991.17,1024.7c0,.19.06.38.09.57l.1-.35c0-.29-.07-.43-.13-.39S991.17,1024.65,991.17,1024.7Z" transform="translate(-892.65 -886.68)"></path><path class="cls-1" d="M994.65,1027.52l.08-.31-.13-.21a2.43,2.43,0,0,0,0,.27A1,1,0,0,0,994.65,1027.52Z" transform="translate(-892.65 -886.68)"></path><polygon class="cls-1" points="100.16 141.95 100.21 141.84 100.14 141.69 100.16 141.95"></polygon><polygon class="cls-1" points="99.38 137.71 99.33 137.45 99.3 137.7 99.38 137.71"></polygon><polygon class="cls-1" points="127.13 72.33 127.02 72.56 127.13 72.6 127.13 72.33"></polygon><polygon class="cls-1" points="123.73 56.74 123.64 56.84 123.7 56.97 123.73 56.74"></polygon><polygon class="cls-1" points="114.52 123.76 114.47 123.78 114.49 123.99 114.52 123.76"></polygon><polygon class="cls-1" points="110.37 125.49 110.32 125.62 110.36 125.76 110.37 125.49"></polygon><path class="cls-1" d="M1000.75,1022.27l0,.62v0Z" transform="translate(-892.65 -886.68)"></path><path class="cls-1" d="M999.14,1022v0h0v0c0,.11,0,.21,0,.31,0,.36,0,.45,0,.23a4.21,4.21,0,0,0-.07-.57l.05-.18Z" transform="translate(-892.65 -886.68)"></path><path class="cls-1" d="M1021.17,934.38l.11-.09,0,0Z" transform="translate(-892.65 -886.68)"></path><path class="cls-1" d="M1019.7,937v0l-.75.06v0Z" transform="translate(-892.65 -886.68)"></path><path class="cls-1" d="M997.12,1020.65h0l.35-.19h0Z" transform="translate(-892.65 -886.68)"></path><path class="cls-1" d="M985.14,1032.26a.12.12,0,0,0,0,0v-.08Z" transform="translate(-892.65 -886.68)"></path><path class="cls-1" d="M993,989.54a1.78,1.78,0,0,0,0,.31s.08,0,.1,0a1.87,1.87,0,0,0,0-.32S993,989.48,993,989.54Z" transform="translate(-892.65 -886.68)"></path><polygon class="cls-1" points="96.68 107.13 96.73 107.04 96.66 106.89 96.68 107.13"></polygon><path class="cls-1" d="M988.28,994.9h0l0,.09,0-.1.07-.16-.09.08Z" transform="translate(-892.65 -886.68)"></path><path class="cls-1" d="M988.44,994.64a1,1,0,0,0,0-.22l-.12.31Z" transform="translate(-892.65 -886.68)"></path><path class="cls-1" d="M1011.71,928.19a1.84,1.84,0,0,0,.22-.52c0-.29-.06-.49-.19-.38a1.27,1.27,0,0,0-.21.53C1011.49,928.1,1011.59,928.3,1011.71,928.19Z" transform="translate(-892.65 -886.68)"></path><path class="cls-1" d="M1010.26,932.5a.51.51,0,0,0,.16-.52c0-.18-.14-.36-.22-.37s-.21.24-.16.49A1.11,1.11,0,0,0,1010.26,932.5Z" transform="translate(-892.65 -886.68)"></path><polygon class="cls-1" points="121.63 41.74 121.53 41.96 121.65 41.98 121.63 41.74"></polygon><polygon class="cls-1" points="119.89 43.49 119.81 43.66 119.91 43.69 119.89 43.49"></polygon><path class="cls-1" d="M1001.32,1028c0-.41-.06-.41-.12-.45l.06.46S1001.32,1028,1001.32,1028Z" transform="translate(-892.65 -886.68)"></path><path class="cls-1" d="M1001.2,1027.55v-.14l0,.1Z" transform="translate(-892.65 -886.68)"></path><path class="cls-1" d="M1022.4,945.88l0,.06a.86.86,0,0,0,.07-.1Z" transform="translate(-892.65 -886.68)"></path><path class="cls-1" d="M1023.09,945.13c0-.2-.11-.11-.23.11s-.24.41-.36.6a1.12,1.12,0,0,0,.38-.21A1,1,0,0,0,1023.09,945.13Z" transform="translate(-892.65 -886.68)"></path><path class="cls-1" d="M983.25,958.24l0-.09h-.06l0,.15v-.06Z" transform="translate(-892.65 -886.68)"></path></svg>
