<svg width="1030" height="700" viewBox="0 0 1030 700" fill="none" xmlns="http://www.w3.org/2000/svg">
<circle cx="700" cy="350" r="328.5" fill="url(#paint0_linear_203_15)" stroke="white" stroke-width="3"/>
<circle cx="697.864" cy="337.917" r="100" transform="rotate(-33.351 697.864 337.917)" fill="#D946EF"/>
<path d="M621.175 314.166C619.657 311.86 620.296 308.759 622.603 307.241L699.452 256.662C701.759 255.144 704.859 255.783 706.377 258.09L775.098 362.505C776.616 364.812 775.977 367.912 773.671 369.43L696.821 420.009C694.515 421.527 691.414 420.888 689.896 418.581L621.175 314.166Z" fill="#10B981"/>
<path d="M721.303 385.225L697.71 400.754L642.727 317.213L652.136 311.02C654.655 309.363 658.394 306.766 663.353 303.229C668.282 299.645 672.385 296.774 675.664 294.616C684.883 288.549 693.479 286.398 701.453 288.165C709.426 289.932 716.634 295.71 723.077 305.5C726.955 311.392 729.705 317.278 731.327 323.157C732.965 328.958 733.494 334.262 732.913 339.071C732.333 343.88 730.926 348.211 728.695 352.063C726.463 355.916 723.494 359.062 719.787 361.501C719.312 361.814 718.813 362.143 718.29 362.487C717.815 362.799 717.363 363.097 716.936 363.378C716.524 363.581 716.034 363.87 715.463 364.245C714.909 364.541 714.466 364.799 714.133 365.018C713.817 365.158 713.374 365.416 712.803 365.791C712.249 366.088 711.877 366.299 711.687 366.424C711.497 366.549 711.125 366.76 710.571 367.056C710.017 367.353 709.716 367.517 709.669 367.548L721.303 385.225ZM697.633 317.751C695.318 314.234 692.491 312.009 689.152 311.074C685.812 310.139 682.361 310.844 678.797 313.19L675.375 315.442L699.77 352.508L702.407 350.772C706.162 348.301 708.232 345.134 708.617 341.271C709.051 337.376 707.703 333.052 704.576 328.3L697.633 317.751Z" fill="white"/>
<path d="M0 9.99998C0 4.47713 4.47715 0 10 0H690C695.523 0 700 4.47715 700 10V690C700 695.523 695.523 700 690 700H9.99998C4.47713 700 0 695.523 0 690V9.99998Z" fill="url(#paint1_linear_203_15)"/>
<g filter="url(#filter0_d_203_15)">
<path d="M76.944 394H34.576V243.984H51.472C55.9947 243.984 62.8213 243.813 71.952 243.472C81.0827 243.045 88.592 242.832 94.48 242.832C111.035 242.832 123.579 247.227 132.112 256.016C140.645 264.805 144.912 277.989 144.912 295.568C144.912 306.149 143.504 315.792 140.688 324.496C137.957 333.115 134.245 340.197 129.552 345.744C124.859 351.291 119.525 355.557 113.552 358.544C107.579 361.531 101.264 363.024 94.608 363.024C93.7547 363.024 92.8587 363.024 91.92 363.024C91.0667 363.024 90.256 363.024 89.488 363.024C88.8053 362.939 87.952 362.896 86.928 362.896C85.9893 362.811 85.2213 362.768 84.624 362.768C84.112 362.683 83.344 362.64 82.32 362.64C81.3813 362.555 80.7413 362.512 80.4 362.512C80.0587 362.512 79.4187 362.469 78.48 362.384C77.5413 362.299 77.0293 362.256 76.944 362.256V394ZM102.928 289.936C102.928 283.621 101.221 278.501 97.808 274.576C94.3947 270.651 89.488 268.688 83.088 268.688H76.944V335.248H81.68C88.4213 335.248 93.6267 332.987 97.296 328.464C101.051 323.941 102.928 317.413 102.928 308.88V289.936ZM207.44 381.328C211.195 381.328 214.053 379.792 216.016 376.72C218.064 373.563 219.088 369.253 219.088 363.792V323.344C219.088 306.704 215.163 298.384 207.312 298.384C203.643 298.384 200.784 299.877 198.736 302.864C196.688 305.851 195.664 310.075 195.664 315.536V357.136C195.664 373.264 199.589 381.328 207.44 381.328ZM206.416 396.688C186.875 396.688 172.581 392.251 163.536 383.376C154.491 374.501 149.968 360.336 149.968 340.88C149.968 321.595 154.533 307.088 163.664 297.36C172.795 287.547 187.643 282.64 208.208 282.64C228.261 282.64 242.725 287.333 251.6 296.72C260.56 306.021 265.04 320.144 265.04 339.088C265.04 358.715 260.304 373.221 250.832 382.608C241.445 391.995 226.64 396.688 206.416 396.688ZM344.52 394C339.571 394 335.048 393.488 330.952 392.464C326.856 391.44 323.272 390.16 320.2 388.624V432.656H278.984V311.184L271.304 306.448V292.752L298.824 285.2H320.2V293.776C323.272 290.619 326.984 287.973 331.336 285.84C335.688 283.707 340.765 282.64 346.568 282.64C360.648 282.64 370.973 287.461 377.544 297.104C384.2 306.747 387.528 320.101 387.528 337.168C387.528 345.189 386.632 352.613 384.84 359.44C383.048 366.181 380.403 372.155 376.904 377.36C373.405 382.565 368.883 386.661 363.336 389.648C357.875 392.549 351.603 394 344.52 394ZM325.704 376.208C337.139 376.208 342.856 367.461 342.856 349.968V328.208C342.856 320.528 341.533 314.811 338.888 311.056C336.328 307.301 333 305.424 328.904 305.424C326.088 305.424 323.187 306.277 320.2 307.984V375.568C321.224 375.824 322.163 375.995 323.016 376.08C323.955 376.165 324.851 376.208 325.704 376.208ZM473.911 394L468.919 377.488C468.236 378.683 467.426 379.877 466.487 381.072C465.634 382.267 464.226 383.803 462.263 385.68C460.3 387.472 458.21 389.051 455.991 390.416C453.772 391.781 450.999 392.976 447.671 394C444.343 395.024 440.844 395.536 437.175 395.536C423.095 395.536 412.77 390.715 406.199 381.072C399.628 371.429 396.343 358.032 396.343 340.88C396.343 330.128 397.879 320.571 400.951 312.208C404.023 303.76 408.844 296.976 415.415 291.856C421.986 286.736 429.922 284.176 439.223 284.176C444.77 284.176 449.719 284.773 454.071 285.968C458.423 287.163 462.178 288.613 465.335 290.32V251.536L451.255 246.8V232.72L496.567 226.32H506.551V394H473.911ZM455.863 370.448C457.399 370.448 458.978 370.192 460.599 369.68C462.22 369.083 463.799 368.272 465.335 367.248V302.864C462.69 302.267 460.258 301.968 458.039 301.968C446.69 302.053 440.972 310.8 440.887 328.208V346.128C440.887 354.149 442.295 360.208 445.111 364.304C447.927 368.4 451.511 370.448 455.863 370.448ZM522.451 394V249.232L514.771 244.624V232.72L555.859 226.32H564.179V394H522.451ZM638.706 327.824C638.706 316.987 638.151 309.307 637.042 304.784C635.933 300.261 633.885 298 630.898 298C628.338 298 626.247 298.469 624.626 299.408C623.005 300.261 621.81 301.669 621.042 303.632C620.274 305.509 619.762 307.472 619.506 309.52C619.335 311.483 619.25 314 619.25 317.072V327.824H638.706ZM628.466 396.688C618.909 396.688 610.589 395.237 603.506 392.336C596.509 389.435 590.962 385.381 586.866 380.176C582.855 374.971 579.911 369.125 578.034 362.64C576.157 356.069 575.218 348.773 575.218 340.752C575.218 321.637 580.082 307.173 589.81 297.36C599.538 287.547 613.149 282.64 630.642 282.64C647.453 282.64 659.485 286.608 666.738 294.544C673.991 302.395 677.618 315.067 677.618 332.56V346.768H619.122V349.2C619.122 354.235 619.634 358.373 620.658 361.616C621.767 364.859 623.346 367.248 625.394 368.784C627.442 370.32 629.533 371.344 631.666 371.856C633.799 372.368 636.402 372.624 639.474 372.624C642.461 372.624 645.661 372.24 649.074 371.472C652.573 370.704 656.071 369.509 659.57 367.888C663.154 366.267 666.141 364.347 668.53 362.128L676.082 375.056C672.925 380.176 668.274 384.485 662.13 387.984C656.071 391.397 650.226 393.701 644.594 394.896C638.962 396.091 633.586 396.688 628.466 396.688Z" fill="white"/>
</g>
<defs>
<filter id="filter0_d_203_15" x="30.576" y="226.32" width="651.042" height="214.336" filterUnits="userSpaceOnUse" color-interpolation-filters="sRGB">
<feFlood flood-opacity="0" result="BackgroundImageFix"/>
<feColorMatrix in="SourceAlpha" type="matrix" values="0 0 0 0 0 0 0 0 0 0 0 0 0 0 0 0 0 0 127 0" result="hardAlpha"/>
<feOffset dy="4"/>
<feGaussianBlur stdDeviation="2"/>
<feComposite in2="hardAlpha" operator="out"/>
<feColorMatrix type="matrix" values="0 0 0 0 0 0 0 0 0 0 0 0 0 0 0 0 0 0 0.25 0"/>
<feBlend mode="normal" in2="BackgroundImageFix" result="effect1_dropShadow_203_15"/>
<feBlend mode="normal" in="SourceGraphic" in2="effect1_dropShadow_203_15" result="shape"/>
</filter>
<linearGradient id="paint0_linear_203_15" x1="700" y1="20" x2="700" y2="680" gradientUnits="userSpaceOnUse">
<stop offset="0.45" stop-color="#1C1917"/>
<stop offset="0.5" stop-color="#82746B"/>
<stop offset="0.55" stop-color="#1C1917"/>
</linearGradient>
<linearGradient id="paint1_linear_203_15" x1="0" y1="350" x2="700" y2="350" gradientUnits="userSpaceOnUse">
<stop stop-color="#1C1917"/>
<stop offset="1" stop-color="#171717"/>
</linearGradient>
</defs>
</svg>
