<svg width="1030" height="700" viewBox="0 0 1030 700" fill="none" xmlns="http://www.w3.org/2000/svg">
<circle cx="700" cy="350" r="328.5" fill="url(#paint0_linear_203_15)" stroke="white" stroke-width="3"/>
<circle cx="697.864" cy="337.917" r="100" transform="rotate(-33.351 697.864 337.917)" fill="#D946EF"/>
<path d="M621.175 314.166C619.657 311.86 620.296 308.759 622.603 307.241L699.452 256.662C701.759 255.144 704.859 255.783 706.377 258.09L775.098 362.505C776.616 364.812 775.977 367.912 773.671 369.43L696.821 420.009C694.515 421.527 691.414 420.888 689.896 418.581L621.175 314.166Z" fill="#10B981"/>
<path d="M721.303 385.225L697.71 400.754L642.727 317.213L652.136 311.02C654.655 309.363 658.394 306.766 663.353 303.229C668.282 299.645 672.385 296.774 675.664 294.616C684.883 288.549 693.479 286.398 701.453 288.165C709.426 289.932 716.634 295.71 723.077 305.5C726.955 311.392 729.705 317.278 731.327 323.157C732.965 328.958 733.494 334.262 732.913 339.071C732.333 343.88 730.926 348.211 728.695 352.063C726.463 355.916 723.494 359.062 719.787 361.501C719.312 361.814 718.813 362.143 718.29 362.487C717.815 362.799 717.363 363.097 716.936 363.378C716.524 363.581 716.034 363.87 715.463 364.245C714.909 364.541 714.466 364.799 714.133 365.018C713.817 365.158 713.374 365.416 712.803 365.791C712.249 366.088 711.877 366.299 711.687 366.424C711.497 366.549 711.125 366.76 710.571 367.056C710.017 367.353 709.716 367.517 709.669 367.548L721.303 385.225ZM697.633 317.751C695.318 314.234 692.491 312.009 689.152 311.074C685.812 310.139 682.361 310.844 678.797 313.19L675.375 315.442L699.77 352.508L702.407 350.772C706.162 348.301 708.232 345.134 708.617 341.271C709.051 337.376 707.703 333.052 704.576 328.3L697.633 317.751Z" fill="white"/>
<path d="M0 9.99998C0 4.47713 4.47715 0 10 0H690C695.523 0 700 4.47715 700 10V690C700 695.523 695.523 700 690 700H9.99998C4.47713 700 0 695.523 0 690V9.99998Z" fill="url(#paint1_linear_203_15)"/>
<g filter="url(#filter0_d_203_15)">
<path d="M118.453 386H83.1467V260.987H97.2267C100.996 260.987 106.684 260.844 114.293 260.56C121.902 260.204 128.16 260.027 133.067 260.027C146.862 260.027 157.316 263.689 164.427 271.013C171.538 278.338 175.093 289.324 175.093 303.973C175.093 312.791 173.92 320.827 171.573 328.08C169.298 335.262 166.204 341.164 162.293 345.787C158.382 350.409 153.938 353.964 148.96 356.453C143.982 358.942 138.72 360.187 133.173 360.187C132.462 360.187 131.716 360.187 130.933 360.187C130.222 360.187 129.547 360.187 128.907 360.187C128.338 360.116 127.627 360.08 126.773 360.08C125.991 360.009 125.351 359.973 124.853 359.973C124.427 359.902 123.787 359.867 122.933 359.867C122.151 359.796 121.618 359.76 121.333 359.76C121.049 359.76 120.516 359.724 119.733 359.653C118.951 359.582 118.524 359.547 118.453 359.547V386ZM140.107 299.28C140.107 294.018 138.684 289.751 135.84 286.48C132.996 283.209 128.907 281.573 123.573 281.573H118.453V337.04H122.4C128.018 337.04 132.356 335.156 135.413 331.387C138.542 327.618 140.107 322.178 140.107 315.067V299.28ZM227.2 375.44C230.329 375.44 232.711 374.16 234.347 371.6C236.053 368.969 236.907 365.378 236.907 360.827V327.12C236.907 313.253 233.636 306.32 227.093 306.32C224.036 306.32 221.653 307.564 219.947 310.053C218.24 312.542 217.387 316.062 217.387 320.613V355.28C217.387 368.72 220.658 375.44 227.2 375.44ZM226.347 388.24C210.062 388.24 198.151 384.542 190.613 377.147C183.076 369.751 179.307 357.947 179.307 341.733C179.307 325.662 183.111 313.573 190.72 305.467C198.329 297.289 210.702 293.2 227.84 293.2C244.551 293.2 256.604 297.111 264 304.933C271.467 312.684 275.2 324.453 275.2 340.24C275.2 356.596 271.253 368.684 263.36 376.507C255.538 384.329 243.2 388.24 226.347 388.24ZM341.433 386C337.309 386 333.54 385.573 330.127 384.72C326.713 383.867 323.727 382.8 321.167 381.52V418.213H286.82V316.987L280.42 313.04V301.627L303.353 295.333H321.167V302.48C323.727 299.849 326.82 297.644 330.447 295.867C334.073 294.089 338.304 293.2 343.14 293.2C354.873 293.2 363.478 297.218 368.953 305.253C374.5 313.289 377.273 324.418 377.273 338.64C377.273 345.324 376.527 351.511 375.033 357.2C373.54 362.818 371.336 367.796 368.42 372.133C365.504 376.471 361.736 379.884 357.113 382.373C352.562 384.791 347.336 386 341.433 386ZM325.753 371.173C335.282 371.173 340.047 363.884 340.047 349.307V331.173C340.047 324.773 338.944 320.009 336.74 316.88C334.607 313.751 331.833 312.187 328.42 312.187C326.073 312.187 323.656 312.898 321.167 314.32V370.64C322.02 370.853 322.802 370.996 323.513 371.067C324.296 371.138 325.042 371.173 325.753 371.173ZM449.259 386L445.099 372.24C444.53 373.236 443.855 374.231 443.073 375.227C442.361 376.222 441.188 377.502 439.552 379.067C437.917 380.56 436.175 381.876 434.326 383.013C432.477 384.151 430.166 385.147 427.392 386C424.619 386.853 421.704 387.28 418.646 387.28C406.913 387.28 398.308 383.262 392.832 375.227C387.357 367.191 384.619 356.027 384.619 341.733C384.619 332.773 385.899 324.809 388.459 317.84C391.019 310.8 395.037 305.147 400.512 300.88C405.988 296.613 412.601 294.48 420.353 294.48C424.975 294.48 429.099 294.978 432.726 295.973C436.352 296.969 439.481 298.178 442.112 299.6V267.28L430.379 263.333V251.6L468.139 246.267H476.459V386H449.259ZM434.219 366.373C435.499 366.373 436.815 366.16 438.166 365.733C439.517 365.236 440.832 364.56 442.112 363.707V310.053C439.908 309.556 437.881 309.307 436.033 309.307C426.575 309.378 421.81 316.667 421.739 331.173V346.107C421.739 352.791 422.912 357.84 425.259 361.253C427.606 364.667 430.592 366.373 434.219 366.373ZM489.709 386V265.36L483.309 261.52V251.6L517.549 246.267H524.482V386H489.709ZM586.588 330.853C586.588 321.822 586.126 315.422 585.202 311.653C584.277 307.884 582.571 306 580.082 306C577.948 306 576.206 306.391 574.855 307.173C573.504 307.884 572.508 309.058 571.868 310.693C571.228 312.258 570.802 313.893 570.588 315.6C570.446 317.236 570.375 319.333 570.375 321.893V330.853H586.588ZM578.055 388.24C570.091 388.24 563.157 387.031 557.255 384.613C551.424 382.196 546.802 378.818 543.388 374.48C540.046 370.142 537.593 365.271 536.028 359.867C534.464 354.391 533.682 348.311 533.682 341.627C533.682 325.698 537.735 313.644 545.842 305.467C553.948 297.289 565.291 293.2 579.868 293.2C593.877 293.2 603.904 296.507 609.948 303.12C615.993 309.662 619.015 320.222 619.015 334.8V346.64H570.268V348.667C570.268 352.862 570.695 356.311 571.548 359.013C572.473 361.716 573.788 363.707 575.495 364.987C577.202 366.267 578.944 367.12 580.722 367.547C582.499 367.973 584.668 368.187 587.228 368.187C589.717 368.187 592.384 367.867 595.228 367.227C598.144 366.587 601.059 365.591 603.975 364.24C606.962 362.889 609.451 361.289 611.442 359.44L617.735 370.213C615.104 374.48 611.228 378.071 606.108 380.987C601.059 383.831 596.188 385.751 591.495 386.747C586.802 387.742 582.322 388.24 578.055 388.24Z" fill="white"/>
</g>
<defs>
<filter id="filter0_d_203_15" x="79.1467" y="246.267" width="543.868" height="179.947" filterUnits="userSpaceOnUse" color-interpolation-filters="sRGB">
<feFlood flood-opacity="0" result="BackgroundImageFix"/>
<feColorMatrix in="SourceAlpha" type="matrix" values="0 0 0 0 0 0 0 0 0 0 0 0 0 0 0 0 0 0 127 0" result="hardAlpha"/>
<feOffset dy="4"/>
<feGaussianBlur stdDeviation="2"/>
<feComposite in2="hardAlpha" operator="out"/>
<feColorMatrix type="matrix" values="0 0 0 0 0 0 0 0 0 0 0 0 0 0 0 0 0 0 0.25 0"/>
<feBlend mode="normal" in2="BackgroundImageFix" result="effect1_dropShadow_203_15"/>
<feBlend mode="normal" in="SourceGraphic" in2="effect1_dropShadow_203_15" result="shape"/>
</filter>
<linearGradient id="paint0_linear_203_15" x1="700" y1="20" x2="700" y2="680" gradientUnits="userSpaceOnUse">
<stop offset="0.45" stop-color="#1C1917"/>
<stop offset="0.5" stop-color="#82746B"/>
<stop offset="0.55" stop-color="#1C1917"/>
</linearGradient>
<linearGradient id="paint1_linear_203_15" x1="0" y1="350" x2="700" y2="350" gradientUnits="userSpaceOnUse">
<stop stop-color="#1C1917"/>
<stop offset="1" stop-color="#171717"/>
</linearGradient>
</defs>
</svg>
